<svg xmlns="http://www.w3.org/2000/svg" xmlns:xlink="http://www.w3.org/1999/xlink" width="612.251" height="563.437" viewBox="0 0 612.251 563.437">
  <defs>
    <clipPath id="clip-path">
      <rect id="Rectangle_1930" data-name="Rectangle 1930" width="42.245" height="61.758" fill="#ecf0fa"/>
    </clipPath>
  </defs>
  <g id="Group_3145" data-name="Group 3145" transform="translate(26.924)">
    <g id="Group_3146" data-name="Group 3146">
      <g id="Group_3143" data-name="Group 3143">
        <g id="Group_3147" data-name="Group 3147">
          <path id="Path_6168" data-name="Path 6168" d="M364.108,231.227l19.273-.4,9.493-.162c3.157-.068,6.3-.053,9.444-.079l-.642.644L401.6,215.08l.72.721-19.105-.091c-6.368-.007-12.736-.163-19.105-.237l.394-.394c-.027,2.644-.124,5.3-.189,7.988Zm0,0-.2-7.988c-.065-2.694-.162-5.418-.189-8.159l0-.39.4,0c6.369-.074,12.737-.228,19.105-.235l19.105-.091.724,0,0,.724-.078,16.147,0,.648-.641,0c-3.219-.026-6.449-.012-9.659-.079l-9.612-.162Z" transform="translate(161.117 94.956)" fill="#173a8d"/>
          <rect id="Rectangle_1917" data-name="Rectangle 1917" width="38.212" height="16.147" transform="translate(503.833 330.395)" fill="#173a8d"/>
          <path id="Path_6170" data-name="Path 6170" d="M1.043,322.577l19.272-.4,9.493-.162c3.157-.068,6.3-.053,9.444-.079l-.642.644-.078-16.147.72.721-19.105-.091c-6.368-.007-12.737-.163-19.105-.237l.394-.394c-.027,2.644-.124,5.3-.189,7.988Zm0,0-.2-7.988c-.065-2.694-.162-5.418-.189-8.159l0-.39.4,0c6.368-.074,12.737-.228,19.105-.235l19.105-.091.724,0,0,.724L39.9,322.577l0,.648-.641,0c-3.219-.026-6.449-.012-9.659-.079l-9.612-.162Z" transform="translate(0.286 135.422)" fill="#173a8d"/>
          <rect id="Rectangle_1918" data-name="Rectangle 1918" width="38.212" height="16.147" transform="translate(22.645 462.212)" fill="#afd8f8"/>
          <path id="Path_6171" data-name="Path 6171" d="M69.652,113.591l19.272-.4,9.493-.162c3.157-.068,6.3-.053,9.444-.079l-.642.644-.078-16.147.72.721-19.105-.091c-6.368-.007-12.737-.163-19.105-.237l.394-.394c-.027,2.644-.124,5.3-.189,7.988Zm0,0-.2-7.988c-.065-2.694-.162-5.418-.189-8.159l0-.39.4,0c6.368-.074,12.737-.228,19.105-.235l19.105-.091.724,0,0,.724-.078,16.147,0,.648-.641,0c-3.219-.026-6.449-.012-9.659-.079l-9.612-.162Z" transform="translate(30.678 42.845)" fill="#173a8d"/>
          <rect id="Rectangle_1919" data-name="Rectangle 1919" width="38.212" height="16.147" transform="translate(22.461 0.724)" fill="#c9d6f2"/>
          <path id="Path_6173" data-name="Path 6173" d="M364.108,16.871l19.273-.4,9.493-.162c3.157-.068,6.3-.053,9.444-.079l-.642.644L401.6.724l.72.721-19.105-.091c-6.368-.007-12.736-.163-19.105-.237L364.5.724c-.027,2.644-.124,5.3-.189,7.988Zm0,0-.2-7.988c-.065-2.694-.162-5.418-.189-8.159l0-.39.4,0C370.478.257,376.845.1,383.213.1L402.318,0l.724,0,0,.724-.078,16.147,0,.648-.641,0c-3.219-.026-6.449-.012-9.659-.079l-9.612-.162Z" transform="translate(161.117)" fill="#173a8d"/>
          <path id="Path_6174" data-name="Path 6174" d="M45.09,87.355a4.552,4.552,0,0,1,4.768.033q.6.364,1.222.7t1.265.638A4.537,4.537,0,0,1,55,92.663l.182,5.863,19.1-.595-.18-5.86a4.538,4.538,0,0,1,2.4-4.118,26.844,26.844,0,0,0,2.421-1.5,4.538,4.538,0,0,1,4.742-.3l5.156,2.765,9.032-16.842-5.154-2.765a4.539,4.539,0,0,1-2.371-4.118,26.292,26.292,0,0,0-.094-2.844,4.542,4.542,0,0,1,2.1-4.277l4.981-3.092L87.244,38.744l-5.009,3.1a4.53,4.53,0,0,1-4.743-.036q-.6-.361-1.222-.7t-1.257-.633a4.545,4.545,0,0,1-2.662-3.952l-.177-5.867-19.1.593.186,5.847a4.542,4.542,0,0,1-2.394,4.12,26.215,26.215,0,0,0-2.429,1.505,4.539,4.539,0,0,1-4.746.306l-5.153-2.765L29.509,57.112l5.153,2.763A4.538,4.538,0,0,1,37.033,64a26.9,26.9,0,0,0,.091,2.856,4.543,4.543,0,0,1-2.108,4.274l-4.973,3.079L40.113,90.443ZM49.877,57.2a15.65,15.65,0,1,1,6.405,21.186A15.664,15.664,0,0,1,49.877,57.2" transform="translate(13.072 13.583)" fill="#8ba4dc"/>
          <path id="Path_6176" data-name="Path 6176" d="M3.554,94.245A3.189,3.189,0,0,1,5.111,97.2q-.024.489-.025.986t.025.993a3.175,3.175,0,0,1-1.553,2.944L0,104.176l6.69,11.593,3.557-2.052a3.183,3.183,0,0,1,3.338.117,18.6,18.6,0,0,0,1.724,1,3.178,3.178,0,0,1,1.758,2.827v4.1H30.456v-4.1a3.18,3.18,0,0,1,1.758-2.827,18.626,18.626,0,0,0,1.726-1,3.181,3.181,0,0,1,3.336-.117l3.558,2.052,6.688-11.593-3.573-2.065A3.173,3.173,0,0,1,42.4,99.17c.016-.326.025-.655.025-.984s-.009-.659-.025-.986a3.181,3.181,0,0,1,1.558-2.952L47.522,92.2,40.833,80.6l-3.548,2.049a3.181,3.181,0,0,1-3.336-.113,18.432,18.432,0,0,0-1.733-1,3.18,3.18,0,0,1-1.76-2.828v-4.1H17.066v4.1a3.181,3.181,0,0,1-1.759,2.828,18.274,18.274,0,0,0-1.734,1,3.181,3.181,0,0,1-3.336.113L6.69,80.6,0,92.2Zm20.2-7.029A10.964,10.964,0,1,1,12.8,98.186a10.974,10.974,0,0,1,10.959-10.97" transform="translate(-26.924 196.876)" fill="#173a8d"/>
          <path id="Path_6177" data-name="Path 6177" d="M370.391,310.593c-10.68-21.954-29.37-33.228-50.434-27s-24.327,35.6-8.6,43.017,31.447-14.239,39.753-18.689,19.284,2.67,19.284,2.67" transform="translate(133.56 124.873)" fill="#003cca"/>
          <path id="Path_6178" data-name="Path 6178" d="M377.431,367.381c-.055-2.646-.157-5.291-.251-7.936q-.279-7.926-.561-15.853c-.359-9.662-1.4-19.151-5.4-28.059a43.5,43.5,0,0,0-16.944-19.526,35.68,35.68,0,0,0-8.906-3.843c-2.6-2.918-6.678-4.807-10.394-5.71-4.87-1.183-9.877-.925-14.817-.371-.178.02-.172.3.006.278a35.631,35.631,0,0,1,14.019,1,29.509,29.509,0,0,1,5.648,2.2,27.148,27.148,0,0,1,3.267,2.072,30.27,30.27,0,0,0-12.873.124,28.87,28.87,0,0,0-4.467,1.475,13.1,13.1,0,0,0-3.509-.3,20.829,20.829,0,0,0-4.561.649,34.417,34.417,0,0,0-8.665,3.786c-.157.089-.012.323.146.237a32.31,32.31,0,0,1,8.456-3.188,28.311,28.311,0,0,1,4.346-.636,21.541,21.541,0,0,1,2.423.019,27.924,27.924,0,0,0-13.622,13.571c-.074.163.172.3.244.136,3.159-7.14,9.9-12.014,17.356-13.913.465-.12.939-.182,1.408-.274a20.6,20.6,0,0,0-.225,2.124q-.21,1.6-.534,3.188a54.264,54.264,0,0,1-1.714,6.426,50.615,50.615,0,0,1-2.553,6.232,29.719,29.719,0,0,1-3.56,6.012.138.138,0,1,0,.222.163c1.264-1.983,2.737-3.808,3.892-5.869a44.1,44.1,0,0,0,2.857-6.128,41.713,41.713,0,0,0,1.877-6.581q.346-1.773.554-3.571a8.348,8.348,0,0,0,.133-2.177,28.716,28.716,0,0,1,7.48-.153c-.935,5.235-1.939,10.694-4.873,15.242-.1.15.159.294.244.134a61.359,61.359,0,0,0,3.619-7.489,28.444,28.444,0,0,0,1.805-7.8,34.528,34.528,0,0,1,12.366,4.149,40.841,40.841,0,0,1,16.464,18.011c3.955,8.121,5.542,16.863,6.1,25.816.7,11.221.849,22.511,1.968,33.7.074.73,1.232.977,1.374.151a39.56,39.56,0,0,0,.154-7.511" transform="translate(136.86 126.523)" fill="#263238"/>
          <path id="Path_6179" data-name="Path 6179" d="M342.794,293.783a12.415,12.415,0,0,0-2.427-2.241c-.874-.724-1.772-1.423-2.711-2.062a20.2,20.2,0,0,0-6.068-2.814.14.14,0,0,0-.068.271,16.076,16.076,0,0,1,5.988,2.942c.893.655,1.75,1.359,2.584,2.085a15.308,15.308,0,0,0,2.45,2.082.19.19,0,0,0,.251-.264" transform="translate(146.812 126.986)" fill="#263238"/>
          <path id="Path_6180" data-name="Path 6180" d="M318.3,297.127a64.668,64.668,0,0,0-4.9,6.48,39.464,39.464,0,0,0-3.644,7.224c-.027.076.092.118.128.05,2.59-4.657,5.192-9.456,8.616-13.563.114-.137-.088-.33-.2-.192" transform="translate(137.216 131.601)" fill="#263238"/>
          <path id="Path_6181" data-name="Path 6181" d="M332.6,295.638a15.8,15.8,0,0,1-1.208,3.973,26.261,26.261,0,0,1-2.033,3.519c-.049.074.064.152.121.089a14.251,14.251,0,0,0,3.39-7.514c.027-.176-.24-.245-.27-.068" transform="translate(145.896 130.916)" fill="#263238"/>
          <path id="Path_6182" data-name="Path 6182" d="M355.375,306.367s15.122-19.006,44.313-12.27c27.743,6.4,40.546,57.276,12.512,63.363s-23.092-40.991-33.308-48.981c-7.5-5.86-18.277-4.6-23.516-2.113" transform="translate(157.425 129.64)" fill="#023bc0"/>
          <path id="Path_6183" data-name="Path 6183" d="M426.476,320.656a56.552,56.552,0,0,0-6.014-4.609,26.132,26.132,0,0,0-6.411-3.2,38.843,38.843,0,0,0-3.807-4.895,37.663,37.663,0,0,0-8.82-7.024c.29-.017.579-.048.869-.058a45.671,45.671,0,0,1,4.641.046,25.943,25.943,0,0,1,9.007,2.242c.164.075.284-.182.12-.251a41.172,41.172,0,0,0-8.994-2.711,25.406,25.406,0,0,0-4.558-.391c-.818.009-1.639.063-2.453.143-.152.014-.31.023-.468.036a39.268,39.268,0,0,0-8.414-3.094c.271-.072.538-.157.812-.219a40.525,40.525,0,0,1,4.326-.711,33.973,33.973,0,0,1,8.734.134c.178.026.228-.251.049-.274a55.166,55.166,0,0,0-8.827-.356,37.268,37.268,0,0,0-7.343.951,39.039,39.039,0,0,0-5.322-.607c-10.177-.43-21.272,3.375-27.538,11.739-6.286,8.389-7.493,19.544-8.6,29.645a225.145,225.145,0,0,0-1.115,42.427c.066.836,1.238.683,1.264-.111.382-11.994.805-23.994,1.952-35.948.531-5.534,1.123-11.091,2.042-16.576a48.9,48.9,0,0,1,4.024-13.651,24.974,24.974,0,0,1,9.851-10.591,33.265,33.265,0,0,1,13.955-4.293,37.612,37.612,0,0,1,13.1,1.227,8.6,8.6,0,0,0-.075,2.583,14.488,14.488,0,0,0,.641,3.189,16.615,16.615,0,0,0,1.221,2.833c.54,1,1.219,1.895,1.823,2.856.1.151.339-.02.227-.162a13.268,13.268,0,0,1-2.263-5.753,22.909,22.909,0,0,1-.349-2.975c-.039-.752.026-1.509-.007-2.258a38.56,38.56,0,0,1,12.742,6.729c.711.567,1.4,1.169,2.065,1.788a14.241,14.241,0,0,0-2.475,3.039,29.909,29.909,0,0,0-2.6,4.623,39.259,39.259,0,0,0-2.7,10.153c-.027.177.25.228.274.05a29.412,29.412,0,0,1,3.32-9.622,39.029,39.029,0,0,1,2.587-4.276c.492-.7,1-1.4,1.532-2.069.286-.362.6-.73.872-1.118a40.244,40.244,0,0,1,8.277,11.656c-.017.012-.037.01-.053.026a19.874,19.874,0,0,0-3.421,4.915,45.864,45.864,0,0,0-2.733,5.843,98.089,98.089,0,0,0-3.483,11.9c-.043.173.24.228.274.05a49.933,49.933,0,0,1,4.14-11.723q1.305-2.744,2.763-5.408a49.85,49.85,0,0,0,2.742-5.1,37.431,37.431,0,0,1,3.33,13.519c.009.179.293.156.279-.024a47.175,47.175,0,0,0-6.553-20.749c1.785.76,3.576,1.495,5.293,2.42a29.713,29.713,0,0,1,6.071,4.264c.131.121.316-.1.179-.214" transform="translate(153.18 130.865)" fill="#263238"/>
          <path id="Path_6184" data-name="Path 6184" d="M388.117,313.688c-.876,2.882-1.978,5.68-2.768,8.592a33.075,33.075,0,0,0-1.289,8.581c0,.078.126.082.137.006a83.483,83.483,0,0,1,4.182-17.094.139.139,0,1,0-.263-.085" transform="translate(170.132 138.91)" fill="#263238"/>
          <path id="Path_6185" data-name="Path 6185" d="M402.295,310.036a16.246,16.246,0,0,0-3.864-2.762,28,28,0,0,0-4.476-1.583c-.167-.051-.228.235-.049.274a17.485,17.485,0,0,1,4.306,1.773,32.258,32.258,0,0,1,3.967,2.436.091.091,0,0,0,.117-.138" transform="translate(174.445 135.413)" fill="#263238"/>
          <path id="Path_6186" data-name="Path 6186" d="M365.336,299.081s2.789-34.145,28.177-45.213c21.2-9.242,33.334,14.577,18.347,29.158-12.122,11.795-31.562,6.472-46.525,16.055" transform="translate(161.837 111.541)" fill="#003cca"/>
          <path id="Path_6187" data-name="Path 6187" d="M411.752,258.619a107.227,107.227,0,0,0-11.29,5.345,84.81,84.81,0,0,0-8.766,5.818c.423-.863.789-1.766,1.214-2.61.664-1.317,1.372-2.609,2.157-3.86a36.187,36.187,0,0,1,5.592-7.078c.13-.123-.076-.32-.2-.192a55.768,55.768,0,0,0-5.886,6.851,40.786,40.786,0,0,0-2.413,3.864,15.451,15.451,0,0,0-1.706,3.932c-.091.071-.189.133-.28.2a83.4,83.4,0,0,0-12.125,11.863c.071-.335.141-.67.228-.978q.714-2.5,1.538-4.961a42.3,42.3,0,0,1,4.587-9.959c.1-.149-.151-.289-.244-.134a79.564,79.564,0,0,0-5.314,9.711,36.958,36.958,0,0,0-1.753,5.048,21.5,21.5,0,0,0-.825,3.43c-1.107,1.4-2.195,2.815-3.219,4.274-10.9,15.514-16.368,34.281-17.679,53.056a162.719,162.719,0,0,0-.284,16.821,105.272,105.272,0,0,0,1.488,16.881c.069.352.623.247.613-.1-.127-4.934-.636-9.847-.732-14.783s.078-9.9.476-14.825a137.882,137.882,0,0,1,5.537-29.054,104.008,104.008,0,0,1,12.909-27.316c1.069-.212,2.128-.5,3.18-.772,1.268-.328,2.537-.651,3.8-1a38.02,38.02,0,0,0,7.078-2.6c.159-.081.01-.329-.146-.237a22.876,22.876,0,0,1-7.179,2.476c-1.986.4-4.05.654-6.04,1.11a95.987,95.987,0,0,1,5.9-7.757,44.076,44.076,0,0,0,14.443-1.078,58.338,58.338,0,0,0,7.391-2.3c2.544-.98,4.951-2.238,7.459-3.287.189-.078.059-.356-.113-.253-4.306,2.615-9.717,3.955-14.641,4.792a90.594,90.594,0,0,1-13.7,1.131c1.8-2.068,3.665-4.085,5.654-5.978,6.668-6.349,14.589-12.186,23.369-15.226.172-.059.082-.336-.081-.267" transform="translate(157.251 113.403)" fill="#263238"/>
          <path id="Path_6188" data-name="Path 6188" d="M381.652,257.9a38.482,38.482,0,0,0-3.112,4.553,24.844,24.844,0,0,0-2.24,5.294.056.056,0,0,0,.1.04c.846-1.674,1.561-3.411,2.418-5.079a25.424,25.424,0,0,1,3.032-4.616c.114-.138-.092-.332-.2-.192" transform="translate(166.693 114.224)" fill="#263238"/>
          <path id="Path_6189" data-name="Path 6189" d="M399.608,265.771a26.273,26.273,0,0,1-5.2,2.172,47.765,47.765,0,0,1-5.3,1.424c-.085.016-.062.16.023.15a25.863,25.863,0,0,0,5.489-1.2,46.536,46.536,0,0,0,5.14-2.306c.157-.079.01-.329-.147-.238" transform="translate(172.342 117.723)" fill="#263238"/>
          <path id="Path_6190" data-name="Path 6190" d="M368.875,306.989c-.16,1.475-3.841-12.4-25.3-24.713-19.493-11.185-42.76-40.274-23.646-58.651,15.427-14.834,56.07,17.5,48.95,83.364" transform="translate(138.564 97.488)" fill="#003cca"/>
          <path id="Path_6191" data-name="Path 6191" d="M378.568,383.034a380.589,380.589,0,0,0-3.405-43.158,194.275,194.275,0,0,0-9.069-38.63c-1.6-4.512-3.421-8.955-5.4-13.327a30.537,30.537,0,0,0-.089-5.107c-.1-2.186-.3-4.368-.5-6.545s-.423-4.359-.684-6.532c-.258-2.157-.719-4.34-.808-6.509a.139.139,0,1,0-.274.043,45.961,45.961,0,0,1,.771,6.91c.163,2.105.284,4.211.349,6.322s.055,4.225.056,6.339c0,.762-.04,1.57-.069,2.384-2.019-4.265-4.183-8.463-6.524-12.554,1.453-8.9-.434-18.2-2.252-26.9-.038-.175-.3-.094-.267.081a75.885,75.885,0,0,1,1.416,13.792c.082,3.655-.088,7.31-.1,10.962-.517-.874-1.027-1.752-1.557-2.618-2.782-4.545-5.758-9-8.916-13.322a20.842,20.842,0,0,0-.208-6.338,48.929,48.929,0,0,0-1.556-6.934q-1.026-3.411-2.377-6.7c-.929-2.257-2.169-4.391-3.065-6.656-.075-.189-.355-.059-.253.114a32.664,32.664,0,0,1,2.688,6.733,61.256,61.256,0,0,1,1.756,6.678c.453,2.26.825,4.524,1.141,6.807.211,1.509.343,3.075.6,4.6a164.613,164.613,0,0,0-15.03-17.49c-.128-.128-.309.069-.192.2a197.847,197.847,0,0,1,21.822,29.686c.235.4.459.8.69,1.195-1.182-.742-2.538-1.33-3.651-1.948q-3.121-1.734-6.26-3.436-3.05-1.647-6.081-3.329c-1.042-.577-2.068-1.177-3.127-1.72a25.082,25.082,0,0,1-3.638-2.016c-.163-.123-.338.127-.163.222,2.065,1.136,3.892,2.824,5.886,4.1,2.012,1.283,4.046,2.514,6.128,3.675,3.817,2.13,7.961,3.659,11.717,5.861,2.607,4.56,5.006,9.241,7.224,14.007q-3.42-2.193-6.972-4.173c-1.521-.854-3.046-1.693-4.589-2.5a22.489,22.489,0,0,1-4.323-2.613c-.136-.115-.322.077-.193.2a40.632,40.632,0,0,0,8.247,5.739c2.758,1.612,5.545,3.166,8.411,4.573q3.444,7.541,6.212,15.361c9.035,25.581,12.355,52.738,13.941,79.709.472,8.042.717,16.076.817,24.131s-.325,16.073-.309,24.111c0,.238.393.293.426.048.964-7.13,1.134-14.382,1.446-21.564.316-7.3.32-14.648.159-21.958" transform="translate(143.646 100.974)" fill="#263238"/>
          <path id="Path_6192" data-name="Path 6192" d="M341.729,259.089a103.087,103.087,0,0,1-11.405-5.9,120.2,120.2,0,0,1-10.831-6.876c-.058-.04-.128.056-.074.1a91.293,91.293,0,0,0,10.4,7.273,104.1,104.1,0,0,0,11.776,5.645c.164.072.3-.176.134-.244" transform="translate(141.488 109.108)" fill="#263238"/>
          <path id="Path_6193" data-name="Path 6193" d="M339.873,237.14c-.319-1.248-.711-2.475-1.131-3.691a.112.112,0,0,0,.053-.143c-.27-.691-.557-1.377-.838-2.065a2.272,2.272,0,0,0-.1-.247c-.052-.131-.107-.263-.159-.4-.017-.043-.085-.025-.071.022.076.235.136.476.209.713a3.553,3.553,0,0,0,.115.394,101.656,101.656,0,0,1,3.182,14.573c.024.156.261.16.251-.006a48.947,48.947,0,0,0-1.511-9.154" transform="translate(149.562 102.14)" fill="#263238"/>
          <path id="Path_6194" data-name="Path 6194" d="M396.853,339.017l-1.53,18.154-4.69,55.367H340.409l-4.688-55.367-1.531-18.154Z" transform="translate(148.04 150.178)" fill="#8ba4dc"/>
          <path id="Path_6195" data-name="Path 6195" d="M396.853,339.017l-1.53,18.154h-59.6l-1.531-18.154Z" transform="translate(148.04 150.178)" fill="#263238"/>
          <rect id="Rectangle_1921" data-name="Rectangle 1921" width="72.52" height="17.417" transform="translate(477.301 481.91)" fill="#173a8d"/>
          <path id="Path_6196" data-name="Path 6196" d="M.522,390.189l73.071-.351,73.073-.127,146.144-.242,146.142.241,73.073.126,73.071.354-73.071.354-73.073.126-146.142.241-146.144-.242-73.073-.127Z" transform="translate(0.231 172.528)" fill="#263238"/>
          <path id="Path_6197" data-name="Path 6197" d="M370.055,7.118H126.12a24.9,24.9,0,0,0-24.675,25.137V534.427a24.923,24.923,0,0,0,24.675,25.137H370.055a24.938,24.938,0,0,0,24.7-25.137V32.255a24.919,24.919,0,0,0-24.7-25.137m9.28,511.782c0,13.218-9.9,23.91-22.108,23.91H138.991c-12.236,0-22.135-10.693-22.135-23.91V51.288c0-26.926,9.9-28.239,22.135-28.239H182.7c2.54,0,4.616,2.886,4.616,6.465v1.544c0,8.384,4.59,8.413,10.231,8.413h101.1c5.684,0,10.231-.029,10.231-8.413V29.513c0-3.579,2.049-6.465,4.631-6.465h43.722c12.208,0,22.108,3.579,22.108,28.239Z" transform="translate(44.938 3.153)" fill="#173a8d"/>
          <path id="Path_6198" data-name="Path 6198" d="M221.62,23.327H194.044a1.7,1.7,0,1,1,0-3.407H221.62a1.7,1.7,0,0,1,0,3.407" transform="translate(85.203 8.824)" fill="#fff"/>
          <path id="Path_6199" data-name="Path 6199" d="M374.605,46.4V514.01c0,13.218-9.9,23.91-22.107,23.91H134.262c-12.236,0-22.135-10.693-22.135-23.91V46.4c0-26.926,9.9-28.239,22.135-28.239H177.97c2.54,0,4.618,2.886,4.618,6.465v1.544c0,8.384,4.589,8.413,10.231,8.413h101.1c5.685,0,10.231-.029,10.231-8.413V24.623c0-3.579,2.049-6.465,4.632-6.465H352.5c12.208,0,22.107,3.579,22.107,28.239" transform="translate(49.67 8.044)" fill="#fff"/>
          <path id="Path_6200" data-name="Path 6200" d="M132.917,54.564,125.162,47.3l7.755-7.265,1.2,1.281L127.735,47.3l6.385,5.984Z" transform="translate(55.445 17.734)" fill="#c7c7c7"/>
          <path id="Path_6201" data-name="Path 6201" d="M280.876,42.4a1.525,1.525,0,1,1-1.525-1.525,1.526,1.526,0,0,1,1.525,1.525" transform="translate(123.072 18.107)" fill="#c7c7c7"/>
          <path id="Path_6202" data-name="Path 6202" d="M280.876,46.16a1.525,1.525,0,1,1-1.525-1.525,1.526,1.526,0,0,1,1.525,1.525" transform="translate(123.072 19.772)" fill="#c7c7c7"/>
          <path id="Path_6203" data-name="Path 6203" d="M280.876,49.92a1.525,1.525,0,1,1-1.525-1.525,1.526,1.526,0,0,1,1.525,1.525" transform="translate(123.072 21.438)" fill="#c7c7c7"/>
          <path id="Path_6204" data-name="Path 6204" d="M155.435,26.041l-.423.42c-.079.079-.159.16-.24.24a5.748,5.748,0,0,0-8.143,0c-.075-.078-.15-.159-.228-.238l-.417-.418-.013-.007v-.01L146,26c.177-.157.351-.32.534-.472a6.561,6.561,0,0,1,2.873-1.338c.27-.051.544-.075.817-.108.094-.012.7-.014.717-.013.185.014.372.022.557.042a6.335,6.335,0,0,1,1.5.359,6.633,6.633,0,0,1,1.016.475,6.462,6.462,0,0,1,.97.68c.152.13.3.267.446.4Z" transform="translate(64.663 10.664)" fill="#c7c7c7"/>
          <path id="Path_6205" data-name="Path 6205" d="M147.562,27.451l-.668-.662a4.708,4.708,0,0,1,2.716-1.364,4.762,4.762,0,0,1,4.085,1.355l-.671.667a3.863,3.863,0,0,0-5.462,0" transform="translate(65.071 11.241)" fill="#c7c7c7"/>
          <path id="Path_6206" data-name="Path 6206" d="M151.946,27.539c-.219.221-.44.44-.664.664a1.975,1.975,0,0,0-2.8,0l-.662-.662a2.9,2.9,0,0,1,4.125,0" transform="translate(65.482 11.818)" fill="#c7c7c7"/>
          <path id="Path_6207" data-name="Path 6207" d="M150.036,28.337a.6.6,0,1,1-.6-.6.6.6,0,0,1,.6.6" transform="translate(65.931 12.287)" fill="#c7c7c7"/>
          <path id="Path_6208" data-name="Path 6208" d="M123.987,26.855a1.74,1.74,0,1,1,1.74,1.739,1.74,1.74,0,0,1-1.74-1.739" transform="translate(54.924 11.125)" fill="#c7c7c7"/>
          <path id="Path_6209" data-name="Path 6209" d="M127.784,26.855a1.74,1.74,0,1,1,1.74,1.739,1.74,1.74,0,0,1-1.74-1.739" transform="translate(56.606 11.125)" fill="#c7c7c7"/>
          <path id="Path_6210" data-name="Path 6210" d="M131.581,26.855a1.74,1.74,0,1,1,1.74,1.739,1.74,1.74,0,0,1-1.74-1.739" transform="translate(58.288 11.125)" fill="#c7c7c7"/>
          <path id="Path_6211" data-name="Path 6211" d="M135.378,26.855a1.74,1.74,0,1,1,1.739,1.739,1.74,1.74,0,0,1-1.739-1.739" transform="translate(59.97 11.125)" fill="#c7c7c7"/>
          <path id="Path_6212" data-name="Path 6212" d="M139.175,26.855a1.74,1.74,0,1,1,1.74,1.739,1.74,1.74,0,0,1-1.74-1.739" transform="translate(61.652 11.125)" fill="#c7c7c7"/>
          <path id="Path_6213" data-name="Path 6213" d="M284.739,30.98h-14.18V24.4h14.18ZM271.3,30.238H284v-5.1H271.3Z" transform="translate(119.853 10.809)" fill="#c7c7c7"/>
          <rect id="Rectangle_1922" data-name="Rectangle 1922" width="9.128" height="4.332" transform="translate(391.598 36.333)" fill="#173a8d"/>
          <rect id="Rectangle_1923" data-name="Rectangle 1923" width="1.26" height="3.509" transform="translate(404.592 36.743)" fill="#c7c7c7"/>
          <path id="Path_6214" data-name="Path 6214" d="M145.307,361.411h-2v9.164h-3.729v-4.669h-6.6v4.669h-3.729v-9.164h-2l9.026-9.327Z" transform="translate(56.372 155.967)" fill="#173a8d"/>
          <rect id="Rectangle_1924" data-name="Rectangle 1924" width="21.756" height="3.108" transform="translate(380.705 508.051)" fill="#173a8d"/>
          <rect id="Rectangle_1925" data-name="Rectangle 1925" width="21.756" height="3.108" transform="translate(380.705 515.742)" fill="#173a8d"/>
          <rect id="Rectangle_1926" data-name="Rectangle 1926" width="21.756" height="3.11" transform="translate(380.705 523.433)" fill="#173a8d"/>
          <path id="Path_6215" data-name="Path 6215" d="M211.164,357.95l-6.186,6.6-6.185-6.6,1.091-1.024,5.094,5.437,5.1-5.437Z" transform="translate(88.062 158.112)" fill="#173a8d"/>
          <path id="Path_6216" data-name="Path 6216" d="M206.529,373.836A11.237,11.237,0,1,1,217.766,362.6a11.249,11.249,0,0,1-11.237,11.237m0-20.99a9.753,9.753,0,1,0,9.753,9.753,9.764,9.764,0,0,0-9.753-9.753" transform="translate(86.511 155.647)" fill="#173a8d"/>
          <path id="Path_6217" data-name="Path 6217" d="M193.76,332.312A3.757,3.757,0,1,1,190,328.556a3.756,3.756,0,0,1,3.756,3.756" transform="translate(82.504 145.544)" fill="#dbdbdb"/>
          <path id="Path_6218" data-name="Path 6218" d="M210.787,332.9a5.682,5.682,0,1,1-5.682-5.682,5.682,5.682,0,0,1,5.682,5.682" transform="translate(88.34 144.953)" fill="#173a8d"/>
          <path id="Path_6219" data-name="Path 6219" d="M222.78,332.312a3.757,3.757,0,1,1-3.756-3.756,3.756,3.756,0,0,1,3.756,3.756" transform="translate(95.359 145.544)" fill="#dbdbdb"/>
          <rect id="Rectangle_1927" data-name="Rectangle 1927" width="101.273" height="32.203" transform="translate(241.597 373.331)" fill="#173a8d"/>
          <path id="Path_6220" data-name="Path 6220" d="M187.026,275.934v-8.724a.811.811,0,0,1,.814-.812.824.824,0,0,1,.828.812v7.9h4.006a.82.82,0,0,1,0,1.641H187.84a.811.811,0,0,1-.814-.812" transform="translate(82.849 118.009)" fill="#fff"/>
          <path id="Path_6221" data-name="Path 6221" d="M200.69,267.773a5.432,5.432,0,0,1,0,7.482,4.844,4.844,0,0,1-3.535,1.581,4.987,4.987,0,0,1-3.62-1.581,5.51,5.51,0,0,1,0-7.482,4.932,4.932,0,0,1,3.62-1.582,4.79,4.79,0,0,1,3.535,1.582m-.192,3.74a3.834,3.834,0,0,0-1.006-2.586,3.187,3.187,0,0,0-4.73,0,3.754,3.754,0,0,0-1.007,2.586,3.693,3.693,0,0,0,1.007,2.573,3.156,3.156,0,0,0,4.73,0,3.771,3.771,0,0,0,1.006-2.573" transform="translate(85.084 117.918)" fill="#fff"/>
          <path id="Path_6222" data-name="Path 6222" d="M200.784,271.53a5.389,5.389,0,0,1,5.456-5.338,5.456,5.456,0,0,1,3.371,1.153.85.85,0,0,1,.163,1.2.862.862,0,0,1-1.2.133,3.841,3.841,0,0,0-2.336-.8,3.662,3.662,0,0,0-2.661,1.081,3.5,3.5,0,0,0,0,5.115,3.661,3.661,0,0,0,2.661,1.079,4.087,4.087,0,0,0,2.026-.561v-2.026h-2.114a.853.853,0,0,1-.844-.843.83.83,0,0,1,.844-.827h2.941a.833.833,0,0,1,.859.827v3.268a1.317,1.317,0,0,1-.043.251.66.66,0,0,0-.032.074v.014a.679.679,0,0,1-.28.354,5.447,5.447,0,0,1-3.356,1.154,5.375,5.375,0,0,1-5.456-5.307" transform="translate(88.944 117.918)" fill="#fff"/>
          <path id="Path_6223" data-name="Path 6223" d="M209.519,267.209a.8.8,0,0,1,.812-.812.822.822,0,0,1,.828.812v8.724a.823.823,0,0,1-.828.812.8.8,0,0,1-.812-.812Z" transform="translate(92.813 118.009)" fill="#fff"/>
          <path id="Path_6224" data-name="Path 6224" d="M214.195,275.9a.805.805,0,1,1-1.61,0v-8.6a.8.8,0,0,1,.325-.681.815.815,0,0,1,1.123.177l4.776,6.609v-6.091a.8.8,0,0,1,.8-.8.817.817,0,0,1,.814.8v8.59a.821.821,0,0,1-.814.812.8.8,0,0,1-.606-.3.367.367,0,0,1-.074-.088l-4.732-6.564Z" transform="translate(94.171 118.041)" fill="#fff"/>
          <path id="Path_6225" data-name="Path 6225" d="M235.063,93.95V104.5H227.6V93.95c0-10.042-7.626-18.208-17.01-18.208s-17.01,8.166-17.01,18.208v26.408h-7.462V93.95c0-14.382,10.977-26.078,24.472-26.078s24.473,11.7,24.473,26.078" transform="translate(82.447 30.066)" fill="#173a8d"/>
          <path id="Path_6226" data-name="Path 6226" d="M186.117,93.271l7.463.3v15.535h-7.463Z" transform="translate(82.447 41.317)" fill="#8ba4dc"/>
          <path id="Path_6244" data-name="Path 6244" d="M0,0H68.074V61.758H0Z" transform="translate(258.999 141.571)" fill="#173a8d"/>
          <g id="Group_3141" data-name="Group 3141" transform="translate(284.791 142.905)" opacity="0.37">
            <g id="Group_3140" data-name="Group 3140">
              <g id="Group_3139" data-name="Group 3139" clip-path="url(#clip-path)">
                <rect id="Rectangle_1929" data-name="Rectangle 1929" width="42.245" height="61.758" fill="#ecf0fa"/>
              </g>
            </g>
          </g>
          <path id="Path_6227" data-name="Path 6227" d="M207.91,124.5l2.85,13.518H198.666l2.85-13.518a6.047,6.047,0,1,1,6.394,0" transform="translate(88.005 50.21)" fill="#263238"/>
          <rect id="Rectangle_1931" data-name="Rectangle 1931" width="175.33" height="30.013" transform="translate(205.375 271.488)" fill="#fff"/>
          <rect id="Rectangle_1932" data-name="Rectangle 1932" width="175.33" height="30.013" transform="translate(205.375 271.488)" fill="none" stroke="#173a8d" stroke-miterlimit="10" stroke-width="1"/>
          <line id="Line_212" data-name="Line 212" y2="12.824" transform="translate(222.854 279.767)" fill="none" stroke="#37474f" stroke-miterlimit="10" stroke-width="1"/>
          <line id="Line_213" data-name="Line 213" x1="12.824" transform="translate(216.442 286.179)" fill="none" stroke="#37474f" stroke-miterlimit="10" stroke-width="1"/>
          <line id="Line_214" data-name="Line 214" x1="9.068" y2="9.068" transform="translate(218.32 281.645)" fill="none" stroke="#37474f" stroke-miterlimit="10" stroke-width="1"/>
          <line id="Line_215" data-name="Line 215" x1="9.068" y1="9.068" transform="translate(218.32 281.646)" fill="none" stroke="#37474f" stroke-miterlimit="10" stroke-width="1"/>
          <line id="Line_216" data-name="Line 216" y2="12.824" transform="translate(244.616 279.767)" fill="none" stroke="#37474f" stroke-miterlimit="10" stroke-width="1"/>
          <line id="Line_217" data-name="Line 217" x1="12.824" transform="translate(238.205 286.179)" fill="none" stroke="#37474f" stroke-miterlimit="10" stroke-width="1"/>
          <line id="Line_218" data-name="Line 218" x1="9.068" y2="9.068" transform="translate(240.083 281.645)" fill="none" stroke="#37474f" stroke-miterlimit="10" stroke-width="1"/>
          <line id="Line_219" data-name="Line 219" x1="9.068" y1="9.068" transform="translate(240.083 281.646)" fill="none" stroke="#37474f" stroke-miterlimit="10" stroke-width="1"/>
          <line id="Line_220" data-name="Line 220" y2="12.824" transform="translate(266.38 279.767)" fill="none" stroke="#37474f" stroke-miterlimit="10" stroke-width="1"/>
          <line id="Line_221" data-name="Line 221" x1="12.824" transform="translate(259.968 286.179)" fill="none" stroke="#37474f" stroke-miterlimit="10" stroke-width="1"/>
          <line id="Line_222" data-name="Line 222" x1="9.068" y2="9.068" transform="translate(261.846 281.645)" fill="none" stroke="#37474f" stroke-miterlimit="10" stroke-width="1"/>
          <line id="Line_223" data-name="Line 223" x1="9.068" y1="9.068" transform="translate(261.846 281.646)" fill="none" stroke="#37474f" stroke-miterlimit="10" stroke-width="1"/>
          <line id="Line_224" data-name="Line 224" y2="12.824" transform="translate(288.142 279.767)" fill="none" stroke="#37474f" stroke-miterlimit="10" stroke-width="1"/>
          <line id="Line_225" data-name="Line 225" x1="12.824" transform="translate(281.731 286.179)" fill="none" stroke="#37474f" stroke-miterlimit="10" stroke-width="1"/>
          <line id="Line_226" data-name="Line 226" x1="9.068" y2="9.068" transform="translate(283.609 281.645)" fill="none" stroke="#37474f" stroke-miterlimit="10" stroke-width="1"/>
          <line id="Line_227" data-name="Line 227" x1="9.068" y1="9.068" transform="translate(283.609 281.646)" fill="none" stroke="#37474f" stroke-miterlimit="10" stroke-width="1"/>
          <line id="Line_228" data-name="Line 228" y2="12.824" transform="translate(309.905 279.767)" fill="none" stroke="#37474f" stroke-miterlimit="10" stroke-width="1"/>
          <line id="Line_229" data-name="Line 229" x1="12.824" transform="translate(303.493 286.179)" fill="none" stroke="#37474f" stroke-miterlimit="10" stroke-width="1"/>
          <line id="Line_230" data-name="Line 230" x1="9.068" y2="9.068" transform="translate(305.371 281.645)" fill="none" stroke="#37474f" stroke-miterlimit="10" stroke-width="1"/>
          <line id="Line_231" data-name="Line 231" x1="9.068" y1="9.068" transform="translate(305.371 281.646)" fill="none" stroke="#37474f" stroke-miterlimit="10" stroke-width="1"/>
          <line id="Line_232" data-name="Line 232" y2="12.824" transform="translate(331.668 279.767)" fill="none" stroke="#37474f" stroke-miterlimit="10" stroke-width="1"/>
          <line id="Line_233" data-name="Line 233" x1="12.824" transform="translate(325.256 286.179)" fill="none" stroke="#37474f" stroke-miterlimit="10" stroke-width="1"/>
          <line id="Line_234" data-name="Line 234" x1="9.068" y2="9.068" transform="translate(327.134 281.645)" fill="none" stroke="#37474f" stroke-miterlimit="10" stroke-width="1"/>
          <line id="Line_235" data-name="Line 235" x1="9.068" y1="9.068" transform="translate(327.134 281.646)" fill="none" stroke="#37474f" stroke-miterlimit="10" stroke-width="1"/>
          <path id="Path_6228" data-name="Path 6228" d="M263.111,199.717s-2.864,3.984-7.384,3.984-7.4-3.984-7.4-3.984,2.877-3.984,7.4-3.984S263.111,199.717,263.111,199.717Z" transform="translate(110.006 86.706)" fill="none" stroke="#c3b4b4" stroke-miterlimit="10" stroke-width="1"/>
          <path id="Path_6229" data-name="Path 6229" d="M257.7,199.492a3.25,3.25,0,1,1-3.25-3.25,3.249,3.249,0,0,1,3.25,3.25" transform="translate(111.277 86.932)" fill="#707070"/>
          <line id="Line_236" data-name="Line 236" x1="11.531" y2="11.531" transform="translate(360.065 280.414)" fill="none" stroke="#696161" stroke-miterlimit="10" stroke-width="1"/>
          <path id="Path_6230" data-name="Path 6230" d="M171.751,168.935h-2.3V173a1.039,1.039,0,0,1-2.078,0V161.956a1.028,1.028,0,0,1,1.03-1.03h3.349a4,4,0,1,1,0,8.009m-2.3-2.076h2.3a1.927,1.927,0,1,0,0-3.854h-2.3Z" transform="translate(74.143 71.287)" fill="#173a8d"/>
          <path id="Path_6231" data-name="Path 6231" d="M180.951,170.93H176.4l-.918,2.433a1.049,1.049,0,0,1-.973.655,1.083,1.083,0,0,1-.355-.056,1.063,1.063,0,0,1-.619-1.348l4.134-11.019a1.046,1.046,0,0,1,.994-.655,1.024,1.024,0,0,1,.99.655l4.136,11.019a1.064,1.064,0,0,1-.616,1.348,1.026,1.026,0,0,1-.356.056,1.01,1.01,0,0,1-.955-.655Zm-.768-2.058-1.515-4.023-1.517,4.023Z" transform="translate(76.849 71.293)" fill="#173a8d"/>
          <path id="Path_6232" data-name="Path 6232" d="M181.966,170.883a.977.977,0,0,1,1.367-.131,6.084,6.084,0,0,0,3.573,1.44,4.028,4.028,0,0,0,2.338-.691,1.684,1.684,0,0,0,.807-1.348,1.07,1.07,0,0,0-.169-.6,1.79,1.79,0,0,0-.561-.561,7.519,7.519,0,0,0-2.564-.879h-.038a10.112,10.112,0,0,1-2.413-.73,4.021,4.021,0,0,1-1.74-1.459,2.876,2.876,0,0,1-.43-1.534,3.454,3.454,0,0,1,1.5-2.732,5.528,5.528,0,0,1,3.237-.991,7.328,7.328,0,0,1,4.079,1.5.962.962,0,0,1,.261,1.328.945.945,0,0,1-1.328.281,5.427,5.427,0,0,0-3.013-1.2,3.568,3.568,0,0,0-2.1.636,1.486,1.486,0,0,0-.71,1.179.9.9,0,0,0,.131.524,1.787,1.787,0,0,0,.5.486,6.442,6.442,0,0,0,2.339.823h.038a11.063,11.063,0,0,1,2.581.786,4.379,4.379,0,0,1,1.872,1.553,3.046,3.046,0,0,1,.449,1.59,3.62,3.62,0,0,1-1.61,2.9,5.843,5.843,0,0,1-3.46,1.066,8.066,8.066,0,0,1-4.791-1.872.994.994,0,0,1-.149-1.365" transform="translate(80.517 71.173)" fill="#173a8d"/>
          <path id="Path_6233" data-name="Path 6233" d="M190.489,170.883a.977.977,0,0,1,1.367-.131,6.084,6.084,0,0,0,3.573,1.44,4.028,4.028,0,0,0,2.338-.691,1.684,1.684,0,0,0,.807-1.348,1.07,1.07,0,0,0-.169-.6,1.79,1.79,0,0,0-.561-.561,7.519,7.519,0,0,0-2.564-.879h-.036a10.1,10.1,0,0,1-2.414-.73,4.021,4.021,0,0,1-1.74-1.459,2.876,2.876,0,0,1-.43-1.534,3.454,3.454,0,0,1,1.5-2.732,5.528,5.528,0,0,1,3.237-.991,7.327,7.327,0,0,1,4.079,1.5.96.96,0,0,1,.261,1.328.945.945,0,0,1-1.328.281,5.427,5.427,0,0,0-3.013-1.2,3.568,3.568,0,0,0-2.1.636,1.486,1.486,0,0,0-.71,1.179.9.9,0,0,0,.131.524,1.787,1.787,0,0,0,.5.486,6.443,6.443,0,0,0,2.339.823h.038a11.1,11.1,0,0,1,2.583.786,4.384,4.384,0,0,1,1.87,1.553,3.046,3.046,0,0,1,.449,1.59,3.62,3.62,0,0,1-1.61,2.9,5.843,5.843,0,0,1-3.46,1.066,8.065,8.065,0,0,1-4.791-1.872.994.994,0,0,1-.149-1.365" transform="translate(84.292 71.173)" fill="#173a8d"/>
          <path id="Path_6234" data-name="Path 6234" d="M216.5,162.436l-4.584,10.907a.517.517,0,0,1-.094.169l-.019.019a.528.528,0,0,1-.092.113c0,.038-.02.038-.02.056a.577.577,0,0,0-.131.092h-.019c-.056.038-.092.094-.167.113h-.019a.018.018,0,0,0-.019.019.593.593,0,0,0-.15.038h-.038a.578.578,0,0,1-.188.019.51.51,0,0,1-.167-.019h-.056a.463.463,0,0,0-.131-.038c-.017-.019-.017-.019-.038-.019a.368.368,0,0,1-.167-.113h-.019a1.47,1.47,0,0,0-.131-.092.144.144,0,0,1-.038-.056c-.019-.038-.056-.075-.075-.113-.038,0-.038-.019-.038-.019a.489.489,0,0,1-.075-.169l-2.452-5.8-2.449,5.8a1.476,1.476,0,0,1-.076.169.018.018,0,0,0-.019.019c-.036.038-.075.075-.113.113,0,.038-.019.038-.019.056a.511.511,0,0,0-.113.092h-.036c-.056.038-.113.094-.15.113h-.019a.018.018,0,0,0-.019.019.28.28,0,0,0-.149.038h-.058a.515.515,0,0,1-.167.019.643.643,0,0,1-.188-.019h-.056a.484.484,0,0,0-.13-.038c-.019-.019-.019-.019-.039-.019a.511.511,0,0,1-.167-.113h-.02c-.055-.038-.074-.075-.128-.092a.131.131,0,0,1-.039-.056c-.038-.038-.056-.075-.092-.113v-.019a1.357,1.357,0,0,1-.1-.169l-4.6-10.907a1.023,1.023,0,0,1,1.889-.786l3.668,8.664,2.414-5.745a1.03,1.03,0,0,1,.971-.636,1.072,1.072,0,0,1,.974.636l2.413,5.745,3.649-8.664a1.041,1.041,0,0,1,1.366-.543,1.013,1.013,0,0,1,.524,1.329" transform="translate(87.959 71.331)" fill="#173a8d"/>
          <path id="Path_6235" data-name="Path 6235" d="M223.388,162.67a6.872,6.872,0,0,1,0,9.467,6.135,6.135,0,0,1-4.473,2,6.316,6.316,0,0,1-4.583-2,6.977,6.977,0,0,1,0-9.467,6.241,6.241,0,0,1,4.583-2,6.062,6.062,0,0,1,4.473,2m-.242,4.733a4.859,4.859,0,0,0-1.273-3.274,4.04,4.04,0,0,0-5.988,0,4.762,4.762,0,0,0-1.27,3.274,4.678,4.678,0,0,0,1.27,3.255,4,4,0,0,0,5.988,0,4.773,4.773,0,0,0,1.273-3.255" transform="translate(94.125 71.173)" fill="#173a8d"/>
          <path id="Path_6236" data-name="Path 6236" d="M232.653,172.47a1.032,1.032,0,0,1-.654,1.31,1.665,1.665,0,0,1-.413.056h-.019a1.36,1.36,0,0,1-.73-.206,1.84,1.84,0,0,1-.6-.654,5.022,5.022,0,0,1-.394-2.245,1.578,1.578,0,0,0-.224-.805,1.738,1.738,0,0,0-.563-.543,3.566,3.566,0,0,0-1.046-.449h-2.208V173a1.042,1.042,0,0,1-1.048,1.029,1.027,1.027,0,0,1-1.03-1.029v-11.04a1.016,1.016,0,0,1,1.03-1.029h3.348a4,4,0,0,1,2.545,7.091,2.921,2.921,0,0,1,.655.693,3.551,3.551,0,0,1,.616,2.022,4.684,4.684,0,0,0,.077,1.1,1,1,0,0,1,.654.635m-2.619-7.521A1.929,1.929,0,0,0,228.106,163h-2.3v3.854h2.3a1.922,1.922,0,0,0,1.928-1.909" transform="translate(99.107 71.287)" fill="#173a8d"/>
          <path id="Path_6237" data-name="Path 6237" d="M232.018,172.995V161.956a1.014,1.014,0,0,1,1.03-1.029h2.206a6.548,6.548,0,0,1,0,13.1h-2.206a1.026,1.026,0,0,1-1.03-1.029m2.076-1.048h1.16a4.472,4.472,0,0,0,0-8.944h-1.16Z" transform="translate(102.78 71.288)" fill="#173a8d"/>
          <path id="Path_6238" data-name="Path 6238" d="M433.39,65.89S422.386,154,404.3,173.823c-21.713,23.783-37.47,20.307-46.236,32.568a.018.018,0,0,0-.019.019c-8.766-12.28-24.523-8.785-46.253-32.587C293.7,154,282.717,65.89,282.717,65.89c47.66-23.137,75.327-49.066,75.327-49.066l.019.019c.851.8,28.408,26.281,75.328,49.047" transform="translate(125.239 7.453)" fill="#173a8d"/>
          <path id="Path_6239" data-name="Path 6239" d="M358.063,16.843V206.391a.018.018,0,0,0-.019.019c-8.766-12.28-24.523-8.785-46.255-32.587C293.7,154,282.716,65.89,282.716,65.89c47.66-23.137,75.328-49.066,75.328-49.066Z" transform="translate(125.238 7.453)" fill="#8ba4dc"/>
          <path id="Path_6240" data-name="Path 6240" d="M418.112,68.472s-9.294,74.429-24.573,91.183c-18.358,20.121-31.676,17.166-39.083,27.528-7.407-10.362-20.726-7.407-39.085-27.528-15.277-16.754-24.554-91.183-24.554-91.183,40.259-19.551,63.638-41.453,63.638-41.453s23.4,21.9,63.656,41.453" transform="translate(128.827 11.969)" fill="#8ba4dc"/>
          <path id="Path_6241" data-name="Path 6241" d="M290.832,68.469s9.294,74.42,24.575,91.183c18.34,20.1,31.646,17.167,39.062,27.5V27.035c-.714.67-24,22.184-63.637,41.434" transform="translate(128.833 11.976)" fill="#173a8d"/>
          <path id="Path_6242" data-name="Path 6242" d="M373.5,91.577a29.514,29.514,0,1,1-29.513-29.513A29.513,29.513,0,0,1,373.5,91.577" transform="translate(139.305 27.493)" fill="#c9d6f2"/>
          <path id="Path_6243" data-name="Path 6243" d="M336.631,106.484,323.485,92.815l4.879-4.69,7.245,7.535L351.229,71.7l5.668,3.7Z" transform="translate(143.298 31.761)" fill="#fff"/>
        </g>
      </g>
    </g>
  </g>
</svg>
