<svg xmlns="http://www.w3.org/2000/svg" width="708.419" height="565.317" viewBox="0 0 708.419 565.317">
  <g id="Group_3937" data-name="Group 3937" transform="translate(-186 -265)">
    <g id="Group_2774" data-name="Group 2774" transform="translate(186 265)">
      <path id="Path_5209" data-name="Path 5209" d="M286.866,651.813s-83.4-215.833-23.383-263.894c40.118-32.124,82.641,38.691,133.395,1.228,45.185-33.352-17.811-117.372,57.582-139.351,79.245-23.1,144.167,163.992,210.659,138.123,80.684-31.39,160.943,32.332,91.585,264.306Z" transform="translate(-161.843 -165.894)" fill="#afd8f8"/>
      <path id="Path_5210" data-name="Path 5210" d="M196.826,1457.67c-.037-.093-.933-2.32-2.434-6.465l3.22-1.167c1.479,4.081,2.382,6.33,2.391,6.353Z" transform="translate(-130.132 -970.7)" fill="#dce6ff"/>
      <path id="Path_5211" data-name="Path 5211" d="M127.713,497.948c-1.4-4.29-2.786-8.736-4.118-13.213l3.283-.976c1.323,4.448,2.7,8.865,4.09,13.126Zm587.215-5.541-3.4-.419c.564-4.567,1.1-9.167,1.593-13.671l3.4.373c-.494,4.52-1.032,9.135-1.6,13.718M119.815,471.427c-1.2-4.425-2.361-8.932-3.455-13.4l3.326-.815c1.088,4.437,2.243,8.917,3.434,13.315Zm598.113-6.477-3.409-.322c.433-4.585.834-9.2,1.192-13.709l3.414.27c-.359,4.528-.762,9.158-1.2,13.761m-604.7-20.393c-.989-4.508-1.93-9.066-2.8-13.548l3.362-.65c.862,4.454,1.8,8.984,2.78,13.464Zm606.878-7.147-3.418-.216c.29-4.582.544-9.2.755-13.737l3.421.16c-.212,4.552-.467,9.193-.758,13.794M107.979,417.394c-.762-4.563-1.467-9.164-2.1-13.676l3.392-.472c.625,4.481,1.325,9.052,2.082,13.585Zm613.41-7.585-3.423-.1c.134-4.6.226-9.229.274-13.752l3.424.036c-.049,4.544-.141,9.192-.275,13.816M104.165,389.986c-.51-4.609-.955-9.244-1.321-13.777l3.413-.276c.363,4.5.8,9.1,1.311,13.676ZM718.254,382.2c-.04-4.606-.128-9.232-.26-13.748l3.423-.1c.133,4.54.221,9.189.261,13.818ZM101.947,362.4c-.227-4.636-.378-9.29-.448-13.834l3.424-.053c.069,4.506.219,9.122.444,13.72Zm615.5-7.676c-.235-4.6-.524-9.215-.859-13.718l3.415-.254c.337,4.529.627,9.171.864,13.8ZM104.955,334.783l-3.424-.07c.1-4.648.279-9.3.547-13.838l3.418.2c-.265,4.49-.447,9.1-.541,13.707M715.4,327.311c-.458-4.6-.975-9.192-1.539-13.653l3.4-.429c.568,4.49,1.089,9.114,1.55,13.743ZM106.583,307.405l-3.407-.342c.465-4.631,1.032-9.259,1.686-13.757l3.389.492c-.646,4.448-1.207,9.026-1.667,13.607m605.357-7.348c-.712-4.57-1.495-9.123-2.325-13.532l3.365-.634c.837,4.444,1.625,9.032,2.343,13.638Zm-405.007-.483c-4.758-.75-8.2-2.916-12.968-6.657l2.165-2.654c4.177,3.268,7.193,5.229,11.168,5.906Zm11.881-8.148-3.05-1.557a54.119,54.119,0,0,0,4.119-12.661l3.345.731a56.578,56.578,0,0,1-4.415,13.487m-34.9-8.331c-2.728-3.038-5.643-6.534-8.912-10.689l2.691-2.118c3.223,4.1,6.091,7.536,8.769,10.518Zm-173.378-2.809-3.362-.653c.887-4.571,1.891-9.128,2.983-13.546l3.325.822c-1.079,4.362-2.07,8.862-2.946,13.376m596.31-7.2c-1.014-4.523-2.108-9.007-3.251-13.327l3.311-.876c1.155,4.362,2.258,8.889,3.282,13.454Zm-381.314-8.925-3.4-.437c.526-4.087,1-8.563,1.441-13.684l3.412.3c-.448,5.168-.924,9.691-1.456,13.826m-58.919-2.783c-2.783-3.759-5.671-7.733-8.158-11.162l2.772-2.011c2.483,3.423,5.364,7.388,8.139,11.135Zm250.714-.282a14.459,14.459,0,0,1-7.777-2.368l1.826-2.9c3.746,2.365,7.431,2.37,11.41.484l1.473,3.091a16.115,16.115,0,0,1-6.932,1.691m-400.2-7.379-3.275-1c1.361-4.449,2.853-8.875,4.437-13.153l3.211,1.188c-1.561,4.217-3.032,8.579-4.374,12.966m418.333-3.265-2.516-2.323a115.48,115.48,0,0,0,8.509-10.6l2.774,2.008a118.811,118.811,0,0,1-8.767,10.92m-35.644-2.355a105.867,105.867,0,0,1-6.714-12.308l3.1-1.465a102.557,102.557,0,0,0,6.493,11.911Zm200-1.516c-1.379-4.437-2.851-8.805-4.375-12.982l3.217-1.173c1.542,4.229,3.032,8.649,4.428,13.139Zm-449.471-7.531c-3.133-4.282-5.744-7.8-8.217-11.062l2.73-2.067c2.485,3.281,5.106,6.81,8.251,11.108ZM328.02,236.5l-3.417-.221c.26-4.012.524-8.521.807-13.786l3.42.184c-.284,5.277-.549,9.8-.81,13.823m-201.387-8.43L123.5,226.69q2.82-6.387,6.012-12.527l3.037,1.583q-3.142,6.034-5.916,12.327m425.439,0-2.862-1.882c2.434-3.7,4.947-7.62,7.492-11.58l2.881,1.851c-2.55,3.97-5.067,7.893-7.511,11.61m-64.484-5.064c-1.551-3.891-3.154-8.135-4.9-12.977l3.221-1.162c1.733,4.805,3.323,9.015,4.86,12.87ZM690.4,220.871c-1.841-4.288-3.789-8.454-5.789-12.382l3.052-1.554c2.033,3.994,4.013,8.228,5.883,12.584Zm-456.731-3.737c-3.107-3.857-6-7.29-8.842-10.495l2.562-2.272c2.879,3.246,5.805,6.719,8.947,10.619Zm95.874-8.269-3.42-.172c.231-4.575.46-9.152.7-13.81l3.42.18c-.244,4.655-.474,9.23-.7,13.8m237.549-3.97-2.857-1.888c2.861-4.329,5.42-8.074,7.824-11.449l2.789,1.986c-2.38,3.342-4.917,7.055-7.756,11.35m-427.751-.967-2.886-1.843a106.072,106.072,0,0,1,8.247-11.313l2.616,2.21a102.64,102.64,0,0,0-7.977,10.946m338.776-6.967c-1.571-4.6-3.111-9.207-4.411-13.1l3.249-1.084c1.3,3.892,2.837,8.489,4.4,13.082Zm-262.706-.24a118.077,118.077,0,0,0-10.229-8.948l2.088-2.714a121.576,121.576,0,0,1,10.53,9.208Zm462.552-.146c-2.454-4-5.027-7.791-7.647-11.256l2.731-2.066c2.688,3.554,5.324,7.434,7.835,11.532Zm-521.041-12.91-2.077-2.723a40.562,40.562,0,0,1,12.651-6.687l1,3.275a37.163,37.163,0,0,0-11.576,6.135m426.185-1.047-2.66-2.156a134.008,134.008,0,0,1,9.3-10.424l2.422,2.42a130.772,130.772,0,0,0-9.066,10.16m-252.093-1.347-3.418-.2c.3-4.978.591-9.5.9-13.819l3.416.244c-.308,4.308-.6,8.815-.9,13.778m-137.154-.717a40.633,40.633,0,0,0-12.493-4.034l.465-3.393a44.022,44.022,0,0,1,13.553,4.361Zm467.646-5.535a80.656,80.656,0,0,0-10.146-8.861l2.017-2.768a84.141,84.141,0,0,1,10.58,9.237Zm-192.169-4.265c-1.7-5.1-3.108-9.25-4.418-13.074l3.239-1.11c1.314,3.833,2.721,8,4.427,13.1Zm133.084-7.037-1.963-2.806a48.293,48.293,0,0,1,12.644-6.485l1.057,3.257a44.928,44.928,0,0,0-11.738,6.035m37.365-4.2a43.252,43.252,0,0,0-12.76-3.291l.318-3.41a46.659,46.659,0,0,1,13.773,3.545Zm-306.78-5.777-3.411-.3c.427-4.8.891-9.445,1.38-13.792l3.4.383c-.486,4.321-.947,8.934-1.372,13.712m127.356-9.09c-1.655-4.619-3.214-8.841-4.767-12.907l3.2-1.222c1.562,4.088,3.129,8.332,4.792,12.974Zm-124.24-18.277-3.389-.49c.693-4.795,1.454-9.405,2.263-13.7l3.366.633c-.8,4.252-1.554,8.814-2.239,13.561m114.386-7.416c-1.84-4.426-3.694-8.661-5.513-12.586l3.107-1.439c1.837,3.966,3.711,8.243,5.568,12.711ZM341.269,99.417l-3.323-.83c1.194-4.782,2.511-9.286,3.914-13.388l3.24,1.108c-1.371,4.01-2.66,8.421-3.831,13.11m97.643-5.331c-2.252-4.242-4.553-8.224-6.838-11.836l2.894-1.831c2.331,3.685,4.676,7.743,6.969,12.061ZM350.243,73.761l-3.071-1.516a68.106,68.106,0,0,1,7.412-11.974l2.69,2.119a64.664,64.664,0,0,0-7.031,11.37m73.982-2.617a83.724,83.724,0,0,0-9.18-9.876l2.3-2.54A87.177,87.177,0,0,1,426.9,69.008Zm-57.4-17.629-1.846-2.884a34.139,34.139,0,0,1,13.285-5.018L378.788,49a30.731,30.731,0,0,0-11.96,4.517m37.413,0a41.308,41.308,0,0,0-12.351-4.37l.6-3.371A44.725,44.725,0,0,1,405.866,50.5Z" transform="translate(-67.947 -30.534)" fill="#17398b"/>
      <path id="Path_5212" data-name="Path 5212" d="M1941.884,1445.4l-3.39-.489q.491-3.4.954-6.771l3.393.467q-.466,3.381-.957,6.793" transform="translate(-1297.688 -962.737)" fill="#dce6ff"/>
      <path id="Path_5213" data-name="Path 5213" d="M213.808,973.574V933.726H190.93a80.664,80.664,0,0,0-8.081-20.071L199.2,897.308,171.02,869.131l-15.732,15.732a80.734,80.734,0,0,0-23.136-9.915V851.417H92.3v23.531a80.7,80.7,0,0,0-21.618,8.984l-14.8-14.8L27.709,897.308l14.8,14.8a80.718,80.718,0,0,0-8.984,21.618H10.648v39.848H33.525a80.75,80.75,0,0,0,9.915,23.136l-15.732,15.732,28.177,28.177,16.348-16.347a80.659,80.659,0,0,0,20.071,8.081v23.531h39.848v-23.531a80.717,80.717,0,0,0,21.618-8.984l17.25,17.25,28.177-28.177-17.25-17.25a80.715,80.715,0,0,0,8.984-21.618Zm-99.2,16.4c-47.586,2.828-52.167-69.283-4.755-72.657,47.583-2.828,52.164,69.283,4.755,72.657" transform="translate(-7.128 -569.964)" fill="#173a8d"/>
      <path id="Path_5214" data-name="Path 5214" d="M1565.846,548.854V539.5h-8.271a54.527,54.527,0,0,0-4.977-18.61l7.155-4.13-4.679-8.1-7.161,4.134a55.184,55.184,0,0,0-13.621-13.621l4.134-7.161-8.1-4.679-4.13,7.154a54.522,54.522,0,0,0-18.61-4.977v-8.271h-9.358V489.5a54.525,54.525,0,0,0-18.61,4.977l-4.13-7.154-8.1,4.679,4.134,7.161a55.183,55.183,0,0,0-13.621,13.621l-7.161-4.134-4.679,8.1,7.154,4.13a54.524,54.524,0,0,0-4.977,18.61h-8.271v9.358h8.271a54.521,54.521,0,0,0,4.977,18.61l-7.154,4.13,4.679,8.1,7.161-4.134a55.179,55.179,0,0,0,13.621,13.621l-4.134,7.161,8.1,4.679,4.13-7.154a54.534,54.534,0,0,0,18.61,4.977v8.271h9.358v-8.271a54.531,54.531,0,0,0,18.61-4.977l4.13,7.154,8.1-4.679-4.134-7.161a55.173,55.173,0,0,0,13.621-13.621l7.161,4.134,4.679-8.1-7.155-4.13a54.524,54.524,0,0,0,4.977-18.61ZM1502.9,579.849c-46.893-.8-46.885-70.553,0-71.347,46.891.8,46.884,70.553,0,71.347" transform="translate(-963.952 -322.15)" fill="#23659b"/>
      <path id="Path_5215" data-name="Path 5215" d="M668.684,924.574c-28.418-4.212-23.781,33.843-64.288,33.843-37.036,0-48.884-144.92-75.831-103.494-138.144,212.377-57.926-90.317-167.79-94.164-49.678-1.739-82.78,51.231-94.987,145.017C248.093,990.563,207.056,841.109,164.825,855c-26.84,8.831-23.766,103.412-60.8,103.412-40.507,0-35.87-38.055-64.287-33.843C9.139,929.109,0,996.465,0,996.465H708.418s-9.139-67.356-39.734-71.891" transform="translate(0 -509.247)" fill="#eef7ff"/>
      <path id="Path_5216" data-name="Path 5216" d="M1832.27,1236.8v-7.066h-6.245a41.176,41.176,0,0,0-3.758-14.052l5.4-3.119-3.533-6.12-5.407,3.122a41.663,41.663,0,0,0-10.285-10.285l3.122-5.407-6.12-3.533-3.118,5.4a41.177,41.177,0,0,0-14.052-3.758v-6.245h-7.066v6.245a41.177,41.177,0,0,0-14.052,3.758l-3.119-5.4-6.119,3.533,3.122,5.407a41.659,41.659,0,0,0-10.285,10.285l-5.407-3.122-3.534,6.12,5.4,3.119a41.159,41.159,0,0,0-3.758,14.052h-6.245v7.066h6.245a41.162,41.162,0,0,0,3.758,14.052l-5.4,3.119,3.534,6.12,5.407-3.122a41.67,41.67,0,0,0,10.285,10.285l-3.122,5.407,6.119,3.533,3.119-5.4a41.177,41.177,0,0,0,14.052,3.758v6.245h7.066v-6.245a41.177,41.177,0,0,0,14.052-3.758l3.118,5.4,6.12-3.533-3.122-5.407a41.666,41.666,0,0,0,10.285-10.285l5.407,3.122,3.533-6.12-5.4-3.119a41.178,41.178,0,0,0,3.758-14.052Zm-47.527,23.4c-35.408-.6-35.4-53.273,0-53.872,35.407.6,35.4,53.273,0,53.872" transform="translate(-1162.945 -793.767)" fill="#17398b"/>
      <path id="Path_5217" data-name="Path 5217" d="M700.92,1180.462c-26.143-1.8-21.877,14.451-59.143,14.451-34.072,0-33.136-36.418-55.936-44.158-41.989-14.253-76.6,57.885-92.883,21.68-30.918-96.067-121.092-144.244-162.692,0-16.279,36.2-54.347-28.4-92.883-21.68-23.721,4.135-21.865,44.158-55.937,44.158-37.266,0-33-16.25-59.143-14.451-28.148,1.936-36.555,30.7-36.555,30.7H737.475s-8.407-28.762-36.555-30.7" transform="translate(-57.402 -723.942)" fill="#dce6ff"/>
      <path id="Path_5218" data-name="Path 5218" d="M576.544,67.141V58.3h-6.772a24.757,24.757,0,0,0-1.07-4.02L574.56,50.9,570.14,43.24l-5.866,3.387a25.108,25.108,0,0,0-2.939-2.939l3.387-5.866L557.064,33.4l-3.382,5.858a24.718,24.718,0,0,0-4.02-1.07V31.417H540.82v6.772a24.715,24.715,0,0,0-4.02,1.07L533.417,33.4l-7.657,4.421,3.387,5.866a25.1,25.1,0,0,0-2.939,2.939l-5.866-3.387L515.92,50.9l5.858,3.382a24.745,24.745,0,0,0-1.07,4.02h-6.772v8.842h6.772a24.75,24.75,0,0,0,1.07,4.02l-5.858,3.383,4.421,7.657,5.866-3.387a25.074,25.074,0,0,0,2.939,2.939l-3.387,5.866,7.657,4.421,3.382-5.858a24.783,24.783,0,0,0,4.02,1.07v6.772h8.842V87.252a24.786,24.786,0,0,0,4.02-1.07l3.382,5.858,7.657-4.421-3.387-5.866a25.084,25.084,0,0,0,2.939-2.939L570.14,82.2l4.421-7.657L568.7,71.161a24.762,24.762,0,0,0,1.07-4.02Zm-31.3,8.044c-16.385-.28-16.383-24.653,0-24.93,16.385.279,16.382,24.653,0,24.93" transform="translate(-344.045 -21.031)" fill="#1060ac"/>
      <path id="Path_5219" data-name="Path 5219" d="M.527,1473.875s-4.97,18.123,15.62,22.66c28.163,6.206,193.479,22.512,153.318,34.9-22.671,6.995,11.574,16.493,122,19.99s299.9-10.206,236.184-30.482,195.889-4.9,180.076-47.071Z" transform="translate(0 -986.657)" fill="#afd8f8"/>
      <rect id="Rectangle_1599" data-name="Rectangle 1599" width="5.331" height="36.895" transform="translate(66.047 154.332) rotate(-89.908)" fill="#173a8d"/>
      <rect id="Rectangle_1600" data-name="Rectangle 1600" width="5.331" height="36.895" transform="translate(85.428 96.04) rotate(-49.907)" fill="#173a8d"/>
      <rect id="Rectangle_1601" data-name="Rectangle 1601" width="5.331" height="36.895" transform="translate(137.745 63.844) rotate(-9.908)" fill="#173a8d"/>
      <rect id="Rectangle_1602" data-name="Rectangle 1602" width="36.895" height="5.331" transform="translate(483.401 43.351) rotate(-57.453)" fill="#173a8d"/>
      <rect id="Rectangle_1603" data-name="Rectangle 1603" width="36.895" height="5.331" transform="matrix(0.954, -0.3, 0.3, 0.954, 506.842, 70.952)" fill="#173a8d"/>
      <rect id="Rectangle_1604" data-name="Rectangle 1604" width="5.331" height="36.895" transform="translate(442.918 0.691) rotate(-7.453)" fill="#173a8d"/>
      <path id="Path_5220" data-name="Path 5220" d="M824.074,459.579c21.4,104.494-45.954,206.555-150.448,227.959A193.125,193.125,0,0,1,445.667,537.089c-21.4-104.494,45.954-206.555,150.448-227.959A193.125,193.125,0,0,1,824.074,459.579" transform="translate(-295.688 -204.286)" fill="#1060ac"/>
      <path id="Path_5221" data-name="Path 5221" d="M791.273,437.931c21.4,104.494-45.955,206.555-150.448,227.959a192.318,192.318,0,0,1-128.187-18.023,192.319,192.319,0,0,1-66.971-110.778c-21.4-104.494,45.954-206.555,150.448-227.959A192.318,192.318,0,0,1,724.3,327.153a192.319,192.319,0,0,1,66.971,110.778" transform="translate(-295.688 -204.286)" fill="#173a8d"/>
      <path id="Path_5222" data-name="Path 5222" d="M854.737,524.849A163.812,163.812,0,1,1,661.385,397.241,163.812,163.812,0,0,1,854.737,524.849" transform="translate(-355.075 -263.672)" fill="#b8d2ff"/>
      <path id="Path_5223" data-name="Path 5223" d="M634.942,753.545a3.028,3.028,0,1,1-3.574-2.359,3.029,3.029,0,0,1,3.574,2.359" transform="translate(-421.036 -502.825)" fill="#3b679b"/>
      <path id="Path_5224" data-name="Path 5224" d="M751.534,576.886a3.028,3.028,0,1,1-3.574-2.359,3.028,3.028,0,0,1,3.574,2.359" transform="translate(-499.087 -384.564)" fill="#3b679b"/>
      <path id="Path_5225" data-name="Path 5225" d="M1152.122,494.831a3.028,3.028,0,1,1-3.574-2.359,3.028,3.028,0,0,1,3.574,2.359" transform="translate(-767.253 -329.634)" fill="#3b679b"/>
      <path id="Path_5226" data-name="Path 5226" d="M1294.244,1188.671a3.028,3.028,0,1,1-3.574-2.359,3.028,3.028,0,0,1,3.574,2.359" transform="translate(-862.394 -794.112)" fill="#3b679b"/>
      <path id="Path_5227" data-name="Path 5227" d="M893.656,1270.725a3.028,3.028,0,1,1-3.574-2.359,3.028,3.028,0,0,1,3.574,2.359" transform="translate(-594.227 -849.041)" fill="#3b679b"/>
      <path id="Path_5228" data-name="Path 5228" d="M717,1154.134a3.028,3.028,0,1,1-3.574-2.359,3.028,3.028,0,0,1,3.574,2.359" transform="translate(-475.966 -770.992)" fill="#3b679b"/>
      <path id="Path_5229" data-name="Path 5229" d="M1410.836,1012.011a3.028,3.028,0,1,1-3.575-2.359,3.029,3.029,0,0,1,3.575,2.359" transform="translate(-940.444 -675.85)" fill="#3b679b"/>
      <path id="Path_5230" data-name="Path 5230" d="M1328.781,611.423a3.028,3.028,0,1,1-3.574-2.359,3.028,3.028,0,0,1,3.574,2.359" transform="translate(-885.514 -407.684)" fill="#3b679b"/>
      <path id="Path_5231" data-name="Path 5231" d="M619.133,958.09a6.057,6.057,0,1,1-7.149-4.718,6.057,6.057,0,0,1,7.149,4.718" transform="translate(-406.44 -638.133)" fill="#3b679b"/>
      <path id="Path_5232" data-name="Path 5232" d="M1420.31,793.982a6.057,6.057,0,1,1-7.149-4.718,6.057,6.057,0,0,1,7.149,4.718" transform="translate(-942.772 -528.274)" fill="#3b679b"/>
      <path id="Path_5233" data-name="Path 5233" d="M1101.776,1276.624a6.057,6.057,0,1,1-7.149-4.718,6.057,6.057,0,0,1,7.149,4.718" transform="translate(-729.536 -851.37)" fill="#3b679b"/>
      <path id="Path_5234" data-name="Path 5234" d="M937.667,475.448a6.057,6.057,0,1,1-7.149-4.718,6.057,6.057,0,0,1,7.149,4.718" transform="translate(-619.676 -315.038)" fill="#3b679b"/>
      <rect id="Rectangle_1605" data-name="Rectangle 1605" width="20.677" height="59.359" transform="translate(282.488 68.79) rotate(-11.576)" fill="#173a8d"/>
      <rect id="Rectangle_1606" data-name="Rectangle 1606" width="20.677" height="59.359" transform="matrix(0.621, -0.783, 0.783, 0.621, 150.959, 157.932)" fill="#8a9edd"/>
      <rect id="Rectangle_1607" data-name="Rectangle 1607" width="59.359" height="20.677" transform="translate(412.291 137.251) rotate(-61.576)" fill="#8a9edd"/>
      <path id="Path_5235" data-name="Path 5235" d="M840.118,158.095a10.338,10.338,0,0,1-8.053,12.2l-66.847,13.693a10.276,10.276,0,0,1-7.488-1.323v0a10.333,10.333,0,0,1,3.34-18.928l66.847-13.693a10.341,10.341,0,0,1,12.2,8.053" transform="translate(-503.951 -100.3)" fill="#173a8d"/>
      <path id="Path_5236" data-name="Path 5236" d="M433.988,346.489c-.006.008-62.225,78.444-62.233,78.456-17.038-10.8-26.218-24.065-29.536-37.5-10.854-43.959,43.709-88.038,91.769-40.952" transform="translate(-228.181 -218.409)" fill="#17398b"/>
      <path id="Path_5237" data-name="Path 5237" d="M1299.968,189.94c4.27,15.966-3.833,33.39-12.265,47.23-.014,0-88.031-47.658-88.068-47.669l7.235-13.367c16.474-32.2,64.225-35.074,84.662-5.456h0a50.269,50.269,0,0,1,8.432,19.264" transform="translate(-803.073 -100.493)" fill="#17398b"/>
      <path id="Path_5238" data-name="Path 5238" d="M1300.207,231.57a49.871,49.871,0,0,1-5.027,33.858l-7.238,13.372-87.95-47.608c2.953,1.478,60.025,29.229,91.779-18.885h0a50.267,50.267,0,0,1,8.432,19.264" transform="translate(-803.312 -142.124)" fill="#4d7ff5"/>
      <path id="Path_5239" data-name="Path 5239" d="M496.6,346.357l-62.21,78.427c1.122-1.6,47.7-68.444,4.957-96.658l.015-.007.012,0q2.047-.6,4.125-1.027a49.977,49.977,0,0,1,41.194,9.822Z" transform="translate(-290.795 -218.277)" fill="#4d7ff5"/>
      <path id="Path_5240" data-name="Path 5240" d="M359.9,434.227a50.1,50.1,0,0,1,2.014-79.984s-33.863,37.819-2.014,79.984" transform="translate(-228.238 -237.141)" fill="#003cca"/>
      <path id="Path_5241" data-name="Path 5241" d="M1299.581,162.492c-44.3-19.474-78.06,12.918-78.06,12.918a49.826,49.826,0,0,1,67.871-20.2,51.484,51.484,0,0,1,10.189,7.286" transform="translate(-817.724 -99.771)" fill="#003cca"/>
      <path id="Path_5242" data-name="Path 5242" d="M865.258,158.095a10.338,10.338,0,0,1-8.053,12.2l-66.847,13.693s66.4-15.878,62.7-33.947a10.341,10.341,0,0,1,12.2,8.053" transform="translate(-529.09 -100.3)" fill="#677cc1"/>
      <path id="Path_5243" data-name="Path 5243" d="M815.537,158.143c-55.72,11.413-57.771,29.729-57.808,30.085a10.333,10.333,0,0,1,3.34-18.928Z" transform="translate(-503.95 -105.865)" fill="#8a9edd"/>
    </g>
    <text id="Get_ready_" data-name="Get ready!" transform="translate(392 577)" fill="#fff" font-size="47" font-family="SharpSans-Bold, Sharp Sans" font-weight="700"><tspan x="0" y="0">Get ready!</tspan></text>
  </g>
</svg>
