<svg id="Group_2880" data-name="Group 2880" xmlns="http://www.w3.org/2000/svg" xmlns:xlink="http://www.w3.org/1999/xlink" width="509.333" height="388.154" viewBox="0 0 509.333 388.154">
  <defs>
    <clipPath id="clip-path">
      <rect id="Rectangle_1688" data-name="Rectangle 1688" width="509.333" height="388.154" fill="none"/>
    </clipPath>
    <clipPath id="clip-path-3">
      <rect id="Rectangle_1686" data-name="Rectangle 1686" width="100.449" height="263.926" fill="none"/>
    </clipPath>
  </defs>
  <g id="Group_2879" data-name="Group 2879" clip-path="url(#clip-path)">
    <g id="Group_2878" data-name="Group 2878">
      <g id="Group_2877" data-name="Group 2877" clip-path="url(#clip-path)">
        <path id="Path_5360" data-name="Path 5360" d="M34.5,368.234s-47.194-33.161-25.5-74.839,65.1-105.669,43.386-138.3C30.71,122.481,28.5,17.975,153.28,1.957c99.524-12.769,129.775,39.794,145.2,75.666,20.347,47.321,2.164,133.711,97.319,145.108,95.18,11.392,149.546,58.454,81.371,135.158C447.375,391.41,34.5,368.234,34.5,368.234" transform="translate(1.654 0)" fill="#c9d6f2"/>
        <path id="Path_5361" data-name="Path 5361" d="M186.106,327.454C115.873,342.8,58.672,321.491,78.193,285.227s7.551-40.836-7.5-52.242-48.86-43.167-15.922-78.054c32.978-34.868,7.928-44.986-2.367-65.5C22.333,29.566,144.3,4.987,111.3,60.081c-24.775,41.348-23.469,73.009,7.319,94.047,30.815,21.042,36.96,32.139,35.6,58.144s-12,81.275,19.4,78.974c31.374-2.3,48.515,28.331,12.494,36.208" transform="translate(20.458 14.7)" fill="#ebf2ff"/>
        <path id="Path_5362" data-name="Path 5362" d="M55.29,75.637c-3.262-6.2-4.027-36.579,25.451-35,17.94.959,8.625,25.461,4.555,44.314S84.011,133.4,91.508,145.59c13.85,22.485,10.89,31.947-6.258,51.238,0,0-8.9,14.327,7.521,29.7s10.078,57.713,29.154,64.574,29.855,21.485,16.781,22.846c-13.042,1.372-67.149,6.628-52.908-29,20.759-51.862-19.711-67.237-29.793-78.745-9.245-10.55-17.152-34.122,9.66-63.682,20.742-22.879-.375-47.8-10.376-66.89" transform="translate(23.7 20.327)" fill="#cbdbf4"/>
        <path id="Path_5363" data-name="Path 5363" d="M139.479,280.063l-1.076,4.754A190.91,190.91,0,0,1,86.56,261.494c-35.09-22.531-56.417-53.456-61.638-89.5l4.545-.782C41.6,254.917,138.5,279.814,139.479,280.063" transform="translate(12.486 85.773)" fill="#003cca"/>
        <path id="Path_5364" data-name="Path 5364" d="M32.962,189.844S7.475,176.323,18.034,145.179c0,0,22.617,18.375,14.927,44.665" transform="translate(7.751 72.732)" fill="#003cca"/>
        <path id="Path_5365" data-name="Path 5365" d="M48.875,201.3S14.129,212.909,0,173.683c0,0,18.533-6.805,48.875,27.615" transform="translate(0 86.739)" fill="#003cca"/>
        <path id="Path_5366" data-name="Path 5366" d="M31.8,210.806s32.262-17.994,16.182-56.336c0,0-17.614,9.127-16.182,56.336" transform="translate(15.891 77.387)" fill="#003cca"/>
        <path id="Path_5367" data-name="Path 5367" d="M61.752,219.119s-33.5,15.319-51.364-22.124c0,0,17.776-8.791,51.364,22.124" transform="translate(5.204 98.112)" fill="#003cca"/>
        <path id="Path_5368" data-name="Path 5368" d="M44.264,230.808s30.366-21.383,10.615-57.764c0,0-16.655,11.007-10.615,57.764" transform="translate(21.515 86.692)" fill="#003cca"/>
        <path id="Path_5369" data-name="Path 5369" d="M81.93,233.381S51.355,254.5,27.675,220.9c0,0,16.1-11.886,54.255,12.484" transform="translate(13.865 109.214)" fill="#003cca"/>
        <path id="Path_5370" data-name="Path 5370" d="M64.979,248.18s26.482-26.548,1.127-58.77c0,0-14.644,13.845-1.127,58.77" transform="translate(29.684 94.892)" fill="#003cca"/>
        <path id="Path_5371" data-name="Path 5371" d="M102.112,240.549s-24.328,28.768-55.554,2.91c0,0,12.662-15.871,55.554-2.91" transform="translate(23.325 117.96)" fill="#003cca"/>
        <path id="Path_5372" data-name="Path 5372" d="M88.206,258.358s19.1-32.857-13.393-56.91c0,0-10.747,17.354,13.393,56.91" transform="translate(36.285 100.922)" fill="#003cca"/>
        <path id="Path_5373" data-name="Path 5373" d="M228.125,338.714c67.256,18.356,123.695.548,106.6-35.543s-5.3-39.911,9.848-50.215,49.448-39.378,19.28-74.79c-30.189-35.416-5.44-43.964,5.546-63.325,32.073-56.484-84.81-86.334-55.58-31.338,21.947,41.273,19.118,71.858-11.763,90.706-30.865,18.858-37.355,29.3-37.335,54.549s7.593,79.3-22.7,75.52c-30.276-3.79-48.389,25.018-13.9,34.436" transform="translate(104.891 27.231)" fill="#91b3fa"/>
        <g id="Group_2876" data-name="Group 2876" transform="translate(370.806 98.696)" opacity="0.2" style="mix-blend-mode: overlay;isolation: isolate">
          <g id="Group_2875" data-name="Group 2875">
            <g id="Group_2874" data-name="Group 2874" clip-path="url(#clip-path-3)">
              <path id="Path_5374" data-name="Path 5374" d="M344.989,100.922c3.475-5.846,5.719-35.224-22.906-35.167-17.411.041-9.6,24.232-6.6,42.694s-1.153,46.981-9.019,58.418c-14.526,21.083-12.125,30.393,3.524,49.921,0,0,7.9,14.328-8.776,28.4-16.655,14.075-12.607,55.392-31.414,61.09-18.822,5.689-29.987,19.327-17.4,21.291s64.727,9.752,52.674-25.455c-17.523-51.253,22.425-64.139,32.765-74.784,9.477-9.758,18.3-32.192-6.2-62.147-18.954-23.186,2.742-46.275,13.353-64.26" transform="translate(-247.042 -65.754)" fill="#f6f5f7"/>
            </g>
          </g>
        </g>
        <path id="Path_5375" data-name="Path 5375" d="M215.682,276.632l-1.021-6.232c98.979-16.176,141.795-93.687,142.227-94.49l5.561,3.006c-.437.788-44.624,81.031-146.768,97.715" transform="translate(107.542 88.128)" fill="#ebf2ff"/>
        <path id="Path_5376" data-name="Path 5376" d="M309.143,187.739s12.926-33.425,29.784-22.753c7.166,4.525,3.3,20.748-29.784,22.753" transform="translate(154.875 81.602)" fill="#ebf2ff"/>
        <path id="Path_5377" data-name="Path 5377" d="M304.145,189.53s32.947-19.041,36.385.2c1.449,8.213-12.991,18.965-36.385-.2" transform="translate(152.372 90.741)" fill="#ebf2ff"/>
        <path id="Path_5378" data-name="Path 5378" d="M308.129,200.378s20.169-30.769-.594-33.735c-8.848-1.285-20.311,12.215.594,33.735" transform="translate(148.454 83.443)" fill="#ebf2ff"/>
        <path id="Path_5379" data-name="Path 5379" d="M293.1,215.32s21.713-30.017,1.2-33.928c-8.737-1.675-20.814,11.332-1.2,33.928" transform="translate(141.541 90.802)" fill="#ebf2ff"/>
        <path id="Path_5380" data-name="Path 5380" d="M280.319,226.639s21.556-30.048,1.036-33.918c-8.746-1.671-20.783,11.393-1.036,33.918" transform="translate(135.082 96.479)" fill="#ebf2ff"/>
        <path id="Path_5381" data-name="Path 5381" d="M260.968,237.876s26.609-26.543,7.577-33.837c-8.12-3.1-22.24,7.979-7.577,33.837" transform="translate(127.546 101.966)" fill="#ebf2ff"/>
        <path id="Path_5382" data-name="Path 5382" d="M245.675,244.948s25.851-27.187,6.507-33.928c-8.2-2.844-22.043,8.569-6.507,33.928" transform="translate(119.551 105.504)" fill="#ebf2ff"/>
        <path id="Path_5383" data-name="Path 5383" d="M222.631,250.71s32.216-20.295,16.257-31.957c-6.81-4.977-23.109,2.778-16.257,31.957" transform="translate(110.709 108.89)" fill="#ebf2ff"/>
        <path id="Path_5384" data-name="Path 5384" d="M293.415,202.942s33-19.052,36.406.224c1.453,8.192-12.957,18.92-36.406-.224" transform="translate(146.996 97.462)" fill="#ebf2ff"/>
        <path id="Path_5385" data-name="Path 5385" d="M280.3,214.764s33-19.011,36.4.243c1.469,8.188-12.972,18.93-36.4-.243" transform="translate(140.425 103.396)" fill="#ebf2ff"/>
        <path id="Path_5386" data-name="Path 5386" d="M265.895,222.788s35.985-11.991,34.461,7.958c-.615,8.493-16.984,16.167-34.461-7.958" transform="translate(133.209 109.823)" fill="#ebf2ff"/>
        <path id="Path_5387" data-name="Path 5387" d="M248.867,231.225s36.752-8.548,32.983,11.371c-1.609,8.478-18.522,14.6-32.983-11.371" transform="translate(124.678 114.926)" fill="#ebf2ff"/>
        <path id="Path_5388" data-name="Path 5388" d="M230.818,237.036s37.092-3.677,30.321,15.886c-2.93,8.309-20.347,12.189-30.321-15.886" transform="translate(115.636 118.613)" fill="#ebf2ff"/>
        <path id="Path_5389" data-name="Path 5389" d="M468.928,253.865c0,7.862-101.285,14.237-226.239,14.237s-226.24-6.375-226.24-14.237,101.3-14.232,226.24-14.232S468.928,246,468.928,253.865" transform="translate(8.241 120.052)" fill="#acbfe2"/>
        <path id="Path_5390" data-name="Path 5390" d="M387.022,195.273A158.547,158.547,0,1,1,228.476,36.721,158.543,158.543,0,0,1,387.022,195.273" transform="translate(35.033 18.397)" fill="#173a8d"/>
        <path id="Path_5391" data-name="Path 5391" d="M215.745,212.488c4.6,7.5-.041,18.731-10.391,25.086s-22.464,5.419-27.066-2.083l-52.934-86.21c-4.607-7.5.036-18.726,10.391-25.08,10.336-6.355,22.465-5.42,27.066,2.076Z" transform="translate(61.909 60.109)" fill="#f6f5f7"/>
        <path id="Path_5392" data-name="Path 5392" d="M197.283,245.009a21.978,21.978,0,0,1-37.457-23l72.949-118.89A21.981,21.981,0,0,1,270.249,126.1Z" transform="translate(78.441 46.406)" fill="#f6f5f7"/>
      </g>
    </g>
  </g>
</svg>
