<svg id="Group_2871" data-name="Group 2871" xmlns="http://www.w3.org/2000/svg" xmlns:xlink="http://www.w3.org/1999/xlink" width="68" height="68" viewBox="0 0 68 68">
  <defs>
    <clipPath id="clip-path">
      <rect id="Rectangle_1683" data-name="Rectangle 1683" width="68" height="68" fill="#173a8d"/>
    </clipPath>
  </defs>
  <g id="Group_2870" data-name="Group 2870" clip-path="url(#clip-path)">
    <path id="Path_5358" data-name="Path 5358" d="M31.079,0h.93V6.266h3.984V0h.93a2.763,2.763,0,0,0,.44.114,33.146,33.146,0,0,1,9.67,2.422c.8.334,1.587.719,2.411,1.1L46.264,9.088,49.7,11.1,52.886,5.67A34.368,34.368,0,0,1,62.579,15.5l-5.471,3.112,1.967,3.46,5.478-3.093a32.279,32.279,0,0,1,2.778,8.057c.268,1.339.449,2.695.669,4.043v.93H61.735v3.984H68v.93a2.707,2.707,0,0,0-.116.44,32.916,32.916,0,0,1-2.176,9.059c-.4,1.014-.875,2-1.329,3.027L58.912,46.26,56.9,49.7l5.428,3.187A34.385,34.385,0,0,1,52.5,62.577l-3.112-5.472-3.463,1.971,3.1,5.474A33.75,33.75,0,0,1,35.97,68V60.065H32V68a33.887,33.887,0,0,1-13.426-3.651L21.741,58.9l-3.442-2-3.181,5.425A34.3,34.3,0,0,1,5.426,52.5L10.9,49.394,8.929,45.931l-5.481,3.1A33.833,33.833,0,0,1,0,35.981H6.272V32H0A33.873,33.873,0,0,1,3.651,18.566L9.1,21.736,11.1,18.3,5.675,15.114A34.282,34.282,0,0,1,15.5,5.423l3.114,5.471,3.462-1.967-3.1-5.478A32.2,32.2,0,0,1,27.035.669C28.374.4,29.731.22,31.079,0M43.571,14.277c-.155.253-.273.436-.381.625q-4.678,8.208-9.342,16.423a1.144,1.144,0,0,1-1.169.7c-2.72-.041-5.442-.018-8.163-.018h-.691v4.024h7.312L29.3,39.291l3.458,1.965c.92-1.61,1.818-3.131,2.659-4.683a.977.977,0,0,1,1.028-.593c1.519.035,3.039.013,4.573.013V32H38.046l8.973-15.754-3.448-1.964" fill="#173a8d"/>
  </g>
</svg>
