<svg id="Group_2685" data-name="Group 2685" xmlns="http://www.w3.org/2000/svg" xmlns:xlink="http://www.w3.org/1999/xlink" width="220" height="220" viewBox="0 0 220 220">
  <defs>
    <clipPath id="clip-path">
      <path id="Path_5256" data-name="Path 5256" d="M0,0H220V220H0Z" fill="#ccc"/>
    </clipPath>
  </defs>
  <g id="Mask_Group_2510" data-name="Mask Group 2510" clip-path="url(#clip-path)">
    <path id="Path_5246" data-name="Path 5246" d="M220,101.437v17.613c-1.022,2.24-.827,4.7-1.19,7.046-4.131,26.729-16.463,48.948-36.669,66.86-.626.555-1.153,1.307-2.1,1.4A21.886,21.886,0,0,0,174,190.321q-16.988-8.506-33.988-16.991a13.473,13.473,0,0,1-7.993-12.7c-.054-3.937,0-7.875-.021-11.813a3.486,3.486,0,0,1,.722-2.388,77.419,77.419,0,0,0,13.131-24.2,2.8,2.8,0,0,1,1.693-1.738,10.882,10.882,0,0,0,6.6-10.432c.057-4.581.014-9.164.011-13.746a11.209,11.209,0,0,0-2.918-7.857,2.857,2.857,0,0,1-.845-2.093c.042-6.872-.165-13.753.105-20.615.517-13.137-6.007-24.025-18.349-28.651a61.848,61.848,0,0,0-44.535.036c-11.69,4.385-18.37,14.776-18.277,27.013.054,7.157.073,14.315.15,21.472a4.081,4.081,0,0,1-1.05,3.1A10.5,10.5,0,0,0,65.737,96c-.026,4.725-.035,9.451,0,14.175A10.91,10.91,0,0,0,69.87,119a3.716,3.716,0,0,1,1.343,2.1,71.347,71.347,0,0,0,12.168,25.135,3.964,3.964,0,0,1,.792,2.571c-.029,3.579-.074,7.16,0,10.738.132,6.217-2.606,10.626-8.058,13.558C65.784,178.659,55.5,184.31,45.2,189.93a22.645,22.645,0,0,0-5.775,4.049,8.042,8.042,0,0,1-3.045-2.3C8.958,165.986-3.314,134.458.766,97.06c3.056-28,15.571-51.524,36.914-69.823C66.152,2.824,99.146-5.094,135.717,3.145c43,9.686,77.067,47.132,83.076,90.589.355,2.569.247,5.225,1.207,7.7" transform="translate(0 0)" fill="#ccc"/>
    <path id="Path_5247" data-name="Path 5247" d="M172.762,189.307q-16.988-8.506-33.987-16.991a13.473,13.473,0,0,1-7.994-12.7c-.054-3.936,0-7.874-.021-11.812a3.489,3.489,0,0,1,.722-2.388,77.4,77.4,0,0,0,13.131-24.2,2.8,2.8,0,0,1,1.693-1.738,10.882,10.882,0,0,0,6.6-10.432c.057-4.581.014-9.164.011-13.746A11.209,11.209,0,0,0,150,87.443a2.852,2.852,0,0,1-.844-2.093c.042-6.872-.166-13.753.1-20.615.517-13.137-6.007-24.026-18.348-28.651a61.851,61.851,0,0,0-44.536.036C74.686,40.5,68.006,50.9,68.1,63.132c.054,7.157.073,14.315.15,21.472a4.081,4.081,0,0,1-1.05,3.1,10.5,10.5,0,0,0-2.7,7.279c-.026,4.724-.035,9.451,0,14.175a10.907,10.907,0,0,0,4.132,8.823,3.714,3.714,0,0,1,1.343,2.1,71.347,71.347,0,0,0,12.168,25.135,3.971,3.971,0,0,1,.793,2.571c-.03,3.579-.075,7.16,0,10.738.133,6.217-2.606,10.626-8.058,13.558-10.335,5.56-20.621,11.211-30.923,16.832a22.645,22.645,0,0,0-5.775,4.049c3,3.445,6.869,5.807,10.632,8.249a110.845,110.845,0,0,0,44.5,16.742c1.068.16,2.311-.151,3.264.535.909.071,1.815.15,2.714.253,1.114.057,2.223.132,3.321.242h8.058q3.545-.364,7.075-.379,2.357-.328,4.712-.5a108.914,108.914,0,0,0,55.091-23.336,3.211,3.211,0,0,0,1.251-1.425,21.906,21.906,0,0,0-6.036-4.035" transform="translate(1.241 1.014)" fill="#e7eaeb"/>
  </g>
</svg>
