<svg id="Group_2391" data-name="Group 2391" xmlns="http://www.w3.org/2000/svg" xmlns:xlink="http://www.w3.org/1999/xlink" width="76.997" height="67.845" viewBox="0 0 76.997 67.845">
  <defs>
    <clipPath id="clip-path">
      <rect id="Rectangle_1497" data-name="Rectangle 1497" width="76.997" height="67.845" fill="#244593"/>
    </clipPath>
  </defs>
  <g id="Group_2390" data-name="Group 2390" clip-path="url(#clip-path)">
    <path id="Path_4611" data-name="Path 4611" d="M0,1.677A2.729,2.729,0,0,1,2.873,0C6.282.065,9.692.021,13.1.023a2.3,2.3,0,0,1,2.522,1.889C16.3,4.27,16.968,6.631,17.66,9.065H74.347c2.105,0,3.062,1.268,2.482,3.3Q72.417,27.824,68,43.279a2.3,2.3,0,0,1-2.618,1.952q-18.99,0-37.98-.02a1.4,1.4,0,0,0-1.51.946c-.918,2,.064,3.6,2.287,3.6q18.652,0,37.3,0a2.259,2.259,0,0,1,2.5,2.133,2.225,2.225,0,0,1-2.259,2.377c-2.556.015-5.111,0-7.692.055a7.087,7.087,0,0,1,4.38,3.084,6.6,6.6,0,0,1,.855,5.342,6.778,6.778,0,0,1-13.3-.889c-.314-2.823,1.074-6.336,5.553-7.548H35.2c4.414,1.185,5.892,4.723,5.514,7.614a6.781,6.781,0,0,1-13.447.022,6.974,6.974,0,0,1,5.389-7.675c-1.605,0-3.211,0-4.817,0a6.728,6.728,0,0,1-6.684-5.212,6.539,6.539,0,0,1,.747-5,3.152,3.152,0,0,0,.268-2.676Q16.971,23.342,11.88,5.267c-.17-.6-.439-.752-1.035-.744-2.657.035-5.316-.035-7.971.036A2.718,2.718,0,0,1,0,2.883ZM71.747,13.6H18.955l7.719,27.071H64.029L71.747,13.6m-35.5,47.518a2.255,2.255,0,1,0-2.316,2.2,2.334,2.334,0,0,0,2.316-2.2m20.433,2.2a2.259,2.259,0,1,0-2.227-2.286,2.328,2.328,0,0,0,2.227,2.286" transform="translate(0.001 0)" fill="#244593"/>
  </g>
</svg>
