<svg xmlns="http://www.w3.org/2000/svg" width="681.32" height="564" viewBox="0 0 681.32 564">
    <defs>
        <clipPath id="7sbjy42lka">
            <path data-name="Rectangle 1118" style="fill:none" d="M0 0h155.882v106.53H0z"/>
        </clipPath>
        <clipPath id="ptop27ggcb">
            <path data-name="Path 1796" d="m96.734 135.194 65.065-95.9L20.41 28.664s0 60.576-11.947 96.711c-.892 2.726-1.733 6.141-2.543 9.819z" transform="translate(-5.92 -28.664)" style="fill:none"/>
        </clipPath>
        <linearGradient id="8blu38txac" x1="-.385" y1="1.012" x2="-.32" y2="1.012" gradientUnits="objectBoundingBox">
            <stop offset="0" stop-color="#fff"/>
            <stop offset=".112" stop-color="#f3f3f3"/>
            <stop offset=".314" stop-color="#d3d3d3"/>
            <stop offset=".584" stop-color="#a0a0a0"/>
            <stop offset=".863" stop-color="#646464"/>
            <stop offset="1" stop-color="#646464"/>
        </linearGradient>
    </defs>
    <g data-name="Group 1842">
        <path data-name="Rectangle 1120" transform="translate(50.543 130.701)" style="fill:none" d="M0 0h574.457v398.298H0z"/>
        <text data-name="?" transform="translate(436.32 434)" style="font-size:457px;font-family:SamsungSharpSans-Medium,Samsung Sharp Sans;font-weight:500;fill:#173a8d"><tspan x="0" y="0">?</tspan></text>
        <path data-name="Path 1785" d="M34.993 6.392C36.068 16.768 23.178 51.221 16.5 65.681 9.873 80.121 10.785 81.8 10.785 81.8l52.906 47.72S61.2 67.333 79.113 59.47c11.117-4.844-44.12-53.078-44.12-53.078" transform="translate(98.117 189.082)" style="fill:#6a4331"/>
        <path data-name="Path 1786" d="M51.559 25.629c2.655-2.047-.649-8.015-5.3-14.247L42.6 9.781 13.894 73.59l13.143 11.075 8.431-10.66S33.735 39.36 51.559 25.629" transform="translate(126.896 220.033)" style="fill:#2d0b0e"/>
        <path data-name="Path 1787" d="M94.654 46.577c1.824 29.984-14.186 62.694-29.69 63.616-15.494.892-50.828-23.493-52.642-53.432C10.458 26.818 29.548-.654 58.854 2c32 2.918 33.936 14.622 35.8 44.576" transform="translate(111.394 147.355)" style="fill:#6a4331"/>
        <path data-name="Path 1788" d="M12.122 55.054c1.682 27.289 35.466 44.4 51.294 48.1C43.748 91.3 35.884 36.5 46.838 2.594a160.323 160.323 0 0 0-17.581 3.121C22.488 14.227 11.18 39.54 12.122 55.054" transform="translate(110.207 154.393)" style="fill:#533223"/>
        <path data-name="Path 1789" d="M106.8 14.205c7.326 12.869 6.3 21.827-.811 23.225s-14.278 1.246-18.848 5.746c-4.28 4.246-12.093 5.817-15.341 8.694-3.222 2.878 1.652-12.048 1.652-12.048l-4.778 11.653-.122-10.893-1.7 5.735L56.3 55.579l-1.265 15.453-7.225 6.232-3.354-11.075L40.109 85.2l-13.7 24.695S16.478 89.242 13.6 79.646c-3.486-11.4-2.493-14.105-2.868-20.722-.466-8.329-.507-10.3-.385-18.128.182-8.563 6.536-21.462 12.038-23.732 5.492-2.239 8.765-3.83 11.815-2.746 3.091 1.064 2.523-5.33 10.549-8.259 7.965-3 7.661-4.185 19.527-5.654C76.163-1.075 84.523 1.721 94.5 5.359c6.607 2.4 12.292 8.846 12.292 8.846" transform="translate(93.972 130.703)" style="fill:#180602"/>
        <path data-name="Path 1790" d="M65.312 12.932c-18.858 5.675-55.286 13.457-59.644 20.54-4.337 7.1 18.128 72.27 21.026 92.111 2.928 19.841 137.751 21.259 137.751 21.259l19.578-60.232s-18.138-46.217-22.6-48.528c-11.4-5.948-34.5-15.1-42.833-16.1-3.253 14.876-.557 19.628-7.073 26.032-6.526 6.364-46.207-35.081-46.207-35.081" transform="translate(46.711 248.813)" style="fill:#000432"/>
        <path data-name="Path 1791" d="M67.135 12.827c-18.868 5.664-57.283 14.521-61.63 21.6s19.577 53.848 18.838 99.2c-.182 13.082 71.7 11.116 111.82 13.1-5.371-39.6-15.544-88.858-19.01-101.494-14.7 7.955-50.017-32.416-50.017-32.416" transform="translate(45.433 247.854)" style="fill:#000432"/>
        <path data-name="Path 1792" d="M17.761 14.12C29.374 29.715 34.44 86.4 34.44 86.4h11.582s-7.245-63.059-13.031-65.886c-5.806-2.847-15.23-6.394-15.23-6.394" transform="translate(162.215 259.662)" style="fill:#4d87db"/>
        <path data-name="Path 1793" d="M20.059 220.948c-5.948 14-10.427 31.078-13.964 49.308h166.488c-.507-29.417-1.571-47.292-1.571-47.292 2.9-82.17-18.078-122.642-22.415-143.9 0 0-44.951 2.645-75.411 1.236 0-5.664-32.072-56.31-39.661-66.423l-9.261 1.063S47.1 68.768 47.1 82.954c0 14.166-37.331 24.806-38.081 26.934-2.29 6.708 10.153 80.762 11.643 96.357a99.037 99.037 0 0 1-.608 14.7" transform="translate(55.668 257.434)" style="fill:#4d87db"/>
        <path data-name="Path 1794" d="M20.1 224.5c-5.974 14.076-10.463 31.252-14.01 49.593h133.333c.659-68.906-.578-139.483-5.553-190.484-15.119.476-45.245.963-60.637.233C73.233 78.2 40.6 23.55 33 13.457l-15.753 4.256s29.9 54.638 29.9 68.794c0 14.186-37.331 24.806-38.081 26.944-2.29 6.7 10.153 80.772 11.643 96.357A98.831 98.831 0 0 1 20.1 224.5" transform="translate(55.621 253.607)" style="fill:#003cca"/>
        <path data-name="Path 1795" d="m65.644 413.523 133.9-17.292 89.679 18.5-109.9 24.725z"/>
        <g data-name="Group 1840" style="mix-blend-mode:multiply;isolation:isolate">
            <g data-name="Group 1839">
                <g data-name="Group 1838" style="clip-path:url(#7sbjy42lka)" transform="translate(59.988 421.162)">
                    <g data-name="Group 1837">
                        <g data-name="Group 1836" style="clip-path:url(#ptop27ggcb)" transform="translate(0 -.003)">
                            <path data-name="Rectangle 1117" transform="translate(0 .003)" style="fill:url(#8blu38txac)" d="M0 0h155.879v106.53H0z"/>
                        </g>
                    </g>
                </g>
            </g>
        </g>
        <path data-name="Path 1797" d="M4.122 34.435C58.871 40.129 82.532 48.9 82.532 48.9s7.924-6.242 16.7-12.768c19.952-14.9 21.239-7.113 21.239-7.113l-12.413 14.8 36.084-.365a5.523 5.523 0 0 1 4.357 1.49c5.816 5.624 10.224 16.6-8.725 24.168-13.605 5.434-32.126 5.255-32.126 5.255s-9.69-.915-19.309-.768c-2.1.032-4.473.138-6.649.347-26.721 2.543-56.33.547-69.169.507-12.869-.051-8.4-40.026-8.4-40.026" transform="translate(30.787 377.221)" style="fill:#552f24"/>
        <path data-name="Path 1798" d="M51.648 14.959C35.364 19.215 15.665 88.992 7.61 115.663c-9.789 32.507-8.61 48.73-4.885 55.165 9.789 17.014 94.593 36.125 94.593 36.125l5.452-52.044S46.2 143.184 48.4 140.023c7.823-11.481 23-39.742 23.175-45.7 1.824-60.6-19.922-79.363-19.922-79.363" transform="translate(0 267.326)" style="fill:#4d7ff5"/>
        <path data-name="Path 1799" d="m180.613 438.203 29.021-125.945 128.084-9.4-35.517 116.234z"/>
        <path data-name="Path 1800" d="M55.734 59.328a79.787 79.787 0 0 1-15.26 6.272c-5.452 1.54-6.84-3.182-9.748-6.252-2.858-3.04-8.684-11.633-7.691-17.085s6.708 7.093 7.215 8.887c.537 1.743-8.968-10.316-6.212-14.338 2.756-3.972 9.6 10.133 10.731 11.765 1.145 1.6-11-10.387-7.975-15.737 3.02-5.371 14.227 14.6 14.227 14.6s-8.066-18.28-4.874-18.554 11.268 13.519 11.785 15.272c.537 1.814 5.482 2.959 4.063-1.794-1.429-4.732 2.614-15.494 2.614-15.494s2.706 2.442 2.858 9.464c.1 7.032 2.462 17.3 2.462 17.3z" transform="translate(209.351 376.119)" style="fill:#552f24"/>
        <g data-name="Group 1841">
            <path data-name="Path 1801" d="M35.511 81.133 91.54 14.886l.012.012 1.805 1.529-54 63.84 126.2 56.717-.989 2.174z" transform="translate(347.057 209.408)" style="fill:#173a8d"/>
            <path data-name="Path 1802" d="m25.039 164.155 64.239-59.806-10.34-93.81 2.358-.27 10.488 95L26.666 165.9zm53.9-153.628z" transform="translate(284.196 184.009)" style="fill:#173a8d"/>
            <path data-name="Path 1803" d="M79.3 26.624c-4.108 0-5.225-.645-5.324-1.289l-46.245 70.52C46.95 69.477 81.237 26.624 79.3 26.624" transform="translate(298.033 261.451)" style="fill:#173a8d"/>
            <path data-name="Path 1804" d="m34.98 105.4 41.127-95.15-36.67 97.261z" transform="translate(344.326 185.578)" style="fill:#173a8d"/>
            <path data-name="Path 1805" d="M35.852 45.238a.887.887 0 0 1 .553-1.13l63.932-21.927a.889.889 0 0 1 .577 1.682L36.988 45.79a.893.893 0 0 1-.3.055.881.881 0 0 1-.835-.608" transform="translate(348.552 246.648)" style="fill:#173a8d"/>
            <path data-name="Path 1806" d="M29.111 108.767a1.364 1.364 0 0 1-.546-1.842l44.289-81.094a1.338 1.338 0 0 1 .933-.682 1.379 1.379 0 0 1 1.124.307l84.95 73.793h.012a1.344 1.344 0 0 1 .117 1.9 1.33 1.33 0 0 1-1.891.129L74.408 28.594l-43.46 79.633a1.364 1.364 0 0 1-1.2.706 1.338 1.338 0 0 1-.639-.166" transform="translate(310.512 262.078)" style="fill:#e26713"/>
            <path data-name="Path 1807" d="m173.927 70.386-91.513-1.928-.872-.338-54.053-48.25a1.344 1.344 0 0 1 1.775-2.02l53.69 47.918 91.035 1.932a1.332 1.332 0 0 1 1.314 1.369 1.352 1.352 0 0 1-1.351 1.314z" transform="translate(303.464 222.931)" style="fill:#173a8d"/>
            <path data-name="Path 1808" d="M26.928 21.066c10.033 3.881 51.056 36.774 51.093 34.416.135-7.479 6.5-5.274 6.5-5.274z" transform="translate(293.906 239.507)" style="fill:#173a8d"/>
            <path data-name="Path 1809" d="M37.045 25.292 150.5 63.767 35.068 29.3z" transform="translate(344.78 262.9)" style="fill:#173a8d"/>
            <path data-name="Path 1810" d="m46.134 85.412-10.863-59.29a.809.809 0 0 1 .645-.952.824.824 0 0 1 .946.657l10.868 59.29a.808.808 0 0 1-.645.933.623.623 0 0 1-.147.012.806.806 0 0 1-.8-.651" transform="translate(336.716 260.548)" style="fill:#173a8d"/>
            <path data-name="Path 1811" d="M36.932 84.659a1.312 1.312 0 0 1-.583-1.093l-.743-68.39a1.345 1.345 0 0 1 2.689-.025l.718 66.474 101.3-37.5a1.345 1.345 0 1 1 .933 2.524L38.16 84.812a1.329 1.329 0 0 1-.461.086 1.382 1.382 0 0 1-.768-.239" transform="translate(347.545 203.957)" style="fill:#e26713"/>
            <path data-name="Path 1812" d="M78.075 104.542a1.342 1.342 0 0 1-1.154-1.523L86.9 28.808 26.989 43.8H27a1.351 1.351 0 1 1-.657-2.622l61.845-15.464a1.322 1.322 0 0 1 1.222.307 1.345 1.345 0 0 1 .436 1.185L79.6 103.375a1.359 1.359 0 0 1-1.357 1.179l-.166-.012" transform="translate(285.617 263.179)" style="fill:#173a8d"/>
            <path data-name="Path 1813" d="M80.519 110.555C77.3 100.288 45.028 25.8 43.162 27.238c-5.925 4.556-8.173-1.793-8.173-1.793z" transform="translate(344.374 263.685)" style="fill:#173a8d"/>
            <path data-name="Path 1814" d="M33.194 69.667 0 0l37.56 68.715z" transform="rotate(11 -1399.236 2168.597)" style="fill:#173a8d"/>
            <path data-name="Path 1815" d="M35.67 62.26a.784.784 0 0 1 .1-1.13L86.412 19.1a.811.811 0 0 1 1.038 1.246l-50.632 42.03a.865.865 0 0 1-.522.178.794.794 0 0 1-.626-.295" transform="translate(346.88 230.125)" style="fill:#173a8d"/>
            <path data-name="Rectangle 1119" transform="translate(333.224 74.812)" style="fill:none" d="M0 0h348.095v241.348H0z"/>
            <path data-name="Path 1986" d="M29.111 108.767a1.364 1.364 0 0 1-.546-1.842l44.289-81.094a1.338 1.338 0 0 1 .933-.682 1.379 1.379 0 0 1 1.124.307l84.95 73.793h.012a1.344 1.344 0 0 1 .117 1.9 1.33 1.33 0 0 1-1.891.129L74.408 28.594l-43.46 79.633a1.364 1.364 0 0 1-1.2.706 1.338 1.338 0 0 1-.639-.166" transform="translate(310.512 262.078)" style="fill:#173a8d"/>
            <path data-name="Path 1987" d="M36.932 84.659a1.312 1.312 0 0 1-.583-1.093l-.743-68.39a1.345 1.345 0 0 1 2.689-.025l.718 66.474 101.3-37.5a1.345 1.345 0 1 1 .933 2.524L38.16 84.812a1.329 1.329 0 0 1-.461.086 1.382 1.382 0 0 1-.768-.239" transform="translate(347.545 203.957)" style="fill:#173a8d"/>
        </g>
        <path data-name="Path 1816" d="M0 39.317c7.248 2.821 54.844 12.065 54.844 12.065S64.4 77.5 75.376 83.437c10.979 5.966 51.531 22.537 47.954 13.708-7.658-11.65-17.066-27.308-17.066-27.308s14.163-21.616 3.731-38.278C103.489 21.2 83.2 7.876 74.77 5.32 59.676.732 43.318-4.629 25.433 7.627 7.521 19.883 0 39.317 0 39.317" transform="rotate(-45 242.7 -7.731)" style="fill:#003cca"/>
        <path data-name="Path 1817" d="M33.461 6.254C15.532 18.51 5.313 40.068 5.313 40.068c6.079 2.373 41.124 9.385 52.009 11.526C60.669 35.122 71.366 14.709 83.993 7.4c-.717-.282-2.416-1.178-3.056-1.4-8.307-2.962-29.59-12.007-47.476.257" transform="rotate(-45 244.663 -.345)" style="fill:#021c5c"/>
    </g>
</svg>
