<svg id="Group_2035" data-name="Group 2035" xmlns="http://www.w3.org/2000/svg" xmlns:xlink="http://www.w3.org/1999/xlink" width="37.463" height="18.765" viewBox="0 0 37.463 18.765">
  <defs>
    <clipPath id="clip-path">
      <rect id="Rectangle_1239" data-name="Rectangle 1239" width="37.463" height="18.765" fill="#9b9b9b"/>
    </clipPath>
  </defs>
  <g id="Group_1911" data-name="Group 1911" clip-path="url(#clip-path)">
    <path id="Path_2176" data-name="Path 2176" d="M18.732,18.765,0,.03A22.476,22.476,0,0,0,2.255.015,2.288,2.288,0,0,1,4.262.836c4.7,4.749,9.434,9.462,14.155,14.19a2.787,2.787,0,0,1,.268.383c.188-.178.294-.275.4-.377Q26.441,7.671,33.8.307a.849.849,0,0,1,.672-.283c1.017.017,2.035.007,3,.007L18.732,18.765" transform="translate(0 -0.001)" fill="#9b9b9b"/>
  </g>
</svg>
