<svg id="Group_2371" data-name="Group 2371" xmlns="http://www.w3.org/2000/svg" xmlns:xlink="http://www.w3.org/1999/xlink" width="27.117" height="15.471" viewBox="0 0 27.117 15.471">
  <defs>
    <clipPath id="clip-path">
      <rect id="Rectangle_1482" data-name="Rectangle 1482" width="27.117" height="15.471" fill="#173a8d"/>
    </clipPath>
  </defs>
  <g id="Group_2370" data-name="Group 2370" clip-path="url(#clip-path)">
    <path id="Path_4608" data-name="Path 4608" d="M27.117,2.231A3.172,3.172,0,0,1,26.127,3.7Q20.57,9.24,15.025,14.8a1.877,1.877,0,0,1-2.09.552,2.248,2.248,0,0,1-.787-.513Q6.379,9.09.631,3.325A1.889,1.889,0,0,1,1.109.19a1.805,1.805,0,0,1,1.924.2,3.229,3.229,0,0,1,.393.354q4.943,4.941,9.884,9.885c.075.075.142.157.232.258.094-.089.169-.158.241-.23Q18.771,5.667,23.759.677A1.9,1.9,0,0,1,25.829.119a1.817,1.817,0,0,1,1.186,1.19c.028.08.068.156.1.234Z" transform="translate(0 0)" fill="#173a8d"/>
  </g>
</svg>
