<svg xmlns="http://www.w3.org/2000/svg" width="35.037" height="35.158" viewBox="0 0 35.037 35.158">
  <path id="Path_2312" data-name="Path 2312" d="M25.108,0a17.652,17.652,0,0,1,1.948.494,7.427,7.427,0,0,1,3.5,11.334,8.515,8.515,0,0,1-.916,1.063Q21.708,20.75,13.764,28.6A5.076,5.076,0,0,1,6,28.028a4.9,4.9,0,0,1,.337-6.167c1.125-1.2,2.322-2.334,3.492-3.493q5.35-5.3,10.7-10.592a3.3,3.3,0,0,0,.229-.279l1.837,1.889a1.062,1.062,0,0,0-.281.167Q15.407,16.376,8.506,23.2a2.582,2.582,0,0,0-.895,2.131,2.379,2.379,0,0,0,1.466,2.073,2.424,2.424,0,0,0,2.5-.243,3.468,3.468,0,0,0,.466-.4q7.881-7.788,15.76-15.577a5.023,5.023,0,1,0-7.034-7.17Q12.792,11.9,4.823,19.792a7.289,7.289,0,0,0-1.464,8.7A7.179,7.179,0,0,0,8.9,32.52a7.514,7.514,0,0,0,6.771-2.275Q24.314,21.69,32.961,13.14a2.788,2.788,0,0,0,.276-.38l1.8,1.846c-.034.036-.114.126-.2.21q-8.815,8.721-17.625,17.448a9.164,9.164,0,0,1-2.559,1.777,9.86,9.86,0,0,1-10.141-.609A9.6,9.6,0,0,1,.068,26.062c-.014-.134-.045-.267-.068-.4V24.7a1.292,1.292,0,0,0,.056-.23A9.13,9.13,0,0,1,1.094,20.7a7.871,7.871,0,0,1,1.229-1.947q8.283-8.271,16.63-16.478A7.274,7.274,0,0,1,21.851.45c.593-.19,1.21-.3,1.816-.45Z" fill="#9b9b9b"/>
</svg>
