<svg xmlns="http://www.w3.org/2000/svg" xmlns:xlink="http://www.w3.org/1999/xlink" width="962.539" height="592.429" viewBox="0 0 962.539 592.429">
  <defs>
    <clipPath id="clip-path">
      <rect id="Rectangle_2844" data-name="Rectangle 2844" width="370.402" height="258.104" fill="none"/>
    </clipPath>
    <clipPath id="clip-path-3">
      <rect id="Rectangle_2840" data-name="Rectangle 2840" width="49.982" height="49.981" transform="translate(67.219 111.329)" fill="#91b3fa"/>
    </clipPath>
    <clipPath id="clip-path-4">
      <rect id="Rectangle_2841" data-name="Rectangle 2841" width="51.807" height="51.807" transform="translate(247.218 108.343)" fill="none"/>
    </clipPath>
    <clipPath id="clip-path-5">
      <rect id="Rectangle_2558" data-name="Rectangle 2558" width="207.539" height="193.697" transform="translate(100.363 255.44)" fill="none"/>
    </clipPath>
    <clipPath id="clip-path-6">
      <rect id="Rectangle_2557" data-name="Rectangle 2557" width="207.525" height="193.693" transform="translate(100.363 255.444)" fill="none"/>
    </clipPath>
    <clipPath id="clip-path-7">
      <rect id="Rectangle_2560" data-name="Rectangle 2560" width="31.033" height="81.181" transform="translate(175.979 295.271)" fill="#fff"/>
    </clipPath>
    <clipPath id="clip-path-8">
      <rect id="Rectangle_2559" data-name="Rectangle 2559" width="31.032" height="81.179" transform="translate(175.979 295.271)" fill="#fff"/>
    </clipPath>
    <clipPath id="clip-path-9">
      <rect id="Rectangle_2562" data-name="Rectangle 2562" width="30.484" height="30.484" transform="translate(185.11 388.774)" fill="#fff"/>
    </clipPath>
    <clipPath id="clip-path-10">
      <rect id="Rectangle_2561" data-name="Rectangle 2561" width="30.482" height="30.482" transform="translate(185.112 388.774)" fill="#fff"/>
    </clipPath>
  </defs>
  <g id="Group_5483" data-name="Group 5483" transform="translate(-59 -700.77)">
    <g id="Group_5468" data-name="Group 5468" transform="translate(-185.998 -712.125)">
      <g id="Group_2479" data-name="Group 2479" transform="translate(244.998 1412.895)">
        <g id="Group_906" data-name="Group 906" transform="translate(0 0)">
          <circle id="Ellipse_96" data-name="Ellipse 96" cx="44.163" cy="44.163" r="44.163" transform="translate(26.782 24.323)" fill="#003cca"/>
          <ellipse id="Ellipse_97" data-name="Ellipse 97" cx="481.27" cy="19.281" rx="481.27" ry="19.281" transform="translate(0 484.645)" fill="#e6e6e6"/>
          <circle id="Ellipse_98" data-name="Ellipse 98" cx="108.487" cy="108.487" r="108.487" transform="translate(0 68.38)" fill="#173a8d"/>
          <path id="Path_643" data-name="Path 643" d="M122.968,510.307H100.747L110.877,167.2Z" transform="translate(-4.024 -6.673)" fill="#3f3d56"/>
          <path id="Path_644" data-name="Path 644" d="M113.218,233.56l23.855-33-24.181,41.172-2.614-4.575Z" transform="translate(-4.405 -8.006)" fill="#3f3d56"/>
          <path id="Path_645" data-name="Path 645" d="M109.625,268.277l-23.854-33,24.181,41.172,2.614-4.575Z" transform="translate(-3.426 -9.392)" fill="#3f3d56"/>
          <path id="Path_646" data-name="Path 646" d="M826.581,510.683h-22.22L814.49,167.577Z" transform="translate(52.601 -2.27)" fill="#003cca"/>
          <path id="Path_647" data-name="Path 647" d="M816.831,233.936l23.855-33-24.181,41.172-2.615-4.575Z" transform="translate(51.517 -28.84)" fill="#003cca"/>
          <path id="Path_648" data-name="Path 648" d="M813.238,268.653l-23.854-33,24.181,41.172,2.614-4.575Z" transform="translate(52.496 -30.227)" fill="#003cca"/>
          <path id="Path_662" data-name="Path 662" d="M1035.038,220.066a42.892,42.892,0,0,0-84.155-9.043c-.52-.019-1.039-.04-1.563-.04a42.9,42.9,0,0,0-41.152,30.8,30.314,30.314,0,0,0-35.971,8.955h133.8a29.012,29.012,0,0,0,29.077-30.039Q1035.056,220.383,1035.038,220.066Z" transform="translate(-182.39 -179.594)" fill="#cbdbf4"/>
          <circle id="Ellipse_107" data-name="Ellipse 107" cx="11.521" cy="11.521" r="11.521" transform="translate(813.298 86.883)" fill="#003cca"/>
          <circle id="Ellipse_108" data-name="Ellipse 108" cx="9.593" cy="9.593" r="9.593" transform="translate(850.012 61.648)" fill="#003cca"/>
          <circle id="Ellipse_109" data-name="Ellipse 109" cx="11.521" cy="11.521" r="11.521" transform="translate(894.904 111.844)" fill="#003cca"/>
          <circle id="Ellipse_110" data-name="Ellipse 110" cx="11.521" cy="11.521" r="11.521" transform="translate(807.538 164.647)" fill="#003cca"/>
          <circle id="Ellipse_111" data-name="Ellipse 111" cx="11.521" cy="11.521" r="11.521" transform="translate(894.904 230.892)" fill="#003cca"/>
          <path id="Path_663" data-name="Path 663" d="M989.29,684.549c0-.125.019-.247.019-.373A11.5,11.5,0,0,0,973,673.707a11.49,11.49,0,0,0-20,9.518c-.059,0-.115-.008-.174-.008a11.521,11.521,0,1,0,7.041,20.625,11.515,11.515,0,0,0,19.8,1.168,11.511,11.511,0,1,0,9.624-20.46Z" transform="translate(-103.524 -524.612)" fill="#003cca"/>
          <circle id="Ellipse_112" data-name="Ellipse 112" cx="4.8" cy="4.8" r="4.8" transform="translate(912.185 191.529)" fill="#003cca"/>
          <circle id="Ellipse_113" data-name="Ellipse 113" cx="4.8" cy="4.8" r="4.8" transform="translate(881.463 76.322)" fill="#003cca"/>
          <circle id="Ellipse_114" data-name="Ellipse 114" cx="4.8" cy="4.8" r="4.8" transform="translate(865.142 195.369)" fill="#003cca"/>
          <circle id="Ellipse_115" data-name="Ellipse 115" cx="4.8" cy="4.8" r="4.8" transform="translate(868.07 109.922)" fill="#003cca"/>
          <circle id="Ellipse_116" data-name="Ellipse 116" cx="4.8" cy="4.8" r="4.8" transform="translate(871.862 185.769)" fill="#003cca"/>
          <circle id="Ellipse_117" data-name="Ellipse 117" cx="4.8" cy="4.8" r="4.8" transform="translate(797.936 131.083)" fill="#003cca"/>
          <circle id="Ellipse_118" data-name="Ellipse 118" cx="4.8" cy="4.8" r="4.8" transform="translate(931.386 279.855)" fill="#003cca"/>
          <circle id="Ellipse_119" data-name="Ellipse 119" cx="4.8" cy="4.8" r="4.8" transform="translate(826.741 230.892)" fill="#003cca"/>
          <circle id="Ellipse_120" data-name="Ellipse 120" cx="4.8" cy="4.8" r="4.8" transform="translate(834.42 134.886)" fill="#003cca"/>
          <circle id="Ellipse_121" data-name="Ellipse 121" cx="4.8" cy="4.8" r="4.8" transform="translate(856.501 221.291)" fill="#003cca"/>
          <circle id="Ellipse_122" data-name="Ellipse 122" cx="4.8" cy="4.8" r="4.8" transform="translate(851.701 213.61)" fill="#003cca"/>
        </g>
      </g>
    </g>
    <g id="Group_5478" data-name="Group 5478" transform="translate(365 928)">
      <g id="Group_5477" data-name="Group 5477" clip-path="url(#clip-path)">
        <g id="Group_5476" data-name="Group 5476">
          <g id="Group_5475" data-name="Group 5475" clip-path="url(#clip-path)">
            <path id="Path_8570" data-name="Path 8570" d="M370.4,11.549V246.555A11.549,11.549,0,0,1,358.853,258.1H11.549A11.549,11.549,0,0,1,0,246.555V11.549A11.549,11.549,0,0,1,11.549,0h347.3A11.55,11.55,0,0,1,370.4,11.549" fill="#173a8d"/>
            <rect id="Rectangle_2839" data-name="Rectangle 2839" width="309.33" height="241.826" transform="translate(25.341 8.139)" fill="#fff"/>
            <path id="Path_8571" data-name="Path 8571" d="M351.789,119.148a9.9,9.9,0,1,1-9.9,9.9,9.9,9.9,0,0,1,9.9-9.9" fill="#fff"/>
            <path id="Path_8572" data-name="Path 8572" d="M14.759,91.4v75.307a1.215,1.215,0,0,1-1.215,1.215H11.883a1.216,1.216,0,0,1-1.216-1.215V91.4a1.216,1.216,0,0,1,1.216-1.215h1.661A1.215,1.215,0,0,1,14.759,91.4" fill="#455a64"/>
            <path id="Path_8573" data-name="Path 8573" d="M117.195,135.8a24.99,24.99,0,1,1-25.5-24.47,24.991,24.991,0,0,1,25.5,24.47" fill="#91b3fa"/>
            <g id="Group_5471" data-name="Group 5471" transform="translate(-17.413 -62.311)" opacity="0.3">
              <g id="Group_5470" data-name="Group 5470">
                <g id="Group_5469" data-name="Group 5469" transform="translate(17 62)" clip-path="url(#clip-path-3)">
                  <path id="Path_8574" data-name="Path 8574" d="M117.195,135.8a24.99,24.99,0,1,1-25.5-24.47,24.991,24.991,0,0,1,25.5,24.47" fill="#91b3fa"/>
                </g>
              </g>
            </g>
            <path id="Path_8575" data-name="Path 8575" d="M83.588,130.023c.947-.078,1.806.967,1.919,2.334S84.943,134.9,84,134.974s-1.806-.968-1.919-2.334.564-2.539,1.511-2.617" fill="#263238"/>
            <path id="Path_8576" data-name="Path 8576" d="M99.476,129.7c-.95-.039-1.764,1.04-1.821,2.411s.668,2.513,1.618,2.552,1.765-1.041,1.821-2.412-.668-2.513-1.618-2.551" fill="#263238"/>
            <path id="Path_8577" data-name="Path 8577" d="M102.2,141.269c0,.294-4.658.533-10.4.533s-10.4-.239-10.4-.533,4.658-.533,10.4-.533,10.4.239,10.4.533" fill="#263238"/>
            <path id="Path_8578" data-name="Path 8578" d="M85.5,127.152c-.061.3-1.246.286-2.636.514-1.394.207-2.519.579-2.668.315-.153-.241.892-1.122,2.5-1.369s2.873.264,2.8.54" fill="#263238"/>
            <path id="Path_8579" data-name="Path 8579" d="M103.986,128.364c-.189.238-1.268-.327-2.656-.742-1.381-.435-2.592-.572-2.614-.876-.038-.282,1.324-.64,2.927-.143s2.533,1.549,2.343,1.761" fill="#263238"/>
            <path id="Path_8580" data-name="Path 8580" d="M299.019,133.713a25.9,25.9,0,1,1-26.432-25.364,25.9,25.9,0,0,1,26.432,25.364" fill="#c9d6f2"/>
            <g id="Group_5474" data-name="Group 5474" transform="translate(6.036 0.584)" opacity="0.3">
              <g id="Group_5473" data-name="Group 5473">
                <g id="Group_5472" data-name="Group 5472" clip-path="url(#clip-path-4)">
                  <path id="Path_8581" data-name="Path 8581" d="M299.019,133.713a25.9,25.9,0,1,1-26.432-25.364,25.9,25.9,0,0,1,26.432,25.364"/>
                </g>
              </g>
            </g>
            <path id="Path_8582" data-name="Path 8582" d="M264.185,127.72c.982-.081,1.872,1,1.989,2.419s-.584,2.631-1.566,2.713-1.872-1-1.989-2.42.584-2.631,1.566-2.712" fill="#263238"/>
            <path id="Path_8583" data-name="Path 8583" d="M280.654,127.381c-.985-.04-1.83,1.078-1.888,2.5s.692,2.6,1.676,2.645,1.83-1.079,1.888-2.5-.693-2.605-1.676-2.645" fill="#263238"/>
            <path id="Path_8584" data-name="Path 8584" d="M283.478,139.377c-.107.14-1.182-.623-3.034-1.573a16.793,16.793,0,0,0-7.711-1.9A19.2,19.2,0,0,0,265,137.906c-1.877.913-2.993,1.612-3.091,1.471-.072-.1.891-1.02,2.737-2.136a16.815,16.815,0,0,1,8.068-2.408,15.136,15.136,0,0,1,8.1,2.313c1.828,1.161,2.74,2.141,2.666,2.231" fill="#263238"/>
            <path id="Path_8585" data-name="Path 8585" d="M266.165,124.745c.088.11-.082.434-.511.812a4.317,4.317,0,0,1-2.027.948,3.894,3.894,0,0,1-2.247-.249c-.528-.246-.772-.526-.712-.652.136-.282,1.353.124,2.773-.149,1.424-.253,2.527-.958,2.724-.71" fill="#263238"/>
            <path id="Path_8586" data-name="Path 8586" d="M285.328,126c.043.131-.241.384-.813.565a3.838,3.838,0,0,1-2.328-.084,4.528,4.528,0,0,1-1.9-1.273c-.381-.44-.519-.785-.417-.885.225-.233,1.266.659,2.669,1.15,1.394.51,2.692.228,2.793.527" fill="#263238"/>
            <path id="Path_8587" data-name="Path 8587" d="M223.483,206.146l6-2.975,5.852,3.257-.974-6.626,4.906-4.56-6.6-1.12-2.821-6.075-3.106,5.933-6.649.8,4.683,4.788Z" fill="#e0e0e0"/>
            <path id="Path_8588" data-name="Path 8588" d="M199,206.146l6-2.975,5.852,3.257-.974-6.626,4.906-4.56-6.6-1.12-2.821-6.075-3.106,5.933-6.649.8,4.683,4.788Z" fill="#00184f"/>
            <path id="Path_8589" data-name="Path 8589" d="M174.523,206.146l6-2.975,5.852,3.257L185.4,199.8l4.906-4.56-6.6-1.12-2.821-6.075-3.106,5.933-6.649.8,4.683,4.788Z" fill="#00184f"/>
            <path id="Path_8590" data-name="Path 8590" d="M150.042,206.146l6-2.975,5.852,3.257-.974-6.626,4.906-4.56-6.6-1.12-2.821-6.075L153.3,193.98l-6.649.8,4.683,4.788Z" fill="#00184f"/>
            <path id="Path_8591" data-name="Path 8591" d="M125.562,206.146l6-2.975,5.852,3.257-.974-6.626,4.906-4.56-6.6-1.12-2.821-6.075-3.106,5.933-6.649.8,4.683,4.788Z" fill="#00184f"/>
            <path id="Path_8592" data-name="Path 8592" d="M239.543,58.795c0,.147-26.857.266-59.978.266s-59.984-.119-59.984-.266,26.851-.266,59.984-.266,59.978.119,59.978.266" fill="#263238"/>
            <path id="Path_8593" data-name="Path 8593" d="M210.055,51.59c0,.147-13.265.267-29.625.267s-29.628-.12-29.628-.267,13.263-.266,29.628-.266,29.625.119,29.625.266" fill="#263238"/>
            <path id="Path_8594" data-name="Path 8594" d="M218.8,127.578a34.122,34.122,0,1,1-34.819-33.412A34.123,34.123,0,0,1,218.8,127.578" fill="#00184f"/>
            <path id="Path_8595" data-name="Path 8595" d="M172.91,119.684c1.293-.107,2.466,1.32,2.62,3.187s-.769,3.465-2.062,3.573-2.467-1.321-2.621-3.187.77-3.467,2.063-3.573" fill="#263238"/>
            <path id="Path_8596" data-name="Path 8596" d="M194.6,119.237c-1.3-.053-2.409,1.42-2.487,3.291s.913,3.432,2.209,3.485,2.41-1.421,2.487-3.292-.912-3.432-2.209-3.484" fill="#263238"/>
            <path id="Path_8597" data-name="Path 8597" d="M198.325,130.435c.052.052-.224.4-.774,1a19.493,19.493,0,0,1-2.558,2.3,18.26,18.26,0,0,1-4.513,2.472,15.974,15.974,0,0,1-6.256.98,18.449,18.449,0,0,1-6.152-1.417,26.592,26.592,0,0,1-4.532-2.375c-2.416-1.618-3.7-2.875-3.626-2.965.107-.142,1.553.9,4.017,2.321a32.111,32.111,0,0,0,4.494,2.1,19.026,19.026,0,0,0,5.85,1.269,16.082,16.082,0,0,0,5.876-.841,20.1,20.1,0,0,0,4.411-2.165c1.163-.8,2.1-1.473,2.708-1.991.628-.5,1-.747,1.055-.7" fill="#263238"/>
            <path id="Path_8598" data-name="Path 8598" d="M174.452,112.007c-.059.3-1.692.193-3.63.509-1.944.29-3.465.892-3.612.623-.155-.236,1.287-1.346,3.448-1.677s3.869.273,3.794.545" fill="#263238"/>
            <path id="Path_8599" data-name="Path 8599" d="M201.923,113.6c-.188.243-1.634-.619-3.569-1.2-1.927-.606-3.607-.7-3.627-1.01-.041-.278,1.792-.677,3.94-.009,2.152.652,3.446,2.01,3.256,2.218" fill="#263238"/>
            <path id="Path_8600" data-name="Path 8600" d="M170.47,127.981c.133-.024.35.329.385.974a4.019,4.019,0,0,1-2.724,3.836c-.62.18-1.024.092-1.046-.042-.05-.3,1.26-.734,2.159-2.053.948-1.283.93-2.664,1.226-2.715" fill="#263238"/>
            <path id="Path_8601" data-name="Path 8601" d="M201.209,131.118c.026.135-.254.341-.788.387a3.09,3.09,0,0,1-3.087-2.291c-.111-.524.005-.852.142-.867.3-.024.636.985,1.637,1.7.969.752,2.033.784,2.1,1.076" fill="#263238"/>
            <path id="Path_8602" data-name="Path 8602" d="M226.406,127.981s-.03-.232-.062-.686q-.045-.707-.128-2.012-.039-.666-.088-1.482c-.057-.543-.173-1.131-.268-1.771s-.21-1.327-.327-2.063a23.148,23.148,0,0,0-.553-2.311,40.431,40.431,0,0,0-4.694-11.246,42.144,42.144,0,0,0-10.737-11.974l-1.824-1.359c-.641-.42-1.316-.805-1.984-1.216-.681-.387-1.327-.859-2.058-1.19l-2.19-1.05-1.114-.528-1.17-.426-2.373-.865c-.807-.266-1.651-.438-2.485-.665a21.456,21.456,0,0,0-2.552-.577,39.107,39.107,0,0,0-5.332-.617c-.909-.031-1.825-.12-2.748-.106l-2.79.145c-.467.032-.94.029-1.408.091l-1.4.216c-.939.156-1.893.266-2.836.461a46.142,46.142,0,0,0-11.116,4.064c-.889.483-1.743,1.045-2.624,1.568-.431.276-.891.511-1.3.823l-1.24.929a47.419,47.419,0,0,0-4.78,4.062l-2.141,2.359-.539.593-.484.64-.964,1.291-.969,1.3-.848,1.386-.847,1.395-.425.7-.36.736-1.431,2.971q-.569,1.555-1.143,3.12a41.755,41.755,0,0,0,0,26.586l1.143,3.121,1.431,2.972.359.737.425.7.848,1.4.848,1.387.969,1.3.965,1.291.483.641.539.593,2.142,2.36a47.562,47.562,0,0,0,4.78,4.063l1.241.929c.41.312.871.547,1.3.823.881.523,1.735,1.085,2.625,1.568a43.778,43.778,0,0,0,5.5,2.416,44.663,44.663,0,0,0,5.621,1.65c.943.2,1.9.305,2.836.46l1.406.216c.468.062.94.059,1.408.092l2.79.144c.923.014,1.839-.075,2.748-.106a39.226,39.226,0,0,0,5.332-.617,21.414,21.414,0,0,0,2.552-.578c.835-.227,1.679-.4,2.485-.665l2.374-.865,1.17-.426,1.114-.528,2.19-1.051c.731-.331,1.376-.8,2.057-1.19.668-.411,1.344-.8,1.984-1.216l1.825-1.359a42.144,42.144,0,0,0,10.736-11.975A40.4,40.4,0,0,0,224.98,138.3a23.017,23.017,0,0,0,.553-2.311q.175-1.1.327-2.062c.1-.64.211-1.228.268-1.771q.049-.816.088-1.481c.055-.872.1-1.541.128-2.012.032-.454.062-.686.062-.686s.007.232-.007.687c-.018.473-.043,1.143-.076,2.017q-.027.669-.062,1.488c-.049.546-.156,1.136-.244,1.78s-.2,1.335-.3,2.075a22.544,22.544,0,0,1-.532,2.327,40.169,40.169,0,0,1-4.638,11.347,42.249,42.249,0,0,1-10.763,12.121l-1.836,1.379c-.644.427-1.324.818-2,1.235-.686.394-1.337.871-2.073,1.209l-2.208,1.068-1.123.537-1.18.434-2.4.881c-.814.272-1.666.448-2.508.679a21.524,21.524,0,0,1-2.578.591,39.549,39.549,0,0,1-5.386.638c-.919.034-1.845.125-2.778.113l-2.821-.139c-.473-.032-.951-.028-1.424-.089l-1.422-.216c-.949-.155-1.915-.265-2.869-.46a45.173,45.173,0,0,1-5.689-1.658,44.442,44.442,0,0,1-5.566-2.436c-.9-.488-1.766-1.055-2.658-1.583-.437-.279-.9-.517-1.319-.831l-1.257-.939a47.725,47.725,0,0,1-4.842-4.108l-2.171-2.385-.545-.6-.491-.648-.978-1.306-.981-1.312-.861-1.4-.858-1.413-.431-.708-.365-.746-1.45-3.009-1.159-3.16a42.23,42.23,0,0,1,0-26.92l1.159-3.159q.729-1.509,1.45-3.008l.365-.745.431-.709.858-1.412.861-1.4.981-1.312.978-1.306.49-.648.546-.6q1.091-1.2,2.17-2.385a47.814,47.814,0,0,1,4.842-4.106l1.257-.939c.416-.314.882-.552,1.319-.831.892-.528,1.756-1.1,2.657-1.582a44.365,44.365,0,0,1,5.565-2.436,44.99,44.99,0,0,1,5.688-1.657c.954-.2,1.92-.306,2.868-.461l1.422-.215c.474-.062.952-.058,1.425-.09l2.82-.139c.933-.012,1.859.079,2.778.113a39.706,39.706,0,0,1,5.386.637,21.656,21.656,0,0,1,2.577.591c.843.231,1.694.408,2.508.679l2.4.881,1.18.434,1.124.537,2.207,1.068c.737.337,1.387.815,2.073,1.208.673.418,1.353.809,2,1.235l1.836,1.379a42.242,42.242,0,0,1,10.764,12.121,40.209,40.209,0,0,1,4.639,11.348,23.077,23.077,0,0,1,.532,2.327c.108.739.21,1.432.3,2.075s.2,1.235.244,1.78c.023.546.043,1.043.062,1.488.033.874.058,1.545.076,2.018.014.455.007.687.007.687" fill="#e8505b"/>
            <path id="Path_8608" data-name="Path 8608" d="M0,0H309.33V15.433H0Z" transform="translate(25.341 8.139)" fill="#c9d6f2"/>
            <path id="Path_8603" data-name="Path 8603" d="M35.322,15.429a2.089,2.089,0,1,1-2.09-2.09,2.09,2.09,0,0,1,2.09,2.09" fill="#fff"/>
            <path id="Path_8604" data-name="Path 8604" d="M42.265,15.429a2.09,2.09,0,1,1-2.09-2.09,2.09,2.09,0,0,1,2.09,2.09" fill="#fff"/>
            <path id="Path_8605" data-name="Path 8605" d="M49.209,15.429a2.09,2.09,0,1,1-2.09-2.09,2.09,2.09,0,0,1,2.09,2.09" fill="#fff"/>
            <path id="Path_8606" data-name="Path 8606" d="M300.59,70.965c0,.147-53.673.267-119.866.267-66.217,0-119.878-.12-119.878-.267s53.661-.266,119.878-.266c66.193,0,119.866.119,119.866.266" fill="#e0e0e0"/>
            <path id="Path_8607" data-name="Path 8607" d="M300.59,76.907c0,.147-53.673.266-119.866.266-66.217,0-119.878-.119-119.878-.266s53.661-.266,119.878-.266c66.193,0,119.866.119,119.866.266" fill="#e0e0e0"/>
          </g>
        </g>
      </g>
    </g>
    <path id="Path_8609" data-name="Path 8609" d="M161.769,260.4,94.135,415.315a29.237,29.237,0,0,0,29.74,40.8c46.99-4.766,117.4-12.024,166.2-17.067,24.214-2.5,36.276-30.61,21.413-49.888L207.841,254.727a26.967,26.967,0,0,0-46.072,5.676" transform="translate(217.604 801.582) rotate(7)" fill="#d00c39"/>
    <g id="Group_5479" data-name="Group 5479" transform="translate(217.604 801.582) rotate(7)">
      <g id="Group_4742" data-name="Group 4742">
        <g id="Group_4741" data-name="Group 4741" clip-path="url(#clip-path-5)">
          <g id="Group_4740" data-name="Group 4740">
            <g id="Group_4739" data-name="Group 4739" clip-path="url(#clip-path-6)">
              <path id="Path_7618" data-name="Path 7618" d="M165.25,270.813a4.855,4.855,0,0,1,.558-1.514c.226-.483.473-1.109.855-1.806q.66-1.007,1.514-2.319c.616-.85,1.446-1.69,2.3-2.678a27.736,27.736,0,0,1,3.31-2.7,23.807,23.807,0,0,1,9.859-3.991,25.461,25.461,0,0,1,13.3,1.28,25.791,25.791,0,0,1,6.667,3.936c.516.435,1.036.878,1.562,1.323.48.488.933,1.019,1.406,1.534.983,1.039,1.793,2.12,2.658,3.217l23.367,29.83c17.248,22.175,37.77,48.56,60.559,77.854l8.626,11.162A29.843,29.843,0,0,1,282.105,433.6q-.611.084-1.224.142-7.667.792-15.447,1.6l-31.556,3.249c-21.317,2.176-42.129,4.3-62.229,6.35l-29.594,2.99q-3.625.361-7.213.724l-3.579.357-3.815.123a27.543,27.543,0,0,1-14.217-4.472,28.4,28.4,0,0,1-12.842-24.534c.113-1.167.113-2.346.334-3.486.251-1.134.463-2.276.757-3.388l1.169-3.234c.412-1.029.86-1.974,1.285-2.963q2.584-5.852,5.085-11.519c6.685-15.093,12.91-29.151,18.6-41.993,11.4-25.661,20.681-46.4,27.18-60.7,3.272-7.1,5.822-12.625,7.573-16.423,1.771-3.737,2.761-5.674,2.885-5.618s-.624,2.1-2.16,5.935c-1.6,3.866-3.913,9.492-6.9,16.717-6.066,14.484-14.962,35.391-26.035,61.2-5.551,12.9-11.629,27.024-18.156,42.187q-2.452,5.685-4.99,11.559c-.412.976-.873,1.972-1.25,2.94l-1.014,2.86c-.246.981-.417,1.984-.639,2.98-.191,1-.169,2.032-.272,3.051A24.9,24.9,0,0,0,115.2,441.624a23.894,23.894,0,0,0,12.362,3.823l3.33-.121,3.574-.372,7.21-.757,29.581-3.086c20.1-2.075,40.9-4.225,62.216-6.428q15.979-1.634,31.558-3.229l15.45-1.578a26.039,26.039,0,0,0,23.543-28.314q-.049-.545-.123-1.086a25.874,25.874,0,0,0-5.053-12.306q-4.327-5.655-8.551-11.179c-22.535-29.486-42.835-56.044-59.892-78.365-8.483-11.179-16.159-21.3-22.907-30.188-.843-1.109-1.657-2.236-2.515-3.166-.428-.483-.83-.981-1.263-1.441-.475-.418-.943-.83-1.411-1.24a22.761,22.761,0,0,0-18.43-5.271,23.01,23.01,0,0,0-9.449,3.456,28.107,28.107,0,0,0-3.28,2.432c-.853.908-1.7,1.672-2.347,2.457l-1.63,2.145c-.428.644-.724,1.227-1.006,1.672-.541.9-.853,1.358-.915,1.33" fill="#fff"/>
            </g>
          </g>
        </g>
      </g>
    </g>
    <path id="Path_8610" data-name="Path 8610" d="M69.4,468.623c-.065.063-.692-.518-1.773-1.63a21.2,21.2,0,0,1-1.871-2.113,35.388,35.388,0,0,1-2.266-2.978,52.873,52.873,0,0,1-4.829-8.47,56.074,56.074,0,0,1-5.01-23.236,53.14,53.14,0,0,1,.91-9.708,35.9,35.9,0,0,1,.84-3.649,21.275,21.275,0,0,1,.835-2.7,8.485,8.485,0,0,1,.943-2.213c.239.078-.9,3.307-1.7,8.709a59.6,59.6,0,0,0,8.78,40.748c2.96,4.592,5.327,7.067,5.141,7.236" transform="translate(217.604 801.582) rotate(7)" fill="#2e353a"/>
    <path id="Path_8611" data-name="Path 8611" d="M325.221,445.014c-.219-.118,1.738-3.624,3.959-9.663a84.392,84.392,0,0,0,3.144-10.83,82.72,82.72,0,0,0,1.315-27.454,83.7,83.7,0,0,0-2.092-11.079c-1.632-6.225-3.244-9.9-3.015-10a11.728,11.728,0,0,1,1.28,2.518,55.909,55.909,0,0,1,2.628,7.231,74.042,74.042,0,0,1,2.4,11.177,77.256,77.256,0,0,1-1.341,27.878,73.862,73.862,0,0,1-3.456,10.9,55.743,55.743,0,0,1-3.31,6.949,11.716,11.716,0,0,1-1.514,2.382" transform="translate(217.604 801.582) rotate(7)" fill="#2e353a"/>
    <path id="Path_8612" data-name="Path 8612" d="M345.411,439.834c-.214-.113,1.356-2.98,3.036-7.92a61.854,61.854,0,0,0,2.266-8.858,61.181,61.181,0,0,0-2.555-31.083c-1.75-4.917-3.36-7.759-3.146-7.877A7.824,7.824,0,0,1,346.3,386a40.021,40.021,0,0,1,2.729,5.644,53.741,53.741,0,0,1,2.711,8.913,56.76,56.76,0,0,1,.163,22.718,53.619,53.619,0,0,1-2.583,8.948,40.068,40.068,0,0,1-2.646,5.684,7.721,7.721,0,0,1-1.26,1.924" transform="translate(217.604 801.582) rotate(7)" fill="#2e353a"/>
    <g id="Group_5480" data-name="Group 5480" transform="translate(217.604 801.582) rotate(7)">
      <g id="Group_4747" data-name="Group 4747">
        <g id="Group_4746" data-name="Group 4746" clip-path="url(#clip-path-7)">
          <g id="Group_4745" data-name="Group 4745">
            <g id="Group_4744" data-name="Group 4744" clip-path="url(#clip-path-8)">
              <path id="Path_7619" data-name="Path 7619" d="M176.084,306.219l10.1,61.738a10.131,10.131,0,0,0,20.128-1.522l.7-63.127a7.951,7.951,0,0,0-8.845-7.985l-15.133,1.713a7.948,7.948,0,0,0-7,8.8c.014.129.032.258.053.386" fill="#fff"/>
            </g>
          </g>
        </g>
      </g>
    </g>
    <g id="Group_5481" data-name="Group 5481" transform="translate(217.604 801.582) rotate(7)">
      <g id="Group_4752" data-name="Group 4752">
        <g id="Group_4751" data-name="Group 4751" clip-path="url(#clip-path-9)">
          <g id="Group_4750" data-name="Group 4750">
            <g id="Group_4749" data-name="Group 4749" clip-path="url(#clip-path-10)">
              <path id="Path_7620" data-name="Path 7620" d="M215.217,407.365A15.238,15.238,0,1,1,203.7,389.15h0a15.236,15.236,0,0,1,11.514,18.212Z" fill="#fff"/>
            </g>
          </g>
        </g>
      </g>
    </g>
  </g>
</svg>
