<svg id="Group_2853" data-name="Group 2853" xmlns="http://www.w3.org/2000/svg" xmlns:xlink="http://www.w3.org/1999/xlink" width="103.682" height="103.783" viewBox="0 0 103.682 103.783">
  <defs>
    <clipPath id="clip-path">
      <rect id="Rectangle_1675" data-name="Rectangle 1675" width="103.682" height="103.783" fill="#173a8d"/>
    </clipPath>
  </defs>
  <g id="Group_2852" data-name="Group 2852" clip-path="url(#clip-path)">
    <path id="Path_5355" data-name="Path 5355" d="M277.088,0c1.329.336,2.691.578,3.983,1.023A18.5,18.5,0,0,1,288.4,31.4c-1.7,1.778-3.917,1.753-5.782-.105q-7.389-7.365-14.757-14.751c-1.838-1.838-3.683-3.67-5.513-5.517-1.982-2-1.923-4.15.143-6.054A18.2,18.2,0,0,1,272.671.182,3.261,3.261,0,0,0,273.237,0Z" transform="translate(-189.929)" fill="#173a8d"/>
    <path id="Path_5356" data-name="Path 5356" d="M0,18.71a49.741,49.741,0,0,1,1.231-5.8A18.479,18.479,0,0,1,31.119,5.516c2.008,1.827,2.05,4,.074,5.976Q21.422,21.28,11.636,31.053c-.406.406-.8.828-1.239,1.2A3.648,3.648,0,0,1,5.277,32,18.159,18.159,0,0,1,.164,20.6C.135,20.239.056,19.881,0,19.52V18.71" transform="translate(0 -0.467)" fill="#173a8d"/>
    <path id="Path_5357" data-name="Path 5357" d="M110.885,123.276c3.438,4.586,6.835,9.127,10.246,13.66a4.062,4.062,0,0,1,1.02,2.984,3.55,3.55,0,0,1-2.592,3.173A3.447,3.447,0,0,1,115.711,142c-.626-.705-1.168-1.486-1.735-2.242q-4.045-5.387-8.083-10.778c-.2-.264-.413-.517-.59-.736-15.952,10.213-31.82,10.212-47.8-.01-.276.36-.6.779-.924,1.205q-4.528,6.037-9.051,12.078a3.707,3.707,0,1,1-6.083-4.221c1.656-2.3,3.393-4.546,5.094-6.815l5.428-7.247c-8.395-9.125-12.23-19.844-11.094-32.136A39.465,39.465,0,0,1,54.948,64.034a40.79,40.79,0,0,1,55.937,59.242M85.127,83.894c0-3.613.025-7.227-.008-10.84a3.709,3.709,0,0,0-4.783-3.727c-1.692.5-2.645,1.95-2.648,4.088-.007,6.518.011,13.035-.027,19.553a2.987,2.987,0,0,1-.548,1.647c-2.863,3.886-5.777,7.735-8.67,11.6a19.18,19.18,0,0,0-1.344,1.9,3.643,3.643,0,0,0,2.478,5.422,3.8,3.8,0,0,0,3.991-1.787q5.212-6.978,10.452-13.934a5.355,5.355,0,0,0,1.116-3.381c-.022-3.512-.008-7.024-.009-10.536" transform="translate(-29.599 -39.504)" fill="#173a8d"/>
  </g>
</svg>
