<svg id="Group_5464" data-name="Group 5464" xmlns="http://www.w3.org/2000/svg" xmlns:xlink="http://www.w3.org/1999/xlink" width="50.694" height="50.271" viewBox="0 0 50.694 50.271">
  <defs>
    <clipPath id="clip-path">
      <rect id="Rectangle_2837" data-name="Rectangle 2837" width="50.694" height="50.271" fill="#173a8d"/>
    </clipPath>
  </defs>
  <g id="Group_5463" data-name="Group 5463" clip-path="url(#clip-path)">
    <path id="Path_8561" data-name="Path 8561" d="M5.451,23.854c-1.11,0-2.126,0-3.142,0a2.1,2.1,0,0,1-1.4-3.823q11.5-9.721,23-19.44A2.043,2.043,0,0,1,26.772.582q3.6,3.022,7.181,6.055c.133.112.272.217.511.407,0-.561,0-1.015,0-1.47a1.613,1.613,0,0,1,1.747-1.732c1.573-.006,3.147,0,4.72,0a1.671,1.671,0,0,1,1.89,1.875c0,2.634.009,5.268-.008,7.9a1,1,0,0,0,.4.863c2.183,1.824,4.35,3.667,6.53,5.495a2.246,2.246,0,0,1,.947,1.724,2.053,2.053,0,0,1-2.009,2.143c-.947.025-1.9.008-2.843.009h-.583V24.6q0,11.476,0,22.953c0,.233.005.466-.012.7A2.089,2.089,0,0,1,43.2,50.267c-.161.009-.322,0-.483,0H8.01c-1.79,0-2.558-.76-2.558-2.539q0-11.557,0-23.114Zm29.688,3.6c-.065-7.7-7.083-12.47-13.584-10.016-4.9,1.851-7.772,7.544-5.839,12.371a60.373,60.373,0,0,0,7.664,12.935,2.178,2.178,0,0,0,3.524-.076,66.407,66.407,0,0,0,6.875-11.118,12.369,12.369,0,0,0,1.36-4.1" transform="translate(0 0)" fill="#173a8d"/>
    <path id="Path_8562" data-name="Path 8562" d="M146.154,153.868a4.177,4.177,0,0,1,8.354-.012,4.177,4.177,0,1,1-8.354.012" transform="translate(-125.209 -128.235)" fill="#173a8d"/>
  </g>
</svg>
