<svg xmlns="http://www.w3.org/2000/svg" width="59" height="58.986" viewBox="0 0 59 58.986">
  <g id="Group_3449" data-name="Group 3449" transform="translate(0 -0.001)">
    <g id="Group_3450" data-name="Group 3450" transform="translate(0 0.001)">
      <path id="Path_6721" data-name="Path 6721" d="M27.652,0h3.687c1,.131,2.017.223,3.014.4A28.9,28.9,0,0,1,52.941,11.662a28.591,28.591,0,0,1,5.509,23.356A28.373,28.373,0,0,1,48.418,52.076a28.728,28.728,0,0,1-22.9,6.636,28.377,28.377,0,0,1-15.459-7.074,29.052,29.052,0,0,1-9.6-17c-.2-1.091-.309-2.2-.46-3.3V27.653c.129-.986.225-1.977.392-2.956A29.027,29.027,0,0,1,8.5,8.823,28.9,28.9,0,0,1,24.416.454C25.488.266,26.573.15,27.652,0M29.5,55.3A25.808,25.808,0,1,0,3.687,29.472,25.852,25.852,0,0,0,29.5,55.3" transform="translate(0 -0.001)" fill="#173a8d"/>
      <path id="Path_6722" data-name="Path 6722" d="M144.272,140.64h3.991q3.455,0,6.91,0a1.848,1.848,0,1,1,0,3.684q-5.1.007-10.193,0h-.707v.638q0,5.183,0,10.365a1.818,1.818,0,0,1-1.32,1.816,1.726,1.726,0,0,1-2.012-.721,2.6,2.6,0,0,1-.337-1.244c-.026-3.378-.015-6.757-.015-10.135v-.72h-.626c-3.436,0-6.872.005-10.308,0a1.847,1.847,0,1,1,.005-3.686q5.125.007,10.25,0h.678v-.667c0-3.455-.006-6.91,0-10.365a1.838,1.838,0,0,1,3.633-.426,3.467,3.467,0,0,1,.048.744q0,5.01,0,10.02Z" transform="translate(-112.933 -112.988)" fill="#173a8d"/>
    </g>
  </g>
</svg>
