<svg id="Group_2278" data-name="Group 2278" xmlns="http://www.w3.org/2000/svg" width="62.843" height="59" viewBox="0 0 62.843 59">
  <g id="Group_2279" data-name="Group 2279">
    <path id="Path_4497" data-name="Path 4497" d="M62.843,14.308c-.15.672-.27,1.352-.454,2.015A12.836,12.836,0,0,1,50,25.823c-5.277.035-10.555.008-15.833.008h-.755v3.934c1.608.2,3.206.4,4.8.6,1.843.237,3.7.416,5.525.739a5.4,5.4,0,0,1,4.36,5.276q.019,10.322,0,20.645a1.849,1.849,0,0,1-1.72,1.951,4.714,4.714,0,0,1-.613.021q-10.555,0-21.11,0a4.308,4.308,0,0,1-.733-.043,1.806,1.806,0,0,1-1.594-1.867c-.01-1.981.011-3.962-.021-5.942a1.21,1.21,0,0,0-.381-.806c-2.474-2.106-4.968-4.189-7.462-6.272a5.2,5.2,0,0,1-1.8-5.856,5.729,5.729,0,0,1,5.115-3.679,6.127,6.127,0,0,1,4.5,1.669V25.831h-.666c-3.007,0-6.014.021-9.021-.012A12.893,12.893,0,0,1,.119,14.713a2.608,2.608,0,0,0-.119-.4V11.49a1.157,1.157,0,0,0,.114-.271A12.9,12.9,0,0,1,12.894.022q18.528-.045,37.055,0A12.909,12.909,0,0,1,62.413,9.6c.169.622.288,1.258.43,1.887ZM33.382,22.154H34.2q7.609,0,15.218,0a15.642,15.642,0,0,0,1.772-.107,9.192,9.192,0,0,0-1.381-18.3q-18.378-.006-36.756,0a11.457,11.457,0,0,0-1.829.143,9.21,9.21,0,0,0,1.855,18.264q4.3,0,8.591,0h.669c0-2-.03-3.9.007-5.8a5.523,5.523,0,0,1,11.031.532c0,1.731,0,3.463,0,5.267M44.429,47.921V46.089c0-3.123,0-6.246,0-9.369a1.894,1.894,0,0,0-1.674-2.066c-.707-.1-1.418-.174-2.127-.261-3.059-.376-6.12-.739-9.176-1.135A1.839,1.839,0,0,1,29.7,31.209q-.007-3.46,0-6.92c0-2.47.007-4.94,0-7.41a1.846,1.846,0,1,0-3.678.032q0,11.512.006,23.025a1.882,1.882,0,0,1-1.048,1.91,1.9,1.9,0,0,1-2.2-.4c-1.05-.908-2.124-1.791-3.193-2.678a2.211,2.211,0,0,0-2.466-.319,1.524,1.524,0,0,0-.431,2.637c.149.139.309.267.466.4,2.412,2.019,4.817,4.047,7.247,6.044a1.764,1.764,0,0,0,1.032.375c6.093.022,12.187.016,18.28.016h.719m-18.364,7.3H44.393V51.68H26.065Z" transform="translate(0 0)" fill="#1a1818"/>
    <path id="Path_4498" data-name="Path 4498" d="M62.413,9.766A12.909,12.909,0,0,0,49.949.184q-18.528-.04-37.055,0a12.9,12.9,0,0,0-12.78,11.2A1.157,1.157,0,0,1,0,11.653v2.818a2.628,2.628,0,0,1,.119.4A12.893,12.893,0,0,0,12.6,25.982c2.835.031,5.671.012,8.507.012a.875.875,0,0,1,.245-.034H22V22.317h-.328q-4.3,0-8.591,0A9.21,9.21,0,0,1,11.228,4.052a11.437,11.437,0,0,1,1.829-.143q18.378-.012,36.756,0a9.192,9.192,0,0,1,1.381,18.3,15.6,15.6,0,0,1-1.772.107q-7.609.012-15.218,0h-.823V22.2h-.087v3.764h3.6a.87.87,0,0,1,.254.036c4.285.006,8.57.018,12.855-.011a12.837,12.837,0,0,0,12.385-9.5c.183-.663.3-1.343.454-2.015V11.653c-.142-.629-.261-1.265-.43-1.887" transform="translate(0 -0.136)" fill="#173a8d"/>
    <path id="Path_4499" data-name="Path 4499" d="M231.321,51.608c.489-.52,1.019-1.109,1.577-1.671q2.135-2.152,4.291-4.281a1.808,1.808,0,0,1,2.133-.417,1.706,1.706,0,0,1,1.047,1.768,2.393,2.393,0,0,1-.574,1.233c-2.4,2.449-4.831,4.867-7.269,7.278a1.8,1.8,0,0,1-2.678.009q-1.821-1.772-3.6-3.589a1.845,1.845,0,1,1,2.6-2.612c.765.735,1.512,1.489,2.268,2.233a1.072,1.072,0,0,0,.2.05" transform="translate(-188.728 -37.682)" fill="#1a1818"/>
  </g>
</svg>
