<svg id="Group_5419" data-name="Group 5419" xmlns="http://www.w3.org/2000/svg" xmlns:xlink="http://www.w3.org/1999/xlink" width="60.62" height="59.605" viewBox="0 0 60.62 59.605">
  <defs>
    <style>
      .cls-1 {
        fill: #fff;
      }

      .cls-2 {
        clip-path: url(#clip-path);
      }
    </style>
    <clipPath id="clip-path">
      <rect id="Rectangle_2285" data-name="Rectangle 2285" class="cls-1" width="60.62" height="59.605"/>
    </clipPath>
  </defs>
  <g id="Group_3963" data-name="Group 3963" class="cls-2">
    <path id="Path_7134" data-name="Path 7134" class="cls-1" d="M60.62,34.634V83.06a11.08,11.08,0,0,1-.75,1.517,4.09,4.09,0,0,1-3.661,1.645q-25.9-.008-51.8,0c-.118,0-.237,0-.355,0A3.918,3.918,0,0,1,0,82.025Q0,58.849,0,35.673a3.872,3.872,0,0,1,4.106-4.115q2.9-.006,5.8,0c.188,0,.377.02.6.033,0,.291,0,.525,0,.759.006,2.032,0,4.065.024,6.1a3.825,3.825,0,0,0,.888,2.334A4.78,4.78,0,0,0,16.162,42.4a4.043,4.043,0,0,0,3.747-3.788c.158-2.1.076-4.217.1-6.327,0-.229,0-.459,0-.689H41.092c0,2.092-.013,4.142,0,6.192a4.341,4.341,0,0,0,2.59,4.223,6.127,6.127,0,0,0,3.431.308,3.618,3.618,0,0,0,3.477-3.759c-.023-2.111,0-4.223,0-6.334v-.648c2.268,0,4.459-.059,6.642.036a4.308,4.308,0,0,1,1.874.774,4.231,4.231,0,0,1,1.515,2.242M56.7,46.974H3.937V82.267H56.7Z" transform="translate(0 -26.617)"/>
    <path id="Path_7135" data-name="Path 7135" class="cls-1" d="M85.061,7.446c0,1.48.023,2.96-.007,4.439a2.422,2.422,0,0,1-2.222,2.484c-1.807.189-3-.443-3.353-1.8a3.051,3.051,0,0,1-.074-.76q-.007-4.351,0-8.7A2.376,2.376,0,0,1,81.986.546,5.561,5.561,0,0,1,83.163.6a2.422,2.422,0,0,1,1.894,2.524c.015,1.44,0,2.881,0,4.321" transform="translate(-66.971 -0.457)"/>
    <path id="Path_7136" data-name="Path 7136" class="cls-1" d="M280.371,6.946c0,1.44.008,2.88,0,4.32a2.362,2.362,0,0,1-2.571,2.577,5.187,5.187,0,0,1-1.348-.1,2.364,2.364,0,0,1-1.738-2.458c-.018-2.9-.025-5.8,0-8.7A2.438,2.438,0,0,1,277.28,0c1.635-.067,2.632.5,2.987,1.747a3.524,3.524,0,0,1,.1.933c.01,1.42,0,2.841,0,4.261" transform="translate(-231.698 0)"/>
    <path id="Path_7137" data-name="Path 7137" class="cls-1" d="M279.812,293.66c-1.065,0-2.13,0-3.2,0-.67,0-.795-.122-.8-.8-.007-1.834.006-3.669-.007-5.5,0-.56.247-.774.789-.772,2.13.01,4.26,0,6.391.006.645,0,.791.158.792.811q0,2.722,0,5.444c0,.7-.119.813-.836.815-1.045,0-2.091,0-3.136,0" transform="translate(-232.64 -241.724)"/>
    <path id="Path_7138" data-name="Path 7138" class="cls-1" d="M61.866,293.672c-1.065,0-2.131-.015-3.2.006-.562.012-.785-.237-.782-.778.008-1.835,0-3.669.006-5.5,0-.645.162-.794.82-.8q3.166-.008,6.332,0c.681,0,.824.153.825.84q0,2.693,0,5.386c0,.734-.113.843-.868.845-1.045,0-2.091,0-3.137,0" transform="translate(-48.827 -241.736)"/>
    <path id="Path_7139" data-name="Path 7139" class="cls-1" d="M134.545,293.684c-1.085,0-2.17-.009-3.255,0-.5.006-.725-.215-.724-.708q.005-2.841,0-5.681a.6.6,0,0,1,.688-.688h6.569c.477,0,.725.2.722.714-.012,1.894-.009,3.787,0,5.681,0,.477-.221.681-.685.679-1.1-.005-2.209,0-3.314,0" transform="translate(-110.128 -241.748)"/>
    <path id="Path_7140" data-name="Path 7140" class="cls-1" d="M207.186,293.675c-1.085,0-2.17-.012-3.255.005-.527.009-.759-.218-.757-.738q.009-2.811,0-5.622a.627.627,0,0,1,.721-.719q3.255.006,6.51,0c.507,0,.755.2.75.745q-.024,2.811,0,5.622c0,.507-.221.714-.714.71-1.085-.009-2.17,0-3.255,0" transform="translate(-171.371 -241.739)"/>
    <path id="Path_7141" data-name="Path 7141" class="cls-1" d="M207.139,167.5c-1.085,0-2.169-.014-3.253.006-.509.009-.72-.217-.719-.7,0-1.873.007-3.746,0-5.619,0-.536.259-.738.764-.736q3.223.008,6.447,0c.536,0,.781.213.774.781-.021,1.833-.005,3.667-.009,5.5,0,.675-.1.769-.807.771-1.065,0-2.129,0-3.194,0" transform="translate(-171.363 -135.334)"/>
    <path id="Path_7142" data-name="Path 7142" class="cls-1" d="M279.793,167.518c-1.084,0-2.169-.011-3.253.005-.474.007-.7-.193-.695-.662q0-2.869,0-5.737a.578.578,0,0,1,.655-.654q3.342-.005,6.683,0c.423,0,.636.222.633.673-.01,1.912-.008,3.825,0,5.737,0,.449-.208.641-.65.638-1.124-.008-2.247,0-3.371,0" transform="translate(-232.667 -135.35)"/>
    <path id="Path_7143" data-name="Path 7143" class="cls-1" d="M61.92,223.654c1.084,0,2.169.011,3.253,0,.5-.007.713.2.71.7q-.017,2.81,0,5.619c0,.506-.219.731-.7.731q-3.283,0-6.566,0a.628.628,0,0,1-.72-.721q.008-2.81,0-5.62c0-.526.244-.73.77-.718,1.084.024,2.169.007,3.253.007" transform="translate(-48.834 -188.639)"/>
    <path id="Path_7144" data-name="Path 7144" class="cls-1" d="M134.544,223.655c1.065,0,2.13.016,3.194-.007.545-.012.793.175.787.75q-.028,2.78,0,5.56c.005.541-.241.75-.746.749q-3.253,0-6.506,0c-.524,0-.736-.248-.732-.766q.018-2.78,0-5.56c0-.52.213-.746.75-.734,1.084.023,2.169.007,3.253.007" transform="translate(-110.106 -188.64)"/>
    <path id="Path_7145" data-name="Path 7145" class="cls-1" d="M207.2,223.662c1.084,0,2.169.011,3.253,0,.508-.007.7.213.7.712q-.018,2.809,0,5.619c0,.51-.228.724-.707.724q-3.283,0-6.565,0c-.491,0-.712-.235-.71-.728.008-1.873,0-3.746,0-5.619,0-.484.2-.718.714-.71,1.1.019,2.208.006,3.312.006" transform="translate(-171.368 -188.647)"/>
    <path id="Path_7146" data-name="Path 7146" class="cls-1" d="M279.815,223.655c1.064,0,2.129.017,3.194-.007.547-.012.789.179.783.752q-.03,2.78,0,5.559c.006.543-.242.748-.746.747q-3.253,0-6.506,0c-.526,0-.732-.251-.728-.768q.02-2.78,0-5.559c0-.523.215-.743.749-.732,1.084.023,2.169.007,3.253.007" transform="translate(-232.638 -188.64)"/>
  </g>
</svg>
