<svg data-name="Group 5441" xmlns="http://www.w3.org/2000/svg" width="59.999" height="28.802" viewBox="0 0 59.999 28.802">
    <defs>
        <clipPath id="u8a8za4era">
            <path data-name="Rectangle 2832" style="fill:#173a8d" d="M0 0h59.999v28.802H0z"/>
        </clipPath>
    </defs>
    <g data-name="Group 5438" style="clip-path:url(#u8a8za4era)">
        <path data-name="Path 8302" d="M0 22.723a1.409 1.409 0 0 0 1.409.724c1.656-.03 3.312-.01 5.027-.01a7.583 7.583 0 0 1 3.036-6.88 7.211 7.211 0 0 1 5.33-1.512 7.63 7.63 0 0 1 6.917 8.339h16.1a7.7 7.7 0 1 1 15.345.053h1.976c1.191 0 2.382.005 3.573 0 .91-.005 1.264-.367 1.269-1.29.006-1.074-.023-2.148.011-3.221.02-.636-.123-1.119-.813-1.29v-2.661a3.027 3.027 0 0 0-2.519-3.249c-3.157-.79-6.318-1.566-9.47-2.374a3.123 3.123 0 0 1-1.125-.56c-2.528-1.995-5.015-4.041-7.557-6.017A13.221 13.221 0 0 0 30.228.008c-4.49-.017-8.98 0-13.47-.007a4.023 4.023 0 0 0-2.817 1.094q-3.1 2.816-6.229 5.6a1.512 1.512 0 0 1-.873.314c-.523.026-1.051-.061-1.577-.079a3.035 3.035 0 0 0-3.274 2.814c-.317 2.613-.644 5.226-.95 7.7L0 18.388zM21.548 3.246a3.243 3.243 0 0 1 .339-.041c2.711 0 5.423-.016 8.134 0a11.216 11.216 0 0 1 7.039 2.469c1.133.894 2.252 1.805 3.375 2.711a3.526 3.526 0 0 1 .257.274l-19.144-.97zM11.954 7.2c1.279-1.15 2.456-2.142 3.546-3.22a3.031 3.031 0 0 1 2.763-.73v4.268L11.954 7.2" style="fill:#173a8d"/>
        <path data-name="Path 8303" d="M43.907 74.664a6.108 6.108 0 1 0 6.084 6.124 6.163 6.163 0 0 0-6.084-6.124m-1.844 6.167a1.83 1.83 0 1 1 1.862 1.762 1.8 1.8 0 0 1-1.862-1.762" transform="translate(1.619 -58.078)" style="fill:#173a8d"/>
        <path data-name="Path 8304" d="M185.377 74.666a6.108 6.108 0 1 0 6.1 6.1 6.145 6.145 0 0 0-6.1-6.1m-.01 7.928a1.821 1.821 0 0 1-1.828-1.808 1.843 1.843 0 0 1 1.846-1.857 1.863 1.863 0 0 1 1.834 1.817 1.837 1.837 0 0 1-1.853 1.847" transform="translate(-171.294 -58.08)" style="fill:#173a8d"/>
    </g>
</svg>
