<svg data-name="Group 5439" xmlns="http://www.w3.org/2000/svg" width="60" height="28.802" viewBox="0 0 60 28.802">
    <defs>
        <clipPath id="ji5ryu26ja">
            <path data-name="Rectangle 2832" style="fill:#173a8d" d="M0 0h60v28.802H0z"/>
        </clipPath>
    </defs>
    <g data-name="Group 5438" style="clip-path:url(#ji5ryu26ja)">
        <path data-name="Path 8302" d="M60 22.723a1.409 1.409 0 0 1-1.409.724c-1.656-.03-3.312-.01-5.027-.01a7.583 7.583 0 0 0-3.036-6.88 7.211 7.211 0 0 0-5.33-1.512 7.63 7.63 0 0 0-6.917 8.339h-16.1a7.705 7.705 0 1 0-15.345.053H4.854c-1.191 0-2.382.005-3.573 0-.91-.005-1.264-.367-1.269-1.29C.007 21.071.036 20 0 18.923c-.02-.636.123-1.119.813-1.29v-2.661a3.027 3.027 0 0 1 2.519-3.249c3.157-.79 6.318-1.566 9.471-2.374a3.123 3.123 0 0 0 1.125-.56c2.528-1.995 5.015-4.041 7.557-6.017A13.221 13.221 0 0 1 29.772.008c4.49-.017 8.98 0 13.47-.007a4.023 4.023 0 0 1 2.817 1.094q3.1 2.816 6.229 5.6a1.512 1.512 0 0 0 .873.314c.523.026 1.051-.061 1.577-.079a3.035 3.035 0 0 1 3.275 2.816c.317 2.613.644 5.226.95 7.7l1.037.942zM38.452 3.246a3.243 3.243 0 0 0-.339-.041c-2.711 0-5.423-.016-8.134 0a11.216 11.216 0 0 0-7.039 2.469c-1.133.894-2.252 1.805-3.375 2.711a3.526 3.526 0 0 0-.257.274l19.145-.97zM48.046 7.2C46.767 6.05 45.59 5.058 44.5 3.98a3.031 3.031 0 0 0-2.763-.73v4.269l6.309-.319" style="fill:#173a8d"/>
        <path data-name="Path 8303" d="M43.852 74.664a6.108 6.108 0 1 1-6.084 6.124 6.163 6.163 0 0 1 6.084-6.124m1.848 6.167a1.83 1.83 0 1 0-1.862 1.762 1.8 1.8 0 0 0 1.862-1.762" transform="translate(-29.378 -58.078)" style="fill:#173a8d"/>
        <path data-name="Path 8304" d="M185.361 74.666a6.108 6.108 0 1 1-6.1 6.1 6.145 6.145 0 0 1 6.1-6.1m.01 7.928a1.821 1.821 0 0 0 1.828-1.808 1.843 1.843 0 0 0-1.846-1.857 1.863 1.863 0 0 0-1.834 1.817 1.837 1.837 0 0 0 1.853 1.847" transform="translate(-139.444 -58.08)" style="fill:#173a8d"/>
    </g>
</svg>
