<svg id="Group_5252" data-name="Group 5252" xmlns="http://www.w3.org/2000/svg" xmlns:xlink="http://www.w3.org/1999/xlink" width="80.345" height="79" viewBox="0 0 80.345 79">
  <defs>
    <clipPath id="clip-path">
      <rect id="Rectangle_2285" data-name="Rectangle 2285" width="80.345" height="79" fill="#173a8d"/>
    </clipPath>
  </defs>
  <g id="Group_3963" data-name="Group 3963" clip-path="url(#clip-path)">
    <path id="Path_7134" data-name="Path 7134" d="M80.345,35.635V99.819a14.687,14.687,0,0,1-.994,2.011,5.42,5.42,0,0,1-4.852,2.18Q40.173,104,5.846,104c-.157,0-.314,0-.471,0A5.192,5.192,0,0,1,0,98.447Q0,67.73,0,37.013a5.132,5.132,0,0,1,5.442-5.454q3.844-.007,7.689,0c.25,0,.5.027.8.044,0,.385,0,.7,0,1.006.008,2.693,0,5.387.032,8.081a5.07,5.07,0,0,0,1.177,3.093c1.625,2.071,3.862,2.454,6.281,2.15a5.358,5.358,0,0,0,4.966-5.021c.21-2.783.1-5.589.13-8.386,0-.3,0-.608,0-.913H54.462c0,2.772-.017,5.489,0,8.206a5.754,5.754,0,0,0,3.433,5.6,8.12,8.12,0,0,0,4.548.408c2.483-.307,4.643-1.879,4.608-4.982-.031-2.8-.006-5.6-.005-8.4v-.859c3.007,0,5.909-.078,8.8.048a5.71,5.71,0,0,1,2.484,1.026,5.607,5.607,0,0,1,2.007,2.972M75.154,51.99H5.218V98.768H75.154Z" transform="translate(0 -25.009)" fill="#173a8d"/>
    <path id="Path_7135" data-name="Path 7135" d="M86.9,9.693c0,1.961.03,3.923-.01,5.884a3.21,3.21,0,0,1-2.946,3.292c-2.395.251-3.975-.587-4.444-2.38a4.042,4.042,0,0,1-.1-1.007q-.01-5.766,0-11.532a3.149,3.149,0,0,1,3.425-3.4,7.37,7.37,0,0,1,1.561.074A3.211,3.211,0,0,1,86.9,3.966c.02,1.909,0,3.818,0,5.727" transform="translate(-62.927 -0.429)" fill="#173a8d"/>
    <path id="Path_7136" data-name="Path 7136" d="M282.218,9.206c0,1.909.011,3.818,0,5.726a3.13,3.13,0,0,1-3.408,3.415,6.875,6.875,0,0,1-1.786-.139,3.133,3.133,0,0,1-2.3-3.257c-.024-3.843-.033-7.688,0-11.531a3.231,3.231,0,0,1,3.4-3.414c2.167-.089,3.488.669,3.959,2.316a4.668,4.668,0,0,1,.132,1.236c.013,1.883.006,3.765.006,5.648" transform="translate(-217.707 0)" fill="#173a8d"/>
    <path id="Path_7137" data-name="Path 7137" d="M281.114,295.963c-1.412,0-2.824.005-4.235,0-.888,0-1.053-.162-1.057-1.062-.009-2.431.008-4.863-.009-7.294-.005-.742.327-1.026,1.046-1.023,2.823.014,5.647,0,8.47.009.855,0,1.048.21,1.05,1.075q.006,3.608,0,7.215c0,.925-.158,1.077-1.108,1.08-1.386,0-2.771,0-4.157,0" transform="translate(-218.592 -227.128)" fill="#173a8d"/>
    <path id="Path_7138" data-name="Path 7138" d="M63.16,295.974c-1.412,0-2.824-.021-4.236.008-.745.015-1.04-.315-1.037-1.032.01-2.431,0-4.863.008-7.295,0-.854.215-1.052,1.086-1.054q4.2-.011,8.393,0c.9,0,1.092.2,1.093,1.114q0,3.569,0,7.138c0,.973-.15,1.117-1.151,1.12-1.386,0-2.771,0-4.157,0" transform="translate(-45.878 -227.139)" fill="#173a8d"/>
    <path id="Path_7139" data-name="Path 7139" d="M135.839,295.985c-1.438,0-2.876-.012-4.314.006-.662.008-.961-.285-.96-.938q.007-3.765,0-7.529a.8.8,0,0,1,.912-.912q4.353,0,8.706,0c.632,0,.961.268.957.946-.016,2.51-.012,5.02,0,7.529,0,.632-.293.9-.908.9-1.464-.007-2.928,0-4.392,0" transform="translate(-103.478 -227.15)" fill="#173a8d"/>
    <path id="Path_7140" data-name="Path 7140" d="M208.491,295.977c-1.438,0-2.876-.016-4.314.007-.7.011-1.006-.288-1-.979q.012-3.726,0-7.451a.831.831,0,0,1,.956-.953q4.314.008,8.628,0c.673,0,1,.271.994.988q-.032,3.725,0,7.451c0,.673-.294.946-.946.941-1.438-.012-2.876,0-4.314,0" transform="translate(-161.023 -227.142)" fill="#173a8d"/>
    <path id="Path_7141" data-name="Path 7141" d="M208.433,169.8c-1.437,0-2.875-.018-4.312.008-.675.012-.954-.287-.953-.933,0-2.482.009-4.965,0-7.447,0-.71.343-.978,1.013-.976q4.272.01,8.545,0c.71,0,1.035.282,1.026,1.036-.028,2.43-.007,4.86-.012,7.29,0,.9-.135,1.019-1.07,1.022-1.411,0-2.822,0-4.233,0" transform="translate(-161.015 -127.162)" fill="#173a8d"/>
    <path id="Path_7142" data-name="Path 7142" d="M281.078,169.812c-1.437,0-2.874-.014-4.311.007-.628.009-.921-.256-.921-.878q0-3.8,0-7.6a.767.767,0,0,1,.868-.866q4.429-.007,8.858,0c.561,0,.843.295.84.891-.014,2.535-.01,5.069,0,7.6,0,.6-.276.849-.862.845-1.489-.01-2.979,0-4.468,0" transform="translate(-218.618 -127.177)" fill="#173a8d"/>
    <path id="Path_7143" data-name="Path 7143" d="M63.229,223.656c1.437,0,2.875.015,4.312-.006.666-.01.945.265.941.933q-.023,3.724,0,7.448c.005.671-.291.968-.93.969q-4.351,0-8.7,0a.832.832,0,0,1-.954-.955q.011-3.724,0-7.448c0-.7.324-.967,1.02-.952,1.437.031,2.875.01,4.312.01" transform="translate(-45.886 -177.248)" fill="#173a8d"/>
    <path id="Path_7144" data-name="Path 7144" d="M135.847,223.657c1.411,0,2.823.022,4.233-.009.723-.016,1.051.232,1.044.994q-.037,3.684,0,7.369c.007.717-.32.993-.989.993q-4.312,0-8.624,0c-.695,0-.975-.329-.971-1.015q.023-3.685,0-7.369c0-.689.283-.988.993-.973,1.436.031,2.874.009,4.311.009" transform="translate(-103.458 -177.249)" fill="#173a8d"/>
    <path id="Path_7145" data-name="Path 7145" d="M208.509,223.664c1.437,0,2.875.015,4.311-.006.673-.01.933.282.928.943q-.024,3.723,0,7.447c.005.676-.3.959-.938.96q-4.351,0-8.7,0c-.65,0-.944-.312-.941-.965.01-2.483.006-4.965,0-7.447,0-.642.266-.952.946-.94,1.463.026,2.926.008,4.39.008" transform="translate(-161.02 -177.255)" fill="#173a8d"/>
    <path id="Path_7146" data-name="Path 7146" d="M281.118,223.657c1.411,0,2.822.022,4.233-.009.725-.016,1.045.237,1.037,1q-.039,3.684,0,7.368c.007.72-.32.991-.989.991q-4.311,0-8.623,0c-.7,0-.97-.332-.965-1.018q.026-3.684,0-7.368c0-.694.285-.985.993-.97,1.436.031,2.874.009,4.311.009" transform="translate(-218.59 -177.249)" fill="#173a8d"/>
  </g>
</svg>
