<svg data-name="Group 5444" xmlns="http://www.w3.org/2000/svg" width="60" height="40.903" viewBox="0 0 60 40.903">
    <defs>
        <clipPath id="23mqaf235a">
            <path data-name="Rectangle 2833" style="fill:#173a8d" d="M0 0h60v40.903H0z"/>
        </clipPath>
    </defs>
    <g data-name="Group 5443" style="clip-path:url(#23mqaf235a)">
        <path data-name="Path 8305" d="M198.333 22.443c-1.165.109-2.33.212-3.495.33a1.253 1.253 0 0 0-1.158 1.005 18.4 18.4 0 0 1-2.281 5.411 1.336 1.336 0 0 0 .168 1.675c.618.755 1.234 1.512 1.871 2.251.214.249.27.4-.007.663a64.099 64.099 0 0 0-2.2 2.194c-.228.238-.375.236-.618.026-.708-.613-1.435-1.2-2.158-1.8a1.39 1.39 0 0 0-1.964-.179 17.441 17.441 0 0 1-5.092 2.139A1.4 1.4 0 0 0 180.2 37.6c-.1.931-.192 1.864-.253 2.8-.024.358-.106.511-.509.5a96.631 96.631 0 0 0-3.807 0c-.342.005-.42-.108-.419-.432.011-3.144.016-6.288 0-9.432 0-.511.245-.4.544-.339a10.086 10.086 0 0 0 8.5-1.912 10.024 10.024 0 0 0 3.961-10.185 10.1 10.1 0 0 0-7.229-8.2 9.56 9.56 0 0 0-5.31-.221c-.452.107-.471-.04-.47-.4q.014-4.657 0-9.314c0-.35.075-.471.449-.464 1.269.024 2.539.016 3.808 0 .305 0 .453.061.476.408.059.915.162 1.827.244 2.74a1.477 1.477 0 0 0 1.328 1.595 17.317 17.317 0 0 1 4.875 2.056 1.47 1.47 0 0 0 2.112-.16c.723-.6 1.451-1.186 2.16-1.8.2-.176.319-.2.517.011q1.112 1.166 2.262 2.294c.2.2.193.314.017.518-.635.741-1.253 1.5-1.872 2.251a1.406 1.406 0 0 0-.159 1.92 17.051 17.051 0 0 1 2.135 5.092 1.392 1.392 0 0 0 1.451 1.2c1.106.117 2.213.221 3.32.331z" transform="translate(-138.333)" style="fill:#173a8d"/>
        <path data-name="Path 8306" d="M34.2 29.741c0 4.394-.012 8.787.015 13.181 0 .539-.155.626-.647.623q-5.624-.032-11.247 0c-.463 0-.643-.081-.727-.59a8.394 8.394 0 0 0-16.555-.188c-.1.614-.281.8-.92.785A3.966 3.966 0 0 1 0 39.409v-3.866a3.976 3.976 0 0 1 3.2-4.178c3.755-1.029 7.51-2.059 11.273-3.062a2.869 2.869 0 0 0 1.649-1.1c2.228-2.963 4.491-5.9 6.727-8.855a5.884 5.884 0 0 1 4.983-2.466c1.933.009 3.866.017 5.8-.009.455-.006.582.106.58.573-.019 4.433-.011 8.865-.011 13.3" transform="translate(0 -12.529)" style="fill:#173a8d"/>
        <path data-name="Path 8307" d="M175.212 67.669c0-2.285.007-4.57-.007-6.855 0-.359.071-.538.457-.658a7.828 7.828 0 1 1 3.886 15.154 8.265 8.265 0 0 1-3.876-.139c-.363-.1-.473-.269-.47-.648.02-2.285.01-4.57.01-6.855" transform="translate(-138.332 -47.227)" style="fill:#173a8d"/>
        <path data-name="Path 8308" d="M41.665 123.692a5.74 5.74 0 1 1-5.772 5.695 5.778 5.778 0 0 1 5.772-5.695" transform="translate(-28.339 -97.662)" style="fill:#173a8d"/>
    </g>
</svg>
