<svg id="Group_4259" data-name="Group 4259" xmlns="http://www.w3.org/2000/svg" xmlns:xlink="http://www.w3.org/1999/xlink" width="50" height="41.803" viewBox="0 0 50 41.803">
  <defs>
    <clipPath id="clip-path">
      <rect id="Rectangle_2395" data-name="Rectangle 2395" width="50" height="41.803" fill="#173a8d"/>
    </clipPath>
  </defs>
  <g id="Group_4258" data-name="Group 4258" clip-path="url(#clip-path)">
    <path id="Path_7362" data-name="Path 7362" d="M304.394,59.5l-.412,1.443c-.394-.434-.733-.789-1.051-1.161q-1.271-1.487-2.526-2.986c-1.093-1.305-2.173-2.621-3.27-3.923-.788-.935-1.6-1.848-2.39-2.782-.943-1.116-1.866-2.25-2.809-3.366-.79-.934-1.6-1.854-2.4-2.781a7.305,7.305,0,0,1-.589-.7.434.434,0,0,1,.01-.406c.907-1.088,1.838-2.155,2.749-3.239,1.1-1.3,2.172-2.621,3.268-3.924.777-.923,1.578-1.825,2.357-2.746.944-1.116,1.872-2.244,2.814-3.362.758-.9,1.526-1.789,2.29-2.683l1.527-1.786.427,1.493Z" transform="translate(-254.394 -22.095)" fill="#173a8d"/>
    <path id="Path_7363" data-name="Path 7363" d="M65.5.436c-.559.677-1,1.224-1.457,1.765q-1.487,1.774-2.981,3.543c-.759.9-1.53,1.782-2.287,2.68-.973,1.154-1.935,2.318-2.908,3.472-.757.9-1.529,1.782-2.286,2.679-.974,1.154-1.937,2.317-2.911,3.472-.737.874-1.485,1.739-2.224,2.612-.791.934-1.6,1.852-2.361,2.811a4.126,4.126,0,0,1-4.356,1.355,5.732,5.732,0,0,1-2.427-1.91c-.788-.935-1.569-1.877-2.354-2.815q-1.456-1.738-2.915-3.473c-.758-.9-1.529-1.783-2.286-2.68-.974-1.154-1.937-2.316-2.91-3.47-.757-.9-1.527-1.784-2.285-2.681-.974-1.154-1.939-2.317-2.913-3.471-.758-.9-1.528-1.786-2.289-2.682-.3-.354-.589-.717-.992-1.208A12.026,12.026,0,0,1,22.518.018q20.407-.035,40.813,0A12.047,12.047,0,0,1,65.5.436" transform="translate(-17.923 0)" fill="#173a8d"/>
    <path id="Path_7364" data-name="Path 7364" d="M50.723,195.865l15.235,18.007c-.619.143-1.139.273-1.665.38a2.741,2.741,0,0,1-.536.01q-20.377,0-40.753,0a4.316,4.316,0,0,1-2.125-.47l15.167-17.928c.561.644,1.092,1.2,1.564,1.806a7.646,7.646,0,0,0,4.769,3.165,6.4,6.4,0,0,0,4.1-.737,10.1,10.1,0,0,0,3.13-2.952c.34-.406.693-.8,1.114-1.286" transform="translate(-18.385 -172.468)" fill="#173a8d"/>
    <path id="Path_7365" data-name="Path 7365" d="M.3,61.177a17.529,17.529,0,0,1-.284-2.186C-.012,55.362,0,51.732,0,48.1c0-6.755-.01-13.509.014-20.264a19.165,19.165,0,0,1,.295-2.371l.167,0Q1.841,27.086,3.2,28.708c.757.9,1.524,1.788,2.281,2.685.984,1.166,1.961,2.339,2.946,3.5.747.885,1.505,1.76,2.253,2.645.986,1.166,1.964,2.338,2.95,3.5.583.689,1.167,1.376,1.766,2.05a.335.335,0,0,1,.011.534c-1.356,1.591-2.7,3.2-4.049,4.789-.969,1.14-1.958,2.263-2.924,3.406C7.152,53.347,5.888,54.886,4.6,56.408c-.956,1.132-1.932,2.248-2.9,3.373C1.3,60.254.9,60.732.5,61.208L.3,61.177" transform="translate(0 -22.422)" fill="#173a8d"/>
  </g>
</svg>
