<svg id="Group_2631" data-name="Group 2631" xmlns="http://www.w3.org/2000/svg" xmlns:xlink="http://www.w3.org/1999/xlink" width="59.016" height="59" viewBox="0 0 59.016 59">
  <defs>
    <clipPath id="clip-path">
      <rect id="Rectangle_1443" data-name="Rectangle 1443" width="59.016" height="59" fill="none" stroke="#173a8d" stroke-width="1"/>
    </clipPath>
  </defs>
  <g id="Group_2291" data-name="Group 2291" clip-path="url(#clip-path)">
    <path id="Path_4510" data-name="Path 4510" d="M59.015,25.926c-.085.166-.168.334-.255.5a2.336,2.336,0,0,1-2.582,1.18A2.277,2.277,0,0,1,54.412,25.4c-.008-3.841.057-7.683-.02-11.522a9.02,9.02,0,0,0-5.614-8.52A8.424,8.424,0,0,0,45.2,4.611q-15.671-.01-31.342,0a9.2,9.2,0,0,0-9.225,9.238q-.031,15.642,0,31.284a9.219,9.219,0,0,0,9.217,9.249c3.3.026,6.606,0,9.909.008a2.3,2.3,0,0,1,.575,4.532,2.464,2.464,0,0,1-.625.067c-3.4,0-6.8.017-10.2,0A13.814,13.814,0,0,1,.257,47.68,16.644,16.644,0,0,1,.03,44.992C.015,34.68.078,24.366,0,14.054A13.979,13.979,0,0,1,11.682.149c.261-.044.521-.1.781-.149H46.571a2.3,2.3,0,0,0,.379.111A13.828,13.828,0,0,1,58.423,9.826c.25.858.4,1.745.592,2.619Z" transform="translate(0)" fill="#1a1818"/>
    <path id="Path_4511" data-name="Path 4511" d="M227.66,208.32c-.093.388-.173.779-.279,1.163a8.253,8.253,0,0,1-2.125,3.7c-2.763,2.774-5.521,5.554-8.31,8.3a16.941,16.941,0,0,1-9.165,4.572c-1.846.331-3.683.715-5.521,1.09a2.323,2.323,0,0,1-2.864-2.892c.548-2.622,1.013-5.266,1.671-7.86a14.7,14.7,0,0,1,3.877-6.7c2.783-2.836,5.576-5.663,8.43-8.426a7.981,7.981,0,0,1,8.448-1.986,8.109,8.109,0,0,1,5.726,6.6,1.192,1.192,0,0,0,.112.25Zm-23.012,13.619c.649-.126,1.263-.259,1.881-.362a11.878,11.878,0,0,0,6.495-2.82c3.1-2.951,6.115-5.985,9.105-9.044a3.4,3.4,0,0,0,.734-3.545,3.778,3.778,0,0,0-6.347-1.509c-2.483,2.455-4.874,5.008-7.43,7.385-2.878,2.677-4.007,6.069-4.439,9.9" transform="translate(-168.644 -168.22)" fill="#173a8d"/>
    <path id="Path_4512" data-name="Path 4512" d="M79.84,138.594a6.912,6.912,0,1,1,6.939-6.884,6.9,6.9,0,0,1-6.939,6.884m2.331-6.888a2.3,2.3,0,1,0-2.342,2.28,2.346,2.346,0,0,0,2.342-2.28" transform="translate(-61.726 -105.564)" fill="#1a1818"/>
    <path id="Path_4513" data-name="Path 4513" d="M216.774,104.8q3.512,0,7.024,0a2.3,2.3,0,1,1-.005,4.6q-7.024,0-14.048,0a2.305,2.305,0,1,1,.005-4.6q3.512,0,7.024,0" transform="translate(-175.398 -88.668)" fill="#1a1818"/>
    <path id="Path_4514" data-name="Path 4514" d="M71.755,230.98a10.158,10.158,0,0,1,7.41,2.608,2.225,2.225,0,0,1,.758,2.281,2.191,2.191,0,0,1-1.673,1.72,2.347,2.347,0,0,1-2.187-.559,7.779,7.779,0,0,0-7.969-.721,8.85,8.85,0,0,0-1.119.8,2.316,2.316,0,1,1-3-3.527c1.983-1.808,4.314-2.6,7.783-2.6" transform="translate(-53.424 -195.411)" fill="#1a1818"/>
    <path id="Path_4515" data-name="Path 4515" d="M235.1,168.751c-1.247,0-2.494.005-3.741,0a2.3,2.3,0,1,1,.015-4.6q3.741-.008,7.482,0a2.3,2.3,0,1,1-.015,4.6c-1.247,0-2.494,0-3.741,0" transform="translate(-193.765 -138.876)" fill="#1a1818"/>
  </g>
</svg>
