<svg id="Group_5464" data-name="Group 5464" xmlns="http://www.w3.org/2000/svg" xmlns:xlink="http://www.w3.org/1999/xlink" width="50" height="49.9" viewBox="0 0 50 49.9">
  <defs>
    <clipPath id="clip-path">
      <rect id="Rectangle_2837" data-name="Rectangle 2837" width="50" height="49.9" fill="#173a8d"/>
    </clipPath>
  </defs>
  <g id="Group_5463" data-name="Group 5463" clip-path="url(#clip-path)">
    <path id="Path_8561" data-name="Path 8561" d="M0,178.873V150.705H46.941v9.51a16.338,16.338,0,0,0-9.845-3.66c.907-.527,1.219-1.116,1.04-1.8a1.516,1.516,0,0,0-1.667-1.121c-.862,0-1.725-.008-2.587,0a1.463,1.463,0,1,0,.009,2.92c.508.008,1.015,0,1.523,0a16.681,16.681,0,0,0-9.04,3.771c-.506-.612-.782-.821-1.3-.832-1.041-.023-2.083-.036-3.123,0a1.431,1.431,0,0,0-1.347,1.463,1.464,1.464,0,0,0,1.333,1.432c.258.024.52.011.78.012.492,0,.984,0,1.478,0-.544.886-1.062,1.706-1.553,2.542a.66.66,0,0,1-.634.4,1.36,1.36,0,0,0-1.3.931,1.259,1.259,0,0,0,.317,1.475.627.627,0,0,1,.182.76,15.053,15.053,0,0,0,.091,8.732c.28.907.666,1.783,1.015,2.706h-.578c-6.59,0-13.18-.012-19.769.013A1.884,1.884,0,0,1,0,178.873m11.819-25.242c-.488,0-.977-.013-1.464,0a1.456,1.456,0,1,0-.005,2.912q1.464.03,2.929,0a1.456,1.456,0,1,0,.005-2.913c-.488-.017-.976,0-1.464,0m11.713,2.92c.488,0,.977.013,1.464,0A1.456,1.456,0,1,0,25,153.636q-1.464-.031-2.929,0a1.456,1.456,0,1,0-.007,2.912c.488.017.976,0,1.464,0M11.8,162.4c.488,0,.977.012,1.464,0a1.456,1.456,0,1,0,.025-2.912c-.976-.022-1.953-.019-2.929,0a1.458,1.458,0,1,0,.024,2.915c.471.013.944,0,1.416,0m.021,2.927c-.488,0-.977-.013-1.464,0a1.456,1.456,0,1,0-.018,2.912c.976.021,1.953.02,2.929,0a1.456,1.456,0,1,0,.018-2.913c-.487-.018-.976,0-1.464,0M11.8,174.1c.488,0,.977.012,1.464,0a1.456,1.456,0,1,0,.026-2.912c-.992-.022-1.985-.023-2.977,0a1.455,1.455,0,0,0,.023,2.909c.488.018.976,0,1.464,0" transform="translate(0 -135.988)" fill="#173a8d"/>
    <path id="Path_8562" data-name="Path 8562" d="M268.442,255.728c-.133.73-.208,1.477-.408,2.188-1.481,5.252-4.884,8.586-10.227,9.714A13.139,13.139,0,1,1,268.182,252.2c.1.522.174,1.049.26,1.574Zm-11.719-2.436c0-.242,0-.419,0-.6,0-1.266.013-2.532-.007-3.8a1.456,1.456,0,0,0-2.912-.037q-.032,2.97,0,5.941a1.4,1.4,0,0,0,1.406,1.4q2.976.032,5.952,0a1.365,1.365,0,0,0,1.311-.926,1.449,1.449,0,0,0-1.4-1.982c-1.429-.018-2.858,0-4.35,0" transform="translate(-218.442 -218.008)" fill="#173a8d"/>
    <path id="Path_8563" data-name="Path 8563" d="M38.177,30.883c2.425,0,4.85-.011,7.274,0a1.389,1.389,0,0,1,1.5,1.348c.029,2.45.01,4.9.01,7.419H0v-7.7a1.648,1.648,0,0,1,1.573-1.076c2.44.013,4.88.008,7.32.011l-.013-.014q0,2.14.006,4.28a1.465,1.465,0,1,0,2.926.049c.018-1.443.009-2.886.011-4.329l-.013.014h5.873l-.013-.014q0,2.14.006,4.28A1.465,1.465,0,1,0,20.6,35.2c.018-1.443.009-2.886.011-4.329l-.013.014h5.873l-.013-.014q0,2.14.006,4.28a1.465,1.465,0,1,0,2.926.049c.018-1.443.009-2.886.011-4.329l-.013.014H35.26l-.013-.014q0,2.14.006,4.28a1.465,1.465,0,1,0,2.926.049c.018-1.443.009-2.886.011-4.329Z" transform="translate(0 -27.854)" fill="#173a8d"/>
    <path id="Path_8564" data-name="Path 8564" d="M92.706,0a1.729,1.729,0,0,1,1.079,1.91c-.032.371-.009.746-.012,1.119l.013-.014H90.843l.013.014c0-.373.021-.748-.012-1.119A1.729,1.729,0,0,1,91.924,0Z" transform="translate(-81.964)" fill="#173a8d"/>
    <path id="Path_8565" data-name="Path 8565" d="M182.706,0a1.729,1.729,0,0,1,1.079,1.91c-.032.371-.009.746-.012,1.119l.013-.014h-2.943l.013.014c0-.373.021-.748-.012-1.119A1.729,1.729,0,0,1,181.924,0Z" transform="translate(-163.174)" fill="#173a8d"/>
    <path id="Path_8566" data-name="Path 8566" d="M272.706,0a1.729,1.729,0,0,1,1.079,1.91c-.032.371-.009.746-.012,1.119l.013-.014h-2.943l.013.014c0-.373.021-.748-.012-1.119A1.729,1.729,0,0,1,271.924,0Z" transform="translate(-244.385)" fill="#173a8d"/>
    <path id="Path_8567" data-name="Path 8567" d="M360.856,3.028c0-.373.021-.748-.012-1.119A1.729,1.729,0,0,1,361.924,0h.781a1.729,1.729,0,0,1,1.079,1.91c-.032.37-.009.746-.012,1.119l.013-.014h-2.943Z" transform="translate(-325.596 0.001)" fill="#173a8d"/>
  </g>
</svg>
