<svg xmlns="http://www.w3.org/2000/svg" width="306.955" height="306.954" viewBox="0 0 306.955 306.954">
  <g id="Group_3486" data-name="Group 3486" transform="translate(-381 -367)">
    <path id="Path_6764" data-name="Path 6764" d="M185.117,39.52A153.477,153.477,0,1,1,31.64,193,153.476,153.476,0,0,1,185.117,39.52" transform="translate(349.36 327.48)" fill="#173a8d"/>
    <g id="Group_3485" data-name="Group 3485" transform="translate(461 450)">
      <g id="Group_3487" data-name="Group 3487" transform="translate(0 -0.002)">
        <path id="Path_6814" data-name="Path 6814" d="M131.631,130.454,17.152,140.1A15.8,15.8,0,0,1,1.395,117.9L49.9,9.358A15.8,15.8,0,0,1,77.473,7.034l65.978,98.9a15.8,15.8,0,0,1-11.82,24.52M63.728,8.716a7.024,7.024,0,0,0-5.9,4.187L9.33,121.448a7.114,7.114,0,0,0,7.092,9.99L130.9,121.794a7.114,7.114,0,0,0,5.321-11.036l-65.979-98.9a7.024,7.024,0,0,0-6.515-3.141" transform="translate(0 0.002)" fill="#fff"/>
        <path id="Path_6815" data-name="Path 6815" d="M411.78,314.658a10.473,10.473,0,0,1,.445-4.158,9.6,9.6,0,0,1,1.959-3.441,10.289,10.289,0,0,1,3.289-2.438,12.827,12.827,0,0,1,4.5-1.156,13.121,13.121,0,0,1,4.668.383,10.226,10.226,0,0,1,3.685,1.851,9.606,9.606,0,0,1,2.507,3.064,10.489,10.489,0,0,1,1.135,4.024,10.24,10.24,0,0,1-.448,4.124,9.67,9.67,0,0,1-1.962,3.407,10.2,10.2,0,0,1-3.323,2.441,13.118,13.118,0,0,1-4.538,1.159,12.831,12.831,0,0,1-4.634-.386,10.255,10.255,0,0,1-3.651-1.854,9.654,9.654,0,0,1-2.5-3.031,10.223,10.223,0,0,1-1.132-3.991m17.7-20.71-16.49,1.389-7.083-56.147,21.162-1.783Z" transform="translate(-350.734 -205.137)" fill="#fff"/>
      </g>
    </g>
  </g>
</svg>
