<svg id="Group_2388" data-name="Group 2388" xmlns="http://www.w3.org/2000/svg" xmlns:xlink="http://www.w3.org/1999/xlink" width="59.687" height="67.845" viewBox="0 0 59.687 67.845">
  <defs>
    <clipPath id="clip-path">
      <rect id="Rectangle_1496" data-name="Rectangle 1496" width="59.687" height="67.845" fill="#173a8d"/>
    </clipPath>
  </defs>
  <g id="Group_2387" data-name="Group 2387" clip-path="url(#clip-path)">
    <path id="Path_4610" data-name="Path 4610" d="M1.765,67.845A2.891,2.891,0,0,1,0,64.791Q.054,46.877,0,28.962a3.738,3.738,0,0,1,1.243-2.91Q14.225,13.514,27.161.929A2.417,2.417,0,0,1,30.938.89Q44.806,13.593,58.675,26.3a2.891,2.891,0,0,1,1.008,2.268q-.017,18.312,0,36.624a2.685,2.685,0,0,1-1.757,2.657h-20.8A2.827,2.827,0,0,1,35.3,64.825c.036-5.254.014-10.508.014-15.762v-.777H24.384v.844c0,5.232-.022,10.464.014,15.7a2.827,2.827,0,0,1-1.836,3.021ZM19.647,63.07v-.811c0-5.343.037-10.686-.021-16.028a2.572,2.572,0,0,1,2.733-2.758q7.484.056,14.968,0a2.573,2.573,0,0,1,2.741,2.751c-.057,5.364-.02,10.729-.02,16.094v.738H54.916c.012-.223.03-.4.03-.572q0-16.326-.016-32.652a1.363,1.363,0,0,0-.411-.889Q43.628,18.918,32.709,8.926c-1.186-1.087-2.375-2.171-3.58-3.272-.163.141-.3.249-.425.369Q16.941,17.439,5.194,28.871a1.577,1.577,0,0,0-.428,1.019Q4.733,46.15,4.75,62.41c0,.212.026.425.042.66Z" transform="translate(0 -0.001)" fill="#5f5e5e"/>
  </g>
</svg>
