<svg id="Group_2296" data-name="Group 2296" xmlns="http://www.w3.org/2000/svg" xmlns:xlink="http://www.w3.org/1999/xlink" width="57.893" height="65.845" viewBox="0 0 57.893 65.845">
  <defs>
    <clipPath id="clip-path">
      <rect id="Rectangle_1425" data-name="Rectangle 1425" width="57.893" height="65.845" fill="#244593"/>
    </clipPath>
  </defs>
  <g id="Group_2235" data-name="Group 2235" clip-path="url(#clip-path)">
    <path id="Path_4454" data-name="Path 4454" d="M1.425,251.632A2.485,2.485,0,0,1,0,248.978a25.387,25.387,0,0,1,20.872-24.223,31.706,31.706,0,0,1,4.408-.37c2.591-.058,5.187-.09,7.777,0,9.968.348,17.254,5.072,22.012,13.749a24.486,24.486,0,0,1,2.817,10.907,2.411,2.411,0,0,1-1.421,2.591Zm2.4-3.894H53.912c-.018-.269-.021-.5-.052-.732a20.638,20.638,0,0,0-2.417-7.535c-3.689-6.525-9.216-10.394-16.72-11.1-3-.284-6.036-.124-9.056-.132a20.091,20.091,0,0,0-3.2.166c-8.7,1.389-14.518,6.3-17.492,14.548a43.2,43.2,0,0,0-1.146,4.788" transform="translate(-0.001 -185.787)" fill="#244593"/>
    <path id="Path_4455" data-name="Path 4455" d="M102.15,17.357A17.361,17.361,0,1,1,84.818,0,17.392,17.392,0,0,1,102.15,17.357m-30.864-.044A13.5,13.5,0,1,0,84.82,3.858,13.527,13.527,0,0,0,71.286,17.313" transform="translate(-55.843 0)" fill="#244593"/>
  </g>
</svg>
