<svg id="Group_5155" data-name="Group 5155" xmlns="http://www.w3.org/2000/svg" xmlns:xlink="http://www.w3.org/1999/xlink" width="207.911" height="199.572" viewBox="0 0 207.911 199.572">
  <defs>
    <clipPath id="clip-path">
      <rect id="Rectangle_2748" data-name="Rectangle 2748" width="207.911" height="199.572" fill="none"/>
    </clipPath>
  </defs>
  <g id="Group_5154" data-name="Group 5154" clip-path="url(#clip-path)">
    <path id="Path_7966" data-name="Path 7966" d="M486.079,374.06c-1.281,3.754-3.138,7.112-7.109,8.526a17.562,17.562,0,0,1-5.723,1.037q-33.6.1-67.2.037c-8.175-.009-12.93-4.846-12.94-13.055q-.014-11.673,0-23.346c.013-8.162,4.831-12.96,13.035-12.963q32.685-.013,65.37,0c8.6,0,11.347,1.833,14.563,9.718ZM421.64,351.621c-4.026,0-6.032.62-7.071,2.82a12.085,12.085,0,0,0-.105,9.787c1.586,4.1,12.4,4.069,13.846,0a16.3,16.3,0,0,0,.851-5.1c.1-5.534-1.949-7.509-7.521-7.514" transform="translate(-278.169 -236.552)"/>
    <path id="Path_7967" data-name="Path 7967" d="M195.839,201.266H193.23c-21.925,0-43.85-.033-65.774.018-8.544.02-15.062,3.736-18.661,11.569a23.789,23.789,0,0,0-1.908,9.007c-.253,8.248-.117,16.508-.08,24.764a19.949,19.949,0,0,0,20.309,20.315c12.925.067,25.85.016,38.774.016h29.894c.042.888.1,1.548.1,2.207q.009,14.515,0,29.03c-.018,8.251-4.744,13.008-12.951,13.01q-84.959.013-169.917,0C4.807,311.2.005,306.4,0,298.222Q0,234.376,0,170.53c0-7.892,4.865-12.76,12.792-12.761q85.263-.012,170.526,0c7.283,0,12.3,4.335,12.456,11.317.23,10.615.06,21.239.06,32.178" transform="translate(0 -111.637)" fill="#173a8d"/>
    <path id="Path_7968" data-name="Path 7968" d="M357.283,76.818H261.8l-.071-.221c.8-.261,1.585-.557,2.393-.778q37.038-10.111,74.08-20.206c7.724-2.106,13.541,1.161,15.714,8.858,1.135,4.02,2.2,8.06,3.364,12.347" transform="translate(-185.208 -38.909)" fill="#b1b8cf"/>
    <path id="Path_7969" data-name="Path 7969" d="M223.726,15.3c-4.974,1.372-9.707,2.688-14.446,3.982-22.216,6.069-44.4,12.246-66.678,18.091-3.822,1-8.016.587-12.039.826l-.152-.53c.466-.285.913-.609,1.4-.851q35.494-17.608,71-35.2c7.023-3.474,13.46-1.282,16.98,5.707,1.3,2.574,2.554,5.168,3.936,7.969" transform="translate(-92.282 0)" fill="#b1b8cf"/>
  </g>
</svg>
