<svg id="Group_5191" data-name="Group 5191" xmlns="http://www.w3.org/2000/svg" xmlns:xlink="http://www.w3.org/1999/xlink" width="67" height="69.875" viewBox="0 0 67 69.875">
  <defs>
    <clipPath id="clip-path">
      <rect id="Rectangle_2756" data-name="Rectangle 2756" width="67" height="69.875" fill="#5f5e5e"/>
    </clipPath>
  </defs>
  <g id="Group_5190" data-name="Group 5190" clip-path="url(#clip-path)">
    <path id="Path_8001" data-name="Path 8001" d="M34.181,0a8.015,8.015,0,0,1,4.5,2.627c1,1.029,2.071,1.981,3.08,3a2.52,2.52,0,0,0,2.357.741c1.727-.276,3.458-.535,5.194-.749C53.1,5.15,55.858,7.215,56.533,11c.3,1.677.592,3.356.862,5.037a2.541,2.541,0,0,0,1.451,2c1.58.8,3.142,1.639,4.7,2.484a6.094,6.094,0,0,1,2.732,8.419c-.752,1.579-1.512,3.154-2.309,4.71a2.636,2.636,0,0,0,.01,2.595c.77,1.493,1.49,3.013,2.225,4.524a6.133,6.133,0,0,1-2.8,8.659c-1.5.8-2.995,1.627-4.517,2.389a2.63,2.63,0,0,0-1.507,2.112c-.276,1.75-.568,3.5-.921,5.234a6.108,6.108,0,0,1-7.373,5.075c-1.728-.272-3.463-.5-5.194-.752a2.3,2.3,0,0,0-2.048.689q-1.948,1.911-3.923,3.8a6.091,6.091,0,0,1-8.85,0c-1.267-1.209-2.538-2.414-3.772-3.657a2.608,2.608,0,0,0-2.47-.787c-1.725.289-3.458.539-5.2.741-3.825.444-6.559-1.667-7.191-5.5-.274-1.658-.578-3.312-.85-4.97a2.5,2.5,0,0,0-1.42-1.947c-1.558-.794-3.1-1.626-4.638-2.453a6.126,6.126,0,0,1-2.77-8.566C1.5,39.32,2.209,37.8,2.988,36.309A2.705,2.705,0,0,0,3,33.593C2.2,32.063,1.463,30.5.721,28.944a6.1,6.1,0,0,1,2.731-8.422c1.537-.835,3.074-1.671,4.639-2.451A2.667,2.667,0,0,0,9.623,15.9c.266-1.728.56-3.454.908-5.167a6.116,6.116,0,0,1,7.425-5.087c1.7.275,3.418.5,5.127.744a2.3,2.3,0,0,0,2.053-.675c1.054-1.036,2.152-2.029,3.18-3.09A8.023,8.023,0,0,1,32.816,0ZM50.229,60.32a2.059,2.059,0,0,0,2.245-1.74c.292-1.54.626-3.077.805-4.631a6.99,6.99,0,0,1,4.286-6c1.383-.629,2.7-1.4,4.04-2.123a2.107,2.107,0,0,0,1.025-3.176c-.773-1.594-1.544-3.188-2.335-4.773a6.23,6.23,0,0,1,.01-5.889c.755-1.5,1.481-3.016,2.22-4.526.837-1.71.545-2.625-1.12-3.509-1.5-.8-3-1.606-4.516-2.392a6.289,6.289,0,0,1-3.461-4.847c-.287-1.771-.605-3.537-.936-5.3A2.068,2.068,0,0,0,49.937,9.59c-1.731.249-3.465.484-5.193.757a6.423,6.423,0,0,1-5.9-1.927c-1.2-1.212-2.444-2.379-3.672-3.562a2.1,2.1,0,0,0-3.339-.01q-1.941,1.869-3.874,3.747a6,6,0,0,1-5.149,1.8q-2.8-.364-5.6-.778a2.118,2.118,0,0,0-2.73,1.917c-.276,1.45-.6,2.9-.757,4.362A7.013,7.013,0,0,1,9.4,21.949c-1.383.628-2.7,1.4-4.041,2.121A2.1,2.1,0,0,0,4.35,27.2c.771,1.594,1.54,3.191,2.336,4.772a6.249,6.249,0,0,1-.008,5.949c-.779,1.54-1.519,3.1-2.274,4.651-.745,1.533-.425,2.495,1.1,3.3s3.041,1.633,4.575,2.425a6.31,6.31,0,0,1,3.5,4.9c.278,1.749.6,3.493.924,5.233a2.09,2.09,0,0,0,2.661,1.842c1.73-.261,3.463-.494,5.194-.752a6.468,6.468,0,0,1,5.824,1.965c1.205,1.206,2.445,2.379,3.674,3.561a2.092,2.092,0,0,0,3.289.006c1.229-1.182,2.477-2.346,3.672-3.563a6.524,6.524,0,0,1,6.157-1.924c1.789.312,3.6.519,5.261.753" transform="translate(0)" fill="#5f5e5e"/>
    <path id="Path_8002" data-name="Path 8002" d="M137.089,116.928c-.182.4-.34.821-.556,1.206a2.82,2.82,0,0,1-.506.55Q123.1,131.609,110.18,144.535a2.481,2.481,0,0,1-1.672.943,2,2,0,0,1-1.68-3.251,5.414,5.414,0,0,1,.464-.5q12.972-12.974,25.944-25.949a2.4,2.4,0,0,1,1.761-.9,2.174,2.174,0,0,1,2.092,2.048" transform="translate(-88.185 -95.243)" fill="#5f5e5e"/>
    <path id="Path_8003" data-name="Path 8003" d="M113.027,113.05a7.383,7.383,0,1,1,7.408-7.332,7.365,7.365,0,0,1-7.408,7.332m.054-10.71a3.344,3.344,0,0,0-3.382,3.292,3.352,3.352,0,1,0,6.7.055,3.337,3.337,0,0,0-3.322-3.347" transform="translate(-87.615 -81.483)" fill="#5f5e5e"/>
    <path id="Path_8004" data-name="Path 8004" d="M207.326,224.157a7.381,7.381,0,1,1-7.374,7.361,7.357,7.357,0,0,1,7.374-7.361m.027,10.706a3.343,3.343,0,0,0,3.335-3.34,3.352,3.352,0,1,0-6.7.042,3.328,3.328,0,0,0,3.369,3.3" transform="translate(-165.773 -185.841)" fill="#5f5e5e"/>
  </g>
</svg>
