<svg id="Group_2300" data-name="Group 2300" xmlns="http://www.w3.org/2000/svg" xmlns:xlink="http://www.w3.org/1999/xlink" width="67.128" height="67.109" viewBox="0 0 67.128 67.109">
  <defs>
    <clipPath id="clip-path">
      <rect id="Rectangle_1428" data-name="Rectangle 1428" width="67.128" height="67.109" fill="#244593"/>
    </clipPath>
  </defs>
  <g id="Group_2242" data-name="Group 2242" clip-path="url(#clip-path)">
    <path id="Path_4459" data-name="Path 4459" d="M67.09,28.113c.2-1.65-.376-2.4-1.817-2.411-1.625-.008-3.251.008-4.877-.014-.216,0-.561-.116-.625-.27-.679-1.634-1.312-3.286-1.974-4.973,1.209-1.207,2.456-2.443,3.695-3.689,1.114-1.121.947-2.029-.527-3.2A46.737,46.737,0,0,1,53.607,6.2c-1.226-1.523-2.04-1.71-3.176-.584s-2.276,2.248-3.386,3.4a.7.7,0,0,1-.948.149c-1.312-.587-2.636-1.155-3.983-1.655-.474-.176-.657-.365-.647-.875.032-1.573.017-3.146.01-4.72C41.47.585,40.938.014,39.641.01q-6.056-.019-12.113,0c-1.275,0-1.8.551-1.806,1.84-.011,1.573-.024,3.147.009,4.72.012.562-.159.794-.767.991a21.361,21.361,0,0,0-3.628,1.5c-.583.316-.866.275-1.246-.116-1.1-1.129-2.219-2.231-3.342-3.332-1.258-1.233-2.208-.852-3.654,1.164a26.913,26.913,0,0,1-6.334,6.34C4.772,14.519,4.4,15.5,5.634,16.74c1.117,1.125,2.231,2.253,3.372,3.353a.856.856,0,0,1,.187.967c-.608,1.36-1.165,2.743-1.706,4.131a.655.655,0,0,1-.721.52c-1.625-.025-3.251-.015-4.877-.008-1.439.006-2,.687-1.872,2.285A82.687,82.687,0,0,1,.009,39.2c-.09,1.567.474,2.218,1.926,2.223,1.6.005,3.2-.009,4.8.013.218,0,.567.107.63.258.68,1.633,1.315,3.286,1.985,4.989-1.206,1.2-2.455,2.433-3.695,3.677-1.171,1.175-.936,2.089.716,3.338a34.227,34.227,0,0,1,7.018,6.961c1.234,1.68,2.154,1.966,3.292.866,1.169-1.13,2.334-2.264,3.478-3.418a.708.708,0,0,1,.948-.17c1.335.6,2.688,1.162,4.058,1.677.443.166.614.346.605.828-.03,1.573-.014,3.146-.011,4.72,0,1.679.678,2.084,2.72,1.906A54.651,54.651,0,0,1,38.6,67.06c2.1.207,2.821-.2,2.832-1.9.01-1.573-.018-3.147.023-4.719A.99.99,0,0,1,41.9,59.7c2-.887,4.029-1.722,6.167-2.624-.114-.071-.037-.041.016.012q2.724,2.719,5.439,5.446a.913.913,0,0,1,.349-.26c-1.472-3.031-10.187-14-15.6-19.363a2.686,2.686,0,0,0-1.57-.7c-2.09-.154-4.189-.168-6.282-.29a1.768,1.768,0,0,1-1.128-.486c-1.281-1.454-2.5-2.962-3.737-4.456-.155-.188-.277-.4-.415-.6l.087-.092c.511.3,1.03.582,1.531.9a5.349,5.349,0,0,0,6.2-.2,7.631,7.631,0,0,0,3.5-5.706,5.137,5.137,0,0,0-2.314-4.717,25.942,25.942,0,0,1-2.112-1.645c.643.052,1.291.065,1.927.162a13.623,13.623,0,0,1,6.32,2.6,3.014,3.014,0,0,1,1.221,2.178c.27,2.289.6,4.571.963,6.846a2.366,2.366,0,0,0,.636,1.212c5.227,5.225,15.487,13.432,19.2,15.615a1.183,1.183,0,0,1,.111-.76q-2.417-2.4-4.839-4.792a.675.675,0,0,1-.135-.936c.767-1.66,1.5-3.336,2.186-5.032a.755.755,0,0,1,.857-.56c1.6.021,3.2.014,4.8.006,1.4-.007,1.974-.718,1.823-2.292a51.5,51.5,0,0,1-.015-11.046m-3.112,10.2H59.26c-1.5,0-1.8.287-2.279,1.724-.577,1.726-1.258,3.417-1.893,5.123l-.3.041c-.5-.522-.991-1.051-1.5-1.564-.9-.914-1.786-1.852-2.736-2.714a2.224,2.224,0,0,1-.248-.262.928.928,0,0,1-.34-.321,15.13,15.13,0,0,1-.529-.634.928.928,0,0,1-.388-.379.95.95,0,0,1-.2-.235.924.924,0,0,1-.074-.06.936.936,0,0,1-.38-.358.947.947,0,0,1-.176-.2.967.967,0,0,1-.114-.117,5.778,5.778,0,0,0-.4-.407.917.917,0,0,1-.387-.319c-1.047-.9-1.979-1.782-2.051-3.353-.077-1.668-.465-3.32-.635-4.987A5.852,5.852,0,0,0,42.2,25.146a16.486,16.486,0,0,0-6.982-3.073,12.315,12.315,0,0,0-6.59.315,8.368,8.368,0,0,0-1.224.526,1.569,1.569,0,0,0-.084,2.911c1.534.955,3.082,1.889,4.585,2.891,1.756,1.171,1.978,2.262.831,4.04a6.37,6.37,0,0,1-1.39,1.578,2.446,2.446,0,0,1-3.056.172c-1.39-.889-2.827-1.7-4.251-2.536s-2.615-.161-2.638,1.517c-.042,3.026-.073,3.051,1.784,5.418,1.341,1.71,2.764,3.357,4.18,5.006a3.273,3.273,0,0,0,2.848,1.15c1.906-.084,3.823.076,5.735.151a1.019,1.019,0,0,1,.554.222c.545.436,1.075.889,1.608,1.34a.917.917,0,0,1,.414.359.936.936,0,0,1,.518.5,22.026,22.026,0,0,1,.7.837.877.877,0,0,1,.058.073.986.986,0,0,1,.2.283,4.7,4.7,0,0,0,.521.595.965.965,0,0,1,.111.146.948.948,0,0,1,.427.482c.024.022.047.044.071.069,1.453,1.511,2.936,2.993,4.451,4.529a22.216,22.216,0,0,1-5.068,2.214c-.274.087-.556.148-.831.234a1.6,1.6,0,0,0-1.329,1.776c-.008,1.677,0,3.353,0,5.1h-9.56c0-1.642,0-3.237,0-4.831,0-1.415-.307-1.667-1.66-2.153-1.915-.687-3.8-1.476-5.652-2.316-1.18-.535-1.666-.543-2.585.379-1.128,1.133-2.248,2.273-3.339,3.379L8.836,51.616c.971-.965,2.062-2.045,3.149-3.13,1.183-1.18,1.139-1.514.419-3.022-.876-1.835-1.626-3.736-2.338-5.642-.421-1.127-.78-1.5-1.969-1.507-1.623-.005-3.247,0-4.928,0v-9.5H7.815c1.528,0,1.784-.291,2.3-1.7.7-1.911,1.493-3.793,2.349-5.64.565-1.219.583-1.664-.393-2.636-1.113-1.109-2.235-2.208-3.3-3.263l6.819-6.746C16.647,9.9,17.8,11.082,18.969,12.25c.828.828,1.329.815,2.388.337q2.959-1.337,6-2.5c1.114-.426,1.483-.781,1.491-1.988.009-1.363,0-2.727,0-4.091,0-.28.024-.559.039-.878H38.3c.016.258.043.507.044.757,0,1.495-.007,2.99.007,4.484a1.477,1.477,0,0,0,1.215,1.606A26.385,26.385,0,0,1,46,12.643a1.5,1.5,0,0,0,2.061-.322c1.207-1.2,2.394-2.419,3.534-3.574l6.826,6.838c-1.065,1.032-2.234,2.148-3.384,3.283-.985.972-.957,1.4-.388,2.636.864,1.872,1.655,3.782,2.371,5.715.467,1.26.776,1.592,2.143,1.595,1.592,0,3.184,0,4.816,0Z" transform="translate(0 0)" fill="#244593"/>
    <path id="Path_4460" data-name="Path 4460" d="M229.26,226.083c1.243-.938,1.286-1.889.151-3.026-1.28-1.283-2.577-2.551-3.847-3.844-.169-.172-.367-.518-.316-.671.036-.107.073-.214.11-.321a1.213,1.213,0,0,1-.634-.379c-.042-.045-.087-.09-.134-.136a4.1,4.1,0,0,0-1.447-.357,6.958,6.958,0,0,1-1.127-.126c-.044.116-.085.233-.129.349-.461,1.2-.434,1.665.644,2.741,1.256,1.254,2.517,2.5,3.808,3.787l-6.258,6.294-3.732-3.71c-1.132-1.125-1.572-1.216-2.758-.725-.307,1.387-.953,2.7-1.28,4.1.636-.207,1.269-.42,1.9-.642a.856.856,0,0,1,1.047.3c1.251,1.271,2.52,2.524,3.791,3.776,1.115,1.1,2.034,1.076,2.951-.085a40.361,40.361,0,0,1,7.265-7.33" transform="translate(-167.693 -171.574)" fill="#244593"/>
  </g>
</svg>
