<svg id="Group_3470" data-name="Group 3470" xmlns="http://www.w3.org/2000/svg" xmlns:xlink="http://www.w3.org/1999/xlink" width="44.976" height="45" viewBox="0 0 44.976 45">
  <defs>
    <clipPath id="clip-path">
      <rect id="Rectangle_2072" data-name="Rectangle 2072" width="44.976" height="45" fill="#707070"/>
    </clipPath>
  </defs>
  <g id="Group_3456" data-name="Group 3456" clip-path="url(#clip-path)">
    <path id="Path_6724" data-name="Path 6724" d="M4.826,26.656c-.532-.046-1.017-.048-1.486-.136A4.133,4.133,0,0,1,.982,19.793c.1-.123.216-.24.329-.354q9.077-9.08,18.161-18.151A5.213,5.213,0,0,1,20.7.388a4.31,4.31,0,0,1,4.625.671c.646.679,1.328,1.325,1.991,1.988q8.145,8.146,16.282,16.3a4.489,4.489,0,0,1,1.021,1.408,4.111,4.111,0,0,1-3.65,5.85c-.245.01-.49,0-.781,0,0,.221,0,.393,0,.565,0,4.295.007,8.589,0,12.884a4.8,4.8,0,0,1-3.752,4.793,5.881,5.881,0,0,1-1.306.131c-2.227.013-4.455.006-6.682.006-1.117,0-1.615-.493-1.615-1.6q0-5.035,0-10.07a2.241,2.241,0,0,0-2.483-2.469c-1.26,0-2.52,0-3.78,0a2.214,2.214,0,0,0-2.386,2.387q-.006,5.057,0,10.113c0,1.149-.485,1.637-1.624,1.637-2.2,0-4.4-.048-6.594.012a4.989,4.989,0,0,1-5.159-5.17c.076-4.205.019-8.413.019-12.62v-.552M29.473,42.348h5.565a2.246,2.246,0,0,0,2.517-2.519q0-7.168,0-14.336a1.363,1.363,0,0,1,1.52-1.521c.6,0,1.2.007,1.8,0a1.486,1.486,0,0,0,1.473-1.206,1.758,1.758,0,0,0-.7-1.656q-8.913-8.9-17.815-17.813a1.594,1.594,0,0,0-2.666.008L5.288,19.192c-.725.726-1.455,1.447-2.176,2.177a1.507,1.507,0,0,0,1.08,2.6H5.82c1.164,0,1.645.487,1.645,1.663q0,7.168,0,14.336a2.213,2.213,0,0,0,2.392,2.377q2.616,0,5.232,0c.141,0,.282-.015.456-.024,0-.208,0-.381,0-.554,0-2.976-.025-5.952.019-8.927a4.673,4.673,0,0,1,4.249-4.557c1.793-.12,3.6-.025,5.4-.02a2,2,0,0,1,.433.067,4.8,4.8,0,0,1,3.819,4.784c.018,2.888,0,5.775,0,8.663v.57" transform="translate(0 0)" fill="#707070"/>
  </g>
</svg>
