<svg id="Group_3457" data-name="Group 3457" xmlns="http://www.w3.org/2000/svg" xmlns:xlink="http://www.w3.org/1999/xlink" width="57.969" height="58" viewBox="0 0 57.969 58">
  <defs>
    <clipPath id="clip-path">
      <rect id="Rectangle_2072" data-name="Rectangle 2072" width="57.969" height="58" fill="#173a8d"/>
    </clipPath>
  </defs>
  <g id="Group_3456" data-name="Group 3456" clip-path="url(#clip-path)">
    <path id="Path_6724" data-name="Path 6724" d="M6.221,34.357c-.686-.06-1.311-.062-1.915-.175A5.327,5.327,0,0,1,1.266,25.51c.134-.158.278-.309.425-.456q11.7-11.7,23.408-23.4A6.719,6.719,0,0,1,26.686.5a5.556,5.556,0,0,1,5.962.864c.833.875,1.711,1.708,2.566,2.563q10.5,10.5,20.985,21.01a5.786,5.786,0,0,1,1.317,1.815,5.3,5.3,0,0,1-4.7,7.54c-.316.013-.632,0-1.007,0,0,.285,0,.507,0,.728,0,5.535.009,11.07,0,16.606a6.192,6.192,0,0,1-4.835,6.178,7.578,7.578,0,0,1-1.683.169c-2.871.016-5.742.008-8.613.007-1.439,0-2.082-.635-2.082-2.062q0-6.489,0-12.979a2.888,2.888,0,0,0-3.2-3.182c-1.624,0-3.248-.006-4.871,0a2.854,2.854,0,0,0-3.075,3.077q-.008,6.518,0,13.035c0,1.481-.625,2.109-2.093,2.11-2.833,0-5.668-.062-8.5.015A6.43,6.43,0,0,1,6.2,51.334c.1-5.42.025-10.843.025-16.265v-.712M37.987,54.582H45.16A2.9,2.9,0,0,0,48.4,51.334q0-9.239,0-18.477a1.756,1.756,0,0,1,1.959-1.96c.774,0,1.549.009,2.323,0a1.915,1.915,0,0,0,1.9-1.554,2.266,2.266,0,0,0-.9-2.134Q42.2,15.732,30.728,4.246c-1.233-1.233-2.2-1.23-3.436.011L6.816,24.736c-.935.935-1.875,1.865-2.8,2.806A1.942,1.942,0,0,0,5.4,30.9H7.5c1.5,0,2.12.627,2.12,2.143q0,9.239,0,18.477a2.852,2.852,0,0,0,3.083,3.064q3.372,0,6.743,0c.181,0,.363-.019.588-.031,0-.268,0-.491,0-.715,0-3.835-.032-7.671.025-11.505a6.023,6.023,0,0,1,5.477-5.874c2.311-.155,4.641-.032,6.962-.025a2.583,2.583,0,0,1,.558.087,6.191,6.191,0,0,1,4.922,6.166c.023,3.722.006,7.444.006,11.166v.734" transform="translate(0 0)" fill="#173a8d"/>
  </g>
</svg>
