<svg xmlns="http://www.w3.org/2000/svg" width="141.441" height="205.117" viewBox="0 0 141.441 205.117">
  <g id="Group_5175" data-name="Group 5175" transform="translate(-29.28 30.474)">
    <g id="Group_5176" data-name="Group 5176">
      <path id="Path_7974" data-name="Path 7974" d="M131.726,10.466c2.687-.41,4.829-.843,6.993-1.038a4.987,4.987,0,0,0,4.446-3.184c.9-1.971,1.966-3.867,3.19-6.245,1.144,2.212,2.182,4.064,3.073,5.983a5.233,5.233,0,0,0,4.782,3.455c2.13.123,4.239.614,6.829,1.015-1.831,1.72-3.3,3.191-4.866,4.545a4.988,4.988,0,0,0-1.8,5.383c.485,2.021.721,4.1,1.143,6.609-2.387-1.175-4.476-2.11-6.473-3.213a4.958,4.958,0,0,0-5.257-.024c-2.014,1.131-4.127,2.085-6.558,3.3.433-2.558.713-4.7,1.178-6.809a4.826,4.826,0,0,0-1.58-5.015c-1.6-1.449-3.164-2.947-5.1-4.757" transform="translate(-46.385 -20)" fill="#b1b8cf"/>
      <path id="Path_7975" data-name="Path 7975" d="M59.377,68.955c.437-2.59.673-4.671,1.159-6.692a5.023,5.023,0,0,0-1.8-5.39c-1.558-1.361-3.029-2.821-4.837-4.517,2.752-.415,5.029-.82,7.322-1.086a4.655,4.655,0,0,0,3.93-2.8c1.01-2.08,2.1-4.124,3.385-6.64,1.18,2.313,2.223,4.183,3.1,6.127a5.193,5.193,0,0,0,4.833,3.375c2.082.122,4.143.6,6.661.993-1.718,1.642-3.148,3.122-4.7,4.46a5.113,5.113,0,0,0-1.88,5.582c.5,2.008.707,4.091,1.112,6.547-2.273-1.145-4.24-2.041-6.111-3.1a5.429,5.429,0,0,0-5.925-.032c-1.859,1.1-3.851,1.969-6.252,3.175" transform="translate(-18.98 -34.731)" fill="#b1b8cf"/>
      <path id="Path_7976" data-name="Path 7976" d="M224.25,41.9c1.224,2.364,2.319,4.3,3.245,6.32a4.921,4.921,0,0,0,4.484,3.11c2.158.172,4.294.623,6.884,1.02-1.8,1.712-3.312,3.235-4.917,4.652a4.912,4.912,0,0,0-1.725,5.186c.475,2.093.741,4.233,1.162,6.733-2.444-1.215-4.551-2.193-6.589-3.3a4.838,4.838,0,0,0-5.042-.008c-2.03,1.125-4.147,2.092-6.653,3.34.444-2.587.758-4.777,1.208-6.939a4.733,4.733,0,0,0-1.532-4.807c-1.6-1.469-3.177-2.972-5.132-4.807,2.613-.409,4.839-.849,7.086-1.081a4.881,4.881,0,0,0,4.258-3.074c.937-2.018,2.028-3.964,3.263-6.347" transform="translate(-73.822 -34.755)" fill="#b1b8cf"/>
      <path id="Path_7977" data-name="Path 7977" d="M14.624,107.728c1.255,2.424,2.341,4.376,3.287,6.394a4.817,4.817,0,0,0,4.269,3.042c2.225.2,4.428.64,7.079,1.042-1.832,1.74-3.351,3.264-4.959,4.687a4.9,4.9,0,0,0-1.674,5.2c.47,2.028.726,4.107,1.16,6.659a36.1,36.1,0,0,1-4.475-2.22c-3.187-2.191-6.218-2.132-9.382.039A37.245,37.245,0,0,1,5.5,134.789c.422-2.5.684-4.641,1.162-6.73a4.927,4.927,0,0,0-1.7-5.2C3.391,121.478,1.9,120.017,0,118.242a55.564,55.564,0,0,0,7.384-1.205,7.527,7.527,0,0,0,3.717-2.6,53.361,53.361,0,0,0,3.523-6.7" transform="translate(44.03 -138.177)" fill="#b1b8cf"/>
      <path id="Path_7970" data-name="Path 7970" d="M212.25,172.656V293.791H70.809V172.633H121.2V176c0,15.087.034,30.174-.028,45.262-.013,2.977.465,5.586,3.644,6.6,3.061.975,4.9-.9,6.565-3.161,3.229-4.393,6.556-8.717,10.087-13.4,3.556,4.718,6.933,9.125,10.222,13.6,1.611,2.192,3.464,3.866,6.359,2.975,3-.924,3.71-3.323,3.7-6.24-.053-16.244-.025-32.487-.025-48.98ZM171.9,243.32c-4.749,0-9.5-.031-14.242.009-4.162.036-6.03,1.852-6.048,5.962q-.058,14.241,0,28.483c.016,4.158,1.855,6.035,5.959,6.053q14.244.061,28.486,0c4.148-.015,6.035-1.863,6.051-5.965q.062-14.241,0-28.484c-.015-4.154-1.86-6.008-5.965-6.049-4.747-.046-9.494-.011-14.241-.011" transform="translate(-41.529 -119.148)" fill="#173a8d"/>
      <path id="Path_7971" data-name="Path 7971" d="M75.843,156.561c4.419-6.636,8.523-12.85,12.715-19a2.858,2.858,0,0,1,2.03-1.073c11.677-.065,23.354-.047,35.5-.047-1.136,6.876-2.223,13.453-3.324,20.124Z" transform="translate(-42.306 -113.568)" fill="#173a8d"/>
      <path id="Path_7972" data-name="Path 7972" d="M176.761,156.476c-1.1-6.547-2.189-13.064-3.327-19.858,1.163-.075,2.065-.184,2.966-.185,10.429-.012,20.86.045,31.287-.054a4.182,4.182,0,0,1,4.063,2.183c3.8,5.907,7.752,11.717,11.88,17.914Z" transform="translate(-57.348 -113.56)" fill="#173a8d"/>
      <path id="Path_7973" data-name="Path 7973" d="M162.431,207.5c-2.008-2.657-3.574-4.77-5.183-6.85-3.074-3.974-6.4-3.932-9.505.109-1.588,2.066-3.148,4.154-5.117,6.758v-34.97h19.8Z" transform="translate(-52.598 -119.134)"/>
      <path id="Path_7978" data-name="Path 7978" d="M263.451,118.246a54.91,54.91,0,0,0,7.436-1.191,7.521,7.521,0,0,0,3.7-2.626,52.994,52.994,0,0,0,3.489-6.635c1.112,2.131,2.143,3.892,2.97,5.743,1.013,2.269,2.488,3.605,5.12,3.721a64.277,64.277,0,0,1,6.6.984c-1.754,1.65-3.149,3.08-4.668,4.363a5.2,5.2,0,0,0-1.948,5.784c.5,1.93.687,3.945,1.095,6.426-2.165-1.085-4.047-1.892-5.789-2.932a5.811,5.811,0,0,0-6.576-.04c-1.766,1.079-3.693,1.892-5.909,3,.406-2.47.609-4.553,1.113-6.56a5.125,5.125,0,0,0-1.857-5.594c-1.516-1.307-2.937-2.724-4.778-4.447" transform="translate(-136.742 -138.268)" fill="#b1b8cf"/>
      <path id="Path_7979" data-name="Path 7979" d="M158.533,136.757l3.3,19.8h-18.3c1.08-6.59,2.143-13.073,3.246-19.8Z" transform="translate(-52.739 -113.618)"/>
      <rect id="Rectangle_2750" data-name="Rectangle 2750" width="19.883" height="19.868" transform="translate(120.411 134.449)"/>
    </g>
  </g>
</svg>
