<svg id="Group_4262" data-name="Group 4262" xmlns="http://www.w3.org/2000/svg" xmlns:xlink="http://www.w3.org/1999/xlink" width="50" height="57.002" viewBox="0 0 50 57.002">
  <defs>
    <clipPath id="clip-path">
      <rect id="Rectangle_2396" data-name="Rectangle 2396" width="50" height="57.002" fill="#173a8d"/>
    </clipPath>
  </defs>
  <g id="Group_4261" data-name="Group 4261" clip-path="url(#clip-path)">
    <path id="Path_7366" data-name="Path 7366" d="M67.668,0c1.263.256,2.553.42,3.783.785A17.884,17.884,0,0,1,81.556,8.308a17.937,17.937,0,0,1,2.983,10.83,17.406,17.406,0,0,1-2.709,8.8Q74.867,38.862,67.84,49.747c-.585.911-1.214,1.289-2,1a2.507,2.507,0,0,1-1.164-.93q-5.159-7.963-10.255-15.966c-1.444-2.259-2.975-4.471-4.281-6.808A18.293,18.293,0,0,1,64.41.093,2.629,2.629,0,0,0,64.779,0ZM66.224,26.664A8.332,8.332,0,1,0,57.89,18.32a8.391,8.391,0,0,0,8.334,8.344" transform="translate(-41.216)" fill="#173a8d"/>
    <path id="Path_7367" data-name="Path 7367" d="M25.023,294.3a60.562,60.562,0,0,1-14.981-2.02,20.183,20.183,0,0,1-7.647-3.647,6.163,6.163,0,0,1-2.262-3.338,4.961,4.961,0,0,1,1.321-4.6,13.706,13.706,0,0,1,5.708-3.611c1.417-.522,2.888-.9,4.325-1.369a.548.548,0,0,1,.755.292q3.98,6.246,7.985,12.477a5.539,5.539,0,0,0,9.555,0c2.635-4.132,5.285-8.255,7.911-12.393a.7.7,0,0,1,.929-.363,28.375,28.375,0,0,1,7.12,2.713,10.215,10.215,0,0,1,3.292,2.845,4.96,4.96,0,0,1-.41,6.369,13.942,13.942,0,0,1-5.136,3.4,38.891,38.891,0,0,1-11.055,2.669c-2.463.256-4.939.386-7.409.573" transform="translate(0 -237.294)" fill="#173a8d"/>
  </g>
</svg>
