<svg xmlns="http://www.w3.org/2000/svg" width="36.762" height="48.023" viewBox="0 0 36.762 48.023">
  <g id="Group_3473" data-name="Group 3473" transform="translate(1.464 1.442)">
    <g id="Group_3474" data-name="Group 3474" transform="translate(0.058 0.058)">
      <path id="Path_6730" data-name="Path 6730" d="M19.03,1c.892.147,1.8.251,2.673.448a17.02,17.02,0,0,1,12.8,13.61A20.746,20.746,0,0,1,33.04,26.226a45.853,45.853,0,0,1-7.009,11.65,67.573,67.573,0,0,1-6.939,7.512,1.487,1.487,0,0,1-2.4,0A62.009,62.009,0,0,1,4.679,30.348a28.881,28.881,0,0,1-3.448-9.563A17.014,17.014,0,0,1,15.015,1.257c.574-.1,1.153-.172,1.73-.257Zm-.861,26.24a9.376,9.376,0,1,0-9.652-9.091v.024a9.4,9.4,0,0,0,9.652,9.067" transform="translate(-1 -1)" fill="none" stroke="#707070" stroke-miterlimit="10" stroke-width="3"/>
    </g>
  </g>
</svg>
