<svg xmlns="http://www.w3.org/2000/svg" width="57.087" height="59" viewBox="0 0 57.087 59">
  <g id="Group_903" data-name="Group 903" transform="translate(0 0)">
    <g id="Group_904" data-name="Group 904" transform="translate(0 0)">
      <path id="Path_641" data-name="Path 641" d="M57.087,71.884A28.516,28.516,0,0,1,.93,78.9c-2.515-10.355.119-19.533,7.291-27.425.228-.251.463-.494.7-.741a2.039,2.039,0,0,1,2.951-.147,2.008,2.008,0,0,1-.033,2.984A25.052,25.052,0,0,0,4.827,65.9,24.385,24.385,0,0,0,17.844,93.826,23.576,23.576,0,0,0,30.354,96.22,24.106,24.106,0,0,0,51.864,79.171c2.75-9.358.606-17.708-5.919-24.956a2.736,2.736,0,0,1-.959-1.659,2.007,2.007,0,0,1,1.19-2.05,1.983,1.983,0,0,1,2.326.48,29.617,29.617,0,0,1,8.585,20.9" transform="translate(0 -41.393)"/>
      <path id="Path_642" data-name="Path 642" d="M160.4,17.626q0,7.717,0,15.433a2.063,2.063,0,0,1-1.775,2.055,2.086,2.086,0,0,1-2.283-1.486,2.6,2.6,0,0,1-.071-.7q0-15.368,0-30.737a2.07,2.07,0,1,1,4.133,0q0,7.717,0,15.433" transform="translate(-129.771 0.001)" fill="#173a8d"/>
    </g>
  </g>
</svg>
