<svg xmlns="http://www.w3.org/2000/svg" width="15.969" height="15.969" viewBox="0 0 15.969 15.969">
  <path id="language_FILL0_wght400_GRAD0_opsz48" d="M11.984,19.969a7.824,7.824,0,0,1-3.134-.629,8.063,8.063,0,0,1-2.535-1.707,7.9,7.9,0,0,1-1.7-2.545A8.006,8.006,0,0,1,4,11.944a7.861,7.861,0,0,1,.619-3.124A7.956,7.956,0,0,1,6.315,6.3,7.793,7.793,0,0,1,8.851,4.609,8.046,8.046,0,0,1,11.984,4a8.046,8.046,0,0,1,3.134.609A7.793,7.793,0,0,1,17.653,6.3a7.955,7.955,0,0,1,1.7,2.525,7.861,7.861,0,0,1,.619,3.124,8.006,8.006,0,0,1-.619,3.144,7.9,7.9,0,0,1-1.7,2.545,8.063,8.063,0,0,1-2.535,1.707A7.824,7.824,0,0,1,11.984,19.969Zm0-1.158a6.644,6.644,0,0,0,1.168-1.647,9.914,9.914,0,0,0,.768-2.206H10.068a10.123,10.123,0,0,0,.749,2.156A6.8,6.8,0,0,0,11.984,18.811Zm-1.7-.24a9.543,9.543,0,0,1-.858-1.637,11.958,11.958,0,0,1-.6-1.976H5.836a7.159,7.159,0,0,0,1.757,2.226A8.77,8.77,0,0,0,10.288,18.571Zm3.413-.02a7.992,7.992,0,0,0,2.585-1.377,7.149,7.149,0,0,0,1.846-2.216H15.158a14.46,14.46,0,0,1-.609,1.956,9.06,9.06,0,0,1-.848,1.637ZM5.437,13.761H8.611q-.06-.539-.07-.968t-.01-.848q0-.5.02-.888t.08-.868H5.437a5.82,5.82,0,0,0-.19.858,7,7,0,0,0-.05.9,7.734,7.734,0,0,0,.05.928,5.627,5.627,0,0,0,.19.888Zm4.411,0H14.14q.08-.619.1-1.008t.02-.808q0-.4-.02-.768t-.1-.988H9.849q-.08.619-.1.988t-.02.768q0,.419.02.808t.1,1.008Zm5.489,0h3.194a5.627,5.627,0,0,0,.19-.888,7.734,7.734,0,0,0,.05-.928,7,7,0,0,0-.05-.9,5.821,5.821,0,0,0-.19-.858H15.358q.06.7.08,1.068t.02.689q0,.439-.03.828t-.09.988Zm-.2-4.771h2.994a6.467,6.467,0,0,0-1.806-2.3,6.883,6.883,0,0,0-2.645-1.3,8.7,8.7,0,0,1,.848,1.6,12.982,12.982,0,0,1,.609,2Zm-5.07,0h3.872A7.785,7.785,0,0,0,13.2,6.944,8.166,8.166,0,0,0,11.984,5.2a4.389,4.389,0,0,0-1.078,1.417,12.888,12.888,0,0,0-.838,2.375Zm-4.232,0H8.851a11.235,11.235,0,0,1,.559-1.926,9.477,9.477,0,0,1,.858-1.647A6.585,6.585,0,0,0,5.836,8.99Z" transform="translate(-4 -4)" fill="#173a8d"/>
</svg>
