<svg xmlns="http://www.w3.org/2000/svg" width="50" height="65.625" viewBox="0 0 50 65.625">
  <path id="lock_FILL1_wght400_GRAD0_opsz48" d="M12.688,67.625A4.668,4.668,0,0,1,8,62.938V29.031a4.668,4.668,0,0,1,4.688-4.687h5.469v-7.5A14.31,14.31,0,0,1,22.492,6.336,14.31,14.31,0,0,1,33,2,14.31,14.31,0,0,1,43.508,6.336a14.31,14.31,0,0,1,4.336,10.508v7.5h5.469A4.668,4.668,0,0,1,58,29.031V62.938a4.668,4.668,0,0,1-4.687,4.688ZM33,52a5.866,5.866,0,0,0,4.258-1.719,5.582,5.582,0,0,0,1.758-4.141,6.15,6.15,0,0,0-1.758-4.258,5.693,5.693,0,0,0-8.516,0,6.15,6.15,0,0,0-1.758,4.258,5.582,5.582,0,0,0,1.758,4.141A5.866,5.866,0,0,0,33,52ZM22.844,24.344H43.156v-7.5a9.79,9.79,0,0,0-2.969-7.187,10.185,10.185,0,0,0-14.375,0,9.79,9.79,0,0,0-2.969,7.188Z" transform="translate(-8 -2)" fill="#173a8d"/>
</svg>
