<svg id="Group_4298" data-name="Group 4298" xmlns="http://www.w3.org/2000/svg" xmlns:xlink="http://www.w3.org/1999/xlink" width="50" height="49.971" viewBox="0 0 50 49.971">
  <defs>
    <clipPath id="clip-path">
      <rect id="Rectangle_2403" data-name="Rectangle 2403" width="50" height="49.971" fill="#173a8d"/>
    </clipPath>
  </defs>
  <g id="Group_4297" data-name="Group 4297" clip-path="url(#clip-path)">
    <path id="Path_7374" data-name="Path 7374" d="M46.593,250.53c.8,0,1.5-.01,2.2,0,.829.014,1.19.354,1.2,1.171q.024,2.225,0,4.451c-.01.783-.372,1.116-1.165,1.149-.156.006-.312,0-.468,0H1.622a6.585,6.585,0,0,1-.7-.022.891.891,0,0,1-.9-.9c-.026-1.639-.031-3.279,0-4.918.011-.6.409-.908,1.064-.926.738-.02,1.476,0,2.308,0,0-.535,0-1.014,0-1.494,0-.722-.016-1.445.011-2.167A1.023,1.023,0,0,1,4.529,245.8c.136-.005.273,0,.41,0H45.053c1.268,0,1.54.273,1.541,1.548,0,1.031,0,2.062,0,3.185" transform="translate(0 -207.336)" fill="#173a8d"/>
    <path id="Path_7375" data-name="Path 7375" d="M38.409,19.236H17.559c-.215,0-.43.005-.644-.009a.945.945,0,0,1-.976-1.011c-.015-1.269,0-2.538-.009-3.807a1.227,1.227,0,0,1,.749-1.089Q24.33,8.564,31.975,3.8c1.887-1.175,3.781-2.339,5.658-3.531A1.317,1.317,0,0,1,39.2.253Q49.669,6.789,60.155,13.3a1.413,1.413,0,0,1,.775,1.379c-.041,1.014-.011,2.03-.011,3.046,0,1.284-.235,1.515-1.544,1.515H38.409m0-3.729a4.123,4.123,0,1,0-4.1-4.123,4.083,4.083,0,0,0,4.1,4.123" transform="translate(-13.437 -0.001)" fill="#173a8d"/>
    <rect id="Rectangle_2400" data-name="Rectangle 2400" width="7.37" height="15.197" transform="translate(21.305 21.252)" fill="#173a8d"/>
    <rect id="Rectangle_2401" data-name="Rectangle 2401" width="7.329" height="15.174" transform="translate(7.085 21.266)" fill="#173a8d"/>
    <rect id="Rectangle_2402" data-name="Rectangle 2402" width="7.328" height="15.199" transform="translate(35.556 21.251)" fill="#173a8d"/>
  </g>
</svg>
