<svg id="Group_2281" data-name="Group 2281" xmlns="http://www.w3.org/2000/svg" xmlns:xlink="http://www.w3.org/1999/xlink" width="58.972" height="59" viewBox="0 0 58.972 59">
  <defs>
    <clipPath id="clip-path">
      <rect id="Rectangle_1442" data-name="Rectangle 1442" width="58.972" height="59" fill="none"/>
    </clipPath>
  </defs>
  <g id="Group_2280" data-name="Group 2280" clip-path="url(#clip-path)">
    <path id="Path_4500" data-name="Path 4500" d="M13.018,59a16.057,16.057,0,0,1-2.4-.9,6.8,6.8,0,0,1-3.609-5.481c-.02-.191-.042-.382-.068-.572a.206.206,0,0,0-.033-.075,20.837,20.837,0,0,1-2.326-.357A6.244,6.244,0,0,1,.01,45.677q-.021-3.512,0-7.024a3.991,3.991,0,0,1,3.9-3.959l.115,0c.647-.02,1.421.17,1.9-.122.461-.28.623-1.059.909-1.622C8.1,30.473,9.365,28,10.607,25.519a1.959,1.959,0,0,1,1.964-1.2c1.991.034,3.983.01,6.077.01l-.7-.988A27.04,27.04,0,0,1,13.268,11.07c-.209-1.593-.28-3.206-.35-4.813-.058-1.341.638-2.015,1.992-2.017a20.059,20.059,0,0,0,6.925-1.2A20.035,20.035,0,0,0,26.55.559,1.827,1.827,0,0,1,29.158.537,19.632,19.632,0,0,0,40.735,4.221a1.824,1.824,0,0,1,2.1,2.117A29.79,29.79,0,0,1,38.12,22.787c-.18.272-.371.536-.56.8-.176.247-.355.493-.505.7.4.348.8.644,1.141.991,3.026,3.053,6.038,6.119,9.072,9.164a2.549,2.549,0,0,0,1,.6c2,.637,4.025,1.226,6.034,1.85a6.226,6.226,0,0,1,4.566,4.976.84.84,0,0,0,.1.2v8.524a2,2,0,0,1-2.176,1.3c-1.146-.054-2.3-.012-3.445-.012h-1.2c-.033.268-.058.455-.078.643a6.907,6.907,0,0,1-4.6,6.042c-.454.183-.938.292-1.408.435H44.115a2.357,2.357,0,0,0-.321-.112,7.006,7.006,0,0,1-4.91-3.548,7.127,7.127,0,0,1-.89-3.428H21.11c-.015.134-.032.244-.039.355a7.1,7.1,0,0,1-4.723,6.342c-.447.159-.914.262-1.371.39Zm1.039-31.164c-.519-.163-.747.026-.954.439-1.438,2.878-2.917,5.736-4.355,8.615A2,2,0,0,1,6.7,38.155a22.257,22.257,0,0,0-2.531.014c-.241.016-.655.285-.666.458-.063,1.022-.031,2.051-.031,3.1.628,0,1.184,0,1.74,0a1.728,1.728,0,1,1-.022,3.45c-.57,0-1.139,0-1.7,0a2.862,2.862,0,0,0,2.3,3.178,14.006,14.006,0,0,0,1.548.064.864.864,0,0,0,.886-.444,7.008,7.008,0,0,1,11.606.012.875.875,0,0,0,.833.434q8.865-.018,17.73,0a.92.92,0,0,0,.88-.458,6.94,6.94,0,0,1,10.973-.709,2.855,2.855,0,0,0,2.743,1.171c.829-.072,1.67-.014,2.492-.014V45.04c-.71,0-1.38.01-2.05,0a1.757,1.757,0,0,1-1.614-.923,1.727,1.727,0,0,1,1.55-2.565c.539-.027,1.081,0,1.727,0a3.025,3.025,0,0,0-1.77-1.324c-1.905-.573-3.8-1.183-5.717-1.712a9.1,9.1,0,0,0-2.36-.345c-7.81-.025-15.619-.015-23.429-.015-1.976,0-3.953,0-5.929,0a1.716,1.716,0,0,1-1.829-1.838q-.006-3.6,0-7.2V27.836M39.4,7.7c-.276-.043-.368-.064-.46-.071a22.778,22.778,0,0,1-10.593-3.47.78.78,0,0,0-.971.007A22.5,22.5,0,0,1,16.956,7.617c-.446.033-.528.2-.5.606a26.523,26.523,0,0,0,1.995,8.871A20.669,20.669,0,0,0,27.274,27.24a.877.877,0,0,0,1.091.035c1.185-.876,2.47-1.637,3.563-2.614a21.635,21.635,0,0,0,6.761-12.142c.322-1.569.473-3.174.71-4.817M17.537,34.661h25c-.176-.2-.291-.338-.418-.467-1.833-1.856-3.694-3.685-5.485-5.581a2.384,2.384,0,0,0-2.036-.857,2.944,2.944,0,0,0-1.607.565c-1.356.925-2.773,1.764-4.184,2.606a1.769,1.769,0,0,1-1.866,0,33.077,33.077,0,0,1-3.773-2.284,3.9,3.9,0,0,0-2.831-.878c-.927.062-1.862.013-2.8.013ZM48.624,52.005A3.534,3.534,0,0,0,45.1,48.39a3.59,3.59,0,0,0-3.623,3.544,3.639,3.639,0,0,0,3.58,3.61,3.585,3.585,0,0,0,3.568-3.539M14.03,48.39a3.53,3.53,0,0,0-3.57,3.568,3.582,3.582,0,0,0,3.577,3.585A3.629,3.629,0,0,0,17.6,51.982,3.583,3.583,0,0,0,14.03,48.39" transform="translate(0 0)" fill="#1a1818"/>
    <path id="Path_4501" data-name="Path 4501" d="M112.087,5.044A19.632,19.632,0,0,1,100.51,1.359a1.827,1.827,0,0,0-2.608.022,20.023,20.023,0,0,1-4.714,2.48,20.051,20.051,0,0,1-6.925,1.2c-1.354,0-2.05.677-1.992,2.017.069,1.607.141,3.221.35,4.813A27.042,27.042,0,0,0,89.3,24.165l.418.593a.707.707,0,0,1,.23.3.713.713,0,0,1,.14.174.7.7,0,0,1,.16.206A34.507,34.507,0,0,1,92.7,28.049a.688.688,0,0,1,.122.139l.012.014a3.391,3.391,0,0,0,.438.347.68.68,0,0,1,.261.258.668.668,0,0,1,.268.2,4.611,4.611,0,0,1,.718.459,33.076,33.076,0,0,0,3.773,2.284,1.769,1.769,0,0,0,1.866,0c1.053-.629,2.1-1.261,3.135-1.924a25.414,25.414,0,0,1,.69-.552.669.669,0,0,1,.084-.049.708.708,0,0,1,.095-.1.669.669,0,0,1,.22-.183h0a.69.69,0,0,1,.21-.239.71.71,0,0,1,.165-.213.78.78,0,0,1,.226-.266c.72-.54,1.43-1.091,2.119-1.668a24.1,24.1,0,0,1,.547-.492.686.686,0,0,1,.235-.246.692.692,0,0,1,.225-.271.741.741,0,0,1,.153-.239.714.714,0,0,1,.208-.277c.137-.189.291-.4.444-.617.189-.266.38-.53.56-.8a29.789,29.789,0,0,0,4.711-16.449,1.824,1.824,0,0,0-2.1-2.117m-2.046,8.3a21.633,21.633,0,0,1-6.761,12.142c-1.093.977-2.377,1.738-3.563,2.614a.877.877,0,0,1-1.091-.035A20.667,20.667,0,0,1,89.8,17.916,26.523,26.523,0,0,1,87.8,9.045c-.024-.407.058-.573.5-.606A22.5,22.5,0,0,0,98.727,4.991a.78.78,0,0,1,.971-.007,22.779,22.779,0,0,0,10.593,3.469c.093.007.185.028.46.071-.237,1.643-.388,3.248-.71,4.817" transform="translate(-71.302 -0.696)" fill="#173a8d"/>
    <path id="Path_4502" data-name="Path 4502" d="M152.987,71.772c1.291-1.3,2.509-2.545,3.756-3.764a1.718,1.718,0,0,1,2.925.747,1.645,1.645,0,0,1-.459,1.689q-2.465,2.5-4.961,4.961a1.7,1.7,0,0,1-2.516,0q-1.154-1.123-2.278-2.276a1.736,1.736,0,1,1,2.447-2.46c.36.342.7.709,1.086,1.107" transform="translate(-125.992 -57.083)" fill="#173a8d"/>
  </g>
</svg>
