<svg id="Group_5401" data-name="Group 5401" xmlns="http://www.w3.org/2000/svg" xmlns:xlink="http://www.w3.org/1999/xlink" width="49.685" height="77" viewBox="0 0 49.685 77">
  <defs>
    <clipPath id="clip-path">
      <rect id="Rectangle_2492" data-name="Rectangle 2492" width="49.685" height="77" fill="#fff"/>
    </clipPath>
  </defs>
  <g id="Group_4519" data-name="Group 4519" clip-path="url(#clip-path)">
    <path id="Path_7474" data-name="Path 7474" d="M17.173,21.037c-1.889-3.673-3.784-7.123-5.438-10.685a14.653,14.653,0,0,1-1.159-4.716c-.185-1.937,1-3.018,2.945-2.825a20.483,20.483,0,0,1,3.656.841c2.73.8,5.422,1.729,8.17,2.453a5.7,5.7,0,0,0,5.681-1.532A19.539,19.539,0,0,1,37.63.294c1.711-.656,2.524-.247,2.3,1.581a42.736,42.736,0,0,1-1.608,7.581A38.684,38.684,0,0,1,33,20.373c-.581.812-.1,1.221.275,1.732a111.249,111.249,0,0,1,11.988,20.32c2.451,5.5,4.39,11.162,4.422,17.286.038,7.219-3.428,12.305-10.122,14.98a34.384,34.384,0,0,1-11.3,2.214c-5.887.27-11.747.075-17.387-1.934-7.714-2.748-11.5-8.8-10.8-16.981.612-7.168,3.273-13.649,6.467-19.956a118.266,118.266,0,0,1,10.624-17M14.778,49.124v3.918l-1.9.186V56.02l1.994.13c0,2.241.031,4.414-.016,6.586-.018.822.242,1.147,1.074,1.08.69-.055,1.389-.011,2.192-.011v-7.71c2.655,0,5.2-.021,7.745.03.276.006.61.382.8.664,1.4,2.04,2.761,4.1,4.158,6.146.223.326.541.783.853.815,1.017.1,2.051.039,3.194.039V56.162L36.816,56V53.191l-1.863-.144V49.125l1.853-.116V46.23l-1.984-.157V38.551H31.594v7.6c-2.451,0-4.792.047-7.129-.037a2.18,2.18,0,0,1-1.5-.786c-1.417-1.974-2.713-4.034-4.091-6.038a1.766,1.766,0,0,0-.994-.785,27.023,27.023,0,0,0-3.022-.037V46.1l-1.986.1V49l1.9.123" transform="translate(0 0)" fill="#fff"/>
    <path id="Path_7475" data-name="Path 7475" d="M52.953,163.108l-1.9-.123v-2.8l1.986-.1v-7.635a27.024,27.024,0,0,1,3.022.037,1.765,1.765,0,0,1,.994.785c1.378,2,2.674,4.063,4.091,6.038a2.181,2.181,0,0,0,1.5.786c2.337.083,4.678.036,7.129.036v-7.6H73v7.522l1.984.157v2.78l-1.853.116v3.922l1.863.144v2.812l-1.943.159v7.627c-1.142,0-2.177.065-3.194-.039-.312-.032-.631-.489-.853-.815-1.4-2.041-2.758-4.107-4.158-6.146-.194-.282-.528-.659-.8-.664-2.544-.051-5.09-.03-7.745-.03v7.71c-.8,0-1.5-.044-2.192.011-.832.067-1.092-.258-1.074-1.08.047-2.172.016-4.345.016-6.586L51.051,170v-2.793l1.9-.186Zm10.836,0c2.051,3.924,2.834,4.423,5.921,3.835v-3.835Zm-7.447.07v3.841h5.879c-1.854-3.825-2.576-4.3-5.879-3.841m1.423-3.037L56.32,158v2.052l1.444.086M69.748,172.2v-2.056H68.383l1.365,2.056" transform="translate(-38.176 -113.984)" fill="#173a8d"/>
    <path id="Path_7476" data-name="Path 7476" d="M101.557,194.788h5.921v3.835c-3.088.588-3.87.089-5.921-3.835" transform="translate(-75.944 -145.661)" fill="#fff"/>
    <path id="Path_7477" data-name="Path 7477" d="M72.03,194.64c3.3-.457,4.025.016,5.879,3.841H72.03Z" transform="translate(-53.864 -145.443)" fill="#fff"/>
    <path id="Path_7478" data-name="Path 7478" d="M73.387,176.681l-1.444-.086v-2.052l1.444,2.138" transform="translate(-53.799 -130.522)" fill="#fff"/>
    <path id="Path_7479" data-name="Path 7479" d="M121.137,224.742l-1.365-2.056h1.365Z" transform="translate(-89.565 -166.523)" fill="#fff"/>
  </g>
</svg>
