<svg xmlns="http://www.w3.org/2000/svg" width="58.988" height="59" viewBox="0 0 58.988 59">
  <g id="Group_2633" data-name="Group 2633" transform="translate(0)">
    <g id="Group_2290" data-name="Group 2290">
      <path id="Path_4507" data-name="Path 4507" d="M58.988,14.4c-.078.146-.159.291-.234.439A2.326,2.326,0,0,1,56.267,16.1a2.284,2.284,0,0,1-1.876-2.117,4.818,4.818,0,0,0-1.882-3.834,4.561,4.561,0,0,0-2.617-.915c-1.013-.042-2.028-.009-3.119-.009,0,.726,0,1.428,0,2.131a2.307,2.307,0,1,1-4.6-.015c0-.687,0-1.374,0-2.095H31.681c0,.746,0,1.47,0,2.194a2.3,2.3,0,1,1-4.6-.012c-.005-.709,0-1.418,0-2.172H16.7c0,.691,0,1.393,0,2.1a2.307,2.307,0,1,1-4.6-.009c0-.688,0-1.375,0-2.139-1.708.094-3.413-.282-4.993.561a4.587,4.587,0,0,0-2.494,4.344c-.017,3.475,0,6.949,0,10.424q0,12.44,0,24.88a4.494,4.494,0,0,0,2.6,4.437,6.042,6.042,0,0,0,2.384.5c3.09.056,6.181.018,9.272.026a2.3,2.3,0,0,1,.572,4.536,3.1,3.1,0,0,1-.741.062c-3.148,0-6.3.011-9.445,0a9.181,9.181,0,0,1-9.246-9.24q-.016-17.94,0-35.879a9.186,9.186,0,0,1,9.237-9.25c.921,0,1.842,0,2.856,0,0-.544.04-1.076-.008-1.6A2.658,2.658,0,0,1,13.827,0h1.152a2.658,2.658,0,0,1,1.734,3.01c-.048.524-.008,1.055-.008,1.57H27.078c0-.217,0-.4,0-.592,0-.576-.007-1.152,0-1.727A2.47,2.47,0,0,1,28.8,0h1.152a2.658,2.658,0,0,1,1.734,3.01c-.048.524-.008,1.055-.008,1.57H42.169V3.988c0-.576-.007-1.152,0-1.727A2.47,2.47,0,0,1,43.9,0h1.152a2.657,2.657,0,0,1,1.734,3.009c-.048.524-.008,1.055-.008,1.6,1.108,0,2.126-.032,3.141.006a8.963,8.963,0,0,1,8.1,5.144,18.954,18.954,0,0,1,.968,2.911Z" transform="translate(0)" fill="#1a1818"/>
      <path id="Path_4508" data-name="Path 4508" d="M175.1,145.639a8.288,8.288,0,0,1-1.355,3.19,6.781,6.781,0,0,1-5.482,2.794c-1.5.022-2.995.011-4.492,0a2.3,2.3,0,1,1,.017-4.6c1.075-.007,2.15,0,3.225-.005a1.967,1.967,0,0,0,.228-.046c-.449-.5-.839-.986-1.278-1.42a15.025,15.025,0,0,0-25.337,7.689,15.1,15.1,0,0,0,21.731,16.283,4.4,4.4,0,0,1,1.564-.489,2.15,2.15,0,0,1,2.2,1.588,2.2,2.2,0,0,1-.906,2.573,16.338,16.338,0,0,1-4.648,1.936,19.306,19.306,0,0,1-16.063-2.616,18.717,18.717,0,0,1-8.2-11.605A19.636,19.636,0,0,1,170.13,143.23a3.846,3.846,0,0,1,.23.315l.137-.059c0-1.14-.016-2.281,0-3.421a2.163,2.163,0,0,1,1.39-2.069,2.138,2.138,0,0,1,2.453.423,6.1,6.1,0,0,1,.757,1.115Z" transform="translate(-116.113 -116.838)" fill="#173a8d"/>
      <path id="Path_4509" data-name="Path 4509" d="M238.957,214.216c0,1.132-.007,2.264,0,3.4a2.219,2.219,0,0,1-.776,1.784c-1.266,1.087-2.529,2.179-3.833,3.219a2.292,2.292,0,0,1-2.985-3.47c.812-.758,1.677-1.462,2.54-2.163a1.1,1.1,0,0,0,.46-.968c-.028-1.726-.016-3.453-.01-5.18a2.3,2.3,0,1,1,4.6-.014c.006,1.132,0,2.264,0,3.4" transform="translate(-197.368 -178.344)" fill="#1a1818"/>
    </g>
  </g>
</svg>
