<svg xmlns="http://www.w3.org/2000/svg" width="73.759" height="40.185" viewBox="0 0 73.759 40.185">
  <g id="Group_6942" data-name="Group 6942" transform="translate(73.759) rotate(90)">
    <g id="Group_5800" data-name="Group 5800" transform="translate(0 0)">
      <path id="Path_6841" data-name="Path 6841" d="M77.046,147.036l3.216,3.193,36.969-36.972L80.439,76.47,77.418,79.6c.225.236.623.671,1.039,1.086q15.759,15.765,31.522,31.526c1.105,1.105,1.1,1.107,0,2.212q-15.464,15.465-30.935,30.924c-.592.591-1.28,1.087-2,1.69" transform="translate(-77.046 -76.47)" fill="#173a8d"/>
      <path id="Path_6842" data-name="Path 6842" d="M132.344,166.86l3.344,3.316,19.072-19.069L135.7,132.061l-3.189,3.28a4.675,4.675,0,0,1,1.014.651c4.714,4.685,9.39,9.407,14.125,14.07.8.784.773,1.223-.01,1.994-4.7,4.637-9.353,9.331-14.04,13.986a6.91,6.91,0,0,1-1.254.818" transform="translate(-132.333 -114.21)" fill="#173a8d"/>
    </g>
  </g>
</svg>
