<svg id="Group_5464" data-name="Group 5464" xmlns="http://www.w3.org/2000/svg" xmlns:xlink="http://www.w3.org/1999/xlink" width="60.58" height="48.12" viewBox="0 0 60.58 48.12">
  <defs>
    <clipPath id="clip-path">
      <rect id="Rectangle_2837" data-name="Rectangle 2837" width="60.58" height="48.12" fill="#173a8d"/>
    </clipPath>
  </defs>
  <g id="Group_5463" data-name="Group 5463" clip-path="url(#clip-path)">
    <path id="Path_8561" data-name="Path 8561" d="M0,83.136V48.006c.588-2.15,2.123-2.993,4.343-2.985,12.675.048,25.351.023,38.027.023h.8c-.229.246-.367.4-.515.55Q39.253,49,35.841,52.408a5.64,5.64,0,0,0-1.846,3.354,20.192,20.192,0,0,0-.051,4.3A5.036,5.036,0,0,0,38.085,64.5a19.13,19.13,0,0,0,2.945.146,6.7,6.7,0,0,0,5.188-2.135c2.805-2.854,5.652-5.667,8.483-8.5.142-.142.3-.27.527-.481v.786c0,9.186-.039,18.373.026,27.559a3.877,3.877,0,0,1-4.114,4.15c-15-.059-30-.029-45.005-.029-.887,0-1.774.013-2.661-.005A3.5,3.5,0,0,1,.2,83.611c-.058-.161-.134-.316-.2-.475m8.173-9.314c0,.233,0,.408,0,.582-.048,2.029-.109,4.058-.141,6.087a1.755,1.755,0,0,0,1.752,1.947,1.8,1.8,0,0,0,1.8-1.921c.075-2.481.171-4.962.235-7.443a.755.755,0,0,1,.529-.785,26.155,26.155,0,0,0,6.262-3.753,15.721,15.721,0,0,0,4.744-5.872,7,7,0,0,0,.59-4.093,6.87,6.87,0,0,0-6.609-5.237,5.775,5.775,0,0,0-4.676,2.6,15.275,15.275,0,0,0-2.693,5.99c-.55,2.413-.932,4.866-1.337,7.31-.088.53-.225.844-.786.962-.885.185-1.752.45-2.633.656A1.845,1.845,0,0,0,3.6,73a1.824,1.824,0,0,0,2.372,1.346c.709-.158,1.414-.333,2.2-.521M28.905,69.5c-.061-.467-.112-.838-.159-1.208a2.682,2.682,0,0,0-4.714-1.507q-2.4,2.727-4.789,5.471a1.787,1.787,0,1,0,2.7,2.326c1-1.138,2-2.284,3-3.425.137-.156.28-.306.5-.547.061.478.1.828.149,1.176a2.69,2.69,0,0,0,4.736,1.481c.5-.53,1-1.054,1.527-1.609.386.542.721,1.05,1.092,1.529a2.567,2.567,0,0,0,2.881.992c2.164-.586,4.319-1.209,6.473-1.833a2.052,2.052,0,0,0,.72-.387,1.765,1.765,0,0,0-1.568-3.053c-1.841.5-3.675,1.028-5.506,1.563a.572.572,0,0,1-.771-.275c-.308-.5-.66-.98-1.012-1.455A2.657,2.657,0,0,0,30,68.433c-.343.342-.693.677-1.1,1.071" transform="translate(0 -37.906)" fill="#173a8d"/>
    <path id="Path_8562" data-name="Path 8562" d="M248.6,37.126l5.256,5.247c-.1.109-.228.253-.364.389q-5.309,5.311-10.613,10.628a3.189,3.189,0,0,1-2.531,1.036c-.629-.028-1.262.011-1.892-.012a1.786,1.786,0,0,1-1.825-1.842c0-.039,0-.079,0-.118,0-3.5-.2-3.016,2.2-5.416q4.705-4.7,9.406-9.41a3.535,3.535,0,0,0,.36-.5" transform="translate(-199.233 -31.259)" fill="#173a8d"/>
    <path id="Path_8563" data-name="Path 8563" d="M329.9,3.272c.891-.9,1.812-1.865,2.779-2.784A1.71,1.71,0,0,1,335.089.5q1.41,1.342,2.754,2.753A1.681,1.681,0,0,1,337.9,5.61c-.93.985-1.92,1.912-2.845,2.825L329.9,3.272" transform="translate(-277.772 0)" fill="#173a8d"/>
    <path id="Path_8564" data-name="Path 8564" d="M77.876,132.053a29.626,29.626,0,0,1,2.484-9.248,6.322,6.322,0,0,1,.528-.852,2.492,2.492,0,0,1,3.536-.918,2.546,2.546,0,0,1,1.381,3.493,10.585,10.585,0,0,1-1.516,2.574,18.945,18.945,0,0,1-6.413,4.952" transform="translate(-65.57 -101.583)" fill="#173a8d"/>
  </g>
</svg>
