<svg id="Group_5467" data-name="Group 5467" xmlns="http://www.w3.org/2000/svg" xmlns:xlink="http://www.w3.org/1999/xlink" width="50.593" height="40.752" viewBox="0 0 50.593 40.752">
  <defs>
    <clipPath id="clip-path">
      <rect id="Rectangle_2838" data-name="Rectangle 2838" width="50.593" height="40.752" fill="#173a8d"/>
    </clipPath>
  </defs>
  <g id="Group_5466" data-name="Group 5466" clip-path="url(#clip-path)">
    <path id="Path_8563" data-name="Path 8563" d="M242.911,174.074a1.164,1.164,0,0,1-1.089.509q-9.584-.017-19.168-.008c-.844,0-1.087-.244-1.087-1.083,0-.675.011-1.35.005-2.025a3.172,3.172,0,0,1,1.709-2.965c1.061-.587,2.2-1.027,3.3-1.553a16.609,16.609,0,0,0,1.911-1.018,2.612,2.612,0,0,0,.794-.911.961.961,0,0,0-.147-1.172,7.291,7.291,0,0,1-1.356-5.83,4.126,4.126,0,0,1,3.31-3.705c2.847-.611,5.469,1.053,5.646,3.958a8.621,8.621,0,0,1-.733,4.661,5.449,5.449,0,0,1-.57.862,1.126,1.126,0,0,0,.076,1.719,7.074,7.074,0,0,0,1.591,1.055c.956.474,1.973.825,2.924,1.308a7.867,7.867,0,0,1,1.96,1.287,6.576,6.576,0,0,1,.926,1.65Z" transform="translate(-192.317 -133.831)" fill="#173a8d"/>
    <path id="Path_8564" data-name="Path 8564" d="M10.647,174.569H1.113c-.88,0-1.115-.235-1.113-1.106,0-.675.009-1.35.006-2.025a3.146,3.146,0,0,1,1.687-2.926c1.075-.6,2.23-1.043,3.34-1.577A17.347,17.347,0,0,0,6.9,165.94a2.534,2.534,0,0,0,.788-.856,1.013,1.013,0,0,0-.133-1.26,7.322,7.322,0,0,1-1.341-5.835,4.215,4.215,0,0,1,3.865-3.783,4.369,4.369,0,0,1,5.092,4.08,8.879,8.879,0,0,1-.538,4.212,6.559,6.559,0,0,1-.753,1.266,1.168,1.168,0,0,0,.111,1.795,7.286,7.286,0,0,0,1.562,1.013c.867.431,1.778.774,2.66,1.177a12.014,12.014,0,0,1,1.485.775,3.274,3.274,0,0,1,1.64,2.912c0,.725.009,1.449.005,2.174,0,.676-.282.958-.963.958q-4.866,0-9.732,0" transform="translate(0 -133.825)" fill="#173a8d"/>
    <path id="Path_8565" data-name="Path 8565" d="M121.455,20.412H111.97c-.984,0-1.188-.206-1.185-1.184,0-.642.009-1.284.006-1.927a3.172,3.172,0,0,1,1.709-2.963c1-.555,2.079-.98,3.116-1.475.652-.311,1.314-.612,1.929-.985a3.037,3.037,0,0,0,.874-.846,1.006,1.006,0,0,0-.109-1.376,6.163,6.163,0,0,1-1.372-3.733,11.624,11.624,0,0,1,.113-2.41,4.152,4.152,0,0,1,3.742-3.46,4.3,4.3,0,0,1,4.945,2.99c.561,2.437.436,4.814-1.31,6.85a.857.857,0,0,0,.07,1.138,4.171,4.171,0,0,0,1.21,1.048c1.032.541,2.119.974,3.176,1.467a13.738,13.738,0,0,1,1.621.834,3.254,3.254,0,0,1,1.616,2.876c0,.708.007,1.416.006,2.124,0,.772-.255,1.032-1.039,1.033q-4.817,0-9.633,0" transform="translate(-96.16 0.001)" fill="#173a8d"/>
    <path id="Path_8566" data-name="Path 8566" d="M148.083,165.944c0,.724.02,1.449-.008,2.172a.757.757,0,0,0,.4.756c1.642,1.063,3.269,2.15,4.9,3.23a2.561,2.561,0,0,1,.4.287.78.78,0,0,1-.859,1.28,2.557,2.557,0,0,1-.422-.253c-1.618-1.071-3.239-2.136-4.848-3.221a.524.524,0,0,0-.691-.006c-1.638,1.1-3.287,2.184-4.935,3.268a1.669,1.669,0,0,1-.521.264.711.711,0,0,1-.858-.417.74.74,0,0,1,.272-1c.692-.474,1.4-.93,2.095-1.393,1.029-.68,2.05-1.371,3.091-2.032a.767.767,0,0,0,.412-.749c-.021-1.53-.014-3.06-.006-4.591a.8.8,0,0,1,.8-.87.806.806,0,0,1,.773.853c0,.1,0,.2,0,.3v2.123" transform="translate(-121.996 -141.197)" fill="#173a8d"/>
  </g>
</svg>
