<svg id="Group_4265" data-name="Group 4265" xmlns="http://www.w3.org/2000/svg" xmlns:xlink="http://www.w3.org/1999/xlink" width="50" height="49.992" viewBox="0 0 50 49.992">
  <defs>
    <clipPath id="clip-path">
      <rect id="Rectangle_2397" data-name="Rectangle 2397" width="50" height="49.992" fill="#173a8d"/>
    </clipPath>
  </defs>
  <g id="Group_4264" data-name="Group 4264" clip-path="url(#clip-path)">
    <path id="Path_7368" data-name="Path 7368" d="M40.821,49.992H9.18a3.664,3.664,0,0,0-.367-.1A10.068,10.068,0,0,1,.69,43.378,21.278,21.278,0,0,1,0,40.814V9.179A3.685,3.685,0,0,0,.1,8.76,10.28,10.28,0,0,1,8.858.105a13.1,13.1,0,0,1,1.555-.1C20.147,0,29.88-.014,39.613.025A10.838,10.838,0,0,1,42.961.54,10.144,10.144,0,0,1,50,10.438q0,14.548,0,29.1a10.207,10.207,0,0,1-.1,1.6,10.028,10.028,0,0,1-6.455,8.149,20.565,20.565,0,0,1-2.618.707M33.746,38.577c2.04.009,3.486-.521,4.366-2.268a2.566,2.566,0,0,0-.945-3.723c-.874-.533-1.753-1.058-2.632-1.583a2.539,2.539,0,0,0-3.386.271,2.918,2.918,0,0,1-4.2-.182q-4.032-4.011-8.036-8.05a3.528,3.528,0,0,1-.812-1.25,2.9,2.9,0,0,1,.71-3.056,2.315,2.315,0,0,0,.426-2.794c-.642-1.2-1.361-2.366-2.107-3.507a2.153,2.153,0,0,0-2.111-.976,4.153,4.153,0,0,0-3.405,2.809,8.961,8.961,0,0,0,.365,4.841,25.01,25.01,0,0,0,4.513,8.027,35.1,35.1,0,0,0,11.957,9.913,13.642,13.642,0,0,0,5.3,1.529" transform="translate(0 0)" fill="#173a8d"/>
  </g>
</svg>
