<svg xmlns="http://www.w3.org/2000/svg" width="95" height="104.408" viewBox="0 0 95 104.408">
  <g id="Group_4806" data-name="Group 4806" transform="translate(0)">
    <g id="Group_4807" data-name="Group 4807">
      <path id="Path_7633" data-name="Path 7633" d="M54.828,0a9.249,9.249,0,0,1,5.152,3.165,8.127,8.127,0,0,1,1.8,5.07c-.014,2.819,0,5.638,0,8.457H56.312c-.005-2.649,0-5.3-.018-7.949-.016-2.156-1.106-3.259-3.251-3.27-2.581-.014-5.163.028-7.744,0a1.43,1.43,0,0,0-1.565,1.139c-.271.874-.615,1.724-.9,2.594a1.345,1.345,0,0,1-1.445,1.015q-10.5-.017-20.991,0a1.383,1.383,0,0,1-1.483-1.107c-.239-.777-.562-1.53-.78-2.313a1.621,1.621,0,0,0-1.843-1.338c-2.444.059-4.891.016-7.336.02-2.388,0-3.467,1.088-3.467,3.49q0,43.209,0,86.418c0,2.452,1.076,3.517,3.544,3.517q18.6,0,37.194,0c2.378,0,4.755.028,7.133.008a2.817,2.817,0,0,0,2.82-2.062,6.887,6.887,0,0,0,.116-1.619q.017-14.063.019-28.126h5.469c0,9.753.011,19.506-.018,29.259a8.3,8.3,0,0,1-8.122,8.034q-22.529.01-45.058-.012A8.38,8.38,0,0,1,.009,95.806q-.02-43.582,0-87.165A8.409,8.409,0,0,1,6.021.352C6.26.271,6.58.31,6.71,0Z" transform="translate(0)" fill="#365da4"/>
      <path id="Path_7634" data-name="Path 7634" d="M99.862,111.664h-5.47c-.441-.007-.883-.019-1.325-.019q-18.246,0-36.491-.006a4.092,4.092,0,0,1-4.232-4.24c-.007-1.189.014-2.378.022-3.567,6.243.01,12.486.081,18.728,0a5.446,5.446,0,0,0,0-10.885c-6.241-.085-12.485-.007-18.727,0q-.013-13.847-.026-27.695a3.863,3.863,0,0,1,.59-1.922c.953-1.673,2.459-2.1,4.3-2.093,12.387.031,24.774.005,37.162,0h5.469q14.412,0,28.824,0a4.137,4.137,0,0,1,3.828,2.049,4.014,4.014,0,0,1,.566,2.132q0,21.034-.006,42.068a4.026,4.026,0,0,1-4.184,4.164q-13.852.013-27.7-.008c-.441,0-.882.013-1.324.019M69.616,69.433c-2,0-4.008-.006-6.013,0-1.328.006-1.709.381-1.712,1.679q-.009,3.771,0,7.542c0,1.357.37,1.741,1.762,1.746q6.012.02,12.025,0c1.218,0,1.71-.523,1.716-1.763q.018-3.771,0-7.542c-.005-1.215-.447-1.653-1.663-1.66-2.038-.012-4.076,0-6.115,0m46.743,35a2.011,2.011,0,0,0-.072-.442c-1.509-4.029-3.011-8.06-4.549-12.078a1.606,1.606,0,0,0-1.676-1.081A1.683,1.683,0,0,0,108.433,92q-2.291,5.979-4.547,11.971a1.475,1.475,0,0,0,.855,1.914,1.407,1.407,0,0,0,1.912-.862c.36-1.868,1.5-2.246,3.14-1.98a2.5,2.5,0,0,0,.813,0c1.52-.263,2.557.171,2.815,1.844a1.538,1.538,0,0,0,2.039.953,1.344,1.344,0,0,0,.9-1.4M94.953,98.38c0,1.97-.018,3.94.007,5.909a1.52,1.52,0,1,0,3.032.05c.029-.576.007-1.155.007-1.732,0-1.941,0-1.941,1.984-1.971a4.9,4.9,0,1,0-.005-9.8c-1.053-.011-2.105-.007-3.158,0-1.306.007-1.856.539-1.865,1.839-.013,1.9,0,3.8,0,5.705m24.251,3.014c0,1.338-.03,2.255.008,3.17a1.315,1.315,0,0,0,1.446,1.367c.968.025,1.541-.615,1.565-1.836.031-1.56.026-3.121,0-4.682a2.367,2.367,0,0,1,.422-1.422c1.038-1.548,2.063-3.106,3.053-4.685a1.516,1.516,0,1,0-2.538-1.626c-.683,1.011-1.371,2.021-1.99,3.071-.417.709-.664.552-1.021-.028q-.958-1.558-1.987-3.073A1.519,1.519,0,1,0,115.64,93.3c.613.976,1.188,1.984,1.891,2.892,1.3,1.674,2.142,3.444,1.672,5.2M97.589,74.523c0,.406.009.812,0,1.218a1.472,1.472,0,0,0,2.873.49,6.578,6.578,0,0,0-.017-3.5,1.343,1.343,0,0,0-1.576-.989A1.378,1.378,0,0,0,97.59,73.2c0,.44,0,.88,0,1.32m23.446-.026c0,.406.011.813,0,1.218a1.471,1.471,0,0,0,2.862.538,6.3,6.3,0,0,0-.036-3.59,1.33,1.33,0,0,0-1.62-.908,1.37,1.37,0,0,0-1.2,1.422c0,.44,0,.88,0,1.32m-31.6-.069c0,.44-.01.879,0,1.318a1.379,1.379,0,0,0,1.231,1.491,1.363,1.363,0,0,0,1.643-1.021,6.587,6.587,0,0,0-.027-3.494,1.342,1.342,0,0,0-1.582-.976,1.38,1.38,0,0,0-1.268,1.465c0,.406,0,.811,0,1.217m28.955.116h0a12.328,12.328,0,0,0-.01-1.416,1.5,1.5,0,0,0-2.99-.079,16.753,16.753,0,0,0,0,2.83,1.452,1.452,0,0,0,1.623,1.315c.88-.052,1.341-.559,1.379-1.536.014-.371,0-.742,0-1.114m-11.856.012h.007a12.172,12.172,0,0,0-.008-1.323,1.512,1.512,0,1,0-3.015.155q-.029,1.171,0,2.343a1.338,1.338,0,0,0,1.361,1.462,1.487,1.487,0,0,0,1.644-1.315,9.338,9.338,0,0,0,.011-1.322" transform="translate(-38.08 -44.552)" fill="#699ff0"/>
      <path id="Path_7635" data-name="Path 7635" d="M70.96,31.282c-12.387.007-24.774.033-37.162,0-1.838,0-3.344.42-4.3,2.093a3.863,3.863,0,0,0-.59,1.922q.013,13.848.026,27.694,0,5.44,0,10.879c-.008,1.189-.03,2.378-.022,3.567a4.092,4.092,0,0,0,4.231,4.24q18.246.01,36.491.007c.441,0,.883.012,1.325.019q-.007,14.064-.019,28.126a6.916,6.916,0,0,1-.116,1.619,2.817,2.817,0,0,1-2.82,2.062c-2.377.019-4.755-.008-7.133-.008H23.679c-2.469,0-3.544-1.065-3.544-3.517q0-43.209,0-86.418c0-2.4,1.079-3.487,3.468-3.49,2.445,0,4.892.039,7.336-.02A1.621,1.621,0,0,1,32.782,21.4c.218.783.541,1.535.78,2.313a1.382,1.382,0,0,0,1.483,1.107q10.5-.02,20.992,0A1.345,1.345,0,0,0,57.482,23.8c.285-.87.63-1.72.9-2.594a1.431,1.431,0,0,1,1.565-1.139c2.581.026,5.163-.016,7.744,0,2.145.011,3.235,1.113,3.25,3.27.019,2.65.013,5.3.018,7.949M45.622,100.019c2.579,0,5.159-.038,7.737.011a4.478,4.478,0,0,0,4.807-4.548,4.323,4.323,0,0,0-4.555-4.377q-8.091-.154-16.186,0a4.389,4.389,0,0,0-4.467,4.838,4.492,4.492,0,0,0,4.722,4.075q3.971.007,7.941,0" transform="translate(-14.648 -14.591)" fill="#fff"/>
      <path id="Path_7636" data-name="Path 7636" d="M52.431,188.384q0-5.44,0-10.879c6.243-.011,12.486-.089,18.728,0a5.446,5.446,0,0,1,0,10.885c-6.242.079-12.485.008-18.728,0" transform="translate(-38.144 -129.103)" fill="#365da4"/>
      <path id="Path_7637" data-name="Path 7637" d="M95.093,91.3c2.038,0,4.076-.008,6.115,0,1.216.007,1.658.445,1.663,1.66q.018,3.771,0,7.542c-.006,1.24-.5,1.759-1.716,1.763q-6.013.021-12.025,0c-1.391,0-1.759-.389-1.762-1.746q-.007-3.771,0-7.542c0-1.3.384-1.673,1.712-1.679,2-.008,4.008,0,6.013,0" transform="translate(-63.557 -66.418)" fill="#f6e38d" stroke="#f6e38d" stroke-width="1"/>
      <path id="Path_7641" data-name="Path 7641" d="M218.377,102.51c0-.44,0-.88,0-1.32a1.379,1.379,0,0,1,1.277-1.459,1.343,1.343,0,0,1,1.576.989,6.578,6.578,0,0,1,.016,3.5,1.472,1.472,0,0,1-2.872-.49c.011-.406,0-.812,0-1.218" transform="translate(-158.867 -72.539)" fill="#365da4"/>
      <path id="Path_7642" data-name="Path 7642" d="M304.416,102.472c0-.44,0-.88,0-1.32a1.37,1.37,0,0,1,1.2-1.422,1.331,1.331,0,0,1,1.62.908,6.3,6.3,0,0,1,.036,3.59,1.471,1.471,0,0,1-2.862-.538c.013-.405,0-.812,0-1.218" transform="translate(-221.46 -72.527)" fill="#365da4"/>
      <path id="Path_7643" data-name="Path 7643" d="M188.448,102.413c0-.406,0-.811,0-1.217a1.38,1.38,0,0,1,1.268-1.465,1.341,1.341,0,0,1,1.582.976,6.587,6.587,0,0,1,.027,3.494,1.363,1.363,0,0,1-1.644,1.021,1.379,1.379,0,0,1-1.231-1.491c-.012-.439,0-.879,0-1.318" transform="translate(-137.093 -72.537)" fill="#365da4"/>
      <path id="Path_7644" data-name="Path 7644" d="M286.535,102.546c0,.371.012.743,0,1.114-.038.977-.5,1.484-1.379,1.536a1.452,1.452,0,0,1-1.623-1.315,16.726,16.726,0,0,1,0-2.83,1.5,1.5,0,0,1,2.99.079,12.4,12.4,0,0,1,.01,1.416Z" transform="translate(-206.226 -72.554)" fill="#365da4"/>
      <path id="Path_7645" data-name="Path 7645" d="M243.114,102.5a9.341,9.341,0,0,1-.011,1.322,1.487,1.487,0,0,1-1.644,1.315,1.338,1.338,0,0,1-1.361-1.462q-.028-1.171,0-2.343a1.512,1.512,0,1,1,3.015-.155,12.168,12.168,0,0,1,.008,1.323Z" transform="translate(-174.661 -72.495)" fill="#365da4"/>
      <path id="Path_7646" data-name="Path 7646" d="M79.828,289.5q-3.971,0-7.941,0a4.492,4.492,0,0,1-4.722-4.075,4.389,4.389,0,0,1,4.467-4.838q8.091-.143,16.186,0a4.323,4.323,0,0,1,4.555,4.377,4.477,4.477,0,0,1-4.807,4.548c-2.578-.049-5.158-.011-7.737-.011" transform="translate(-48.853 -204.074)" fill="#365da4"/>
      <path id="Path_7647" data-name="Path 7647" d="M260.949,189.911c.419,1.106.776,2.088,1.166,3.057.22.545-.027.622-.5.656-2.346.165-2.374.147-1.5-2.02a4.657,4.657,0,0,1,.828-1.692" transform="translate(-188.852 -138.161)" fill="#80d7e5"/>
      <path id="Path_7648" data-name="Path 7648" d="M219.879,182.874c.03-2.047-.255-1.851,1.248-1.865,1.655-.014,2.609.678,2.613,1.861,0,1.208-.958,1.881-2.7,1.866-1.406-.012-1.127.122-1.156-1.862" transform="translate(-159.959 -131.684)" fill="#80d7e5"/>
    </g>
  </g>
</svg>
