<svg xmlns="http://www.w3.org/2000/svg" xmlns:xlink="http://www.w3.org/1999/xlink" width="40" height="39.915" viewBox="0 0 40 39.915">
  <defs>
    <clipPath id="clip-path">
      <rect id="Rectangle_2737" data-name="Rectangle 2737" width="40" height="39.915" fill="#173a8d"/>
    </clipPath>
  </defs>
  <g id="Group_5143" data-name="Group 5143" clip-path="url(#clip-path)">
    <path id="Path_7965" data-name="Path 7965" d="M0,21.091V18.67c.046-.346.085-.694.14-1.039A1.068,1.068,0,0,1,1.229,16.62a11.51,11.51,0,0,0,1.237-.153,4.316,4.316,0,0,0,3.443-3.552A4.36,4.36,0,0,0,4.605,9a1.134,1.134,0,0,1-.142-1.669A19.834,19.834,0,0,1,7.6,4.241a1.123,1.123,0,0,1,1.526.066c.136.121.262.255.4.368a4.464,4.464,0,0,0,4.139.906,4.25,4.25,0,0,0,3.14-4.016C16.843.352,17.367,0,18.375,0c1.13,0,2.261-.006,3.391.005,1.047.01,1.6.387,1.549,1.561a1.9,1.9,0,0,0,.007.2,4.333,4.333,0,0,0,4.34,4.1,4.58,4.58,0,0,0,3.294-1.372,1.117,1.117,0,0,1,1.61-.12,19.744,19.744,0,0,1,3.1,3.131,1.11,1.11,0,0,1-.042,1.466c-.118.138-.246.269-.369.4a4.385,4.385,0,0,0,1.66,7.007,7.272,7.272,0,0,0,1.633.331c.776.1,1.254.438,1.329,1.08a18.088,18.088,0,0,1-.023,4.477,1.1,1.1,0,0,1-1.066.954c-.272.012-.546.022-.817.047a4.405,4.405,0,0,0-3.936,4.2,4.471,4.471,0,0,0,1.386,3.4,1.117,1.117,0,0,1,.144,1.608,19.413,19.413,0,0,1-3.187,3.147,1.118,1.118,0,0,1-1.466-.058c-.138-.119-.267-.248-.4-.367a4.431,4.431,0,0,0-6.438.622,4.584,4.584,0,0,0-.9,2.688c-.03.893-.41,1.249-1.3,1.324-.231.019-.46.058-.691.089H18.749a4.9,4.9,0,0,0-.57-.082c-1.055-.033-1.545-.462-1.5-1.538a2.228,2.228,0,0,0-.009-.234,4.333,4.333,0,0,0-4.354-4.083,4.55,4.55,0,0,0-3.26,1.355,1.117,1.117,0,0,1-1.608.155A19.661,19.661,0,0,1,4.33,32.332a1.1,1.1,0,0,1-.064-1.311,5.64,5.64,0,0,1,.488-.557,4.409,4.409,0,0,0-3.178-7.339,1.338,1.338,0,0,1-1.5-1.46c-.012-.192-.053-.383-.08-.574m26.175,8.535c-.09-.1-.174-.193-.263-.282-1.518-1.52-3.041-3.035-4.551-4.563a.483.483,0,0,0-.6-.131,6.9,6.9,0,0,1-4.63.08,7.068,7.068,0,0,1-4.668-8.268c.085-.373.183-.713.588-.843s.689.1.957.369c.976.976,1.961,1.942,2.931,2.923a.89.89,0,0,0,.835.3c.679-.113,1.361-.216,2.043-.313a.419.419,0,0,0,.4-.4q.149-1.022.314-2.043a.882.882,0,0,0-.292-.834c-1.022-1-2.03-2.02-3.032-3.043a.776.776,0,0,1,.357-1.382,8.964,8.964,0,0,1,1.853-.229,7.051,7.051,0,0,1,6.559,9.478.485.485,0,0,0,.136.6c1.509,1.492,3.006,3,4.507,4.5.086.086.182.164.277.25a11.52,11.52,0,1,0-3.713,3.833" transform="translate(0 0)" fill="#173a8d"/>
  </g>
</svg>
