<svg id="Group_4813" data-name="Group 4813" xmlns="http://www.w3.org/2000/svg" xmlns:xlink="http://www.w3.org/1999/xlink" width="95" height="90.558" viewBox="0 0 95 90.558">
  <defs>
    <clipPath id="clip-path">
      <rect id="Rectangle_2582" data-name="Rectangle 2582" width="95" height="90.558" fill="none"/>
    </clipPath>
  </defs>
  <g id="Group_4812" data-name="Group 4812" clip-path="url(#clip-path)">
    <path id="Path_7659" data-name="Path 7659" d="M47.486,76.393q-13,6.826-26,13.648c-2.044,1.07-4.133.13-4.4-1.938A7.061,7.061,0,0,1,17.33,86q1.993-11.716,4.015-23.428c.209-1.215.4-2.435.651-3.642a1.492,1.492,0,0,0-.459-1.556Q11.354,47.5,1.2,37.593A12.122,12.122,0,0,1,0,35.982V34.5c.627-1.54,1.894-2,3.43-2.212,9.132-1.281,18.257-2.619,27.387-3.92a1.691,1.691,0,0,0,1.454-1.036Q38.479,14.642,44.745,1.981A2.843,2.843,0,0,1,47.485.015q0,38.189,0,76.378" transform="translate(0 -0.01)" fill="#f2d243"/>
    <path id="Path_7660" data-name="Path 7660" d="M191.6,76.383q0-38.189,0-76.378a2.656,2.656,0,0,1,2.656,1.767q4.05,8.216,8.108,16.427c1.529,3.1,3.067,6.19,4.579,9.3a1.152,1.152,0,0,0,1.014.741c5.487.766,10.969,1.573,16.451,2.379,4.08.6,8.158,1.218,12.238,1.822a2.676,2.676,0,0,1,2.335,1.966,2.741,2.741,0,0,1-.779,2.885c-1.211,1.192-2.444,2.362-3.661,3.548q-8.464,8.252-16.931,16.5a1.484,1.484,0,0,0-.5,1.525c1.056,5.937,2.042,11.887,3.059,17.832q.872,5.1,1.776,10.185a2.911,2.911,0,0,1-1,3.077,2.746,2.746,0,0,1-3.132.216Q204.7,83.282,191.6,76.383" transform="translate(-144.11 0)" fill="#ebbd3d"/>
  </g>
</svg>
