<svg id="Group_3453" data-name="Group 3453" xmlns="http://www.w3.org/2000/svg" xmlns:xlink="http://www.w3.org/1999/xlink" width="65.967" height="58" viewBox="0 0 65.967 58">
  <defs>
    <clipPath id="clip-path">
      <rect id="Rectangle_2070" data-name="Rectangle 2070" width="65.967" height="58" fill="#173a8d"/>
    </clipPath>
  </defs>
  <g id="Group_3452" data-name="Group 3452" clip-path="url(#clip-path)">
    <path id="Path_6723" data-name="Path 6723" d="M65.966,9.291V52.839a.663.663,0,0,0-.081.175A5.872,5.872,0,0,1,59.873,58q-26.893-.025-53.785-.017a6.544,6.544,0,0,1-1.718-.2A5.775,5.775,0,0,1,0,51.786Q0,30.949,0,10.111C0,8.438.7,7.745,2.4,7.745H19.455c0-.663-.007-1.221,0-1.779A5.8,5.8,0,0,1,25.41.021C30.455,0,35.5-.014,40.547.041a6.626,6.626,0,0,1,2.663.6,5.6,5.6,0,0,1,3.3,5.317c.016.59,0,1.181,0,1.789h.876c5.368,0,10.736.021,16.1-.016a2.216,2.216,0,0,1,2.476,1.562M62.1,21.968l-.106-.021c-.054.152-.11.3-.161.455q-1.354,4.055-2.707,8.111A5.843,5.843,0,0,1,53.175,34.8q-4.895.006-9.79,0h-.739c0,.624.005,1.178,0,1.732a1.949,1.949,0,0,1-2.118,2.131q-7.535.01-15.071,0a1.95,1.95,0,0,1-2.135-2.114c-.007-.571,0-1.141,0-1.749h-.787q-4.831,0-9.661,0a5.851,5.851,0,0,1-6.062-4.4Q5.466,26.38,4.12,22.356c-.046-.138-.119-.267-.255-.568v.84q0,14.524,0,29.047c0,1.775.675,2.451,2.445,2.451H59.639c1.783,0,2.462-.671,2.462-2.434q0-14.556,0-29.111Zm-38.78,8.966c0-.6-.007-1.192,0-1.782a1.934,1.934,0,0,1,2.041-2.076q7.632-.015,15.263,0a1.922,1.922,0,0,1,2.018,2.034c.011.594,0,1.187,0,1.826h.71q4.862,0,9.725,0A2.112,2.112,0,0,0,55.5,29.189q2.84-8.507,5.673-17.017c.056-.169.087-.347.128-.517H4.633c.315.948.611,1.84.908,2.733Q8.009,21.8,10.48,29.21c.4,1.2.97,1.712,2.043,1.717,3.563.019,7.126.007,10.8.007M42.646,7.713c0-.508,0-1.033,0-1.558a2,2,0,0,0-2.3-2.275q-4.762,0-9.524,0c-1.823,0-3.646-.009-5.469,0a1.9,1.9,0,0,0-2.008,1.695c-.064.7-.012,1.4-.012,2.135ZM38.753,30.982H27.239v3.784H38.753Z" transform="translate(0 0)" fill="#173a8d"/>
  </g>
</svg>
