<svg xmlns="http://www.w3.org/2000/svg" width="56.389" height="56.403" viewBox="0 0 56.389 56.403">
  <g id="Group_4676" data-name="Group 4676" transform="translate(-0.789)">
    <g id="Group_4677" data-name="Group 4677" transform="translate(0.789 0)">
      <path id="Path_7383" data-name="Path 7383" d="M20.492,3.645c.963.254,2.106.553,3.249.857.712.189,1.425.378,2.134.578a2.2,2.2,0,0,0,2.362-.691C29.356,3.2,30.5,2.044,31.639.873a2.084,2.084,0,0,1,3.405.018c1.106,1.137,2.229,2.259,3.3,3.424a2.339,2.339,0,0,0,2.6.727c1.543-.447,3.1-.838,4.656-1.254a2.065,2.065,0,0,1,2.838,1.624c.43,1.569.865,3.137,1.26,4.715A2.293,2.293,0,0,0,51.53,11.94c1.625.4,3.239.852,4.852,1.3A1.988,1.988,0,0,1,57.9,15.848c-.409,1.6-.811,3.2-1.284,4.778a2.381,2.381,0,0,0,.725,2.652c1.153,1.09,2.257,2.23,3.374,3.356a2.058,2.058,0,0,1,0,3.269c-1.133,1.142-2.257,2.294-3.422,3.4a2.314,2.314,0,0,0-.7,2.539c.445,1.518.833,3.053,1.245,4.581a2.111,2.111,0,0,1-1.719,2.953c-1.553.416-3.1.839-4.662,1.234a2.232,2.232,0,0,0-1.75,1.731q-.637,2.459-1.32,4.907a2,2,0,0,1-2.66,1.529c-1.6-.42-3.2-.824-4.787-1.285a2.328,2.328,0,0,0-2.551.672c-1.113,1.161-2.266,2.284-3.41,3.415a2.08,2.08,0,0,1-3.323-.016c-1.157-1.15-2.323-2.292-3.461-3.46a2.226,2.226,0,0,0-2.377-.641c-1.526.427-3.061.824-4.592,1.237-1.714.462-2.608-.061-3.069-1.793-.4-1.508-.825-3.009-1.206-4.522a2.261,2.261,0,0,0-1.783-1.781c-1.559-.391-3.108-.821-4.662-1.231a2.1,2.1,0,0,1-1.708-2.906c.416-1.55.819-3.1,1.263-4.645A2.288,2.288,0,0,0,9.4,33.337c-1.176-1.13-2.318-2.3-3.469-3.452a2.043,2.043,0,0,1-.015-3.219c1.15-1.157,2.291-2.323,3.469-3.452a2.32,2.32,0,0,0,.673-2.547c-.44-1.5-.817-3.011-1.223-4.517-.447-1.654.111-2.582,1.79-3.015,1.535-.4,3.062-.823,4.6-1.217a2.24,2.24,0,0,0,1.735-1.748Q17.595,7.678,18.29,5.2a2.1,2.1,0,0,1,2.2-1.554m12.8,40.7a16.073,16.073,0,1,0-16.065-16.1,16.12,16.12,0,0,0,16.065,16.1" transform="translate(-5.137 0)" fill="#173a8d"/>
      <path id="Path_7384" data-name="Path 7384" d="M95.206,102.674a12.08,12.08,0,1,1,12.075,12.061,12.085,12.085,0,0,1-12.075-12.061m10.019,3.242c-.456-.493-.842-.925-1.244-1.341s-.819-.824-1.234-1.23a2.011,2.011,0,1,0-2.86,2.823c1.214,1.25,2.461,2.468,3.7,3.7a2.09,2.09,0,0,0,3.37.011q2.947-2.93,5.884-5.869c.648-.647,1.316-1.276,1.935-1.95a1.984,1.984,0,0,0-.051-2.831,2.011,2.011,0,0,0-2.792.005c-.3.268-.574.563-.858.847l-5.846,5.838" transform="translate(-79.092 -74.412)" fill="#173a8d"/>
    </g>
  </g>
</svg>
