<svg id="Group_3471" data-name="Group 3471" xmlns="http://www.w3.org/2000/svg" xmlns:xlink="http://www.w3.org/1999/xlink" width="51.181" height="45" viewBox="0 0 51.181 45">
  <defs>
    <clipPath id="clip-path">
      <rect id="Rectangle_2070" data-name="Rectangle 2070" width="51.181" height="45" fill="#707070"/>
    </clipPath>
  </defs>
  <g id="Group_3452" data-name="Group 3452" clip-path="url(#clip-path)">
    <path id="Path_6723" data-name="Path 6723" d="M51.181,7.208V41a.514.514,0,0,0-.063.136A4.556,4.556,0,0,1,46.453,45q-20.865-.02-41.73-.013a5.077,5.077,0,0,1-1.333-.158A4.481,4.481,0,0,1,0,40.179Q0,24.012,0,7.845c0-1.3.546-1.836,1.863-1.836H15.095c0-.514-.006-.947,0-1.38A4.5,4.5,0,0,1,19.715.017c3.915-.02,7.83-.027,11.744.016A5.141,5.141,0,0,1,33.525.5a4.344,4.344,0,0,1,2.56,4.126c.012.458,0,.917,0,1.388h.68c4.165,0,8.329.016,12.494-.012a1.719,1.719,0,0,1,1.921,1.212m-3,9.836-.083-.016c-.042.118-.086.235-.125.353q-1.05,3.147-2.1,6.293A4.534,4.534,0,0,1,41.257,27q-3.8,0-7.6,0h-.574c0,.484,0,.914,0,1.343A1.512,1.512,0,0,1,31.444,30q-5.846.008-11.693,0a1.513,1.513,0,0,1-1.656-1.64c-.005-.443,0-.886,0-1.357h-.61q-3.748,0-7.5,0a4.539,4.539,0,0,1-4.7-3.41Q4.241,20.467,3.2,17.345c-.036-.107-.092-.207-.2-.44v.652Q3,28.825,3,40.094C3,41.47,3.523,42,4.9,42H46.271c1.384,0,1.91-.521,1.91-1.888q0-11.293,0-22.586ZM18.094,24c0-.467-.006-.925,0-1.383a1.5,1.5,0,0,1,1.583-1.611q5.921-.012,11.842,0a1.492,1.492,0,0,1,1.565,1.578c.009.46,0,.921,0,1.417h.55q3.772,0,7.545,0a1.639,1.639,0,0,0,1.874-1.355q2.2-6.6,4.4-13.2c.044-.131.067-.27.1-.4H3.594c.244.735.474,1.428.7,2.12q1.915,5.75,3.832,11.5c.31.93.752,1.328,1.585,1.332,2.764.015,5.529.006,8.378.006M33.088,5.984c0-.394,0-.8,0-1.209A1.552,1.552,0,0,0,31.307,3.01q-3.694,0-7.389,0c-1.414,0-2.829-.007-4.244,0a1.473,1.473,0,0,0-1.558,1.315c-.049.54-.01,1.088-.01,1.656ZM30.067,24.038H21.133v2.936h8.934Z" transform="translate(0 -0.001)" fill="#707070"/>
  </g>
</svg>
