<svg xmlns="http://www.w3.org/2000/svg" xmlns:xlink="http://www.w3.org/1999/xlink" width="50" height="50" viewBox="0 0 50 50">
  <defs>
    <clipPath id="clip-path">
      <rect id="Rectangle_2078" data-name="Rectangle 2078" width="50" height="50" transform="translate(0.308)" fill="#fff"/>
    </clipPath>
  </defs>
  <g id="Group_3468" data-name="Group 3468" transform="translate(-0.308)">
    <g id="Group_3467" data-name="Group 3467" clip-path="url(#clip-path)">
      <path id="Path_6728" data-name="Path 6728" d="M0,24.76a1.8,1.8,0,0,1,1.963-1.116c.8.052,1.6-.012,2.406.021.394.016.5-.137.532-.494A19.244,19.244,0,0,1,7.86,14.426,20.1,20.1,0,0,1,22.352,5c.129-.02.258-.047.387-.064.89-.116.89-.116.89-1.033,0-.753-.009-1.506,0-2.259a1.511,1.511,0,1,1,3.009.009c.005,1.047,0,2.093,0,3.157.848.133,1.673.238,2.487.394A20.333,20.333,0,0,1,45.113,21.32c.119.642.217,1.291.275,1.942.03.332.161.4.46.4.9-.015,1.8-.006,2.7,0,1.077,0,1.751.572,1.759,1.484.007.932-.672,1.51-1.781,1.512-.884,0-1.768.011-2.652-.005-.315-.006-.455.061-.487.42A20.344,20.344,0,0,1,27.9,45.309c-.1.013-.193.036-.29.05-.965.145-.965.145-.965,1.107,0,.606-.042,1.215.01,1.817a1.832,1.832,0,0,1-1.1,2.026h-.786a1.8,1.8,0,0,1-1.143-1.953c.044-.832,0-1.669.015-2.5.006-.315-.1-.429-.415-.453-.521-.041-1.041-.11-1.556-.2A20.352,20.352,0,0,1,5,28.009c-.06-.446-.121-.891-.185-1.358-.99,0-1.924-.043-2.852.012A1.81,1.81,0,0,1,0,25.546ZM25.116,42.512A17.36,17.36,0,1,0,7.778,25.105,17.387,17.387,0,0,0,25.116,42.512" transform="translate(0 0.001)" fill="#fff"/>
      <path id="Path_6729" data-name="Path 6729" d="M127.639,137.861a10.057,10.057,0,1,1,10.04,10.077,10.053,10.053,0,0,1-10.04-10.077" transform="translate(-112.562 -112.73)" fill="#fff"/>
    </g>
  </g>
</svg>
