<svg xmlns="http://www.w3.org/2000/svg" width="950" height="667.921" viewBox="0 0 950 667.921">
  <g id="Group_5294" data-name="Group 5294" transform="translate(-78.51 -643.654)">
    <path id="Path_8067" data-name="Path 8067" d="M691.287,798.766H105.418c-53.962-92.819-76.65-203.49-63.411-310.047C46.45,452.97,55.1,417,74.247,386.484S124.31,331.4,160,326.495c45.886-6.312,89.161,19.45,133.065,34.211,65.6,22.053,137.952,19.662,204.463.54,72.729-20.911,142.158-61.555,217.792-59.039,68.8,2.287,133.344,42.081,174.022,97.621S948.423,525.05,950.215,593.87,938.075,731.047,919,797.193Z" transform="translate(42 462)" fill="#cbd2ec"/>
    <path id="Path_8068" data-name="Path 8068" d="M822.495,319.78c-21.194-13.67-45.016-23.86-70.075-26.7-8.374-.948-18.213-1.861-22.575-9.072-3.63-6-1.447-14.214,3.423-19.263s11.8-7.537,18.608-9.211c34.559-8.5,71.936.247,102.265,18.867,11.259,6.912,21.815,15.248,29.849,25.739s13.433,23.282,13.688,36.494c.134,6.878-1.172,13.9-4.628,19.849-2.907,5-8.307,11.576-14.611,9.137-6.232-2.411-12.447-11.255-17.38-15.719a301.765,301.765,0,0,0-38.564-30.124" transform="translate(42 462)" fill="#cbd2ec"/>
    <path id="Path_8069" data-name="Path 8069" d="M236.468,849.575h3.525l-55.865-50.909H180.6Z" transform="translate(42 462)" fill="#5a6198"/>
    <path id="Path_8070" data-name="Path 8070" d="M413.977,852.451l-3.156-2.875H236.468l3.156,2.875Z" transform="translate(19 397)" fill="#5a6198"/>
    <path id="Path_8071" data-name="Path 8071" d="M184.125,798.663l44.528,40.583,11.339,10.327H410.814L384.9,825.958l-29.935-27.3Z" transform="translate(42 462)" fill="#6379ed"/>
    <path id="Path_8072" data-name="Path 8072" d="M228.653,839.245l11.341,10.325H410.816l-25.922-23.612c-14.328-3.11-29.626-3.154-44.41-2.919-26.9.44-53.944,1.335-80.374,6.336-10.721,2.024-21.708,5.031-31.461,9.871" transform="translate(19 397)" fill="#6379ed"/>
    <rect id="Rectangle_2781" data-name="Rectangle 2781" width="182.163" height="26.618" transform="translate(247.653 1219.953)" fill="none"/>
    <rect id="Rectangle_2782" data-name="Rectangle 2782" width="182.167" height="26.618" transform="translate(247.649 1219.953)" fill="none"/>
    <rect id="Rectangle_2783" data-name="Rectangle 2783" width="311.314" height="598.492" transform="translate(151.882 645.674)" fill="#333f85"/>
    <rect id="Rectangle_2784" data-name="Rectangle 2784" width="276.994" height="574.901" transform="translate(169.041 669.264)" fill="#1c234f"/>
    <rect id="Rectangle_2785" data-name="Rectangle 2785" width="276.994" height="79.137" transform="translate(169.042 1165.029)" fill="#405157"/>
    <rect id="Rectangle_2786" data-name="Rectangle 2786" width="276.994" height="79.137" transform="translate(169.042 1165.029)" fill="none"/>
    <rect id="Rectangle_2787" data-name="Rectangle 2787" width="276.994" height="79.137" transform="translate(169.042 1165.029)" fill="none"/>
    <path id="Path_8073" data-name="Path 8073" d="M297.29,723.008,126.973,782.164v-574.9l170.318,18.442Z" transform="translate(42 462)" fill="#fff"/>
    <path id="Path_8074" data-name="Path 8074" d="M287.026,296.3V248.871L140.64,236.35v53.53l.761.032Zm-1.592-45.977V294.64l-143.2-6.288v-50.27Z" transform="translate(42 462)" fill="#a4c4ce"/>
    <path id="Path_8075" data-name="Path 8075" d="M140.64,755.947l1.044-.345,145.342-47.883V579.3L140.64,610.682Zm144.794-49.379-143.2,47.179V611.967l143.2-30.7Z" transform="translate(42 462)" fill="#a4c4ce"/>
    <path id="Path_8076" data-name="Path 8076" d="M140.64,559.1l73.283-12.588V316.531l-73.283-1.658Zm71.691-13.929-70.1,12.042V316.5l70.1,1.584Z" transform="translate(42 462)" fill="#a4c4ce"/>
    <path id="Path_8077" data-name="Path 8077" d="M222.62,545.018l64.406-11.062V318.182l-64.406-1.454Zm62.814-12.405-61.222,10.516V318.356l61.222,1.385Z" transform="translate(42 462)" fill="#a4c4ce"/>
    <path id="Path_8078" data-name="Path 8078" d="M192.914,582.778l49.568-9.869V554.052l-49.568,9.126ZM240.892,571.6l-46.385,9.233V564.5l46.385-8.538Z" transform="translate(42 462)" fill="#a4c4ce"/>
    <line id="Line_345" data-name="Line 345" x1="910.597" transform="translate(89.316 1260.244)" fill="none" stroke="#3c4a51" stroke-miterlimit="10" stroke-width="1"/>
    <path id="Path_8079" data-name="Path 8079" d="M584.391,513.434a257.574,257.574,0,0,0-20.186,24.143A291.466,291.466,0,0,0,547.022,564a358.211,358.211,0,0,0-26.243,57.3,521.268,521.268,0,0,0-17.273,60.637q-3.425,15.385-6.226,30.891c-1.839,10.337-3.517,20.7-5.1,31.072l2.9.458c1.7-10.337,3.483-20.654,5.43-30.939,1.9-10.291,3.955-20.552,6.244-30.758a542.457,542.457,0,0,1,16.794-60.388,367.245,367.245,0,0,1,25.1-57.371,293.433,293.433,0,0,1,16.446-26.7,257.223,257.223,0,0,1,19.3-24.77" transform="translate(42 462)" fill="#2a2e42"/>
    <path id="Path_8080" data-name="Path 8080" d="M526.189,440.767c-9.7,23.4-19.4,46.873-26.675,71.2-1.829,6.075-3.491,12.2-4.941,18.378-.757,3.082-1.4,6.191-2.054,9.3-.6,3.116-1.116,6.248-1.678,9.373a351.507,351.507,0,0,0-4.132,37.841c-1.5,25.352-.978,50.744-.869,76.072.038,12.666-.022,25.326-.466,37.964-.5,12.634-1.421,25.241-2.949,37.767l2.911.359c1.421-12.65,2.22-25.346,2.6-38.042.325-12.7.263-25.39.1-38.068-.355-25.35-1.12-50.686.134-75.971a349.645,349.645,0,0,1,3.752-37.745c.53-3.118,1.014-6.244,1.582-9.355.624-3.1,1.231-6.2,1.957-9.285,1.387-6.173,2.987-12.3,4.752-18.378,7.023-24.344,16.5-47.9,25.972-71.4" transform="translate(42 462)" fill="#2a2e42"/>
    <path id="Path_8081" data-name="Path 8081" d="M407.112,518.138c48.887,60.959,73.46,140.57,67.6,218.1l2.925.2c4.935-78.37-20.877-157.966-70.521-218.308" transform="translate(42 462)" fill="#2a2e42"/>
    <path id="Path_8082" data-name="Path 8082" d="M465.179,803.327h49.467a9.07,9.07,0,0,0,9.03-8.213l5.573-58.732H450.576l5.573,58.732a9.07,9.07,0,0,0,9.03,8.213" transform="translate(42 462)" fill="#333f85"/>
    <path id="Path_8083" data-name="Path 8083" d="M452.228,753.775l-1.65-17.392h78.67l-1.65,17.392Z" transform="translate(42 462)" fill="#642525"/>
    <rect id="Rectangle_2789" data-name="Rectangle 2789" width="78.67" height="17.392" transform="translate(492.578 1198.382)" fill="none"/>
    <rect id="Rectangle_2790" data-name="Rectangle 2790" width="78.67" height="17.393" transform="translate(492.578 1198.382)" fill="#1c234f"/>
    <rect id="Rectangle_2791" data-name="Rectangle 2791" width="88.443" height="16.125" transform="translate(487.69 1186.655)" fill="#3040be"/>
    <path id="Path_8084" data-name="Path 8084" d="M396.873,531.007c2.772,5.031,7.187,8.9,11.236,12.995,2.008,2.024,3.945,4.136,5.792,6.306a118.5,118.5,0,0,1,17.968,28.424,116.534,116.534,0,0,1,7.671,23.453c.131.646.263,1.275.394,1.921,2.156,10.986,2.979,22.264,6.219,32.985a67.241,67.241,0,0,0,3.829,9.52c4.092,8.374,10.678,17.569,18.2,15.6a9.382,9.382,0,0,0,2.845-1.247,15.626,15.626,0,0,0,4.722-4.78c4.533-6.968,5.28-17.777,4.664-25.962-.118-1.612-.293-3.108-.5-4.459-1.409-9.253-4.694-18.04-8.2-26.751-1.48-3.7-3.021-7.392-4.459-11.1-2.684-6.922-5.1-13.963-7.685-20.929a197.476,197.476,0,0,0-9.064-21.385,95.2,95.2,0,0,0-9.769-15.487,61.352,61.352,0,0,0-20.576-17.454,26.972,26.972,0,0,0-12.292-3.3c-4.284.074-8.683,1.833-11.192,5.31-3.357,4.664-2.58,11.293.191,16.338" transform="translate(42 462)" fill="#3040be"/>
    <path id="Path_8085" data-name="Path 8085" d="M396.873,531.007c2.772,5.031,7.187,8.9,11.236,12.995,2.008,2.024,3.945,4.136,5.792,6.306,1.584.777,3.154,1.6,4.694,2.479,5.983,3.477,11.63,8.522,13.2,15.268.821,3.491.468,7.085.074,10.678a116.537,116.537,0,0,1,7.671,23.453c.131.646.263,1.275.394,1.921,4.563,5.25,9.651,10.311,11.632,16.838,1.554,5.133,1.026,10.648.118,15.928-.558,3.242-1.261,6.482-1.7,9.739,4.092,8.374,10.678,17.569,18.2,15.6a9.382,9.382,0,0,0,2.845-1.247,15.627,15.627,0,0,0,4.722-4.78c4.533-6.968,5.28-17.777,4.664-25.962-3.242-3.491-7.318-6.364-9.43-10.618-3.168-6.352-1.13-13.435.733-20.592-1.48-3.7-3.021-7.392-4.459-11.1-2.684-6.922-5.1-13.963-7.685-20.929-5.441-3.682-11.074-7.334-14.212-12.877-3.491-6.219-3.212-13.758-4.122-20.827-.131-1.056-.307-2.112-.5-3.168a61.352,61.352,0,0,0-20.576-17.454,26.971,26.971,0,0,0-12.292-3.3c-4.284.074-8.683,1.833-11.192,5.31-3.357,4.664-2.58,11.293.191,16.338" transform="translate(42 462)" fill="#3040be"/>
    <rect id="Rectangle_2792" data-name="Rectangle 2792" width="86.138" height="153.127" transform="translate(436.464 971.359)" fill="none"/>
    <rect id="Rectangle_2793" data-name="Rectangle 2793" width="86.139" height="153.128" transform="translate(436.463 971.358)" fill="none"/>
    <path id="Path_8086" data-name="Path 8086" d="M471.806,562.513c.44,8.6-.881,17.161-1.365,25.741-.088,1.628-.161,3.256-.161,4.884v.014c-.058,7.012.763,14.067,3.726,20.373,3.726,7.934,14.682,18.95,23.013,11.044a28.545,28.545,0,0,0,6.908-10.751c2.728-7.127,3.4-15.34,3.182-22.439-.307-9.769-1.994-19.58-1.863-29.305a60.887,60.887,0,0,1,.675-8.771,58.831,58.831,0,0,1,2.4-9.709c5.794-17.145,18.54-31.9,25.814-48.8a82.924,82.924,0,0,0,3.959-11.381,87.037,87.037,0,0,0,1.717-37.546c-.309-1.731-.661-3.447-1.072-5.149-1.8-7.48-5.852-15.766-13.184-17.5a8.022,8.022,0,0,0-.867-.175c-8.109-1.291-14.886,5.94-19.476,12.746a267.3,267.3,0,0,0-14.579,24.7c-1.994,3.71-3.931,7.436-5.868,11.162-6.013,11.556-12.114,23.525-15.4,36.006l-.014.016a69.21,69.21,0,0,0-2.451,19.1v.41c.339,11.9,4.284,23.451,4.9,35.332" transform="translate(42 462)" fill="#3040be"/>
    <path id="Path_8087" data-name="Path 8087" d="M471.292,589.352q-.529,1.871-1.012,3.784v.016c-.058,7.01.763,14.065,3.726,20.371,3.726,7.936,14.68,18.95,23.011,11.044a28.543,28.543,0,0,0,6.91-10.751,9.879,9.879,0,0,1-5.956-2.64c-2.861-2.684-4.224-6.643-4.634-10.56-1.423-13.537,7.171-25.623,11.909-38.544a60.887,60.887,0,0,1,.675-8.771,58.63,58.63,0,0,1,2.4-9.709c-.191-12.612-3.315-25.711,3.108-36.3,6.234-10.267,19.494-14.33,26.665-23.878a87.022,87.022,0,0,0,1.716-37.546q-.439-1.322-.923-2.6c-2.01-5.4-4.358-10.781-8.054-15.21a26.217,26.217,0,0,0-5.28-4.84,8.232,8.232,0,0,0-.865-.175c-8.111-1.291-14.888,5.94-19.478,12.746a267.647,267.647,0,0,0-14.579,24.7c-.044,1.6-.072,3.2-.132,4.782-.323,9.827-1.5,20.182-7.318,28.1-3.359,4.547-8.008,7.948-11.881,12.054-.673.705-1.319,1.453-1.935,2.23l-.016.016a69.252,69.252,0,0,0-2.449,19.1c1.042,2.024,2.317,3.975,3.447,5.939a53.5,53.5,0,0,1,6.938,30.64c-.689,8.888-3.594,17.424-6,26" transform="translate(42 462)" fill="#3040be"/>
    <rect id="Rectangle_2794" data-name="Rectangle 2794" width="74.207" height="204.401" transform="translate(508.894 884.895)" fill="none"/>
    <rect id="Rectangle_2795" data-name="Rectangle 2795" width="74.207" height="204.403" transform="translate(508.894 884.892)" fill="none"/>
    <path id="Path_8088" data-name="Path 8088" d="M498.1,636.243q.066,1.211.175,2.421c.6,6.659,2.01,22.234,10.59,23.76,6.073,1.07,14.9-9.592,19.741-12.951,2.714-1.879,5.5-3.756,8.155-5.764a43.932,43.932,0,0,0,11.088-11.249A39.209,39.209,0,0,0,553,618.951c1.568-7.6,1.833-15.709,3.256-23.364a78.007,78.007,0,0,1,2.566-10.062c3.931-12.026,10.59-23.085,18.3-33.426h.014c3.814-5.119,7.876-10.062,12.013-14.858,1.437-1.658,2.889-3.373,4.3-5.148,4.87-6.189,8.976-13.053,8.227-20.664-.982-9.857-10.692-17.41-20.592-17.864-9.9-.47-19.375,4.985-25.828,12.511a51.187,51.187,0,0,0-4.927,6.848,94.663,94.663,0,0,0-8.478,19.464c-1.584,4.8-3.007,9.65-4.591,14.445a114.239,114.239,0,0,1-5.294,13.553,106.778,106.778,0,0,1-7.436,12.847c-5.633,8.522-12.013,16.619-17.057,25.4a78.539,78.539,0,0,0-5.031,10.281,64.822,64.822,0,0,0-4.342,27.325" transform="translate(42 462)" fill="#3040be"/>
    <path id="Path_8089" data-name="Path 8089" d="M498.1,636.244q.066,1.211.175,2.421c.6,6.659,2.01,22.234,10.59,23.76,6.073,1.07,14.9-9.592,19.741-12.951,2.714-1.879,5.5-3.756,8.155-5.764-1.026-5.061-1.965-10.428.41-14.918,2.949-5.587,9.636-7.48,15.826-9.841,1.568-7.6,1.833-15.709,3.256-23.364a78.006,78.006,0,0,1,2.566-10.062,60.526,60.526,0,0,1-4.487-10.486c-2.172-7.348-1.233-16.486,5.015-20.915,4.577-3.242,10.707-3.11,16.251-2.273.5.074,1.012.161,1.526.249h.014c3.814-5.119,7.876-10.062,12.013-14.858,1.437-1.658,2.889-3.373,4.3-5.148a96.232,96.232,0,0,0-25.169-14.27,94.144,94.144,0,0,0-17.189-4.766c-.249-.044-.5-.09-.763-.133a94.721,94.721,0,0,0-8.478,19.464c-1.584,4.8-3.007,9.65-4.591,14.445a45.71,45.71,0,0,1,1.877,4.987c1.937,6.35,1.423,14.272-3.841,18.3-3.023,2.331-6.834,2.859-10.765,3.108-5.633,8.522-12.013,16.619-17.057,25.4,1.6,3.579,3.519,7.025,4.957,10.678,2.142,5.485,3.037,12.027-.074,17.014-3.064,4.9-9.108,7.039-14.256,9.915" transform="translate(42 462)" fill="#abd0a8" opacity="0"/>
    <rect id="Rectangle_2796" data-name="Rectangle 2796" width="95.349" height="149.574" transform="translate(540.102 974.924)" fill="none"/>
    <rect id="Rectangle_2797" data-name="Rectangle 2797" width="95.353" height="149.576" transform="translate(540.1 974.924)" fill="none"/>
    <path id="Path_8091" data-name="Path 8091" d="M783.907,359.293v2.22h1.98v-2.16a9.383,9.383,0,0,0,4.933-1.586l-1.088-2.417a7.991,7.991,0,0,1-3.845,1.407V353.45c2.2-.536,4.656-1.269,4.656-4.1,0-2.1-1.524-3.9-4.656-4.26v-2.2h-1.98v2.16a8.962,8.962,0,0,0-4.021,1.209l.99,2.437a8.087,8.087,0,0,1,3.031-1.03v3.367c-2.2.516-4.617,1.249-4.617,4.043,0,2.06,1.506,3.843,4.617,4.22m1.98-8.757v-2.813c1.052.237,1.466.811,1.466,1.466,0,.691-.594,1.068-1.466,1.347m-3.407,4.774c0-.693.576-1.07,1.427-1.367v2.734c-.99-.217-1.427-.733-1.427-1.367" transform="translate(42 462)" fill="#fff"/>
    <path id="Path_8093" data-name="Path 8093" d="M561.705,263.687a8.987,8.987,0,1,0,8.988-8.988,8.987,8.987,0,0,0-8.988,8.988Z" transform="translate(42 462)" fill="#fff"/>
    <path id="Path_8094" data-name="Path 8094" d="M891.352,247.064h60.706a2.459,2.459,0,0,1,2.459,2.459v38.409a2.459,2.459,0,0,1-2.459,2.459H911.2l-19.4,7.743a2.118,2.118,0,0,1-2.9-1.969V249.522a2.459,2.459,0,0,1,2.454-2.458" transform="translate(42 462)" fill="#d3b64e"/>
    <path id="Path_8095" data-name="Path 8095" d="M936.9,268.578a2.861,2.861,0,1,0,2.861-2.861,2.861,2.861,0,0,0-2.861,2.861" transform="translate(42 462)" fill="#fff"/>
    <path id="Path_8096" data-name="Path 8096" d="M918.844,268.578a2.861,2.861,0,1,0,2.861-2.861,2.861,2.861,0,0,0-2.861,2.861" transform="translate(42 462)" fill="#fff"/>
    <path id="Path_8097" data-name="Path 8097" d="M900.789,268.578a2.861,2.861,0,1,0,2.861-2.861,2.861,2.861,0,0,0-2.861,2.861" transform="translate(42 462)" fill="#fff"/>
    <path id="Path_8098" data-name="Path 8098" d="M695.914,202.012h46.1a2.459,2.459,0,0,1,2.459,2.459v38.411a2.459,2.459,0,0,1-2.459,2.459H715.761l-19.4,7.743a2.12,2.12,0,0,1-2.9-1.967V204.471a2.46,2.46,0,0,1,2.459-2.459" transform="translate(284.037 441.642)" fill="#7e91f0"/>
    <path id="Path_8099" data-name="Path 8099" d="M729.5,219.173c0-3.021-1.845-4.941-4.457-4.941s-4.429,1.9-4.429,4.941,1.817,4.943,4.429,4.943,4.457-1.921,4.457-4.943m-6.326,0c0-1.921.741-2.841,1.869-2.841,1.1,0,1.869.948,1.869,2.841s-.767,2.843-1.869,2.843c-1.128,0-1.869-.923-1.869-2.843m-8.811-4.736h-3.047l12.24,17.926H726.6Zm2.945,13.188c0-3.021-1.843-4.943-4.429-4.943-2.612,0-4.455,1.923-4.455,4.943s1.843,4.941,4.455,4.941c2.586,0,4.429-1.921,4.429-4.941m-6.3,0c0-1.9.741-2.841,1.869-2.841,1.1,0,1.869.921,1.869,2.841s-.767,2.841-1.869,2.841c-1.128,0-1.869-.946-1.869-2.841" transform="translate(284.037 441.642)" fill="#fff"/>
    <path id="Path_8100" data-name="Path 8100" d="M868.955,450.131a71.417,71.417,0,0,1,2.271,8.669" transform="translate(42 462)" fill="none" stroke="#fff" stroke-miterlimit="10" stroke-width="1"/>
    <path id="Path_8101" data-name="Path 8101" d="M872.569,476.713a90.735,90.735,0,0,1-17.322,49.033c-15.637,21.521-39.588,36.1-65.082,43.7s-52.543,8.623-79.085,6.792c-37.327-2.578-74.03-10.672-111.06-16.025s-75.136-7.926-111.6.468c-30.592,7.041-60.125,22.674-80.017,46.588" transform="translate(42 462)" fill="none" stroke="#fff" stroke-miterlimit="10" stroke-width="1" stroke-dasharray="9.034 9.034"/>
    <path id="Path_8102" data-name="Path 8102" d="M402.926,614.41q-2.572,3.656-4.854,7.539" transform="translate(42 462)" fill="none" stroke="#fff" stroke-miterlimit="10" stroke-width="1"/>
    <path id="Path_8103" data-name="Path 8103" d="M911.871,397.152a9.835,9.835,0,1,0,9.835-9.835,9.835,9.835,0,0,0-9.835,9.835" transform="translate(42 462)" fill="#dee9ed"/>
    <path id="Path_8104" data-name="Path 8104" d="M927.472,428.3a6.911,6.911,0,1,0,6.912-6.91,6.911,6.911,0,0,0-6.912,6.91Z" transform="translate(42 462)" fill="#dee9ed"/>
    <path id="Path_8105" data-name="Path 8105" d="M786.67,418.77a8.046,8.046,0,1,0,8.046-8.046,8.046,8.046,0,0,0-8.046,8.046" transform="translate(42 462)" fill="#fff"/>
    <path id="Path_8106" data-name="Path 8106" d="M767.606,453.432a6.249,6.249,0,1,0,6.25-6.248,6.249,6.249,0,0,0-6.25,6.248" transform="translate(42 462)" fill="#fff"/>
    <path id="Path_8107" data-name="Path 8107" d="M458.745,474.38a2.737,2.737,0,1,0,2.738-2.736,2.736,2.736,0,0,0-2.738,2.736" transform="translate(42 462)" fill="#fff"/>
    <circle id="Ellipse_223" data-name="Ellipse 223" cx="4.517" cy="4.517" r="4.517" transform="translate(908.182 1009.091) rotate(-22.5)" fill="#fff"/>
    <path id="Path_8108" data-name="Path 8108" d="M544.766,646.093a4.149,4.149,0,1,1-2.244,5.421,4.148,4.148,0,0,1,2.244-5.421" transform="translate(42 462)" fill="#fff"/>
    <path id="Path_8109" data-name="Path 8109" d="M76.2,310.329a4.085,4.085,0,1,0,4.085-4.087,4.085,4.085,0,0,0-4.085,4.087Z" transform="translate(42 462)" fill="#dee9ed"/>
    <path id="Path_8110" data-name="Path 8110" d="M63.162,430.183a4.5,4.5,0,1,0,4.5-4.5h-.005a4.5,4.5,0,0,0-4.495,4.493v.007" transform="translate(42 462)" fill="#fff"/>
    <path id="Path_8111" data-name="Path 8111" d="M41.714,359.134a5.046,5.046,0,1,0,5.047-5.045,5.046,5.046,0,0,0-5.047,5.045" transform="translate(42 462)" fill="#dee9ed"/>
    <path id="Path_8112" data-name="Path 8112" d="M437.747,211.61a4.347,4.347,0,1,0,4.348-4.346,4.347,4.347,0,0,0-4.348,4.346" transform="translate(42 462)" fill="#dee9ed"/>
    <path id="Path_8113" data-name="Path 8113" d="M764.084,219.079a3.123,3.123,0,1,0,3.122-3.124,3.123,3.123,0,0,0-3.122,3.124" transform="translate(42 462)" fill="#dee9ed"/>
    <g id="Group_5298" data-name="Group 5298" transform="translate(-272.49 3.511)">
      <path id="Path_8114" data-name="Path 8114" d="M500.062,479.344c-1.732,4.645-4.724,10.037-7.867,11.378a12.178,12.178,0,0,0-5.049,3.667l-2.883-1.67-3.437-2s.081-.384.25-1,.423-1.48.769-2.435a3.331,3.331,0,0,0,.407-3.058,7.113,7.113,0,0,1,.577-5.931c1.1-1.6,2.166-5.547,2.829-5.43,1.607.275-.79,5.7-.1,6.706a1.187,1.187,0,0,0,1.538.529l.027-.013c4.509-1.983,9.975-12.668,12.4-11.226.9.54,1.253,8.509.519,10.486" transform="translate(42 462)" fill="#62513c"/>
      <path id="Path_8115" data-name="Path 8115" d="M484.465,485.818l5.647,3.97a.889.889,0,0,0,1.236-.215l14.469-20.585a.889.889,0,0,0-.215-1.236l-5.647-3.969a.889.889,0,0,0-1.236.215l-14.467,20.584a.889.889,0,0,0,.215,1.236" transform="translate(42 462)" fill="#454b80"/>
      <path id="Path_8116" data-name="Path 8116" d="M489.636,489.447l3.312,2.328a.677.677,0,0,0,.94-.165l14.71-20.933a.676.676,0,0,0-.163-.94l-3.312-2.328a.677.677,0,0,0-.94.165l-14.71,20.933a.676.676,0,0,0,.163.94" transform="translate(42 462)" fill="#3a3f5f"/>
      <path id="Path_8117" data-name="Path 8117" d="M403.446,456.273s28.736,50.121,39.159,59.345l38.226-28.5a13.96,13.96,0,0,1,7.976,7.269s-23.212,47.294-46.068,49.3S387.8,487,387.8,487Z" transform="translate(42 462)" fill="#474566"/>
      <path id="Path_8118" data-name="Path 8118" d="M338.416,797.179h-16.6a10.059,10.059,0,0,1-4.542-7.609c-.811-5.349-6.806-8.265-8.1-12.643s5.349-10.531,5.349-10.531l1.111-1.432,1.153-1.488,11.013,2.6s.273,2.625.438,5.968a76.138,76.138,0,0,1,.048,7.644c-.325,5.833,1.632,12.108,6.815,13.252,3.832.838,3.652,3.112,3.312,4.242" transform="translate(42 462)" fill="#3a3f5f"/>
      <path id="Path_8119" data-name="Path 8119" d="M434.786,797.184H396.815c-1.826-2.229-1.153-10.452-.878-13.139.058-.542.1-.855.1-.855s12.968-10.379,14.749-2.429c.054.25.119.492.192.732,2.243,7.428,12.3,10.8,18.12,11.743a6.583,6.583,0,0,1,5.688,3.948" transform="translate(42 462)" fill="#3a3f5f"/>
      <path id="Path_8120" data-name="Path 8120" d="M427.542,585.236s-1.97,24.565-4.282,54.094c-3.146,40.112-6.919,89.372-7.3,98.717-.646,16.206-3.242,42.134-3.242,42.134s-6.15,6.16-18.472,3.563a423.928,423.928,0,0,1-14.113-76.168c-.05-.642-.1-1.29-.146-1.935-2.918-39.864-7.452-123.806-7.452-123.806Z" transform="translate(42 462)" fill="#615590"/>
      <path id="Path_8121" data-name="Path 8121" d="M427.542,585.236s-1.97,24.565-4.282,54.094l-43.131,68.244c-.05-.642-.1-1.29-.146-1.935-2.918-39.864-7.452-123.806-7.452-123.806Z" transform="translate(42 462)" fill="#2f3244"/>
      <path id="Path_8122" data-name="Path 8122" d="M418.553,588.144s-35.49,88.965-58.826,130.773S329.1,772.392,329.1,772.392s-13.369-5.346-14.584-8.992c0,0,8.926-80.723,24.551-100.389,8.83-11.119,19.2-44.482,19.689-56.151s3.158-34.759,3.158-34.759Z" transform="translate(42 462)" fill="#474566"/>
      <path id="Path_8123" data-name="Path 8123" d="M409.718,458.453c-13.867,4.376-37.867-7.434-37.867-7.434s12.789-9.6,12.11-29.551l10.723,8.649,7.282,5.87a87.262,87.262,0,0,1-.825,9.523c-.211,1.593-.471,3.373-.8,5.316a33.167,33.167,0,0,1,9.368,7.632" transform="translate(42 462)" fill="#504232"/>
      <path id="Path_8124" data-name="Path 8124" d="M401.976,435.979a86.766,86.766,0,0,1-.826,9.523c-8.073-1.381-17.227-14.428-17.227-14.428a25.692,25.692,0,0,1,10.763-.961Z" transform="translate(42 462)" fill="#5e3f23"/>
      <path id="Path_8125" data-name="Path 8125" d="M406.22,435.654s-22.908,3.806-25.059-10.5-6.556-23.444,7.98-26.473,18.2,2,20.083,6.594,2.9,29.022-3,30.379" transform="translate(42 462)" fill="#63523d"/>
      <path id="Path_8126" data-name="Path 8126" d="M429.072,587.274a2.247,2.247,0,0,1-1.457.555c-5.209-.071-20.394,2.821-33.25,1.5a95.719,95.719,0,0,1-30.717-8.864c-1.367-.613-4.515-2.293-4.444-3.821.048-1.672.213-4.1.421-7.157a382.37,382.37,0,0,0,.769-50c-.221-3.927-.34-7.822-.354-11.657-.108-28.582,5.562-53.723,16.95-62.23.974-.7,6.944,2.222,12.431,4.928a22.7,22.7,0,0,0,14.93,1.809l4.79,4.228a47.867,47.867,0,0,1,14.992,23.964c2.362,9.512,3.75,26.667,4.515,44.446.348,8.055.627,16.181.7,23.89v.277c.067.769.067,1.6.067,2.362.281,19.8,0,35.486-.346,35.764" transform="translate(42 462)" fill="#615590"/>
      <path id="Path_8127" data-name="Path 8127" d="M359.633,569.495a383.064,383.064,0,0,0,.767-50c-.223-3.927-.34-7.822-.354-11.657,4.745-11.509,8.622-19.854,8.622-19.854h11.959s8.766,59.881-20.986,81.507" transform="translate(42 462)" fill="#3a3f5f"/>
      <path id="Path_8128" data-name="Path 8128" d="M337.159,571.544a17.747,17.747,0,0,0-2.783,5c-.721,9.662,3.694,11-7.736,16.366,0,0-4.88,1.86-4.963-1.922s3.387-3.844,2.752-9.154c-.732-6.118-.657-6.175,3.358-9.37l2.658-4.394Z" transform="translate(42 462)" fill="#63523d"/>
      <path id="Path_8129" data-name="Path 8129" d="M330.35,574.281a39.206,39.206,0,0,0,8.974.5s12.783-39.491,14.428-43.1,37.971-46.3,37.971-46.3l-15.132-37.866s-39.291,65.632-43.284,74.854c-6.592,15.239-8.881,49.406-8.881,49.406a16.452,16.452,0,0,0,5.92,2.518" transform="translate(42 462)" fill="#474566"/>
      <path id="Path_8130" data-name="Path 8130" d="M381.142,423.779s2.351-.384,1.972-3.631-.373-7.469,2.258-6.681,2.764,2.9,3.844,1.666,1.1-6.417,8.935-6.779,11.015,2.366,14.657.769,3.836-7.111,3.836-7.111a6.266,6.266,0,0,1-2.6,2.6s6.075-8.311-.961-14.011-14.211-1.968-18.283-1.73c-8.969.544-14.769,1.081-17.7,6.981s-1.73,22.262,4.036,27.936" transform="translate(42 462)" fill="#333"/>
      <rect id="Rectangle_2799" data-name="Rectangle 2799" width="199.723" height="409.738" transform="translate(351 849.447)" fill="none"/>
    </g>
    <path id="Path_8131" data-name="Path 8131" d="M947.5,675.1q.183-2.305.5-4.581a59.2,59.2,0,0,1,.693-8.668c.045-2.943.165-5.9.339-8.861-133.711-.058-245.747.047-249.5.562-9.455,1.3-44.145,87.727-44.145,87.727l193.851,17.462h67.5a90.456,90.456,0,0,1,6.443-12.394A88.932,88.932,0,0,0,929.053,736q2.617-5.64,5.142-11.343c4.343-11.548,7.68-23.434,11.149-35.274a56.5,56.5,0,0,1,1.114-6.3A57.649,57.649,0,0,1,947.5,675.1" transform="translate(42 462)" fill="#35374c"/>
    <path id="Path_8132" data-name="Path 8132" d="M946.459,552.742c-.33-2.12-.548-4.24-.672-6.348-.607-4.971-1.094-9.951-1.521-14.938q-.723-3.747-1.074-7.494c-.811-4.287-1.573-8.581-2.16-12.883-.118-.508-.234-1.017-.342-1.524-.289-1.18-.564-2.363-.8-3.554-53.967.92-93.718,6.44-107,8.6-24.017,3.9-144.78,56.483-153.87,61.027s-83.22,10.7-92.735,11.855-9.24,10.674-9.24,10.674l-1.3,8.447-4.979,32.172-1.211,7.858c-6.929,3.46-6.936,13.375-6.936,13.375s-4.336,84.394,9.942,90.24l.006-.011c14.285,5.846,100.633,7.146,100.633,7.146s-1.945-105.826,86.993-93.49,73.391,100.167,73.391,100.167l78.025,1.392c.842-.821,1.717-1.614,2.606-2.394.7-1.257,1.451-2.478,2.242-3.679a92.118,92.118,0,0,1,6.718-13.027A88.6,88.6,0,0,0,929.053,736q2.617-5.638,5.142-11.342c4.342-11.548,7.68-23.435,11.149-35.275a56.5,56.5,0,0,1,1.113-6.3A57.651,57.651,0,0,1,947.5,675.1q.181-2.305.495-4.581a59.056,59.056,0,0,1,.694-8.668c.1-6.208.494-12.474,1.2-18.707a60.424,60.424,0,0,1,.454-9.11c.011-.889.036-1.774.085-2.653-.04-2.452.031-4.9.228-7.355.076-10.5-.018-21-.387-31.495" transform="translate(42 462)" fill="#3e437e"/>
    <path id="Path_8133" data-name="Path 8133" d="M752.155,675.44a65.846,65.846,0,1,1-65.846,65.846,65.846,65.846,0,0,1,65.846-65.846" transform="translate(42 462)" fill="#333334"/>
    <path id="Path_8134" data-name="Path 8134" d="M752.155,792.779a51.494,51.494,0,1,0-51.494-51.494A51.494,51.494,0,0,0,752.155,792.779Zm0-98.228a46.732,46.732,0,1,1-46.732,46.732,46.732,46.732,0,0,1,46.732-46.732" transform="translate(42 462)" fill="#bdc5ef"/>
    <path id="Path_8135" data-name="Path 8135" d="M743.365,790.451h18.45l-5.922-50.565,6.769-48.027-21.086,1.3,7.029,46.727Z" transform="translate(42 462)" fill="#b1afaf"/>
    <path id="Path_8136" data-name="Path 8136" d="M790.435,773.38l9.223-15.976L752.9,737.256l-38.213-29.872L705.279,726.3l43.981,17.276Z" transform="translate(42 462)" fill="#b1afaf"/>
    <path id="Path_8137" data-name="Path 8137" d="M797.832,722.233,787.7,706.815l-39,32.73-43.842,20.731,12.673,16.9,35.182-31.544Z" transform="translate(42 462)" fill="#b1afaf"/>
    <path id="Path_8138" data-name="Path 8138" d="M769.436,741.194a17.176,17.176,0,1,0,0,.006Z" transform="translate(42 462)" fill="#b1afaf"/>
    <path id="Path_8139" data-name="Path 8139" d="M946.459,552.742c-.33-2.12-.548-4.24-.672-6.348-.607-4.97-1.094-9.949-1.52-14.934q-.726-3.759-1.076-7.518c-.057-.3-.117-.6-.173-.9-78.355,1.4-107.205,4.1-125.021,10.242-16.99,5.861-56.721,29.965-77.259,42.2a4.021,4.021,0,0,0,1.965,7.475l207.338,4.924c-.64-9.971-2.108-19.806-3.117-29.766q-.272-2.685-.465-5.379" transform="translate(42 462)" fill="#aaa7b2"/>
    <path id="Path_8140" data-name="Path 8140" d="M743.451,582.977h.119V573.8c-.743.45-1.486.882-2.186,1.3a4.235,4.235,0,0,0,2.068,7.873" transform="translate(42 462)" fill="#bdc5ef"/>
    <path id="Path_8141" data-name="Path 8141" d="M805.881,591.236H818V527.81l-12.119,7.273Z" transform="translate(42 462)" fill="#595959"/>
    <path id="Path_8142" data-name="Path 8142" d="M802.259,586.179a4.962,4.962,0,0,0,3.479-1.44,5.684,5.684,0,0,0,1.672-4.057V543.715c0-2.1-.312-4.787-2.014-5.848-1.542-.962-4.135-.262-5.759.535-1.809.89-3.071,1.525-3.751,1.891-.074.037-.173.091-.273.147l-.743.4c-9.21,5.03-22.325,12.95-38.977,23.538q-1.062.672-2.114,1.345c-1.672,1.07-3.314,2.118-4.886,3.128l-5.84,3.769q-1.524.985-2.918,1.9l-.414.266-.128.082a5.358,5.358,0,0,0-2.147,6.011,4.918,4.918,0,0,0,4.607,3.728l.635.017,59.431,1.544h.128m-.325-45.243a2.167,2.167,0,0,1,1.141.338,2.834,2.834,0,0,1,1.274,2.448v36.967a2.61,2.61,0,0,1-.744,1.862,1.927,1.927,0,0,1-1.388.568l-60.063-1.562a1.915,1.915,0,0,1-1.735-1.5,2.3,2.3,0,0,1,.868-2.6l.126-.082.4-.258c.942-.615,1.913-1.248,2.928-1.9l5.832-3.766q2.357-1.52,4.876-3.125,1.043-.666,2.107-1.339c16.6-10.553,29.655-18.439,38.8-23.438l.743-.4c.076-.043.149-.082.225-.121.663-.359,1.923-.994,3.671-1.858a2.11,2.11,0,0,1,.942-.228" transform="translate(42 462)" fill="#35374c"/>
    <path id="Path_8143" data-name="Path 8143" d="M819.737,583.062V534.5c17.1-6.072,45.55-8.4,123.532-9.732-.029-.273-.052-.545-.077-.817q-.25-1.32-.5-2.64c-80.688,1.38-107.715,3.752-125.3,10.354l-1.115.422v54.351l133.855,3.175q-.095-1.732-.221-3.461Z" transform="translate(42 462)" fill="#35374c"/>
    <path id="Path_8144" data-name="Path 8144" d="M570.775,638.765h41.384a20.086,20.086,0,0,0,15.792-7.665L643.6,611.213a2.857,2.857,0,0,0-2.249-4.624H575.763Z" transform="translate(42 462)" fill="#f0f0f3"/>
    <path id="Path_8145" data-name="Path 8145" d="M925.745,742.183l-91.509-1.839-.035,1.731,90.518,1.819c.35-.568.687-1.14,1.026-1.711" transform="translate(42 462)" fill="#35374c"/>
    <path id="Path_8146" data-name="Path 8146" d="M788.568,634.516c0,2.344,10.466,4.247,23.373,4.247s23.371-1.9,23.371-4.247-10.464-4.247-23.371-4.247-23.373,1.9-23.373,4.247" transform="translate(42 462)" fill="#414360"/>
    <path id="Path_8147" data-name="Path 8147" d="M850.9,741.332l1.729-.1c-1.194-22.046-7.728-40.626-19.422-55.227a91.731,91.731,0,0,0-37.595-27.218,142.357,142.357,0,0,0-52.045-9.89V582.956h-1.73V650.7l.9-.039a139.887,139.887,0,0,1,52.27,9.764,90.01,90.01,0,0,1,36.868,26.7c11.449,14.3,17.848,32.548,19.022,54.213" transform="translate(42 462)" fill="#35374c"/>
    <path id="Path_8148" data-name="Path 8148" d="M932.864,555.446s2.493,2.6,2.651,3.678c.5,3.47,1.672,4.969,1.083,5.346-1.206.786-2.8-1.783-3.569-4.087a10.524,10.524,0,0,1-.163-4.936" transform="translate(42 462)" fill="#c0a680"/>
    <rect id="Rectangle_2800" data-name="Rectangle 2800" width="388.689" height="301.132" transform="translate(604 968)" fill="none"/>
    <path id="Path_8149" data-name="Path 8149" d="M950.663,757.682l-28.209,39.5s-67.415-85.561-67.227-85.091,95.436,45.588,95.436,45.588" transform="translate(42 462)" fill="#a4c4ce"/>
    <rect id="Rectangle_2801" data-name="Rectangle 2801" width="95.436" height="85.09" transform="translate(897.227 1174.095)" fill="none"/>
    <path id="Path_8150" data-name="Path 8150" d="M960.7,768.956l-1.176-22.339L855.227,712.092l95.436,45.588Z" transform="translate(42 462)" fill="#606f9b"/>
    <path id="Path_8151" data-name="Path 8151" d="M959.517,746.622h0L984.7,721.3l-129.47-9.208Z" transform="translate(42 462)" fill="#a4c4ce"/>
  </g>
</svg>
