<svg xmlns="http://www.w3.org/2000/svg" xmlns:xlink="http://www.w3.org/1999/xlink" width="365" height="231" viewBox="0 0 365 231">
  <defs>
    <clipPath id="clip-path">
      <rect id="Rectangle_2754" data-name="Rectangle 2754" width="251.537" height="203.966" fill="none"/>
    </clipPath>
  </defs>
  <g id="Group_5183" data-name="Group 5183" transform="translate(-715 -1883)">
    <g id="Group_5182" data-name="Group 5182" transform="translate(70.129 1188.619)">
      <path id="Rectangle_2755" data-name="Rectangle 2755" d="M157,0H365a0,0,0,0,1,0,0V231a0,0,0,0,1,0,0H57A57,57,0,0,1,0,174V157A157,157,0,0,1,157,0Z" transform="translate(644.871 694.381)" fill="#eff4ff"/>
    </g>
    <g id="Group_5180" data-name="Group 5180" transform="translate(828.463 1897)">
      <g id="Group_5179" data-name="Group 5179" clip-path="url(#clip-path)">
        <path id="Path_7980" data-name="Path 7980" d="M247.054,110.747c-97.165.064-207.528.271-207.528.271l-9.074,52.5h216.6Z" transform="translate(4.483 16.303)" fill="#1d2949"/>
        <path id="Path_7981" data-name="Path 7981" d="M251.537,176.939V46.995c-8,.309-16.356.848-24.983,1.7-18.8,1.861-38.225,9.813-55.265,17.964-10.681,5.111-24.336,12.147-40.807,21.616,0,0-108.44,6.482-122.271,30.243L0,137.313v10.73H2.449v14.4H0v5.474s4.034,13.251,43.062,11.235c0,0-10.056-44.75,29.093-49.615,47.123-5.858,43.652,49.822,43.652,49.822Z" transform="translate(0 6.918)" fill="#173a8d"/>
        <path id="Path_7982" data-name="Path 7982" d="M39.749,153.362a32.864,32.864,0,1,1,32.864,32.865,32.865,32.865,0,0,1-32.864-32.865Z" transform="translate(5.851 17.739)" fill="#222224"/>
        <path id="Path_7983" data-name="Path 7983" d="M71.694,178.145a25.7,25.7,0,1,1,25.7-25.7,25.7,25.7,0,0,1-25.7,25.7m0-49.027A23.325,23.325,0,1,0,95.02,152.443a23.325,23.325,0,0,0-23.325-23.325" transform="translate(6.771 18.659)" fill="#afcdfb"/>
        <path id="Path_7984" data-name="Path 7984" d="M73.456,176.851H64.247L67.2,151.613l-3.379-23.977,10.524.649-3.508,23.322Z" transform="translate(9.396 18.789)" fill="#bfb8b8"/>
        <path id="Path_7985" data-name="Path 7985" d="M52.333,167.335l-4.6-7.975L71.064,149.3l19.072-14.914,4.7,9.439-21.952,8.62Z" transform="translate(7.026 19.783)" fill="#bfb8b8"/>
        <path id="Path_7986" data-name="Path 7986" d="M48.524,141.84l5.059-7.694,19.464,16.336L94.932,160.83l-6.322,8.437L71.05,153.521Z" transform="translate(7.143 19.748)" fill="#bfb8b8"/>
        <path id="Path_7987" data-name="Path 7987" d="M60.881,150.206a8.575,8.575,0,1,1,8.575,8.575,8.576,8.576,0,0,1-8.575-8.575Z" transform="translate(8.962 20.849)" fill="#bfb8b8"/>
        <path id="Path_7988" data-name="Path 7988" d="M44.61,109.245H23.11A19.639,19.639,0,0,0,5.967,119.3l-.738,1.319A2,2,0,0,0,6.973,123.6H32.846a6.4,6.4,0,0,0,4.7-2.065l8.438-9.146a1.875,1.875,0,0,0-1.377-3.146" transform="translate(0.732 16.081)" fill="#f9ddbf"/>
        <path id="Path_7989" data-name="Path 7989" d="M18.5,149.148H11.161a6.7,6.7,0,0,0-5.851,3.432l-.252.45a.683.683,0,0,0,.6,1.014h8.834a2.178,2.178,0,0,0,1.606-.7l2.879-3.122a.64.64,0,0,0-.47-1.074" transform="translate(0.732 21.956)" fill="#1d2949"/>
        <path id="Path_7990" data-name="Path 7990" d="M232.368,53.916h-.119C184.622,53.376,143.2,78.6,130.836,86.932a1.376,1.376,0,0,0,.8,2.524l100.728-2.391Z" transform="translate(19.169 7.936)" fill="#fff"/>
        <path id="Path_7991" data-name="Path 7991" d="M219.714,52.232h-2.67l-.865,35.255,3.535.282Z" transform="translate(31.824 7.689)" fill="#565657"/>
        <path id="Path_7992" data-name="Path 7992" d="M144.959,75.237l3.227,10.69-17.656.42a1.048,1.048,0,0,1-.638-1.9c3.987-2.868,11.372-7.975,15.065-9.212" transform="translate(19.058 11.076)" fill="#2c3a64"/>
        <path id="Path_7993" data-name="Path 7993" d="M129.939,90.47a1.661,1.661,0,0,1-.95-3.023l.368-.254c.381-.265.81-.556,1.28-.874q.582-.392,1.245-.831l.669-.438q.759-.5,1.612-1.041l1.262-.8.071-.044.187-.115c.366-.229.753-.469,1.147-.714l.088-.054c.131-.081.264-.163.4-.243.2-.122.4-.248.617-.375q.435-.263.888-.533c.848-.509,1.76-1.047,2.709-1.6q.441-.256.895-.516.9-.518,1.847-1.045l.444-.249c1.276-.709,2.567-1.411,3.841-2.088l.419-.22.584-.309c2.428-1.271,4.92-2.518,7.416-3.709l.774-.367q1.168-.552,2.371-1.1c.265-.123.539-.245.81-.368.533-.243,1.08-.488,1.631-.73l.827-.364c.824-.364,1.7-.741,2.683-1.156q.762-.318,1.533-.638c3.459-1.426,6.984-2.766,10.48-3.984l.765-.266c.288-.1.577-.2.866-.295l1.09-.366c.295-.1.59-.2.885-.29l.034-.011q.459-.153.926-.3.843-.27,1.7-.535c.385-.12.778-.241,1.17-.36.6-.18,1.2-.361,1.8-.539l1-.289q.95-.27,1.906-.532c1.262-.344,2.55-.688,3.824-1l.077-.02.344-.085c.539-.135,1.1-.27,1.654-.4.328-.077.662-.153,1-.229l.252-.057.749-.171c.333-.077.667-.15,1-.223l1.01-.218c.344-.071.678-.141,1.018-.21s.676-.139,1.019-.206l.055-.01q.484-.1.967-.189l.966-.185c.365-.068.727-.133,1.092-.2.229-.042.467-.084.7-.124l.33-.057q1.032-.177,2.065-.344c.344-.055.688-.115,1.043-.163l.053-.008q.917-.138,1.836-.265c1.147-.154,2.294-.3,3.415-.434l.077-.008c.317-.037.631-.072.946-.1.219-.025.452-.049.683-.072s.469-.052.716-.077.528-.054.8-.077c.353-.034.714-.067,1.076-.1q.516-.045,1.033-.085c.275-.022.539-.044.8-.062l1.536-.1c.3-.02.606-.037.911-.055l.133-.007c.332-.02.672-.037,1.011-.052.267-.013.54-.026.812-.037h.025l.73-.03.6-.022.717-.022a3.443,3.443,0,0,1,3.537,3.344V83.955a4.245,4.245,0,0,1-4.116,4.216l-96.752,2.294h-.042m15.978-11.437-.6.334q-1.046.583-2.036,1.147c-.3.173-.6.344-.89.513-.942.544-1.845,1.08-2.687,1.583l-.882.53q-.308.186-.609.372c-.138.083-.264.161-.385.237l-.092.056c-.4.242-.778.481-1.147.712l-.245.154c-.428.271-.848.536-1.249.793q-.843.54-1.591,1.027l-.665.437q-.656.434-1.233.82-.688.468-1.262.864l-.176.12,18.175-.431L226.7,86.437a2.5,2.5,0,0,0,2.43-2.488V56.639a1.721,1.721,0,0,0-1.721-1.714h-.044l-.708.022-.6.022-.712.029h-.028c-.27.01-.539.024-.8.037q-.5.022-1,.052l-.134.007-.89.053-1.525.1c-.259.018-.519.04-.779.061-.359.028-.7.055-1.032.085-.358.03-.711.062-1.063.1-.267.024-.529.049-.789.077-.242.022-.472.045-.7.072s-.459.046-.679.072c-.32.033-.628.069-.937.1l-.072.008c-1.111.128-2.246.274-3.376.429q-.91.126-1.814.263l-.05.008q-.518.077-1.033.161-1.032.162-2.047.337l-.329.057c-.229.04-.459.077-.688.123-.365.064-.723.13-1.08.2l-.957.182-.96.187-.055.01c-.335.067-.669.133-1,.2s-.676.139-1.012.21-.664.141-1,.215-.664.146-1,.221c-.25.055-.494.115-.739.169l-.255.059-.984.229q-.833.194-1.645.4c-.115.028-.218.054-.321.077l-.081.021c-1.262.315-2.539.649-3.786.993q-.952.26-1.887.528l-1,.288c-.594.174-1.191.353-1.785.532q-.58.176-1.156.356c-.567.176-1.124.353-1.684.532-.309.1-.608.2-.911.295l-.038.013c-.291.1-.583.19-.873.288l-1.085.364c-.286.1-.574.192-.852.29l-.762.265c-3.469,1.207-6.961,2.535-10.39,3.95q-.766.315-1.522.633c-.971.408-1.836.782-2.658,1.147l-.825.364q-.819.361-1.619.724c-.272.122-.539.241-.8.364-.8.366-1.582.728-2.355,1.094l-.771.366c-2.472,1.179-4.946,2.416-7.348,3.671l-.585.309-.414.218c-1.141.607-2.294,1.233-3.442,1.87" transform="translate(18.884 7.831)" fill="#1d2949"/>
        <path id="Path_7994" data-name="Path 7994" d="M144.959,75.237l3.227,10.69-17.656.42a1.048,1.048,0,0,1-.638-1.9c3.987-2.868,11.372-7.975,15.065-9.212" transform="translate(19.058 11.076)" fill="#2c3a64"/>
        <path id="Path_7995" data-name="Path 7995" d="M129.43,82.978l-.843,1.409A19.452,19.452,0,0,1,113.261,93.8c-17.093,1.2-51.588,3.636-69.811,4.9C18.8,100.427,7.336,113.019,7.159,113.215,20.99,89.454,129.431,82.972,129.431,82.972" transform="translate(1.054 12.214)" fill="#1d2949"/>
        <path id="Path_7996" data-name="Path 7996" d="M236.732,150.1l-136.157,2.664.017.865,136.139-2.664Z" transform="translate(14.806 22.097)" fill="#1d2949"/>
        <path id="Path_7997" data-name="Path 7997" d="M214.865,102.965c0,1.17-5.222,2.12-11.665,2.12s-11.665-.949-11.665-2.12,5.223-2.119,11.665-2.119,11.665.949,11.665,2.119" transform="translate(28.196 14.845)" fill="#2c3a64"/>
        <path id="Path_7998" data-name="Path 7998" d="M123.273,162.412c-.335-28.549,1.254-48.3,2.647-59.845a140.468,140.468,0,0,1,3.142-18.437l.833.229c-.064.229-6.4,23.537-5.759,78.04Z" transform="translate(18.14 12.385)" fill="#1d2949"/>
        <rect id="Rectangle_2752" data-name="Rectangle 2752" width="3.856" height="0.864" transform="translate(247.681 61.582)" fill="#1d2949"/>
        <rect id="Rectangle_2753" data-name="Rectangle 2753" width="33.207" height="1.107" transform="translate(103.509 104.147) rotate(-68.221)" fill="#2b478b"/>
        <path id="Path_7999" data-name="Path 7999" d="M89.332,91.434c0-.459.688-.821,1.546-.821s1.545.368,1.545.821-.688.821-1.545.821-1.546-.368-1.546-.821" transform="translate(13.151 13.339)" fill="#2b478b"/>
        <path id="Path_8000" data-name="Path 8000" d="M124.421,98.686a1.8,1.8,0,0,1-1.244-.9,367.553,367.553,0,0,0-25.1-38.079c-14.033-18.7-35.738-43.657-59.456-56.32A1.8,1.8,0,1,1,40.32.212C51.082,5.958,62.306,14.586,73.683,25.858A288.38,288.38,0,0,1,100.995,57.59a371.368,371.368,0,0,1,25.337,38.458,1.8,1.8,0,0,1-1.908,2.639" transform="translate(5.546 0)" fill="#173a8d"/>
      </g>
    </g>
  </g>
</svg>
