<svg xmlns="http://www.w3.org/2000/svg" width="952.143" height="441.329" viewBox="0 0 952.143 441.329">
  <g id="Group_5103" data-name="Group 5103" transform="translate(-64 -1311.836)">
    <path id="Path_7576" data-name="Path 7576" d="M34.809,69.9C31.271,57.259,14.82,58.454,14.82,58.454l.46,8.823c9.512-1.654,15.394,9.466,15.394,9.466Z" transform="translate(813.527 1651.215)" fill="#e0e0e0"/>
    <g id="Group_4693" data-name="Group 4693" transform="translate(420 1493.439)">
      <path id="Path_6764" data-name="Path 6764" d="M151.942,39.52a120.3,120.3,0,1,1-120.3,120.3,120.3,120.3,0,0,1,120.3-120.3" transform="translate(-31.64 -39.52)" fill="#173a8d"/>
      <path id="Path_6765" data-name="Path 6765" d="M157.038,54.681c1.516,1.241-20.954,31.477-50.18,67.5L89.121,143.69l-2.435,2.941-2.573-2.665C61.136,120.392,45.65,102.93,46.753,101.828S65.364,116.3,88.891,139.141l-4.963.505,17.37-21.735c29.225-36.256,54.177-64.471,55.74-63.23" transform="translate(22.496 14.844)" fill="#fff"/>
    </g>
    <path id="Path_7574" data-name="Path 7574" d="M110.649,64.082c-3.584-12.637-19.989-11.4-19.989-11.4l.414,8.777c9.512-1.654,15.394,9.466,15.394,9.466Z" transform="translate(620.145 1501.135)" fill="#173a8d"/>
    <path id="Path_7575" data-name="Path 7575" d="M34.809,69.9C31.271,57.259,14.82,58.454,14.82,58.454l.46,8.823c9.512-1.654,15.394,9.466,15.394,9.466Z" transform="translate(347.484 1521.881)" fill="#e0e0e0"/>
    <path id="Path_7577" data-name="Path 7577" d="M34.809,69.9C31.271,57.259,14.82,58.454,14.82,58.454l.46,8.823c9.512-1.654,15.394,9.466,15.394,9.466Z" transform="translate(781.734 1261.271)" fill="#e0e0e0"/>
    <path id="Path_7578" data-name="Path 7578" d="M65.146,40.7c19.07,5.79,30.926-16.175,30.926-16.175L84.492,17.91c-5.7,13.464-24.722,11.9-24.722,11.9Z" transform="translate(509.089 1376.227)" fill="#173a8d"/>
    <path id="Path_7579" data-name="Path 7579" d="M45.7,28.02c-8.869.965-9.926,12.085-9.926,12.085l5.928.689c0-6.525,8.133-9.19,8.133-9.19Z" transform="translate(422.805 1412.574)" fill="#173a8d"/>
    <path id="Path_7580" data-name="Path 7580" d="M126.35,55.627c1.287-8.823-9.19-12.637-9.19-12.637L115,48.55c6.341,1.608,6.939,10.155,6.939,10.155Z" transform="translate(707.651 1466.395)" fill="#173a8d"/>
    <path id="Path_7581" data-name="Path 7581" d="M58.07,12.637C59.357,3.814,48.88,0,48.88,0L46.72,5.606c6.341,1.608,6.939,10.109,6.939,10.109Z" transform="translate(462.172 1311.836)" fill="#173a8d"/>
    <path id="Path_7582" data-name="Path 7582" d="M1.584,38.25C.022,52.036,18.311,55.436,18.311,55.436l3.309-9.19C10.637,45.235,9.074,32.46,9.074,32.46Z" transform="translate(299.559 1428.539)" fill="#173a8d"/>
    <path id="Path_7583" data-name="Path 7583" d="M93,32.158c8.915.505,11.764-10.293,11.764-10.293L99.022,20.21c-1.057,6.433-9.512,7.766-9.512,7.766Z" transform="translate(616.01 1384.496)" fill="#173a8d"/>
    <path id="Path_7584" data-name="Path 7584" d="M112.365,31.284a20.574,20.574,0,0,1-7.352.689,20.369,20.369,0,0,1-7.352-.689,37.186,37.186,0,0,1,14.7,0" transform="translate(645.312 1421.67)" fill="#93b1f7"/>
    <path id="Path_7585" data-name="Path 7585" d="M103.134,26.36a40.543,40.543,0,0,1,0,14.888,38.113,38.113,0,0,1,0-14.888" transform="translate(662.354 1406.605)" fill="#93b1f7"/>
    <path id="Path_7586" data-name="Path 7586" d="M104.36,31.2a20.574,20.574,0,0,1,7.352-.689,20.368,20.368,0,0,1,7.352.689,37.187,37.187,0,0,1-14.7,0" transform="translate(669.398 1421.248)" fill="#93b1f7"/>
    <path id="Path_7587" data-name="Path 7587" d="M103.244,46.644a38.347,38.347,0,0,1,0-14.934,40.791,40.791,0,0,1,0,14.934" transform="translate(662.748 1425.84)" fill="#93b1f7"/>
    <path id="Path_7588" data-name="Path 7588" d="M109.388,38.052c-.276.23-1.7-.965-3.171-2.665s-2.344-3.354-2.068-3.584,1.746.919,3.171,2.665,2.389,3.079,2.068,3.584" transform="translate(668.461 1426.068)" fill="#93b1f7"/>
    <path id="Path_7589" data-name="Path 7589" d="M109.379,28.14c.276.322-.689,1.746-2.206,3.263s-2.941,2.527-3.217,2.252.689-1.746,2.206-3.263a8.554,8.554,0,0,1,3.217-2.252" transform="translate(667.78 1413.006)" fill="#93b1f7"/>
    <path id="Path_7590" data-name="Path 7590" d="M105.53,32.8c-.276.322-1.654-.414-3.079-1.608s-2.344-2.39-2.114-2.665,1.608.414,3.033,1.562,2.389,2.435,2.16,2.711" transform="translate(654.811 1414.182)" fill="#93b1f7"/>
    <path id="Path_7591" data-name="Path 7591" d="M105.178,31.625c.322.23-.551,1.654-1.93,3.171s-2.711,2.481-2.987,2.206.551-1.7,1.93-3.171,2.711-2.481,2.987-2.206" transform="translate(654.474 1425.373)" fill="#93b1f7"/>
    <path id="Path_7592" data-name="Path 7592" d="M25.245,22.392a37.186,37.186,0,0,1-14.7,0,20.574,20.574,0,0,1,7.352-.689,20.368,20.368,0,0,1,7.352.689" transform="translate(332.098 1389.572)" fill="#93b1f7"/>
    <path id="Path_7593" data-name="Path 7593" d="M16.014,17.44a38.346,38.346,0,0,1,0,14.934,38.346,38.346,0,0,1,0-14.934" transform="translate(349.14 1374.537)" fill="#93b1f7"/>
    <path id="Path_7594" data-name="Path 7594" d="M17.25,22.264a37.186,37.186,0,0,1,14.7,0,37.186,37.186,0,0,1-14.7,0" transform="translate(356.221 1389.24)" fill="#93b1f7"/>
    <path id="Path_7595" data-name="Path 7595" d="M16.124,37.688a38.112,38.112,0,0,1,0-14.888,38.112,38.112,0,0,1,0,14.888" transform="translate(349.535 1393.807)" fill="#93b1f7"/>
    <path id="Path_7596" data-name="Path 7596" d="M22.287,29.06c-.322.276-1.746-.919-3.171-2.665s-2.389-3.309-2.068-3.584,1.7.965,3.171,2.665,2.344,3.584,2.068,3.584" transform="translate(355.273 1393.707)" fill="#93b1f7"/>
    <path id="Path_7597" data-name="Path 7597" d="M22.269,19.318c.276.276-.735,1.746-2.206,3.263s-2.941,2.481-3.217,2.206.689-1.7,2.206-3.217,2.941-2.711,3.217-2.252" transform="translate(354.603 1380.932)" fill="#93b1f7"/>
    <path id="Path_7598" data-name="Path 7598" d="M18.383,23.939c-.23.276-1.608-.414-3.033-1.608s-2.389-2.39-2.114-2.711,1.608.414,3.033,1.608,2.39,2.389,2.114,2.711" transform="translate(341.624 1382.098)" fill="#93b1f7"/>
    <path id="Path_7599" data-name="Path 7599" d="M18.113,22.7c.276.276-.6,1.7-1.93,3.217S13.472,28.4,13.15,28.127s.6-1.7,1.93-3.171,2.711-2.527,3.033-2.252" transform="translate(341.251 1393.305)" fill="#93b1f7"/>
    <g id="Group_4694" data-name="Group 4694" transform="translate(116.644 -131.605)">
      <path id="Path_7600" data-name="Path 7600" d="M29.3,22.6a47.441,47.441,0,0,1-18.76,0,26.248,26.248,0,0,1,9.38-.879,25.985,25.985,0,0,1,9.38.879" transform="translate(830.864 1472.516)" fill="#173a8d"/>
      <path id="Path_7601" data-name="Path 7601" d="M16.217,17.44a48.92,48.92,0,0,1,0,19.053,48.92,48.92,0,0,1,0-19.053" transform="translate(853.913 1452.18)" fill="#173a8d"/>
      <path id="Path_7602" data-name="Path 7602" d="M17.25,22.467a47.441,47.441,0,0,1,18.76,0,47.441,47.441,0,0,1-18.76,0" transform="translate(863.49 1472.066)" fill="#173a8d"/>
      <path id="Path_7603" data-name="Path 7603" d="M16.327,41.794a48.622,48.622,0,0,1,0-18.994,48.622,48.622,0,0,1,0,18.994" transform="translate(854.447 1478.242)" fill="#173a8d"/>
      <path id="Path_7604" data-name="Path 7604" d="M23.749,30.793c-.41.352-2.228-1.172-4.045-3.4s-3.048-4.221-2.638-4.573,2.169,1.231,4.045,3.4,2.99,4.573,2.638,4.573" transform="translate(862.209 1478.104)" fill="#173a8d"/>
      <path id="Path_7605" data-name="Path 7605" d="M23.777,19.345c.352.352-.938,2.228-2.814,4.162s-3.752,3.166-4.1,2.814.879-2.169,2.814-4.1,3.752-3.459,4.1-2.873" transform="translate(861.302 1460.826)" fill="#173a8d"/>
      <path id="Path_7606" data-name="Path 7606" d="M19.816,25.151c-.293.352-2.052-.528-3.869-2.052S12.9,20.05,13.25,19.64s2.052.528,3.869,2.052,3.048,3.048,2.7,3.459" transform="translate(843.748 1462.406)" fill="#173a8d"/>
      <path id="Path_7607" data-name="Path 7607" d="M19.5,22.716c.352.352-.762,2.169-2.462,4.1s-3.459,3.166-3.869,2.814.762-2.169,2.462-4.045,3.459-3.224,3.869-2.873" transform="translate(843.243 1477.563)" fill="#173a8d"/>
    </g>
    <g id="Group_4695" data-name="Group 4695" transform="translate(47.417 -65.75)">
      <path id="Path_7600-2" data-name="Path 7600" d="M29.3,22.6a47.441,47.441,0,0,1-18.76,0,26.248,26.248,0,0,1,9.38-.879,25.985,25.985,0,0,1,9.38.879" transform="translate(830.864 1472.516)" fill="#173a8d"/>
      <path id="Path_7601-2" data-name="Path 7601" d="M16.217,17.44a48.92,48.92,0,0,1,0,19.053,48.92,48.92,0,0,1,0-19.053" transform="translate(853.913 1452.18)" fill="#173a8d"/>
      <path id="Path_7602-2" data-name="Path 7602" d="M17.25,22.467a47.441,47.441,0,0,1,18.76,0,47.441,47.441,0,0,1-18.76,0" transform="translate(863.49 1472.066)" fill="#173a8d"/>
      <path id="Path_7603-2" data-name="Path 7603" d="M16.327,41.794a48.622,48.622,0,0,1,0-18.994,48.622,48.622,0,0,1,0,18.994" transform="translate(854.447 1478.242)" fill="#173a8d"/>
      <path id="Path_7604-2" data-name="Path 7604" d="M23.749,30.793c-.41.352-2.228-1.172-4.045-3.4s-3.048-4.221-2.638-4.573,2.169,1.231,4.045,3.4,2.99,4.573,2.638,4.573" transform="translate(862.209 1478.104)" fill="#173a8d"/>
      <path id="Path_7605-2" data-name="Path 7605" d="M23.777,19.345c.352.352-.938,2.228-2.814,4.162s-3.752,3.166-4.1,2.814.879-2.169,2.814-4.1,3.752-3.459,4.1-2.873" transform="translate(861.302 1460.826)" fill="#173a8d"/>
      <path id="Path_7606-2" data-name="Path 7606" d="M19.816,25.151c-.293.352-2.052-.528-3.869-2.052S12.9,20.05,13.25,19.64s2.052.528,3.869,2.052,3.048,3.048,2.7,3.459" transform="translate(843.748 1462.406)" fill="#173a8d"/>
      <path id="Path_7607-2" data-name="Path 7607" d="M19.5,22.716c.352.352-.762,2.169-2.462,4.1s-3.459,3.166-3.869,2.814.762-2.169,2.462-4.045,3.459-3.224,3.869-2.873" transform="translate(843.243 1477.563)" fill="#173a8d"/>
    </g>
    <g id="Group_4696" data-name="Group 4696" transform="translate(-640.583 144.121)">
      <path id="Path_7600-3" data-name="Path 7600" d="M29.3,22.6a47.441,47.441,0,0,1-18.76,0,26.248,26.248,0,0,1,9.38-.879,25.985,25.985,0,0,1,9.38.879" transform="translate(830.864 1472.516)" fill="#173a8d"/>
      <path id="Path_7601-3" data-name="Path 7601" d="M16.217,17.44a48.92,48.92,0,0,1,0,19.053,48.92,48.92,0,0,1,0-19.053" transform="translate(853.913 1452.18)" fill="#173a8d"/>
      <path id="Path_7602-3" data-name="Path 7602" d="M17.25,22.467a47.441,47.441,0,0,1,18.76,0,47.441,47.441,0,0,1-18.76,0" transform="translate(863.49 1472.066)" fill="#173a8d"/>
      <path id="Path_7603-3" data-name="Path 7603" d="M16.327,41.794a48.622,48.622,0,0,1,0-18.994,48.622,48.622,0,0,1,0,18.994" transform="translate(854.447 1478.242)" fill="#173a8d"/>
      <path id="Path_7604-3" data-name="Path 7604" d="M23.749,30.793c-.41.352-2.228-1.172-4.045-3.4s-3.048-4.221-2.638-4.573,2.169,1.231,4.045,3.4,2.99,4.573,2.638,4.573" transform="translate(862.209 1478.104)" fill="#173a8d"/>
      <path id="Path_7605-3" data-name="Path 7605" d="M23.777,19.345c.352.352-.938,2.228-2.814,4.162s-3.752,3.166-4.1,2.814.879-2.169,2.814-4.1,3.752-3.459,4.1-2.873" transform="translate(861.302 1460.826)" fill="#173a8d"/>
      <path id="Path_7606-3" data-name="Path 7606" d="M19.816,25.151c-.293.352-2.052-.528-3.869-2.052S12.9,20.05,13.25,19.64s2.052.528,3.869,2.052,3.048,3.048,2.7,3.459" transform="translate(843.748 1462.406)" fill="#173a8d"/>
      <path id="Path_7607-3" data-name="Path 7607" d="M19.5,22.716c.352.352-.762,2.169-2.462,4.1s-3.459,3.166-3.869,2.814.762-2.169,2.462-4.045,3.459-3.224,3.869-2.873" transform="translate(843.243 1477.563)" fill="#173a8d"/>
    </g>
    <g id="Group_4699" data-name="Group 4699" transform="translate(-777.404 233.129)">
      <path id="Path_7600-4" data-name="Path 7600" d="M29.3,22.6a47.441,47.441,0,0,1-18.76,0,26.248,26.248,0,0,1,9.38-.879,25.985,25.985,0,0,1,9.38.879" transform="translate(830.864 1472.516)" fill="#173a8d"/>
      <path id="Path_7601-4" data-name="Path 7601" d="M16.217,17.44a48.92,48.92,0,0,1,0,19.053,48.92,48.92,0,0,1,0-19.053" transform="translate(853.913 1452.18)" fill="#173a8d"/>
      <path id="Path_7602-4" data-name="Path 7602" d="M17.25,22.467a47.441,47.441,0,0,1,18.76,0,47.441,47.441,0,0,1-18.76,0" transform="translate(863.49 1472.066)" fill="#173a8d"/>
      <path id="Path_7603-4" data-name="Path 7603" d="M16.327,41.794a48.622,48.622,0,0,1,0-18.994,48.622,48.622,0,0,1,0,18.994" transform="translate(854.447 1478.242)" fill="#173a8d"/>
      <path id="Path_7604-4" data-name="Path 7604" d="M23.749,30.793c-.41.352-2.228-1.172-4.045-3.4s-3.048-4.221-2.638-4.573,2.169,1.231,4.045,3.4,2.99,4.573,2.638,4.573" transform="translate(862.209 1478.104)" fill="#173a8d"/>
      <path id="Path_7605-4" data-name="Path 7605" d="M23.777,19.345c.352.352-.938,2.228-2.814,4.162s-3.752,3.166-4.1,2.814.879-2.169,2.814-4.1,3.752-3.459,4.1-2.873" transform="translate(861.302 1460.826)" fill="#173a8d"/>
      <path id="Path_7606-4" data-name="Path 7606" d="M19.816,25.151c-.293.352-2.052-.528-3.869-2.052S12.9,20.05,13.25,19.64s2.052.528,3.869,2.052,3.048,3.048,2.7,3.459" transform="translate(843.748 1462.406)" fill="#173a8d"/>
      <path id="Path_7607-4" data-name="Path 7607" d="M19.5,22.716c.352.352-.762,2.169-2.462,4.1s-3.459,3.166-3.869,2.814.762-2.169,2.462-4.045,3.459-3.224,3.869-2.873" transform="translate(843.243 1477.563)" fill="#173a8d"/>
    </g>
    <g id="Group_4697" data-name="Group 4697" transform="translate(-748.356 -49.977)">
      <path id="Path_7600-5" data-name="Path 7600" d="M29.3,22.6a47.441,47.441,0,0,1-18.76,0,26.248,26.248,0,0,1,9.38-.879,25.985,25.985,0,0,1,9.38.879" transform="translate(830.864 1472.516)" fill="#173a8d"/>
      <path id="Path_7601-5" data-name="Path 7601" d="M16.217,17.44a48.92,48.92,0,0,1,0,19.053,48.92,48.92,0,0,1,0-19.053" transform="translate(853.913 1452.18)" fill="#173a8d"/>
      <path id="Path_7602-5" data-name="Path 7602" d="M17.25,22.467a47.441,47.441,0,0,1,18.76,0,47.441,47.441,0,0,1-18.76,0" transform="translate(863.49 1472.066)" fill="#173a8d"/>
      <path id="Path_7603-5" data-name="Path 7603" d="M16.327,41.794a48.622,48.622,0,0,1,0-18.994,48.622,48.622,0,0,1,0,18.994" transform="translate(854.447 1478.242)" fill="#173a8d"/>
      <path id="Path_7604-5" data-name="Path 7604" d="M23.749,30.793c-.41.352-2.228-1.172-4.045-3.4s-3.048-4.221-2.638-4.573,2.169,1.231,4.045,3.4,2.99,4.573,2.638,4.573" transform="translate(862.209 1478.104)" fill="#173a8d"/>
      <path id="Path_7605-5" data-name="Path 7605" d="M23.777,19.345c.352.352-.938,2.228-2.814,4.162s-3.752,3.166-4.1,2.814.879-2.169,2.814-4.1,3.752-3.459,4.1-2.873" transform="translate(861.302 1460.826)" fill="#173a8d"/>
      <path id="Path_7606-5" data-name="Path 7606" d="M19.816,25.151c-.293.352-2.052-.528-3.869-2.052S12.9,20.05,13.25,19.64s2.052.528,3.869,2.052,3.048,3.048,2.7,3.459" transform="translate(843.748 1462.406)" fill="#173a8d"/>
      <path id="Path_7607-5" data-name="Path 7607" d="M19.5,22.716c.352.352-.762,2.169-2.462,4.1s-3.459,3.166-3.869,2.814.762-2.169,2.462-4.045,3.459-3.224,3.869-2.873" transform="translate(843.243 1477.563)" fill="#173a8d"/>
    </g>
    <g id="Group_4698" data-name="Group 4698" transform="translate(87.596 189.602)">
      <path id="Path_7600-6" data-name="Path 7600" d="M29.3,22.6a47.441,47.441,0,0,1-18.76,0,26.248,26.248,0,0,1,9.38-.879,25.985,25.985,0,0,1,9.38.879" transform="translate(830.864 1472.516)" fill="#173a8d"/>
      <path id="Path_7601-6" data-name="Path 7601" d="M16.217,17.44a48.92,48.92,0,0,1,0,19.053,48.92,48.92,0,0,1,0-19.053" transform="translate(853.913 1452.18)" fill="#173a8d"/>
      <path id="Path_7602-6" data-name="Path 7602" d="M17.25,22.467a47.441,47.441,0,0,1,18.76,0,47.441,47.441,0,0,1-18.76,0" transform="translate(863.49 1472.066)" fill="#173a8d"/>
      <path id="Path_7603-6" data-name="Path 7603" d="M16.327,41.794a48.622,48.622,0,0,1,0-18.994,48.622,48.622,0,0,1,0,18.994" transform="translate(854.447 1478.242)" fill="#173a8d"/>
      <path id="Path_7604-6" data-name="Path 7604" d="M23.749,30.793c-.41.352-2.228-1.172-4.045-3.4s-3.048-4.221-2.638-4.573,2.169,1.231,4.045,3.4,2.99,4.573,2.638,4.573" transform="translate(862.209 1478.104)" fill="#173a8d"/>
      <path id="Path_7605-6" data-name="Path 7605" d="M23.777,19.345c.352.352-.938,2.228-2.814,4.162s-3.752,3.166-4.1,2.814.879-2.169,2.814-4.1,3.752-3.459,4.1-2.873" transform="translate(861.302 1460.826)" fill="#173a8d"/>
      <path id="Path_7606-6" data-name="Path 7606" d="M19.816,25.151c-.293.352-2.052-.528-3.869-2.052S12.9,20.05,13.25,19.64s2.052.528,3.869,2.052,3.048,3.048,2.7,3.459" transform="translate(843.748 1462.406)" fill="#173a8d"/>
      <path id="Path_7607-6" data-name="Path 7607" d="M19.5,22.716c.352.352-.762,2.169-2.462,4.1s-3.459,3.166-3.869,2.814.762-2.169,2.462-4.045,3.459-3.224,3.869-2.873" transform="translate(843.243 1477.563)" fill="#173a8d"/>
    </g>
  </g>
</svg>
