<svg xmlns="http://www.w3.org/2000/svg" xmlns:xlink="http://www.w3.org/1999/xlink" width="448.703" height="212.879" viewBox="0 0 448.703 212.879">
  <defs>
    <clipPath id="clip-path">
      <rect id="Rectangle_2823" data-name="Rectangle 2823" width="448.703" height="212.879" fill="#b1b8cf"/>
    </clipPath>
  </defs>
  <g id="Group_5372" data-name="Group 5372" transform="translate(-192 -519)">
    <text id="You_have_no_upcoming_services_" data-name="You have no upcoming services  " transform="translate(256 653)" fill="#173a8d" font-size="20" font-family="SharpSans-Bold, Sharp Sans" font-weight="700"><tspan x="0" y="0" xml:space="preserve">You have no upcoming services  </tspan></text>
    <g id="Group_5371" data-name="Group 5371" transform="translate(192 519)">
      <g id="Group_5370" data-name="Group 5370" transform="translate(0 0)" clip-path="url(#clip-path)">
        <path id="Path_8271" data-name="Path 8271" d="M63.638,30.349a7.057,7.057,0,0,1,1.427-7.88l11.608-11.6a7.029,7.029,0,0,1,7.877-1.427l16.444,7.491c1.335-.82,2.7-1.6,4.078-2.345.523-.288,1.061-.556,1.59-.832s1.058-.568,1.6-.835l0,.015a89.257,89.257,0,0,1,40.985-9.783c24.725,0,40.694,9.592,43.081,10.859l0-.006c.051.027.1.056.152.086q2.6,1.387,5.11,2.937c.169.1.348.19.517.294L214.4,9.9a7.029,7.029,0,0,1,7.877,1.427L233.885,22.93a7.055,7.055,0,0,1,1.427,7.877l-7.491,16.444c.086.14.155.288.238.425,1.023,1.676,1.971,3.4,2.886,5.139.143.273.312.532.452.806l-.033.012a91.523,91.523,0,0,1,7.684,21c.009.045.024.092.036.14l16.768,6.272a7.055,7.055,0,0,1,4.56,6.578V88.5H228.618a79.679,79.679,0,0,0-158.744,0h-31.8V86.973a7.055,7.055,0,0,1,4.563-6.578L59.571,74.06l.03-.11a91.458,91.458,0,0,1,6.126-17.484l-.012-.009c.048-.1.1-.193.149-.294.74-1.561,1.513-3.106,2.336-4.616.137-.256.291-.5.431-.752q1-1.8,2.078-3.552c.122-.2.226-.4.351-.6Z" transform="translate(75.107 6.209)" fill="#b1b8cf"/>
        <path id="Path_8272" data-name="Path 8272" d="M243.595,60.454c-7.583,10.115-26.47,18.019-39.415,18.979A39.27,39.27,0,0,1,181.555,74.2a38.748,38.748,0,0,0-30.792-3.451L121.627,80.3l-7.853-2.94a96.28,96.28,0,0,0-5.238-14.97l.172-.068-2.4-4.688c-.113-.223-.238-.44-.473-.847-.7-1.332-1.344-2.512-1.971-3.609l3.7-8.133,39.9-11.153a37.423,37.423,0,0,0,20.421-15.612A39.592,39.592,0,0,1,196.787.3c12.259-1.391,31.752,2.057,41.092,9.875a1.209,1.209,0,0,1-.645,2.125l-35.412,4.022c-11.768,1.335-8.219,40.7,2.408,45.705a16.226,16.226,0,0,0,5.71-.181L233.913,59.5l8.573-.972a1.212,1.212,0,0,1,1.109,1.929" transform="translate(204.865 0)" fill="#b1b8cf"/>
        <path id="Path_8273" data-name="Path 8273" d="M128.035,25.912a9.61,9.61,0,1,0-9.61,9.61,9.61,9.61,0,0,0,9.61-9.61" transform="translate(214.639 32.155)" fill="#b1b8cf"/>
        <path id="Path_8274" data-name="Path 8274" d="M185.818,72.43c.3,1.555.523,3.133.707,4.726h13.593a75.251,75.251,0,0,0-149.85,0h9.2a1.816,1.816,0,0,1-.55-1.355c.205-1.656,3.947-2.556,5.6-2.348l.1.012c.309-1.763.681-3.5,1.135-5.211l-.062-.021c-1.593-.508-4.613-2.892-4.105-4.483s4.349-1.786,5.942-1.278l.068.021c.627-1.671,1.32-3.311,2.084-4.911l-.045-.024c-1.471-.794-4-3.692-3.207-5.163s4.6-.954,6.076-.163l.051.03c.924-1.525,1.92-3,2.97-4.435l-.048-.036c-1.3-1.049-3.249-4.364-2.2-5.666s4.7-.092,6,.957l.051.039q1.779-1.989,3.728-3.82l-.036-.039c-1.079-1.269-2.39-4.887-1.121-5.972s4.637.776,5.722,2.045l.03.036q2.113-1.632,4.364-3.08L92,32.271c-.832-1.448-1.454-5.244-.006-6.076s4.417,1.614,5.249,3.062l.009.015q2.372-1.213,4.86-2.229c-.55-1.581-.458-5.413,1.115-5.966s4.034,2.39,4.593,3.968c1.7-.5,3.43-.945,5.193-1.3-.235-1.671.559-5.377,2.2-5.627s3.5,3.053,3.775,4.717c1.763-.181,3.549-.271,5.351-.3.074-1.682,1.54-5.184,3.2-5.128s2.883,3.641,2.845,5.327q2.7.223,5.321.666c.4-1.65,2.47-4.777,4.078-4.42s2.152,4.055,1.822,5.722c1.736.476,3.448,1.017,5.119,1.635.722-1.552,3.3-4.2,4.8-3.558s1.37,4.34.749,5.933Q154.7,29.894,157,31.278c1-1.391,4.013-3.511,5.368-2.6s.553,4.5-.351,5.963c1.442,1.07,2.83,2.209,4.17,3.4,1.245-1.183,4.59-2.711,5.758-1.569s-.285,4.521-1.442,5.79q1.833,1.975,3.484,4.105c1.448-.933,5-1.81,5.933-.476s-1.1,4.373-2.467,5.416q1.436,2.274,2.672,4.679c1.605-.645,5.235-.844,5.9.63s-1.867,4.081-3.409,4.863q.99,2.5,1.766,5.095c1.7-.333,5.288.14,5.674,1.709s-2.583,3.665-4.242,4.153" transform="translate(99.156 17.55)" fill="#b1b8cf"/>
        <path id="Path_8275" data-name="Path 8275" d="M60.535,59.036a2.387,2.387,0,0,0-2.809,1.926,2.432,2.432,0,0,0,.211,1.486h44.409a11.961,11.961,0,0,1,16.435,0h44.412a2.476,2.476,0,0,0,.211-1.486,2.392,2.392,0,0,0-2.812-1.926l-2.494.508c-.4-1.614-.862-3.2-1.4-4.75l2.348-1a2.478,2.478,0,0,0,1.293-3.2,2.367,2.367,0,0,0-3.124-1.329l-2.348,1q-1.039-2.252-2.283-4.379l2.116-1.451a2.5,2.5,0,0,0,.66-3.4,2.353,2.353,0,0,0-3.314-.678L149.925,41.8c-.963-1.329-1.986-2.613-3.068-3.838l1.8-1.849a2.5,2.5,0,0,0,0-3.469,2.343,2.343,0,0,0-3.38,0l-1.8,1.849q-1.726-1.61-3.6-3.047c-.045-.036-.092-.068-.14-.1l1.418-2.176a2.5,2.5,0,0,0-.66-3.4,2.353,2.353,0,0,0-3.317.678l-1.412,2.173a47.835,47.835,0,0,0-4.266-2.342l.972-2.414a2.473,2.473,0,0,0-1.293-3.2,2.361,2.361,0,0,0-3.121,1.326l-.972,2.411q-2.265-.829-4.631-1.439l.5-2.562a2.449,2.449,0,0,0-1.876-2.883,2.391,2.391,0,0,0-2.812,1.929l-.5,2.562c-.725-.11-1.454-.208-2.191-.285-.868-.092-1.742-.155-2.622-.2V18.9a2.391,2.391,0,1,0-4.78,0V21.52c-1.626.08-3.231.247-4.812.485l-.5-2.562a2.389,2.389,0,0,0-2.812-1.929A2.449,2.449,0,0,0,98.176,20.4l.5,2.562q-2.363.606-4.631,1.439l-.972-2.411a2.363,2.363,0,0,0-3.121-1.326,2.473,2.473,0,0,0-1.293,3.2l.972,2.414a47.834,47.834,0,0,0-4.266,2.342l-1.415-2.173a2.347,2.347,0,0,0-3.314-.678,2.5,2.5,0,0,0-.66,3.4l1.418,2.176q-1.948,1.48-3.739,3.148l-1.8-1.849a2.343,2.343,0,0,0-3.38,0,2.5,2.5,0,0,0,0,3.469l1.8,1.849c-1.082,1.225-2.1,2.509-3.068,3.838l-2.119-1.454a2.352,2.352,0,0,0-3.314.678,2.494,2.494,0,0,0,.657,3.4l2.119,1.451q-1.244,2.122-2.283,4.379l-2.351-1a2.364,2.364,0,0,0-3.121,1.329,2.478,2.478,0,0,0,1.293,3.2l2.348,1c-.541,1.549-1.011,3.136-1.4,4.75Z" transform="translate(113.787 32.445)" fill="#b1b8cf"/>
        <path id="Path_8276" data-name="Path 8276" d="M58.608,7.823a3.2,3.2,0,1,0-3.2-3.2,3.2,3.2,0,0,0,3.2,3.2" transform="translate(109.285 2.794)" fill="#b1b8cf"/>
        <path id="Path_8295" data-name="Path 8295" d="M215.563,53.885H187.086A79.378,79.378,0,0,1,133,75.124,79.378,79.378,0,0,1,78.923,53.885H49.777l-2.839,6.236A7.049,7.049,0,0,0,48.362,68L59.97,79.6a7.029,7.029,0,0,0,7.88,1.43l16.292-7.422c.169.107.351.2.523.3q2.452,1.516,5.009,2.883l.036.021v0a91.7,91.7,0,0,0,14.009,6.031v0l.074.024q1.824.611,3.677,1.144l.3.086q1.828.522,3.686.969l.1.03,6.331,16.931a7.055,7.055,0,0,0,6.578,4.56h16.417a7.058,7.058,0,0,0,6.578-4.56l6.275-16.771c.036-.006.068-.018.1-.027a91.607,91.607,0,0,0,23.524-9l0,.009c1.314-.719,2.613-1.462,3.885-2.244L197.7,81.491a7.024,7.024,0,0,0,7.874-1.427l11.608-11.608a7.056,7.056,0,0,0,1.427-7.877Z" transform="translate(91.349 106.288)" fill="#b1b8cf"/>
        <path id="Path_8296" data-name="Path 8296" d="M62.283,74.2A39.3,39.3,0,0,1,39.66,79.433C26.711,78.47,7.827,70.569.244,60.454A1.211,1.211,0,0,1,1.35,58.525l8.573.972L33.9,61.848a16.2,16.2,0,0,0,5.707.178c10.63-5,14.179-44.368,2.411-45.705L6.605,12.3a1.211,1.211,0,0,1-.648-2.125C15.3,2.359,34.791-1.089,47.049.3a39.583,39.583,0,0,1,28.9,17.984A37.427,37.427,0,0,0,96.372,33.9l39.9,11.153,3.7,8.133c-.627,1.1-1.272,2.277-1.971,3.609-.238.407-.36.624-.473.847l-2.4,4.688.169.065a96.721,96.721,0,0,0-5.235,14.973l-7.853,2.94L93.076,70.753A38.747,38.747,0,0,0,62.283,74.2" transform="translate(0 0)" fill="#b1b8cf"/>
        <path id="Path_8297" data-name="Path 8297" d="M35.669,25.912a9.61,9.61,0,1,0,9.61-9.61,9.61,9.61,0,0,0-9.61,9.61" transform="translate(70.357 32.155)" fill="#b1b8cf"/>
        <path id="Path_8298" data-name="Path 8298" d="M90.738,54.86c-1.04-.282-2.048-.642-3.068-.975H85.3c-.969,1.555-3.148,3.6-4.488,3.035-.841-.357-1.168-1.668-1.192-3.035H59.559a74.866,74.866,0,0,0,47.313,16.8,74.879,74.879,0,0,0,47.313-16.8H130.471c.155,1.781-.166,4.087-1.361,4.512-1.558.553-4-2.316-4.59-3.9-1.709.505-3.439.951-5.2,1.308.232,1.682-.547,5.353-2.176,5.609s-3.516-3.035-3.8-4.7c-1.76.178-3.546.268-5.345.3-.059,1.676-1.51,5.211-3.175,5.163s-2.919-3.686-2.871-5.356v0q-2.689-.218-5.306-.66c-.357,1.635-2.443,4.857-4.072,4.5s-2.191-4.159-1.837-5.79Z" transform="translate(117.481 106.288)" fill="#b1b8cf"/>
        <path id="Path_8299" data-name="Path 8299" d="M97.4,7.823a3.2,3.2,0,1,0-3.2-3.2,3.2,3.2,0,0,0,3.2,3.2" transform="translate(185.808 2.794)" fill="#b1b8cf"/>
      </g>
    </g>
  </g>
</svg>
