<svg id="Group_5240" data-name="Group 5240" xmlns="http://www.w3.org/2000/svg" xmlns:xlink="http://www.w3.org/1999/xlink" width="510" height="360.63" viewBox="0 0 510 360.63">
  <defs>
    <clipPath id="clip-path">
      <rect id="Rectangle_2774" data-name="Rectangle 2774" width="510" height="360.63" fill="none"/>
    </clipPath>
    <clipPath id="clip-path-3">
      <rect id="Rectangle_2763" data-name="Rectangle 2763" width="83.332" height="26.987" transform="translate(319.855 291.722)" fill="none" stroke="#000" stroke-width="1"/>
    </clipPath>
    <clipPath id="clip-path-4">
      <rect id="Rectangle_2764" data-name="Rectangle 2764" width="39.751" height="49.11" transform="translate(324.664 240.39)" fill="none" stroke="#000" stroke-width="1"/>
    </clipPath>
    <clipPath id="clip-path-5">
      <rect id="Rectangle_2765" data-name="Rectangle 2765" width="92.897" height="29.596" transform="translate(116.016 292.199)" fill="none" stroke="#000" stroke-width="1"/>
    </clipPath>
    <clipPath id="clip-path-6">
      <rect id="Rectangle_2766" data-name="Rectangle 2766" width="32.25" height="33.697" transform="translate(179.505 289.057)" fill="none"/>
    </clipPath>
    <clipPath id="clip-path-7">
      <rect id="Rectangle_2767" data-name="Rectangle 2767" width="33.247" height="77.103" transform="translate(174.838 231.646)" fill="none" stroke="#000" stroke-width="1"/>
    </clipPath>
    <clipPath id="clip-path-8">
      <rect id="Rectangle_2768" data-name="Rectangle 2768" width="7.5" height="42.873" transform="translate(195.029 250.952)" fill="none" stroke="#000" stroke-width="1"/>
    </clipPath>
    <clipPath id="clip-path-9">
      <rect id="Rectangle_2769" data-name="Rectangle 2769" width="155.33" height="248.28" transform="translate(180.36 108.634)" fill="none"/>
    </clipPath>
    <clipPath id="clip-path-10">
      <rect id="Rectangle_2770" data-name="Rectangle 2770" width="150.27" height="245.75" transform="translate(182.89 108.634)" fill="none"/>
    </clipPath>
    <clipPath id="clip-path-11">
      <rect id="Rectangle_2771" data-name="Rectangle 2771" width="53.787" height="77.377" transform="translate(191.379 117.313)" fill="none"/>
    </clipPath>
    <clipPath id="clip-path-12">
      <rect id="Rectangle_2772" data-name="Rectangle 2772" width="53.787" height="77.377" transform="translate(191.379 258.797)" fill="none"/>
    </clipPath>
  </defs>
  <g id="Group_5239" data-name="Group 5239" clip-path="url(#clip-path)">
    <g id="Group_5238" data-name="Group 5238">
      <g id="Group_5237" data-name="Group 5237" clip-path="url(#clip-path)">
        <path id="Path_8006" data-name="Path 8006" d="M195.511,211.529a1.3,1.3,0,1,1-1.3-1.3,1.3,1.3,0,0,1,1.3,1.3" fill="#173a8d"/>
        <path id="Path_8007" data-name="Path 8007" d="M122.464,36.543a1.3,1.3,0,1,1-1.3-1.3,1.3,1.3,0,0,1,1.3,1.3" fill="#173a8d"/>
        <path id="Path_8008" data-name="Path 8008" d="M301.118,79.543a1.3,1.3,0,1,1-1.3-1.3,1.3,1.3,0,0,1,1.3,1.3" fill="#173a8d"/>
        <path id="Path_8009" data-name="Path 8009" d="M421.68,79.543a1.3,1.3,0,1,1-1.3-1.3,1.3,1.3,0,0,1,1.3,1.3" fill="#173a8d"/>
        <path id="Path_8010" data-name="Path 8010" d="M382.745,155.64a1.3,1.3,0,1,1-1.3-1.3,1.3,1.3,0,0,1,1.3,1.3" fill="#173a8d"/>
        <path id="Path_8011" data-name="Path 8011" d="M67.477,110.94a.509.509,0,0,1-.509-.509v-3.6a.509.509,0,0,1,1.018,0v3.6a.509.509,0,0,1-.509.509" fill="#173a8d"/>
        <path id="Path_8012" data-name="Path 8012" d="M69.274,109.143H65.68a.509.509,0,1,1,0-1.019h3.594a.509.509,0,0,1,0,1.019" fill="#173a8d"/>
        <path id="Path_8013" data-name="Path 8013" d="M127.743,166.23a.509.509,0,0,1-.509-.509v-3.595a.509.509,0,1,1,1.018,0v3.595a.509.509,0,0,1-.509.509" fill="#173a8d"/>
        <path id="Path_8014" data-name="Path 8014" d="M129.54,164.433h-3.594a.509.509,0,0,1,0-1.019h3.594a.509.509,0,0,1,0,1.019" fill="#173a8d"/>
        <path id="Path_8015" data-name="Path 8015" d="M370.249,21.365a.51.51,0,0,1-.51-.509v-3.6a.51.51,0,0,1,1.02,0v3.6a.51.51,0,0,1-.51.509" fill="#173a8d"/>
        <path id="Path_8016" data-name="Path 8016" d="M372.047,19.568h-3.6a.51.51,0,1,1,0-1.019h3.6a.51.51,0,1,1,0,1.019" fill="#389fe5"/>
        <path id="Path_8017" data-name="Path 8017" d="M476.464,170.342a.51.51,0,0,1-.51-.509v-3.595a.51.51,0,0,1,1.02,0v3.595a.51.51,0,0,1-.51.509" fill="#173a8d"/>
        <path id="Path_8018" data-name="Path 8018" d="M478.262,168.545h-3.6a.509.509,0,0,1,0-1.019h3.6a.509.509,0,0,1,0,1.019" fill="#173a8d"/>
        <path id="Path_8019" data-name="Path 8019" d="M309.6,224.514a.511.511,0,0,1-.51-.51V220.41a.51.51,0,0,1,1.02,0V224a.511.511,0,0,1-.51.51" fill="#173a8d"/>
        <path id="Path_8020" data-name="Path 8020" d="M311.4,222.717H307.8a.509.509,0,0,1,0-1.019H311.4a.509.509,0,1,1,0,1.019" fill="#173a8d"/>
        <path id="Path_8021" data-name="Path 8021" d="M255.716,4.613a.51.51,0,0,1-.51-.509V.509a.51.51,0,0,1,1.02,0V4.1a.51.51,0,0,1-.51.509" fill="#173a8d"/>
        <path id="Path_8022" data-name="Path 8022" d="M257.514,2.816h-3.6a.51.51,0,1,1,0-1.019h3.6a.51.51,0,1,1,0,1.019" fill="#173a8d"/>
        <path id="Path_8023" data-name="Path 8023" d="M304.174,322.289c4.234-8.6,11.067-15.72,18.621-21.5,6.093-4.665,12.979-9.2,20.194-11.879,6.4-2.376,7.816,3.212,12.981,5.124,3.3,1.222,6.963-.646,9.558-3.024,2.5-2.294,4.575-5.17,7.562-6.885,2.2-1.266,5.494-1.9,7.806-.541,2.872,1.686,2.384,5.832,6.262,6.3a9.53,9.53,0,0,0,5.243-1.231,74.275,74.275,0,0,1,11.785-4.842c3.729-1.094,8.56-1.458,10.713,1.778,2.066,3.1.1,7.316-2.383,10.1-5.985,6.688-14.835,10.3-23.732,11.483a26.054,26.054,0,0,0-7.164,1.482c-2.241.988-4.221,3.023-4.312,5.469-.049,1.318.445,2.6.461,3.921.046,3.657-3.564,6.39-7.129,7.206-9.178,2.1-15.154-5.961-23.784-7.2-9.785-1.4-24.847.125-31.642,8.362" fill="#233ec4"/>
        <g id="Group_5209" data-name="Group 5209" opacity="0.5">
          <g id="Group_5208" data-name="Group 5208">
            <g id="Group_5207" data-name="Group 5207" clip-path="url(#clip-path-3)">
              <path id="Path_8024" data-name="Path 8024" d="M320.3,318.264a64.066,64.066,0,0,1,35.127-16.369c8.177-1.059,16.467-.552,24.677-1.295s16.722-2.958,22.637-8.432" fill="none" stroke="#000" stroke-linecap="round" stroke-linejoin="round" stroke-width="0.891"/>
            </g>
          </g>
        </g>
        <path id="Path_8025" data-name="Path 8025" d="M363.156,281.873c4.888-2.826,10.138-6.758,8.751-12.753-.455-1.966-1.9-3.758-1.656-5.761a10.6,10.6,0,0,1,1.685-3.588,10.9,10.9,0,0,0,.565-9.173c-1.263-3.159-3.934-5.533-5.6-8.5A14.98,14.98,0,0,1,365,234.1c-5.163.543-9.623,3.8-14.619,5.208-3.822,1.077-7.9,1.056-11.675,2.294a18.681,18.681,0,0,0-12.5,16.2,10.287,10.287,0,0,0-8.755,3.854,13.346,13.346,0,0,0-2.655,10.042c2.25,14.537,9.731,26.1,19.3,36.879-2.082-2.346,4.31-9.633,5.546-11.053,5.374-6.172,12.746-9.726,19.791-13.6,1.123-.616,2.407-1.294,3.716-2.051" fill="#233ec4"/>
        <g id="Group_5212" data-name="Group 5212" opacity="0.5">
          <g id="Group_5211" data-name="Group 5211">
            <g id="Group_5210" data-name="Group 5210" clip-path="url(#clip-path-4)">
              <path id="Path_8026" data-name="Path 8026" d="M335.262,289.055c-1.217-6.233.411-12.653,2.4-18.682a73.257,73.257,0,0,1,7.625-16.874,36.115,36.115,0,0,1,13.3-12.663" fill="none" stroke="#000" stroke-linecap="round" stroke-linejoin="round" stroke-width="0.891"/>
              <path id="Path_8027" data-name="Path 8027" d="M336.912,246.714a50.937,50.937,0,0,0,2.9,17.7" fill="none" stroke="#000" stroke-linecap="round" stroke-linejoin="round" stroke-width="0.891"/>
              <path id="Path_8028" data-name="Path 8028" d="M340.677,262.313a44.151,44.151,0,0,1,23.292-8.355" fill="none" stroke="#000" stroke-linecap="round" stroke-linejoin="round" stroke-width="0.891"/>
              <path id="Path_8029" data-name="Path 8029" d="M325.109,264.8c8.009,2.545,9.366,13.855,9.867,17.058" fill="none" stroke="#000" stroke-linecap="round" stroke-linejoin="round" stroke-width="0.891"/>
              <path id="Path_8030" data-name="Path 8030" d="M336.418,274.452c5.513-4.773,15-9.868,21.418-8.865" fill="none" stroke="#000" stroke-linecap="round" stroke-linejoin="round" stroke-width="0.891"/>
              <path id="Path_8031" data-name="Path 8031" d="M335.252,288.473c4.383-5.843,16.348-12.984,22.768-11.981" fill="none" stroke="#000" stroke-linecap="round" stroke-linejoin="round" stroke-width="0.891"/>
              <path id="Path_8032" data-name="Path 8032" d="M349.732,242.6a9.354,9.354,0,0,0-1.434,6.78" fill="none" stroke="#000" stroke-linecap="round" stroke-linejoin="round" stroke-width="0.891"/>
              <path id="Path_8033" data-name="Path 8033" d="M349.832,247.63a14.825,14.825,0,0,1,10.179-1.676" fill="none" stroke="#000" stroke-linecap="round" stroke-linejoin="round" stroke-width="0.891"/>
            </g>
          </g>
        </g>
        <path id="Path_8034" data-name="Path 8034" d="M223.973,332.768C217.359,314.651,200.4,297.746,183.7,288.1c-4.073-2.353-10.016-4.132-11.881,1.485-1.2,3.613-5.409,2.672-7.812,1-2.981-2.071-4.718-5.429-7.248-7.957a13.91,13.91,0,0,0-7.462-4.048,9.527,9.527,0,0,0-8.013,2.268c-1.58,1.5-2.527,3.624-4.276,4.928-2.933,2.188-7.2,1.374-10.318-.539s-5.576-4.745-8.6-6.806-7.1-3.282-10.315-1.538c-4.264,2.311-4.654,8.469-2.844,12.968,1.118,2.778,2.884,6.807,5.006,8.983a22.659,22.659,0,0,0,11.593,5.969c3.09.606,6.285.589,9.348,1.317,1.106.263,2.378.731,2.6,2.006.32,1.842-1.958,2.97-3.288,3.64-2.3,1.16-4.581,3.688-3.507,6.032.674,1.469,2.4,2.125,3.991,2.4,4.787.814,9.535-.568,14.074-1.966,2.762-.852,5.185-2.578,8.017-3.311,1.473-.38,5.244-.547,4.837,1.941a3.419,3.419,0,0,1-1.281,1.93,13.621,13.621,0,0,0-1.772,1.562c-2.176,2.647-.018,5.764,2.841,6.451,2.2.529,4.488-.034,6.688-.548,14.382-3.359,29.457-4.66,43.932-1.726,3.084.624,6.455,1.678,8,4.419" fill="#233ec4"/>
        <g id="Group_5215" data-name="Group 5215" opacity="0.5">
          <g id="Group_5214" data-name="Group 5214">
            <g id="Group_5213" data-name="Group 5213" clip-path="url(#clip-path-5)">
              <path id="Path_8035" data-name="Path 8035" d="M208.467,321.35a71.4,71.4,0,0,0-39.227-18.082c-9.118-1.143-18.356-.539-27.51-1.329s-18.651-3.22-25.269-9.294" fill="none" stroke="#000" stroke-linecap="round" stroke-linejoin="round" stroke-width="0.891"/>
            </g>
          </g>
        </g>
        <g id="Group_5218" data-name="Group 5218" opacity="0.25" style="mix-blend-mode: multiply;isolation: isolate">
          <g id="Group_5217" data-name="Group 5217">
            <g id="Group_5216" data-name="Group 5216" clip-path="url(#clip-path-6)">
              <path id="Path_8036" data-name="Path 8036" d="M211.755,322.754s-25.149-16.728-32.25-33.7a27.653,27.653,0,0,1,11.266,5.6c3.632,5.135,12.283,13.009,18.15,18.12.836,2.8,1.774,6.091,2.834,9.978" fill="#fcccb1"/>
            </g>
          </g>
        </g>
        <path id="Path_8037" data-name="Path 8037" d="M210.8,317.009c-.943-5.908-3.548-11.772-4.57-17.78a82.007,82.007,0,0,1-.113-28.875c1.516-8.154,4.038-16.69,1.277-24.94-.734-2.192-2.086-4.559-4.928-4.536a4.692,4.692,0,0,0-3.041,1.212c-2.072,1.837-2.454,4.477-2.791,7l-1.127,8.431c-.367,2.743-4.544,3.072-5.382.4-.007-.022-.013-.045-.02-.067a18.628,18.628,0,0,1-.38-6.922c.394-5.03,1.036-10.1.266-15.109-.932-6.063-4.256-12.211-10.736-14.488a11.892,11.892,0,0,0-7.158-.246c-6.488,1.854-7.8,7.968-6.5,13.091.916,3.6,2.949,6.872,4.808,10.156,4.541,8.022,2.087,15.647,3.226,24.617,2.412,19,21.006,37.369,37.168,48.055" fill="#003cca"/>
        <g id="Group_5221" data-name="Group 5221" opacity="0.5">
          <g id="Group_5220" data-name="Group 5220">
            <g id="Group_5219" data-name="Group 5219" clip-path="url(#clip-path-7)">
              <path id="Path_8038" data-name="Path 8038" d="M175.283,232.092c13.588,16.441,8.677,55.259,32.357,76.212" fill="none" stroke="#000" stroke-linecap="round" stroke-linejoin="round" stroke-width="0.891"/>
            </g>
          </g>
        </g>
        <g id="Group_5224" data-name="Group 5224" opacity="0.5">
          <g id="Group_5223" data-name="Group 5223">
            <g id="Group_5222" data-name="Group 5222" clip-path="url(#clip-path-8)">
              <path id="Path_8039" data-name="Path 8039" d="M201.8,251.4c1.552,8.311-3.79,17.638-5.03,22.81s-1.895,13.977-.564,19.172" fill="none" stroke="#000" stroke-linecap="round" stroke-linejoin="round" stroke-width="0.891"/>
            </g>
          </g>
        </g>
        <path id="Path_8040" data-name="Path 8040" d="M162.779,332.6c-.587-3.323-9.866-24.038-20.606-18.49-6.38,3.295-5.233,15.428,4.732,24.594-1.955-1.892-4.214-4.037-6.883-4.567a5.321,5.321,0,0,0-4.287,1.375,5.031,5.031,0,0,0-1.288,3.6,14.158,14.158,0,0,0,6.3,12.107c-2.2-1.232-4.114-2.774-6.629-2.99a3.082,3.082,0,0,0-2.581,1.126c-.412.793-.383,3.762,4.469,5.98-19.778-3.751-20.932,4.68-13.822,4.68h58.306" fill="#91b3fa"/>
        <path id="Path_8041" data-name="Path 8041" d="M199.842,316.15c-.939-5.32-10.738-38.762-27.933-29.882-10.213,5.276-8.377,24.7,7.577,39.375-3.131-3.029-6.747-6.463-11.02-7.312a8.516,8.516,0,0,0-6.862,2.2c-1.539,1.42-1.991,3.664-2.062,5.757a22.659,22.659,0,0,0,10.093,19.383c-3.528-1.972-6.586-4.441-10.613-4.786-1.309-.113-3.527.636-4.132,1.8-.659,1.268-.613,6.023,7.154,9.574-31.662-6.005-33.509,7.491-22.128,7.491h75.217" fill="#a6c1fa"/>
        <path id="Path_8042" data-name="Path 8042" d="M369.225,332.6c.587-3.323,9.866-24.038,20.606-18.49,6.38,3.295,5.233,15.428-4.732,24.594,1.955-1.892,4.214-4.037,6.883-4.567a5.321,5.321,0,0,1,4.287,1.375,5.031,5.031,0,0,1,1.288,3.6,14.158,14.158,0,0,1-6.3,12.107c2.2-1.232,4.114-2.774,6.629-2.99a3.082,3.082,0,0,1,2.581,1.126c.412.793.383,3.762-4.469,5.98,19.778-3.751,20.932,4.68,13.822,4.68H351.509" fill="#173a8d"/>
        <path id="Path_8043" data-name="Path 8043" d="M332.162,316.15c.939-5.32,10.738-38.762,27.933-29.882,10.213,5.276,8.377,24.7-7.577,39.375,3.131-3.029,6.747-6.463,11.02-7.312a8.516,8.516,0,0,1,6.862,2.2c1.539,1.42,1.991,3.664,2.062,5.757a22.659,22.659,0,0,1-10.093,19.383c3.528-1.972,6.586-4.441,10.613-4.786,1.309-.113,3.527.636,4.132,1.8.659,1.268.613,6.023-7.155,9.574,31.663-6.005,33.51,7.491,22.129,7.491H316.871" fill="#91b3fa"/>
        <g id="Group_5227" data-name="Group 5227" opacity="0.2">
          <g id="Group_5226" data-name="Group 5226">
            <g id="Group_5225" data-name="Group 5225" clip-path="url(#clip-path-9)">
              <path id="Path_8044" data-name="Path 8044" d="M278.77,247.664c-8.71-2.4-15.34-9.79-15.86-18.81-.02-.44-.04-.87-.04-1.3a2.612,2.612,0,0,1,.02-.39,2.482,2.482,0,0,1-.02-.39c0-.43.02-.86.04-1.3.52-9.02,7.15-16.41,15.86-18.81a77.72,77.72,0,0,0,56.92-74.86,76.678,76.678,0,0,0-1.28-14.06c-.14-.78-.29-1.55-.46-2.31-.12-.56-.24-1.12-.38-1.68a.355.355,0,0,0-.02-.1c-.07-.29-.14-.58-.22-.87-.13-.56-.27-1.1-.43-1.65-.23-.84-.47-1.67-.73-2.5h-2.65c.09.27.18.54.25.81a.783.783,0,0,1,.05.14q.225.705.42,1.41c.09.31.18.61.25.92.14.49.27.97.39,1.46.08.31.16.62.22.92.13.5.24.99.34,1.49.04.17.08.34.11.51.01.06.03.13.04.2q.18.855.33,1.71a75.161,75.161,0,0,1-53.82,86.02c-10.03,2.77-17.15,11.24-17.71,21.11-.03.48-.04.96-.04,1.44,0,.13,0,.27.01.39-.01.13-.01.27-.01.39,0,.48.01.96.04,1.44.56,9.87,7.68,18.35,17.71,21.11a75.173,75.173,0,0,1,53.82,86.03,73.156,73.156,0,0,1-5.83,18.25H189.96a73.532,73.532,0,0,1-5.84-18.26,75.225,75.225,0,0,1,53.83-86.02c10.03-2.76,17.14-11.24,17.71-21.11.03-.48.04-.96.04-1.44,0-.12,0-.26-.01-.39.01-.12.01-.26.01-.39,0-.48-.01-.96-.04-1.44-.57-9.87-7.68-18.34-17.71-21.11a75.225,75.225,0,0,1-53.83-86.02c.14-.79.3-1.57.47-2.36,0-.02.01-.04.01-.06.17-.76.34-1.52.53-2.28.01-.04.02-.08.03-.13.15-.58.3-1.17.47-1.74.01-.05.03-.09.04-.14.05-.22.12-.45.19-.67.11-.42.24-.83.37-1.24a.784.784,0,0,1,.05-.14c.07-.27.16-.54.25-.81h-2.65c-.26.83-.5,1.66-.73,2.5-.16.55-.3,1.09-.43,1.65-.08.29-.15.58-.22.87a.355.355,0,0,0-.02.1c-.14.56-.26,1.12-.38,1.68-.17.76-.32,1.53-.46,2.31a76.678,76.678,0,0,0-1.28,14.06,77.708,77.708,0,0,0,56.92,74.86c8.7,2.4,15.34,9.79,15.85,18.81.03.44.04.87.04,1.3,0,.13,0,.27-.01.39.01.13.01.27.01.39,0,.43-.01.86-.04,1.3-.51,9.02-7.15,16.41-15.85,18.81a77.717,77.717,0,0,0-56.92,74.86,77.81,77.81,0,0,0,8.01,34.39H327.68a77.81,77.81,0,0,0,8.01-34.39,77.729,77.729,0,0,0-56.92-74.86" fill="#389fe5"/>
            </g>
          </g>
        </g>
        <path id="Path_8045" data-name="Path 8045" d="M333.16,322.524a74.817,74.817,0,0,1-1.24,13.61,73.156,73.156,0,0,1-5.83,18.25H189.96a73.532,73.532,0,0,1-5.84-18.26,75.225,75.225,0,0,1,53.83-86.02c10.03-2.76,17.14-11.24,17.71-21.11.03-.48.04-.96.04-1.44,0-.12,0-.26-.01-.39.01-.12.01-.26.01-.39,0-.48-.01-.96-.04-1.44-.57-9.87-7.68-18.34-17.71-21.11a75.225,75.225,0,0,1-53.83-86.02c.14-.79.3-1.57.47-2.36,0-.02.01-.04.01-.06.16-.76.34-1.52.53-2.28.01-.04.02-.08.03-.13.16-.63.32-1.25.51-1.88.17-.64.36-1.28.56-1.91.1-.32.2-.64.3-.95H329.52c.1.31.2.63.3.95q.225.705.42,1.41c.09.31.18.61.25.92.14.49.27.97.39,1.46.08.31.16.62.22.92.13.5.24.99.34,1.49.05.23.1.47.15.71q.18.855.33,1.71a75.161,75.161,0,0,1-53.82,86.02c-10.03,2.77-17.15,11.24-17.71,21.11-.03.48-.04.96-.04,1.44,0,.13,0,.27.01.39-.01.13-.01.27-.01.39,0,.48.01.96.04,1.44.56,9.87,7.68,18.35,17.71,21.11a75.35,75.35,0,0,1,55.06,72.42" fill="#fff"/>
        <g id="Group_5230" data-name="Group 5230" opacity="0.5">
          <g id="Group_5229" data-name="Group 5229">
            <g id="Group_5228" data-name="Group 5228" clip-path="url(#clip-path-10)">
              <path id="Path_8046" data-name="Path 8046" d="M333.16,322.524a74.817,74.817,0,0,1-1.24,13.61,73.156,73.156,0,0,1-5.83,18.25H189.96a73.532,73.532,0,0,1-5.84-18.26,75.225,75.225,0,0,1,53.83-86.02c10.03-2.76,17.14-11.24,17.71-21.11.03-.48.04-.96.04-1.44,0-.12,0-.26-.01-.39.01-.12.01-.26.01-.39,0-.48-.01-.96-.04-1.44-.57-9.87-7.68-18.34-17.71-21.11a75.225,75.225,0,0,1-53.83-86.02c.14-.79.3-1.57.47-2.36,0-.02.01-.04.01-.06.16-.76.34-1.52.53-2.28.01-.04.02-.08.03-.13.16-.63.32-1.25.51-1.88.17-.64.36-1.28.56-1.91.1-.32.2-.64.3-.95H329.52c.1.31.2.63.3.95q.225.705.42,1.41c.09.31.18.61.25.92.14.49.27.97.39,1.46.08.31.16.62.22.92.13.5.24.99.34,1.49.05.23.1.47.15.71q.18.855.33,1.71a75.161,75.161,0,0,1-53.82,86.02c-10.03,2.77-17.15,11.24-17.71,21.11-.03.48-.04.96-.04,1.44,0,.13,0,.27.01.39-.01.13-.01.27-.01.39,0,.48.01.96.04,1.44.56,9.87,7.68,18.35,17.71,21.11a75.35,75.35,0,0,1,55.06,72.42" fill="#d7ecfa"/>
            </g>
          </g>
        </g>
        <path id="Path_8047" data-name="Path 8047" d="M196.055,176.055s11.85,19.42,40.266,28.35c7.276,2.14,9.727,3.716,13.917,7.579s5.618,10.651,5.456,16.021c-.056,4.159,2.329,65.005,2.329,72.584,0,7.15.927,1.854.72.316.737-43.055,1.614-74.734,1.614-74.734s2.575-13.535,6.56-15.4,18.438-8.581,24.355-10.238,20.211-14.685,20.211-14.685,18.16-25.9,19.265-29.212S322.537,153,322.537,153Z" fill="#91b3fa"/>
        <path id="Path_8048" data-name="Path 8048" d="M331.252,152.335c1.233,7.862-28.621,19.076-66.681,25.045s-69.914,4.436-71.147-3.426,28.621-19.076,66.681-25.046,69.914-4.435,71.147,3.427" fill="#173a8d"/>
        <g id="Group_5233" data-name="Group 5233" opacity="0.5" style="mix-blend-mode: screen;isolation: isolate">
          <g id="Group_5232" data-name="Group 5232">
            <g id="Group_5231" data-name="Group 5231" clip-path="url(#clip-path-11)">
              <path id="Path_8049" data-name="Path 8049" d="M237.585,194.69a7.564,7.564,0,0,1-2.462-.413,72.146,72.146,0,0,1-14.956-7.063,7.579,7.579,0,1,1,8.064-12.836,57.068,57.068,0,0,0,11.815,5.562,7.581,7.581,0,0,1-2.461,14.75" fill="#fff"/>
              <path id="Path_8050" data-name="Path 8050" d="M207.945,172.329a7.575,7.575,0,0,1-6.4-3.512c-13.216-20.77-9.814-44.093-9.663-45.076a7.579,7.579,0,0,1,14.986,2.282c-.044.309-2.583,18.863,7.466,34.657a7.581,7.581,0,0,1-6.387,11.649" fill="#fff"/>
            </g>
          </g>
        </g>
        <g id="Group_5236" data-name="Group 5236" opacity="0.5" style="mix-blend-mode: screen;isolation: isolate">
          <g id="Group_5235" data-name="Group 5235">
            <g id="Group_5234" data-name="Group 5234" clip-path="url(#clip-path-12)">
              <path id="Path_8051" data-name="Path 8051" d="M237.585,258.8a7.564,7.564,0,0,0-2.462.413,72.2,72.2,0,0,0-14.956,7.063,7.579,7.579,0,0,0,8.064,12.836,57.067,57.067,0,0,1,11.815-5.562,7.581,7.581,0,0,0-2.461-14.75" fill="#fff"/>
              <path id="Path_8052" data-name="Path 8052" d="M207.945,281.158a7.575,7.575,0,0,0-6.4,3.512c-13.216,20.77-9.814,44.093-9.663,45.076a7.579,7.579,0,0,0,14.986-2.282c-.044-.309-2.583-18.863,7.466-34.657a7.581,7.581,0,0,0-6.387-11.649" fill="#fff"/>
            </g>
          </g>
        </g>
        <path id="Path_8053" data-name="Path 8053" d="M278.77,247.664c-8.71-2.4-15.34-9.79-15.86-18.81-.02-.44-.04-.87-.04-1.3a2.612,2.612,0,0,1,.02-.39,2.482,2.482,0,0,1-.02-.39c0-.43.02-.86.04-1.3.52-9.02,7.15-16.41,15.86-18.81a77.72,77.72,0,0,0,56.92-74.86,76.678,76.678,0,0,0-1.28-14.06c-.14-.78-.29-1.55-.46-2.31-.12-.56-.24-1.12-.38-1.68a.355.355,0,0,0-.02-.1c-.07-.29-.14-.58-.22-.87-.13-.56-.27-1.1-.43-1.65-.23-.84-.47-1.67-.73-2.5h-2.65c.09.26.17.54.25.81a.783.783,0,0,1,.05.14q.225.705.42,1.41c.09.31.18.61.25.92.14.49.27.97.39,1.46.08.31.16.62.22.92.13.5.24.99.34,1.49.04.17.07.34.11.51.01.06.03.13.04.2q.18.855.33,1.71a75.161,75.161,0,0,1-53.82,86.02c-10.03,2.77-17.15,11.24-17.71,21.11-.03.48-.04.96-.04,1.44,0,.13,0,.27.01.39-.01.13-.01.27-.01.39,0,.48.01.96.04,1.44.56,9.87,7.68,18.35,17.71,21.11a75.173,75.173,0,0,1,53.82,86.03,73.156,73.156,0,0,1-5.83,18.25H189.96a73.532,73.532,0,0,1-5.84-18.26,75.225,75.225,0,0,1,53.83-86.02c10.03-2.76,17.14-11.24,17.71-21.11.03-.48.04-.96.04-1.44,0-.12,0-.26-.01-.39.01-.12.01-.26.01-.39,0-.48-.01-.96-.04-1.44-.57-9.87-7.68-18.34-17.71-21.11a75.225,75.225,0,0,1-53.83-86.02c.14-.79.3-1.58.47-2.36,0-.02.01-.04.01-.06.17-.76.34-1.52.53-2.28.01-.04.02-.08.03-.13.15-.58.3-1.17.47-1.74.01-.05.03-.09.04-.14.06-.22.12-.45.19-.67.11-.42.24-.83.37-1.24a.784.784,0,0,1,.05-.14c.08-.27.16-.55.25-.81h-2.65c-.26.83-.5,1.66-.73,2.5-.16.55-.3,1.09-.43,1.65-.08.29-.15.58-.22.87a.355.355,0,0,0-.02.1c-.14.56-.26,1.12-.38,1.68-.17.76-.32,1.53-.46,2.31a76.678,76.678,0,0,0-1.28,14.06,77.708,77.708,0,0,0,56.92,74.86c8.7,2.4,15.34,9.79,15.85,18.81.03.44.04.87.04,1.3,0,.13,0,.27-.01.39.01.13.01.27.01.39,0,.43-.01.86-.04,1.3-.51,9.02-7.15,16.41-15.85,18.81a77.717,77.717,0,0,0-56.92,74.86,77.81,77.81,0,0,0,8.01,34.39H327.68a77.81,77.81,0,0,0,8.01-34.39,77.729,77.729,0,0,0-56.92-74.86" fill="#b7ddf6"/>
        <path id="Path_8054" data-name="Path 8054" d="M354.827,352.784h0a7.346,7.346,0,0,1-7.346,7.346H168.566a7.346,7.346,0,0,1,0-14.692H347.481a7.346,7.346,0,0,1,7.346,7.346" fill="#173a8d"/>
        <path id="Path_8055" data-name="Path 8055" d="M317.484,155.3c.117.555-1.378,1.341-3.341,1.756s-3.648.3-3.765-.253,1.378-1.34,3.34-1.755,3.649-.3,3.766.252" fill="#eaf5fc"/>
        <path id="Path_8056" data-name="Path 8056" d="M312.966,161.682c.117.555-.8,1.219-2.055,1.484s-2.363.03-2.481-.524.8-1.219,2.056-1.484,2.363-.031,2.48.524" fill="#eaf5fc"/>
        <path id="Path_8057" data-name="Path 8057" d="M307.229,160c.117.555-.8,1.219-2.055,1.484s-2.363.03-2.481-.524.8-1.219,2.056-1.484,2.363-.031,2.48.524" fill="#eaf5fc"/>
        <path id="Path_8058" data-name="Path 8058" d="M267.615,165.094c.063.3-.434.658-1.11.8s-1.276.017-1.339-.283.433-.658,1.11-.8,1.276-.016,1.339.283" fill="#eaf5fc"/>
        <path id="Path_8059" data-name="Path 8059" d="M298.224,155.795c.063.3-.434.658-1.11.8s-1.276.017-1.339-.283.433-.658,1.11-.8,1.276-.016,1.339.283" fill="#eaf5fc"/>
        <path id="Path_8060" data-name="Path 8060" d="M287.128,166.48c.063.3-.434.658-1.11.8s-1.276.017-1.339-.283.433-.658,1.11-.8,1.276-.016,1.339.283" fill="#eaf5fc"/>
        <path id="Path_8061" data-name="Path 8061" d="M272.323,173.557c.063.3-.434.658-1.11.8s-1.276.017-1.339-.283.433-.658,1.11-.8,1.276-.016,1.339.283" fill="#eaf5fc"/>
        <path id="Path_8062" data-name="Path 8062" d="M258.884,292.884l-.518-.2-.518.2s-4.473,34.977-52.476,52.553H311.36c-48-17.576-52.476-52.553-52.476-52.553" fill="#a6c1fa"/>
        <path id="Path_8063" data-name="Path 8063" d="M332.411,109.428c0,3.9-33.3,7.066-74.387,7.066s-74.387-3.164-74.387-7.066,33.305-7.066,74.387-7.066,74.387,3.163,74.387,7.066" fill="#b9dbef"/>
        <path id="Path_8064" data-name="Path 8064" d="M347.48,98.549H168.57a7.345,7.345,0,1,0,0,14.69H347.48a7.345,7.345,0,1,0,0-14.69" fill="#173a8d"/>
        <line id="Line_344" data-name="Line 344" x2="510" transform="translate(0 360.13)" fill="none" stroke="#389fe5" stroke-miterlimit="10" stroke-width="1"/>
      </g>
    </g>
  </g>
</svg>
