<svg xmlns="http://www.w3.org/2000/svg" width="680.063" height="1337.113" viewBox="0 0 680.063 1337.113">
  <g id="Group_4196" data-name="Group 4196" transform="translate(-204.732 -135)">
    <path id="Path_6766" data-name="Path 6766" d="M116.161,67.234C111.589,51.113,90.66,52.7,90.66,52.7l.528,11.2c12.135-2.11,19.639,12.077,19.639,12.077Z" transform="translate(636.824 391.018)" fill="#173a8d"/>
    <path id="Path_6767" data-name="Path 6767" d="M40.321,73.059c-4.514-16.122-25.5-14.6-25.5-14.6l.586,11.256c12.135-2.11,19.639,12.077,19.639,12.077Z" transform="translate(268.061 419.078)" fill="#e0e0e0"/>
    <path id="Path_6811" data-name="Path 6811" d="M40.321,73.059c-4.514-16.122-25.5-14.6-25.5-14.6l.586,11.256c12.135-2.11,19.639,12.077,19.639,12.077Z" transform="translate(822.061 584.078)" fill="#e0e0e0"/>
    <path id="Path_6812" data-name="Path 6812" d="M40.321,73.059c-4.514-16.122-25.5-14.6-25.5-14.6l.586,11.256c12.135-2.11,19.639,12.077,19.639,12.077Z" transform="translate(822.061 86.6)" fill="#e0e0e0"/>
    <path id="Path_6813" data-name="Path 6813" d="M40.321,73.059c-4.514-16.122-25.5-14.6-25.5-14.6l.586,11.256c12.135-2.11,19.639,12.077,19.639,12.077Z" transform="translate(202.842 659.6)" fill="#e0e0e0"/>
    <path id="Path_6768" data-name="Path 6768" d="M66.629,46.987c24.329,7.387,39.454-20.636,39.454-20.636L91.31,17.91C84.04,35.087,59.77,33.094,59.77,33.094Z" transform="translate(486.625 222.086)" fill="#173a8d"/>
    <path id="Path_6769" data-name="Path 6769" d="M48.433,28.02C37.118,29.251,35.77,43.438,35.77,43.438l7.562.879c0-8.325,10.376-11.725,10.376-11.725Z" transform="translate(369.928 271.244)" fill="#173a8d"/>
    <path id="Path_6770" data-name="Path 6770" d="M129.48,59.112c1.641-11.256-11.725-16.122-11.725-16.122L115,50.083c8.09,2.052,8.852,12.956,8.852,12.956Z" transform="translate(755.175 344.033)" fill="#173a8d"/>
    <path id="Path_6771" data-name="Path 6771" d="M61.2,16.122C62.842,4.866,49.475,0,49.475,0L46.72,7.152c8.09,2.052,8.852,12.9,8.852,12.9Z" transform="translate(423.171 135)" fill="#173a8d"/>
    <path id="Path_6772" data-name="Path 6772" d="M1.61,39.847C-.383,57.434,22.949,61.772,22.949,61.772L27.17,50.047c-14.011-1.29-16-17.587-16-17.587Z" transform="translate(203.242 292.834)" fill="#173a8d"/>
    <path id="Path_6773" data-name="Path 6773" d="M93.965,35.452c11.373.645,15.008-13.132,15.008-13.132l-7.328-2.11C100.3,28.417,89.51,30.117,89.51,30.117Z" transform="translate(631.232 233.27)" fill="#173a8d"/>
    <g id="Group_4194" data-name="Group 4194">
      <path id="Path_6774" data-name="Path 6774" d="M116.42,31.487a26.248,26.248,0,0,1-9.38.879,25.986,25.986,0,0,1-9.38-.879,47.441,47.441,0,0,1,18.76,0" transform="translate(670.861 283.547)" fill="#93b1f7"/>
      <path id="Path_6775" data-name="Path 6775" d="M103.337,26.36a51.723,51.723,0,0,1,0,18.994,48.624,48.624,0,0,1,0-18.994" transform="translate(693.91 263.172)" fill="#93b1f7"/>
      <path id="Path_6776" data-name="Path 6776" d="M104.36,31.414a26.248,26.248,0,0,1,9.38-.879,25.985,25.985,0,0,1,9.38.879,47.441,47.441,0,0,1-18.76,0" transform="translate(703.438 282.975)" fill="#93b1f7"/>
      <path id="Path_6777" data-name="Path 6777" d="M103.447,50.763a48.922,48.922,0,0,1,0-19.053,52.04,52.04,0,0,1,0,19.053" transform="translate(694.444 289.186)" fill="#93b1f7"/>
      <path id="Path_6778" data-name="Path 6778" d="M110.847,39.784c-.352.293-2.169-1.231-4.045-3.4s-2.99-4.28-2.638-4.573,2.228,1.172,4.045,3.4,3.048,3.928,2.638,4.573" transform="translate(702.17 289.496)" fill="#93b1f7"/>
      <path id="Path_6779" data-name="Path 6779" d="M110.887,28.14c.352.41-.879,2.228-2.814,4.162s-3.752,3.224-4.1,2.873.879-2.228,2.814-4.162a10.913,10.913,0,0,1,4.1-2.873" transform="translate(701.25 271.828)" fill="#93b1f7"/>
      <path id="Path_6780" data-name="Path 6780" d="M106.972,34c-.352.41-2.11-.528-3.928-2.052s-2.99-3.048-2.7-3.4,2.052.528,3.869,1.993,3.048,3.107,2.755,3.459" transform="translate(683.709 273.416)" fill="#93b1f7"/>
      <path id="Path_6781" data-name="Path 6781" d="M106.549,31.638c.41.293-.7,2.11-2.462,4.045s-3.459,3.166-3.811,2.814.7-2.169,2.462-4.045,3.459-3.166,3.811-2.814" transform="translate(683.253 288.555)" fill="#93b1f7"/>
    </g>
    <g id="Group_4195" data-name="Group 4195">
      <path id="Path_6782" data-name="Path 6782" d="M29.3,22.6a47.441,47.441,0,0,1-18.76,0,26.248,26.248,0,0,1,9.38-.879,25.985,25.985,0,0,1,9.38.879" transform="translate(247.25 240.137)" fill="#93b1f7"/>
      <path id="Path_6783" data-name="Path 6783" d="M16.217,17.44a48.92,48.92,0,0,1,0,19.053,48.92,48.92,0,0,1,0-19.053" transform="translate(270.299 219.801)" fill="#93b1f7"/>
      <path id="Path_6784" data-name="Path 6784" d="M17.25,22.467a47.441,47.441,0,0,1,18.76,0,47.441,47.441,0,0,1-18.76,0" transform="translate(279.876 239.688)" fill="#93b1f7"/>
      <path id="Path_6785" data-name="Path 6785" d="M16.327,41.794a48.622,48.622,0,0,1,0-18.994,48.622,48.622,0,0,1,0,18.994" transform="translate(270.833 245.863)" fill="#93b1f7"/>
      <path id="Path_6786" data-name="Path 6786" d="M23.749,30.793c-.41.352-2.228-1.172-4.045-3.4s-3.048-4.221-2.638-4.573,2.169,1.231,4.045,3.4,2.99,4.573,2.638,4.573" transform="translate(278.595 245.725)" fill="#93b1f7"/>
      <path id="Path_6787" data-name="Path 6787" d="M23.777,19.345c.352.352-.938,2.228-2.814,4.162s-3.752,3.166-4.1,2.814.879-2.169,2.814-4.1,3.752-3.459,4.1-2.873" transform="translate(277.688 228.447)" fill="#93b1f7"/>
      <path id="Path_6788" data-name="Path 6788" d="M19.816,25.151c-.293.352-2.052-.528-3.869-2.052S12.9,20.05,13.25,19.64s2.052.528,3.869,2.052,3.048,3.048,2.7,3.459" transform="translate(260.134 230.027)" fill="#93b1f7"/>
      <path id="Path_6789" data-name="Path 6789" d="M19.5,22.716c.352.352-.762,2.169-2.462,4.1s-3.459,3.166-3.869,2.814.762-2.169,2.462-4.045,3.459-3.224,3.869-2.873" transform="translate(259.629 245.184)" fill="#93b1f7"/>
    </g>
    <g id="Group_4193" data-name="Group 4193">
      <rect id="Rectangle_2084" data-name="Rectangle 2084" width="243.698" height="193.046" transform="translate(440.915 1470.595) rotate(-89.549)" fill="#ebebeb"/>
      <path id="Path_6790" data-name="Path 6790" d="M90.293,187.945l-3.459,235.9-30.484-.235,6.566-235.9Z" transform="translate(469.995 1047.72)" fill="#fafafa"/>
      <path id="Path_6791" data-name="Path 6791" d="M24.687,187.44l110.74.879,193.048,1.524L135.252,215.228,133.61,424.281,22.87,423.4Z" transform="translate(307.203 1046.407)" fill="#e0e0e0"/>
      <path id="Path_6792" data-name="Path 6792" d="M64.395,187.715,60,423.676l-32.888-.293L32.5,187.48Z" transform="translate(327.819 1046.602)" fill="#fafafa"/>
      <path id="Path_6793" data-name="Path 6793" d="M124.662,238.679c0,1.524-3.224,3.048-9.145,4.514a151.806,151.806,0,0,1-43.792,3.166,72.064,72.064,0,0,1-10.259-1.114,82.866,82.866,0,0,1-11.256-2.4,33.953,33.953,0,0,1-6.976-2.99,22.408,22.408,0,0,1-7.328-6.918,20.576,20.576,0,0,1-3.166-10.611,35.187,35.187,0,0,1,.938-8.207,142.358,142.358,0,0,1,7.387-24.446,65.843,65.843,0,0,1,7.093-12.428,52.945,52.945,0,0,1,4.749-5.862,36.322,36.322,0,0,1,6.449-5.217,26.048,26.048,0,0,1,8.735-3.517,23.046,23.046,0,0,1,10.025.293,32.6,32.6,0,0,1,13.19,7.269,108.32,108.32,0,0,1,25.384,31.129,76.166,76.166,0,0,1,8.5,25.384c.762,6.331,0,9.907-1.407,10.2-3.107.762-7.621-11.725-19.932-27.319a125.588,125.588,0,0,0-24.8-23.45,14.519,14.519,0,0,0-5.862-2.872,2.139,2.139,0,0,0-1.055,0,7.623,7.623,0,0,0-1.641.879,19.232,19.232,0,0,0-2.462,2.169c-.879,1-1.876,2.228-2.755,3.459a47.817,47.817,0,0,0-4.631,8.442,164.06,164.06,0,0,0-6.625,20.694,14.6,14.6,0,0,0-.586,3.048h-.586c-.7,0-.879.352-.41,0l.7-.528a2.147,2.147,0,0,0,.528.528,14.7,14.7,0,0,0,2.755,1.407,77.422,77.422,0,0,0,8.618,2.58c2.99.821,5.862,1.466,8.852,2.052,5.862,1.172,11.314,1.993,16.415,2.7,10.259,1.348,18.818,2.286,24.739,3.4s9.556,3.107,9.614,4.573" transform="translate(355.194 923.821)" fill="#e0e0e0"/>
      <path id="Path_6794" data-name="Path 6794" d="M48.924,248.52c-.528-3.049,13.894-7.563,36.405-14.187a310.347,310.347,0,0,0,37.988-13.6,38.444,38.444,0,0,0,8.266-4.573c.879-.762,1.29-1.407,1.172-1.348s0,.879-.293.469a22.915,22.915,0,0,0-1.348-3.4l-2.814-5.862a94.7,94.7,0,0,0-5.862-10.494,43.586,43.586,0,0,0-6.859-8.207,37.845,37.845,0,0,0-3.869-3.107,17.03,17.03,0,0,0-3.517-1.876,8.712,8.712,0,0,0-5.862-.528,18.627,18.627,0,0,0-6.8,3.928A148.087,148.087,0,0,0,69.15,214.4c-12.956,18.408-16.356,32.771-19.58,32.3-1.407,0-2.462-4.1-1.935-11.2a80.5,80.5,0,0,1,8.325-28.726,126.42,126.42,0,0,1,26.439-36,38,38,0,0,1,13.718-8.618,29.327,29.327,0,0,1,19.111,0,39.44,39.44,0,0,1,8.031,3.986,48.261,48.261,0,0,1,6.507,4.924,61.552,61.552,0,0,1,10.552,12.311,100.9,100.9,0,0,1,7.211,13.073l2.814,6.214a34.841,34.841,0,0,1,2.873,8.852,19.921,19.921,0,0,1-2.169,12.78,23.916,23.916,0,0,1-7.152,7.914,53.849,53.849,0,0,1-13.19,6.566,199.218,199.218,0,0,1-42.268,10.142c-24.153,3.283-39.161,2.4-39.512-.41" transform="translate(426.946 915.739)" fill="#ebebeb"/>
      <rect id="Rectangle_2085" data-name="Rectangle 2085" width="80.669" height="283.74" transform="translate(296.882 1233.476) rotate(-89.55)" fill="#e0e0e0"/>
      <rect id="Rectangle_2086" data-name="Rectangle 2086" width="80.666" height="256.481" transform="translate(401.179 1234.273) rotate(-89.549)" fill="#ebebeb"/>
      <path id="Path_6795" data-name="Path 6795" d="M91.726,174.2l-1.817,81.018-29.9-.586,2.11-80.666Z" transform="translate(487.792 980.911)" fill="#fafafa"/>
      <rect id="Rectangle_2087" data-name="Rectangle 2087" width="138.058" height="109.39" transform="translate(650.061 1466.156) rotate(-89.549)" fill="#ebebeb"/>
      <path id="Path_6797" data-name="Path 6797" d="M104.929,204.457l-1.935,133.721L85.7,338.061,89.393,204.34Z" transform="translate(612.707 1128.582)" fill="#fafafa"/>
      <path id="Path_6798" data-name="Path 6798" d="M67.727,204.19l62.786.469,109.392.879L130.4,219.96l-.938,118.42-62.728-.469Z" transform="translate(520.467 1127.852)" fill="#e0e0e0"/>
      <path id="Path_6799" data-name="Path 6799" d="M90.235,204.386,87.772,338.049l-18.642-.117L72.178,204.21Z" transform="translate(532.137 1127.949)" fill="#fafafa"/>
      <path id="Path_6800" data-name="Path 6800" d="M125.594,234.042c0,2.052-7.152,4.514-19.7,5.862a71.5,71.5,0,0,1-22.922-1.876,15.5,15.5,0,0,1-8.852-5.862,13.4,13.4,0,0,1-2.052-6.742,22.764,22.764,0,0,1,.528-5.042,82.459,82.459,0,0,1,4.28-14.128,41.852,41.852,0,0,1,4.162-7.328,25.976,25.976,0,0,1,7.035-6.8A15.365,15.365,0,0,1,99.8,190.133a20.706,20.706,0,0,1,8.031,4.455,60.616,60.616,0,0,1,14.421,18.173c5.862,11.725,5.042,20.46,3.107,20.753s-5.1-6.39-12.194-14.89a73.824,73.824,0,0,0-14.011-12.956,7.141,7.141,0,0,0-2.638-1.348l-.41.293a12.947,12.947,0,0,0-2.521,2.814,23.409,23.409,0,0,0-2.462,4.514,88.039,88.039,0,0,0-3.693,11.725l-.352,1.348H85.261a4.141,4.141,0,0,0,1.055-.938l.352-.352a5.982,5.982,0,0,0,1.29.7,102.133,102.133,0,0,0,18.818,4.4c11.139,1.7,18.818,3.048,18.818,5.217" transform="translate(546.432 1057.548)" fill="#e0e0e0"/>
      <path id="Path_6801" data-name="Path 6801" d="M82.185,240.39c-.41-2.345,7.738-5.452,20.284-9.614a206.964,206.964,0,0,0,21.1-8.032,19.617,19.617,0,0,0,4.162-2.4c.352-.293.352-.528,0,0a3.476,3.476,0,0,0-.41,1.641l-2.169-4.573a55.786,55.786,0,0,0-3.224-5.862,19.584,19.584,0,0,0-3.517-4.221,11.638,11.638,0,0,0-3.459-2.462,2.837,2.837,0,0,0-1.817,0,7.2,7.2,0,0,0-3.166,1.759A89.164,89.164,0,0,0,95.024,222.1C87.461,232.007,85,239.98,82.6,239.687s-3.869-9.732,2.228-23.45a70.268,70.268,0,0,1,15.008-21.163,23.8,23.8,0,0,1,8.442-5.393,18.43,18.43,0,0,1,12.194,0,22.247,22.247,0,0,1,5.042,2.4,34,34,0,0,1,3.986,3.048,37.206,37.206,0,0,1,6.331,7.328,73.386,73.386,0,0,1,4.221,7.68l1.583,3.576a21.885,21.885,0,0,1,1.817,5.862,13.365,13.365,0,0,1-1.524,8.618,16.27,16.27,0,0,1-4.631,5.159,31.94,31.94,0,0,1-7.973,3.928,106.8,106.8,0,0,1-24.446,5.393c-13.718.938-22.218-.117-22.687-2.286" transform="translate(587.496 1052.256)" fill="#e0e0e0"/>
      <rect id="Rectangle_2088" data-name="Rectangle 2088" width="45.728" height="160.804" transform="translate(568.361 1331.858) rotate(-89.551)" fill="#e0e0e0"/>
      <rect id="Rectangle_2089" data-name="Rectangle 2089" width="45.725" height="145.327" transform="translate(627.575 1332.273) rotate(-89.549)" fill="#ebebeb"/>
      <path id="Path_6802" data-name="Path 6802" d="M105.768,196.677l-1,45.9-17-.352L89,196.56Z" transform="translate(622.771 1090.752)" fill="#fafafa"/>
      <path id="Path_6803" data-name="Path 6803" d="M87.124,196.8l-1.642,45.492-18.642-.117,1-45.785Z" transform="translate(521.002 1089.926)" fill="#fafafa"/>
      <path id="Path_6804" data-name="Path 6804" d="M69.436,227.192,173.88,164.711a8.179,8.179,0,0,1,11.215,2.82l58.829,98.336a8.179,8.179,0,0,1-2.82,11.215L136.66,339.562a8.182,8.182,0,0,1-11.221-2.82L66.616,238.407a8.175,8.175,0,0,1,2.82-11.215" transform="translate(514.262 930.249)" fill="#173a8d"/>
      <path id="Path_6805" data-name="Path 6805" d="M151.784,189.278a5.787,5.787,0,0,1-.768.533l-2.263,1.425-8.471,5.206-28.421,17.2-.246.106-.17-.217c-1.12-1.383-2.3-2.831-3.506-4.315-10.195-12.692-19.258-24-25.232-31.376l.252.035-7.615,4.514-2.04,1.178a5.715,5.715,0,0,1-.756.317,4.689,4.689,0,0,1,.668-.463l1.993-1.26,7.533-4.637.158-.064.059.141,25.419,31.235,3.5,4.326-.4-.076,28.638-17.036,8.524-5.018,2.327-1.331a5.356,5.356,0,0,1,.815-.422" transform="translate(548.757 997.875)" fill="#fff"/>
      <path id="Path_6806" data-name="Path 6806" d="M93.093,225.41l.211-.088.569-.387,2.269-1.413,8.524-5.235,29.488-17.863-.129.369c-2.11-5.5-4.4-11.455-6.765-17.611-1.213-3.16-2.409-6.273-3.547-9.245l.451.164L89.277,194.955,78.93,201.07l-2.808,1.624-.739.416-.264.111a.981.981,0,0,1,.234-.176l.7-.451,2.755-1.724,10.265-6.284,34.77-21.028.334-.141.141.34c1.149,2.972,2.339,6.073,3.558,9.251,2.357,6.156,4.631,12.112,6.742,17.611l.07.17-.235.094-29.593,17.7-8.606,5.077L93.937,225l-.6.334Z" transform="translate(561.258 978.221)" fill="#fff"/>
      <path id="Path_6807" data-name="Path 6807" d="M89.528,186.506c-.053.023-.27-.328-.8-.815a4.7,4.7,0,0,0-2.714-1.2,4.422,4.422,0,0,0-4.831,3.975,4.484,4.484,0,0,0,.6,2.7,4.417,4.417,0,0,0,4.561,2,4.468,4.468,0,0,0,3.271-2.685,4.564,4.564,0,0,0,.211-2.966c-.176-.7-.44-1.043-.34-1.085a2.384,2.384,0,0,1,.6,1.055,4.675,4.675,0,0,1-.047,3.207,4.928,4.928,0,0,1-9.427-.78,4.923,4.923,0,0,1,5.411-5.9,4.668,4.668,0,0,1,2.837,1.425,2.5,2.5,0,0,1,.657,1.067" transform="translate(587.521 1029.577)" fill="#fff"/>
      <path id="Path_6808" data-name="Path 6808" d="M93.894,183.8a9.17,9.17,0,0,0-.8-.815,4.65,4.65,0,0,0-2.726-1.19,4.4,4.4,0,1,0,3.646,6.056,4.6,4.6,0,0,0,.217-2.966c-.176-.7-.44-1.044-.34-1.085a2.472,2.472,0,0,1,.592,1.061,4.624,4.624,0,0,1-.035,3.2,4.934,4.934,0,1,1-4.016-6.671,4.661,4.661,0,0,1,2.832,1.419,2.486,2.486,0,0,1,.627.991" transform="translate(608.921 1016.787)" fill="#fff"/>
      <path id="Path_6809" data-name="Path 6809" d="M80.623,181.609A13.335,13.335,0,1,1,91.269,197.18a13.331,13.331,0,0,1-10.646-15.571" transform="translate(586.895 965.191)" fill="#fff"/>
      <path id="Path_6810" data-name="Path 6810" d="M90.847,171.649a12.976,12.976,0,0,1-.364,2.767c-.317,1.677-.786,3.963-1.342,6.5l-.6,2.7-.064.287-.281-.053a42.906,42.906,0,0,1-6.466-1.442,43.542,43.542,0,0,1,6.572.85l-.352.229.586-2.708c.551-2.532,1.1-4.813,1.512-6.466a12.1,12.1,0,0,1,.8-2.662" transform="translate(593.408 969.624)" fill="#173a8d"/>
    </g>
  </g>
</svg>
