<svg xmlns="http://www.w3.org/2000/svg" xmlns:xlink="http://www.w3.org/1999/xlink" width="985.559" height="620.813" viewBox="0 0 985.559 620.813">
  <defs>
    <clipPath id="clip-path">
      <rect id="Rectangle_2734" data-name="Rectangle 2734" width="985.559" height="620.813" fill="none"/>
    </clipPath>
    <clipPath id="clip-path-3">
      <rect id="Rectangle_2732" data-name="Rectangle 2732" width="224.47" height="275.746" fill="none"/>
    </clipPath>
    <clipPath id="clip-path-4">
      <path id="Path_7944" data-name="Path 7944" d="M527.726,340.168a93.08,93.08,0,1,1-93.079-93.079,93.08,93.08,0,0,1,93.079,93.079" transform="translate(-341.566 -247.089)" fill="none"/>
    </clipPath>
  </defs>
  <g id="Group_5137" data-name="Group 5137" transform="translate(-47 -635)">
    <g id="Group_5135" data-name="Group 5135">
      <g id="Group_5133" data-name="Group 5133" transform="translate(47 635)">
        <g id="Group_5132" data-name="Group 5132" clip-path="url(#clip-path)">
          <g id="Group_5131" data-name="Group 5131">
            <g id="Group_5130" data-name="Group 5130" clip-path="url(#clip-path)">
              <path id="Path_7921" data-name="Path 7921" d="M162.365,377.738A110.23,110.23,0,0,1,184.9,382.7l0-.011c.1.036.2.065.3.1.27.091.538.186.807.279,40.9,14.6,59.686,11.856,75.769,6.918,43.431-13.339,69.181-70.762,139.52-59.646,29.835,4.714,53.839,11.124,72.547,24.167l-.026-.057c.132.11.262.2.392.311,2.683,1.882,5.3,3.8,7.772,5.769,36.584,23.88,73.028-7.248,83.492-14.3.768-.558,1.571-4.986,2.348-5.538.42-.311.652-.5.652-.5l0,.039c45.839-32.309,118.752-65.035,189.04-57,120.77,13.805,169.373,150.774,169.373,150.774H24.418c14.1-32.389,70.483-63.985,137.947-56.274" transform="translate(13.407 154.836)" fill="#91b3fa"/>
              <path id="Path_7922" data-name="Path 7922" d="M55.411,128.1h71.156a3,3,0,0,0,3-3V105.321a3,3,0,0,0-3-3H55.411a3,3,0,0,0-3,3V125.1a3,3,0,0,0,3,3" transform="translate(28.778 56.18)" fill="#173a8d"/>
              <line id="Line_335" data-name="Line 335" x2="50.538" transform="translate(96.301 168.512)" fill="none" stroke="#fff" stroke-miterlimit="10" stroke-width="0.624"/>
              <line id="Line_336" data-name="Line 336" x2="14.876" transform="translate(96.301 174.27)" fill="none" stroke="#fff" stroke-miterlimit="10" stroke-width="0.624"/>
              <path id="Path_7923" data-name="Path 7923" d="M101.557,116.749v11.658L86.7,116.749Z" transform="translate(47.601 64.101)" fill="#91b3fa"/>
              <path id="Path_7924" data-name="Path 7924" d="M604.752,195.283a8.644,8.644,0,1,1-8.644-8.765A8.7,8.7,0,0,1,604.752,195.283Z" transform="translate(322.548 102.408)" fill="none" stroke="#fff" stroke-miterlimit="10" stroke-width="1.089"/>
              <path id="Path_7925" data-name="Path 7925" d="M48.494,232.285a12.348,12.348,0,1,1-12.347-12.519A12.434,12.434,0,0,1,48.494,232.285Z" transform="translate(13.068 120.662)" fill="none" stroke="#fff" stroke-miterlimit="10" stroke-width="1.089"/>
              <path id="Path_7926" data-name="Path 7926" d="M338.453,61.139a4.7,4.7,0,1,1-4.7-4.77A4.735,4.735,0,0,1,338.453,61.139Z" transform="translate(180.663 30.949)" fill="none" stroke="#fff" stroke-miterlimit="10" stroke-width="1.089"/>
              <path id="Path_7927" data-name="Path 7927" d="M73.746,54.65h201.5s-.973-8-23.363-14.406-38.451,10-63.76,0-38.732-24.356-71.343-16.353S73.746,54.65,73.746,54.65Z" transform="translate(40.49 11.836)" fill="none" stroke="#fafafa" stroke-linecap="round" stroke-linejoin="round" stroke-width="1.103"/>
              <path id="Path_7928" data-name="Path 7928" d="M486.093,95.912H590.3s-.5-5.034-12.083-9.06-19.884,6.294-32.971,0-20.031-15.32-36.9-10.286A35.144,35.144,0,0,0,486.093,95.912Z" transform="translate(266.889 41.233)" fill="none" stroke="#fafafa" stroke-linecap="round" stroke-linejoin="round" stroke-width="1.103"/>
              <path id="Path_7929" data-name="Path 7929" d="M474.934,34.155A34.156,34.156,0,1,1,440.779,0a34.156,34.156,0,0,1,34.155,34.155" transform="translate(382.252 65.635)" fill="#003cca"/>
              <rect id="Rectangle_2720" data-name="Rectangle 2720" width="354.584" height="355.714" transform="translate(290.476 231.321)" fill="#91b3fa"/>
              <path id="Path_7930" data-name="Path 7930" d="M542.1,120.342V176.3H187.519V120.342a20.126,20.126,0,0,1,20.127-20.127h314.33A20.127,20.127,0,0,1,542.1,120.342" transform="translate(102.957 55.023)" fill="#173a8d"/>
              <path id="Path_7931" data-name="Path 7931" d="M370.178,128.556a16.679,16.679,0,1,0,16.679-16.679,16.678,16.678,0,0,0-16.679,16.679" transform="translate(203.246 61.426)" fill="#fcfcfc"/>
              <path id="Path_7932" data-name="Path 7932" d="M384.333,148.77h0a9.559,9.559,0,0,0,9.559-9.559V96.028a9.559,9.559,0,0,0-19.118,0v43.183a9.56,9.56,0,0,0,9.559,9.559" transform="translate(205.769 47.476)" fill="#91b3fa"/>
              <path id="Path_7933" data-name="Path 7933" d="M294.18,128.556a16.679,16.679,0,1,0,16.679-16.679,16.679,16.679,0,0,0-16.679,16.679" transform="translate(161.519 61.426)" fill="#fcfcfc"/>
              <path id="Path_7934" data-name="Path 7934" d="M308.335,148.77h0a9.559,9.559,0,0,0,9.559-9.559V96.028a9.559,9.559,0,1,0-19.118,0v43.183a9.559,9.559,0,0,0,9.559,9.559" transform="translate(164.043 47.476)" fill="#91b3fa"/>
              <path id="Path_7935" data-name="Path 7935" d="M218.181,128.556a16.679,16.679,0,1,0,16.679-16.679,16.679,16.679,0,0,0-16.679,16.679" transform="translate(119.792 61.426)" fill="#fcfcfc"/>
              <path id="Path_7936" data-name="Path 7936" d="M232.338,148.77h0a9.559,9.559,0,0,0,9.558-9.559V96.028a9.559,9.559,0,0,0-19.118,0v43.183a9.56,9.56,0,0,0,9.561,9.559" transform="translate(122.316 47.476)" fill="#91b3fa"/>
              <rect id="Rectangle_2721" data-name="Rectangle 2721" width="67.419" height="67.419" transform="translate(525.241 288.484)" fill="#a6c1fa"/>
              <rect id="Rectangle_2722" data-name="Rectangle 2722" width="67.419" height="67.419" transform="translate(435.542 288.484)" fill="#a6c1fa"/>
              <rect id="Rectangle_2723" data-name="Rectangle 2723" width="67.419" height="67.419" transform="translate(345.842 288.484)" fill="#a6c1fa"/>
              <rect id="Rectangle_2724" data-name="Rectangle 2724" width="67.419" height="67.419" transform="translate(525.241 374.066)" fill="#ebf2fe"/>
              <rect id="Rectangle_2725" data-name="Rectangle 2725" width="67.419" height="67.419" transform="translate(435.542 374.066)" fill="#ebf2fe"/>
              <rect id="Rectangle_2726" data-name="Rectangle 2726" width="67.419" height="67.419" transform="translate(345.842 374.066)" fill="#173a8d"/>
              <line id="Line_337" data-name="Line 337" x2="18.692" y2="19.267" transform="translate(370.206 398.142)" fill="none" stroke="#fff" stroke-miterlimit="10" stroke-width="2.017"/>
              <line id="Line_338" data-name="Line 338" x1="18.692" y2="19.267" transform="translate(370.205 398.142)" fill="none" stroke="#fff" stroke-miterlimit="10" stroke-width="2.017"/>
              <rect id="Rectangle_2727" data-name="Rectangle 2727" width="67.419" height="67.419" transform="translate(525.241 459.646)" fill="none" stroke="#f0e0df" stroke-miterlimit="10" stroke-width="2.213"/>
              <rect id="Rectangle_2728" data-name="Rectangle 2728" width="67.419" height="67.419" transform="translate(435.542 459.646)" fill="#ebf2fe"/>
              <rect id="Rectangle_2729" data-name="Rectangle 2729" width="67.419" height="67.419" transform="translate(345.842 459.646)" fill="#ebf2fe"/>
              <rect id="Rectangle_2730" data-name="Rectangle 2730" width="32.81" height="21.606" transform="translate(606.165 352.641)" fill="#173a8d"/>
              <path id="Path_7937" data-name="Path 7937" d="M434.105,237.541H391.189a8.849,8.849,0,1,1,0-17.7h42.916a8.849,8.849,0,0,1,0,17.7" transform="translate(209.923 120.705)" fill="#173a8d"/>
              <rect id="Rectangle_2731" data-name="Rectangle 2731" width="26.16" height="18.452" transform="translate(524.518 403.921) rotate(-45)" fill="#173a8d"/>
              <path id="Path_7938" data-name="Path 7938" d="M367.507,252.354,341.666,278.2a6.668,6.668,0,0,1-9.431-9.431l25.841-25.841a6.668,6.668,0,0,1,9.431,9.431" transform="translate(181.341 132.304)" fill="#173a8d"/>
              <path id="Path_7939" data-name="Path 7939" d="M551.856,346.483A110.895,110.895,0,1,1,440.961,235.588,110.9,110.9,0,0,1,551.856,346.483" transform="translate(181.223 129.349)" fill="#173a8d"/>
              <path id="Path_7940" data-name="Path 7940" d="M543.774,344.368a104.929,104.929,0,1,1-104.93-104.93,104.929,104.929,0,0,1,104.93,104.93" transform="translate(183.337 131.464)" fill="#173a8d"/>
              <path id="Path_7941" data-name="Path 7941" d="M527.726,340.168a93.08,93.08,0,1,1-93.079-93.079,93.079,93.079,0,0,1,93.079,93.079" transform="translate(187.537 135.664)" fill="#f6f6f6"/>
              <g id="Group_5129" data-name="Group 5129" transform="translate(520.349 345.066)" opacity="0.71">
                <g id="Group_5128" data-name="Group 5128">
                  <g id="Group_5127" data-name="Group 5127" clip-path="url(#clip-path-3)">
                    <g id="Group_5126" data-name="Group 5126" transform="translate(8.754 37.687)">
                      <g id="Group_5125" data-name="Group 5125" clip-path="url(#clip-path-4)">
                        <path id="Path_7942" data-name="Path 7942" d="M335.915,270.934,477,489.554l63.739-54.815L401.15,239.065Z" transform="translate(-344.669 -251.494)" fill="#fff"/>
                        <path id="Path_7943" data-name="Path 7943" d="M384.452,227.222l141.084,218.62,8.2-27.407L394.15,222.761Z" transform="translate(-318.02 -260.446)" fill="#fff"/>
                      </g>
                    </g>
                  </g>
                </g>
              </g>
              <path id="Path_7945" data-name="Path 7945" d="M402.784,264.237a2.342,2.342,0,0,1-2.342-2.342v-5.5a2.342,2.342,0,1,1,4.684,0v5.5a2.342,2.342,0,0,1-2.342,2.342" transform="translate(219.862 139.49)" fill="#2b4183"/>
              <path id="Path_7946" data-name="Path 7946" d="M402.784,364.633a2.342,2.342,0,0,1-2.342-2.342v-5.5a2.342,2.342,0,1,1,4.684,0v5.5a2.342,2.342,0,0,1-2.342,2.342" transform="translate(219.862 194.612)" fill="#2b4183"/>
              <path id="Path_7947" data-name="Path 7947" d="M369.921,277.85a2.331,2.331,0,0,1-1.656-.686l-3.888-3.887a2.342,2.342,0,0,1,3.312-3.312l3.888,3.888a2.341,2.341,0,0,1-1.656,4" transform="translate(199.685 147.847)" fill="#2b4183"/>
              <path id="Path_7948" data-name="Path 7948" d="M440.912,348.841a2.331,2.331,0,0,1-1.656-.686l-3.888-3.887a2.342,2.342,0,0,1,3.312-3.312l3.888,3.887a2.342,2.342,0,0,1-1.656,4" transform="translate(238.662 186.825)" fill="#2b4183"/>
              <path id="Path_7949" data-name="Path 7949" d="M366.034,348.841a2.342,2.342,0,0,1-1.656-4l3.888-3.887a2.341,2.341,0,0,1,3.31,3.312l-3.887,3.887a2.331,2.331,0,0,1-1.656.686" transform="translate(199.685 186.825)" fill="#2b4183"/>
              <path id="Path_7950" data-name="Path 7950" d="M437.025,277.85a2.341,2.341,0,0,1-1.656-4l3.888-3.888a2.342,2.342,0,1,1,3.312,3.312l-3.888,3.887a2.332,2.332,0,0,1-1.656.686" transform="translate(238.663 147.847)" fill="#2b4183"/>
              <path id="Path_7951" data-name="Path 7951" d="M356.308,310.713h-5.5a2.341,2.341,0,1,1,0-4.683h5.5a2.341,2.341,0,1,1,0,4.683" transform="translate(191.327 168.026)" fill="#2b4183"/>
              <path id="Path_7952" data-name="Path 7952" d="M456.706,310.713h-5.5a2.341,2.341,0,1,1,0-4.683h5.5a2.341,2.341,0,1,1,0,4.683" transform="translate(246.45 168.026)" fill="#2b4183"/>
              <path id="Path_7953" data-name="Path 7953" d="M409.532,326.145H398.343V277.64a5.594,5.594,0,0,1,11.189,0Z" transform="translate(218.71 149.367)" fill="#2b4183"/>
              <path id="Path_7954" data-name="Path 7954" d="M419.335,311.518A12.833,12.833,0,1,1,406.5,298.686a12.833,12.833,0,0,1,12.832,12.832" transform="translate(216.144 163.993)" fill="#2b4183"/>
              <line id="Line_339" data-name="Line 339" x1="985.559" transform="translate(0.001 589.762)" fill="none" stroke="#281f27" stroke-miterlimit="10" stroke-width="0.757"/>
            </g>
          </g>
        </g>
      </g>
      <g id="Group_5134" data-name="Group 5134" transform="translate(456 502)">
        <path id="Path_7608" data-name="Path 7608" d="M376.4,686.832c-39.113-27.325-47.986-78.048-46.439-123.642.257-7.61-.578-15.633,3.041-22.313s12.069-11.24,18.883-8.033c5.654,2.661,8.116,9.235,11.277,14.673a44.542,44.542,0,0,0,17.849,17.049c4.846,2.515,10.845,4.052,15.628,1.413,6.564-3.622,7.339-12.691,7.291-20.263q-.132-21.16-.264-42.322c-.048-7.568-.07-15.3,2.284-22.482s7.558-13.858,14.758-15.875,16.106,2.135,17.625,9.544c.634,3.083.005,6.282.216,9.424s1.673,6.619,4.658,7.495c3.021.888,6.051-1.258,8.312-3.473,7.814-7.643,13.116-17.489,18.07-27.28s9.763-19.816,16.853-28.15,16.9-14.942,27.735-15.555,22.391,6.076,25.13,16.717c2.746,10.674-3.478,21.5-10.254,30.137a168.916,168.916,0,0,1-35.18,33.535c-2.387,1.693-4.972,3.524-5.885,6.328-1.642,5.045,3.139,10.058,8.121,11.717,5.641,1.879,11.765,1.293,17.665,1.987s12.3,3.3,14.529,8.878c3.1,7.736-3.37,15.845-9.736,21.156a144.768,144.768,0,0,1-42.838,24.728c-5.568,2.037-11.428,3.825-15.917,7.739s-7.2,10.714-4.489,16.046,9.678,7.045,15.51,5.961,11.053-4.248,16.612-6.343c10.4-3.928,23.835-3.212,30.5,5.78,4.379,5.91,4.763,14.139,2.55,21.184s-6.708,13.1-11.477,18.7c-16.672,19.559-38.017,35.308-62.148,43.675s-46.49,10.631-70.47,1.861" fill="#233ec4"/>
        <path id="Path_7609" data-name="Path 7609" d="M375.808,720.636a332.31,332.31,0,0,1,12.369-62.385c6.71-23.01,16.156-47.622,26.921-73.026q4.074-9.507,8.04-18.777c2.656-6.159,5.284-12.266,8.227-18.078a340.094,340.094,0,0,1,18.817-32.434c6.489-10.027,13.008-19.308,19.167-27.939,6.179-8.624,12.092-16.551,17.789-23.548a268.78,268.78,0,0,1,29.312-30.98c3.735-3.375,6.715-5.9,8.76-7.58.986-.8,1.755-1.426,2.336-1.9a5.82,5.82,0,0,1,.83-.609,5.731,5.731,0,0,1-.734.719c-.558.5-1.305,1.162-2.248,2-1.984,1.75-4.909,4.338-8.579,7.769A283.711,283.711,0,0,0,487.9,465.074c-5.634,7.017-11.486,14.959-17.615,23.6-6.114,8.657-12.593,17.947-19.031,27.967a342.244,342.244,0,0,0-18.675,32.353c-2.922,5.785-5.523,11.841-8.179,18.015s-5.317,12.429-8.028,18.772c-10.754,25.381-20.218,49.92-26.976,72.84a338.38,338.38,0,0,0-12.617,62.115" fill="#2e353a"/>
        <path id="Path_7610" data-name="Path 7610" d="M431.763,548.315a15.353,15.353,0,0,1-.739-3.229c-.4-2.092-.873-5.136-1.4-8.906-1.071-7.537-2.193-17.995-3.388-29.531s-2.462-21.953-3.644-29.453c-.581-3.75-1.081-6.783-1.454-8.873a15.238,15.238,0,0,1-.425-3.287,15.092,15.092,0,0,1,.953,3.174c.536,2.06,1.187,5.075,1.891,8.818,1.436,7.482,2.865,17.919,4.059,29.471,1.152,11.388,2.188,21.687,2.983,29.559.38,3.554.7,6.547.963,8.951a15.079,15.079,0,0,1,.2,3.307" fill="#2e353a"/>
        <path id="Path_7611" data-name="Path 7611" d="M529.081,530.127a21.218,21.218,0,0,1-3.883.465c-2.495.221-6.111.523-10.563,1.041-8.916.961-21.181,2.721-34.629,5.256-13.448,2.558-25.52,5.392-34.191,7.693-4.346,1.122-7.837,2.123-10.256,2.8a20.881,20.881,0,0,1-3.8.933,20.6,20.6,0,0,1,3.637-1.456c2.374-.837,5.835-1.989,10.158-3.237,8.629-2.555,20.709-5.551,34.2-8.121a343.637,343.637,0,0,1,34.787-4.859c4.482-.392,8.118-.546,10.633-.6a20.747,20.747,0,0,1,3.908.081" fill="#2e353a"/>
        <path id="Path_7612" data-name="Path 7612" d="M389.371,656.461a4.914,4.914,0,0,1-.666-1.187c-.45-.951-1-2.113-1.665-3.521-1.431-3.063-3.388-7.55-5.732-13.126-4.7-11.149-10.7-26.755-17.084-44.06s-12.243-32.957-16.7-44.186c-2.183-5.46-3.981-9.949-5.317-13.287-.571-1.449-1.041-2.643-1.426-3.624a4.977,4.977,0,0,1-.41-1.3,5.306,5.306,0,0,1,.666,1.19c.45.953,1,2.113,1.665,3.518,1.431,3.063,3.388,7.553,5.732,13.128,4.7,11.149,10.7,26.752,17.087,44.068s12.238,32.946,16.7,44.179c2.186,5.457,3.981,9.952,5.317,13.287.571,1.449,1.041,2.646,1.426,3.624a4.944,4.944,0,0,1,.41,1.3" fill="#2e353a"/>
        <path id="Path_7613" data-name="Path 7613" d="M518.693,614.779a5.225,5.225,0,0,1-1.283.528c-1.011.34-2.253.754-3.757,1.26-3.468,1.124-8.151,2.643-13.848,4.487-11.692,3.793-27.781,9.215-45.552,15.231s-33.932,11.3-45.7,14.851c-5.888,1.778-10.664,3.166-13.986,4.059-1.534.4-2.8.734-3.83,1.006a4.933,4.933,0,0,1-1.361.256,5.413,5.413,0,0,1,1.283-.531l3.755-1.255c3.471-1.127,8.151-2.641,13.848-4.489,11.692-3.79,27.783-9.215,45.559-15.233s33.922-11.295,45.7-14.846c5.888-1.778,10.664-3.169,13.986-4.062,1.537-.4,2.8-.737,3.83-1.006a5.065,5.065,0,0,1,1.363-.257" fill="#2e353a"/>
      </g>
    </g>
    <g id="Group_5136" data-name="Group 5136" transform="translate(65 554.791)">
      <path id="Path_7955" data-name="Path 7955" d="M230.269,366.333l-1.929,8.521c-1.83-.463-45.678-11.489-92.93-41.806C72.51,292.66,34.28,237.226,24.922,172.612l8.147-1.4c21.751,150.048,195.443,194.676,197.2,195.123" transform="translate(42.133 289.443)" fill="#003cca"/>
      <path id="Path_7956" data-name="Path 7956" d="M46.823,225.242S1.137,201.006,20.065,145.179c0,0,40.542,32.938,26.758,80.063" transform="translate(26.156 245.436)" fill="#003cca"/>
      <path id="Path_7957" data-name="Path 7957" d="M87.61,223.618S25.326,244.429,0,174.117c0,0,33.22-12.2,87.61,49.5" transform="translate(0 292.701)" fill="#003cca"/>
      <path id="Path_7958" data-name="Path 7958" d="M31.867,255.455S89.7,223.2,60.874,154.47c0,0-31.574,16.361-29.007,100.985" transform="translate(53.623 261.143)" fill="#003cca"/>
      <path id="Path_7959" data-name="Path 7959" d="M102.459,237.569s-60.043,27.46-92.071-39.659c0,0,31.864-15.759,92.071,39.659" transform="translate(17.563 331.08)" fill="#003cca"/>
      <path id="Path_7960" data-name="Path 7960" d="M45.31,276.588s54.433-38.33,19.028-103.544c0,0-29.855,19.73-19.028,103.544" transform="translate(72.602 292.543)" fill="#003cca"/>
      <path id="Path_7961" data-name="Path 7961" d="M124.928,245.572S70.121,283.42,27.675,223.194c0,0,28.862-21.307,97.253,22.378" transform="translate(46.787 368.543)" fill="#003cca"/>
      <path id="Path_7962" data-name="Path 7962" d="M69.519,294.758s47.47-47.588,2.021-105.347c0,0-26.249,24.818-2.021,105.347" transform="translate(100.168 320.213)" fill="#003cca"/>
      <path id="Path_7963" data-name="Path 7963" d="M146.141,244.584s-43.609,51.568-99.583,5.217c0,0,22.7-28.45,99.583-5.217" transform="translate(78.709 398.057)" fill="#003cca"/>
      <path id="Path_7964" data-name="Path 7964" d="M100.71,303.461s34.232-58.9-24.008-102.013c0,0-19.264,31.108,24.008,102.013" transform="translate(122.445 340.563)" fill="#003cca"/>
    </g>
  </g>
</svg>
