<svg xmlns="http://www.w3.org/2000/svg" width="719.003" height="390.828" viewBox="0 0 719.003 390.828">
  <g id="Group_5390" data-name="Group 5390" transform="translate(0 0)">
    <g id="Group_2479" data-name="Group 2479" transform="translate(0 0)">
      <g id="Group_906" data-name="Group 906">
        <circle id="Ellipse_96" data-name="Ellipse 96" cx="32.989" cy="32.989" r="32.989" transform="translate(20.006 18.169)" fill="#003cca"/>
        <ellipse id="Ellipse_97" data-name="Ellipse 97" cx="359.502" cy="14.403" rx="359.502" ry="14.403" transform="translate(0 362.023)" fill="#e6e6e6"/>
        <circle id="Ellipse_98" data-name="Ellipse 98" cx="81.038" cy="81.038" r="81.038" transform="translate(0 51.079)" fill="#173a8d"/>
        <path id="Path_643" data-name="Path 643" d="M117.345,423.5h-16.6l7.567-256.3Z" transform="translate(-28.496 -47.289)" fill="#3f3d56"/>
        <path id="Path_644" data-name="Path 644" d="M112.474,225.21l17.819-24.653L112.23,231.312l-1.953-3.417Z" transform="translate(-31.192 -56.724)" fill="#3f3d56"/>
        <path id="Path_645" data-name="Path 645" d="M103.589,259.927,85.771,235.274l18.063,30.755,1.953-3.417Z" transform="translate(-24.26 -66.543)" fill="#3f3d56"/>
        <path id="Path_646" data-name="Path 646" d="M820.959,423.872h-16.6l7.567-256.3Z" transform="translate(-164.222 -44.095)" fill="#003cca"/>
        <path id="Path_647" data-name="Path 647" d="M816.087,225.586l17.819-24.653-18.063,30.755-1.953-3.417Z" transform="translate(-167.443 -72.382)" fill="#003cca"/>
        <path id="Path_648" data-name="Path 648" d="M807.2,260.3,789.385,235.65,807.448,266.4l1.953-3.417Z" transform="translate(-160.512 -82.202)" fill="#003cca"/>
        <path id="Path_4686" data-name="Path 4686" d="M150.963,0A150.963,150.963,0,1,1,0,150.963,150.963,150.963,0,0,1,150.963,0Z" transform="translate(178.249 74.508)" fill="#d00c39"/>
        <path id="Path_7917" data-name="Path 7917" d="M138.466,0A138.466,138.466,0,1,1,0,138.466,138.466,138.466,0,0,1,138.466,0Z" transform="translate(190.746 87.005)" fill="#ebf1fc"/>
        <circle id="Ellipse_101" data-name="Ellipse 101" cx="18.495" cy="18.495" r="18.495" transform="translate(310.217 207.475)" fill="#d00c39"/>
        <rect id="Rectangle_722" data-name="Rectangle 722" width="7.998" height="14.996" transform="translate(324.713 94.003)" fill="#d00c39"/>
        <rect id="Rectangle_723" data-name="Rectangle 723" width="7.998" height="14.996" transform="translate(324.713 342.942)" fill="#d00c39"/>
        <rect id="Rectangle_724" data-name="Rectangle 724" width="7.998" height="14.996" transform="translate(211.741 221.972) rotate(90)" fill="#d00c39"/>
        <rect id="Rectangle_725" data-name="Rectangle 725" width="7.998" height="14.996" transform="translate(460.68 221.972) rotate(90)" fill="#d00c39"/>
        <path id="Path_649" data-name="Path 649" d="M450.924,320.122l6.835-15.629L543.4,351.927Z" transform="translate(-118.213 -78.52)" fill="#d00c39"/>
        <rect id="Rectangle_726" data-name="Rectangle 726" width="38.99" height="44.989" transform="translate(309.717 38.017)" fill="#d00c39"/>
        <ellipse id="Ellipse_102" data-name="Ellipse 102" cx="44.989" cy="12.497" rx="44.989" ry="12.497" transform="translate(284.223 25.52)" fill="#d00c39"/>
        <path id="Path_662" data-name="Path 662" d="M993.837,209.826a32.04,32.04,0,0,0-62.863-6.755c-.388-.014-.776-.03-1.168-.03a32.046,32.046,0,0,0-30.74,23.007,22.644,22.644,0,0,0-26.87,6.689H972.14a21.672,21.672,0,0,0,21.72-22.439Q993.85,210.063,993.837,209.826Z" transform="translate(-356.921 -179.594)" fill="#cbdbf4"/>
        <circle id="Ellipse_107" data-name="Ellipse 107" cx="8.606" cy="8.606" r="8.606" transform="translate(607.523 64.9)" fill="#003cca"/>
        <circle id="Ellipse_108" data-name="Ellipse 108" cx="7.166" cy="7.166" r="7.166" transform="translate(634.947 46.05)" fill="#003cca"/>
        <circle id="Ellipse_109" data-name="Ellipse 109" cx="8.606" cy="8.606" r="8.606" transform="translate(668.48 83.546)" fill="#003cca"/>
        <circle id="Ellipse_110" data-name="Ellipse 110" cx="8.606" cy="8.606" r="8.606" transform="translate(603.22 122.989)" fill="#003cca"/>
        <circle id="Ellipse_111" data-name="Ellipse 111" cx="8.606" cy="8.606" r="8.606" transform="translate(668.48 172.473)" fill="#003cca"/>
        <path id="Path_663" data-name="Path 663" d="M977.145,680.8c0-.093.014-.184.014-.279a8.593,8.593,0,0,0-12.182-7.82,8.583,8.583,0,0,0-14.94,7.11c-.044,0-.086-.006-.13-.006a8.606,8.606,0,1,0,5.26,15.407,8.6,8.6,0,0,0,14.789.872,8.6,8.6,0,1,0,7.189-15.284Z" transform="translate(-315.49 -561.332)" fill="#003cca"/>
        <circle id="Ellipse_112" data-name="Ellipse 112" cx="3.586" cy="3.586" r="3.586" transform="translate(681.389 143.07)" fill="#003cca"/>
        <circle id="Ellipse_113" data-name="Ellipse 113" cx="3.586" cy="3.586" r="3.586" transform="translate(658.44 57.011)" fill="#003cca"/>
        <circle id="Ellipse_114" data-name="Ellipse 114" cx="3.586" cy="3.586" r="3.586" transform="translate(646.249 145.938)" fill="#003cca"/>
        <circle id="Ellipse_115" data-name="Ellipse 115" cx="3.586" cy="3.586" r="3.586" transform="translate(648.436 82.11)" fill="#003cca"/>
        <circle id="Ellipse_116" data-name="Ellipse 116" cx="3.586" cy="3.586" r="3.586" transform="translate(651.269 138.767)" fill="#003cca"/>
        <circle id="Ellipse_117" data-name="Ellipse 117" cx="3.586" cy="3.586" r="3.586" transform="translate(596.047 97.917)" fill="#003cca"/>
        <circle id="Ellipse_118" data-name="Ellipse 118" cx="3.586" cy="3.586" r="3.586" transform="translate(695.732 209.047)" fill="#003cca"/>
        <circle id="Ellipse_119" data-name="Ellipse 119" cx="3.586" cy="3.586" r="3.586" transform="translate(617.564 172.473)" fill="#003cca"/>
        <circle id="Ellipse_120" data-name="Ellipse 120" cx="3.586" cy="3.586" r="3.586" transform="translate(623.3 100.758)" fill="#003cca"/>
        <circle id="Ellipse_121" data-name="Ellipse 121" cx="3.586" cy="3.586" r="3.586" transform="translate(639.794 165.301)" fill="#003cca"/>
        <circle id="Ellipse_122" data-name="Ellipse 122" cx="3.586" cy="3.586" r="3.586" transform="translate(636.208 159.564)" fill="#003cca"/>
      </g>
    </g>
    <line id="Line_130" data-name="Line 130" y1="154.498" x2="242.61" transform="translate(204.591 146.778)" fill="none" stroke="#d00c39" stroke-width="11"/>
  </g>
</svg>
