<svg xmlns="http://www.w3.org/2000/svg" xmlns:xlink="http://www.w3.org/1999/xlink" width="647.041" height="564.436" viewBox="0 0 647.041 564.436">
  <defs>
    <clipPath id="clip-path">
      <rect id="Rectangle_2554" data-name="Rectangle 2554" width="302.041" height="450.667" fill="none"/>
    </clipPath>
    <clipPath id="clip-path-2">
      <rect id="Rectangle_2496" data-name="Rectangle 2496" width="568.653" height="564.436" fill="none"/>
    </clipPath>
    <clipPath id="clip-path-3">
      <path id="Path_7500" data-name="Path 7500" d="M1193.665,2233.193l-10.223,91.683h118.6l-15.448-91.683Z" transform="translate(-1183.442 -2233.193)" fill="#173a8d"/>
    </clipPath>
    <clipPath id="clip-path-4">
      <path id="Path_7501" data-name="Path 7501" d="M27.188,748.051A27.81,27.81,0,0,0,0,775.859v252.212a38.261,38.261,0,0,0,37.275,38.25c92.12,2.375,414.313,8.135,502.005,6.843A28.152,28.152,0,0,0,567,1045.813c1.691-58.593,4.438-199.488-5.726-264.9a28.97,28.97,0,0,0-27.7-24.521c-68.72-2.2-347-8.654-469.078-8.655-15.038,0-27.691.1-37.3.314" transform="translate(0 -747.737)" fill="#173a8d"/>
    </clipPath>
    <clipPath id="clip-path-6">
      <path id="Path_7506" data-name="Path 7506" d="M1177.038,2653.57l-167.34,5.222c-3.462.108-6.376,2.053-7.046,4.7l-2.228,8.809c-.912,3.606,2.63,6.963,7.346,6.963h173.583c4.792,0,8.35-3.46,7.307-7.1l-4.015-14.031c-.766-2.676-3.812-4.565-7.3-4.565-.1,0-.2,0-.3,0" transform="translate(-1000.281 -2653.565)" fill="#061a4a"/>
    </clipPath>
    <clipPath id="clip-path-8">
      <rect id="Rectangle_2501" data-name="Rectangle 2501" width="203.084" height="67.683" fill="none"/>
    </clipPath>
    <clipPath id="clip-path-9">
      <path id="Path_7515" data-name="Path 7515" d="M700.42,947.38q.63-3.265,1.041-5.978.157,1.325.93,5.252t.994,4.905l2.461,10.726h-8.707q2.65-11.64,3.281-14.905m-4.795-12.161-11.42,46.309h8.58l2.65-11.64h12.019l2.65,11.64h8.612l-11.451-46.309Z" transform="translate(-684.206 -935.219)" fill="#fff"/>
    </clipPath>
    <clipPath id="clip-path-10">
      <path id="Path_7516" data-name="Path 7516" d="M884.171,943.571h2.082a5.311,5.311,0,0,1,4.385,1.751q1.42,1.75,1.42,5.378,0,3.944-1.546,5.678a5.975,5.975,0,0,1-4.7,1.735h-1.64Zm-8.58-7.413v46.119h8.58V965.558h2.145q7,0,10.71-3.927t3.707-11.277q0-14.2-13.438-14.2Z" transform="translate(-875.591 -936.158)" fill="#fff"/>
    </clipPath>
    <clipPath id="clip-path-11">
      <path id="Path_7517" data-name="Path 7517" d="M1037.686,943.571h2.082a5.311,5.311,0,0,1,4.385,1.751q1.42,1.75,1.42,5.378,0,3.944-1.546,5.678a5.975,5.975,0,0,1-4.7,1.735h-1.64Zm-8.58-7.413v46.119h8.58V965.558h2.145q7,0,10.71-3.927t3.707-11.277q0-14.2-13.438-14.2Z" transform="translate(-1029.106 -936.158)" fill="#fff"/>
    </clipPath>
    <clipPath id="clip-path-12">
      <path id="Path_7518" data-name="Path 7518" d="M1191.2,943.571h2.145a5.681,5.681,0,0,1,4.338,1.5q1.4,1.5,1.4,5.031a8.314,8.314,0,0,1-1.325,5.126,5.155,5.155,0,0,1-4.353,1.719H1191.2Zm-8.58-7.413v46.119h8.58V964.328h3.06l7.287,17.949h9.18l-8.864-20.221q5.9-3.47,5.9-12.208,0-6.94-3.391-10.316t-10.521-3.375Z" transform="translate(-1182.622 -936.158)" fill="#fff"/>
    </clipPath>
    <clipPath id="clip-path-13">
      <path id="Path_7519" data-name="Path 7519" d="M1346.581,968.3q-1.988-4.132-1.987-12.019,0-7.918,1.987-12.035t5.9-4.117q7.7,0,7.7,16.151t-7.76,16.151q-3.849,0-5.836-4.133m-6.467-29.637q-4.29,6.1-4.29,17.555,0,11.545,4.29,17.681t12.3,6.136q7.98,0,12.271-6.151t4.29-17.6q0-11.451-4.259-17.587t-12.24-6.136q-8.076,0-12.366,6.1" transform="translate(-1335.824 -932.558)" fill="#fff"/>
    </clipPath>
    <clipPath id="clip-path-14">
      <path id="Path_7520" data-name="Path 7520" d="M1537.349,936.158l-5.962,28.17q-1.01,4.606-1.672,10.316a104.185,104.185,0,0,0-1.609-10.316l-6.025-28.17h-8.643l10.789,46.119h10.915l10.852-46.119Z" transform="translate(-1513.438 -936.158)" fill="#fff"/>
    </clipPath>
    <clipPath id="clip-path-15">
      <path id="Path_7521" data-name="Path 7521" d="M1695.122,936.158v46.119h20.789V974.77H1703.7V961.994h11.325v-7.444H1703.7V943.571h12.208v-7.413Z" transform="translate(-1695.122 -936.158)" fill="#fff"/>
    </clipPath>
    <clipPath id="clip-path-16">
      <path id="Path_7522" data-name="Path 7522" d="M1840.16,943.571h3.439q8.517,0,8.517,15.457,0,7.887-2.24,11.814a7.445,7.445,0,0,1-6.94,3.927h-2.776Zm-8.58-7.413v46.119h11.293q8.738,0,13.391-6.041t4.653-17.461q0-10.725-4.48-16.672t-12.524-5.946Z" transform="translate(-1831.58 -936.158)" fill="#fff"/>
    </clipPath>
    <clipPath id="clip-path-17">
      <path id="Path_7529" data-name="Path 7529" d="M197.8,1506.111l-1.919,232.365a11.549,11.549,0,0,0,11.663,11.643l182.544-1.81a12.166,12.166,0,0,0,12.035-12.683l-9.848-230.975a16.5,16.5,0,0,0-16.347-15.795l-159.246-1.315h-.158a18.728,18.728,0,0,0-18.723,18.572" transform="translate(-195.878 -1487.539)" fill="#003cca"/>
    </clipPath>
    <clipPath id="clip-path-19">
      <path id="Path_7532" data-name="Path 7532" d="M268.449,1483.429l-.579,243.6a4.586,4.586,0,0,0,4.066,4.572c38.165,4.316,145.3-.748,171.321-2.072a5.788,5.788,0,0,0,5.488-6.042l-10.41-232.009a5.03,5.03,0,0,0-5.377-4.788c-61.867,4.236-136.572-5.5-158.295-8.631a5.517,5.517,0,0,0-.786-.057,5.442,5.442,0,0,0-5.428,5.431" transform="translate(-267.87 -1477.998)" fill="#fff"/>
    </clipPath>
    <clipPath id="clip-path-21">
      <rect id="Rectangle_2520" data-name="Rectangle 2520" width="174.071" height="245.694" fill="#fff"/>
    </clipPath>
    <clipPath id="clip-path-22">
      <rect id="Rectangle_2521" data-name="Rectangle 2521" width="137.153" height="5.378" fill="#061a4a"/>
    </clipPath>
    <clipPath id="clip-path-23">
      <rect id="Rectangle_2522" data-name="Rectangle 2522" width="137.154" height="5.376" fill="none"/>
    </clipPath>
    <clipPath id="clip-path-24">
      <rect id="Rectangle_2523" data-name="Rectangle 2523" width="22.426" height="18.698" fill="#173a8d"/>
    </clipPath>
    <clipPath id="clip-path-25">
      <rect id="Rectangle_2524" data-name="Rectangle 2524" width="94.951" height="8.861" fill="none"/>
    </clipPath>
    <clipPath id="clip-path-26">
      <path id="Path_7539" data-name="Path 7539" d="M419.587,1915.555l-8.295,19.726a.883.883,0,0,1-1.575.106l-3.687-6.25a2.751,2.751,0,0,0-3.818-.941,2.885,2.885,0,0,0-1.07,3.71c4.457,9.192,9.762,11.109,9.762,11.109a38.538,38.538,0,0,0,10.564-27.083.972.972,0,0,0-.993-.978.943.943,0,0,0-.889.6" transform="translate(-400.852 -1914.954)" fill="#061a4a"/>
    </clipPath>
    <clipPath id="clip-path-28">
      <rect id="Rectangle_2527" data-name="Rectangle 2527" width="22.426" height="18.697" fill="#173a8d"/>
    </clipPath>
    <clipPath id="clip-path-29">
      <rect id="Rectangle_2528" data-name="Rectangle 2528" width="94.952" height="8.86" fill="#061a4a"/>
    </clipPath>
    <clipPath id="clip-path-30">
      <path id="Path_7543" data-name="Path 7543" d="M423.035,1715.9l-8.295,19.726a.883.883,0,0,1-1.575.106l-3.687-6.25a2.751,2.751,0,0,0-3.818-.941,2.886,2.886,0,0,0-1.07,3.71c4.457,9.193,9.762,11.109,9.762,11.109a38.539,38.539,0,0,0,10.564-27.083.972.972,0,0,0-.993-.978.944.944,0,0,0-.888.6" transform="translate(-404.3 -1715.299)" fill="#061a4a"/>
    </clipPath>
    <clipPath id="clip-path-33">
      <rect id="Rectangle_2532" data-name="Rectangle 2532" width="94.952" height="8.861" fill="none"/>
    </clipPath>
    <clipPath id="clip-path-34">
      <path id="Path_7547" data-name="Path 7547" d="M424.181,2106.052l-8.295,19.726a.883.883,0,0,1-1.575.106l-3.687-6.25a2.751,2.751,0,0,0-3.818-.94,2.885,2.885,0,0,0-1.07,3.71c4.457,9.192,9.762,11.109,9.762,11.109a38.541,38.541,0,0,0,10.564-27.083.972.972,0,0,0-.993-.978.943.943,0,0,0-.888.6" transform="translate(-405.446 -2105.452)" fill="#061a4a"/>
    </clipPath>
    <clipPath id="clip-path-38">
      <path id="Path_7551" data-name="Path 7551" d="M420.277,2289.176l-8.295,19.726a.883.883,0,0,1-1.575.107l-3.687-6.25a2.751,2.751,0,0,0-3.818-.94,2.886,2.886,0,0,0-1.07,3.71c4.457,9.193,9.762,11.109,9.762,11.109a38.539,38.539,0,0,0,10.564-27.083.972.972,0,0,0-.993-.978.943.943,0,0,0-.888.6" transform="translate(-401.542 -2288.575)" fill="#061a4a"/>
    </clipPath>
    <clipPath id="clip-path-40">
      <rect id="Rectangle_2539" data-name="Rectangle 2539" width="22.426" height="18.697" fill="#061a4a"/>
    </clipPath>
    <clipPath id="clip-path-41">
      <rect id="Rectangle_2540" data-name="Rectangle 2540" width="94.953" height="8.861" fill="none"/>
    </clipPath>
    <clipPath id="clip-path-42">
      <path id="Path_7555" data-name="Path 7555" d="M414.731,2478.059l-8.295,19.726a.883.883,0,0,1-1.575.106l-3.687-6.25a2.751,2.751,0,0,0-3.818-.941,2.885,2.885,0,0,0-1.07,3.71c4.457,9.192,9.762,11.109,9.762,11.109a38.54,38.54,0,0,0,10.564-27.083.972.972,0,0,0-.992-.979.943.943,0,0,0-.889.6" transform="translate(-395.996 -2477.458)" fill="#061a4a"/>
    </clipPath>
    <clipPath id="clip-path-43">
      <path id="Path_7556" data-name="Path 7556" d="M659.738,1334.209a4.495,4.495,0,1,1,.038,0h-.038m-6.195-16.306a7.023,7.023,0,0,0-5.049,7.342l1.382,16.586,18.055,1.753s11.079-14.738-.137-22.68a17.5,17.5,0,0,0-10.206-3.572,14.677,14.677,0,0,0-4.045.571" transform="translate(-648.47 -1317.332)" fill="#173a8d"/>
    </clipPath>
    <clipPath id="clip-path-45">
      <path id="Path_7558" data-name="Path 7558" d="M532.743,1429.676l-.069,8.333,67.945,1.768-.414-8.011a4.945,4.945,0,0,0-4.729-4.686l-57.433-2.443c-.074,0-.147,0-.22,0a5.085,5.085,0,0,0-5.081,5.043" transform="translate(-532.674 -1424.633)" fill="#061a4a"/>
    </clipPath>
    <clipPath id="clip-path-47">
      <path id="Path_7561" data-name="Path 7561" d="M415.41,1480.228l-.26,4.611a4.146,4.146,0,0,0,4.105,4.379l103.068.851a6.377,6.377,0,0,0,6.345-7.413l-.081-.492a7.426,7.426,0,0,0-7.266-6.219l-100.461-.827h-.045a5.415,5.415,0,0,0-5.405,5.109" transform="translate(-415.144 -1475.118)" fill="#061a4a"/>
    </clipPath>
    <clipPath id="clip-path-48">
      <path id="Path_7562" data-name="Path 7562" d="M1944.98,1836.309l143.448,66.36a10.515,10.515,0,0,0,13.986-5.19l.448-.986a11.312,11.312,0,0,0-6.428-15.312L1948.7,1827.411Z" transform="translate(-1944.98 -1827.411)" fill="#173a8d"/>
    </clipPath>
    <clipPath id="clip-path-50">
      <rect id="Rectangle_2549" data-name="Rectangle 2549" width="145.858" height="143.226" fill="none"/>
    </clipPath>
    <clipPath id="clip-path-51">
      <path id="Path_7564" data-name="Path 7564" d="M1235.942,1351.35c0-37.545,30.995-67.98,69.229-67.98s69.229,30.436,69.229,67.98-31,67.98-69.229,67.98-69.229-30.436-69.229-67.98m-11.92,0c0,44.01,36.332,79.686,81.15,79.686s81.15-35.676,81.15-79.686-36.332-79.686-81.15-79.686-81.15,35.677-81.15,79.686" transform="translate(-1224.022 -1271.664)" fill="#173a8d"/>
    </clipPath>
    <clipPath id="clip-path-53">
      <path id="Path_7568" data-name="Path 7568" d="M1459.691,1239.861c-15.928,26.266-30.643,55.507-44.447,86.981a286.225,286.225,0,0,0-32.173-37.553l-12.658,18.583c12.778,8.849,30.493,33.787,48.223,58.774,24.521-52.437,53.205-104.719,80.112-139.8Z" transform="translate(-1370.413 -1226.843)" fill="#fff"/>
    </clipPath>
  </defs>
  <g id="Group_4700" data-name="Group 4700" transform="translate(-231.479 -456)">
    <g id="Group_4678" data-name="Group 4678" transform="translate(-7.521 -33.564)">
      <g id="Group_4674" data-name="Group 4674" transform="translate(584 546.449)">
        <g id="Group_4673" data-name="Group 4673" clip-path="url(#clip-path)">
          <path id="Path_7569" data-name="Path 7569" d="M2.546,339.8C-4.3,373.113,5.917,421.153,38.712,440.859c37.236,22.374,64.459-2.35,81.051-5.367,40.821-7.437,60.8-2.873,98.265,11.743,24.381,9.517,66.667-7.308,79.45-41.554,23.3-62.45-61.9-150.094-62.859-206.6-.776-46.041,12.343-65.393-9.781-111.387" fill="none" stroke="#173a8d" stroke-miterlimit="10" stroke-width="1.056" stroke-dasharray="2.641 2.641"/>
          <path id="Path_7570" data-name="Path 7570" d="M236.725,43.99c.056-.389,10.321,19.565,10.321,19.565L226.254,88.544l4.36-25.418-18.7-16.72L198.823.013Z" fill="#91b3fa"/>
          <path id="Path_7571" data-name="Path 7571" d="M198.814.007l27.44,88.536,4.358-25.419Z" fill="#a4e1ff"/>
          <path id="Path_7572" data-name="Path 7572" d="M198.815.012,267.2,63.733l-20.149-.186L198.818,0l31.789,63.124-34.705.421Z" fill="#173a8d"/>
        </g>
      </g>
      <g id="Group_4540" data-name="Group 4540" transform="translate(239 489.564)">
        <g id="Group_4539" data-name="Group 4539" clip-path="url(#clip-path-2)">
          <path id="Path_7482" data-name="Path 7482" d="M142.047,569.824a.931.931,0,0,1-.537-.845c.008-1.22.043-2.46.1-3.686a.9.9,0,0,1,.97-.852c1.24.073.8,1.281.781,4.583a.9.9,0,0,1-.933.891.948.948,0,0,1-.383-.091" transform="translate(-112.984 -450.657)" fill="#91b3fa"/>
          <path id="Path_7483" data-name="Path 7483" d="M148.417,222.033c.416-2.307.932-4.625,1.531-6.889a.912.912,0,0,1,1.13-.635c1.348.377.392,1.077-.836,7.875a.908.908,0,0,1-1.075.721.933.933,0,0,1-.751-1.072m5.163-17.749c.888-2.18,1.879-4.365,2.913-6.418a.931.931,0,0,1,1.663.835c-1.029,2.048-1.986,4.156-2.854,6.29a.931.931,0,0,1-1.722-.706m8.706-16.292c1.313-1.937,2.722-3.846,4.188-5.675a.93.93,0,0,1,1.462,1.148c-1.437,1.792-2.817,3.662-4.1,5.56a.931.931,0,0,1-1.547-1.033m11.931-12.849a.9.9,0,0,1,.006-1.292c1.693-1.624,3.476-3.2,5.3-4.69.937-.765,2.134.651,1.2,1.415-1.785,1.458-3.532,3-5.191,4.6a.936.936,0,0,1-1.311-.029m14.4-11.417a.9.9,0,0,1,.273-1.259c2-1.245,4.078-2.427,6.172-3.512a.924.924,0,0,1,.885,1.621c-2.052,1.063-4.087,2.221-6.048,3.441a.944.944,0,0,1-1.282-.291m16.97-7.75a.936.936,0,0,1-.474-.505.9.9,0,0,1,.527-1.174c2.224-.816,4.507-1.554,6.785-2.2a.946.946,0,0,1,1.156.63.9.9,0,0,1-.618,1.128c-2.233.628-4.471,1.352-6.65,2.151a.939.939,0,0,1-.726-.035m17.954-4.58a.938.938,0,0,1-.525-.686.9.9,0,0,1,.76-1.04c2.349-.351,4.744-.614,7.119-.782a.941.941,0,0,1,1.006.846.9.9,0,0,1-.84.976c-2.326.165-4.673.423-6.975.767a.941.941,0,0,1-.543-.081m18.052-1.738a.9.9,0,0,1,.962-.861c2.38.131,4.788.359,7.159.674a.912.912,0,1,1-.217,1.81c-2.322-.309-4.682-.531-7.014-.66a.939.939,0,0,1-.891-.964m57.653,24.594c-5.2-4.684-6.447-4.717-5.593-5.8a.932.932,0,0,1,1.3-.149c1.895,1.459,3.755,3.011,5.532,4.613a.911.911,0,1,1-1.238,1.338M260.06,152.383a.911.911,0,0,1,1.123-.646c2.311.608,4.63,1.313,6.893,2.1a.91.91,0,1,1-.586,1.723c-2.218-.767-4.491-1.459-6.755-2.054a.93.93,0,0,1-.675-1.119m24.255,10.929c-6.023-3.543-7.27-3.331-6.66-4.574a.946.946,0,0,1,1.237-.407c2.156,1.056,4.293,2.206,6.352,3.416a.91.91,0,1,1-.929,1.565" transform="translate(-118.487 -118.8)" fill="#91b3fa"/>
          <path id="Path_7484" data-name="Path 7484" d="M937.989,312.761c-1.939-2.443-3.195-3.319-2.24-4.113a.937.937,0,0,1,1.307.119c2.107,2.445,3.183,3.44,2.236,4.164a1.058,1.058,0,0,1-1.3-.17" transform="translate(-746.856 -246.26)" fill="#91b3fa"/>
          <path id="Path_7485" data-name="Path 7485" d="M1041.93,647.471a.929.929,0,0,1-.529-.959c.162-1.19.3-2.4.412-3.585a.9.9,0,0,1,1.009-.808.938.938,0,0,1,.838,1.009c-.114,1.214-.256,2.445-.421,3.659a.906.906,0,0,1-1.042.766.943.943,0,0,1-.268-.081" transform="translate(-831.465 -512.674)" fill="#91b3fa"/>
          <path id="Path_7486" data-name="Path 7486" d="M302.72,775.368c-2.3-1.168-4.579-2.445-6.772-3.8a.914.914,0,0,1-.311-1.26c.75-1.2,1.178.018,7.909,3.436a.918.918,0,0,1,.417,1.232.945.945,0,0,1-1.243.389m11.014,3.787c.462-1.336,1.186-.227,8.443,1.676a.928.928,0,0,1,.676,1.118.911.911,0,0,1-1.123.647c-2.483-.651-4.979-1.416-7.416-2.273a.926.926,0,0,1-.58-1.168m-28.049-14.9c-1.989-1.631-3.936-3.367-5.784-5.159a.9.9,0,0,1-.023-1.292c1-1.006,1.147.273,6.978,5.054a.909.909,0,0,1,.134,1.288.934.934,0,0,1-1.3.109M333.8,784.882a.93.93,0,0,1-.532-.935.9.9,0,0,1,1.02-.794c2.505.307,5.048.512,7.558.609a.939.939,0,0,1,.907.949.9.9,0,0,1-.946.877c-2.562-.1-5.158-.308-7.715-.622a.954.954,0,0,1-.292-.084m20.043.256a.936.936,0,0,1-.532-.734.9.9,0,0,1,.814-1c2.5-.242,5.012-.592,7.479-1.041a.945.945,0,0,1,1.092.733.9.9,0,0,1-.725,1.064c-2.518.459-5.086.816-7.634,1.063a.943.943,0,0,1-.5-.087m19.539-4.083a.939.939,0,0,1-.486-.536.9.9,0,0,1,.57-1.154c2.374-.775,4.743-1.66,7.042-2.629a.947.947,0,0,1,1.224.484.9.9,0,0,1-.469,1.2c-2.345.989-4.763,1.892-7.186,2.683a.941.941,0,0,1-.7-.046m18.1-8.2a.945.945,0,0,1-.4-.354.9.9,0,0,1,.3-1.253c2.138-1.269,4.246-2.644,6.266-4.088a.94.94,0,0,1,1.3.211.9.9,0,0,1-.191,1.274c-2.061,1.473-4.212,2.877-6.394,4.172a.936.936,0,0,1-.879.037m15.509-12.121c-1.008-1.031.285-1.115,5.191-6.652a.93.93,0,0,1,1.405,1.216c-1.674,1.889-3.452,3.73-5.286,5.471a.937.937,0,0,1-1.311-.035m12.833-14.976c-1.211-.79.02-1.145,3.554-7.639a.931.931,0,0,1,1.637.885c-1.206,2.216-2.521,4.4-3.91,6.5a.927.927,0,0,1-1.281.251m9.055-17.469a.922.922,0,0,1-.479-1.153c.874-2.322,1.656-4.7,2.323-7.067a.912.912,0,0,1,1.141-.617.93.93,0,0,1,.646,1.135c-.682,2.415-1.479,4.841-2.371,7.21a.916.916,0,0,1-1.19.52c-.024-.009-.047-.019-.07-.03" transform="translate(-223.251 -574.391)" fill="#91b3fa"/>
          <path id="Path_7487" data-name="Path 7487" d="M229.524,852.085c-1.995-2.541-3.021-3.579-2.04-4.259,1.021-.707,1.456.554,3.5,3.157a.9.9,0,0,1-.157,1.28.941.941,0,0,1-1.3-.178" transform="translate(-181.326 -676.763)" fill="#91b3fa"/>
          <path id="Path_7488" data-name="Path 7488" d="M269.751,361.71l13.281-.555A59.056,59.056,0,0,0,296.3,374.484c-.522,12.719-1.46,13.574-.142,14.136l14.74,6.285a1.094,1.094,0,0,0,1.237-.259l8.821-9.65a58.828,58.828,0,0,0,18.777.333l8.814,9.975a1.116,1.116,0,0,0,1.236.3l14.748-5.752a1.054,1.054,0,0,0,.673-1.048l-.8-13.1a56.077,56.077,0,0,0,13.29-12.84l13.271,1.034a1.072,1.072,0,0,0,1.077-.643l6.117-14.419a1.077,1.077,0,0,0-.284-1.224l-9.949-8.866a56.284,56.284,0,0,0,.006-18.5c9.556-8.518,10.794-8.425,10.252-9.725-6.233-14.255-5.719-15.383-7.173-15.322l-13.281.555a59.048,59.048,0,0,0-13.264-13.329c.522-12.712,1.461-13.574.142-14.137-14.752-5.993-15.029-7.064-15.977-6.026l-8.821,9.65a58.81,58.81,0,0,0-18.777-.333c-8.706-9.454-8.721-10.8-10.05-10.279-14.493,5.949-15.507,5.385-15.421,6.8l.8,13.1a56.07,56.07,0,0,0-13.29,12.839c-12.689-.727-13.79-1.707-14.348-.391-5.794,14.373-6.908,14.683-5.832,15.643l9.949,8.867a56.3,56.3,0,0,0-.006,18.5c-9.524,8.489-10.8,8.418-10.252,9.725,6.233,14.255,5.719,15.383,7.173,15.322" transform="translate(-209.561 -208.548)" fill="#173a8d"/>
          <path id="Path_7489" data-name="Path 7489" d="M522.313,531.563a15.237,15.237,0,0,1,17.66-12.631A15.706,15.706,0,0,1,553.1,536.564a15.239,15.239,0,0,1-17.66,12.632,15.7,15.7,0,0,1-13.13-17.633m13.333,16.281.008,0Zm3.922-26.208a12.5,12.5,0,0,0-14.5,10.373,12.9,12.9,0,0,0,10.783,14.482,12.514,12.514,0,0,0,14.5-10.374,12.9,12.9,0,0,0-10.784-14.481" transform="translate(-416.889 -414.158)" fill="#bdd0fb"/>
          <path id="Path_7490" data-name="Path 7490" d="M426,474.023h0a41.157,41.157,0,0,1-5.963-3.463,1.374,1.374,0,0,1-.471-1.709,1.316,1.316,0,0,1,.12-.2,1.4,1.4,0,0,1,1.935-.313,38.526,38.526,0,0,0,6.941,3.849c18.433,7.859,39.583-.014,47.9-17.556q.318-.672.612-1.363c7.892-18.6-1.185-40.1-20.057-48.154-18.846-8.036-40.629.366-48.509,18.919-4.684,11.045-2.023,18.931-2.559,20.064a1.4,1.4,0,0,1-2.638-.421,38.5,38.5,0,0,1,3.286-22.2c14.563-30.723,59.834-28.97,73.065,2.8a38.533,38.533,0,0,1-.02,30.092q-.317.747-.662,1.477a38.4,38.4,0,0,1-20.944,19.411A40.2,40.2,0,0,1,427.5,474.7q-.754-.321-1.494-.672" transform="translate(-321.669 -318.889)" fill="#bdd0fb"/>
          <path id="Path_7491" data-name="Path 7491" d="M1040.528,252.832a32.351,32.351,0,0,0,7.908,6.878l.069,7.421c.007.823.715.513,8.864,3.4.754.252.678-.456,5.2-6.093a32.351,32.351,0,0,0,10.455-.736l5.3,5.2c.589.577.868-.143,8.671-3.865a.61.61,0,0,0,.333-.625l-.967-7.363a32.344,32.344,0,0,0,6.878-7.908c7.091-.214,7.737.283,7.994-.485,2.651-8.414,3.254-8.637,2.618-9.125l-5.886-4.52a32.346,32.346,0,0,0-.735-10.455l5.2-5.3c.577-.588-.143-.868-3.865-8.671-.353-.709-.771-.161-7.988.634a32.349,32.349,0,0,0-7.908-6.878l-.069-7.421c-.008-.824-.715-.513-8.864-3.4-.75-.251-.656.427-5.2,6.093a32.341,32.341,0,0,0-10.455.736l-5.3-5.2a.61.61,0,0,0-.7-.111l-7.971,3.975a.61.61,0,0,0-.333.625l.967,7.363a32.346,32.346,0,0,0-6.878,7.908c-7.091.214-7.738-.283-7.994.486-2.65,8.41-3.255,8.636-2.619,9.125l5.886,4.52a32.35,32.35,0,0,0,.736,10.455c-4.863,5.165-5.676,5.272-5.313,6l3.975,7.971c.355.712.807.157,7.988-.634" transform="translate(-819.991 -154.477)" fill="#91b3fa"/>
          <path id="Path_7492" data-name="Path 7492" d="M1172.07,347.186a9.295,9.295,0,1,1,8.567,9.969,9.29,9.29,0,0,1-8.567-9.969m8.671,8.588.008,0Zm-5.909-8.38a6.525,6.525,0,1,0,11.454-3.76,6.534,6.534,0,0,0-11.454,3.76" transform="translate(-935.778 -270.337)" fill="#bdd0fb"/>
          <path id="Path_7493" data-name="Path 7493" d="M982.375,432.259c-.344-1.2-.645-2.429-.9-3.656a.923.923,0,0,1,.72-1.089c1.258-.256,1.064,1.143,1.95,4.236a.923.923,0,0,1-1.775.509" transform="translate(-783.614 -341.31)" fill="#91b3fa"/>
          <path id="Path_7494" data-name="Path 7494" d="M977.049,190.771a49.329,49.329,0,0,1,.987-7.542.924.924,0,0,1,1.807.381c-1.393,6.6-.379,8.215-1.922,8.132a.923.923,0,0,1-.873-.971m5.466-17.96a.924.924,0,0,1-.413-1.239,48.7,48.7,0,0,1,3.927-6.517.924.924,0,0,1,1.5,1.074,46.749,46.749,0,0,0-3.777,6.269.939.939,0,0,1-1.239.413m12.1-15.264a.923.923,0,0,1-.2-1.542,49.015,49.015,0,0,1,6.195-4.414.923.923,0,1,1,.951,1.583,47.224,47.224,0,0,0-5.96,4.247.924.924,0,0,1-.989.126m17.159-9.2a.923.923,0,0,1,.134-1.72,48.427,48.427,0,0,1,7.444-1.569.924.924,0,1,1,.237,1.832,46.538,46.538,0,0,0-7.16,1.508.918.918,0,0,1-.656-.051m18.887-2.513a.924.924,0,0,1,1.03-.8,48.9,48.9,0,0,1,7.454,1.522.923.923,0,0,1-.51,1.775,46.982,46.982,0,0,0-7.172-1.464.924.924,0,0,1-.8-1.03" transform="translate(-780.09 -115.789)" fill="#91b3fa"/>
          <path id="Path_7495" data-name="Path 7495" d="M1337.935,180.041c-2.769-1.952-4-2.164-3.358-3.235a.915.915,0,0,1,1.266-.322c1.069.636,2.131,1.325,3.157,2.048a.923.923,0,1,1-1.065,1.509" transform="translate(-1065.415 -140.801)" fill="#91b3fa"/>
          <path id="Path_7496" data-name="Path 7496" d="M1446.823,339c-.395-3.378-1.054-4.422.169-4.662a.923.923,0,0,1,1.084.728c.24,1.221.436,2.473.581,3.719a.923.923,0,1,1-1.834.214" transform="translate(-1154.739 -266.925)" fill="#91b3fa"/>
          <path id="Path_7497" data-name="Path 7497" d="M1136.575,450.935c.5-1.451,1.574.06,8.141,1.23a.923.923,0,0,1-.324,1.818,48.676,48.676,0,0,1-7.244-1.876.923.923,0,0,1-.574-1.173m18.95,2.832a.924.924,0,0,1,.856-.987c6.711-.478,7.877-1.872,8.223-.372a.924.924,0,0,1-.693,1.107,48.5,48.5,0,0,1-7.4,1.107.924.924,0,0,1-.986-.856m18.534-4.829c-.706-1.366,1.114-1.086,6.517-5.03a.924.924,0,0,1,1.089,1.492,48.98,48.98,0,0,1-6.362,3.935.924.924,0,0,1-1.244-.4m15.146-11.731c-1.187-.983.6-1.437,4.029-7.18a.923.923,0,0,1,1.586.946,48.8,48.8,0,0,1-4.315,6.112.924.924,0,0,1-1.3.122m8.7-17.881c1.9-6.449,1-8.039,2.53-7.835a.923.923,0,0,1,.794,1.037,48.777,48.777,0,0,1-1.552,7.32.923.923,0,1,1-1.772-.521" transform="translate(-907.419 -328.527)" fill="#91b3fa"/>
          <path id="Path_7498" data-name="Path 7498" d="M1071.847,571.084c-1.044-.689-2.073-1.426-3.059-2.192a.924.924,0,0,1-.162-1.3c.788-1.014,1.548.171,4.239,1.946a.924.924,0,0,1-1.017,1.542" transform="translate(-853.053 -452.88)" fill="#91b3fa"/>
          <path id="Path_7499" data-name="Path 7499" d="M1116.685,313.29a1.386,1.386,0,1,1,1.366-2.411,20.146,20.146,0,0,0,19.249.7c15.957-7.959,14.335-31.405-2.6-37.065a20.139,20.139,0,0,0-24.546,10.446c-4.324,9.124.4,13.947-2.53,14.591a1.384,1.384,0,0,1-1.651-1.054,22.883,22.883,0,1,1,15.091,16.784h0a23.053,23.053,0,0,1-4.382-2" transform="translate(-882.603 -216.137)" fill="#bdd0fb"/>
        </g>
      </g>
      <g id="Group_4542" data-name="Group 4542" transform="translate(477.563 939.74)">
        <g id="Group_4541" data-name="Group 4541" clip-path="url(#clip-path-3)">
          <rect id="Rectangle_2497" data-name="Rectangle 2497" width="128.975" height="144.062" transform="translate(-31.441 79.201) rotate(-68.348)" fill="#173a8d"/>
        </g>
      </g>
      <g id="Group_4544" data-name="Group 4544" transform="translate(239 640.297)">
        <g id="Group_4543" data-name="Group 4543" clip-path="url(#clip-path-4)">
          <rect id="Rectangle_2498" data-name="Rectangle 2498" width="490.657" height="645.427" transform="translate(-98.016 294.048) rotate(-71.565)" fill="#173a8d"/>
        </g>
      </g>
      <g id="Group_4546" data-name="Group 4546" transform="translate(239 489.564)">
        <g id="Group_4545" data-name="Group 4545" clip-path="url(#clip-path-2)">
          <path id="Path_7502" data-name="Path 7502" d="M78.506,813.442v239.619a22.168,22.168,0,0,0,21.836,22.165l489,6.042a21.574,21.574,0,0,0,21.9-21.492l.818-237.479a15.778,15.778,0,0,0-15.394-15.832L96.018,796.352a17.1,17.1,0,0,0-17.512,17.091" transform="translate(-62.68 -635.816)" fill="#c9d6f2"/>
          <path id="Path_7503" data-name="Path 7503" d="M147.319,855.323v224.9a20.953,20.953,0,0,0,20.792,20.8l465.61,5.67a20.4,20.4,0,0,0,20.849-20.172l.779-222.894a14.91,14.91,0,0,0-14.658-14.86l-476.7-9.493a16.17,16.17,0,0,0-16.674,16.041" transform="translate(-117.622 -670.092)" fill="#4d7ff5"/>
          <path id="Path_7504" data-name="Path 7504" d="M611.952,2216.686h-.013l-536.416-9.14a.75.75,0,0,1,.025-1.5l536.416,9.141a.75.75,0,0,1-.012,1.5" transform="translate(-59.71 -1761.34)" fill="#91b3fa"/>
          <path id="Path_7505" data-name="Path 7505" d="M1410.184,2264.055a6.331,6.331,0,1,1,6.331-6.331,6.339,6.339,0,0,1-6.331,6.331m0-11.163a4.832,4.832,0,1,0,4.832,4.832,4.837,4.837,0,0,0-4.832-4.832" transform="translate(-1120.859 -1797.548)" fill="#91b3fa"/>
        </g>
      </g>
      <g id="Group_4548" data-name="Group 4548" transform="translate(440.641 1024.48)">
        <g id="Group_4547" data-name="Group 4547" clip-path="url(#clip-path-6)">
          <rect id="Rectangle_2500" data-name="Rectangle 2500" width="149.355" height="155.84" transform="translate(-13.598 13.566) rotate(-46.597)" fill="#061a4a"/>
        </g>
      </g>
      <g id="Group_4553" data-name="Group 4553" transform="translate(239 489.564)">
        <g id="Group_4552" data-name="Group 4552" clip-path="url(#clip-path-2)">
          <path id="Path_7507" data-name="Path 7507" d="M1498.006,2685.887a.75.75,0,0,1-.011-1.5l7.17-.1a.774.774,0,0,1,.761.739.75.75,0,0,1-.739.761l-7.17.1Z" transform="translate(-1195.433 -2143.174)" fill="#91b3fa"/>
          <path id="Path_7508" data-name="Path 7508" d="M1029.9,2700.162a.7.7,0,0,1-.119-.01.749.749,0,0,1-.622-.858l1.023-6.406a7.33,7.33,0,0,1,7.144-6.186l76.057-1.112a.743.743,0,0,1,.761.739.751.751,0,0,1-.739.761l-76.057,1.112a5.832,5.832,0,0,0-5.685,4.921l-1.023,6.407a.75.75,0,0,1-.74.632" transform="translate(-821.692 -2144.218)" fill="#91b3fa"/>
          <path id="Path_7509" data-name="Path 7509" d="M849.1,920.448l56.488-.418c7.718-.057,13.911,5.9,13.586,13.067l-5.525,122.078c-.3,6.689-6.2,11.986-13.4,12.039l-50.06.37c-7.458.055-13.546-5.52-13.6-12.453l-.9-122.03c-.051-6.933,5.953-12.6,13.412-12.653" transform="translate(-667.224 -734.566)" fill="#173a8d"/>
          <g id="Group_4551" data-name="Group 4551" transform="translate(34.945 357.34)" opacity="0.2">
            <g id="Group_4550" data-name="Group 4550">
              <g id="Group_4549" data-name="Group 4549" clip-path="url(#clip-path-8)">
                <path id="Path_7510" data-name="Path 7510" d="M364.07,1772.657l-178.733,2.126c-6.883.082-12.309,4.538-11.973,9.833l2.976,46.806c.318,4.994,5.668,8.917,12.161,8.917H364.258c6.724,0,12.175-4.2,12.175-9.376v-48.932c0-5.235-5.566-9.456-12.363-9.375" transform="translate(-173.35 -1772.657)" fill="#fff"/>
              </g>
            </g>
          </g>
          <path id="Path_7511" data-name="Path 7511" d="M1458.8,1708.068l-178.733,2.6c-6.883.1-12.309,5.553-11.973,12.032l2.976,57.271c.318,6.11,5.668,10.911,12.161,10.911h175.756c6.724,0,12.175-5.136,12.175-11.472v-59.872c0-6.405-5.566-11.57-12.363-11.471" transform="translate(-1012.452 -1363.747)" fill="#bdd0fb"/>
          <path id="Path_7512" data-name="Path 7512" d="M306.068,894.014H213.744a13.558,13.558,0,0,0-13.5,13.611v132.317a13.558,13.558,0,0,0,13.5,13.611h92.324a13.558,13.558,0,0,0,13.505-13.611V907.625a13.559,13.559,0,0,0-13.505-13.611" transform="translate(-159.874 -713.795)" fill="#bdd0fb"/>
          <path id="Path_7513" data-name="Path 7513" d="M1436.49,1148.452h-92.324c-7.459,0-13.5,3.266-13.5,7.294v70.909c0,4.028,6.046,7.294,13.5,7.294h92.324c7.459,0,13.505-3.266,13.505-7.294v-70.909c0-4.028-6.047-7.294-13.505-7.294" transform="translate(-1062.421 -916.942)" fill="#bdd0fb"/>
          <path id="Path_7514" data-name="Path 7514" d="M2115.924,1117.028H2005.037c-8.958,0-16.22,3.266-16.22,7.294v70.908c0,4.028,7.262,7.294,16.22,7.294h110.887c8.958,0,16.22-3.266,16.22-7.294v-70.908c0-4.028-7.262-7.294-16.22-7.294" transform="translate(-1587.903 -891.853)" fill="#173a8d"/>
        </g>
      </g>
      <g id="Group_4555" data-name="Group 4555" transform="translate(376.925 678.09)">
        <g id="Group_4554" data-name="Group 4554" clip-path="url(#clip-path-9)">
          <rect id="Rectangle_2503" data-name="Rectangle 2503" width="55.194" height="48.03" transform="matrix(0.335, -0.942, 0.942, 0.335, -14.617, 41.111)" fill="#fff"/>
        </g>
      </g>
      <g id="Group_4557" data-name="Group 4557" transform="translate(415.505 678.279)">
        <g id="Group_4556" data-name="Group 4556" clip-path="url(#clip-path-10)">
          <rect id="Rectangle_2504" data-name="Rectangle 2504" width="51.877" height="39.139" transform="translate(-14.558 40.943) rotate(-70.427)" fill="#fff"/>
        </g>
      </g>
      <g id="Group_4559" data-name="Group 4559" transform="translate(446.451 678.279)">
        <g id="Group_4558" data-name="Group 4558" clip-path="url(#clip-path-11)">
          <rect id="Rectangle_2505" data-name="Rectangle 2505" width="51.877" height="39.139" transform="matrix(0.335, -0.942, 0.942, 0.335, -14.558, 40.943)" fill="#fff"/>
        </g>
      </g>
      <g id="Group_4561" data-name="Group 4561" transform="translate(477.398 678.279)">
        <g id="Group_4560" data-name="Group 4560" clip-path="url(#clip-path-12)">
          <rect id="Rectangle_2506" data-name="Rectangle 2506" width="52.87" height="41.933" transform="matrix(0.335, -0.942, 0.942, 0.335, -14.558, 40.943)" fill="#fff"/>
        </g>
      </g>
      <g id="Group_4563" data-name="Group 4563" transform="translate(508.281 677.553)">
        <g id="Group_4562" data-name="Group 4562" clip-path="url(#clip-path-13)">
          <rect id="Rectangle_2507" data-name="Rectangle 2507" width="55.84" height="47.143" transform="matrix(0.335, -0.942, 0.942, 0.335, -14.986, 42.148)" fill="#fff"/>
        </g>
      </g>
      <g id="Group_4565" data-name="Group 4565" transform="translate(544.085 678.279)">
        <g id="Group_4564" data-name="Group 4564" clip-path="url(#clip-path-14)">
          <rect id="Rectangle_2508" data-name="Rectangle 2508" width="54.361" height="46.124" transform="translate(-14.558 40.943) rotate(-70.427)" fill="#fff"/>
        </g>
      </g>
      <g id="Group_4567" data-name="Group 4567" transform="translate(580.71 678.279)">
        <g id="Group_4566" data-name="Group 4566" clip-path="url(#clip-path-15)">
          <rect id="Rectangle_2509" data-name="Rectangle 2509" width="50.419" height="35.038" transform="translate(-14.558 40.943) rotate(-70.427)" fill="#fff"/>
        </g>
      </g>
      <g id="Group_4569" data-name="Group 4569" transform="translate(608.217 678.279)">
        <g id="Group_4568" data-name="Group 4568" clip-path="url(#clip-path-16)">
          <rect id="Rectangle_2510" data-name="Rectangle 2510" width="53.283" height="43.093" transform="translate(-14.558 40.943) rotate(-70.427)" fill="#fff"/>
        </g>
      </g>
      <g id="Group_4583" data-name="Group 4583" transform="translate(278.486 789.43)">
        <g id="Group_4582" data-name="Group 4582" clip-path="url(#clip-path-17)">
          <rect id="Rectangle_2517" data-name="Rectangle 2517" width="332.813" height="316.396" transform="translate(-120.112 184.531) rotate(-56.951)" fill="#003cca"/>
        </g>
      </g>
      <g id="Group_4585" data-name="Group 4585" transform="translate(239 489.564)">
        <g id="Group_4584" data-name="Group 4584" clip-path="url(#clip-path-2)">
          <path id="Path_7530" data-name="Path 7530" d="M256.34,2595.846h0l-20.42-.432a12.68,12.68,0,0,1-12.363-12.733l.255-30.835a.52.52,0,0,1,.525-.515.526.526,0,0,1,.516.524l-.255,30.834a11.635,11.635,0,0,0,11.345,11.684l20.42.433a.52.52,0,0,1-.02,1.04" transform="translate(-178.489 -2037.023)" fill="#bdd0fb"/>
          <path id="Path_7531" data-name="Path 7531" d="M225.723,2485.214a.52.52,0,0,1-.511-.524l.041-4.993a.52.52,0,0,1,.525-.516h0a.521.521,0,0,1,.513.524l-.041,4.993a.52.52,0,0,1-.525.516h0" transform="translate(-179.813 -1979.417)" fill="#bdd0fb"/>
        </g>
      </g>
      <g id="Group_4587" data-name="Group 4587" transform="translate(292.999 787.506)">
        <g id="Group_4586" data-name="Group 4586" clip-path="url(#clip-path-19)">
          <path id="Path_7573" data-name="Path 7573" d="M0,0H314.783V291.212H0Z" transform="matrix(0.537, -0.844, 0.844, 0.537, -116.846, 183.534)" fill="#b9caf0"/>
        </g>
      </g>
      <g id="Group_4604" data-name="Group 4604" transform="translate(239 489.564)">
        <g id="Group_4603" data-name="Group 4603" clip-path="url(#clip-path-2)">
          <g id="Group_4590" data-name="Group 4590" transform="translate(56.533 303.979)" opacity="0.6">
            <g id="Group_4589" data-name="Group 4589">
              <g id="Group_4588" data-name="Group 4588" clip-path="url(#clip-path-21)">
                <path id="Path_7533" data-name="Path 7533" d="M286.983,1508c20.9,3.011,92.8,12.383,152.334,8.306a4.841,4.841,0,0,1,5.175,4.608l10.018,223.272a5.57,5.57,0,0,1-5.281,5.815c-25.036,1.274-128.142,6.148-164.87,1.994a4.414,4.414,0,0,1-3.913-4.4L281,1513.173a5.235,5.235,0,0,1,5.98-5.172" transform="translate(-280.446 -1507.947)" fill="#fff"/>
              </g>
            </g>
          </g>
          <g id="Group_4593" data-name="Group 4593" transform="translate(77.853 326.546)" opacity="0.6">
            <g id="Group_4592" data-name="Group 4592">
              <g id="Group_4591" data-name="Group 4591" clip-path="url(#clip-path-22)">
                <path id="Path_7534" data-name="Path 7534" d="M520.7,1625.277c1.512.013,2.707-.7,2.656-1.583s-1.33-1.626-2.841-1.65L387.738,1619.9c-1.512-.024-1.986.93-1.054,2.12a6.472,6.472,0,0,0,4.443,2.187Z" transform="translate(-386.206 -1619.9)" fill="#061a4a"/>
              </g>
            </g>
          </g>
          <g id="Group_4596" data-name="Group 4596" transform="translate(77.779 335.466)" opacity="0.6">
            <g id="Group_4595" data-name="Group 4595">
              <g id="Group_4594" data-name="Group 4594" clip-path="url(#clip-path-23)">
                <path id="Path_7535" data-name="Path 7535" d="M387.373,1664.148c-1.512-.024-1.986.929-1.054,2.12a6.472,6.472,0,0,0,4.443,2.187l129.575,1.07c1.512.013,2.707-.7,2.656-1.583s-1.33-1.626-2.841-1.65Z" transform="translate(-385.841 -1664.148)" fill="#fff"/>
              </g>
            </g>
          </g>
          <path id="Path_7536" data-name="Path 7536" d="M400.829,1969.709h-.049l-17.921.26a4.859,4.859,0,0,1-5.057-4.015l-1.938-15a3.311,3.311,0,0,1,.722-2.508,3.977,3.977,0,0,1,2.738-1.435c1.509-.139,3.586-.367,5.872-.617,4.977-.545,10.617-1.163,13.937-1.284l.073,0a5.041,5.041,0,0,1,5.071,3.422c1.019,3.435,1.094,9.972,1.084,16.938a4.473,4.473,0,0,1-4.532,4.236m-21.37-21.235a2.505,2.505,0,0,0-1.732.892,1.86,1.86,0,0,0-.413,1.406l1.938,15a3.4,3.4,0,0,0,3.586,2.74l17.921-.26h.035a3.011,3.011,0,0,0,3.105-2.776c.01-6.854-.062-13.274-1.024-16.521a3.619,3.619,0,0,0-3.688-2.373c-3.267.119-9.125.761-13.832,1.276-2.295.252-4.381.48-5.9.621" transform="translate(-300.074 -1553.007)" fill="#fff"/>
          <g id="Group_4599" data-name="Group 4599" transform="translate(79.09 395.407)" opacity="0.6">
            <g id="Group_4598" data-name="Group 4598">
              <g id="Group_4597" data-name="Group 4597" clip-path="url(#clip-path-24)">
                <path id="Path_7537" data-name="Path 7537" d="M394.6,1963.021c3.758-.348,11.918-1.376,15.8-1.518a3.47,3.47,0,0,1,3.529,2.315c.816,2.751.849,8.272.842,13.369a2.982,2.982,0,0,1-3.085,2.8l-14.322.208a3.309,3.309,0,0,1-3.454-2.7l-1.549-11.983a2.326,2.326,0,0,1,2.24-2.494" transform="translate(-392.34 -1961.501)" fill="#173a8d"/>
              </g>
            </g>
          </g>
          <g id="Group_4602" data-name="Group 4602" transform="translate(115.297 400.693)" opacity="0.6">
            <g id="Group_4601" data-name="Group 4601">
              <g id="Group_4600" data-name="Group 4600" clip-path="url(#clip-path-25)">
                <path id="Path_7538" data-name="Path 7538" d="M574.042,1987.749a1.958,1.958,0,0,0-1.984,2.641l1.048,3.616a3.771,3.771,0,0,0,3.513,2.574l87.662-2.115a2.684,2.684,0,0,0,2.622-2.812l-.055-1.188a2.913,2.913,0,0,0-2.875-2.745Z" transform="translate(-571.954 -1987.72)" fill="#fff"/>
              </g>
            </g>
          </g>
        </g>
      </g>
      <g id="Group_4606" data-name="Group 4606" transform="translate(319.805 875.588)">
        <g id="Group_4605" data-name="Group 4605" clip-path="url(#clip-path-26)">
          <rect id="Rectangle_2526" data-name="Rectangle 2526" width="33.743" height="29.706" transform="translate(-9.767 24.436) rotate(-68.933)" fill="#061a4a"/>
        </g>
      </g>
      <g id="Group_4614" data-name="Group 4614" transform="translate(239 489.564)">
        <g id="Group_4613" data-name="Group 4613" clip-path="url(#clip-path-2)">
          <path id="Path_7540" data-name="Path 7540" d="M404.277,1770.054h-.049l-17.921.26a4.859,4.859,0,0,1-5.057-4.015l-1.938-15a3.311,3.311,0,0,1,.722-2.508,3.976,3.976,0,0,1,2.738-1.434c1.509-.139,3.586-.367,5.872-.618,4.977-.545,10.617-1.163,13.937-1.284l.073,0a5.042,5.042,0,0,1,5.071,3.422c1.018,3.435,1.094,9.972,1.084,16.938a4.472,4.472,0,0,1-4.532,4.236m-21.371-21.235a2.5,2.5,0,0,0-1.732.892,1.858,1.858,0,0,0-.413,1.406l1.938,15a3.4,3.4,0,0,0,3.586,2.74l17.921-.26h.035a3.011,3.011,0,0,0,3.1-2.777c.01-6.854-.062-13.274-1.024-16.521a3.62,3.62,0,0,0-3.689-2.374c-3.267.12-9.125.762-13.832,1.276-2.295.252-4.381.48-5.9.621" transform="translate(-302.827 -1393.599)" fill="#fff"/>
          <g id="Group_4609" data-name="Group 4609" transform="translate(79.785 355.161)" opacity="0.6">
            <g id="Group_4608" data-name="Group 4608">
              <g id="Group_4607" data-name="Group 4607" clip-path="url(#clip-path-28)">
                <path id="Path_7541" data-name="Path 7541" d="M398.044,1763.366c3.758-.348,11.918-1.376,15.8-1.518a3.47,3.47,0,0,1,3.529,2.315c.816,2.751.849,8.272.842,13.369a2.982,2.982,0,0,1-3.085,2.8l-14.322.208a3.309,3.309,0,0,1-3.454-2.7L395.8,1765.86a2.326,2.326,0,0,1,2.24-2.494" transform="translate(-395.788 -1761.847)" fill="#173a8d"/>
              </g>
            </g>
          </g>
          <g id="Group_4612" data-name="Group 4612" transform="translate(115.992 360.447)" opacity="0.6">
            <g id="Group_4611" data-name="Group 4611">
              <g id="Group_4610" data-name="Group 4610" clip-path="url(#clip-path-29)">
                <path id="Path_7542" data-name="Path 7542" d="M577.49,1788.094a1.958,1.958,0,0,0-1.984,2.641l1.048,3.616a3.771,3.771,0,0,0,3.513,2.574l87.662-2.114a2.685,2.685,0,0,0,2.622-2.812l-.055-1.189a2.914,2.914,0,0,0-2.875-2.745Z" transform="translate(-575.403 -1788.066)" fill="#061a4a"/>
              </g>
            </g>
          </g>
        </g>
      </g>
      <g id="Group_4616" data-name="Group 4616" transform="translate(320.5 835.342)">
        <g id="Group_4615" data-name="Group 4615" clip-path="url(#clip-path-30)">
          <rect id="Rectangle_2530" data-name="Rectangle 2530" width="33.743" height="29.706" transform="translate(-9.767 24.437) rotate(-68.933)" fill="#061a4a"/>
        </g>
      </g>
      <g id="Group_4624" data-name="Group 4624" transform="translate(239 489.564)">
        <g id="Group_4623" data-name="Group 4623" clip-path="url(#clip-path-2)">
          <path id="Path_7544" data-name="Path 7544" d="M405.424,2160.205h-.049l-17.921.26a4.858,4.858,0,0,1-5.057-4.015l-1.938-15a3.312,3.312,0,0,1,.722-2.509,3.976,3.976,0,0,1,2.738-1.435c1.509-.139,3.587-.367,5.872-.617,4.977-.545,10.617-1.163,13.937-1.285l.073,0a5.04,5.04,0,0,1,5.071,3.422c1.019,3.434,1.094,9.972,1.084,16.938a4.473,4.473,0,0,1-4.532,4.237m-21.371-21.236a2.5,2.5,0,0,0-1.732.892,1.859,1.859,0,0,0-.413,1.407l1.938,15a3.4,3.4,0,0,0,3.586,2.74l17.921-.26h.035a3.011,3.011,0,0,0,3.1-2.776c.01-6.854-.061-13.275-1.024-16.52a3.641,3.641,0,0,0-3.689-2.374c-3.266.12-9.125.761-13.832,1.276-2.3.252-4.381.48-5.9.621" transform="translate(-303.742 -1705.102)" fill="#fff"/>
          <g id="Group_4619" data-name="Group 4619" transform="translate(80.016 433.809)" opacity="0.6">
            <g id="Group_4618" data-name="Group 4618">
              <g id="Group_4617" data-name="Group 4617" clip-path="url(#clip-path-28)">
                <path id="Path_7545" data-name="Path 7545" d="M399.19,2153.519c3.758-.348,11.919-1.376,15.8-1.518a3.47,3.47,0,0,1,3.53,2.314c.816,2.751.849,8.272.842,13.369a2.982,2.982,0,0,1-3.085,2.8l-14.322.208a3.309,3.309,0,0,1-3.454-2.7l-1.549-11.983a2.327,2.327,0,0,1,2.24-2.494" transform="translate(-396.934 -2151.999)" fill="#173a8d"/>
              </g>
            </g>
          </g>
          <g id="Group_4622" data-name="Group 4622" transform="translate(116.223 439.094)" opacity="0.6">
            <g id="Group_4621" data-name="Group 4621">
              <g id="Group_4620" data-name="Group 4620" clip-path="url(#clip-path-33)">
                <path id="Path_7546" data-name="Path 7546" d="M578.637,2178.246a1.958,1.958,0,0,0-1.984,2.641l1.048,3.616a3.771,3.771,0,0,0,3.513,2.574l87.663-2.115a2.685,2.685,0,0,0,2.622-2.812l-.055-1.189a2.913,2.913,0,0,0-2.875-2.745Z" transform="translate(-576.549 -2178.217)" fill="#fff"/>
              </g>
            </g>
          </g>
        </g>
      </g>
      <g id="Group_4626" data-name="Group 4626" transform="translate(320.731 913.99)">
        <g id="Group_4625" data-name="Group 4625" clip-path="url(#clip-path-34)">
          <rect id="Rectangle_2534" data-name="Rectangle 2534" width="33.743" height="29.706" transform="translate(-9.767 24.436) rotate(-68.933)" fill="#061a4a"/>
        </g>
      </g>
      <g id="Group_4634" data-name="Group 4634" transform="translate(239 489.564)">
        <g id="Group_4633" data-name="Group 4633" clip-path="url(#clip-path-2)">
          <path id="Path_7548" data-name="Path 7548" d="M401.518,2343.337h-.047l-17.922.26a4.858,4.858,0,0,1-5.057-4.015l-1.938-14.995a3.313,3.313,0,0,1,.722-2.508,3.979,3.979,0,0,1,2.738-1.435c1.508-.139,3.583-.366,5.866-.616,4.733-.519,10.622-1.163,13.943-1.285a5.112,5.112,0,0,1,5.144,3.419c1.019,3.435,1.094,9.972,1.084,16.938a4.474,4.474,0,0,1-4.533,4.237M380.149,2322.1a2.51,2.51,0,0,0-1.732.892A1.861,1.861,0,0,0,378,2324.4l1.938,14.995a3.4,3.4,0,0,0,3.585,2.74l17.922-.259a3.078,3.078,0,0,0,3.14-2.778c.01-6.854-.062-13.274-1.024-16.521a3.663,3.663,0,0,0-3.689-2.373c-3.268.118-9.129.761-13.837,1.277-2.292.251-4.376.479-5.89.62" transform="translate(-300.625 -1851.32)" fill="#fff"/>
          <g id="Group_4629" data-name="Group 4629" transform="translate(79.229 470.724)" opacity="0.6">
            <g id="Group_4628" data-name="Group 4628">
              <g id="Group_4627" data-name="Group 4627" clip-path="url(#clip-path-28)">
                <path id="Path_7549" data-name="Path 7549" d="M395.286,2336.642c3.758-.348,11.918-1.375,15.8-1.518a3.47,3.47,0,0,1,3.53,2.315c.815,2.75.849,8.272.842,13.369a2.982,2.982,0,0,1-3.085,2.8l-14.322.208a3.309,3.309,0,0,1-3.454-2.7l-1.549-11.983a2.327,2.327,0,0,1,2.24-2.494" transform="translate(-393.03 -2335.122)" fill="#173a8d"/>
              </g>
            </g>
          </g>
          <g id="Group_4632" data-name="Group 4632" transform="translate(115.436 476.009)" opacity="0.6">
            <g id="Group_4631" data-name="Group 4631">
              <g id="Group_4630" data-name="Group 4630" clip-path="url(#clip-path-25)">
                <path id="Path_7550" data-name="Path 7550" d="M574.732,2361.368a1.958,1.958,0,0,0-1.984,2.641l1.048,3.616a3.772,3.772,0,0,0,3.513,2.574l87.663-2.114a2.685,2.685,0,0,0,2.622-2.812l-.055-1.189a2.913,2.913,0,0,0-2.875-2.745Z" transform="translate(-572.645 -2361.339)" fill="#fff"/>
              </g>
            </g>
          </g>
        </g>
      </g>
      <g id="Group_4636" data-name="Group 4636" transform="translate(319.944 950.904)">
        <g id="Group_4635" data-name="Group 4635" clip-path="url(#clip-path-38)">
          <rect id="Rectangle_2538" data-name="Rectangle 2538" width="33.743" height="29.706" transform="translate(-9.767 24.436) rotate(-68.933)" fill="#061a4a"/>
        </g>
      </g>
      <g id="Group_4644" data-name="Group 4644" transform="translate(239 489.564)">
        <g id="Group_4643" data-name="Group 4643" clip-path="url(#clip-path-2)">
          <path id="Path_7552" data-name="Path 7552" d="M395.972,2532.227h-.049l-17.922.26a4.859,4.859,0,0,1-5.057-4.015l-1.938-15a3.311,3.311,0,0,1,.722-2.508,3.976,3.976,0,0,1,2.738-1.435c1.509-.139,3.586-.367,5.872-.617,4.977-.545,10.617-1.163,13.937-1.285a5.1,5.1,0,0,1,5.144,3.419c1.019,3.435,1.094,9.973,1.084,16.939a4.473,4.473,0,0,1-4.532,4.236M374.6,2510.992a2.507,2.507,0,0,0-1.732.891,1.86,1.86,0,0,0-.413,1.407l1.938,15a3.4,3.4,0,0,0,3.586,2.741l17.921-.26h.035a3.01,3.01,0,0,0,3.1-2.776c.01-6.853-.062-13.275-1.024-16.521a3.686,3.686,0,0,0-3.689-2.373c-3.267.119-9.125.762-13.832,1.276-2.295.252-4.381.48-5.9.621" transform="translate(-296.196 -2002.134)" fill="#fff"/>
          <g id="Group_4639" data-name="Group 4639" transform="translate(78.11 508.799)" opacity="0.6">
            <g id="Group_4638" data-name="Group 4638">
              <g id="Group_4637" data-name="Group 4637" clip-path="url(#clip-path-40)">
                <path id="Path_7553" data-name="Path 7553" d="M389.74,2525.525c3.758-.348,11.919-1.376,15.8-1.518a3.471,3.471,0,0,1,3.529,2.315c.816,2.751.849,8.272.842,13.369a2.982,2.982,0,0,1-3.085,2.8l-14.322.208a3.31,3.31,0,0,1-3.454-2.7L387.5,2528.02a2.327,2.327,0,0,1,2.239-2.494" transform="translate(-387.484 -2524.005)" fill="#061a4a"/>
              </g>
            </g>
          </g>
          <g id="Group_4642" data-name="Group 4642" transform="translate(114.318 514.084)" opacity="0.6">
            <g id="Group_4641" data-name="Group 4641">
              <g id="Group_4640" data-name="Group 4640" clip-path="url(#clip-path-41)">
                <path id="Path_7554" data-name="Path 7554" d="M569.186,2550.252a1.958,1.958,0,0,0-1.984,2.641l1.048,3.616a3.771,3.771,0,0,0,3.513,2.574l87.663-2.114a2.685,2.685,0,0,0,2.622-2.812l-.055-1.189a2.913,2.913,0,0,0-2.875-2.745Z" transform="translate(-567.098 -2550.223)" fill="#fff"/>
              </g>
            </g>
          </g>
        </g>
      </g>
      <g id="Group_4646" data-name="Group 4646" transform="translate(318.827 988.98)">
        <g id="Group_4645" data-name="Group 4645" clip-path="url(#clip-path-42)">
          <rect id="Rectangle_2542" data-name="Rectangle 2542" width="33.743" height="29.706" transform="translate(-9.767 24.436) rotate(-68.933)" fill="#061a4a"/>
        </g>
      </g>
      <g id="Group_4648" data-name="Group 4648" transform="translate(369.721 755.117)">
        <g id="Group_4647" data-name="Group 4647" clip-path="url(#clip-path-43)">
          <rect id="Rectangle_2543" data-name="Rectangle 2543" width="38.843" height="36.559" transform="translate(-10.06 4.401) rotate(-24.171)" fill="#173a8d"/>
        </g>
      </g>
      <g id="Group_4650" data-name="Group 4650" transform="translate(239 489.564)">
        <g id="Group_4649" data-name="Group 4649" clip-path="url(#clip-path-2)">
          <path id="Path_7557" data-name="Path 7557" d="M658.39,1343.124a.894.894,0,0,1-.578-.764l-.22-2.642a.895.895,0,0,1,1.784-.148l.22,2.642a.9.9,0,0,1-1.206.912m-.431-5.176a.9.9,0,0,1-.578-.764l-.167-2.006a7.164,7.164,0,0,1,5.142-7.473,13.969,13.969,0,0,1,6.828-.224.9.9,0,0,1-.374,1.751,12.189,12.189,0,0,0-5.961.194,5.369,5.369,0,0,0-3.851,5.6l.167,2.006a.9.9,0,0,1-1.206.912" transform="translate(-524.71 -1059.627)" fill="#bdd0fb"/>
        </g>
      </g>
      <g id="Group_4652" data-name="Group 4652" transform="translate(346.378 776.748)">
        <g id="Group_4651" data-name="Group 4651" clip-path="url(#clip-path-45)">
          <rect id="Rectangle_2545" data-name="Rectangle 2545" width="53.546" height="63.012" transform="translate(-7.328 9.476) rotate(-52.283)" fill="#061a4a"/>
        </g>
      </g>
      <g id="Group_4654" data-name="Group 4654" transform="translate(239 489.564)">
        <g id="Group_4653" data-name="Group 4653" clip-path="url(#clip-path-2)">
          <path id="Path_7559" data-name="Path 7559" d="M625.055,1437.09a.52.52,0,0,1,.013-1.04l2.471.02a.514.514,0,0,1,.516.524.52.52,0,0,1-.525.516l-2.471-.02Z" transform="translate(-498.646 -1146.565)" fill="#bdd0fb"/>
          <path id="Path_7560" data-name="Path 7560" d="M544.367,1443.069a.9.9,0,0,1-.58-.845l.028-3.371a5.184,5.184,0,0,1,5.225-5.14l9.083.076a.9.9,0,0,1-.015,1.791l-9.083-.076a3.4,3.4,0,0,0-3.42,3.365l-.028,3.371a.894.894,0,0,1-1.21.83" transform="translate(-434.168 -1144.699)" fill="#bdd0fb"/>
        </g>
      </g>
      <g id="Group_4656" data-name="Group 4656" transform="translate(322.687 786.926)">
        <g id="Group_4655" data-name="Group 4655" clip-path="url(#clip-path-47)">
          <rect id="Rectangle_2547" data-name="Rectangle 2547" width="68.594" height="107.192" transform="translate(-6.486 11.451) rotate(-60.952)" fill="#061a4a"/>
        </g>
      </g>
      <g id="Group_4658" data-name="Group 4658" transform="translate(631.077 857.941)">
        <g id="Group_4657" data-name="Group 4657" clip-path="url(#clip-path-48)">
          <rect id="Rectangle_2548" data-name="Rectangle 2548" width="160.613" height="77.707" transform="translate(0)" fill="#173a8d"/>
        </g>
      </g>
      <g id="Group_4663" data-name="Group 4663" transform="translate(239 489.564)">
        <g id="Group_4662" data-name="Group 4662" clip-path="url(#clip-path-2)">
          <g id="Group_4661" data-name="Group 4661" transform="translate(254.964 264.42)" opacity="0.23">
            <g id="Group_4660" data-name="Group 4660">
              <g id="Group_4659" data-name="Group 4659" clip-path="url(#clip-path-50)">
                <path id="Path_7563" data-name="Path 7563" d="M1264.805,1383.324c0,39.551,32.651,71.613,72.928,71.613s72.929-32.062,72.929-71.613-32.651-71.613-72.929-71.613-72.928,32.062-72.928,71.613" transform="translate(-1264.804 -1311.711)" fill="#fff"/>
              </g>
            </g>
          </g>
        </g>
      </g>
      <g id="Group_4665" data-name="Group 4665" transform="translate(485.743 745.912)">
        <g id="Group_4664" data-name="Group 4664" clip-path="url(#clip-path-51)">
          <rect id="Rectangle_2551" data-name="Rectangle 2551" width="162.3" height="159.372" fill="#173a8d"/>
        </g>
      </g>
      <g id="Group_4667" data-name="Group 4667" transform="translate(239 489.564)">
        <g id="Group_4666" data-name="Group 4666" clip-path="url(#clip-path-2)">
          <path id="Path_7565" data-name="Path 7565" d="M1539.467,1381.357l-.044,0a.344.344,0,0,1-.3-.384c.238-1.86.405-3.759.5-5.645a.348.348,0,0,1,.36-.326.343.343,0,0,1,.326.36c-.094,1.9-.264,3.82-.5,5.7a.344.344,0,0,1-.34.3m-.557-22.282a.343.343,0,0,1-.338-.283,72.51,72.51,0,0,0-4.325-14.8c-11.561-28.046-38.944-46.168-69.761-46.168a76,76,0,0,0-40.4,11.544.344.344,0,1,1-.365-.583,76.689,76.689,0,0,1,40.765-11.649c31.1,0,58.728,18.289,70.4,46.593a73.116,73.116,0,0,1,4.366,14.941.343.343,0,0,1-.278.4.321.321,0,0,1-.061.005" transform="translate(-1136.594 -1035.654)" fill="#bdd0fb"/>
          <path id="Path_7566" data-name="Path 7566" d="M2616.052,2098.538a.344.344,0,0,1-.113-.668c4.255-1.471,6.483-3.864,6.624-7.112a7.9,7.9,0,0,0-5.165-7.6l-17.738-6.917a.343.343,0,1,1,.249-.64l17.739,6.917a8.588,8.588,0,0,1,5.6,8.272c-.154,3.558-2.538,6.16-7.086,7.733a.347.347,0,0,1-.112.019" transform="translate(-2075.435 -1657.172)" fill="#bdd0fb"/>
          <path id="Path_7567" data-name="Path 7567" d="M2563.564,2062.138a.335.335,0,0,1-.125-.024l-2.3-.9a.344.344,0,1,1,.25-.64l2.3.9a.344.344,0,0,1-.125.664" transform="translate(-2044.68 -1645.179)" fill="#bdd0fb"/>
        </g>
      </g>
      <g id="Group_4669" data-name="Group 4669" transform="translate(515.253 736.877)">
        <g id="Group_4668" data-name="Group 4668" clip-path="url(#clip-path-53)">
          <rect id="Rectangle_2553" data-name="Rectangle 2553" width="182.976" height="178.01" transform="translate(-56.79 110.658) rotate(-62.833)" fill="#fff"/>
        </g>
      </g>
    </g>
  </g>
</svg>
