<svg id="Group_2373" data-name="Group 2373" xmlns="http://www.w3.org/2000/svg" xmlns:xlink="http://www.w3.org/1999/xlink" width="38.553" height="56.034" viewBox="0 0 38.553 56.034">
  <defs>
    <clipPath id="clip-path">
      <rect id="Rectangle_1483" data-name="Rectangle 1483" width="38.553" height="56.034" fill="#173a8d"/>
    </clipPath>
  </defs>
  <g id="Group_2372" data-name="Group 2372" clip-path="url(#clip-path)">
    <path id="Path_4609" data-name="Path 4609" d="M20.924,0c.822.143,1.65.257,2.464.433A19.52,19.52,0,0,1,36.136,28.863q-6.879,12.647-13.8,25.273a3.406,3.406,0,0,1-6.111-.006Q9.325,41.5,2.425,28.864A19.192,19.192,0,0,1,.042,18.24a19.425,19.425,0,0,1,16.042-18C16.6.153,17.122.08,17.641,0ZM19.3,9.631a7.882,7.882,0,1,0,7.861,7.888A7.927,7.927,0,0,0,19.3,9.631" transform="translate(0)" fill="#173a8d"/>
  </g>
</svg>
