<svg id="Group_5460" data-name="Group 5460" xmlns="http://www.w3.org/2000/svg" xmlns:xlink="http://www.w3.org/1999/xlink" width="170.775" height="114.45" viewBox="0 0 170.775 114.45">
  <defs>
    <clipPath id="clip-path">
      <rect id="Rectangle_2836" data-name="Rectangle 2836" width="170.775" height="114.45" fill="#b1b8cf"/>
    </clipPath>
  </defs>
  <g id="Group_5459" data-name="Group 5459" clip-path="url(#clip-path)">
    <path id="Path_8309" data-name="Path 8309" d="M106.147,3.958l.055.073.087-.03a1.418,1.418,0,0,0,1.187.5h0a2.421,2.421,0,0,0,1.538.647l-.039-.018a6.372,6.372,0,0,0,3,1.541l-.015-.015c.127.323-.182,1.09.276.938,1.032-.343,1.619.487,2.439.615l.014.01c.413.317.829.631,1.239.952.289.226.429.484.014.709a3.427,3.427,0,0,1-3.206-.72c-.2-.238-.381-.487-.572-.729s-.289-.627-.687-.452a.63.63,0,0,0-.308.9c.421.665.513,1.573,1.2,2.013.649.416,1.367,2.537,2.177.093.01-.032.065-.05.1-.072,1.392-.852,2.331-.589,3.264,1,.454-.787,1.072-.752,1.742-.366l-.035-.017a9.67,9.67,0,0,0,2.692,2.159l-.033-.018a3.638,3.638,0,0,0,1.432,1.247l-.01-.015a.266.266,0,0,0,.284.279l-.015-.014.284.277-.012-.013a.263.263,0,0,0,.28.274l-.011-.01.277.276-.008-.009a.248.248,0,0,0,.272.277l-.01-.009.276.281-.012-.014a.25.25,0,0,0,.282.273l-.009-.006c.807.91.354,1.333-.606,1.543-.166.036-.374-.06-.52,0-.614.272-1.307.747-1.121,1.4.4,1.4,1.649,1.646,2.734.624.353-.332.519-.18.742.051s.412.6.738.44c1.247-.594,1.841.345,2.559,1.016l-.006-.008a.6.6,0,0,0,.47.613l-.01-.03a.287.287,0,0,0,.294.3l-.036-.043a.4.4,0,0,0,.32.39l.022.087a3.123,3.123,0,0,0,1.085,1.612l0-.006c.226.528-.118.945-.517,1.549a1.513,1.513,0,0,1,1.6.036l0,0a6.368,6.368,0,0,0,1.513,2.482l-.021-.028,3.79,7.986-.015-.024a3.305,3.305,0,0,0,.581,1.84l0,.012a1.525,1.525,0,0,0,1.969,1.638,6.32,6.32,0,0,1,1.462-.015c1.929.2,3.969-.6,5.792.64a.653.653,0,0,0,.625-.033c.946-1.005,2.161-.608,3.272-.636,2.039-.051,4.178-.4,6.1.084,2.055.519,3.9-.141,5.835-.1a42.751,42.751,0,0,1,5.316.109,3.658,3.658,0,0,1,1.089,3.24,71.067,71.067,0,0,0-.15,7.279c.086,3.483.029,6.976.19,10.462.109,2.385.089,4.776.107,7.165.015,2.044-.864,2.93-2.851,2.936-8.658.023-17.316.075-25.974.043-1.236,0-1.788.426-1.946,1.577a20.255,20.255,0,0,1-2.03,5.793c-.724,1.534-1.031,3.234-2,4.672-1.014,1.5-1.792,3.163-2.765,4.7s-2.053,2.982-3.087,4.469a2.269,2.269,0,0,0-1.05,1.383l-.064.034.01.072a.393.393,0,0,0-.314.385l.038-.044a.3.3,0,0,0-.309.295l.034-.037a.3.3,0,0,0-.306.3l.036-.033a.3.3,0,0,0-.3.3l.016-.036a1.867,1.867,0,0,0-1.017,1.139l.013-.011a.266.266,0,0,0-.265.288l0,0c-.188,0-.277.09-.26.279h0c-.177.008-.249.108-.245.276l-.014.012c-.178-.007-.264.075-.248.256l-.013.017c-.758.322-1.17,1.077-1.851,1.486-.9.54-1.252,2.12-2.8,1.456-.209-.09-.1.081-.032.171.6.754-.169,1.017-.548,1.322-1.035.832-2.118,1.606-3.2,2.382-1.157.83-1.883.676-2.638-.532-.78.689.133,1.607-.246,2.227-.452.738-1.626.31-2.212,1.014a.765.765,0,0,0-.063.117c-.585,1.044-1.767,1.107-2.683,1.594a.684.684,0,0,1-1.049-.461c-.091-.363-.188-.771-.674-.552-.42.189-.309.668-.179.946.378.807-.035,1.154-.694,1.383-2,.7-4.068,1.233-5.988,2.1-2.649,1.2-5.711.359-8.261,1.857-.069.04-.174.018-.263.025-1.5.113-3,.249-4.5.336a61.351,61.351,0,0,1-18.938-2.135c-1.8-.463-3.431-1.426-5.3-1.608l-.011-.079-.077.018a4.4,4.4,0,0,0,.477-1.957c.031-.3.264-.622-.247-.695-.367-.052-.831-.031-.82.426.039,1.614-.868,1.563-1.988,1.216l-.032-.078-.079.03a11.294,11.294,0,0,0-3.547-1.727l.035.018a.61.61,0,0,0-.625-.427l-.038-.019a1.142,1.142,0,0,0-.971-.635l.034.032a.284.284,0,0,0-.33-.247l.014.011a16.412,16.412,0,0,0-2.7-1.533l-.038-.035c.01-.17-.069-.227-.229-.182l-.045-.1-.106-.005v-.1l-.1.008.007-.1-.087-.043a1.913,1.913,0,0,0-1.758-2.478l.034.027c-.173-.627-.32-1.317-1.195-.663-.49.366-.867.207-1.295-.148-.573-.476-1.207-.88-1.814-1.316l.009.011a.281.281,0,0,0-.278-.284l.013.011a3.512,3.512,0,0,0-1.043-1.195l.015-.081-.072-.041a2.872,2.872,0,0,0-1.328-1.056l-.005,0-.258-.266,0,0a.237.237,0,0,0-.264-.264l0,0-.264-.258-.007-.008a.229.229,0,0,0-.261-.256l-.012-.01-.256-.243-.016-.019a2.258,2.258,0,0,0-1.048-1.317l-.018-.021a2.075,2.075,0,0,0-1.076-1.255l-.041-.061c.025-.162-.039-.247-.209-.24l-.024-.027a17.829,17.829,0,0,0-2.651-3.673l-.055-.044c-1.532-2.876-3.2-5.674-4.6-8.627-.37-.782-.131-1.667-.681-2.338-.449-.547-.561-.936.346-1.036.3-.033.5-.255.289-.559-.174-.245-.4-.1-.546.082-.394.511-.663.43-.977-.107-1.169-2-1.073-3.119.459-4.708a.552.552,0,0,0-.579-.245c-1.473.294-2.952-.115-4.431.058a1.264,1.264,0,0,1-1.472-.674c-.65-1.062-2.017-1.026-2.015-.253,0,1.238-.774.983-1.417.96-.734-.027-1.72.39-2.158-.235-.864-1.235-1.51-1.051-2.293-.035-.194.252-.485.141-.741.165-2.963.282-5.936.057-8.9.174-.471.019-.74-.567-1.178-.343-1.308.67-2.7.161-4.04.328a1.494,1.494,0,0,1-1.326-.507c-.353-.427-1.253-.962.044-1.406.3-.1.3-2.538.03-2.543-1.167-.023-.821-.9-.793-1.449.219-4.324-.764-8.735.923-12.96.121-.3-.023-.8.423-.828.5-.034.4.466.462.791.038.207.035.44.309.506A4.252,4.252,0,0,0,.086,49.09L.1,49.021l-.07-.007c0-1.552-.007-3.1.016-4.656,0-.257-.125-.657.372-.689C1.928,43.572,2.4,43,1.732,41.8c-.635-1.15.088-1.064.767-1.072,2.085-.026,4.17-.025,6.255-.02.426,0,.968-.092,1.082.5a1.83,1.83,0,0,1-.445,1.847c-.34.315-.509.861-1.164.58-1.336-.572-2.507.378-3.779.471-.493.036-.526.652-.66,1.066a9.783,9.783,0,0,0-.109,3.154q.029,8.7.053,17.4c.006,2.314.411,2.728,2.68,2.721q15.837-.049,31.674-.087c.748,0,1.6-.285,2.139.629.189.321.6.173.783-.112a1.065,1.065,0,0,1,.985-.544,29.426,29.426,0,0,0,4.782-.059c1.557-.256,2.982.954,4.52.2.131-.064.4.164.605.232a1.318,1.318,0,0,0,.9.047c2.671-.968,5.438-.442,8.155-.391A6.445,6.445,0,0,0,63.312,68l.013,0c.191.279.47.238.747.2l.058.022a3.2,3.2,0,0,1-.055.521c-.177.653.059,1.3.63,1.4.776.133.347-.7.535-1.074a2.934,2.934,0,0,0,.16-.761l.247-.126c.6-.011,1.241.254,1.793-.208l.075.035.078-.028c1.106.837,2.209.413,3.311-.011.114.057.229.165.343.165,4.449-.009,8.9.113,13.348-.094a12.521,12.521,0,0,0,2.61.24c.871-.095,1.842.514,2.622-.3a24,24,0,0,0,5.741-.008.9.9,0,0,0,1.462.02c3.226.244,6.456.068,9.683.061,3.718-.007,7.439.111,11.155-.132,5.773.154,11.546.1,17.318-.028.526.235,1.052.46,1.592.033l8.54.01.081.019c.283.679.584.961.94.043l.015.005.839,0,.047-.016c.27.645.767.572,1.275.378a3.108,3.108,0,0,1,1.5-.433c2.454.3,4.99-.618,7.392.5.076.035.22-.063.326-.111,1.52-.675,1.613-.636,2.036.825a4.4,4.4,0,0,0,.214.483c.111.259.26.478.584.41a.519.519,0,0,0,.407-.6,3.373,3.373,0,0,1,.33-1.536l.253-.065a9.569,9.569,0,0,1,2.109.13,4.17,4.17,0,0,0,4.048-1.03c.666-.552.465-.837-.2-1.094l-.069-.607q0-.135,0-.27a.872.872,0,0,0,.083-.788.465.465,0,0,0-.058-.55,3.275,3.275,0,0,0-.029-1.593,7.522,7.522,0,0,0-.019-2.66,2.21,2.21,0,0,0,0-1.333c.213-4.413.063-8.829.058-13.243,0-.671-.284-1.21-1.08-1.246l.034.027a.48.48,0,0,0-.491-.362c-1.8-.019-3.6.254-5.381-.271-.153-.045-.415.278-.627.431l.013,0a1.818,1.818,0,0,0-1.592.023,1.038,1.038,0,0,0-.807,0,.885.885,0,0,0-.789,0,9.715,9.715,0,0,0-2.677.011,5.19,5.19,0,0,0-2.118-.007,3.7,3.7,0,0,0-1.614.018,5.8,5.8,0,0,0-2.111,0,1.806,1.806,0,0,0-1.084.006h-.516l-.992-.074-.177-.749a.437.437,0,0,0-.015-.567c.062-.15.03-.25-.146-.272l.008.006a.568.568,0,0,0-.785-.58c-.474.135-.429.555-.282.972.142.4.333.827-.014,1.232l-.548.045a20.268,20.268,0,0,0-3.97.006,7.611,7.611,0,0,0-2.43.019,3.069,3.069,0,0,0-1.575-.1l.015.006-.363-1.274a7.328,7.328,0,0,0-.928.757c-.708.8-1.632.551-2.475.494-.8-.054-.288-.861-.541-1.277-.162-.266-.19-.59-.584-.569a.707.707,0,0,0-.691.518c-.146.5-.1,1.064-.527,1.461l-.6.018a1.463,1.463,0,0,0-1.01,0h-.589c-2.53-.33-5.121.252-7.712-.305.227-.512,1-.484.641-1.014-.256-.38-.628-.166-.962.115a2.637,2.637,0,0,1-1.489.418h-.575a1.893,1.893,0,0,1-2.433.628,1.83,1.83,0,0,1-.934-2.075c.058-.328-.114-.769.4-.844s.684.277.733.723c.034.31.058.659.472.692a.83.83,0,0,0,.813-.577c.188-.385.237-.879.839-.884,1.325-.011,2.649-.046,3.974-.051.39,0,.753-.015.873.566.131.635.818.8,1.327.836.464.035.307-.532.336-.858.062-.685.595-.557,1-.563,1.776-.022,3.551,0,5.326-.032.5-.01,1.173.28,1.259-.708.065-.742.373-1.5-.519-1.884a1.624,1.624,0,0,1-.8-1,44.735,44.735,0,0,0-3.04-5.6c-.349-.535-.754-1.067.2-1.61.855-.486,1.193-.279,1.667.462a51.857,51.857,0,0,1,4.517,9.165c.29.746.589,1.257,1.509,1.006.975-.266,1.591.2,2.007,1.3.181-1.017.882-2.052-.87-1.828-.38.049-.392-.276-.434-.528a2.373,2.373,0,0,0-.494-1.266c.035.553-.009.978-.506,1.075-.566.111-.62-.427-.747-.759-.568-1.493-1.362-2.885-1.965-4.355-.994-2.422-2.986-4.344-3.471-7.012,0-.027-.127-.038-.195-.049-1.067-.175-1.294-1.252-1.975-1.819-1.133-.944-.36-1.569.3-2.084.354-.277.91-.4.607-.9-.354-.58-.767-.012-1.086.2-.925.612-1.732,1.012-2.2-.5-.081-.263-.541-.425-.844-.6-.974-.57-2.216-1.412-2.309-2.249-.183-1.644-1.276-1.559-2.252-1.915a2.039,2.039,0,0,1-.545-.377,55.14,55.14,0,0,0-15.24-8.445c-.9-.352-2.032-.56-1.776-2.009.06-.34-.136-.753-.636-.6-.355.111-.822.189-.669.786.058.226.4.385.178.7a2.318,2.318,0,0,1-.389-.028A56.291,56.291,0,0,0,88.283,4.921a68.4,68.4,0,0,0-9.028.223,50.17,50.17,0,0,0-9.079,1.82,49.431,49.431,0,0,0-15.607,7.514,1.863,1.863,0,0,1-2.121.278c-.359-.19-.632-.348-.885.077a.585.585,0,0,0,.255.892c.431.259.386.544.018.82-1.529,1.146-2.845,2.528-4.255,3.806-.4.363-.965.745-1.364.118-.7-1.1-1.956-.161-2.76-.86-.125-.109-.65.394-.388.622,1.072.93.067,1.325-.4,1.87-.322.378-.736.835-.137,1.205a.823.823,0,0,0,1.317-.344,2.055,2.055,0,0,1,1.956-1.13.64.64,0,0,1-.214.672,47.386,47.386,0,0,0-9.286,14.888c-.181.449-.427.752-.987.678-.85-.113-.935.521-.956,1.11-.029.789.814.942,1.239,1.288.4.326.688-.4.864-.874A64.579,64.579,0,0,1,40.1,31.757c.249-.465.4-.993,1.173-.636a.367.367,0,0,0,.448-.574c-.862-.926-.17-1.32.506-1.712a1.093,1.093,0,0,0,.5-.675c.5-1.28.839-2.769,2.615-2.929.276-.025.236-.208.2-.38-.192-.923.41-1.514.94-2.084a64.914,64.914,0,0,1,6.739-6.147,51.275,51.275,0,0,1,8.676-5.481c.406-.213.8-.457,1.192.225.366.641.648.078.752-.3.138-.5.082-1.039.753-1.265.922-.31,1.786-.8,2.717-1.076,2.782-.819,5.484-1.9,8.478-1.948,1.934-.034,2.527,0,3.135,1.356A17.041,17.041,0,0,1,77,8.62c-5.6.767-10.752,2.864-15.791,5.31-.466.226-1.051,1.1-1.422.516s.514-.8,1.036-.991c.322-.117.28-.426.252-.677-.03-.271-.335-.424-.474-.276-.553.589-1.727.73-1.7,1.662a2.042,2.042,0,0,1-1.465,2.081,12.081,12.081,0,0,0-2.345,1.7A53.468,53.468,0,0,0,44.57,28.923a96.659,96.659,0,0,0-5.282,9.169c-.312.555-1.028,1.415-.6,2.04.474.7,1.693.684,2.068,1.707.057.155.5-.132.543-.4.141-.857.744-.84,1.4-.835,2,.015,4-.027,5.992.018,1.328.03,2.745-.476,3.942.573a.662.662,0,0,0,.632,0c1.3-1,2.79-.633,4.224-.606a2.142,2.142,0,0,0,1.824-.834c.665-.762.86-1.895,1.833-2.378a1.637,1.637,0,0,0,.86-1.9l.012-.013c1.75-.063,2.108-1.8,3.2-2.658l.021-.021a3.987,3.987,0,0,0,2.086-1.56l.012-.014a1.3,1.3,0,0,0,.481-.084,25.918,25.918,0,0,1,6.239-3.028c.914-.3,1.662-1.222,2.772-.535.182.113.229-.164.34-.273a2.108,2.108,0,0,1,3.511.231c.178-1.441.179-1.483,1.195-1.45,3.535.114,7.13-.52,10.565.946.631.269,1.4.349,1.286,1.135-.106.721-.441,1.544-1.527,1.371-.233-.037-.6-.068-.6.308a.572.572,0,0,0,.614.571c.66,0,1.319-.054,1.979-.086-.175.372-.178.705.322.746.256.021.571-.158.5-.456-.113-.459-.508-.347-.847-.265-.025-.533-.833-1.165-.171-1.53s1.138-1.226,2.2-.884c1.383.443.309,1.427.542,2.243.691-1.674.679-1.651,2.155-.8.4.231.687.392.445.891-.262.539.113.943.347,1.341a1.144,1.144,0,0,0,1.059.629.371.371,0,0,0,.251-.255c.039-.464-.458-.468-.679-.72-.234-.267-.611-.5-.439-.874.27-.579.758-.173,1.013-.007,1.486.971,2.959,1.968,4.377,3.035a9.073,9.073,0,0,1,1.291,1.495c.135.16.452.362.268.525-.5.441-1.032.829-1.518,1.291-.177.168-.783-.382-1.069-.8-.482-.7-1.115-.838-1.247-.315-.322,1.277-.955.717-1.49.274a24.356,24.356,0,0,0-13.626-5.515,26,26,0,0,0-17.83,4.584c-.829.586-1.609,1.227-2.429,1.819-.258.186-.563.333-.841.058a.633.633,0,0,1,.023-.95,4.676,4.676,0,0,1,.813-.662,2.545,2.545,0,0,0,1.205-1.379c-.664.092-1.415-.165-1.616.543-.293,1.032-1.225,1.45-1.807,2.193-.244.311-.609.628-1.034.385-1.013-.581-1.425.106-1.887.793-.156.231-.364.456-.126.684.284.273.509.115.755-.173.716-.84.478.289.749.385-.3-.192-.5-.094-.593.218-.023.081.079.284.138.29.395.042.328-.321.431-.537.623-.557,1.237-1.126,1.873-1.667a.653.653,0,0,1,.958-.032c.381.384,0,.636-.217.884-.7.792-1.456,1.545-2.126,2.365-.453.555-.356.861.472.969,1.108.145,1.973-.593,3.046-.594,7.722-.008,15.443-.074,23.165-.112a1.935,1.935,0,0,1,1.94,1.862c.014,1.417-1,1.2-1.871,1.2-6.736,0-13.474-.1-20.208.023-2.487.044-4.971-.058-7.459.019-4.08.127-8.164.1-12.246.135-.745.006-1.58.2-1.3-1.119.1-.484-.4-1.194-.908-1.119-.758.111-.439.82-.286,1.3.221.687.057.98-.7.971-2.263-.028-4.527-.021-6.79-.021-.8,0-1.446-.195-1.475-1.4-1.222,1.742-2.733,1.511-4.4,1.317a.915.915,0,0,0,.007-1.629c-.677-.41-.639.423-.816.819-.193.43-.261.94-.936.938-2.841-.007-5.681.017-8.521.023-.261,0-.565,0-.689-.29-.154-.361.178-.425.394-.548.359-.2.575-.518.267-.855-.325-.358-.627-.067-.888.2a2.982,2.982,0,0,1-1.88.823c-.258.029-.447-.325-.808.008-1.285,1.184-2.634.916-3.167-.652-.176-.516-.346-1.365.312-1.657.771-.342.766.419.874.931a.529.529,0,0,0,.572.453.732.732,0,0,0,.654-.585c.13-.533.325-.889.95-.886,1.372.006,2.744-.032,4.116-.023.3,0,.757-.167.7.474-.073.853.81.783,1.194.882.577.149.36-.519.352-.864-.008-.362.191-.512.475-.475,1.973.258,2-1.394,2.373-2.537a58.789,58.789,0,0,1,3.2-7.433c.922-1.883,2.314-3.494,3.056-5.472l.069.008,0-.07c.147.028.216-.02.168-.178l.086-.014-.012-.086c.959.023.712-.714.787-1.249l.032-.031c.171.014.238-.067.212-.232l.039-.056a1.114,1.114,0,0,0,.644-.952l-.034.037a.316.316,0,0,0,.295-.3l-.035.031a.287.287,0,0,0,.277-.315l-.017.028a.546.546,0,0,0,.456-.6l.029-.047c.146,0,.2-.077.173-.219l.07.018.014-.071a1.6,1.6,0,0,1,.478.178c.274.222.424.763.911.378.456-.361.274-.761-.044-1.115-.3-.329-.02-.654-.017-.98l.013-.017a6.453,6.453,0,0,0,1.856-2.111l.016-.009a12.788,12.788,0,0,0,1.46.552.649.649,0,0,0,.884-.545c.063-.426-.258-.481-.593-.5-1.1-.059-.488-.509-.173-.841.566-.6,1.329-1,1.723-1.765l-.038.015a.3.3,0,0,0,.325-.269l-.023.028a.3.3,0,0,0,.3-.289l-.024.022a.3.3,0,0,0,.284-.3l-.023.029a.3.3,0,0,0,.289-.3l-.035.04a3.86,3.86,0,0,0,2.136-1.651l-.04.02a1,1,0,0,0,.98-.641l.028-.023a.236.236,0,0,0,.283-.225l0,0c.962.045,1.7-.245,1.925-1.295l-.033.017a.288.288,0,0,0,.33-.266l-.036.045a1.126,1.126,0,0,0,.986-.65l.014-.013a5.842,5.842,0,0,0,1.915-.841c1.333-.775,2.586-1.847,4.48-.991-1.067-.932-.4-1.235.288-1.54a60.784,60.784,0,0,1,6.555-2.451c.607-.187,1.626-.922,1.651.647,0,.25.264.332.508.275.292-.068.654-.013.826-.334.294-.551-.505-.659-.472-1.2a20.2,20.2,0,0,1,5.21-1.11l.233.288a2.239,2.239,0,0,0,.393,1.626c.181.395.024,1.155.774.974.813-.2.4-.79.273-1.29C76.66.788,77,.357,78.783.33A17.108,17.108,0,0,0,80.907.295c5.372-.759,10.643.091,15.917.938a.912.912,0,0,0,.806.049,2.957,2.957,0,0,0,.578.3c1.6.435,3.426.6,3.127,3.025a.448.448,0,0,0,.666.412c.495-.234,1.257-.065,1.458-.715.167-.536-.347-.6-.752-.664-.27-.04-.569-.121-.507-.463.084-.46.473-.328.745-.25.887.254,1.763.548,2.643.826l-.023-.021c.116.279.343.267.582.221M96.925,105.507c1.128.023,1.959-.649,2.926-.931a50.718,50.718,0,0,0,13.121-6.3c3.3-2.115,5.847-5.137,9.054-7.362.812-.564.725-1.771,1.454-2.475a20.511,20.511,0,0,0,2.642-3.489,48.541,48.541,0,0,0,5.955-12.276c.244-.766.169-1.022-.7-1.26-.935-.256-1.693-.7-2.664,0a1.95,1.95,0,0,1-1.67-.023,3.208,3.208,0,0,0-2-.129c-1.638.165-3.3.611-4.966-.01-.363-.135-.442-.046-.275-.47a.6.6,0,0,0-.622-.7.526.526,0,0,0-.558.6c.008.382,0,.778-.472.794a10.375,10.375,0,0,1-3.439-.088c-1.363-.421-2.4-.213-3.064.954A31.321,31.321,0,0,1,87.533,87.459,29.318,29.318,0,0,1,74.74,85.776c-.627-.21-.952-.733-1.671-.9-2.3-.537-4.5-1.434-5.871-3.591-.238-.375-.544-.825-1.009-.774-.849.093-1.295-.451-1.817-.918a27,27,0,0,1-5.79-7.026c-.26-.471-.516-.894-1.187-.89q-9.323.057-18.646.066c-.67,0-.7.287-.745.9-.087,1.164.664,1.94,1.035,2.888A48.674,48.674,0,0,0,46.259,88.1c.66.834,2.2,1.432,1.591,3.045-.079.21.31.456.591.344.555-.221.772.22,1.128.457,1.895,1.265,2.885,3.562,5.116,4.445.6.236.695,1.12,1.226,1.3,2,.7,3.487,2.247,5.378,3.111.58.265,1.328,2.109.967,2.353-.71.48-1.157-.134-1.592-.608a.424.424,0,0,0-.229-.128c-1.743-.263-3.051-1.4-4.412-2.341-1.15-.8-2.826-1.306-2.586-3.295.065-.535-.4-.612-.655-.2-.494.8-.819.367-1.346.024-.972-.631-1.282-1.877-2.2-2.428a17.468,17.468,0,0,1-3.928-3.85,45.445,45.445,0,0,1-7.99-13.253c-.658-1.662-1.266-3.345-1.94-5-.133-.327-.38-.851-.84-.632-.423.2-.062.623.028.941a50.135,50.135,0,0,0,5.237,11.884,2.264,2.264,0,0,1,.551,1.318c-.077,1-.073,1.912,1.347,1.828.147-.009.343.258.462.433a50.039,50.039,0,0,0,3.363,4.283c.221.263.591.5.291.9a1.268,1.268,0,0,1-1.082.419c-.453-.007-.583-.339-.592-.731a1.118,1.118,0,0,0-.523-.926c-.763-.637-1.975-.919-2.029-2.262-.017-.43-.538-.394-.882-.311a.29.29,0,0,0-.137.515c1.817,1.478,1.653,4.873,4.859,5.028.241.012.479.357.695.571.2.2.278.663.671.417s.212-.609-.011-.918c-.147-.2-.41-.436-.089-.657a.745.745,0,0,1,.628-.063c.643.306,1.416.645.709,1.537-.474.6.025.837.335.7,1.165-.507,1.687.339,2.385.922.779.651,1.624,1.222,2.418,1.855,4.914,3.916,10.667,6.285,16.31,8.856.206.094.5.12.36.4-.476.931.452.975.825,1.36.208.214.468.575.768.352.358-.266.118-.625-.095-.929-.2-.281-.528-.609-.269-.939a.723.723,0,0,1,1.08.017,2.658,2.658,0,0,0,2.611.664,13.849,13.849,0,0,1,3.387.426,43.579,43.579,0,0,0,5.807.358,53.211,53.211,0,0,0,9.1-.561,46.977,46.977,0,0,0,4.695-.8,54.866,54.866,0,0,1,7.583-2.109.877.877,0,0,0,.562-.3,1.837,1.837,0,0,1,1.638-.938c.914-.01.774.879,1.1,1.316.824-.543-.1-1.193.332-1.863a4.545,4.545,0,0,1,2.936-1.878,3.138,3.138,0,0,0,2.108-1.375c.381-.527,1.075-1.652,2.141-.649.241.227.445.7.838.43a.776.776,0,0,0,.064-1.089c-.333-.489-.386-.731.19-1.149a51.206,51.206,0,0,0,6.492-5.972,44.683,44.683,0,0,0,5.822-7.717,52.929,52.929,0,0,0,5.636-12.58c.083-.274.309-.649-.119-.8-.447-.155-.422.321-.57.56a20.078,20.078,0,0,0-1.176,3.465,53.915,53.915,0,0,1-7.721,13.578c-.828,1.057-1.46,2.488-3.089,2.723a.514.514,0,0,0-.453.686.89.89,0,0,1-.312.947A43.292,43.292,0,0,1,116.6,98.2c-.314.249-.653.522-.992-.009-.138-.217-.344-.475-.64-.27-.243.168-.16.475-.164.74-.016,1.16-.607,1.713-1.706,1.393-.681-.2-.942.285-.941.57,0,.653-.489.786-.824,1.1-1.084,1.014-2.529,1.359-3.792,2.042-.181.1-.537.189-.62.1-.934-.992-1.079-.183-1.315.531-.18.544-.724.607-1.176.758-.26.087-.412-.078-.433-.343-.024-.3.035-.676-.416-.69-.488-.015-.788.63-.776.74.138,1.254-.89,1.266-1.6,1.53-.822.306-1.694.476-2.545.7-.648.172-1.231.28-1.267-.711-.01-.27-.274-.531-.465-.875m6.176-27.3c-.758-.289-.984,1.275-1.583.4-.558-.816.547-1.112.928-1.631a.385.385,0,0,1,.107-.077,17.625,17.625,0,0,0,4.043-4.277c.384-.491.664-1.191-.416-1.028-1.788.27-3.571-.675-5.345.045a1.078,1.078,0,0,1-.528,0,30.43,30.43,0,0,0-4.114-.079c-.786-.01-1.8.353-1.667-1.094.011-.119-.294-.288-.474-.4a9.862,9.862,0,0,0-3.7.632.435.435,0,0,0-.05.253c.012.676-.487.649-.926.651q-5.656.02-11.313.019c-.4,0-.789-.027-.949-.529-.3-.951-.972-.719-1.383-.221a2.419,2.419,0,0,1-2.14.776c-2.928,0-5.856,0-8.784.031-.447.005-1.1-.3-1.3.244-.1.271.3.795.575,1.128a26.369,26.369,0,0,0,6.561,6.039c.966.593,1.784,1.531,2.837,1.818,2.623.715,5.08,1.928,7.871,2.188a26.491,26.491,0,0,0,7.719-.044c.587-.116,1.609-.716,1.866.455.2.929.719.757,1.265.566a29.515,29.515,0,0,0,5.075-1.77c.3-.169.948-.023.854-.523-.122-.647-.722-.158-1.105-.206a.858.858,0,0,0-.79.4c-.207.256-.491.676-.833.221-.357-.475-.055-.832.411-1.04A30.907,30.907,0,0,0,100.2,78.7c.293-.193.692-.422.911.02.2.4,0,.76-.453.944-.183.074-.59-.147-.513.39,1.58.361,2.319-.611,2.961-1.849m-39.159-2.25c-.715.064-.764-.648-1.251-.5-.277.082-.207.354-.219.562-.034.62.489.6.867.8.628.339,1.37.007,1.934.379.275.181.457.679.81.308.314-.332-.109-.626-.33-.874a33.206,33.206,0,0,1-3.436-3.977c-.208-.323-.39-.737-.895-.644-.1.018-.246.174-.242.261.02.421.288.634.625.9a5.456,5.456,0,0,1,2.136,2.791M141.833,69.9c-.109-.382-.408-.69-.749-.532-.364.169-1.062-.157-1.069.471-.005.441.484.712.962.739a.794.794,0,0,0,.856-.678M77.144,84.8c.542-.017.581-.377.732-.624.17-.279.075-.592-.188-.647a15.326,15.326,0,0,1-2.041-.8.545.545,0,0,0-.689.221c-.051.092-.035.33.019.356a7.476,7.476,0,0,1,2.167,1.5m45.105,10.38c.253.521.554.943-.241,1.17-.33.094-.315.608-.145.946a.541.541,0,0,0,.406.275c.349-.047.481-.361.569-.662.185-.637.348-1.279-.589-1.728M107.674,6.319c-.119-.481-.493-.952-.657-.83-.52.382-.478,1.2-1.089,1.621-.158.108.146.518.417.521.936.009.413-1.354,1.329-1.311m23.055,82.419c.32-.249,1.039-.1.9-.871-.069-.384-.046-.851-.63-.826-.768.033-.711.655-.8,1.163-.063.38.061.607.525.534M137.06,37.1a.952.952,0,0,0-.79-.938c-.351-.1-.473.21-.4.494.108.44.012,1.073.7,1.105.373.017.486-.319.492-.661M73.873,5.027c.589-.226,1.253-.1,1.357-.812.035-.243-.245-.345-.475-.352-.709-.02-.892.419-.882,1.164M45.092,69.846c-.3.129-.876-.239-.926.334-.046.52.534.73.9.716.237-.01.849.075.859-.538.011-.644-.456-.484-.833-.511M39.884,87.922a7.12,7.12,0,0,0-.743.588c-.667.692-.4,1.222.438,1.005.538-.139.64-.973.3-1.593M91.327,111.14c-.357.5-1.193-.361-1.352.513a.491.491,0,0,0,.455.543c.589.007.956-.292.9-1.056M103.771,6.847c.144-.235.707.176.732-.385.013-.287-.27-.437-.547-.429-.358.011-.737.148-.807.51-.075.389.29.313.622.3M92.2,1.762a1.138,1.138,0,0,0,.809,1.182c.187.053.224-.224.229-.391.019-.659-.459-.707-1.038-.792m60.92,39.045c-.721.417-1.137.714-1.093,1.335.01.133.227.37.321.357.608-.082.226-.785.611-1.045.074-.05.062-.225.161-.647m-95.905.641c-.638.131-.972.475-.868,1.08.023.134.266.362.32.34.642-.272.259-.967.548-1.419M168.788,44.2c.245-.5.388-.977-.186-1.254-.129-.062-.428-.05-.466.023-.358.685.676.662.653,1.231M136.66,76.229c.257-.431.655-.829.135-1.292-.16-.142-.485-.211-.588.022-.227.516.03.921.452,1.27m2.332-4.774c-.315.039-.789-.072-.8.415s.449.583.843.613c.342.026.764.043.79-.443.03-.557-.417-.564-.831-.585M49.935,15.914a.358.358,0,0,0,.387-.4.391.391,0,0,0-.377-.432.346.346,0,0,0-.386.4.406.406,0,0,0,.376.434M138.074,72.5c-1.042-.138-1.548.029-1.913.527a.378.378,0,0,0,.041.33c.54.158.749-.521,1.25-.514.109,0,.219-.115.622-.343m31.474-21.479a.533.533,0,0,0-.434-.55.37.37,0,0,0-.376.418.5.5,0,0,0,.424.551.379.379,0,0,0,.386-.418M63.2,39.5l-.065-.086c-.028.023-.075.043-.079.069s.038.057.06.086L63.2,39.5" transform="translate(0 0)" fill="#b1b8cf"/>
    <path id="Path_8310" data-name="Path 8310" d="M139.184,334.748a17.84,17.84,0,0,1,2.652,3.673,7.079,7.079,0,0,1-2.652-3.673" transform="translate(-102.06 -245.463)" fill="#b1b8cf"/>
    <path id="Path_8311" data-name="Path 8311" d="M152.507,72.744c0,.326-.279.651.017.98.319.354.5.755.044,1.115-.487.385-.637-.156-.911-.377a1.6,1.6,0,0,0-.478-.178l1.328-1.54" transform="translate(-110.856 -53.341)" fill="#b1b8cf"/>
    <path id="Path_8312" data-name="Path 8312" d="M215.346,404.083a11.3,11.3,0,0,1,3.547,1.727,5.32,5.32,0,0,1-3.547-1.727" transform="translate(-157.908 -296.305)" fill="#b1b8cf"/>
    <path id="Path_8313" data-name="Path 8313" d="M189.309,382.216a1.913,1.913,0,0,1,1.758,2.478,5.993,5.993,0,0,0-1.758-2.478" transform="translate(-138.816 -280.27)" fill="#b1b8cf"/>
    <path id="Path_8314" data-name="Path 8314" d="M422.5,26.5c-.82-.128-1.407-.957-2.439-.615-.458.152-.149-.614-.276-.938.815.674,2.314.153,2.715,1.552" transform="translate(-307.818 -18.29)" fill="#b1b8cf"/>
    <path id="Path_8315" data-name="Path 8315" d="M451.176,45.371a9.671,9.671,0,0,1-2.691-2.159c1.357.147,1.985,1.2,2.691,2.159" transform="translate(-328.863 -31.686)" fill="#b1b8cf"/>
    <path id="Path_8316" data-name="Path 8316" d="M411.582,20.766a6.374,6.374,0,0,1-3-1.541,3.621,3.621,0,0,1,3,1.541" transform="translate(-299.6 -14.097)" fill="#b1b8cf"/>
    <path id="Path_8317" data-name="Path 8317" d="M158.066,64.763a6.457,6.457,0,0,1-1.856,2.111,2.508,2.508,0,0,1,1.856-2.111" transform="translate(-114.545 -47.489)" fill="#b1b8cf"/>
    <path id="Path_8318" data-name="Path 8318" d="M194.148,34.992c-.226,1.049-.962,1.34-1.925,1.295a2.7,2.7,0,0,1,1.925-1.295" transform="translate(-140.953 -25.659)" fill="#b1b8cf"/>
    <path id="Path_8319" data-name="Path 8319" d="M198.155,393.585a16.39,16.39,0,0,1,2.7,1.533,3.312,3.312,0,0,1-2.7-1.533" transform="translate(-145.302 -288.607)" fill="#b1b8cf"/>
    <path id="Path_8320" data-name="Path 8320" d="M495.452,94.388a1.513,1.513,0,0,0-1.6-.037c.4-.6.742-1.022.517-1.549.851.194.869.956,1.082,1.586" transform="translate(-362.131 -68.05)" fill="#b1b8cf"/>
    <path id="Path_8321" data-name="Path 8321" d="M181.675,43.091a3.86,3.86,0,0,1-2.136,1.652c.549-.761,1.024-1.618,2.136-1.652" transform="translate(-131.652 -31.598)" fill="#b1b8cf"/>
    <path id="Path_8322" data-name="Path 8322" d="M501.37,101.241a6.362,6.362,0,0,1-1.513-2.483,2.755,2.755,0,0,1,1.513,2.483" transform="translate(-366.533 -72.417)" fill="#b1b8cf"/>
    <path id="Path_8323" data-name="Path 8323" d="M459.882,52.487a3.644,3.644,0,0,1-1.431-1.247c.837,0,1.453.259,1.431,1.247" transform="translate(-336.171 -37.573)" fill="#b1b8cf"/>
    <path id="Path_8324" data-name="Path 8324" d="M492.826,88.395a3.122,3.122,0,0,1-1.084-1.612,1.339,1.339,0,0,1,1.084,1.612" transform="translate(-360.583 -63.636)" fill="#b1b8cf"/>
    <path id="Path_8325" data-name="Path 8325" d="M140.937,88.7c-.075.535.172,1.271-.787,1.249.09-.525.13-1.081.787-1.249" transform="translate(-102.769 -65.04)" fill="#b1b8cf"/>
    <path id="Path_8326" data-name="Path 8326" d="M154.254,354.531a2.258,2.258,0,0,1,1.048,1.317c-.777-.1-.907-.713-1.048-1.317" transform="translate(-113.111 -259.969)" fill="#b1b8cf"/>
    <path id="Path_8327" data-name="Path 8327" d="M163.239,364.463a2.876,2.876,0,0,1,1.328,1.056c-.617-.133-1.238-.261-1.328-1.056" transform="translate(-119.699 -267.252)" fill="#b1b8cf"/>
    <path id="Path_8328" data-name="Path 8328" d="M150.155,349.746A2.078,2.078,0,0,1,151.231,351a1.174,1.174,0,0,1-1.076-1.255" transform="translate(-110.105 -256.46)" fill="#b1b8cf"/>
    <path id="Path_8329" data-name="Path 8329" d="M168.419,368.88a3.506,3.506,0,0,1,1.042,1.195,1.01,1.01,0,0,1-1.042-1.195" transform="translate(-123.494 -270.491)" fill="#b1b8cf"/>
    <path id="Path_8330" data-name="Path 8330" d="M520.18,139.651a3.305,3.305,0,0,1-.581-1.84c.945.376.491,1.194.581,1.84" transform="translate(-381.01 -101.054)" fill="#b1b8cf"/>
    <path id="Path_8331" data-name="Path 8331" d="M475.77,358.232a1.868,1.868,0,0,1,1.017-1.139c.076.75-.33,1.07-1.017,1.139" transform="translate(-348.871 -261.848)" fill="#b1b8cf"/>
    <path id="Path_8332" data-name="Path 8332" d="M483.916,348.648a2.272,2.272,0,0,1,1.05-1.383,1.3,1.3,0,0,1-1.05,1.383" transform="translate(-354.844 -254.641)" fill="#b1b8cf"/>
    <path id="Path_8333" data-name="Path 8333" d="M404.494,17.514a2.422,2.422,0,0,1-1.538-.647c.6.018,1.249-.1,1.538.647" transform="translate(-295.478 -12.368)" fill="#b1b8cf"/>
    <path id="Path_8334" data-name="Path 8334" d="M399.688,15.388a1.418,1.418,0,0,1-1.187-.5c.456.02,1.047-.281,1.187.5" transform="translate(-292.211 -10.89)" fill="#b1b8cf"/>
    <path id="Path_8335" data-name="Path 8335" d="M188.376,40.764a1,1,0,0,1-.981.641c.082-.587.524-.627.981-.641" transform="translate(-137.412 -29.891)" fill="#b1b8cf"/>
    <path id="Path_8336" data-name="Path 8336" d="M209.347,400.1a1.142,1.142,0,0,1,.971.635c-.45-.019-.878-.07-.971-.635" transform="translate(-153.509 -293.382)" fill="#b1b8cf"/>
    <path id="Path_8337" data-name="Path 8337" d="M144.8,83.932a1.114,1.114,0,0,1-.644.952c.03-.442.085-.868.644-.952" transform="translate(-105.709 -61.545)" fill="#b1b8cf"/>
    <path id="Path_8338" data-name="Path 8338" d="M201.4,31.788a1.126,1.126,0,0,1-.986.65c.067-.613.521-.638.986-.65" transform="translate(-146.96 -23.309)" fill="#b1b8cf"/>
    <path id="Path_8339" data-name="Path 8339" d="M148.835,79.717a.546.546,0,0,1-.456.6.472.472,0,0,1,.456-.6" transform="translate(-108.798 -58.455)" fill="#b1b8cf"/>
    <path id="Path_8340" data-name="Path 8340" d="M488.236,82.453a.6.6,0,0,1-.471-.613c.411.009.578.206.471.613" transform="translate(-357.667 -60.011)" fill="#b1b8cf"/>
    <path id="Path_8341" data-name="Path 8341" d="M396.365,14.192c-.24.046-.466.059-.583-.221a.5.5,0,0,1,.583.221" transform="translate(-290.218 -10.234)" fill="#b1b8cf"/>
    <path id="Path_8342" data-name="Path 8342" d="M139.408,93.754c.048.158-.021.205-.168.178a.464.464,0,0,1,.168-.178" transform="translate(-102.101 -68.748)" fill="#b1b8cf"/>
    <path id="Path_8343" data-name="Path 8343" d="M143.431,87.708c.026.166-.041.246-.212.233l.212-.233" transform="translate(-105.019 -64.314)" fill="#b1b8cf"/>
    <path id="Path_8344" data-name="Path 8344" d="M490.781,85.383a.4.4,0,0,1-.32-.391.357.357,0,0,1,.32.391" transform="translate(-359.643 -62.323)" fill="#b1b8cf"/>
    <path id="Path_8345" data-name="Path 8345" d="M149.217,348.619c.17-.007.234.077.209.24l-.209-.24" transform="translate(-109.417 -255.634)" fill="#b1b8cf"/>
    <path id="Path_8346" data-name="Path 8346" d="M489.786,84.329a.287.287,0,0,1-.294-.3.274.274,0,0,1,.294.3" transform="translate(-358.933 -61.616)" fill="#b1b8cf"/>
    <path id="Path_8347" data-name="Path 8347" d="M146.743,82.929a.317.317,0,0,1-.3.3.317.317,0,0,1,.3-.3" transform="translate(-107.387 -60.81)" fill="#b1b8cf"/>
    <path id="Path_8348" data-name="Path 8348" d="M482.538,353.232a.393.393,0,0,1,.314-.385.378.378,0,0,1-.314.385" transform="translate(-353.834 -258.734)" fill="#b1b8cf"/>
    <path id="Path_8349" data-name="Path 8349" d="M481.524,354.421a.3.3,0,0,1,.308-.295.3.3,0,0,1-.308.295" transform="translate(-353.09 -259.672)" fill="#b1b8cf"/>
    <path id="Path_8350" data-name="Path 8350" d="M480.506,355.391a.3.3,0,0,1,.306-.3.289.289,0,0,1-.306.3" transform="translate(-352.344 -260.381)" fill="#b1b8cf"/>
    <path id="Path_8351" data-name="Path 8351" d="M147.7,81.865a.287.287,0,0,1-.277.315l.277-.315" transform="translate(-108.103 -60.03)" fill="#b1b8cf"/>
    <path id="Path_8352" data-name="Path 8352" d="M479.522,356.392a.3.3,0,0,1,.3-.3.291.291,0,0,1-.3.3" transform="translate(-351.622 -261.111)" fill="#b1b8cf"/>
    <path id="Path_8353" data-name="Path 8353" d="M150.39,78.717c.031.142-.027.216-.173.219l.173-.219" transform="translate(-110.151 -57.721)" fill="#b1b8cf"/>
    <path id="Path_8354" data-name="Path 8354" d="M158.244,359.538l.256.243-.256-.243" transform="translate(-116.037 -263.641)" fill="#b1b8cf"/>
    <path id="Path_8355" data-name="Path 8355" d="M159.249,360.486a.229.229,0,0,1,.261.256l-.261-.256" transform="translate(-116.774 -264.336)" fill="#b1b8cf"/>
    <path id="Path_8356" data-name="Path 8356" d="M160.253,361.474l.264.258-.264-.258" transform="translate(-117.51 -265.06)" fill="#b1b8cf"/>
    <path id="Path_8357" data-name="Path 8357" d="M474.826,361.613a.266.266,0,0,1,.265-.288l-.265.288" transform="translate(-348.179 -264.951)" fill="#b1b8cf"/>
    <path id="Path_8358" data-name="Path 8358" d="M161.253,362.451a.237.237,0,0,1,.264.264l-.264-.264" transform="translate(-118.243 -265.777)" fill="#b1b8cf"/>
    <path id="Path_8359" data-name="Path 8359" d="M473.866,362.669c-.017-.189.071-.28.259-.279l-.259.279" transform="translate(-347.473 -265.732)" fill="#b1b8cf"/>
    <path id="Path_8360" data-name="Path 8360" d="M472.958,363.7c0-.168.068-.268.245-.276l-.245.276" transform="translate(-346.809 -266.494)" fill="#b1b8cf"/>
    <path id="Path_8361" data-name="Path 8361" d="M470.076,62.117a.25.25,0,0,1-.282-.273l.282.273" transform="translate(-344.489 -45.349)" fill="#b1b8cf"/>
    <path id="Path_8362" data-name="Path 8362" d="M471.974,364.764c-.016-.181.069-.263.247-.256l-.247.256" transform="translate(-346.086 -267.285)" fill="#b1b8cf"/>
    <path id="Path_8363" data-name="Path 8363" d="M469.082,61.124l-.276-.281.276.281" transform="translate(-343.764 -44.615)" fill="#b1b8cf"/>
    <path id="Path_8364" data-name="Path 8364" d="M468.1,60.115a.248.248,0,0,1-.272-.277l.272.277" transform="translate(-343.044 -43.878)" fill="#b1b8cf"/>
    <path id="Path_8365" data-name="Path 8365" d="M172.291,373.32a.281.281,0,0,1,.278.284l-.278-.284" transform="translate(-126.337 -273.747)" fill="#b1b8cf"/>
    <path id="Path_8366" data-name="Path 8366" d="M467.091,59.112l-.277-.276.277.276" transform="translate(-342.304 -43.143)" fill="#b1b8cf"/>
    <path id="Path_8367" data-name="Path 8367" d="M466.086,58.12a.263.263,0,0,1-.28-.274l.28.274" transform="translate(-341.565 -42.417)" fill="#b1b8cf"/>
    <path id="Path_8368" data-name="Path 8368" d="M465.07,57.131l-.284-.277.284.277" transform="translate(-340.817 -41.69)" fill="#b1b8cf"/>
    <path id="Path_8369" data-name="Path 8369" d="M196.2,392.009l.1-.008v.1a.268.268,0,0,0-.1-.1" transform="translate(-143.868 -287.445)" fill="#b1b8cf"/>
    <path id="Path_8370" data-name="Path 8370" d="M197.153,392.731c.16-.045.24.012.229.182l-.229-.182" transform="translate(-144.568 -287.969)" fill="#b1b8cf"/>
    <path id="Path_8371" data-name="Path 8371" d="M464.062,56.137a.267.267,0,0,1-.284-.279l.284.279" transform="translate(-340.077 -40.959)" fill="#b1b8cf"/>
    <path id="Path_8372" data-name="Path 8372" d="M175.787,52.161a.3.3,0,0,1-.325.269.266.266,0,0,1,.325-.269" transform="translate(-128.662 -38.247)" fill="#b1b8cf"/>
    <path id="Path_8373" data-name="Path 8373" d="M208.238,399.289a.284.284,0,0,1,.33.248l-.33-.248" transform="translate(-152.696 -292.789)" fill="#b1b8cf"/>
    <path id="Path_8374" data-name="Path 8374" d="M176.884,51.185a.294.294,0,0,1-.3.289c-.011-.208.087-.3.3-.289" transform="translate(-129.488 -37.531)" fill="#b1b8cf"/>
    <path id="Path_8375" data-name="Path 8375" d="M177.887,50.147a.3.3,0,0,1-.284.3q-.024-.305.284-.3" transform="translate(-130.231 -36.771)" fill="#b1b8cf"/>
    <path id="Path_8376" data-name="Path 8376" d="M178.872,49.132a.3.3,0,0,1-.289.3c-.013-.2.084-.3.289-.3" transform="translate(-130.95 -36.027)" fill="#b1b8cf"/>
    <path id="Path_8377" data-name="Path 8377" d="M191.459,39.834a.236.236,0,0,1-.283.225l.283-.225" transform="translate(-140.185 -29.209)" fill="#b1b8cf"/>
    <path id="Path_8378" data-name="Path 8378" d="M232.141,273.876A5.456,5.456,0,0,0,230,271.085c-.337-.263-.605-.477-.625-.9,0-.087.144-.243.242-.261.5-.093.687.321.895.644a33.2,33.2,0,0,0,3.436,3.977c.221.248.645.543.33.874-.352.372-.535-.127-.809-.308-.563-.371-1.306-.039-1.934-.379-.378-.2-.9-.183-.867-.8.011-.208-.058-.48.219-.562.487-.143.536.569,1.251.5" transform="translate(-168.199 -197.921)" fill="#b1b8cf"/>
    <path id="Path_8379" data-name="Path 8379" d="M526.764,260.485a.794.794,0,0,1-.856.678c-.477-.026-.967-.3-.961-.739.007-.628.7-.3,1.069-.471.341-.158.639.15.749.532" transform="translate(-384.931 -190.587)" fill="#b1b8cf"/>
    <path id="Path_8380" data-name="Path 8380" d="M283.134,312.125a7.49,7.49,0,0,0-2.167-1.5c-.054-.026-.07-.264-.019-.356a.545.545,0,0,1,.689-.221,15.336,15.336,0,0,0,2.041.8c.264.055.358.368.188.647-.15.247-.19.607-.732.624" transform="translate(-205.989 -227.324)" fill="#b1b8cf"/>
    <path id="Path_8381" data-name="Path 8381" d="M456.952,356.856c.937.449.775,1.091.589,1.728-.088.3-.219.615-.568.662a.541.541,0,0,1-.406-.275c-.17-.338-.184-.851.145-.946.795-.227.493-.649.241-1.17" transform="translate(-334.703 -261.674)" fill="#b1b8cf"/>
    <path id="Path_8382" data-name="Path 8382" d="M398.772,21.354c-.916-.043-.393,1.32-1.329,1.311-.272,0-.575-.412-.417-.521.611-.419.569-1.239,1.089-1.621.165-.121.538.349.657.83" transform="translate(-291.098 -15.035)" fill="#b1b8cf"/>
    <path id="Path_8383" data-name="Path 8383" d="M488.642,328.027c-.464.073-.588-.155-.525-.534.085-.508.028-1.13.8-1.163.584-.025.561.442.63.826.138.769-.581.622-.9.871" transform="translate(-357.913 -239.29)" fill="#b1b8cf"/>
    <path id="Path_8384" data-name="Path 8384" d="M317.164,252.812c.233-1.211,1.369-.826,1.766-.605,1.135.631,2.33.292,3.465.542-.78.817-1.751.209-2.622.3a12.5,12.5,0,0,1-2.609-.24" transform="translate(-232.569 -184.763)" fill="#b1b8cf"/>
    <path id="Path_8385" data-name="Path 8385" d="M541.989,156.522c-.475-.135-.927.479-1.411.042.348-.405.156-.831.014-1.232-.147-.417-.192-.838.282-.972a.568.568,0,0,1,.785.58c-.412.052-.6.29-.516.691.109.5.411.253.669.142l.177.749" transform="translate(-396.33 -113.165)" fill="#b1b8cf"/>
    <path id="Path_8386" data-name="Path 8386" d="M510.535,136.461c-.006.341-.119.677-.492.66-.689-.032-.593-.665-.7-1.1-.07-.284.052-.59.4-.494a.952.952,0,0,1,.79.939" transform="translate(-373.475 -99.362)" fill="#b1b8cf"/>
    <path id="Path_8387" data-name="Path 8387" d="M276.964,15.645c-.01-.745.173-1.184.882-1.164.23.007.51.109.474.352-.1.709-.767.587-1.357.812" transform="translate(-203.091 -10.618)" fill="#b1b8cf"/>
    <path id="Path_8388" data-name="Path 8388" d="M166.508,261.864c.377.028.844-.133.833.511-.01.614-.622.529-.859.538-.365.015-.946-.2-.9-.716.051-.573.624-.205.926-.334" transform="translate(-121.415 -192.019)" fill="#b1b8cf"/>
    <path id="Path_8389" data-name="Path 8389" d="M146.463,329.638c.337.62.234,1.453-.3,1.593-.836.216-1.1-.313-.438-1.005a7.082,7.082,0,0,1,.742-.588" transform="translate(-106.578 -241.716)" fill="#b1b8cf"/>
    <path id="Path_8390" data-name="Path 8390" d="M338.671,416.687c.058.764-.309,1.063-.9,1.056a.492.492,0,0,1-.455-.543c.16-.873,1-.012,1.352-.513" transform="translate(-247.343 -305.547)" fill="#b1b8cf"/>
    <path id="Path_8391" data-name="Path 8391" d="M387.322,23.432c-.332.009-.7.086-.622-.3.07-.362.449-.5.807-.511.277-.008.56.142.547.429-.025.562-.588.15-.732.385" transform="translate(-283.55 -16.585)" fill="#b1b8cf"/>
    <path id="Path_8392" data-name="Path 8392" d="M240.124,255.7a2.538,2.538,0,0,1,1.269.085,2.878,2.878,0,0,1-.159.762c-.188.371.242,1.206-.535,1.074-.571-.1-.807-.747-.63-1.4a3.2,3.2,0,0,0,.055-.521" transform="translate(-175.995 -187.467)" fill="#b1b8cf"/>
    <path id="Path_8393" data-name="Path 8393" d="M345.69,6.606c.579.085,1.057.132,1.038.792,0,.167-.042.443-.229.391a1.139,1.139,0,0,1-.809-1.182" transform="translate(-253.486 -4.844)" fill="#b1b8cf"/>
    <path id="Path_8394" data-name="Path 8394" d="M626.144,225.273a1.8,1.8,0,0,1-.018-2.66,7.527,7.527,0,0,1,.018,2.66" transform="translate(-458.698 -163.237)" fill="#b1b8cf"/>
    <path id="Path_8395" data-name="Path 8395" d="M571.079,152.991c-.1.422-.087.6-.161.648-.384.26,0,.963-.61,1.045-.094.013-.312-.225-.321-.357-.045-.621.371-.918,1.092-1.336" transform="translate(-417.956 -112.185)" fill="#b1b8cf"/>
    <path id="Path_8396" data-name="Path 8396" d="M212.086,155.4c-.289.452.094,1.147-.548,1.419-.054.023-.3-.205-.32-.339-.1-.605.23-.948.868-1.08" transform="translate(-154.867 -113.948)" fill="#b1b8cf"/>
    <path id="Path_8397" data-name="Path 8397" d="M630.818,162.15c.023-.569-1.011-.546-.653-1.231.038-.073.338-.085.467-.023.575.277.431.757.186,1.254" transform="translate(-462.03 -117.952)" fill="#b1b8cf"/>
    <path id="Path_8398" data-name="Path 8398" d="M510.891,281.886c-.422-.349-.68-.754-.452-1.27.1-.234.428-.165.587-.022.519.463.121.86-.135,1.292" transform="translate(-374.23 -205.658)" fill="#b1b8cf"/>
    <path id="Path_8399" data-name="Path 8399" d="M518.9,267.9c.414.021.861.028.831.585-.026.486-.448.469-.79.443-.393-.03-.855-.122-.843-.613s.487-.377.8-.415" transform="translate(-379.912 -196.443)" fill="#b1b8cf"/>
    <path id="Path_8400" data-name="Path 8400" d="M186.183,57.375a.406.406,0,0,1-.376-.434.346.346,0,0,1,.386-.4.391.391,0,0,1,.377.432.357.357,0,0,1-.387.4" transform="translate(-136.248 -41.462)" fill="#b1b8cf"/>
    <path id="Path_8401" data-name="Path 8401" d="M527.848,162.621a7.662,7.662,0,0,1-3.97.006,20.269,20.269,0,0,1,3.97-.006" transform="translate(-384.147 -119.177)" fill="#b1b8cf"/>
    <path id="Path_8402" data-name="Path 8402" d="M512.349,271.682c-.4.229-.513.345-.621.343-.5-.007-.711.672-1.25.514a.378.378,0,0,1-.041-.331c.366-.5.871-.664,1.913-.527" transform="translate(-374.275 -199.184)" fill="#b1b8cf"/>
    <path id="Path_8403" data-name="Path 8403" d="M253.418,254.615a13.681,13.681,0,0,1,3.311-.012c-1.1.425-2.2.849-3.311.012" transform="translate(-185.825 -186.625)" fill="#b1b8cf"/>
    <path id="Path_8404" data-name="Path 8404" d="M543.55,157.437c-.258.111-.56.357-.669-.142-.088-.4.1-.639.516-.691l-.008-.006.146.272a.437.437,0,0,1,.015.567" transform="translate(-398.067 -114.83)" fill="#b1b8cf"/>
    <path id="Path_8405" data-name="Path 8405" d="M595.341,162.143a1.183,1.183,0,0,1-1.592.023,1.818,1.818,0,0,1,1.592-.023" transform="translate(-435.382 -118.768)" fill="#b1b8cf"/>
    <path id="Path_8406" data-name="Path 8406" d="M352.772,113.585c.339-.082.734-.194.847.265.073.3-.241.477-.5.456-.5-.041-.5-.374-.322-.746l-.028.026" transform="translate(-258.622 -83.235)" fill="#b1b8cf"/>
    <path id="Path_8407" data-name="Path 8407" d="M571.908,162.476a2.088,2.088,0,0,1-2.118-.007,5.189,5.189,0,0,1,2.118.007" transform="translate(-417.814 -119.057)" fill="#b1b8cf"/>
    <path id="Path_8408" data-name="Path 8408" d="M557.934,162.556a2.173,2.173,0,0,1-2.111-.005,5.8,5.8,0,0,1,2.111.005" transform="translate(-407.572 -119.126)" fill="#b1b8cf"/>
    <path id="Path_8409" data-name="Path 8409" d="M510.439,162.485a1.256,1.256,0,0,1-1.575-.1,3.069,3.069,0,0,1,1.575.1" transform="translate(-373.138 -119.016)" fill="#b1b8cf"/>
    <path id="Path_8410" data-name="Path 8410" d="M246.123,254.794c.544-.525,1.183-.243,1.793-.209-.552.462-1.189.2-1.793.209" transform="translate(-180.476 -186.603)" fill="#b1b8cf"/>
    <path id="Path_8411" data-name="Path 8411" d="M237.685,144.634c-.1.216-.036.578-.431.537-.059-.006-.161-.209-.138-.29.091-.312.3-.409.593-.218l-.024-.029" transform="translate(-173.869 -106.006)" fill="#b1b8cf"/>
    <path id="Path_8412" data-name="Path 8412" d="M480.994,162.856a.831.831,0,0,1-1.01,0,1.461,1.461,0,0,1,1.01,0" transform="translate(-351.961 -119.352)" fill="#b1b8cf"/>
    <path id="Path_8413" data-name="Path 8413" d="M358.3,254.665a3.305,3.305,0,0,1,1.462.019.9.9,0,0,1-1.462-.019" transform="translate(-262.734 -186.687)" fill="#b1b8cf"/>
    <path id="Path_8414" data-name="Path 8414" d="M545.131,254.8l.939.042c-.355.918-.656.636-.939-.042" transform="translate(-399.732 -186.839)" fill="#b1b8cf"/>
    <path id="Path_8415" data-name="Path 8415" d="M588.555,162.477c-.261.327-.524.326-.789,0a.885.885,0,0,1,.789,0" transform="translate(-430.995 -119.074)" fill="#b1b8cf"/>
    <path id="Path_8416" data-name="Path 8416" d="M548.712,253.988c.277-.476.556-.485.839,0l-.839,0" transform="translate(-402.358 -185.979)" fill="#b1b8cf"/>
    <path id="Path_8417" data-name="Path 8417" d="M633.446,189.759a.379.379,0,0,1-.386.418.5.5,0,0,1-.424-.55.371.371,0,0,1,.376-.418.533.533,0,0,1,.435.55" transform="translate(-463.897 -138.741)" fill="#b1b8cf"/>
    <path id="Path_8418" data-name="Path 8418" d="M237.419,254.8a.563.563,0,0,1,.746.2c-.277.035-.555.075-.746-.2" transform="translate(-174.094 -186.799)" fill="#b1b8cf"/>
    <path id="Path_8419" data-name="Path 8419" d="M550.341,162.832c-.172.243-.344.244-.516,0Z" transform="translate(-403.174 -119.4)" fill="#b1b8cf"/>
    <path id="Path_8420" data-name="Path 8420" d="M627.283,239.108c-.362-.147-.422-.326-.058-.551a.466.466,0,0,1,.058.551" transform="translate(-459.75 -174.928)" fill="#b1b8cf"/>
    <path id="Path_8421" data-name="Path 8421" d="M627.4,243.844c-.2-.09-.2-.18,0-.27,0,.09,0,.18,0,.27" transform="translate(-459.945 -178.607)" fill="#b1b8cf"/>
    <path id="Path_8422" data-name="Path 8422" d="M544.989,156.87l-.146-.272c.177.022.209.122.146.272" transform="translate(-399.521 -114.83)" fill="#b1b8cf"/>
    <path id="Path_8423" data-name="Path 8423" d="M236.544,147.873l-.084.068c-.022-.029-.063-.06-.06-.086s.051-.046.079-.069Z" transform="translate(-173.347 -108.369)" fill="#b1b8cf"/>
    <path id="Path_8424" data-name="Path 8424" d="M192.9,93.173a1.169,1.169,0,0,0-1.28.863c-.077.568.609.914,1.015,1.3.266.253.928.238.8.724-.122.463-.746.344-1.153.466a1.366,1.366,0,0,1-.528.029c-1.037-.112-1.247.378-.937,1.262.127.36.43.747-.061,1.055a.855.855,0,0,1-1.113-.038c-.836-.848-1.619-.278-2.384.071-.289.132-.635.422-.808.121-.77-1.338-1.421-.316-2.1.057-.364.2-.657.813-1.108.467-.415-.319-.027-.812.1-1.223.5-1.574.5-1.57-1.083-1.8-.476-.068-.947-.169-1.407-.253-.125-.465.26-.557.461-.741.758-.694,2.163-1.121.706-2.533a.782.782,0,0,1,.714-1.283c1,.011.966-.5.712-1.2-.045-.124-.052-.261-.086-.389-.121-.456-.513-.885-.215-1.382.154-.257.432-.107.564.043.44.5,1.471.475,1.381,1.419-.047.5-.21.966.3,1.308.212.142.541.12.558-.093.052-.661,1.168-.808.746-1.679a2.106,2.106,0,0,1,.39-2.434c.65.361.6,1.008.72,1.536.114.492.159,1.02.7,1.175.584.168,1-.211,1.334-.656.027-.035.05-.073.08-.106.3-.335.657-.751,1.114-.438.4.275.062.742-.041,1.09-.489,1.659-.457,1.722.916,1.765.595.018,1.378-.3,1.731.3.33.561-.879.527-.741,1.186v0" transform="translate(-132.597 -64.026)" fill="#b1b8cf"/>
    <path id="Path_8425" data-name="Path 8425" d="M337.591,60.995c-.276-.824.153-1.421.342-2.028.259-.836.208-1.25-.8-1.249a15.547,15.547,0,0,1-2.141-.305,4.839,4.839,0,0,1,1.529-1.349c.839-.506.683-1.008.068-1.564-.512-.462-1.311-.6-1.588-1.455a4.293,4.293,0,0,1,2.174-.244c.784-.013.989-.26.753-1.063-.19-.649-.886-1.579-.344-1.944.619-.417,1.278.51,1.825.962.787.649,1.068.219,1.314-.469s.231-1.817.919-1.843c.622-.022.564,1.138.789,1.776.3.85.724,1.065,1.453.471.069-.056.136-.114.209-.164.5-.337,1.064-1.122,1.517-.826.6.392-.062,1.155-.265,1.654-.422,1.035.15,1.694.6,2.431.085.138.34.175.415.313.387.717-.664,1.125-.394,1.905.189.546.813,1.341-.4,1.7-.932.274-.3.913-.209,1.417.072.423.418.957.061,1.253-.458.379-.933-.115-1.258-.4-.995-.881-1.519-.625-1.777.593a7.2,7.2,0,0,1-.257.753c-.082.246-.1.564-.418.608-.354.05-.385-.294-.494-.518a1.548,1.548,0,0,1,.282-2.143c.265-.219.654-.691.292-1.021-.476-.433-.448.384-.7.433-1.469.287-2.047,1.888-3.5,2.322m2.235-5.869c.05.283-.031.821.483.652.317-.1,1.064-.239.879-.618-.174-.358.28-1.226-.667-1.128-.67.069-.688.556-.7,1.095m5.317-.779c-.283.349-.537.629-.754.935-.366.517.114,1.287.521.921a1.33,1.33,0,0,0,.233-1.856" transform="translate(-245.639 -35.523)" fill="#b1b8cf"/>
    <path id="Path_8426" data-name="Path 8426" d="M408.564,90.751a6.763,6.763,0,0,1,2.486-.21c.66,0,.864-.164.652-.865a4.82,4.82,0,0,1-.461-2.323c.4.381.687.678,1,.946,1.167,1,1.8.84,2.259-.557.188-.569.406-1.127.629-1.74a2.346,2.346,0,0,1,1.018,1.8c.305,1.225.923,1,1.617.477a3.883,3.883,0,0,1,1.652-.96,3.7,3.7,0,0,1-.393,1.892c-.326.812-.107,1.243.844,1.3.706.043,1.778-.4,2.017.352.173.546-.922.957-1.5,1.311-.946.576-.893,1.013-.021,1.549.3.185.585.4.867.615.178.136.365.318.225.549a.506.506,0,0,1-.434.192c-.766-.2-1.685.065-2.248-.791a1.654,1.654,0,0,0-1.372-.679c-.069,0-.229.227-.206.263.289.474.53,1.228.927,1.326.561.138.6.374.625.78.023.464-.3.593-.671.665a2.523,2.523,0,0,0-2.259,2.179c-.039.232-.1.566-.446.558-.318-.007-.405-.321-.514-.545-.172-.357-.276-.746-.432-1.113-.4-.94-.9-1.024-1.639-.28-.093.094-.141.246-.247.309-.35.209-.572.944-1.025.588-.483-.378-.009-.868.269-1.259.658-.926.321-1.651-.828-1.771a5.418,5.418,0,0,1-.662-.037c-.326-.076-.778-.017-.878-.443s.291-.609.559-.828c1.345-1.1,1.341-1.09-.182-2.092a3.069,3.069,0,0,1-1.221-1.161m4.1,1.344c-.021-.334-.117-.569-.478-.5a.66.66,0,0,0-.58.76c.02.306.056.724.463.645.432-.084.5-.558.595-.9" transform="translate(-299.59 -63.063)" fill="#b1b8cf"/>
    <path id="Path_8427" data-name="Path 8427" d="M321.2,25.189c-.556.293-1.14.257-1.122.863.005.172.224.38.4.5.511.34.846-.041,1.123-.376,1.062-1.281,1.974.047,2.628.383a46.814,46.814,0,0,1,9.118,5.843c.513.437,1.408.809.747,1.661a1.329,1.329,0,0,1-2.182.042c-2.733-2.684-6.182-4.344-9.487-6.052a41.092,41.092,0,0,0-9.605-3.353,53.11,53.11,0,0,0-14.063-1.5c-.795.031-1.584.182-2.379.244-.457.036-.938.224-1.291-.342-.976-1.565-.954-1.454.891-1.785,5.21-.934,10.317-.063,15.442.672a1.355,1.355,0,0,1,1.06.672c.556.876,1.061,1.612,2.45,1.094a6.173,6.173,0,0,1,2.058-.16c.443.033.8.159.778.693-.036.858.569.982,1.008.589.944-.843,1.51-.052,2.428.315" transform="translate(-215.908 -15.332)" fill="#b1b8cf"/>
    <path id="Path_8428" data-name="Path 8428" d="M252.24,48.917c.637.335.607.968.677,1.505s.2,1,.71,1.17a1.268,1.268,0,0,0,1.289-.506c.3-.308.58-.879,1.04-.626.537.295.175.869.041,1.3-.438,1.413-.415,1.456,1.106,1.481.222,0,.444,0,.665.011.266.016.552.035.672.324s-.085.491-.288.665c-.1.086-.216.156-.317.242-1.473,1.264-1.491,1.288.106,2.5.625.474.554.726-.126.948a2,2,0,0,1-.775.153c-1.182-.12-1.57.3-1.062,1.428a.651.651,0,0,1-.13.85.733.733,0,0,1-.984-.006,1.534,1.534,0,0,0-2.025-.149c-.628.345-1.211.681-1.734-.278-.282-.517-.655.139-.988.254-.66.228-.99,1.027-1.828,1.095-.206-.834.262-1.5.442-2.2s-.027-.868-.656-.922c-.691-.06-1.376-.2-2.212-.325a3.737,3.737,0,0,1,1.47-1.42c.588-.352.672-.671.226-1.262-.891-1.18-.723-1.606.684-1.915.522-.114.7-.278.456-.795a3.575,3.575,0,0,1-.2-.769c-.1-.455-.543-.885-.19-1.369.146-.2.425-.054.587.1.484.448,1.427.5,1.323,1.46-.063.583-.176,1.414.623,1.2.426-.114,1.322-.8,1.005-1.691a2.168,2.168,0,0,1,.393-2.454" transform="translate(-180.284 -35.87)" fill="#b1b8cf"/>
    <path id="Path_8429" data-name="Path 8429" d="M369.675,154.387a34.064,34.064,0,0,1-4.374.128c-.555.015-.815-.164-.666-.794a1.447,1.447,0,0,0-.092-1.031c-1.044-1.528.155-1.257.985-1.263,1.948-.015,3.9-.025,5.844-.008.456,0,1.047-.128,1.22.519a2.255,2.255,0,0,1-.717,2.14.782.782,0,0,1-1.144.171c-.388-.2-.794-.541-1.062.144l.008-.006" transform="translate(-267.012 -111.025)" fill="#b1b8cf"/>
    <path id="Path_8430" data-name="Path 8430" d="M448.636,74.309a5.173,5.173,0,0,1,.568.441A49.661,49.661,0,0,1,455.6,82.3c.206.31.66.608.236,1.009s-.712.1-1.2-.137c-3.041-1.468-4.219-4.759-6.754-6.7-.661-.507-.014-1.135.138-1.693a.538.538,0,0,1,.615-.473" transform="translate(-328.208 -54.487)" fill="#b1b8cf"/>
    <path id="Path_8431" data-name="Path 8431" d="M402.556,154.155c-.575,0-1.15-.008-1.725,0-.493.009-.879-.083-.884-.7a.759.759,0,0,0-.569-.8c-1.3-.392-.486-1.019-.061-1.379.779-.66,4.335-.181,5.087.543.617.594-.049,1.482.535,2.107.069.074-.591.194-.924.212-.485.025-.972.006-1.459.006Z" transform="translate(-292.336 -110.702)" fill="#b1b8cf"/>
    <path id="Path_8432" data-name="Path 8432" d="M40.663,152.524c1.276-.029,2.561.023,3.826-.114.913-.1,1.315.546,1.665,1.046.395.564-.191.909-.728,1-.234.041-.5-.14-.758-.188-.367-.069-.821-.4-1.087.021-.282.449.466.554.5,1.043-.778.316-2.264.3-2.264.072,0-1.17-2.3-1.4-1.138-2.894l-.015.012" transform="translate(-29.589 -111.751)" fill="#b1b8cf"/>
    <path id="Path_8433" data-name="Path 8433" d="M257.379,95.38a.778.778,0,0,1-.894-.739c-.066-.545,1.16-1.8,1.727-1.81.892-.018,1,.765,1.016,1.289.04,1.236-1.167.9-1.849,1.26" transform="translate(-188.072 -68.07)" fill="#b1b8cf"/>
    <path id="Path_8434" data-name="Path 8434" d="M354.361,154.473c-.4.1-.447.119-.49.12-.6.012-1.487.376-1.708-.169a3.831,3.831,0,0,1,.2-2.13.942.942,0,0,1,1.154-.656c.647.132.378.691.379,1.089,0,.587-.642,1.232.461,1.746" transform="translate(-258.163 -111.175)" fill="#b1b8cf"/>
    <path id="Path_8435" data-name="Path 8435" d="M399.986,139.335c-.479-.313-.962.506-1.353-.107-.054-.084-.035-.322.019-.349a1.964,1.964,0,0,1,1.479-.365c.333.1.814.038.991.249.423.5,1.389,1.044.9,1.694a1.934,1.934,0,0,1-2.343.182c-.83-.441.227-.795.307-1.3" transform="translate(-292.284 -101.534)" fill="#b1b8cf"/>
    <path id="Path_8436" data-name="Path 8436" d="M391.31,139.914a.583.583,0,0,1-.321.54.608.608,0,0,1-.745-.049,20.926,20.926,0,0,1-1.645-2.012c-.241-.352-.189-.814.428-.811a7.394,7.394,0,0,1,2.283,2.332" transform="translate(-284.853 -100.886)" fill="#b1b8cf"/>
    <path id="Path_8437" data-name="Path 8437" d="M247.894,112.666a6.025,6.025,0,0,1-1.142,0,.581.581,0,0,1-.485-.677c.035-.317.257-.528.521-.452.659.191,1.184-.8,1.638-.373.663.618-.8.814-.519,1.491l-.013.014" transform="translate(-180.578 -81.433)" fill="#b1b8cf"/>
    <path id="Path_8438" data-name="Path 8438" d="M380.178,65.859c-.382.049-.5-.149-.508-.454-.013-.418.157-.684.61-.645.281.024.737-.051.691.372a.922.922,0,0,1-.794.727" transform="translate(-278.403 -47.484)" fill="#b1b8cf"/>
    <path id="Path_8439" data-name="Path 8439" d="M220.711,125.027a.951.951,0,0,1,1.333-.1.37.37,0,0,1,0,.347c-.5.3-.875-.184-1.328-.246" transform="translate(-161.842 -91.438)" fill="#b1b8cf"/>
    <path id="Path_8440" data-name="Path 8440" d="M241.47,120.2c-.172-.026-.342-.061-.515-.076-.328-.029-.634-.1-.571-.52a.578.578,0,0,1,.291-.391c.434-.172.47.253.616.485a2.989,2.989,0,0,1,.2.48l-.021.022" transform="translate(-176.261 -87.39)" fill="#b1b8cf"/>
    <path id="Path_8441" data-name="Path 8441" d="M258.805,106.475c-.049.188-.126.324-.276.25a.408.408,0,0,1-.152-.311c0-.135.1-.274.254-.2.09.042.13.191.174.262" transform="translate(-189.462 -77.869)" fill="#b1b8cf"/>
    <path id="Path_8442" data-name="Path 8442" d="M65.118,154.191c-.031.071-.047.182-.1.2s-.137-.051-.208-.082c.031-.071.047-.182.1-.2s.138.051.209.082" transform="translate(-47.524 -113.001)" fill="#b1b8cf"/>
    <path id="Path_8443" data-name="Path 8443" d="M374.172,94.124,374,94.029c.03-.03.066-.088.087-.083a.841.841,0,0,1,.179.083l-.095.095" transform="translate(-274.245 -68.888)" fill="#b1b8cf"/>
    <path id="Path_8444" data-name="Path 8444" d="M282.744,2.987c.223-.17.489-.3.617.044.06.16-.2.248-.385.243l-.233-.287" transform="translate(-207.329 -2.065)" fill="#b1b8cf"/>
    <path id="Path_8445" data-name="Path 8445" d="M475.638,70.995c-.461-.359-1-.429-1.134-.976-.013-.051.308-.284.4-.248.47.19.9.447.735,1.224" transform="translate(-347.942 -51.159)" fill="#b1b8cf"/>
    <path id="Path_8446" data-name="Path 8446" d="M470.712,71.557a.278.278,0,0,1-.385.232.3.3,0,0,1-.2-.42.38.38,0,0,1,.3-.164.286.286,0,0,1,.285.352" transform="translate(-344.712 -52.213)" fill="#b1b8cf"/>
    <path id="Path_8447" data-name="Path 8447" d="M113.418,185.314a24.79,24.79,0,0,0,0-4.27c.446-1.543-.856-1.22-1.6-1.5l-.035-.1c.041-1.845.042-1.8,1.94-1.861a27.256,27.256,0,0,0,4.451-.033.117.117,0,0,0,.175.057c-.132.7.661,1.79-.523,2.018-1.147.221-1.157.854-1.109,1.7.045.794.064,1.589.095,2.384a1.686,1.686,0,0,0,0,1.062,8.169,8.169,0,0,0,0,2.674c-.267,2.015.135,4.055-.218,6.067l-.545.065-.533,0a3.667,3.667,0,0,0-1.6,0l-.532-.273c-1.569-2.611-2.993-5.311-4.746-7.81l-.3-.454-.206-.347.018,0a3.371,3.371,0,0,0-.825-1.374,1.53,1.53,0,0,0-.174,1.449,11.612,11.612,0,0,0,0,2.937,3.6,3.6,0,0,0,.009,1.6.865.865,0,0,0,.01.795c-.123.481-.24,1.114.4,1.15,1.533.087,1.19,1.165,1.242,2.064l-.205.186a2.176,2.176,0,0,0-1.36.033l-.461-.074a.824.824,0,0,0-.532-1.039c-.248-.115-.4.041-.55.2-.394.436.29.521.273.835l-.279.022c-.841-.84-2.146.377-2.941-.664l-.176.458-.31.158-.124-.66c.046-.4.369-.779.077-1.2l.846-.3.024.021c.459.024.838-.037.7-.653q.024-5.2.047-10.39c.08-.239-.059-.318-.258-.352l.018.015c-.341-.583-.928-.094-1.352-.311l.055.049a6.3,6.3,0,0,1-.05-2.024l-.015.015a33.49,33.49,0,0,0,3.564-.035,1.8,1.8,0,0,1,1.975,1.118c1.294,2.217,2.671,4.385,4.016,6.573l0,.008c.358.9,1.216,2.5,1.622,2.5S113.418,185.314,113.418,185.314Z" transform="translate(-74.902 -130.198)" fill="#173a8d"/>
    <path id="Path_8448" data-name="Path 8448" d="M425.524,185.837a.585.585,0,0,0-.312-.543l-1.189-2.122a49.5,49.5,0,0,0-.276,7.554c.031.913.748,1.033,1.521.71l.282.787q0,.4.009.79l-.063.368-6.37.153-.288-.255q0-.795.007-1.589l.285-.27a1.228,1.228,0,0,0,.9-.231c.655.03.54-.483.541-.839.009-3.2-.014-6.392,0-9.588,0-.649-.22-1.014-.888-1.051-1.065-.059-.788-.861-.8-1.482-.02-.77.562-.64,1.036-.656,3.769-.133,3.77-.133,5.749,3.149q2.087,3.463,4.168,6.929l.42-.039c0-1.68,0-3.36,0-5.04,0-.532-.05-1.065-.029-1.6.029-.7-.109-1.221-.957-1.273-1.065-.065-.76-.892-.769-1.505-.012-.793.592-.594,1.055-.6,1.509-.011,3.017-.029,4.526-.022.448,0,1.071-.19,1.035.62-.025.571.289,1.373-.673,1.453-.924.076-1,.6-1,1.351q.037,5.514,0,11.028c0,.535.255,1.189-.453,1.533l-2.674-.042-.1-.022-3.093-5-.314-.555-.177-.312.018.027a.508.508,0,0,0-.319-.509l-.15-.262a2.185,2.185,0,0,0-.654-1.057" transform="translate(-307.124 -130.18)" fill="#173a8d"/>
    <path id="Path_8449" data-name="Path 8449" d="M255.528,193.5c-2.643-.022-5.287-.04-7.931-.073-.368,0-.8.127-1.053-.3.707-.417-1.19-1.789.67-1.8.584,0,.656-.46.654-.952-.016-3.2-.017-6.392-.025-9.588,0-.445.057-.938-.622-.934-1.408-.084-.928-1.214-1.1-1.983l.066-.054-.026-.082c2.736-.478,5.494.392,8.229-.128l.42.029c.464.133.933.248,1.389.4a3.86,3.86,0,0,1,2.965,3.5,3.726,3.726,0,0,1-1.971,3.693,3.7,3.7,0,0,1,2.509,3.1,7.48,7.48,0,0,1-.4,2.861l-.381.557a1.934,1.934,0,0,0-.818.766l-.3.191-.107-.006-.045.1a.709.709,0,0,0-.6.269c-.611-.218-1.049.176-1.527.43m-2.109-7.013c-2.564.073-2.664.189-2.424,2.794a2.845,2.845,0,0,1,.045.4c-.06,1.129.1,1.893,1.577,1.386a6.179,6.179,0,0,1,2.115-.1c1.211.034,1.63-.736,1.766-1.729.274-2-.654-2.812-3.078-2.742m-2.349-4.253c.224.744-.724,2.184,1.364,2.063,2.55-.147,3.474-.534,3.515-2.024.042-1.519-.906-2.157-3.233-2.176-1.628-.013-1.628-.013-1.646,2.136" transform="translate(-180.475 -130.221)" fill="#173a8d"/>
    <path id="Path_8450" data-name="Path 8450" d="M303.246,193.7a.887.887,0,0,0-.8,0l-1.091-.082-.164-.194q-.008-.806-.015-1.612l.2-.229c1.266.086,1.619-.527,1.579-1.744-.085-2.55-.12-5.11.011-7.656.075-1.462-.166-2.452-1.79-2.641q-.028-.381-.055-.762c.072-.663.213-1.062,1.108-1.048,2.7.043,5.4-.069,8.091.14l.038-.022.819.24-.027-.029.349.162.445.223a4.837,4.837,0,0,1,2.2,3.882c.06,1.262-.753,2-1.327,2.908-.18.287-.87.657-.2,1.061,1.314.8,1.492,2.111,1.715,3.426,0,.083,0,.167,0,.251-.152.587-.158,1.206.449,1.476,1.272.565.776,1.381.418,2.209l.017-.009-1.585.04a1.521,1.521,0,0,0-1.062-.226l-.238-.077.011.01-1.2-1.4,0-.078q-.074-1.242-.148-2.485a1.889,1.889,0,0,0-1.626-2.046,1.329,1.329,0,0,0-1.06-.087c-2.277-.261-2.277-.261-2.1,1.868q0,.266,0,.533c.094.573-.563,1.37.493,1.657l.507.111c1.061.519.463,1.42.5,2.174l.039-.02-2.9.08a1.584,1.584,0,0,0-1.062-.016l-.538.011m2.89-11.156c.026,2.18.026,2.18,1.762,2.163,2.215-.021,3.059-.636,3.041-2.216-.018-1.6-1.045-2.306-3.33-2.274-1.5.021-1.5.021-1.472,2.327" transform="translate(-220.809 -130.333)" fill="#173a8d"/>
    <path id="Path_8451" data-name="Path 8451" d="M487.619,177.668c1.109,0,2.221-.044,3.328.008a6.348,6.348,0,0,1,6.23,5.936c.08.837.035,1.685.066,2.527.186,4.926-2.76,7.2-7.332,7.421-1.9.091-3.8,0-5.7.008-.432,0-.87.017-.8-.567.064-.539-.41-1.43.575-1.489,1.205-.072,1.11-.775,1.1-1.62-.03-2.881-.013-5.762.006-8.643,0-.75.017-1.405-1.013-1.484-.971-.074-.617-.9-.676-1.457-.077-.723.464-.585.892-.585h3.326v-.055m.67,7.978h-.019q0,1.063,0,2.126a14.8,14.8,0,0,1-.015,2.248c-.19,1.235.82,1.171,1.471,1.376.184.058.658-.305,1.06-.367a3.349,3.349,0,0,0,3.108-3.236,28.292,28.292,0,0,0,.075-3.185c-.035-3.3-1.41-4.572-4.691-4.472-.732.022-1.027.229-1,.994.046,1.5.014,3.011.014,4.517" transform="translate(-354.428 -130.267)" fill="#173a8d"/>
    <path id="Path_8452" data-name="Path 8452" d="M172.807,176.81l2.1-.147.263.034a.539.539,0,0,0,.627.021,10.438,10.438,0,0,1,3.889,2.38,9.7,9.7,0,0,1,1.278,9.344c-1.549,4.42-6.893,6.114-11.107,3.134a14.223,14.223,0,0,1-2.345-3.515h.014l-.233-1.053-.137-.758a15.452,15.452,0,0,1,.892-5.8h-.005c1.266-1.633,2.591-3.19,4.76-3.643m-2.4,7.579a8.085,8.085,0,0,0,.687,4.059,3.2,3.2,0,0,0,2.949,2.095c1.522,0,2.83-.393,3.514-1.873a8.392,8.392,0,0,0-.092-7.673,3.222,3.222,0,0,0-3.323-1.745,3.347,3.347,0,0,0-3.093,2.093,8.714,8.714,0,0,0-.642,3.045" transform="translate(-122.574 -129.543)" fill="#173a8d"/>
    <path id="Path_8453" data-name="Path 8453" d="M368.3,189.18a.411.411,0,0,0-.524-.113,3.632,3.632,0,0,0-1.608.019,1.466,1.466,0,0,0-1.062,0l-.536-.014-.528.022c-1.336-.234-.97.968-1.236,1.559-.248.549.294.586.7.588l.229.235q0,.813,0,1.625l-.225.216-.273.051-.8,0-4.2-.141.049.031c.088-.807-.41-1.589.856-2.26.889-.472,1.335-2.008,1.7-3.205,0-.013-.067-.049-.1-.074.01-.144.021-.288.03-.433a6.262,6.262,0,0,0,.858-2.726l.284-1.062A9.265,9.265,0,0,0,363,180.572l.054-.055-.035-.069.167-.405.191-.492.3-.784a3.028,3.028,0,0,1,3.547-1.344c.4.159.445.521.539.846.532,1.841,1.315,3.591,1.73,5.486a21.712,21.712,0,0,0,1.732,4.359c.312.671.134,1.528.8,2.046l.116.367-.009.027c.055.607.455.7.956.643l.368.321q0,.773,0,1.547l-.355.272a.663.663,0,0,0-.811.006c-.26-.055-.514-.2-.788-.05l-.277.053a3.937,3.937,0,0,0-1.859.014l-.536,0-.745-.1c-.047-.64-.424-1.557.123-1.856,1.452-.8.473-1.477.089-2.223m-3.719-8.541c1.367.053,1.241.792.871,1.586-.4.868-.555,1.81-1.04,2.675-.687,1.227-.212,1.952,1.061,2.046,1.675.123,2.124-.434,1.6-2-.417-1.25-1.179-2.493-1.189-3.743-.012-1.44-.6-.8-1.305-.561" transform="translate(-262.69 -129.984)" fill="#173a8d"/>
    <path id="Path_8454" data-name="Path 8454" d="M438.665,206.943c-.772.323-1.49.2-1.521-.71a49.531,49.531,0,0,1,.276-7.553l1.189,2.122c-1.12-.539-1.387-.125-1.3,1.013a41.573,41.573,0,0,1,.035,4.182c-.025,1.028,1.06.386,1.32.946" transform="translate(-320.522 -145.687)" fill="#b1b8cf"/>
    <path id="Path_8455" data-name="Path 8455" d="M143.016,174.309a27.226,27.226,0,0,1-4.451.032c-1.9.066-1.9.017-1.94,1.862-.918-.727-.571-1.664-.336-2.522.061-.223.586-1.115.906-.016a.528.528,0,0,0,.608.391c1.385-.112,2.81.326,4.158-.265.591-.26.715.326,1.055.518" transform="translate(-99.743 -126.95)" fill="#b1b8cf"/>
    <path id="Path_8456" data-name="Path 8456" d="M393.042,221.94c.385.747,1.362,1.428-.089,2.223-.547.3-.17,1.216-.123,1.856-.151.25-.383.426-.639.238a.529.529,0,0,1-.048-.811c.365-.418.48-.788.062-1.25-.346-.382.074-.634.257-.886.3-.418.707-.777.58-1.371" transform="translate(-287.428 -162.743)" fill="#b1b8cf"/>
    <path id="Path_8457" data-name="Path 8457" d="M362.042,197.3c0-.81,0-1.621,0-2.431a.663.663,0,0,1,.652-.709c.566-.014.377.488.4.8.052.858-.757,1.466-.593,2.365l-.456-.023" transform="translate(-265.476 -142.372)" fill="#b1b8cf"/>
    <path id="Path_8458" data-name="Path 8458" d="M167.275,190.808a15.446,15.446,0,0,0-.892,5.8c-.559-1.753-.089-3.554-.244-5.325.462.043.626-.631,1.136-.472" transform="translate(-121.797 -139.897)" fill="#b1b8cf"/>
    <path id="Path_8459" data-name="Path 8459" d="M367.315,203.605a6.264,6.264,0,0,1-.858,2.726c-.707-.963-.114-2.058-.465-3.1.588-.009.855.52,1.323.369" transform="translate(-268.373 -149.028)" fill="#b1b8cf"/>
    <path id="Path_8460" data-name="Path 8460" d="M139.944,206.616v2.5a7.1,7.1,0,0,1-1.622-2.5l1.622.009" transform="translate(-101.428 -151.5)" fill="#b1b8cf"/>
    <path id="Path_8461" data-name="Path 8461" d="M368.335,182.014c-.575-1.257.5-2.058.523-3.051a.816.816,0,0,1,.478-.076c.313.08.19.271.1.494a10.336,10.336,0,0,1-1.1,2.633" transform="translate(-269.968 -131.167)" fill="#b1b8cf"/>
    <path id="Path_8462" data-name="Path 8462" d="M375.9,223.681c-.408,0-.95-.039-.7-.588.266-.591-.1-1.793,1.236-1.559.1.784-.648,1.359-.534,2.148" transform="translate(-275.079 -162.423)" fill="#b1b8cf"/>
    <path id="Path_8463" data-name="Path 8463" d="M419.918,237.105l6.37-.153c-.069.106-.134.3-.209.305a18.859,18.859,0,0,1-6.161-.152" transform="translate(-307.916 -173.751)" fill="#b1b8cf"/>
    <path id="Path_8464" data-name="Path 8464" d="M320,215.149c-.176-2.129-.176-2.129,2.1-1.868-1.309-.062-1.5,1.137-2.1,1.868" transform="translate(-234.599 -156.307)" fill="#b1b8cf"/>
    <path id="Path_8465" data-name="Path 8465" d="M154.941,171.022a2.634,2.634,0,0,1,2.38-.065,3.37,3.37,0,0,1-2.38.065" transform="translate(-113.615 -125.179)" fill="#b1b8cf"/>
    <path id="Path_8466" data-name="Path 8466" d="M53.1,169.586c.051.333-.161.394-.382.407-.393.023-.822.04-.965-.432a.391.391,0,0,1,.41-.519,1.09,1.09,0,0,1,.938.544" transform="translate(-37.937 -123.954)" fill="#b1b8cf"/>
    <path id="Path_8467" data-name="Path 8467" d="M349.423,173.365a.62.62,0,0,1-.681.471c-.286,0-.531-.1-.5-.436a.569.569,0,0,1,.714-.55.49.49,0,0,1,.463.515" transform="translate(-255.358 -126.74)" fill="#b1b8cf"/>
    <path id="Path_8468" data-name="Path 8468" d="M294.958,168.957c.029.393-.214.464-.492.477-.351.017-.728.025-.877-.379-.107-.29.141-.388.36-.385.361.005.794-.164,1.008.287" transform="translate(-215.264 -123.662)" fill="#b1b8cf"/>
    <path id="Path_8469" data-name="Path 8469" d="M22.505,171.044c-.573.322-1.227-.016-1.96.613.6-1.151.985-1.214,1.96-.613" transform="translate(-15.065 -125.148)" fill="#b1b8cf"/>
    <path id="Path_8470" data-name="Path 8470" d="M369.5,173.2a1.007,1.007,0,0,1,1.512-.438c.269.151.393.749-.15.68-.382-.049-.762-.385-1.362-.241" transform="translate(-270.945 -126.546)" fill="#b1b8cf"/>
    <path id="Path_8471" data-name="Path 8471" d="M358.242,237.118l4.2.141a5.759,5.759,0,0,1-4.2-.141" transform="translate(-262.69 -173.873)" fill="#b1b8cf"/>
    <path id="Path_8472" data-name="Path 8472" d="M65.49,171.333a.444.444,0,0,1-.521.445c-.4-.016-.515-.27-.467-.616.046-.325.294-.406.576-.376.318.034.427.251.412.547" transform="translate(-47.291 -125.229)" fill="#b1b8cf"/>
    <path id="Path_8473" data-name="Path 8473" d="M100.8,177.816a6.3,6.3,0,0,0,.05,2.024c-.891-.707-.909-1.409-.05-2.024" transform="translate(-73.452 -130.388)" fill="#b1b8cf"/>
    <path id="Path_8474" data-name="Path 8474" d="M338.182,231.209l1.2,1.4c-1.141.165-1.7-.163-1.2-1.4" transform="translate(-247.843 -169.54)" fill="#b1b8cf"/>
    <path id="Path_8475" data-name="Path 8475" d="M138.406,185.019c.74.277,2.043-.046,1.6,1.5l-1.6-1.5" transform="translate(-101.49 -135.67)" fill="#b1b8cf"/>
    <path id="Path_8476" data-name="Path 8476" d="M161.044,231.693c.361-.01.57.151.563.525,0,.167-.023.37-.24.385-.352.024-.537-.233-.65-.508s.1-.361.327-.4" transform="translate(-117.827 -169.895)" fill="#b1b8cf"/>
    <path id="Path_8477" data-name="Path 8477" d="M295.642,177.022c-.039.2.017.523-.283.49a.7.7,0,0,1-.6-.6c-.033-.3.288-.244.491-.284.332-.065.462.061.393.395" transform="translate(-216.137 -129.505)" fill="#b1b8cf"/>
    <path id="Path_8478" data-name="Path 8478" d="M320.358,224.264c-1.056-.288-.4-1.084-.493-1.657.916.329.329,1.1.493,1.657" transform="translate(-234.464 -163.232)" fill="#b1b8cf"/>
    <path id="Path_8479" data-name="Path 8479" d="M253.515,169.084c-.01.353-.169.47-.41.484-.22.012-.465-.009-.466-.3,0-.237.19-.367.416-.415a.4.4,0,0,1,.459.228" transform="translate(-185.254 -123.81)" fill="#b1b8cf"/>
    <path id="Path_8480" data-name="Path 8480" d="M315.07,237.392l2.9-.08a3.058,3.058,0,0,1-2.9.08" transform="translate(-231.033 -174.015)" fill="#b1b8cf"/>
    <path id="Path_8481" data-name="Path 8481" d="M135.588,234.358c-.056.275-.278.284-.49.272-.173-.01-.36-.076-.344-.289a.387.387,0,0,1,.417-.386c.246,0,.372.164.417.4" transform="translate(-98.811 -171.554)" fill="#b1b8cf"/>
    <path id="Path_8482" data-name="Path 8482" d="M461.854,237.483l2.674.042a2.928,2.928,0,0,1-2.674-.042" transform="translate(-338.667 -174.141)" fill="#b1b8cf"/>
    <path id="Path_8483" data-name="Path 8483" d="M276.276,173.025c.447-.446.785-.294,1.279-.152a.882.882,0,0,1-1.279.152" transform="translate(-202.587 -126.658)" fill="#b1b8cf"/>
    <path id="Path_8484" data-name="Path 8484" d="M281.388,235.905c.478-.254.916-.648,1.527-.43a1.437,1.437,0,0,1-1.527.43" transform="translate(-206.335 -172.622)" fill="#b1b8cf"/>
    <path id="Path_8485" data-name="Path 8485" d="M387.974,221.31a3.641,3.641,0,0,1,1.608-.019c-.534.178-1.059,1.1-1.608.019" transform="translate(-284.492 -162.208)" fill="#b1b8cf"/>
    <path id="Path_8486" data-name="Path 8486" d="M166.529,215.451l.233,1.053c-.878-.174-.77-.566-.233-1.053" transform="translate(-121.807 -157.985)" fill="#b1b8cf"/>
    <path id="Path_8487" data-name="Path 8487" d="M163.647,191.274c-.322-.091-.728.151-.968-.359.479-.248.811-.254.968.359" transform="translate(-119.289 -139.878)" fill="#b1b8cf"/>
    <path id="Path_8488" data-name="Path 8488" d="M174.107,236.577c.357.028.718-.07,1.048.3-.558.356-.857.258-1.048-.3" transform="translate(-127.669 -173.476)" fill="#b1b8cf"/>
    <path id="Path_8489" data-name="Path 8489" d="M246.81,172.014c-.657-.309-.651-.611-.321-1.059.386.3.224.678.321,1.059" transform="translate(-180.584 -125.357)" fill="#b1b8cf"/>
    <path id="Path_8490" data-name="Path 8490" d="M90.924,170.669v1.066a.5.5,0,0,1-.511-.6c.021-.321.231-.432.511-.468" transform="translate(-66.296 -125.148)" fill="#b1b8cf"/>
    <path id="Path_8491" data-name="Path 8491" d="M149.63,172.892c.026.326-.171.366-.327.354s-.368-.09-.4-.193c-.081-.233.156-.271.314-.271a1.545,1.545,0,0,1,.416.11" transform="translate(-109.173 -126.697)" fill="#b1b8cf"/>
    <path id="Path_8492" data-name="Path 8492" d="M117.618,168.95c.017.25-.178.257-.341.278s-.368-.01-.409-.2c-.053-.246.17-.256.332-.276a.36.36,0,0,1,.418.2" transform="translate(-85.691 -123.735)" fill="#b1b8cf"/>
    <path id="Path_8493" data-name="Path 8493" d="M37.789,173.012c-.031.217-.208.231-.377.23s-.372-.009-.371-.24.2-.24.372-.239.351,0,.376.249" transform="translate(-27.161 -126.683)" fill="#b1b8cf"/>
    <path id="Path_8494" data-name="Path 8494" d="M239.531,185.137a1.565,1.565,0,0,1-.42.11c-.159,0-.4-.038-.316-.273.036-.1.262-.181.408-.192s.356.026.329.356" transform="translate(-175.09 -135.495)" fill="#b1b8cf"/>
    <path id="Path_8495" data-name="Path 8495" d="M443.906,208.668a2.185,2.185,0,0,1,.654,1.057c-.8.01-.627-.586-.654-1.057" transform="translate(-325.506 -153.011)" fill="#b1b8cf"/>
    <path id="Path_8496" data-name="Path 8496" d="M106.3,226.608c.139.616-.24.678-.7.653-.154-.632.268-.647.7-.653" transform="translate(-77.413 -166.166)" fill="#b1b8cf"/>
    <path id="Path_8497" data-name="Path 8497" d="M348.018,237.461l1.585-.04a1.114,1.114,0,0,1-1.585.04" transform="translate(-255.193 -174.095)" fill="#b1b8cf"/>
    <path id="Path_8498" data-name="Path 8498" d="M376.882,182.86l-.3.784c-.205-.1-.384-.244-.327-.5.078-.344.363-.309.627-.288" transform="translate(-275.891 -134.078)" fill="#b1b8cf"/>
    <path id="Path_8499" data-name="Path 8499" d="M300.373,230.526q.008.806.016,1.612l-.344.007,0,0c.095-.542-.245-1.173.331-1.616" transform="translate(-220.003 -169.039)" fill="#b1b8cf"/>
    <path id="Path_8500" data-name="Path 8500" d="M72.779,172.784c-.1-.16-.216-.261-.209-.353s.135-.179.21-.268c.075.089.2.175.209.269s-.109.193-.21.353" transform="translate(-53.214 -126.243)" fill="#b1b8cf"/>
    <path id="Path_8501" data-name="Path 8501" d="M378.862,232.173q0-.813,0-1.625a1.14,1.14,0,0,1,0,1.625" transform="translate(-277.811 -169.055)" fill="#b1b8cf"/>
    <path id="Path_8502" data-name="Path 8502" d="M415.31,232.24q0-.773,0-1.547a1.594,1.594,0,0,1,0,1.547" transform="translate(-304.537 -169.162)" fill="#b1b8cf"/>
    <path id="Path_8503" data-name="Path 8503" d="M418.1,230.611q0,.795-.007,1.59a1.283,1.283,0,0,1,.007-1.59" transform="translate(-306.376 -169.102)" fill="#b1b8cf"/>
    <path id="Path_8504" data-name="Path 8504" d="M240.159,172.908c.062-.244-.125-.68.325-.636.267.026.185.4.208.635h-.533" transform="translate(-176.103 -126.321)" fill="#b1b8cf"/>
    <path id="Path_8505" data-name="Path 8505" d="M26.82,244.716c-.088-.178-.191-.29-.177-.384s.149-.164.23-.245c.065.1.178.2.179.294s-.12.183-.232.335" transform="translate(-19.536 -178.983)" fill="#b1b8cf"/>
    <path id="Path_8506" data-name="Path 8506" d="M146.268,237.375a3.671,3.671,0,0,1,1.6,0,1.237,1.237,0,0,1-1.6,0" transform="translate(-107.255 -173.998)" fill="#b1b8cf"/>
    <path id="Path_8507" data-name="Path 8507" d="M169.378,237.053c-.178.088-.29.191-.384.177s-.164-.149-.245-.23c.1-.065.2-.178.294-.179s.183.12.335.232" transform="translate(-123.74 -173.655)" fill="#b1b8cf"/>
    <path id="Path_8508" data-name="Path 8508" d="M330.445,228.525l.272-.178.152.468c.045.139.006.163-.132.119-.18-.058-.324-.13-.292-.409" transform="translate(-242.304 -167.441)" fill="#b1b8cf"/>
    <path id="Path_8509" data-name="Path 8509" d="M411.31,227.722c-.5.058-.9-.036-.956-.643.479-.025.639.425.956.643" transform="translate(-300.903 -166.511)" fill="#b1b8cf"/>
    <path id="Path_8510" data-name="Path 8510" d="M291.056,231.459a1.936,1.936,0,0,1,.818-.766.747.747,0,0,1-.818.766" transform="translate(-213.424 -169.162)" fill="#b1b8cf"/>
    <path id="Path_8511" data-name="Path 8511" d="M102.517,185.22c.425.217,1.012-.272,1.352.311-.474,0-1.028.346-1.352-.311" transform="translate(-75.173 -135.817)" fill="#b1b8cf"/>
    <path id="Path_8512" data-name="Path 8512" d="M121.265,237.127a2.175,2.175,0,0,1,1.36-.033.841.841,0,0,1-1.36.033" transform="translate(-88.921 -173.787)" fill="#b1b8cf"/>
    <path id="Path_8513" data-name="Path 8513" d="M102.821,189.047c.072.032.183.048.2.1s-.051.138-.083.21c-.072-.031-.183-.047-.2-.1s.051-.139.083-.211" transform="translate(-75.333 -138.624)" fill="#b1b8cf"/>
    <path id="Path_8514" data-name="Path 8514" d="M299,236.589c-.027.169-.027.363-.25.393-.044.006-.152-.1-.146-.146.03-.223.225-.223.393-.25l0,0" transform="translate(-218.962 -173.483)" fill="#b1b8cf"/>
    <path id="Path_8515" data-name="Path 8515" d="M172.614,235.267l.185-.185a2.108,2.108,0,0,1,.227.274c.075.128.023.179-.109.109-.1-.055-.2-.128-.3-.2" transform="translate(-126.574 -172.38)" fill="#b1b8cf"/>
    <path id="Path_8516" data-name="Path 8516" d="M302,237.3l1.091.081c-.394.376-.76.385-1.091-.081" transform="translate(-221.447 -174.004)" fill="#b1b8cf"/>
    <path id="Path_8517" data-name="Path 8517" d="M92.729,174.848l-.185.185a2.129,2.129,0,0,1-.226-.274c-.075-.128-.023-.179.109-.109.1.055.2.128.3.2" transform="translate(-67.669 -128.044)" fill="#b1b8cf"/>
    <path id="Path_8518" data-name="Path 8518" d="M381.983,221.533l.537.014c-.071.138-.123.378-.216.4-.29.054-.281-.215-.321-.409" transform="translate(-280.099 -162.445)" fill="#b1b8cf"/>
    <path id="Path_8519" data-name="Path 8519" d="M238.953,174.951c.063-.037-.038.039-.151.078-.031.01-.1-.094-.152-.146a2.13,2.13,0,0,1,.274-.227c.128-.075.172-.026.029.294" transform="translate(-174.997 -128.049)" fill="#b1b8cf"/>
    <path id="Path_8520" data-name="Path 8520" d="M242.157,174.663c.169.027.363.026.394.249.006.043-.1.152-.146.145-.223-.031-.222-.225-.249-.394Z" transform="translate(-177.567 -128.076)" fill="#b1b8cf"/>
    <path id="Path_8521" data-name="Path 8521" d="M368.8,174.952c.062-.037-.038.039-.151.078-.03.01-.1-.094-.152-.146a2.107,2.107,0,0,1,.274-.227c.128-.075.172-.027.029.294" transform="translate(-270.209 -128.049)" fill="#b1b8cf"/>
    <path id="Path_8522" data-name="Path 8522" d="M138.279,199.549c.027-.168.026-.363.249-.394.044-.006.152.1.146.145-.031.223-.225.222-.394.249Z" transform="translate(-101.397 -146.036)" fill="#b1b8cf"/>
    <path id="Path_8523" data-name="Path 8523" d="M236.9,179.136l-.093.215c-.071-.031-.183-.046-.2-.1s.05-.139.081-.211l.214.093" transform="translate(-173.495 -131.288)" fill="#b1b8cf"/>
    <path id="Path_8524" data-name="Path 8524" d="M364.412,180.351c.032-.072.048-.182.1-.2s.138.051.209.083c-.031.071-.047.183-.1.2s-.139-.051-.21-.083" transform="translate(-267.215 -132.096)" fill="#b1b8cf"/>
    <path id="Path_8525" data-name="Path 8525" d="M444.011,233.4q0-.4-.009-.79a.455.455,0,0,1,.009.79" transform="translate(-325.576 -170.567)" fill="#b1b8cf"/>
    <path id="Path_8526" data-name="Path 8526" d="M420.833,228.659a1.228,1.228,0,0,1-.9.231c.235-.329.571-.262.9-.231" transform="translate(-307.928 -167.65)" fill="#b1b8cf"/>
    <path id="Path_8527" data-name="Path 8527" d="M103.28,228.775l-.846.3c.147-.474.489-.409.846-.3" transform="translate(-75.112 -167.701)" fill="#b1b8cf"/>
    <path id="Path_8528" data-name="Path 8528" d="M410.94,237.142a.663.663,0,0,1,.811-.006c-.268.357-.538.364-.811.006" transform="translate(-301.333 -173.786)" fill="#b1b8cf"/>
    <path id="Path_8529" data-name="Path 8529" d="M336.579,178.1l-.819-.24c.336-.135.666-.25.819.24" transform="translate(-246.205 -130.338)" fill="#b1b8cf"/>
    <path id="Path_8530" data-name="Path 8530" d="M343.142,236.435l.238.078-.174.292-.063-.369" transform="translate(-251.618 -173.372)" fill="#b1b8cf"/>
    <path id="Path_8531" data-name="Path 8531" d="M154.261,237.458l.545-.065c-.15.288-.328.343-.545.065" transform="translate(-113.116 -174.075)" fill="#b1b8cf"/>
    <path id="Path_8532" data-name="Path 8532" d="M309.07,237.561l.538-.011c-.174.274-.353.281-.538.011" transform="translate(-226.634 -174.19)" fill="#b1b8cf"/>
    <path id="Path_8533" data-name="Path 8533" d="M397.966,237.6h.536q-.267.4-.536,0" transform="translate(-291.819 -174.225)" fill="#b1b8cf"/>
    <path id="Path_8534" data-name="Path 8534" d="M446.922,213.613a.508.508,0,0,1,.319.509.464.464,0,0,1-.319-.509" transform="translate(-327.717 -156.637)" fill="#b1b8cf"/>
    <path id="Path_8535" data-name="Path 8535" d="M410.069,225.974l-.116-.367a.257.257,0,0,1,.116.367" transform="translate(-300.609 -165.432)" fill="#b1b8cf"/>
    <path id="Path_8536" data-name="Path 8536" d="M448.052,215.419l.177.312-.177-.312" transform="translate(-328.546 -157.962)" fill="#b1b8cf"/>
    <path id="Path_8537" data-name="Path 8537" d="M406.948,237.4l.277-.053c-.061.185-.142.261-.277.053" transform="translate(-298.405 -174.042)" fill="#b1b8cf"/>
    <path id="Path_8538" data-name="Path 8538" d="M196.481,176.353l-.263-.034c.114-.191.2-.15.263.034" transform="translate(-143.882 -129.199)" fill="#b1b8cf"/>
    <path id="Path_8539" data-name="Path 8539" d="M376.336,187.679l-.167.405.167-.405" transform="translate(-275.836 -137.621)" fill="#b1b8cf"/>
    <path id="Path_8540" data-name="Path 8540" d="M377,237.5l.273-.051c-.062.171-.143.242-.273.051" transform="translate(-276.442 -174.116)" fill="#b1b8cf"/>
    <path id="Path_8541" data-name="Path 8541" d="M339.077,179.136l-.349-.162.349.162" transform="translate(-248.381 -131.237)" fill="#b1b8cf"/>
    <path id="Path_8542" data-name="Path 8542" d="M289.369,234.36l.045-.1.107.006a.412.412,0,0,1-.152.1" transform="translate(-212.187 -171.776)" fill="#b1b8cf"/>
    <path id="Path_8543" data-name="Path 8543" d="M107.521,186.331c.2.034.338.113.258.352l-.258-.352" transform="translate(-78.843 -136.632)" fill="#b1b8cf"/>
    <path id="Path_8544" data-name="Path 8544" d="M335.749,346.8c.377-.876,1.119-1.081,1.659-1.518s.869-.756.171-1.458c-.806-.81-.522-1.435.628-1.576.731-.09.934-.395.71-1.054-.043-.125-.15-.237-.164-.362-.062-.589-.709-1.1-.272-1.737.122-.177.474-.1.6.069.434.593,1.81.5,1.308,1.776a.578.578,0,0,0,.324.773c.4.218.511-.172.721-.373a1.256,1.256,0,0,0,.418-1.31,2.166,2.166,0,0,1-.1-1.044c.135-.476.109-1.259.687-1.291s.516.748.638,1.174c.532,1.852.669,1.906,2.249.686.328-.253.63-.852,1.089-.531s-.094.794-.13,1.211a6.133,6.133,0,0,1-.292.878c-.169.68-.031,1.139.814,1.1.655-.028,1.313-.006,2.2-.006a3.11,3.11,0,0,1-1.392,1.454c-1.048.531-.752,1.062-.094,1.707.488.479,1.39.43,1.623,1.334a4.573,4.573,0,0,1-2.095.169c-.984-.041-1.347.284-.921,1.254.176.4.435.9.046,1.235-.443.381-.949.1-1.305-.254-.81-.806-1.541,0-2.3.08-.241.025-.543.411-.713.21-1.17-1.383-1.893-.014-2.764.412-.191.093-.352.329-.588.18-.285-.18-.145-.455-.115-.715.086-.751,1.016-1.518.334-2.185-.512-.5-1.452-.119-2.2-.184-.213-.018-.424-.058-.777-.107" transform="translate(-246.197 -247.625)" fill="#b1b8cf"/>
    <path id="Path_8545" data-name="Path 8545" d="M245.894,338.965c.359-1.033,1.2-1.189,1.748-1.678s.872-.869-.008-1.377A13.691,13.691,0,0,1,246,334.583a4.356,4.356,0,0,1,2.783-.086c.243.078.491.323.725.073.309-.329-.055-.545-.2-.795a2.784,2.784,0,0,1-.364-.706c-.094-.414-.513-.922-.163-1.237.435-.392.692.174,1.035.429a1.227,1.227,0,0,0,1.9-.717c.071-.209.083-.44.168-.641.166-.4.226-1.046.678-1.037.579.012.377.691.48,1.084.41,1.569.743,1.668,2.106.813.484-.3.965-1.176,1.476-.778.41.319-.135,1.128-.323,1.694-.487,1.467-.432,1.565,1.1,1.593.523.01,1.046.054,1.612.085-.163.887-.923,1.016-1.4,1.427-.607.524-.858.906-.013,1.532.568.42,1.812.753,1.553,1.359-.34.793-1.318-.041-2.027-.082-.678-.039-1.317-.111-1.1.911.086.407-.169.514-.519.6a3.024,3.024,0,0,0-2.444,2.561,1.1,1.1,0,0,1-.6.927c-.252-.715-.508-1.405-.739-2.1-.342-1.036-.959-.97-1.7-.441-.49.352-.753.993-1.425,1.153a1.219,1.219,0,0,1,.369-1.442,1.1,1.1,0,0,0,.2-1.342c-.232-.529-.716-.434-1.147-.442-.656-.012-1.312,0-2.134,0m10.062-1.159c-.728.279-.892-.851-1.672-.6l1,1.713.673-1.113m-6.043-2.086c-.012-.312-.166-.56-.449-.547-.518.023-.562.456-.564.852,0,.284.135.534.463.466.4-.082.489-.438.55-.772" transform="translate(-180.308 -241.883)" fill="#b1b8cf"/>
    <path id="Path_8546" data-name="Path 8546" d="M186.906,295.875a2.694,2.694,0,0,1-.732-2.084c.077-.671,1.183-.942.7-1.887-1.007.738-2.017,1.49-3.043,2.22-.244.174-.563.44-.842.255-.3-.2-.117-.563-.019-.855.028-.084.077-.161.1-.245.6-1.929.6-1.92-1.4-1.954-.374-.006-.906.2-1.084-.239-.194-.473.338-.633.648-.854,1.55-1.109,1.544-1.256-.056-2.38-.348-.245-.8-.385-.983-.953a6.127,6.127,0,0,1,2.218-.189c.736.02,1.04-.179.81-1.028a6.816,6.816,0,0,1-.61-2.542c.677.451,1.323.827,1.906,1.283.68.531,1.12.377,1.412-.376.271-.7.514-1.408.772-2.123.749.416.751,1.211.945,1.847.31,1.015.682,1.156,1.6.591.558-.343,1.046-1.355,1.707-.874.332.242-.138,1.3-.448,1.915-.4.8.074,1.334.461,1.91.308.458.632.48.878-.043.361-.769.957-.618,1.635-.457a1.34,1.34,0,0,1-.832.937c-1.17.625-1.773,1.408-1.206,2.767.1.246.047.625-.259.659-1.438.162-.77,1.015-.594,1.709.087.342.219.674.28,1.019.115.656-.181.685-.662.4-.666-.393-1.257-1.337-2.006-1.047-.715.277-.607,1.379-.924,2.092a3.669,3.669,0,0,1-.376.521m-1.842-7.234c.068.4-.091,1.032.54,1,.36-.021,1.1-.214,1.043-.607a1.417,1.417,0,0,0-1.028-1.222c-.624-.113-.5.452-.556.833m4.749,1.333a1.091,1.091,0,0,0,.882-.983c.048-.276-.113-.675-.349-.592a1.783,1.783,0,0,0-1.042,1.085c-.118.323.189.44.509.491" transform="translate(-132.134 -206.729)" fill="#b1b8cf"/>
    <path id="Path_8547" data-name="Path 8547" d="M413.092,294.411a4.714,4.714,0,0,1,.52-2.284c.214-.736.039-.955-.687-1s-1.865.362-2.085-.25c-.27-.75.977-.909,1.465-1.445.4-.439.515-.638.078-1.173-.933-1.144-.769-1.482.708-1.721.615-.1.687-.357.548-.91a5.578,5.578,0,0,1-.571-2.578c.856.862,2.423.742,2,2.5-.074.311.33.74.535.549.416-.387,1.256-.6.967-1.463a3.03,3.03,0,0,1,.47-2.715,2.614,2.614,0,0,1,.816,1.837c.222,1.064.82,1.323,1.629.624.486-.42.972-1.344,1.516-1.023.586.346-.066,1.165-.253,1.744-.354,1.1-.089,1.57,1.125,1.43a15.362,15.362,0,0,1,2.08.079c-.715.583-1.157.977-1.632,1.325-1.019.747-1.031,1.1-.005,1.869.448.335,1.081.421,1.386,1.05a2.825,2.825,0,0,1-1.919.233c-1.075-.069-1.375.339-1.01,1.321.15.4.479.848.015,1.209a.884.884,0,0,1-1.213-.173c-.749-.9-1.444-.054-2.153-.014-.293.017-.76.35-.84.262-1.353-1.506-2.05.245-3.021.575-.122.042-.247.075-.476.144" transform="translate(-301.232 -206.725)" fill="#b1b8cf"/>
    <path id="Path_8548" data-name="Path 8548" d="M262.624,387.976c-.4,1.633-1.508,1.475-2.357,1.486a48.512,48.512,0,0,1-8.448-.525,40.556,40.556,0,0,1-6.062-1.109,6.092,6.092,0,0,0-2.394-.581c-1.287.1-1.922-1.419-3.214-1.354-.2-1.982-1.158-1.331-2.26-.742-.311.167-.962-.257-1.133-.75a2.389,2.389,0,0,1,.2-1.677c.086-.21.411-.161.6-.041,1.823,1.185,3.961,1.64,5.94,2.438a31.886,31.886,0,0,0,6.276,1.405c.878.159,1.877-.182,2.472.828a.54.54,0,0,0,.476.156c2.611-.665,5.251.244,7.858-.139,2.651-.39,5.4-.045,7.973-1.011.29-.109.733-.233.847.066a3.834,3.834,0,0,1,.264,1.661c-.042.452-.616.163-.849.28-1.206.6-2.564.219-3.79.708-.868.346-1.84.5-2.393-1.1" transform="translate(-173.546 -280.537)" fill="#b1b8cf"/>
    <path id="Path_8549" data-name="Path 8549" d="M226.14,313.778c.248.186.668.243.67.662,0,.2-.232.219-.407.2a.6.6,0,0,1-.6-.561c-.016-.2.112-.3.337-.3" transform="translate(-165.575 -230.085)" fill="#b1b8cf"/>
    <path id="Path_8550" data-name="Path 8550" d="M344.7,309.041c-.366.033-.724-.266-.618-.585.306-.92,1.288-.722,1.982-1,.469-.186.964.222.816.519-.4.8-1.395.7-2.18,1.062" transform="translate(-252.291 -225.419)" fill="#b1b8cf"/>
    <path id="Path_8551" data-name="Path 8551" d="M353.126,70.465c.007-.538.025-1.025.7-1.094.947-.1.493.77.667,1.128.185.38-.562.514-.879.618-.514.169-.433-.368-.483-.652" transform="translate(-258.939 -50.862)" fill="#b1b8cf"/>
    <path id="Path_8552" data-name="Path 8552" d="M370.628,70.577a1.33,1.33,0,0,1-.233,1.856c-.406.367-.887-.4-.521-.921.217-.306.471-.586.754-.935" transform="translate(-271.125 -51.752)" fill="#b1b8cf"/>
    <path id="Path_8553" data-name="Path 8553" d="M421.012,107.441c-.1.347-.162.821-.595.9-.407.079-.443-.338-.463-.645a.66.66,0,0,1,.58-.76c.361-.07.457.165.478.5" transform="translate(-307.941 -78.409)" fill="#b1b8cf"/>
    <path id="Path_8554" data-name="Path 8554" d="M121.612,200.536l-1,.074a1.529,1.529,0,0,1,.174-1.449,3.37,3.37,0,0,1,.825,1.374" transform="translate(-88.367 -146.041)" fill="#b1b8cf"/>
    <path id="Path_8555" data-name="Path 8555" d="M124.779,204.651l-.206-.346.206.346" transform="translate(-91.346 -149.812)" fill="#b1b8cf"/>
    <path id="Path_8556" data-name="Path 8556" d="M350.4,187.323l.185-.186a2.118,2.118,0,0,1,.227.274c.075.128.023.179-.109.109-.1-.054-.2-.128-.3-.2" transform="translate(-256.942 -137.223)" fill="#b1b8cf"/>
    <path id="Path_8557" data-name="Path 8557" d="M279.022,357.881l-.673,1.112-1-1.713c.78-.25.944.88,1.673.6" transform="translate(-203.373 -261.958)" fill="#b1b8cf"/>
    <path id="Path_8558" data-name="Path 8558" d="M258.178,350.306c-.062.334-.152.689-.55.772-.328.068-.465-.183-.463-.466,0-.4.047-.828.564-.852.283-.013.437.234.449.547" transform="translate(-188.573 -256.47)" fill="#b1b8cf"/>
    <path id="Path_8559" data-name="Path 8559" d="M198.445,304.773c.055-.382-.068-.946.556-.833a1.417,1.417,0,0,1,1.028,1.222c.056.393-.684.586-1.044.607-.631.036-.472-.6-.54-1" transform="translate(-145.515 -222.861)" fill="#b1b8cf"/>
    <path id="Path_8560" data-name="Path 8560" d="M214.781,307.739c-.32-.051-.627-.168-.509-.491a1.783,1.783,0,0,1,1.042-1.085c.236-.083.4.316.349.592a1.091,1.091,0,0,1-.882.983" transform="translate(-157.102 -224.494)" fill="#b1b8cf"/>
  </g>
</svg>
