<svg xmlns="http://www.w3.org/2000/svg" width="216.199" height="220" viewBox="0 0 216.199 220">
  <g id="Group_5462" data-name="Group 5462" transform="translate(-432.1 -378)">
    <text id="Your_cart_is_empty" data-name="Your cart is empty" transform="translate(454.1 592)" fill="#173a8d" font-size="19" font-family="SharpSans-Bold, Sharp Sans" font-weight="700"><tspan x="0" y="0">Your cart is empty</tspan></text>
    <g id="Group_5368" data-name="Group 5368" transform="translate(432.1 378)">
      <rect id="Rectangle_2084" data-name="Rectangle 2084" width="110.6" height="87.612" transform="translate(65.368 178.945) rotate(-89.549)" fill="#d6d9e2"/>
      <path id="Path_6790" data-name="Path 6790" d="M71.755,187.817l-1.57,107.062-13.835-.106L59.33,187.71Z" transform="translate(47.79 -115.493)" fill="#fafafa"/>
      <path id="Path_6791" data-name="Path 6791" d="M23.695,187.44l50.259.4,87.613.692-87.693,11.52-.745,94.877-50.259-.4Z" transform="translate(-7.806 -115.941)" fill="#babdc9"/>
      <path id="Path_6792" data-name="Path 6792" d="M44.031,187.587l-2,107.089-14.926-.133L29.558,187.48Z" transform="translate(-0.766 -115.875)" fill="#fafafa"/>
      <path id="Path_6793" data-name="Path 6793" d="M74.458,196.926c0,.692-1.463,1.383-4.151,2.049a68.9,68.9,0,0,1-19.875,1.437,32.708,32.708,0,0,1-4.656-.505,37.61,37.61,0,0,1-5.108-1.091,15.41,15.41,0,0,1-3.166-1.357,10.169,10.169,0,0,1-3.326-3.14A9.338,9.338,0,0,1,32.74,189.5a15.97,15.97,0,0,1,.426-3.725,64.608,64.608,0,0,1,3.352-11.095,29.882,29.882,0,0,1,3.219-5.64,24.028,24.028,0,0,1,2.155-2.661,16.484,16.484,0,0,1,2.927-2.368,11.822,11.822,0,0,1,3.964-1.6,10.459,10.459,0,0,1,4.55.133,14.8,14.8,0,0,1,5.986,3.3,49.16,49.16,0,0,1,11.52,14.128A34.568,34.568,0,0,1,74.7,191.5c.346,2.873,0,4.5-.639,4.629-1.41.346-3.459-5.321-9.046-12.4a57,57,0,0,0-11.254-10.642,6.589,6.589,0,0,0-2.661-1.3.971.971,0,0,0-.479,0,3.46,3.46,0,0,0-.745.4,8.728,8.728,0,0,0-1.117.984c-.4.452-.851,1.011-1.25,1.57a21.7,21.7,0,0,0-2.1,3.831,74.458,74.458,0,0,0-3.006,9.392,6.624,6.624,0,0,0-.266,1.384h-.266c-.319,0-.4.16-.186,0L42,189.1a.974.974,0,0,0,.239.239,6.67,6.67,0,0,0,1.25.639,35.138,35.138,0,0,0,3.911,1.171c1.357.372,2.661.665,4.018.931,2.661.532,5.135.9,7.45,1.224,4.656.612,8.541,1.038,11.228,1.543s4.337,1.41,4.363,2.075" transform="translate(8.583 -157.807)" fill="#9ca9c7"/>
      <path id="Path_6794" data-name="Path 6794" d="M48.144,200.484c-.239-1.384,6.306-3.432,16.522-6.439a140.853,140.853,0,0,0,17.241-6.173,17.447,17.447,0,0,0,3.751-2.075c.4-.346.585-.639.532-.612s0,.4-.133.213a10.4,10.4,0,0,0-.612-1.543l-1.277-2.661a42.977,42.977,0,0,0-2.661-4.762,19.782,19.782,0,0,0-3.113-3.725,17.177,17.177,0,0,0-1.756-1.41,7.728,7.728,0,0,0-1.6-.851,3.954,3.954,0,0,0-2.661-.239,8.454,8.454,0,0,0-3.086,1.783A67.208,67.208,0,0,0,57.324,185c-5.88,8.354-7.423,14.873-8.886,14.66-.639,0-1.117-1.862-.878-5.082a36.533,36.533,0,0,1,3.778-13.037,57.375,57.375,0,0,1,12-16.336,17.246,17.246,0,0,1,6.226-3.911,13.31,13.31,0,0,1,8.674,0,17.9,17.9,0,0,1,3.645,1.809,21.9,21.9,0,0,1,2.953,2.235,27.935,27.935,0,0,1,4.789,5.587,45.789,45.789,0,0,1,3.273,5.933l1.277,2.82a15.812,15.812,0,0,1,1.3,4.017,9.041,9.041,0,0,1-.984,5.8,10.854,10.854,0,0,1-3.246,3.592,24.439,24.439,0,0,1-5.986,2.98,90.414,90.414,0,0,1-19.183,4.6c-10.962,1.49-17.773,1.091-17.932-.186" transform="translate(33.088 -160.567)" fill="#d5d5d5"/>
      <path id="Path_8249" data-name="Path 8249" d="M0,0H36.611V128.773H0Z" transform="translate(0 71.33) rotate(-89.55)" fill="#afb6c7"/>
      <rect id="Rectangle_2086" data-name="Rectangle 2086" width="36.61" height="116.402" transform="translate(47.334 71.692) rotate(-89.549)" fill="#d6d9e2"/>
      <path id="Path_6795" data-name="Path 6795" d="M74.4,174.077l-.825,36.769L60.01,210.58l.958-36.61Z" transform="translate(53.868 -138.31)" fill="#fafafa"/>
      <rect id="Rectangle_2087" data-name="Rectangle 2087" width="62.656" height="49.646" transform="translate(160.287 176.93) rotate(-89.549)" fill="#d6d9e2"/>
      <path id="Path_6797" data-name="Path 6797" d="M94.427,204.393l-.878,60.688-7.849-.053,1.676-60.688Z" transform="translate(96.529 -87.877)" fill="#fafafa"/>
      <path id="Path_6798" data-name="Path 6798" d="M67.182,204.19l28.5.213,49.647.4-49.7,6.545L95.2,265.091l-28.468-.213Z" transform="translate(65.027 -88.127)" fill="#babdc9"/>
      <path id="Path_6799" data-name="Path 6799" d="M78.708,204.29l-1.117,60.662L69.13,264.9l1.384-60.688Z" transform="translate(69.013 -88.093)" fill="#fafafa"/>
      <path id="Path_6800" data-name="Path 6800" d="M96.361,209.842c0,.931-3.246,2.049-8.94,2.661a32.451,32.451,0,0,1-10.4-.851A7.032,7.032,0,0,1,73,208.99a6.083,6.083,0,0,1-.931-3.06,10.332,10.332,0,0,1,.239-2.288,37.424,37.424,0,0,1,1.942-6.412,18.994,18.994,0,0,1,1.889-3.326,11.789,11.789,0,0,1,3.193-3.086,6.973,6.973,0,0,1,5.321-.9,9.4,9.4,0,0,1,3.645,2.022,27.51,27.51,0,0,1,6.545,8.248c2.661,5.321,2.288,9.285,1.41,9.419s-2.315-2.9-5.534-6.758a33.505,33.505,0,0,0-6.359-5.88,3.241,3.241,0,0,0-1.2-.612l-.186.133a5.875,5.875,0,0,0-1.144,1.277,10.623,10.623,0,0,0-1.117,2.049,39.956,39.956,0,0,0-1.676,5.321l-.16.612h-.825a1.879,1.879,0,0,0,.479-.426l.16-.16a2.715,2.715,0,0,0,.585.319,46.353,46.353,0,0,0,8.541,2c5.055.772,8.541,1.383,8.541,2.368" transform="translate(73.895 -112.137)" fill="#9ca9c7"/>
      <path id="Path_6801" data-name="Path 6801" d="M81.273,212.128c-.186-1.064,3.512-2.474,9.206-4.363a93.92,93.92,0,0,0,9.578-3.645,8.9,8.9,0,0,0,1.889-1.091c.16-.133.16-.239,0,0a1.578,1.578,0,0,0-.186.745l-.984-2.075a25.322,25.322,0,0,0-1.463-2.661,8.888,8.888,0,0,0-1.6-1.916A5.282,5.282,0,0,0,96.146,196a1.287,1.287,0,0,0-.825,0,3.269,3.269,0,0,0-1.437.8,40.467,40.467,0,0,0-6.785,7.024c-3.432,4.5-4.55,8.115-5.64,7.982s-1.756-4.417,1.011-10.642a31.891,31.891,0,0,1,6.811-9.6,10.8,10.8,0,0,1,3.831-2.448,8.364,8.364,0,0,1,5.534,0,10.1,10.1,0,0,1,2.288,1.091,15.432,15.432,0,0,1,1.809,1.384,16.886,16.886,0,0,1,2.873,3.326,33.308,33.308,0,0,1,1.916,3.485l.718,1.623a9.932,9.932,0,0,1,.825,2.661,6.066,6.066,0,0,1-.692,3.911,7.384,7.384,0,0,1-2.1,2.341,14.494,14.494,0,0,1-3.618,1.783,48.471,48.471,0,0,1-11.095,2.448c-6.226.426-10.084-.053-10.3-1.038" transform="translate(87.919 -113.944)" fill="#e0e0e0"/>
      <rect id="Rectangle_2088" data-name="Rectangle 2088" width="20.753" height="72.98" transform="translate(123.209 115.98) rotate(-89.551)" fill="#afb6c7"/>
      <rect id="Rectangle_2089" data-name="Rectangle 2089" width="20.752" height="65.956" transform="translate(150.083 116.169) rotate(-89.549)" fill="#d6d9e2"/>
      <path id="Path_6802" data-name="Path 6802" d="M95.938,196.613l-.452,20.832-7.716-.16.559-20.726Z" transform="translate(99.966 -100.797)" fill="#fafafa"/>
      <path id="Path_6803" data-name="Path 6803" d="M76.046,196.576,75.3,217.223l-8.461-.053.452-20.779Z" transform="translate(65.21 -101.079)" fill="#fafafa"/>
      <path id="Path_6804" data-name="Path 6804" d="M67.261,192.434l47.4-28.357a3.712,3.712,0,0,1,5.09,1.28l26.7,44.629a3.712,3.712,0,0,1-1.28,5.09l-47.4,28.357a3.713,3.713,0,0,1-5.092-1.28l-26.7-44.629a3.71,3.71,0,0,1,1.28-5.09" transform="translate(62.908 -155.612)" fill="#afb6c7"/>
      <path id="Path_6805" data-name="Path 6805" d="M108.509,182.823a2.627,2.627,0,0,1-.349.242l-1.027.647-3.845,2.363-12.9,7.806-.112.048-.077-.1c-.508-.628-1.046-1.285-1.591-1.958-4.627-5.76-8.74-10.893-11.451-14.24l.114.016L73.817,179.7l-.926.535a2.594,2.594,0,0,1-.343.144,2.128,2.128,0,0,1,.3-.21l.9-.572,3.419-2.1.072-.029.027.064L88.81,191.7l1.588,1.964-.181-.035,13-7.732,3.868-2.277,1.056-.6a2.429,2.429,0,0,1,.37-.192" transform="translate(74.689 -132.516)" fill="#35375b"/>
      <path id="Path_6806" data-name="Path 6806" d="M83.276,197.014l.1-.04.258-.176,1.03-.641,3.868-2.376,13.383-8.107-.059.168c-.958-2.5-2-5.2-3.07-7.992-.551-1.434-1.094-2.847-1.61-4.2l.2.075-15.833,9.464-4.7,2.775-1.274.737-.335.189-.12.051a.446.446,0,0,1,.106-.08l.317-.2,1.25-.782,4.659-2.852,15.78-9.544.152-.064.064.154c.521,1.349,1.062,2.756,1.615,4.2,1.07,2.794,2.1,5.5,3.06,7.992l.032.077-.106.043-13.431,8.035-3.906,2.3-1.051.607-.274.152Z" transform="translate(78.958 -139.228)" fill="#35375b"/>
      <path id="Path_6807" data-name="Path 6807" d="M84.609,185.126c-.024.011-.122-.149-.362-.37a2.133,2.133,0,0,0-1.232-.543,2.007,2.007,0,0,0-2.192,1.8,2.035,2.035,0,0,0,.274,1.224,2,2,0,0,0,2.07.907,2.028,2.028,0,0,0,1.485-1.219,2.071,2.071,0,0,0,.1-1.346c-.08-.317-.2-.474-.154-.492a1.082,1.082,0,0,1,.274.479,2.122,2.122,0,0,1-.021,1.455,2.236,2.236,0,0,1-4.278-.354,2.234,2.234,0,0,1,2.456-2.677,2.119,2.119,0,0,1,1.288.647,1.132,1.132,0,0,1,.3.484" transform="translate(87.928 -121.689)" fill="#35375b"/>
      <path id="Path_6808" data-name="Path 6808" d="M88.994,182.459a4.16,4.16,0,0,0-.362-.37,2.11,2.11,0,0,0-1.237-.54,1.995,1.995,0,1,0,1.655,2.748,2.089,2.089,0,0,0,.1-1.346c-.08-.317-.2-.474-.154-.492a1.122,1.122,0,0,1,.269.482,2.1,2.1,0,0,1-.016,1.453,2.239,2.239,0,1,1-1.823-3.028,2.115,2.115,0,0,1,1.285.644,1.128,1.128,0,0,1,.285.45" transform="translate(95.236 -126.057)" fill="#35375b"/>
      <path id="Path_6809" data-name="Path 6809" d="M80.5,175.672a6.052,6.052,0,1,1,4.832,7.067,6.05,6.05,0,0,1-4.832-7.067" transform="translate(87.714 -143.678)" fill="#173a8d"/>
      <path id="Path_6810" data-name="Path 6810" d="M85.868,171.649A5.889,5.889,0,0,1,85.7,172.9c-.144.761-.357,1.8-.609,2.951l-.271,1.224-.029.13-.128-.024a19.473,19.473,0,0,1-2.935-.655,19.762,19.762,0,0,1,2.983.386l-.16.1.266-1.229c.25-1.149.5-2.184.686-2.935a5.491,5.491,0,0,1,.362-1.208" transform="translate(89.938 -142.164)" fill="#fff"/>
    </g>
  </g>
</svg>
