<svg id="Group_1022" data-name="Group 1022" xmlns="http://www.w3.org/2000/svg" xmlns:xlink="http://www.w3.org/1999/xlink" width="39.129" height="46.67" viewBox="0 0 39.129 46.67">
  <defs>
    <clipPath id="clip-path">
      <rect id="Rectangle_820" data-name="Rectangle 820" width="39.129" height="46.67" fill="#173a8d"/>
    </clipPath>
  </defs>
  <g id="Group_1021" data-name="Group 1021" clip-path="url(#clip-path)">
    <path id="Path_719" data-name="Path 719" d="M141.809,379.228a6.967,6.967,0,0,1-2.431-.978,6.538,6.538,0,0,1-2.207-2.711.4.4,0,0,1-.024-.127h10.671a6.287,6.287,0,0,1-1.548,2.273,6.218,6.218,0,0,1-3.132,1.542Z" transform="translate(-122.903 -332.558)" fill="#173a8d"/>
    <path id="Path_720" data-name="Path 720" d="M19.2,41.2c-3.162-.229-6.677-.384-10.171-.772a44.943,44.943,0,0,1-6.306-1.283A3.972,3.972,0,0,1,.742,33.008a49.217,49.217,0,0,0,3.7-6.2A22.946,22.946,0,0,0,6.757,18.9c.089-1,.07-2,.183-3a14.211,14.211,0,0,1,3.621-8.048A12.24,12.24,0,0,1,14.973,4.69a.546.546,0,0,0,.378-.54C15.666,1.214,18.3-.583,20.65.173a4.565,4.565,0,0,1,3.171,4.1.636.636,0,0,0,.349.4A12.826,12.826,0,0,1,29.2,8.582a14.664,14.664,0,0,1,3.14,9.08,21.6,21.6,0,0,0,2.287,8.978,40.819,40.819,0,0,0,3.629,6.14,4.273,4.273,0,0,1,.145,4.966,3.623,3.623,0,0,1-2.055,1.443,39.324,39.324,0,0,1-8.211,1.463c-2.858.205-5.719.353-8.935.547" transform="translate(0 0)" fill="#173a8d"/>
  </g>
</svg>
