<svg xmlns="http://www.w3.org/2000/svg" width="108.458" height="70.04" viewBox="0 0 108.458 70.04">
  <g id="Group_2312" data-name="Group 2312" transform="translate(0 0)">
    <g id="Group_2313" data-name="Group 2313" transform="translate(0)">
      <path id="Path_4520" data-name="Path 4520" d="M15.688,58.451c.586,6.321,4.416,10.491,10.336,11.45a11.831,11.831,0,0,0,13.321-10.31c.072-.772.217-1.161,1.128-1.158q16.164.044,32.329.022c.2,0,.4.028.716.052a12.231,12.231,0,0,0,5.122,9.352,11.545,11.545,0,0,0,7.275,2.174c6.086-.23,10.069-4.2,11.577-11.581,1.841,0,3.715.012,5.589-.007a12.407,12.407,0,0,0,2.077-.144,3.913,3.913,0,0,0,3.278-3.876c.026-3.729-.01-7.458.021-11.186a1.674,1.674,0,0,0-1.324-1.8q-10.521-3.314-21.044-6.621a4.557,4.557,0,0,0-1.333-.123c-5.081-.008-10.162.005-15.242-.027-.36,0-1.011-.308-1.017-.489a1.5,1.5,0,0,1,.51-1.155q15.835-9.993,31.712-19.917c.162-.1.344-.17.688-.337,0,2.271.015,4.386-.006,6.5a1.7,1.7,0,0,0,1.637,2,2.877,2.877,0,0,1,2.691,2.968,3.043,3.043,0,0,1-2.641,2.806,2.985,2.985,0,0,1-3.12-2.378c-.049-.155-.11-.306-.2-.547H97.256a5.489,5.489,0,0,0,5.108,5.635,5.648,5.648,0,0,0,6.073-5.138,5.531,5.531,0,0,0-3.46-5.671,1.074,1.074,0,0,1-.777-1.17c.046-1.474.032-2.95.009-4.425a5.211,5.211,0,0,1,.933-3.649,3.567,3.567,0,0,0-.423-4.532,3.879,3.879,0,0,0-4.7-.935c-2.9,1.416-5.767,2.908-8.648,4.367q-15.811,8.012-31.635,16a10.523,10.523,0,0,1-3.124.886,10.941,10.941,0,0,0-9.72,9.116H45.448c-.124-1.668-.267-3.363-.374-5.061q-.663-10.483-1.312-20.966a15.947,15.947,0,0,0-.234-2.2,3.974,3.974,0,0,0-3.747-3.153c-1.351-.041-2.7-.014-4.056-.009a1.356,1.356,0,0,0-1.517,1.518c-.008.93,0,1.86,0,2.786L30.225,6.205c.016-1.818.111-3.865-1.666-5.133A6.313,6.313,0,0,0,25.649.024,3.561,3.561,0,0,0,21.9,2.093a23.642,23.642,0,0,0-1.059,4.332c-3.829.192-6.483,2.434-8.559,5.784-3.1,5.009-6.4,9.9-9.633,14.828A15.449,15.449,0,0,0,0,35.818c.039,6.023,0,12.046.013,18.069,0,2.932,1.6,4.531,4.574,4.556,3.237.028,6.474.007,9.711.007h1.389m90.056-14.2c0,3.4.005,6.593,0,9.787,0,1.116-.589,1.619-1.7,1.607-1.925-.021-3.852-.051-5.775.016-.9.031-1.235-.273-1.509-1.138a11.834,11.834,0,0,0-22.567,0c-.3.961-.734,1.143-1.634,1.141q-16.037-.042-32.074-.018H39.289c-1.658-5.5-5.161-8.952-10.844-9.3-6.56-.4-10.613,3.184-12.592,9.3-3.748,0-7.432,0-11.117,0-1.684,0-2.014-.336-2.015-2.01,0-5.858.014-11.715-.008-17.573a13.073,13.073,0,0,1,2.175-7.413Q10.108,20.691,15.27,12.7a7.2,7.2,0,0,1,6.585-3.523c2.539.036,5.079,0,7.619.009,3.188.009,4.73,1.563,4.731,4.768q0,13.948,0,27.9c0,2.155.247,2.4,2.379,2.4h69.16Zm-8.318-2.965-.052.232q-23.957,0-47.913-.008c-1.17,0-2.769.321-3.39-.293-.638-.631-.323-2.227-.415-3.4a1.532,1.532,0,0,1,.124-.42h1.453c11.221,0,22.443.046,33.663-.033a23.447,23.447,0,0,1,8.165,1.241c2.757.98,5.573,1.8,8.364,2.683M85.608,67.27A9.141,9.141,0,1,1,94.614,58a9.139,9.139,0,0,1-9.006,9.265M36.7,58.112a9.231,9.231,0,0,1-4.253,7.77,8.87,8.87,0,0,1-4.824,1.391A9.141,9.141,0,1,1,36.7,58.112M62.679,26.266c.045-.026.247-.16.461-.269q18.74-9.507,37.483-19.008c.288-.146.625-.374.9-.327.438.075,1.067.249,1.2.562a1.993,1.993,0,0,1-.2,1.421c-.132.286-.567.441-.878.636Q88.667,17.429,75.682,25.573c-2.8,1.753-5.593,3.5-8.194,5.132l-4.81-4.439M37,41.457V5.926c.748,0,1.4-.009,2.052,0,1.36.021,1.749.35,1.846,1.712.249,3.47.465,6.943.692,10.414q.57,8.7,1.135,17.4c.127,1.982.23,3.965.347,6Zm12.768-6.8a8.027,8.027,0,0,1,8.918-6.4c3.416.3,6.795,3.434,6.863,6.4ZM27.324,6.328H23.912c-.128-2.615.381-3.627,1.761-3.619,1.413.008,1.882,1.009,1.651,3.619" transform="translate(0.001 0)" fill="#1a1818"/>
      <path id="Path_4521" data-name="Path 4521" d="M261.612,51.977c0-3.235.006-6.471,0-9.706,0-1.617-.416-2.029-2.031-2.038-1.925-.012-3.85.031-5.774-.012a4.441,4.441,0,0,0-4.1,2.2c-3.647,5.632-7.369,11.216-10.935,16.9a6.338,6.338,0,0,0-.532,3.263c0,.382.741.844,1.231,1.107a2.785,2.785,0,0,0,1.21.069q9.03,0,18.06,0c2.768,0,2.878-.113,2.878-2.938q0-4.423,0-8.846m-2.892-8.99v17.9H240.952c3.8-5.819,7.493-11.5,11.229-17.158a1.743,1.743,0,0,1,1.184-.705c1.749-.078,3.5-.033,5.355-.033" transform="translate(-231.405 -27.009)" fill="#173a8d"/>
      <path id="Path_4522" data-name="Path 4522" d="M55.225,167.118a4.849,4.849,0,1,0,4.868-4.9,4.788,4.788,0,0,0-4.868,4.9m4.894-2.137a2.056,2.056,0,0,1,2.057,2.114A2.108,2.108,0,1,1,57.962,167a2.071,2.071,0,0,1,2.157-2.02" transform="translate(25.396 -108.934)" fill="#173a8d"/>
      <path id="Path_4523" data-name="Path 4523" d="M236.3,171.931a4.851,4.851,0,1,0-.059-9.7,4.852,4.852,0,1,0,.059,9.7m-2.118-4.9a2.038,2.038,0,0,1,2.116-2.044,2.152,2.152,0,0,1,2.113,2.093,2.182,2.182,0,0,1-2.223,2.122,2.08,2.08,0,0,1-2.007-2.17" transform="translate(-208.676 -108.943)" fill="#173a8d"/>
    </g>
  </g>
</svg>
