<svg xmlns="http://www.w3.org/2000/svg" width="62.955" height="62.967" viewBox="0 0 62.955 62.967">
  <g id="Group_3460" data-name="Group 3460" transform="translate(0)">
    <g id="Group_3461" data-name="Group 3461">
      <path id="Path_6725" data-name="Path 6725" d="M62.954,29.641V33.33a4.169,4.169,0,0,0-.105.532,29.611,29.611,0,0,1-3.594,12.4,31.067,31.067,0,0,1-22.294,16.21c-1.2.231-2.425.335-3.638.5H29.634a3.309,3.309,0,0,0-.474-.1,29.127,29.127,0,0,1-12.4-3.579C6.414,53.491.773,44.64.056,32.8A29.164,29.164,0,0,1,4.432,15.434C10.327,5.879,18.945.713,30.155.053A29.317,29.317,0,0,1,46.239,3.7,31.014,31.014,0,0,1,62.457,26c.23,1.2.334,2.424.5,3.637M38.535,46.7c-.941.2-1.788.456-2.654.555-2.451.282-3.523-.8-3.078-3.206.345-1.866.859-3.7,1.321-5.546.645-2.573,1.65-5.062,1.744-7.763A4.78,4.78,0,0,0,33.731,26.2a7.5,7.5,0,0,0-5.15-.921,23.93,23.93,0,0,0-5.73,1.764c-.124.048-.3.138-.324.242-.179.653-.324,1.316-.5,2.063.466-.15.815-.26,1.163-.374a5.867,5.867,0,0,1,3.088-.2c.83.176,1.327.583,1.367,1.428a11.08,11.08,0,0,1-.183,2.975c-.494,2.151-1.12,4.272-1.718,6.4A24.446,24.446,0,0,0,24.6,45.4a4.772,4.772,0,0,0,3.012,4.757,8.165,8.165,0,0,0,5.123.4c1.72-.415,3.373-1.1,5.052-1.686a.5.5,0,0,0,.287-.279c.171-.627.311-1.262.464-1.9M34.246,12.067a15.291,15.291,0,0,0-1.67.351,4.362,4.362,0,0,0-2.395,6.559,4.834,4.834,0,0,0,4.984,2.057,4.533,4.533,0,0,0,3.85-5.051,4.8,4.8,0,0,0-4.769-3.916" transform="translate(0 0)" fill="#173a8d"/>
      <path id="Path_6726" data-name="Path 6726" d="M190.515,220.5c-.153.639-.293,1.274-.464,1.9a.5.5,0,0,1-.287.279c-1.678.581-3.332,1.271-5.052,1.686a8.165,8.165,0,0,1-5.122-.4,4.772,4.772,0,0,1-3.012-4.758,24.446,24.446,0,0,1,1.147-5.825c.6-2.126,1.224-4.247,1.718-6.4a11.075,11.075,0,0,0,.183-2.975c-.04-.845-.538-1.252-1.367-1.428a5.868,5.868,0,0,0-3.088.2c-.348.114-.7.224-1.163.374.177-.747.321-1.41.5-2.063.028-.1.2-.194.324-.242a23.93,23.93,0,0,1,5.73-1.764,7.5,7.5,0,0,1,5.15.921,4.78,4.78,0,0,1,2.136,4.539c-.094,2.7-1.1,5.19-1.744,7.763-.462,1.844-.975,3.68-1.321,5.546-.444,2.4.628,3.488,3.078,3.205.865-.1,1.713-.354,2.654-.555" transform="translate(-151.98 -173.798)" fill="#fff"/>
      <path id="Path_6727" data-name="Path 6727" d="M237.46,95.319a4.8,4.8,0,0,1,4.769,3.916,4.533,4.533,0,0,1-3.85,5.051,4.834,4.834,0,0,1-4.984-2.057,4.362,4.362,0,0,1,2.395-6.559,15.292,15.292,0,0,1,1.67-.351" transform="translate(-203.214 -83.252)" fill="#fff"/>
    </g>
  </g>
</svg>
