<svg id="Group_3382" data-name="Group 3382" xmlns="http://www.w3.org/2000/svg" xmlns:xlink="http://www.w3.org/1999/xlink" width="30" height="36.917" viewBox="0 0 30 36.917">
  <defs>
    <clipPath id="clip-path">
      <rect id="Rectangle_2044" data-name="Rectangle 2044" width="30" height="36.917" fill="#173a8d"/>
    </clipPath>
  </defs>
  <g id="Group_3381" data-name="Group 3381" clip-path="url(#clip-path)">
    <path id="Path_6694" data-name="Path 6694" d="M5.773,36.917a8.135,8.135,0,0,1-1.044-.362,3.213,3.213,0,0,1-1.911-2.767c-.153-2.337-.246-4.677-.359-7.017q-.28-5.777-.553-11.553c-.039-.826-.076-1.652-.116-2.527-.2,0-.392,0-.579,0a1.152,1.152,0,0,1-1.2-1.2c-.006-1.333-.012-2.667,0-4A2.866,2.866,0,0,1,2.875,4.619c2.006-.014,4.012,0,6.019,0h.341c0-.321,0-.628,0-.934A3.472,3.472,0,0,1,12.912,0q2.126,0,4.253,0A3.464,3.464,0,0,1,20.77,3.609c0,.322,0,.644,0,1.006h.413q2.883,0,5.766,0A2.889,2.889,0,0,1,30,7.668q0,1.838,0,3.676A1.184,1.184,0,0,1,28.65,12.69h-.426c-.026.448-.055.875-.075,1.3q-.231,4.877-.46,9.754c-.16,3.335-.307,6.671-.5,10a3.362,3.362,0,0,1-2.8,3.1.981.981,0,0,0-.163.063ZM4.1,12.7c.037.839.071,1.641.109,2.444q.276,5.795.554,11.59c.1,2.184.2,4.368.312,6.551.048.946.468,1.323,1.422,1.323H23.546a1.194,1.194,0,0,0,1.379-1.293c.044-.707.066-1.416.1-2.124q.193-4.1.387-8.207.236-4.949.476-9.9c.006-.126,0-.253,0-.386Zm23.589-2.331c0-.888,0-1.739,0-2.59,0-.707-.155-.86-.871-.86H3.039c-.521.005-.724.2-.726.715,0,.829,0,1.658,0,2.486,0,.08.015.159.024.248ZM11.544,4.589h6.916c0-.42.018-.816,0-1.21a1.126,1.126,0,0,0-1.112-1.066q-2.341-.019-4.683,0A1.129,1.129,0,0,0,11.548,3.38c-.021.394,0,.79,0,1.209" transform="translate(0 0.001)" fill="#173a8d"/>
    <path id="Path_6695" data-name="Path 6695" d="M83.869,164.322q0-3.713,0-7.425a1.148,1.148,0,0,1,1.562-1.148,1.127,1.127,0,0,1,.738.983,2.814,2.814,0,0,1,.005.324q0,7.263,0,14.526a2.369,2.369,0,0,1-.025.466,1.15,1.15,0,0,1-2.278-.229c-.009-1.454,0-2.908,0-4.362q0-1.568,0-3.136" transform="translate(-75.789 -140.67)" fill="#173a8d"/>
    <path id="Path_6696" data-name="Path 6696" d="M143.752,164.321q0-3.713,0-7.425a1.148,1.148,0,0,1,1.563-1.147,1.127,1.127,0,0,1,.737.984,2.839,2.839,0,0,1,.005.324q0,7.263,0,14.526a2.362,2.362,0,0,1-.026.466,1.15,1.15,0,0,1-2.277-.231c-.009-1.478,0-2.956,0-4.434q0-1.532,0-3.064" transform="translate(-129.904 -140.67)" fill="#173a8d"/>
    <path id="Path_6697" data-name="Path 6697" d="M205.933,164.315q0,3.713,0,7.425a1.139,1.139,0,0,1-.693,1.124,1.082,1.082,0,0,1-1.237-.207,1.207,1.207,0,0,1-.38-.972c.006-1.958,0-3.917,0-5.875q0-4.452,0-8.9a1.157,1.157,0,0,1,1.583-1.16,1.181,1.181,0,0,1,.722,1.18q0,3.695,0,7.389" transform="translate(-184.009 -140.664)" fill="#173a8d"/>
  </g>
</svg>
