<svg xmlns="http://www.w3.org/2000/svg" width="48.93" height="48.83" viewBox="0 0 48.93 48.83">
  <path id="Path_6690" data-name="Path 6690" d="M48.93,47.459c-.517,1.088-1.151,1.538-2.079,1.317a2.629,2.629,0,0,1-1.156-.687q-4.919-4.842-9.8-9.725a4.073,4.073,0,0,1-.32-.407A21.7,21.7,0,0,1,4.793,35.064,21.546,21.546,0,0,1,35.947,5.5a21.491,21.491,0,0,1,2.04,30.038,3.85,3.85,0,0,1,.445.334q4.695,4.662,9.376,9.337A16.6,16.6,0,0,1,48.93,46.6Zm-9.338-25.9a18.012,18.012,0,1,0-18,17.939,17.988,17.988,0,0,0,18-17.939" transform="translate(0 0)" fill="#173a8d"/>
</svg>
