<svg id="Group_3374" data-name="Group 3374" xmlns="http://www.w3.org/2000/svg" xmlns:xlink="http://www.w3.org/1999/xlink" width="48" height="47.964" viewBox="0 0 48 47.964">
  <defs>
    <clipPath id="clip-path">
      <rect id="Rectangle_2042" data-name="Rectangle 2042" width="48" height="47.964" fill="#173a8d"/>
    </clipPath>
  </defs>
  <g id="Group_3373" data-name="Group 3373" clip-path="url(#clip-path)">
    <path id="Path_6691" data-name="Path 6691" d="M0,6.537a1.9,1.9,0,0,1,2-1.12c7.232.022,14.464.012,21.7.012h.589C25.433,1.908,27.736-.144,31.5.007c3.44.138,5.5,2.185,6.523,5.422h.54c2.609,0,5.217,0,7.826,0A1.5,1.5,0,0,1,47.924,6.5a1.382,1.382,0,0,1-.575,1.639,2.2,2.2,0,0,1-1.056.276c-2.577.023-5.154.012-7.732.012h-.543c-.046.119-.1.229-.129.343a6.963,6.963,0,0,1-13.435.04c-.108-.382-.31-.386-.606-.386-7.326,0-14.652-.007-21.977.015A1.768,1.768,0,0,1,0,7.286ZM31.157,2.962a3.981,3.981,0,0,0-.019,7.962,3.981,3.981,0,1,0,.019-7.962" transform="translate(0 0.001)" fill="#173a8d"/>
    <path id="Path_6692" data-name="Path 6692" d="M0,278.317a1.755,1.755,0,0,1,1.868-1.154c7.312.022,14.624.01,21.936.02.381,0,.56-.084.672-.486a6.971,6.971,0,0,1,13.385.007l.135.471h.574c2.641,0,5.281,0,7.921.005a1.484,1.484,0,0,1,.571,2.862,2.465,2.465,0,0,1-.824.126c-2.562.009-5.125.005-7.687.005h-.534c-.155.433-.274.868-.461,1.272a6.884,6.884,0,0,1-5.277,4.105,1.467,1.467,0,0,0-.218.076H30.185a1.776,1.776,0,0,0-.256-.089,6.952,6.952,0,0,1-3.541-1.783,7.082,7.082,0,0,1-2.057-3.581h-.616c-7.24,0-14.48-.01-21.719.012a1.917,1.917,0,0,1-2-1.12Zm31.136,4.324a3.981,3.981,0,1,0-3.955-4.008,3.983,3.983,0,0,0,3.955,4.008" transform="translate(0 -237.664)" fill="#173a8d"/>
    <path id="Path_6693" data-name="Path 6693" d="M0,142.268a1.818,1.818,0,0,1,1.933-1.138c2.515.039,5.03.013,7.546.013h.5a7.028,7.028,0,0,1,13.713,0H46.175a3.577,3.577,0,0,1,.561.02,1.5,1.5,0,0,1-.133,2.973c-.171.013-.343.006-.515.006H23.667a7.053,7.053,0,0,1-2.924,4.28,6.868,6.868,0,0,1-3.925,1.2,7.085,7.085,0,0,1-6.833-5.479H7.044c-1.7,0-3.407-.033-5.108.013A1.814,1.814,0,0,1,0,143.017Zm16.846,4.352a3.977,3.977,0,1,0-4-3.981,3.977,3.977,0,0,0,4,3.981" transform="translate(0 -118.672)" fill="#173a8d"/>
  </g>
</svg>
