<svg data-name="Group 3426" xmlns="http://www.w3.org/2000/svg" width="77" height="77.138" viewBox="0 0 77 77.138">
    <defs>
        <clipPath id="3y20dljita">
            <path data-name="Rectangle 2054" style="fill:none" d="M0 0h77v77.138H0z"/>
        </clipPath>
    </defs>
    <g data-name="Group 3425" style="clip-path:url(#3y20dljita)">
        <path data-name="Path 6703" d="M37.754 0h1.5A7.838 7.838 0 0 1 43.6 3.362a6.3 6.3 0 0 0 8.056 2.128 14.005 14.005 0 0 1 1.886-.727 4.906 4.906 0 0 1 6.485 3.65 16.282 16.282 0 0 1 .4 2.442 6.349 6.349 0 0 0 5.61 5.591 18.06 18.06 0 0 1 2 .286c2.5.553 4.1 2.219 4.282 4.413a8.126 8.126 0 0 1-.929 4.055 6.315 6.315 0 0 0 2.236 8.21A7.818 7.818 0 0 1 77 37.665v1.507a15.284 15.284 0 0 1-.612 1.438 9.024 9.024 0 0 1-2.9 2.9 6.354 6.354 0 0 0-2.165 8 14.913 14.913 0 0 1 .781 2.03 4.9 4.9 0 0 1-3.585 6.413 16.974 16.974 0 0 1-2.511.423A6.336 6.336 0 0 0 60.428 66c-.076.672-.15 1.348-.285 2.01a5.012 5.012 0 0 1-4.343 4.278 7.816 7.816 0 0 1-4.121-.938 6.269 6.269 0 0 0-8.148 2.2 8.508 8.508 0 0 1-4.276 3.59h-1.5a6.608 6.608 0 0 1-2.911-1.891c-.533-.631-1.03-1.292-1.535-1.946a6.078 6.078 0 0 0-6.2-2.5 24.084 24.084 0 0 0-3.243 1.134c-3.475 1.154-6.31-.5-7.02-4.079-.122-.613-.192-1.238-.263-1.861A6.309 6.309 0 0 0 11 60.38c-.668-.08-1.342-.149-2-.28-2.883-.581-4.643-2.788-4.275-5.52a11.6 11.6 0 0 1 .941-2.991 6.457 6.457 0 0 0-2.186-8.135 14.085 14.085 0 0 1-2.1-1.805 4.5 4.5 0 0 1 .019-6.494 15.305 15.305 0 0 1 2.167-1.847A6.415 6.415 0 0 0 5.7 25.347a15.92 15.92 0 0 1-.786-2.028 4.9 4.9 0 0 1 3.6-6.452 15.391 15.391 0 0 1 2.436-.416 6.348 6.348 0 0 0 5.62-5.585c.075-.672.146-1.349.283-2.01.6-2.924 2.74-4.651 5.5-4.288a13 13 0 0 1 3.2 1.019 6.328 6.328 0 0 0 7.808-2.162A7.928 7.928 0 0 1 37.754 0m16.538 45.2" style="fill:#173a8d"/>
        <path data-name="Line 256" transform="translate(24.5 37.568)" style="stroke:#fff;stroke-width:4px;fill:none" d="m0 0 10 10"/>
        <path data-name="Path 6718" d="M-.377 18.52 19 0" transform="translate(32.5 28.568)" style="stroke:#fff;stroke-width:4px;fill:none"/>
    </g>
</svg>
