<svg data-name="Group 3416" xmlns="http://www.w3.org/2000/svg" width="57.722" height="77" viewBox="0 0 57.722 77">
    <defs>
        <clipPath id="vp007pj12a">
            <path data-name="Rectangle 2052" style="fill:#173a8d" d="M0 0h57.722v77H0z"/>
        </clipPath>
    </defs>
    <g data-name="Group 3415" style="clip-path:url(#vp007pj12a)">
        <path data-name="Path 6702" d="M30.827 0C32.354.252 33.9.429 35.4.767a29.124 29.124 0 0 1 21.909 23.289c1.1 6.642-.088 12.955-2.509 19.109A78.46 78.46 0 0 1 42.806 63.1a115.623 115.623 0 0 1-11.874 12.854c-1.5 1.392-2.624 1.4-4.114 0A106.107 106.107 0 0 1 6.272 50.219a49.419 49.419 0 0 1-5.9-16.363A29.113 29.113 0 0 1 23.958.439C24.941.27 25.931.145 26.918 0zm-1.474 44.9a16.043 16.043 0 1 0-16.515-15.515A16.084 16.084 0 0 0 29.353 44.9" style="fill:#173a8d"/>
    </g>
</svg>
