<svg xmlns="http://www.w3.org/2000/svg" width="26.619" height="26.565" viewBox="0 0 26.619 26.565">
    <path data-name="Path 4516" d="M26.619 25.819c-.282.592-.626.836-1.131.716a1.43 1.43 0 0 1-.629-.374q-2.676-2.634-5.331-5.291a2.216 2.216 0 0 1-.174-.222 11.807 11.807 0 0 1-16.747-1.572A11.721 11.721 0 0 1 19.556 2.995a11.692 11.692 0 0 1 1.11 16.341 2.094 2.094 0 0 1 .242.182q2.554 2.536 5.1 5.08a9.028 9.028 0 0 1 .61.754zM21.54 11.728a9.8 9.8 0 1 0-9.794 9.759 9.786 9.786 0 0 0 9.794-9.759" style="fill:#173a8d"/>
</svg>
