<svg xmlns="http://www.w3.org/2000/svg" width="60" height="32.527" viewBox="0 0 60 32.527">
  <g id="Group_5469" data-name="Group 5469" transform="translate(0 0)">
    <g id="Group_5470" data-name="Group 5470" transform="translate(0 0)">
      <path id="Path_8571" data-name="Path 8571" d="M402.828,236.36c-1.09,0-2.039-.008-2.987,0-.619.007-.935-.251-.922-.9.017-.837.019-1.676,0-2.513-.014-.614.3-.864.868-.867.95-.006,1.9.017,2.849-.011a1.076,1.076,0,0,1,1.244.855,4.948,4.948,0,0,0,.32.7c1.013-2.366,2.01-4.6,2.927-6.866a4.571,4.571,0,0,1,4.669-3.1q9.8.029,19.608,0a4.535,4.535,0,0,1,4.614,3.049c.926,2.267,1.922,4.5,2.888,6.757.093-.041.179-.054.185-.084.244-1.179,1.029-1.434,2.11-1.323.719.074,1.451.014,2.177.018.573,0,.877.258.863.869-.02.837-.017,1.676,0,2.513.013.645-.3.907-.921.9-.947-.013-1.894,0-2.979,0a30.843,30.843,0,0,1,1.383,2.843,10.206,10.206,0,0,1,.672,2.8c.108,1.612-.035,3.241.045,4.856.125,2.535-.7,4.436-3.268,5.3,0,.787.008,1.54,0,2.292-.016,1.116-.463,1.613-1.551,1.641-1.228.031-2.459.035-3.686,0-1.015-.032-1.452-.518-1.477-1.531-.017-.7-.017-1.4-.027-2.093,0-.024-.025-.047-.074-.133H410.7c0,.747.013,1.491,0,2.235-.023,1.023-.451,1.491-1.476,1.523-1.228.038-2.458.035-3.686,0-1.06-.028-1.52-.51-1.548-1.564-.021-.78,0-1.561,0-2.366a4.371,4.371,0,0,1-3.1-3.152,6.3,6.3,0,0,1-.135-1.409c-.016-1.62.043-3.241-.02-4.858a7.38,7.38,0,0,1,.988-4.165c.393-.666.695-1.385,1.106-2.218m6.047-1.772h25.411c-.989-2.32-1.924-4.552-2.91-6.762-.08-.18-.5-.293-.759-.3-2.179-.023-4.359-.013-6.538-.013-3.828,0-7.656-.007-11.484.014-.281,0-.727.133-.816.33-.982,2.184-1.908,4.393-2.9,6.727m1.053,10.85c.977,0,1.954-.009,2.931,0a.679.679,0,0,0,.792-.748c.01-.753,0-1.507,0-2.261a.7.7,0,0,0-.757-.8q-2.889-.011-5.779,0c-.553,0-.8.293-.8.845.012.7.016,1.4,0,2.093-.016.652.3.893.926.875.893-.025,1.786-.006,2.68-.007m23.206,0c.977,0,1.954,0,2.931,0a.664.664,0,0,0,.764-.765c-.005-.753-.009-1.507,0-2.26a.679.679,0,0,0-.763-.78q-2.889-.011-5.777,0a.692.692,0,0,0-.771.782q0,1.13,0,2.26c0,.566.3.782.851.77.921-.021,1.842-.006,2.763-.007" transform="translate(-384.24 -223.664)" fill="#fff"/>
      <path id="Path_8572" data-name="Path 8572" d="M8.142,249.3c-.157.656-.314,1.3-.462,1.94a4.516,4.516,0,0,1-1.3,2.374,1.155,1.155,0,0,0-.263.769c-.018,2.9,0,5.8-.015,8.695a2.273,2.273,0,1,1-4.53.06q-.026-4.253.005-8.507a1.617,1.617,0,0,0-.517-1.3A3.609,3.609,0,0,1,.111,249.8q.516-2.38,1.122-4.74a3.845,3.845,0,0,1,4.894-2.954,3.752,3.752,0,0,1,2.283,1.91,17.846,17.846,0,0,0,3.562,5.093,4.06,4.06,0,0,0,1.341.73,1.508,1.508,0,0,1,1.094,1.482,1.411,1.411,0,0,1-1.349,1.316,3.5,3.5,0,0,1-2.562-.979c-.806-.715-1.528-1.525-2.353-2.361" transform="translate(0 -233.032)" fill="#fff"/>
      <path id="Path_8573" data-name="Path 8573" d="M92.271,4.464a4.529,4.529,0,1,1,4.447,4.617,4.547,4.547,0,0,1-4.447-4.617" transform="translate(-88.874 -0.001)" fill="#fff"/>
    </g>
  </g>
</svg>
