<svg id="Group_5467" data-name="Group 5467" xmlns="http://www.w3.org/2000/svg" xmlns:xlink="http://www.w3.org/1999/xlink" width="60.95" height="63.107" viewBox="0 0 60.95 63.107">
  <defs>
    <clipPath id="clip-path">
      <rect id="Rectangle_2838" data-name="Rectangle 2838" width="60.95" height="63.107" fill="#fff"/>
    </clipPath>
  </defs>
  <g id="Group_5466" data-name="Group 5466" clip-path="url(#clip-path)">
    <path id="Path_8563" data-name="Path 8563" d="M28.78,160.2c-1.176-.159-2.367-.248-3.527-.488-12.3-2.549-20.418-9.819-24.031-21.838a29.03,29.03,0,0,1,1.784-21.121c.052-.112.1-.224.16-.333a1.234,1.234,0,0,1,.14-.155l3.625,2.783a25.909,25.909,0,1,0,47.151.005l3.667-2.818c.137.274.257.5.365.735a30.42,30.42,0,0,1-20.606,42.379c-1.532.358-3.115.5-4.674.744-.2.031-.4.072-.6.108Z" transform="translate(0 -97.096)" fill="#fff"/>
    <path id="Path_8564" data-name="Path 8564" d="M41.558,136.738a20.981,20.981,0,0,1,.372-5.6c.589-3,.6-3,3.428-4.171a51.78,51.78,0,0,1,21.4-3.832,51.215,51.215,0,0,1,20.293,4.718,1.319,1.319,0,0,1,.8.914,23.66,23.66,0,0,1,.956,7.965A18.978,18.978,0,0,0,70.96,158.114a24.186,24.186,0,0,1-11.563,0,18.971,18.971,0,0,0-17.839-21.378m23.6,7.781a9.009,9.009,0,1,0-8.99-9.021,8.991,8.991,0,0,0,8.99,9.021" transform="translate(-34.671 -102.838)" fill="#fff"/>
    <path id="Path_8565" data-name="Path 8565" d="M23.708,10.045c.359,1.17.966,2.214-.022,3.189s-2.021.374-3.16.007c.336,1.135.969,2.2-.024,3.179s-2.025.356-3.144.027c.119.388.212.688.3.988a2.285,2.285,0,0,1-.835,2.624,2.234,2.234,0,0,1-2.7-.087c-1.672-1.26-3.372-2.49-4.979-3.829A5.567,5.567,0,0,1,7.32,11.018,12.193,12.193,0,0,1,12.7,2.21a10.394,10.394,0,0,1,6.157-2.2,5.755,5.755,0,0,1,5.082,2.481c1.015,1.443,2.138,2.81,3.2,4.216a2.281,2.281,0,0,1-2.623,3.617c-.227-.075-.452-.156-.813-.281" transform="translate(-6.078 -0.01)" fill="#fff"/>
    <path id="Path_8566" data-name="Path 8566" d="M249.355,16.438c-1.135.325-2.18.942-3.159-.033s-.369-2.018-.029-3.145c-.443.138-.8.242-1.161.362A1.846,1.846,0,0,1,242.6,11.23c.118-.346.231-.694.387-1.16l-.989.3A2.259,2.259,0,0,1,239.487,6.8c1.251-1.654,2.482-3.324,3.786-4.935A5.334,5.334,0,0,1,247.418.009a10.29,10.29,0,0,1,6.491,2.12,12.642,12.642,0,0,1,5.351,7.91,6.471,6.471,0,0,1-.449,4.387,6.319,6.319,0,0,1-1.509,1.9c-1.48,1.235-3.047,2.367-4.584,3.533a2.278,2.278,0,0,1-3.618-2.613c.075-.232.147-.464.255-.805" transform="translate(-199.612 -0.001)" fill="#fff"/>
    <path id="Path_8567" data-name="Path 8567" d="M133.585,19.6c-.076-1.844-1.375-2.947-2.28-4.268,3-1.831,13.585-1.869,17.811-.048a22.224,22.224,0,0,0-1.464,1.971,23.112,23.112,0,0,0-1.048,2.289,26.547,26.547,0,0,0-13.019.056" transform="translate(-109.682 -11.645)" fill="#fff"/>
    <path id="Path_8568" data-name="Path 8568" d="M220.38,56.011a19.867,19.867,0,0,0,1.083,1.891,4.2,4.2,0,0,0,2.155,1.462c.165.056.377.223.4.367s-.144.352-.285.449a2.8,2.8,0,0,1-2.358.612,2.55,2.55,0,0,1-1.674-3.555c.2-.423.452-.822.677-1.226" transform="translate(-183.319 -46.787)" fill="#fff"/>
    <path id="Path_8569" data-name="Path 8569" d="M126.678,55.273c.3.541.577.972.786,1.434a2.524,2.524,0,0,1-.537,2.78,2.469,2.469,0,0,1-2.781.5,6.186,6.186,0,0,1-.85-.487c-.323-.214-.327-.6.02-.7a4.751,4.751,0,0,0,3.363-3.527" transform="translate(-102.79 -46.171)" fill="#fff"/>
    <path id="Path_8570" data-name="Path 8570" d="M150.9,170.866a6.764,6.764,0,1,1,6.788-6.769,6.788,6.788,0,0,1-6.788,6.769" transform="translate(-120.415 -131.428)" fill="#fff"/>
  </g>
</svg>
