<svg id="Group_5474" data-name="Group 5474" xmlns="http://www.w3.org/2000/svg" xmlns:xlink="http://www.w3.org/1999/xlink" width="60.654" height="61.53" viewBox="0 0 60.654 61.53">
  <defs>
    <clipPath id="clip-path">
      <rect id="Rectangle_2840" data-name="Rectangle 2840" width="60.654" height="61.53" fill="none"/>
    </clipPath>
  </defs>
  <g id="Group_5473" data-name="Group 5473" clip-path="url(#clip-path)">
    <path id="Path_8582" data-name="Path 8582" d="M147.7,0a35.649,35.649,0,0,1,3.611.828A15.16,15.16,0,1,1,144.24.15c.272-.042.542-.1.814-.15Zm.546,24.225a11.208,11.208,0,0,0,1.377-.618,5.277,5.277,0,0,0,1.157-.942,4.763,4.763,0,0,0-.855-7.113c-1.616-1.214-3.25-2.4-4.874-3.607a1.15,1.15,0,0,1-.531-1.348,1.183,1.183,0,0,1,1.251-.832q.571-.005,1.141,0c1.009.01,1.362.325,1.491,1.326a1.81,1.81,0,0,0,1.945,1.635,1.85,1.85,0,0,0,1.641-1.959,4.713,4.713,0,0,0-3.19-4.309.743.743,0,0,1-.607-.783,1.722,1.722,0,0,0-1.593-1.6,1.637,1.637,0,0,0-1.854,1.264,1.3,1.3,0,0,1-1.165,1.288.555.555,0,0,0-.107.055,4.741,4.741,0,0,0-.655,8.083c1.635,1.256,3.311,2.457,4.967,3.684a1.19,1.19,0,0,1-.72,2.214c-.42,0-.841.007-1.262,0a1.192,1.192,0,0,1-1.339-1.215,1.8,1.8,0,1,0-3.586.338,4.609,4.609,0,0,0,3.062,4.148c.462.182.683.356.732.885a1.73,1.73,0,0,0,1.825,1.553,1.789,1.789,0,0,0,1.717-1.688c.014-.158.023-.317.033-.465" transform="translate(-110.155)" fill="#fff"/>
    <path id="Path_8583" data-name="Path 8583" d="M114.8,223.052c-2.383,0-4.767-.009-7.15.009a.744.744,0,0,1-.749-.435q-3.421-5.96-6.874-11.9a.758.758,0,0,1-.006-.876,12.416,12.416,0,0,1,9.154-6.136,11.227,11.227,0,0,1,9.788,3.214,1.179,1.179,0,0,0,.741.257c2.163.02,4.326,0,6.489.017a2.393,2.393,0,1,1-.039,4.781c-3,.006-6.008-.006-9.012.006a1.787,1.787,0,0,0-1.73,2.48,1.716,1.716,0,0,0,1.642,1.112c3,.014,6.009.031,9.012-.014a6.254,6.254,0,0,0,3.611-1.31q5.368-3.9,10.757-7.773a2.437,2.437,0,0,1,2.869-.154,2.4,2.4,0,0,1,1.168,2.567,2.37,2.37,0,0,1-1.018,1.637c-4.477,3.237-8.934,6.5-13.446,9.69a15.432,15.432,0,0,1-9.378,2.837c-1.942-.032-3.885-.006-5.828-.006" transform="translate(-83.852 -170.885)" fill="#fff"/>
    <path id="Path_8584" data-name="Path 8584" d="M9.97,238.349a1.891,1.891,0,0,1,1.759,1.044c1.441,2.517,2.9,5.026,4.348,7.538q2.011,3.482,4.023,6.963a1.757,1.757,0,0,1-.721,2.763q-3.945,2.289-7.9,4.562a1.748,1.748,0,0,1-2.76-.729q-4.173-7.223-8.338-14.45a1.732,1.732,0,0,1,.708-2.715q4-2.317,8-4.619a5.746,5.746,0,0,1,.877-.356" transform="translate(0 -200.082)" fill="#fff"/>
    <path id="Path_8585" data-name="Path 8585" d="M198.592,45.51c-.01.148-.019.307-.033.465a1.789,1.789,0,0,1-1.717,1.688,1.73,1.73,0,0,1-1.825-1.553c-.048-.529-.27-.7-.732-.885a4.609,4.609,0,0,1-3.062-4.148,1.8,1.8,0,1,1,3.586-.338,1.192,1.192,0,0,0,1.339,1.215c.42,0,.841,0,1.262,0a1.19,1.19,0,0,0,.72-2.214c-1.656-1.228-3.333-2.429-4.967-3.684a4.741,4.741,0,0,1,.655-8.083.556.556,0,0,1,.107-.055,1.3,1.3,0,0,0,1.165-1.288,1.637,1.637,0,0,1,1.854-1.264,1.722,1.722,0,0,1,1.593,1.6.743.743,0,0,0,.607.783,4.713,4.713,0,0,1,3.19,4.309,1.85,1.85,0,0,1-1.641,1.959,1.81,1.81,0,0,1-1.945-1.635c-.129-1-.482-1.317-1.491-1.326q-.571-.006-1.141,0a1.183,1.183,0,0,0-1.251.832,1.15,1.15,0,0,0,.531,1.348c1.625,1.2,3.258,2.393,4.874,3.607a4.763,4.763,0,0,1,.855,7.113,5.278,5.278,0,0,1-1.157.942,11.207,11.207,0,0,1-1.377.618" transform="translate(-160.503 -21.285)" fill="#fff" stroke="#fff" stroke-width="1"/>
  </g>
</svg>
