<svg id="Group_5472" data-name="Group 5472" xmlns="http://www.w3.org/2000/svg" xmlns:xlink="http://www.w3.org/1999/xlink" width="61" height="61.02" viewBox="0 0 61 61.02">
  <defs>
    <clipPath id="clip-path">
      <rect id="Rectangle_2840" data-name="Rectangle 2840" width="61" height="61.02" fill="#173a8d"/>
    </clipPath>
  </defs>
  <g id="Group_5471" data-name="Group 5471" clip-path="url(#clip-path)">
    <path id="Path_8576" data-name="Path 8576" d="M8.134,237.485c0,.535.009,1,0,1.46A1.027,1.027,0,0,1,7,240.1q-2.922.018-5.845,0c-.815,0-1.153-.4-1.154-1.32q0-9.309,0-18.618c0-1.08-.006-2.16,0-3.241C.01,216.079.373,215.7,1.2,215.7q2.859-.012,5.717,0c.856,0,1.211.377,1.219,1.256.005.59,0,1.181,0,1.728a41.655,41.655,0,0,1,4.3.712c1.808.488,3.55,1.218,5.341,1.779a10.521,10.521,0,0,0,2.818.609c3.132.073,6.267.013,9.4.021a4.066,4.066,0,1,1,.044,8.131c-3.536.019-7.073,0-10.609.007-.745,0-1.158.272-1.261.807-.137.709.33,1.22,1.151,1.223,2.329.008,4.659.017,6.988,0a35.321,35.321,0,0,0,4.878-.146A5.954,5.954,0,0,0,36.12,225.3a.578.578,0,0,1,.426-.7c3.768-1.619,7.527-3.259,11.295-4.881a3.491,3.491,0,0,1,4.662,1.575,3.416,3.416,0,0,1-1.63,4.618q-11.128,6.232-22.261,12.456a5.728,5.728,0,0,1-3.429.664c-5.647-.529-11.3-1.029-17.046-1.548" transform="translate(0 -179.084)" fill="#173a8d"/>
    <path id="Path_8577" data-name="Path 8577" d="M187.51,22.742l-4.045,2.435V24.37c0-2.351.006-4.7,0-7.053,0-.61-.077-1.173.659-1.517a.888.888,0,0,0,.185-1.3,1.043,1.043,0,0,0-1.356-.3,13.348,13.348,0,0,1-1.864.775,4.94,4.94,0,0,1-3.237-.217.683.683,0,0,0-.874.2q-3.488,3.52-7,7.012a3.948,3.948,0,0,1-5.054.552,3.814,3.814,0,0,1-.486-6c2.195-2.238,4.427-4.438,6.642-6.655a5.646,5.646,0,0,0,.438-.46,1,1,0,0,0-1.46-1.378c-.945.911-1.847,1.867-2.806,2.763a1.511,1.511,0,0,1-.922.383c-2.158.033-4.317.017-6.576.017.147-.184.232-.314.34-.422q3.276-3.282,6.556-6.562a7.15,7.15,0,0,1,5.306-2.172c4.934.015,9.867.005,14.8.005h.784c0-.34-.011-.648,0-.955A.993.993,0,0,1,188.55.018q2.032-.034,4.065,0a.989.989,0,0,1,1.011,1.01c.011.147,0,.3,0,.445q0,10.738,0,21.476c0,1.167-.3,1.462-1.46,1.463q-1.62,0-3.24,0c-1.079,0-1.374-.3-1.4-1.4,0-.084-.012-.167-.02-.272" transform="translate(-132.633 -0.001)" fill="#173a8d"/>
    <path id="Path_8578" data-name="Path 8578" d="M82.067,84.6c1.031-1.026,1.91-1.909,2.8-2.78a.568.568,0,0,1,.381-.146c1.089.053,2.178.125,3.342.2v.549q0,7.688,0,15.376c0,1.177-.293,1.477-1.446,1.477h-37.8c-1.116,0-1.42-.308-1.42-1.439q0-9.245,0-18.489c0-1.12.307-1.423,1.436-1.424H72.037a18.6,18.6,0,0,0-1.421,1.4,24,24,0,0,0-1.7,2.344c-.211.336-.439.323-.728.323H56.493c-1.1,0-1.3.177-1.464,1.282a2.076,2.076,0,0,1-1.828,1.76c-.955.12-1.2.393-1.206,1.343q0,2.256,0,4.511c0,.862.3,1.182,1.142,1.275a2.057,2.057,0,0,1,1.9,1.89c.1.861.408,1.154,1.264,1.155q11.942,0,23.885,0c.9,0,1.186-.276,1.294-1.19a2.067,2.067,0,0,1,1.872-1.854c.9-.1,1.169-.4,1.171-1.312q.006-2.288,0-4.575c0-.82-.3-1.118-1.112-1.252a10.878,10.878,0,0,1-1.345-.421" transform="translate(-39.793 -64.698)" fill="#173a8d"/>
    <path id="Path_8579" data-name="Path 8579" d="M110.32,115.781l1.974,1.117c0,.934.006,1.927-.008,2.92,0,.12-.092.315-.185.346a4.208,4.208,0,0,0-2.75,2.865h-1.423q-10.256,0-20.512.01a.761.761,0,0,1-.878-.561,3.724,3.724,0,0,0-2.3-2.224.518.518,0,0,1-.416-.587c.021-.8.019-1.609,0-2.413a.518.518,0,0,1,.4-.6,4.074,4.074,0,0,0,2.41-2.379.719.719,0,0,1,.512-.383c3.577-.021,7.155-.015,10.732-.012a1.519,1.519,0,0,1,.225.039c.049.386.069.785.152,1.171a5.909,5.909,0,0,0,9.673,3.24,28.551,28.551,0,0,0,2.391-2.552" transform="translate(-69.596 -94.55)" fill="#173a8d"/>
  </g>
</svg>
