<svg xmlns="http://www.w3.org/2000/svg" width="61.891" height="51.833" viewBox="0 0 61.891 51.833">
  <g id="Group_6239" data-name="Group 6239" transform="translate(1949.172 -7366.89)">
    <g id="Group_6238" data-name="Group 6238" transform="translate(-1949.172 7366.89)">
      <path id="Path_8621" data-name="Path 8621" d="M-871,7689.7a8.277,8.277,0,0,0,8.35-8.2,8.277,8.277,0,0,0-8.2-8.35,8.277,8.277,0,0,0-8.35,8.2A8.278,8.278,0,0,0-871,7689.7Z" transform="translate(909.943 -7664.343)" fill="#173a8d"/>
      <path id="Path_8622" data-name="Path 8622" d="M-1294.413,7805.008a3.567,3.567,0,0,0-4.491,2.3l-1.917,5.944a9.969,9.969,0,0,1-6.094,6.34,12.232,12.232,0,0,1-4.215.746h-8.069a9.786,9.786,0,0,0-8.349,4.63l-8.13,13.023a3.568,3.568,0,0,0,1.137,4.916,3.545,3.545,0,0,0,1.886.542,3.567,3.567,0,0,0,3.03-1.679l6.242-10v10.084a2.229,2.229,0,0,0,2.229,2.229h12.679a2.229,2.229,0,0,0,2.229-2.229v-15.083c.6-.156,1.2-.268,1.784-.481a17.056,17.056,0,0,0,10.432-10.847l1.917-5.944A3.569,3.569,0,0,0-1294.413,7805.008Z" transform="translate(1353.83 -7792.253)" fill="#173a8d"/>
      <path id="Path_8623" data-name="Path 8623" d="M-1925.089,7392.775a1.425,1.425,0,0,0,1.8-1.8l-1.772-5.314a12.777,12.777,0,0,0-2.226-15.013,12.821,12.821,0,0,0-18.132,0,12.821,12.821,0,0,0,0,18.132A12.779,12.779,0,0,0-1930.4,7391Zm-11.067-5.551a1.581,1.581,0,0,1-1.581-1.581,1.582,1.582,0,0,1,1.581-1.582,1.582,1.582,0,0,1,1.582,1.582A1.581,1.581,0,0,1-1936.156,7387.224Zm3.822-8.176a6.685,6.685,0,0,1-1.7,1.6,1.425,1.425,0,0,0-.8,1.371.726.726,0,0,1-.726.665h-1.137a.737.737,0,0,1-.73-.792,3.888,3.888,0,0,1,1.9-3.374,4.12,4.12,0,0,0,1.1-1.013,1.691,1.691,0,0,0,.112-1.774,2.06,2.06,0,0,0-2-1.073,2.1,2.1,0,0,0-2.3,1.854.731.731,0,0,1-.718.61h-1.148a.733.733,0,0,1-.729-.83,4.72,4.72,0,0,1,4.9-4.237,4.689,4.689,0,0,1,4.319,2.5A4.278,4.278,0,0,1-1932.334,7379.048Z" transform="translate(1949.172 -7366.891)" fill="#173a8d"/>
    </g>
  </g>
</svg>
