<svg id="Group_5469" data-name="Group 5469" xmlns="http://www.w3.org/2000/svg" width="60.708" height="53.113" viewBox="0 0 60.708 53.113">
  <g id="Group_5470" data-name="Group 5470">
    <path id="Path_8570" data-name="Path 8570" d="M112.619,0a3.3,3.3,0,0,1,2.3,2.8,1.406,1.406,0,0,0,2.014.818c.22-.132.436-.272.661-.4a2.688,2.688,0,0,1,3.235.384c.565.523,1.108,1.071,1.638,1.63a2.708,2.708,0,0,1,.4,3.379,1.234,1.234,0,0,1-.182.3c-.74.7-.2,1.365.06,2.028.039.1.21.163.334.2.339.1.689.172,1.029.274a2.776,2.776,0,0,1,2.025,2.686c.011.691.008,1.383,0,2.074a2.792,2.792,0,0,1-2.081,2.766c-.151.045-.3.086-.457.124a1.611,1.611,0,0,0-1.314,1.473,1.849,1.849,0,0,0,.41.879,2.98,2.98,0,0,1,.5,2.416A7.589,7.589,0,0,1,119.6,27.41a3.1,3.1,0,0,1-2.512-.581,1.411,1.411,0,0,0-2.215.894c-.5,1.973-1.35,2.628-3.406,2.629-.514,0-1.027.006-1.541,0a2.792,2.792,0,0,1-2.743-2.11,1.245,1.245,0,0,1-.085-.344c.023-1.012-.826-1.116-1.48-1.4-.1-.046-.294.053-.424.123-.313.168-.606.371-.92.536a2.672,2.672,0,0,1-3.181-.407c-.578-.538-1.135-1.1-1.676-1.675a2.694,2.694,0,0,1-.393-3.282,1.015,1.015,0,0,1,.155-.252c.711-.684.38-1.386.026-2.076a.648.648,0,0,0-.359-.253c-.318-.1-.649-.167-.971-.259a2.782,2.782,0,0,1-2.083-2.7q-.016-1.067,0-2.133a2.78,2.78,0,0,1,2.021-2.69,1.873,1.873,0,0,1,.515-.131c1,0,1.085-.855,1.3-1.493.08-.233-.241-.628-.423-.921a2.912,2.912,0,0,1-.472-2.363,7.768,7.768,0,0,1,3.533-3.556,3.175,3.175,0,0,1,2.624.6,1.383,1.383,0,0,0,2.14-.868A3.241,3.241,0,0,1,109.3,0Zm-1.628,9.485a5.69,5.69,0,1,0,5.657,5.661,5.7,5.7,0,0,0-5.657-5.661" transform="translate(-80.608)" fill="#173a8d"/>
    <path id="Path_8571" data-name="Path 8571" d="M0,52.787a12.8,12.8,0,0,1,.6-1.778,5.349,5.349,0,0,1,4.79-3.169c2.881-.1,5.768-.027,8.653-.028a.779.779,0,0,1,.164.034,1.037,1.037,0,0,1-.393,1.4,6.147,6.147,0,0,0-2.422,4.989,22.9,22.9,0,0,0,.143,3.543A5.97,5.97,0,0,0,13.8,61.558c.647.53.647.53.4,1.425H11.793q-2.875,0-5.75,0A5.69,5.69,0,0,1,.1,58.274,2.43,2.43,0,0,0,0,58V52.787" transform="translate(0 -40.219)" fill="#173a8d"/>
    <path id="Path_8572" data-name="Path 8572" d="M39.287,193.568H24.141V166.919c.682.04,1.361.111,2.04.114q4.415.019,8.83,0a.95.95,0,0,1,.773.4,32.57,32.57,0,0,0,3.1,3.085,5.788,5.788,0,0,0,4.632,1.176.817.817,0,0,1,.885.364,6.332,6.332,0,0,0,5.163,2.567,24.7,24.7,0,0,0,3.25-.107,6.036,6.036,0,0,0,4.155-2.484.722.722,0,0,1,.777-.351,6.3,6.3,0,0,0,5.568-1.85c.828-.815,1.572-1.715,2.384-2.547a1.008,1.008,0,0,1,.66-.231c2.825-.015,5.65,0,8.475-.015.783,0,1.566-.067,2.373-.1v26.628H62.05v-.642q0-6.134,0-12.268a1.955,1.955,0,0,0-2.209-2.226q-9.186,0-18.372,0a1.946,1.946,0,0,0-2.181,2.194q0,6.134,0,12.268v.685" transform="translate(-20.317 -140.481)" fill="#173a8d"/>
    <path id="Path_8573" data-name="Path 8573" d="M292.9,63.055a1.052,1.052,0,0,1,.391-1.435,6.149,6.149,0,0,0,2.416-4.988,22.53,22.53,0,0,0-.144-3.541,5.633,5.633,0,0,0-2.276-3.755,1.039,1.039,0,0,1-.379-1.442h2.516c1.935,0,3.87-.006,5.8,0a5.689,5.689,0,0,1,5.865,5.873,36.3,36.3,0,0,1-.128,4.608,5.445,5.445,0,0,1-5.154,4.658c-2.958.092-5.92.021-8.911.021" transform="translate(-246.393 -40.306)" fill="#173a8d"/>
    <rect id="Rectangle_2839" data-name="Rectangle 2839" width="5.619" height="11.307" transform="translate(22.794 41.781)" fill="#173a8d"/>
    <path id="Path_8574" data-name="Path 8574" d="M209.4,275.1c-1.825,0-3.6,0-5.376,0a2.044,2.044,0,0,1-.247-.032v-11.3H209.4Z" transform="translate(-171.504 -221.99)" fill="#173a8d"/>
    <path id="Path_8575" data-name="Path 8575" d="M183.45,85.739a1.895,1.895,0,1,1-1.882-1.893,1.908,1.908,0,0,1,1.882,1.893" transform="translate(-151.205 -70.566)" fill="#173a8d"/>
  </g>
</svg>
