<svg id="Group_5474" data-name="Group 5474" xmlns="http://www.w3.org/2000/svg" xmlns:xlink="http://www.w3.org/1999/xlink" width="60.567" height="60.173" viewBox="0 0 60.567 60.173">
  <defs>
    <clipPath id="clip-path">
      <rect id="Rectangle_2841" data-name="Rectangle 2841" width="60.567" height="60.173" fill="#173a8d"/>
    </clipPath>
  </defs>
  <g id="Group_5473" data-name="Group 5473" clip-path="url(#clip-path)">
    <path id="Path_8580" data-name="Path 8580" d="M162.248,256.208a5.25,5.25,0,0,1-1.55,2.246q-3.011,2.961-5.981,5.964a3.964,3.964,0,0,1-3,1.245c-7.294-.021-14.589.007-21.883-.022a4.6,4.6,0,0,0-4.389,2.438c-.24.426-.516.831-.734,1.18l-9.382-9.371c.8-1.036,1.684-2.19,2.58-3.334,1.275-1.625,2.484-3.309,3.858-4.847a10.185,10.185,0,0,1,7.624-3.493c4.552-.086,9.108-.042,13.662-.024a2.683,2.683,0,0,1,.316,5.343,5.741,5.741,0,0,1-.824.052c-1.932,0-3.864-.01-5.8.007a2.541,2.541,0,1,0-.009,5.076c4.712.016,9.424.005,14.135.007a2.851,2.851,0,0,0,2.1-.913c1.358-1.371,2.715-2.742,4.1-4.086a2.953,2.953,0,0,1,4.585.26,7.479,7.479,0,0,1,.588,1.208Z" transform="translate(-101.681 -218.807)" fill="#173a8d"/>
    <path id="Path_8581" data-name="Path 8581" d="M0,380.475l2.464-2.61,15.488,15.448H.707c-.236,0-.472.014-.707.022V380.475" transform="translate(0 -333.163)" fill="#173a8d"/>
    <path id="Path_8582" data-name="Path 8582" d="M252.25,27.095A13.547,13.547,0,1,1,265.8,13.524a13.594,13.594,0,0,1-13.549,13.57m-1.61-12.262c-.272-.254-.416-.383-.553-.519-.795-.791-1.585-1.587-2.382-2.375a1.812,1.812,0,1,0-2.6,2.526c1.287,1.327,2.611,2.619,3.922,3.923a1.866,1.866,0,0,0,3.019-.018q3.555-3.539,7.1-7.084a3.712,3.712,0,0,0,.4-.433,1.808,1.808,0,0,0-1.39-2.89,1.96,1.96,0,0,0-1.509.685c-1.833,1.839-3.677,3.667-5.509,5.507a5.957,5.957,0,0,0-.506.677" transform="translate(-210.426 0)" fill="#173a8d"/>
    <path id="Path_8583" data-name="Path 8583" d="M44.786,344.684c.373-.362.771-.8,1.22-1.171a1.11,1.11,0,0,1,1.468-.017,4.165,4.165,0,0,1,.481.434q6.609,6.589,13.215,13.181c.966.964.967,1.469.014,2.428-.263.264-.518.536-.739.765l-15.66-15.62" transform="translate(-39.488 -302.624)" fill="#173a8d"/>
  </g>
</svg>
