<svg id="Group_5467" data-name="Group 5467" xmlns="http://www.w3.org/2000/svg" xmlns:xlink="http://www.w3.org/1999/xlink" width="59.997" height="55.354" viewBox="0 0 59.997 55.354">
  <defs>
    <clipPath id="clip-path">
      <rect id="Rectangle_2838" data-name="Rectangle 2838" width="59.997" height="55.354" fill="#fff"/>
    </clipPath>
  </defs>
  <g id="Group_5466" data-name="Group 5466" clip-path="url(#clip-path)">
    <path id="Path_8563" data-name="Path 8563" d="M109.234,19.985c-.074-1.068-.086-2.145-.232-3.2a12.315,12.315,0,0,0-17.4-9.419,3.8,3.8,0,0,1-1.537.348c-3.565.03-7.131.016-10.7.016H78.309v3.111h1c5.207,0,10.414-.007,15.622,0A3.088,3.088,0,1,1,95.156,17c-3.368.022-6.735.006-10.1.008-1.526,0-1.938.352-2.2,1.85a4.14,4.14,0,0,1-1.986,2.632c-3.651,2.562-9.662,2.134-12.452-.94a4.447,4.447,0,0,1-.924-1.849c-.322-1.268-.721-1.678-2.017-1.693-.337,0-.674,0-1.071,0V4.847c4.485-.82,8.35-3.18,12.479-4.847h16.99c2.439.406,4.215,1.858,5.889,3.571C103.4,7.3,107.107,10.96,110.8,14.637a3.256,3.256,0,0,1,1.1,2.474,2.6,2.6,0,0,1-2.173,2.642,2.584,2.584,0,0,0-.493.228Z" transform="translate(-51.903)" fill="#fff"/>
    <path id="Path_8564" data-name="Path 8564" d="M9.345,0V21.589H.133c-.017-.356-.047-.708-.048-1.061Q.082,10.809.08,1.09C.08.727.028.363,0,0Z" fill="#fff"/>
    <path id="Path_8565" data-name="Path 8565" d="M199.394,132.583c1.024.392,2.056.764,3.066,1.19a1.615,1.615,0,0,1,.567.583A3.063,3.063,0,0,0,208.153,131a2.949,2.949,0,0,0-4.3-.826,1.5,1.5,0,0,1-1.82.158c-.4-.2-.8-.393-1.266-.623,2.624-1.658,5.275-2.158,8.1-.831.792.372,1.554.805,2.346,1.176a1.007,1.007,0,0,1,.595,1.085c-.024,2.379,0,4.757-.013,7.136-.005,1.561-.532,2.085-2.09,2.088q-4.16.007-8.319,0c-1.419,0-1.947-.537-1.955-1.947-.012-1.953-.015-3.907-.022-5.86Z" transform="translate(-160.704 -103.263)" fill="#fff"/>
    <path id="Path_8566" data-name="Path 8566" d="M223.277,207.53h3.09v.867q0,6.365,0,12.729a1.482,1.482,0,0,1-2.125,1.357,1.428,1.428,0,0,1-.988-1.589c.051-4.129.023-8.259.023-12.389Z" transform="translate(-179.933 -167.261)" fill="#fff"/>
    <path id="Path_8567" data-name="Path 8567" d="M176.09,112.83a12.906,12.906,0,0,1-4.993-5.5,5.555,5.555,0,0,0-.335-.774c-.7-1.045-.052-1.928.47-2.691.2-.3,1.017-.209,1.553-.213.156,0,.412.267.455.45a9.539,9.539,0,0,0,3.922,5.739c.042.03.061.093.13.2-1.736.358-1.03,1.765-1.218,2.807l.017-.022" transform="translate(-137.382 -83.533)" fill="#fff"/>
    <path id="Path_8568" data-name="Path 8568" d="M270.553,96.028a5.138,5.138,0,0,0-.27.742,12.209,12.209,0,0,1-3.624,6.726l-2.1-2.217a9.513,9.513,0,0,0,2.855-6.924l3.141,1.676v0" transform="translate(-213.223 -76.047)" fill="#fff"/>
    <path id="Path_8569" data-name="Path 8569" d="M248.788,51.986c2.7.445,5.757,4.435,5.739,7.641-.626-.617-1.178-1.158-1.727-1.7-.462-.458-.906-.933-1.382-1.375a5.057,5.057,0,0,1-1.822-2.838,7.2,7.2,0,0,0-.807-1.726" transform="translate(-200.513 -41.899)" fill="#fff"/>
  </g>
</svg>
