<svg id="Group_5472" data-name="Group 5472" xmlns="http://www.w3.org/2000/svg" xmlns:xlink="http://www.w3.org/1999/xlink" width="60.908" height="44.169" viewBox="0 0 60.908 44.169">
  <defs>
    <clipPath id="clip-path">
      <rect id="Rectangle_2839" data-name="Rectangle 2839" width="60.908" height="44.169" fill="#fff"/>
    </clipPath>
  </defs>
  <g id="Group_5471" data-name="Group 5471" clip-path="url(#clip-path)">
    <path id="Path_8574" data-name="Path 8574" d="M49.233,55.71c1.446-2.083.646-5.438-2.781-6.514a4.926,4.926,0,0,0-5.08-5.991c-.715-3.661-2.03-4.929-5.291-5.036a4.843,4.843,0,0,0-2.462-4.458,4.149,4.149,0,0,0-4.966.462l-1.1-1.3q1.822-2.373,3.646-4.75c2.626-3.419,5.261-6.832,7.87-10.265a1.347,1.347,0,0,1,1.262-.585c1.793,0,3.587-.136,5.377-.267,1.947-.142,3.888-.375,5.836-.5a8.3,8.3,0,0,1,3.89.65c-2.152.789-4.251,1.547-6.341,2.329a20.135,20.135,0,0,1-4.653,1.273c-3.028.366-3.177,3.137-2.143,4.773a5.522,5.522,0,0,0,4.714,2.693,37.839,37.839,0,0,0,4.812-.43c.8-.085,1.6-.217,2.4-.319a3.727,3.727,0,0,1,2.677.7c1.28.909,2.517,1.879,3.746,2.857q5.377,4.279,10.732,8.585a2.5,2.5,0,0,1,.924,3.089,3.035,3.035,0,0,1-2.932,2.069,2.188,2.188,0,0,1-1.08-.459c-1.982-1.548-3.937-3.131-5.908-4.694-.207-.164-.473-.407-.682-.381a1.339,1.339,0,0,0-.864.461c-.284.409-.061.812.311,1.109q1.947,1.556,3.9,3.111a2.483,2.483,0,0,1,.905,3.043,2.855,2.855,0,0,1-2.779,2.043A3.151,3.151,0,0,1,61.66,48.4c-1.315-.978-2.561-2.047-3.865-3.04a1.305,1.305,0,0,0-.959-.258c-.68.17-.769.988-.177,1.487.859.723,1.747,1.411,2.623,2.114a2.538,2.538,0,0,1,.771,3.245,2.979,2.979,0,0,1-3.073,1.831,2.036,2.036,0,0,1-.827-.4c-.943-.725-1.861-1.484-2.8-2.22-.557-.438-1.021-.433-1.355-.013s-.248.889.29,1.331c.677.556,1.338,1.137,2.058,1.632a1.258,1.258,0,0,1,.524,1.4,2.637,2.637,0,0,1-2.052,2.159,2.2,2.2,0,0,1-1.393-.245,24.909,24.909,0,0,1-2.2-1.711" transform="translate(-22.588 -13.521)" fill="#fff"/>
    <path id="Path_8575" data-name="Path 8575" d="M150.775,36.562a15.962,15.962,0,0,1-6.54,4.6c-.185.077-.545-.095-.743-.252q-5.8-4.612-11.573-9.251c-1.41-1.13-2.844-2.3-4.737-2.345a34.731,34.731,0,0,0-4.009.4c-1.357.13-2.717.313-4.075.316a3.568,3.568,0,0,1-2.679-1.244,3.851,3.851,0,0,1-.795-1.506.916.916,0,0,1,.8-1.188,6.065,6.065,0,0,1,.725-.141c2.614-.251,4.963-1.381,7.343-2.332a25.019,25.019,0,0,1,7.991-1.655,16.776,16.776,0,0,0,6.048-1.153c.142-.064.511.155.65.338q4.087,5.394,8.14,10.813l3.459,4.6" transform="translate(-94.77 -17.053)" fill="#fff"/>
    <path id="Path_8576" data-name="Path 8576" d="M3.64,18.364C2.8,17.691,2.009,17.1,1.27,16.45a3.278,3.278,0,0,1-.862-4.191A9.539,9.539,0,0,1,1.4,10.585Q4.577,6.4,7.807,2.264A9.454,9.454,0,0,1,9.3.817a2.652,2.652,0,0,1,3.254-.3c1.066.649,2.055,1.424,3.123,2.175L3.64,18.364" transform="translate(-0.001 -0.077)" fill="#fff"/>
    <path id="Path_8577" data-name="Path 8577" d="M252.025,2.548C253.112,1.8,254.1,1.035,255.178.4a2.621,2.621,0,0,1,3.194.311,11.453,11.453,0,0,1,1.743,1.766c2.017,2.636,3.991,5.3,5.967,7.97a10.668,10.668,0,0,1,.875,1.433c.986,1.895.771,3.2-.8,4.628-.693.633-1.454,1.192-2.253,1.841L252.025,2.548" transform="translate(-206.645 0)" fill="#fff"/>
    <path id="Path_8578" data-name="Path 8578" d="M25.96,125.869a3.036,3.036,0,0,1-2.97-3.092,2.965,2.965,0,0,1,.654-1.553,36.685,36.685,0,0,1,2.559-2.758,2.047,2.047,0,0,1,1.025-.559,3.224,3.224,0,0,1,3.085,1.753,2.485,2.485,0,0,1-.506,3.127Q28.689,124,27.559,125.2a1.723,1.723,0,0,1-1.6.673" transform="translate(-18.845 -96.654)" fill="#fff"/>
    <path id="Path_8579" data-name="Path 8579" d="M55.27,154.51a3.254,3.254,0,0,1-3.132-3.282,2.958,2.958,0,0,1,.634-1.493c.619-.791,1.375-1.474,2.035-2.235a2.422,2.422,0,0,1,2.6-.979,3.076,3.076,0,0,1,2.279,2.242,2.269,2.269,0,0,1-.538,2.305c-.849.924-1.677,1.871-2.578,2.742a5.4,5.4,0,0,1-1.3.7" transform="translate(-42.744 -120.067)" fill="#fff"/>
    <path id="Path_8580" data-name="Path 8580" d="M80.377,179.495a6.869,6.869,0,0,1,.732-1.452,31.225,31.225,0,0,1,2.667-2.842,2.249,2.249,0,0,1,1.44-.512,3.012,3.012,0,0,1,2.882,3.578,3.092,3.092,0,0,1-.654,1.144c-.64.75-1.333,1.454-2.008,2.173a2.4,2.4,0,0,1-2.928.831,3.482,3.482,0,0,1-2.131-2.918" transform="translate(-65.904 -143.233)" fill="#fff"/>
    <path id="Path_8581" data-name="Path 8581" d="M114.074,213.3a2.925,2.925,0,0,1-2.645-2.237,1.519,1.519,0,0,1,.293-1.074c.667-.812,1.439-1.537,2.129-2.331a.768.768,0,0,1,.935-.245,3.336,3.336,0,0,1,1.954,1.545,1.91,1.91,0,0,1-.2,2.305,16.528,16.528,0,0,1-1.43,1.513,4.446,4.446,0,0,1-1.032.524" transform="translate(-91.356 -170.016)" fill="#fff"/>
  </g>
</svg>
