<svg xmlns="http://www.w3.org/2000/svg" xmlns:xlink="http://www.w3.org/1999/xlink" width="90" height="90" viewBox="0 0 90 90">
  <defs>
    <clipPath id="clip-path">
      <rect id="Rectangle_1098" data-name="Rectangle 1098" width="46" height="46" transform="translate(0.178 0.445)" fill="none"/>
    </clipPath>
  </defs>
  <g id="Group_1965" data-name="Group 1965" transform="translate(-592 -1757)">
    <circle id="Ellipse_170" data-name="Ellipse 170" cx="45" cy="45" r="45" transform="translate(592 1757)" fill="#f5f4f7"/>
    <g id="Group_1802" data-name="Group 1802" transform="translate(613.822 1778.555)">
      <rect id="Rectangle_1099" data-name="Rectangle 1099" width="35" height="41" rx="17.5" transform="translate(6.178 5.445)" fill="#fff"/>
      <g id="Group_1801" data-name="Group 1801" transform="translate(0 0)">
        <g id="Group_1800" data-name="Group 1800" transform="translate(0 0)" clip-path="url(#clip-path)">
          <path id="Path_1664" data-name="Path 1664" d="M5.3,0H40.638c.024.066.079.074.14.085a6.157,6.157,0,0,1,5.25,6.175q.014,16.742,0,33.484a6.175,6.175,0,0,1-6.256,6.279c-3.132.015-6.263,0-9.395.01-.323,0-.434-.06-.432-.413q.037-7.82.038-15.64c0-.352.116-.414.435-.411,1.693.015,3.386.01,5.079.005a1.049,1.049,0,0,0,1.19-1.06c.188-1.576.365-3.152.56-4.727.137-1.111-.21-1.519-1.331-1.519H30.344c-.189,0-.4.05-.393-.269.041-1.707-.084-3.416.08-5.12a2.413,2.413,0,0,1,.9-1.79,3.243,3.243,0,0,1,1.937-.607c1-.026,2.008-.015,3.011-.033.809-.015,1.187-.385,1.194-1.186q.018-2.045,0-4.09c-.006-.839-.369-1.211-1.207-1.21-1.678,0-3.358-.062-5.033.041a8.473,8.473,0,0,0-5.119,1.922,8.494,8.494,0,0,0-2.883,6.305c-.112,1.87-.039,3.744-.041,5.617,0,.335-.094.435-.431.43-1.2-.019-2.4-.011-3.6-.006-.9,0-1.247.36-1.246,1.26q0,2.382.011,4.764c0,.917.365,1.28,1.281,1.281,1.214,0,2.427.01,3.641-.006.3,0,.376.084.375.377q-.03,7.843-.039,15.685c0,.252-.01.4-.349.4-5.469-.013-10.938.013-16.407-.023A6.143,6.143,0,0,1,.178,41.3C.13,41.107.163,40.882,0,40.722V5.3c.129-.053.085-.177.107-.271A6.189,6.189,0,0,1,5.033.107C5.127.085,5.251.129,5.3,0" transform="translate(0.42 0.169)" fill="#2e4882"/>
        </g>
      </g>
    </g>
  </g>
</svg>
