<svg xmlns="http://www.w3.org/2000/svg" xmlns:xlink="http://www.w3.org/1999/xlink" width="90" height="90" viewBox="0 0 90 90">
  <defs>
    <clipPath id="clip-path">
      <rect id="Rectangle_1257" data-name="Rectangle 1257" width="39.424" height="48.048" fill="none"/>
    </clipPath>
  </defs>
  <g id="Group_1964" data-name="Group 1964" transform="translate(-756 -1761)">
    <circle id="Ellipse_174" data-name="Ellipse 174" cx="45" cy="45" r="45" transform="translate(756 1761)" fill="#f5f4f7"/>
    <g id="Group_1963" data-name="Group 1963" transform="translate(786 1781.975)">
      <g id="Group_1962" data-name="Group 1962" clip-path="url(#clip-path)">
        <path id="Path_2239" data-name="Path 2239" d="M28.161,0a6.218,6.218,0,0,1,.71.313,2.172,2.172,0,0,1,1.182,1.9c.019,2.266,0,4.532,0,6.8L28.264,9q0-2.088,0-4.175c0-.615,0-.615-.595-.615q-12.643,0-25.286-.012c-.484,0-.59.13-.589.6q.02,17.9,0,35.794c0,.48.13.6.6.6q12.643-.021,25.286,0c.476,0,.594-.117.593-.593-.017-5.645-.009-11.29-.008-16.935l1.794-.015c0,.876.013,1.751.013,2.627q0,9.595,0,19.189a2.367,2.367,0,0,1-1.946,2.546,3.2,3.2,0,0,1-.607.04q-12.48,0-24.961,0A2.378,2.378,0,0,1,.008,45.5Q.007,24.105,0,2.711A2.484,2.484,0,0,1,1.7.094C1.736.081,1.76.033,1.791,0ZM15,46.173a1.678,1.678,0,1,0,.031-3.357,1.769,1.769,0,0,0-1.692,1.727A1.707,1.707,0,0,0,15,46.173M15.06,2.72c.655,0,1.31.005,1.964,0,.417,0,.643-.221.628-.578-.017-.408-.289-.457-.617-.455-1.309.005-2.619.007-3.929,0-.368,0-.694.086-.693.5,0,.4.306.54.682.538.655,0,1.31,0,1.964,0" transform="translate(0 -0.001)" fill="#3e4150"/>
        <path id="Path_2240" data-name="Path 2240" d="M147.492,71.726l1.786.016q3.423,0,6.846,0a2.54,2.54,0,0,1,2.525,2.532q0,4.783,0,9.566a2.541,2.541,0,0,1-2.518,2.539c-2.282,0-4.564,0-6.846,0l-1.794.015a2.557,2.557,0,0,0-1.657.294c-1.227.833-2.493,1.609-3.744,2.406-.681.434-1.365.862-2.113,1.334.119-.982.2-1.88.342-2.77.2-1.282.217-1.279-1.056-1.279h-.187a2.562,2.562,0,0,1-2.751-2.757q0-4.549,0-9.1a2.562,2.562,0,0,1,2.772-2.779l8.394-.015m1.7,6.013.07.018c0,1.231,0,2.462,0,3.693,0,.216.02.349.3.344.256,0,.357-.066.354-.342-.013-1.454-.006-2.908-.009-4.362,0-.119.03-.25-.118-.325a.793.793,0,0,0-1.039.417c-.4,1.211-.789,2.422-1.187,3.646a.754.754,0,0,1-.216-.443q-.549-1.668-1.081-3.34c-.169-.535-.6-.255-.908-.285s-.2.26-.2.42c-.008,1.423,0,2.845-.01,4.268,0,.267.082.347.346.346s.316-.093.311-.33c-.013-.641,0-1.282,0-1.923V77.819c.5,1.219.916,2.443,1.323,3.669.065.2.143.31.386.308a.383.383,0,0,0,.433-.311c.154-.507.327-1.009.5-1.512q.376-1.118.758-2.234m-6.9,4.131a2.845,2.845,0,0,0,.374,0,1.753,1.753,0,0,0,1.395-.83,1.305,1.305,0,0,0-.815-1.945c-.573-.2-1.176-.312-1.749-.51a.6.6,0,0,1-.282-.977c.391-.464,1.915-.528,2.155.264a.416.416,0,0,0,.642.286c.248-.126.054-.4-.033-.575a1.768,1.768,0,0,0-1.676-.916,1.8,1.8,0,0,0-1.718.751,1.167,1.167,0,0,0,.379,1.634,2.763,2.763,0,0,0,1,.384,4.562,4.562,0,0,1,1.206.363.7.7,0,0,1,.205,1.133c-.482.517-2.186.492-2.435-.478-.093-.361-.326-.3-.533-.262-.309.054-.141.306-.1.449a1.87,1.87,0,0,0,1.99,1.231m10.576,0c.094,0,.188,0,.281,0a1.667,1.667,0,0,0,1.634-1.349c.1-.706-.33-1.23-1.237-1.514-.119-.037-.238-.076-.36-.1a5.412,5.412,0,0,1-1.212-.345.592.592,0,0,1-.122-1.031,1.444,1.444,0,0,1,2.108.453c.134.3.361.227.546.188.257-.054.127-.281.089-.425a1.223,1.223,0,0,0-.369-.588,2.385,2.385,0,0,0-2.832-.056,1.2,1.2,0,0,0,.167,1.979,2.919,2.919,0,0,0,.96.358,4.579,4.579,0,0,1,1.206.365A.692.692,0,0,1,153.842,81c-.548.44-2.131.407-2.389-.592-.1-.377-.373-.231-.559-.205-.241.034-.1.245-.069.376a1.865,1.865,0,0,0,2.034,1.3" transform="translate(-119.227 -62.73)" fill="#c2e6f4"/>
        <path id="Path_2241" data-name="Path 2241" d="M40.747,38.239l-8.394.015a2.562,2.562,0,0,0-2.772,2.779q0,4.549,0,9.1a2.562,2.562,0,0,0,2.751,2.757h.188c1.273,0,1.256,0,1.055,1.279-.139.889-.223,1.787-.342,2.769.747-.472,1.431-.9,2.112-1.334,1.251-.8,2.517-1.573,3.744-2.406a2.558,2.558,0,0,1,1.657-.294c0,5.645-.008,11.29.008,16.935,0,.476-.117.594-.593.593q-12.643-.023-25.286,0c-.473,0-.6-.12-.6-.6q.021-17.9,0-35.794c0-.468.105-.6.589-.6q12.643.024,25.286.012c.594,0,.594,0,.595.615q0,2.088,0,4.175" transform="translate(-12.483 -29.243)" fill="#45a7ff"/>
        <path id="Path_2242" data-name="Path 2242" d="M108.033,344.718a1.707,1.707,0,0,1-1.66-1.63,1.769,1.769,0,0,1,1.691-1.727,1.678,1.678,0,1,1-.031,3.357" transform="translate(-93.031 -298.546)" fill="#81899d"/>
        <path id="Path_2243" data-name="Path 2243" d="M101.627,14.449c-.655,0-1.31,0-1.964,0-.376,0-.682-.142-.682-.538,0-.414.325-.5.693-.5,1.31.008,2.619.006,3.929,0,.328,0,.6.048.617.455.015.357-.212.574-.628.578-.655.007-1.309,0-1.964,0" transform="translate(-86.567 -11.73)" fill="#81899d"/>
        <path id="Path_2244" data-name="Path 2244" d="M210.6,112.408q-.379,1.117-.758,2.234c-.169.5-.342,1-.5,1.512a.383.383,0,0,1-.433.311c-.243,0-.321-.111-.386-.308-.407-1.226-.821-2.45-1.323-3.669v1.722c0,.641-.009,1.282,0,1.923,0,.237-.056.329-.311.33s-.348-.079-.346-.346c.011-1.423,0-2.845.01-4.268,0-.16-.108-.449.2-.42s.739-.25.908.284q.53,1.674,1.081,3.34a.754.754,0,0,0,.216.443c.4-1.224.792-2.435,1.187-3.646a.793.793,0,0,1,1.039-.417c.148.076.118.207.118.325,0,1.454,0,2.908.009,4.362,0,.276-.1.338-.354.342-.275,0-.3-.128-.3-.344.006-1.231,0-2.462,0-3.693l-.07-.018" transform="translate(-180.635 -97.4)" fill="#5c6071"/>
        <path id="Path_2245" data-name="Path 2245" d="M169.4,116.291a1.871,1.871,0,0,1-1.99-1.231c-.038-.143-.205-.4.1-.449.207-.036.44-.1.533.262.249.97,1.954.994,2.435.478a.7.7,0,0,0-.205-1.133,4.559,4.559,0,0,0-1.207-.363,2.767,2.767,0,0,1-1-.384,1.167,1.167,0,0,1-.379-1.634,1.8,1.8,0,0,1,1.718-.751,1.768,1.768,0,0,1,1.676.916c.087.175.282.449.033.575a.416.416,0,0,1-.643-.286c-.24-.792-1.764-.728-2.155-.264a.6.6,0,0,0,.282.977c.573.2,1.176.312,1.749.51a1.305,1.305,0,0,1,.815,1.945,1.753,1.753,0,0,1-1.395.83,2.846,2.846,0,0,1-.375,0" transform="translate(-146.348 -97.151)" fill="#5c6071"/>
        <path id="Path_2246" data-name="Path 2246" d="M253.487,116.29a1.866,1.866,0,0,1-2.034-1.3c-.034-.131-.172-.342.069-.375.186-.026.462-.171.559.205.258,1,1.841,1.031,2.389.592a.692.692,0,0,0-.123-1.194,4.58,4.58,0,0,0-1.206-.365,2.919,2.919,0,0,1-.96-.358,1.2,1.2,0,0,1-.167-1.979,2.385,2.385,0,0,1,2.832.056,1.223,1.223,0,0,1,.369.588c.038.144.167.371-.089.425-.185.039-.412.116-.546-.188a1.444,1.444,0,0,0-2.108-.453.592.592,0,0,0,.122,1.031,5.412,5.412,0,0,0,1.212.345c.121.028.24.067.36.1.908.284,1.336.808,1.237,1.514a1.667,1.667,0,0,1-1.634,1.349c-.093.006-.187,0-.281,0" transform="translate(-219.856 -97.147)" fill="#5c6071"/>
      </g>
    </g>
  </g>
</svg>
