<svg xmlns="http://www.w3.org/2000/svg" xmlns:xlink="http://www.w3.org/1999/xlink" width="563.185" height="399.651" viewBox="0 0 563.185 399.651">
  <defs>
    <clipPath id="clip-path">
      <rect id="Rectangle_1104" data-name="Rectangle 1104" width="63.268" height="99.994" fill="#00073f"/>
    </clipPath>
    <clipPath id="clip-path-2">
      <path id="Path_1702" data-name="Path 1702" d="M85.444,125.983c-1.215.521-2.38,1.091-3.532,1.686h-4.35l-41.805-100L88.431,45.235s10.6,19.88,10.6,23.152c0,4.375-6.061,29.213-14.228,56.009a16.193,16.193,0,0,1,.644,1.586" transform="translate(-35.756 -27.673)" fill="#00073f"/>
    </clipPath>
  </defs>
  <g id="Group_1812" data-name="Group 1812" transform="translate(-764.803 56.336)">
    <path id="Path_1699" data-name="Path 1699" d="M37.179,96.506c-1.983-27.986,3.049-62,5.565-66.1,4,5.714,13.324,3.483,13.324,3.483-1.153,12.568,11.576,30.279,28.99,8.341C80.521,73.081,78.3,86.516,77.522,96.506Z" transform="translate(848.797 246.808)" fill="#003cca"/>
    <path id="Path_1700" data-name="Path 1700" d="M55.235,85.214c-.756.2-1.648.446-2.7.707H37.623c-5.429-16.162,3.941-43.243,3.941-43.243s11.217,1.016,17.711-11.341c4,13.138,9.568,7.647,9.568,7.647S61.432,68.123,57.169,84.322q-.985.428-1.933.892" transform="translate(874.877 257.395)" fill="#00073f"/>
    <g id="Group_1811" data-name="Group 1811" transform="translate(764.803 -56.336)">
      <path id="Path_1669" data-name="Path 1669" d="M101.115,58.037C94.7,55.029,71.774,56.125,64.372,49.4c-6.866-6.273-16.18-23.437-16.18-23.437L37.245,37.228S49.288,58.674,54.946,62.5c4.428,3.019,30.571,22.956,35.77,19.669,5.222-3.31,10.4-24.13,10.4-24.13" transform="translate(45.607 264.403)" fill="#021c5c"/>
      <path id="Path_1690" data-name="Path 1690" d="M61.009,27.114c-1.957,3.455-5.155,7.279-5.121,13.317l.034,6.072L36.1,41.94s4.607-7.715,3.712-12.188,21.2-2.639,21.2-2.639" transform="translate(98.561 272.317)" fill="#6a4331"/>
      <path id="Path_1694" data-name="Path 1694" d="M38.9,25.823c1.744-.089,5.624-1.2,5.882,1.018.212,2.214-3.343,7.167-7.223,6.955-3.847-.212,1.342-7.973,1.342-7.973" transform="translate(114.271 259.305)" fill="#7c4332"/>
      <path id="Path_1697" data-name="Path 1697" d="M80.548,115.112c-2.826,7.585-3.892,7.412-3.892,7.412l-15.146,1.76H36.35c-.607-10.225-2.169-45.573,3.9-62.578,5.4-15.146,16.187-29.771,19.707-29.138s23.561-4.6,23.561-4.6c2.157,5.751,11.589,16.6,10.3,32.46-.93,11.44-7.969,40.442-13.274,54.683" transform="translate(87.674 275.355)" fill="#003cca"/>
      <path id="Path_1698" data-name="Path 1698" d="M73.2,69.951c-1.3,5.131-1.624-3.706-1.475-4.078,3.631-9.543,6.222-31.593-2.07-34.257C60.8,28.753,42.4,44.927,41.865,65.873c-2,2.838-5.763-2.59-5.763-2.59s6.445-31.134,26.412-34.53c15.765-2.7,21.281,16.98,14.774,44.681Z" transform="translate(96.833 281.462)" fill="#3357bc"/>
      <g id="Group_1809" data-name="Group 1809" transform="translate(117.813 299.651)" style="mix-blend-mode: multiply;isolation: isolate">
        <g id="Group_1808" data-name="Group 1808">
          <g id="Group_1807" data-name="Group 1807" clip-path="url(#clip-path)">
            <g id="Group_1806" data-name="Group 1806" transform="translate(0.001 0.004)">
              <g id="Group_1805" data-name="Group 1805" clip-path="url(#clip-path-2)">
                <rect id="Rectangle_1103" data-name="Rectangle 1103" width="113.135" height="87.387" transform="matrix(-0.264, -0.965, 0.965, -0.264, 4.394, 116.074)" fill="#00073f"/>
              </g>
            </g>
          </g>
        </g>
      </g>
      <g id="Group_1810" data-name="Group 1810" transform="translate(0 0)">
        <path id="Path_1665" data-name="Path 1665" d="M56.826,27.423a1.777,1.777,0,0,0-.537-2.46c-3.455-2.18-12.009-6.306-15.71-8.6a1.758,1.758,0,0,0-2.438.581,1.78,1.78,0,0,0,.581,2.438c3.981,2.449,12.591,6.608,15.654,8.576a1.741,1.741,0,0,0,.95.28,1.77,1.77,0,0,0,1.5-.816" transform="translate(82.496 163.9)" fill="#232121"/>
        <path id="Path_1666" data-name="Path 1666" d="M56.842,28.119a1.774,1.774,0,0,0-.548-2.449c-3.455-2.18-12.009-6.306-15.71-8.6a1.78,1.78,0,0,0-1.867,3.03c3.992,2.438,12.6,6.608,15.666,8.576a1.827,1.827,0,0,0,.95.268,1.762,1.762,0,0,0,1.51-.827" transform="translate(82.489 171.179)" fill="#232121"/>
        <path id="Path_1667" data-name="Path 1667" d="M56.842,28.828a1.772,1.772,0,0,0-.548-2.449c-3.455-2.18-12.009-6.3-15.7-8.588h-.022a1.748,1.748,0,0,0-2.426.593,1.768,1.768,0,0,0,.581,2.438c3.981,2.438,12.591,6.6,15.654,8.554a1.768,1.768,0,0,0,.95.28,1.787,1.787,0,0,0,1.51-.827" transform="translate(82.489 178.463)" fill="#232121"/>
        <path id="Path_1668" data-name="Path 1668" d="M56.842,29.54a1.765,1.765,0,0,0-.559-2.449c-3.444-2.169-12-6.306-15.7-8.6V18.5a1.777,1.777,0,1,0-1.856,3.03c3.981,2.438,12.591,6.6,15.666,8.565a1.692,1.692,0,0,0,.939.268,1.773,1.773,0,0,0,1.51-.827" transform="translate(82.489 185.736)" fill="#232121"/>
        <path id="Path_1670" data-name="Path 1670" d="M61.223,50.69c.391-1.275-3.053-6.06-2.236-7.984,1.957-4.551-.157-8.42.57-10.768s-.257-9.851-2.348-7.279c-1.867,2.315-1.565,6.06-2.438,4.719s-3.41-5.568-4.249-5.624-8.733,10.153-8.643,11.9,2.382,10.611,3.768,12.333,1.2,7.883,1.688,9.75S60.9,51.741,61.223,50.69" transform="translate(33.661 241.852)" fill="#552f24"/>
        <path id="Path_1671" data-name="Path 1671" d="M39.039,73.079A12.112,12.112,0,0,1,40.839,68c2.035-3.634,4.73-2.918,6.485-2.918,1.756-.022,3.03-.045,4.048-.794s27.719-28.5,28.938-29.62c1.241-1.107,1.823-2.46,2.281-7.38.447-4.9,3.556-5.468,5.468-5.971a11.056,11.056,0,0,1,6.128.022,7.971,7.971,0,0,1,1.565.827,20.377,20.377,0,0,0-4.763,2.438c-2.024,1.711-2.024,4.193.324,6.586,2.695,2.628,4.864,1.968,6.664.022a16.457,16.457,0,0,0,2.4-4.338l.66.749c.816,1.006.928,3.936.078,7.179-.5,1.912-1.275,5.211-6.239,5.445s-6.318.827-7.492,2S57.377,68.808,56.583,69.781c-.794,1.006-.861,2.438-.962,4.193-.1,1.778.268,4-3.5,5.848-3.366,1.633-5.949,1.767-6.687,1.543a1.528,1.528,0,0,1-.716-.358c-.581-.593,3.433-.738,4.9-3.914.212-.447-1.375-5.345-5.993-6.161-.526-.1-4.517,3.869-4.584,3.5a4.434,4.434,0,0,1,0-1.353" transform="translate(25.499 212.786)" fill="#758b9b"/>
        <path id="Path_1672" data-name="Path 1672" d="M92.315,25.771a16.636,16.636,0,0,0,2.4-4.338l.66.749c.816,1.006.917,3.936.078,7.179-.5,1.912-1.286,5.211-6.239,5.445s-6.318.816-7.492,2S51.715,63.364,50.921,64.337c-.794,1.006-.861,2.438-.962,4.193-.112,1.778.268,4-3.511,5.837-3.366,1.644-5.949,1.778-6.687,1.554a1.587,1.587,0,0,1-.716-.358c-.57-.593,3.444-.738,4.909-3.914.145-.291-.537-2.5-2.3-4.238L85.17,25.2c.157.179.291.358.47.548,2.706,2.628,4.875,1.968,6.675.022" transform="translate(31.161 218.231)" fill="#414e5b"/>
        <rect id="Rectangle_1100" data-name="Rectangle 1100" width="25.863" height="327.846" transform="translate(249.426 71.799)" fill="#758b9b"/>
        <path id="Path_1673" data-name="Path 1673" d="M27.955,334.267V11.385l8.286-4.965V334.267Z" transform="translate(214.355 65.377)" fill="#414e5b"/>
        <path id="Path_1674" data-name="Path 1674" d="M28.829,34.9c0,2.337,1.532,4.2,3.444,4.2h9.191c1.9,0,3.455-1.867,3.455-4.2V9.578c0-2.337-1.554-4.238-3.455-4.238H32.273c-1.912,0-3.444,1.9-3.444,4.238Z" transform="translate(195.909 54.377)" fill="#758b9b"/>
        <path id="Path_1675" data-name="Path 1675" d="M25.447,28.455c0,2.315,1.621,4.215,3.612,4.215h48.8c2,0,3.623-1.9,3.623-4.215V8.73c0-2.326-1.621-4.215-3.623-4.215h-48.8c-1.99,0-3.612,1.89-3.612,4.215Z" transform="translate(197.166 45.976)" fill="#414e5b"/>
        <rect id="Rectangle_1101" data-name="Rectangle 1101" width="275.516" height="17.03" transform="translate(193.819 255.39)" fill="#758b9b"/>
        <path id="Path_1676" data-name="Path 1676" d="M25.222,106.556c21.368-8.3,122.517-31.734,122.517-31.734L250.51,19.92C340.7-7.363,439.212,13.7,455.235,21.43c7.783,3.746,58.145,42.121,75.946,56.344,0,0,18.617,2.013,22.553,30.269,1.811,13.138,3.556,22.184,8.308,43.922C569.154,184.581,540.674,184,540.674,184s-5.345.045-14.95.157a59.059,59.059,0,0,0,.716-9.068,57.854,57.854,0,1,0-114.791,10.231c-79.681-.291-139.793.022-224.438.6a43.817,43.817,0,0,0,.895-10.835A57.854,57.854,0,1,0,73.885,188.115c-31.924.034-45.532-.123-48.361-.559C10.093,185.185,2.68,171.834.309,159.959c-3.567-32.035,24.913-53.4,24.913-53.4m452.589-22.7S449.9,44.933,441.146,39.365c-19.333-12.311-85.439-11.249-85.439-11.249L344.268,84.047Zm-151.042.19s9.516-37.861,13.575-56.546c.224-1.051-42.7.034-75.331,8.23-17.98,4.517-27.294,12.613-37.235,18.718-41.6,25.55-42.054,29.262-42.054,29.262Z" transform="translate(0 64.842)" fill="#173a8d"/>
        <path id="Path_1677" data-name="Path 1677" d="M100.178,65.256A48.059,48.059,0,1,0,52.119,113.3a48.055,48.055,0,0,0,48.059-48.048" transform="translate(417.609 175.101)" fill="#232121"/>
        <path id="Path_1678" data-name="Path 1678" d="M72.694,52.161A33.674,33.674,0,1,0,39.026,85.84,33.677,33.677,0,0,0,72.694,52.161m-5.054,0A28.619,28.619,0,1,1,39.026,23.536,28.656,28.656,0,0,1,67.64,52.161" transform="translate(430.7 188.183)" fill="#fff"/>
        <path id="Path_1679" data-name="Path 1679" d="M5.684,55.53c12.222-.727,21.3-3.455,21.3-6.687s-9.08-5.949-21.312-6.675a31.224,31.224,0,0,1,4.092-9.84c9.147,8.118,17.488,12.646,19.78,10.343S27.321,32.037,19.192,22.89a31.418,31.418,0,0,1,6.34-3.086,30.84,30.84,0,0,1,3.5-.984c.727,12.21,3.444,21.3,6.687,21.3s5.96-9.091,6.675-21.312a30.717,30.717,0,0,1,9.817,4.081C44.1,32.048,39.587,40.367,41.879,42.671s10.634-2.225,19.792-10.343a31.005,31.005,0,0,1,3.075,6.329,30.445,30.445,0,0,1,1,3.511c-12.222.727-21.3,3.433-21.3,6.675s9.08,5.96,21.3,6.687a31.442,31.442,0,0,1-4.07,9.829c-9.158-8.129-17.5-12.646-19.792-10.343C39.587,57.3,44.1,65.649,52.233,74.8a30.8,30.8,0,0,1-6.34,3.075,30.385,30.385,0,0,1-3.5,1.018c-.716-12.244-3.444-21.335-6.675-21.335s-5.96,9.091-6.687,21.335A31.273,31.273,0,0,1,19.2,74.8c8.118-9.147,12.624-17.5,10.343-19.78-2.292-2.3-10.634,2.214-19.792,10.354a31.673,31.673,0,0,1-3.075-6.34,30.912,30.912,0,0,1-1-3.5" transform="translate(434.01 191.514)" fill="#fff"/>
        <path id="Path_1680" data-name="Path 1680" d="M29.2,13.694c-5.792.447-3.824.134-10.678.447l-12.132.436c-6.854.313-7.525,3.232-1.5,6.485l30.425,16.1c6.038,3.265,6.116,2.572,5.188-3.187L38.222,23.109c-1.018-5.412-3.6-9.829-9.024-9.415" transform="translate(513.59 139.164)" fill="#fff" stroke="#4d7ff5" stroke-width="5"/>
        <path id="Path_1681" data-name="Path 1681" d="M0,18.824H42.289c.425,1.979.872,4.059,1.364,6.318,2.918,13.418-.179,21.223-4.83,25.751H7.951c.034-.872.1-1.744.1-2.628A57.583,57.583,0,0,0,0,18.824" transform="translate(518.39 191.666)" fill="#758ecc"/>
        <path id="Path_1682" data-name="Path 1682" d="M12.914,18.824H251.665a57.692,57.692,0,0,0-8.051,29.441c0,.883.089,1.756.123,2.628H20.976c.011-.827.011-1.677.011-2.628a57.491,57.491,0,0,0-8.073-29.441" transform="translate(167.119 191.666)" fill="#758ecc"/>
        <path id="Path_1683" data-name="Path 1683" d="M43.947,18.824h79.681a57.482,57.482,0,0,0-8.062,29.441c0,.883.034,1.756.078,2.628H51.517a40.712,40.712,0,0,1-8.04-17.768,49.989,49.989,0,0,1,.47-14.3" transform="translate(-43.167 191.666)" fill="#758ecc"/>
        <path id="Path_1684" data-name="Path 1684" d="M21.618,17.822a3.3,3.3,0,0,0,3.287,3.3H51.261a3.3,3.3,0,0,0,0-6.6H24.905a3.3,3.3,0,0,0-3.287,3.3" transform="translate(266.899 147.874)" fill="#d8d8d8"/>
        <path id="Path_1685" data-name="Path 1685" d="M32.932,27.811c0,8.722,7.861,15.811,17.566,15.811,4.83,0,5.267-7.089,5.267-15.811S55.329,11.989,50.5,11.989c-9.706,0-17.566,7.089-17.566,15.822" transform="translate(139.185 122.075)" fill="#173a8d" stroke="#fff" stroke-width="3"/>
        <path id="Path_1686" data-name="Path 1686" d="M44.7,31.223s26.176-1.23,36.24-3.958c12.188-3.287,20.093-8.565,11.528-11.2s-35.58,1.319-35.58,1.319Z" transform="translate(-32.668 154.343)" fill="#fff" stroke="#4d7ff5" stroke-width="5"/>
        <rect id="Rectangle_1102" data-name="Rectangle 1102" width="31.488" height="372.036" transform="translate(320.743 27.608)" fill="#758b9b"/>
        <path id="Path_1687" data-name="Path 1687" d="M21.553,374.5v-366L31.639,2.469V374.5Z" transform="translate(290.548 25.141)" fill="#414e5b"/>
        <path id="Path_1688" data-name="Path 1688" d="M22.608,37.535c0,2.874,1.9,5.2,4.227,5.2H38.128c2.337,0,4.238-2.326,4.238-5.2V6.439c0-2.851-1.9-5.177-4.238-5.177H26.835c-2.326,0-4.227,2.326-4.227,5.177Z" transform="translate(268.022 12.854)" fill="#758b9b"/>
        <path id="Path_1689" data-name="Path 1689" d="M18.536,29.374c0,2.874,1.979,5.177,4.439,5.177h59.9c2.449,0,4.439-2.3,4.439-5.177V5.188C87.314,2.326,85.324,0,82.875,0h-59.9c-2.46,0-4.439,2.326-4.439,5.188Z" transform="translate(268.606 0.005)" fill="#414e5b"/>
        <path id="Path_1691" data-name="Path 1691" d="M52.655,24.782c9.817-5.289,33.411,6.105,25.394,21.111C63.49,73.209,45.689,65.136,45.689,65.136c-5.088-3.925-6.832-4.316-9.482-8.565-1.308-2.08-.559-5.557.917-9.907-1.364-1.554-3.187-2.974-2.136-4,2-.95,4.462-3.668,5.692-4.517,3.343-6.083,7.335-10.891,11.976-13.362" transform="translate(95.778 238.934)" fill="#533223"/>
        <path id="Path_1692" data-name="Path 1692" d="M42.993,61.288c-3.343-2.136-4-2.65-5.11-5.278-.95-2.236-.548-5.546.939-9.885-1.375-1.554-3.2-2.985-2.169-4.014,2.013-.95,4.484-3.656,5.714-4.506,3.343-6.072,4.886-11.517,9.527-13.966.492-.268,3.466.112,4.014-.056l6.81,7.57c-4.864,16.6-10.321,27.921-16.929,30.28l.984,15.084-10.287,3.4s5.5-14.346,6.508-18.629" transform="translate(94.002 239.683)" fill="#6a4331"/>
        <path id="Path_1693" data-name="Path 1693" d="M64.952,40.093c-.112-3.712-.727-8.1-7.659-12.244C50.561,23.812,45.563,22.068,38.4,24a5.411,5.411,0,0,0-3.958,4.618s5.568.324,6.9,1.744c1.331,1.4-2.784,2.225-2.482,6.508.257,3.6.548,8.554.548,8.554s5.311,6.675,4.081,8.99S45.764,66.09,45.764,66.09s6.664-1.185,13.261-8.14c9.806-10.332,5.937-16.963,5.926-17.857" transform="translate(112.409 236.345)" fill="#300901"/>
        <path id="Path_1695" data-name="Path 1695" d="M34.15,29.51c1.946,2.438,19.2,19.311,19.2,19.311S51.7,60.427,54.31,64.732s10.421,13.821,10.98,9.94c-.291-5.691-.38-13.161-.38-13.161s8.766-7.3,8.543-15.33c-.157-4.987-3.969-11.338-6.385-13.932-4.316-4.629-10.432-9.661-17.6-9.046A30.377,30.377,0,0,0,34.15,29.51" transform="translate(107.875 235.736)" fill="#003cca"/>
        <path id="Path_1696" data-name="Path 1696" d="M48.783,23.142a23.282,23.282,0,0,0-14.145,7c1.633,2.069,12.143,12.691,15.5,15.621,4.529-5.244,12.624-11.506,18.517-11.618-.19-.235-.6-.883-.783-1.107-2.292-2.706-10.365-10.746-19.087-9.9" transform="translate(107.221 234.993)" fill="#021c5c"/>
        <path id="Path_1701" data-name="Path 1701" d="M52.013,24.066c-1.811-1-3.366.335-2.952,2.091a2.229,2.229,0,0,0-2.382,3.008c-1.342-.436-3.533,1.565-3.108,3.086-1.152.693-1.342,3.019-.682,4.3.917,1.8,3.209,4.428,4.763,4.16,1.61-.291-1.532-5.009-1.532-5.009s1.778,3.511,3.533,3.612c0,0,1.688.458,1.252-.928-.447-1.409-2.259-5.882-2.259-5.882s3.12,5.2,3.746,4.976c1.129-.425,2.158-.682-1.61-7.95,2.527,4.473,3.321,5.278,4.585,4.719s-3.355-10.187-3.355-10.187" transform="translate(32.248 241.572)" fill="#864b3a"/>
        <path id="Path_1703" data-name="Path 1703" d="M36.889,39.649A20.72,20.72,0,1,0,57.6,18.929a20.713,20.713,0,0,0-20.708,20.72" transform="translate(72.375 192.735)" fill="#232121"/>
        <path id="Path_1704" data-name="Path 1704" d="M85.954,92.563s-7.056,1.543-12.132-1C66.5,87.855,52.611,77.859,48.183,70.132c-6.06-10.556-7.95-14.38-11.6-36.162-.47-2.8,13.138-9.963,13.138-9.963s11.226,30.313,13.664,33S88.437,73.677,91.266,77.837c3.321,4.886,2.885,12.881-5.311,14.726" transform="translate(61.002 244.448)" fill="#4d7ff5"/>
        <path id="Path_1705" data-name="Path 1705" d="M56.557,51.987c.157-.3-3.086-7.615-2.684-8.084,3.679-4.238,2.907-6.854,5.278-9.225,1.878-1.9,2.74-6.351-2-2.661-2.225,1.711-2.583.492-2.583.492s-1.152-.123-2.3-6.273c-.57-3.064-3.433-6.429-3.545-1.89-.335-3.209-3.3-3.835-3.444.056-.671-2.292-2.561-1.823-2.717,1.454-.458-1.23-1.386-.615-1.778,1.264-.246,1.23-1.7,2.851-.324,9.158s.347,19.031.347,19.031Z" transform="translate(56.698 221.02)" fill="#864b3a"/>
        <path id="Path_1706" data-name="Path 1706" d="M41.378,35.312a24.811,24.811,0,0,1,.089-9.985c.3-1.912,1.834-1.867,2.3-.66.123-2.538,1.655-3.768,2.494-2.057-1.4,7.167,1.856,23.191,3.992,29.877l-8.2,1.7s.5-12.523-.682-18.875" transform="translate(55.441 222.142)" fill="#552f24"/>
        <rect id="Rectangle_1105" data-name="Rectangle 1105" width="563.176" height="399.644" transform="translate(0.009)" fill="none"/>
        <rect id="Rectangle_1106" data-name="Rectangle 1106" width="563.181" height="399.638" transform="translate(0.002 0.005)" fill="none"/>
      </g>
    </g>
  </g>
</svg>
