<svg xmlns="http://www.w3.org/2000/svg" xmlns:xlink="http://www.w3.org/1999/xlink" width="90" height="89.032" viewBox="0 0 90 89.032">
  <defs>
    <clipPath id="clip-path">
      <rect id="Rectangle_1097" data-name="Rectangle 1097" width="60.458" height="46.099" fill="none"/>
    </clipPath>
  </defs>
  <g id="Group_1966" data-name="Group 1966" transform="translate(-398 -1757)">
    <g id="Group_1804" data-name="Group 1804" transform="translate(191 22.5)">
      <ellipse id="Ellipse_169" data-name="Ellipse 169" cx="45" cy="44.516" rx="45" ry="44.516" transform="translate(207 1734.5)" fill="#f5f4f7"/>
      <g id="Group_1799" data-name="Group 1799" transform="translate(221.454 1756.017)">
        <g id="Group_1798" data-name="Group 1798" clip-path="url(#clip-path)">
          <path id="Path_1653" data-name="Path 1653" d="M7.013,46.059c-1.493,0-2.988.058-4.478,0A2.735,2.735,0,0,1,.019,43.5C0,43.29.005,43.079.005,42.868Q.006,23.042,0,3.215A2.9,2.9,0,0,1,1.2.583,4.335,4.335,0,0,1,4.824.228c.126.109.245.227.378.324Q17.464,9.5,29.721,18.449a.71.71,0,0,0,1.018,0Q40.1,11.586,49.49,4.753c2.053-1.5,4.093-3.016,6.139-4.525,2.182-.523,4.1-.119,4.717,1.9a6.1,6.1,0,0,1,.1,1.75c.006.754-.015,1.507-.024,2.261l-6.995,5.085-.075.14c-.219-.029-.334.149-.477.255q-4.751,3.539-9.5,7.086-6.568,4.9-13.14,9.785L20.2,21.011q-2.909-2.169-5.819-4.339-3.672-2.727-7.35-5.444c-1.637-1.2-3.269-2.411-4.914-3.6A4.031,4.031,0,0,0,.551,6.633l-.13-.119L.29,6.392.235,6.34l.05.056.123.13.12.13a.686.686,0,0,0,.2.378C1.656,8.241,2.562,9.462,3.5,10.657,4.674,12.146,5.746,13.712,7,15.138c.007.083.02.167.02.25q0,15.335,0,30.671" transform="translate(0 0)" fill="#d33b35"/>
          <path id="Path_1654" data-name="Path 1654" d="M79.381.548c-2.046,1.509-4.087,3.026-6.139,4.526q-9.376,6.848-18.752,13.7a.71.71,0,0,1-1.018,0Q41.223,9.808,28.954.873c-.134-.1-.253-.216-.378-.324C28.747.316,29,.4,29.219.4Q53.979.4,78.739.4c.22,0,.471-.085.643.147" transform="translate(-23.752 -0.321)" fill="#f0efef"/>
          <path id="Path_1655" data-name="Path 1655" d="M88.354,201.328l-46.222,0,.023-.376a4.1,4.1,0,0,0,.379-.225q6.948-5.176,13.883-10.37c.429-.323.651-.249.917.109q3.519,4.734,7.173,9.365c.462.583,1.134.873,1.6.574,2.389-1.514,4.814-2.971,7.221-4.459,4.367-2.7,8.722-5.417,13.1-8.1a6.534,6.534,0,0,1,1.909-1.039q.007,7.26.013,14.52" transform="translate(-35.019 -155.269)" fill="#f0efef"/>
          <path id="Path_1656" data-name="Path 1656" d="M316.437,41.457l6.995-5.085c.01.188.029.377.029.565q0,18.112,0,36.225a2.878,2.878,0,0,1-2.155,3.082,5.793,5.793,0,0,1-1.445.078c-1.135-.006-2.269-.022-3.4-.034q0-8.866,0-17.732,0-8.55-.021-17.1" transform="translate(-263.013 -30.231)" fill="#b4281f"/>
          <path id="Path_1657" data-name="Path 1657" d="M41.576,100.957q-.011.188-.023.376l-.05.008-.05-.006q0-15.336,0-30.671c0-.083-.013-.167-.021-.251l.037-3.91q3.676,2.722,7.35,5.444,2.914,2.164,5.819,4.339l10.034,7.481c-.16.135-.314.279-.482.4-2.472,1.836-4.949,3.663-7.414,5.508-.365.273-.558.167-.8-.154-1.155-1.541-2.325-3.071-3.5-4.6q-4.3-5.615-8.6-11.226c-.733-.956-1.471-1.909-2.236-2.9a1.344,1.344,0,0,0-.088.741q-.006,13.416,0,26.831c0,.863.012,1.725.018,2.588" transform="translate(-34.44 -55.276)" fill="#adacac"/>
          <path id="Path_1658" data-name="Path 1658" d="M315.938,66.492q.011,8.55.021,17.1.005,8.866,0,17.732l-.054.01-.054-.009q-.007-7.26-.013-14.521c.006-1.135.017-2.269.018-3.4q.007-8.385.009-16.77l.075-.14" transform="translate(-262.514 -55.266)" fill="#adacac"/>
          <path id="Path_1659" data-name="Path 1659" d="M88.342,67.3q0,8.385-.009,16.77c0,1.135-.011,2.269-.018,3.4a6.533,6.533,0,0,0-1.909,1.039c-4.378,2.68-8.734,5.4-13.1,8.1-2.406,1.488-4.831,2.945-7.221,4.459-.471.3-1.142.009-1.6-.574q-3.663-4.624-7.174-9.365c-.266-.358-.488-.432-.917-.109q-6.921,5.212-13.883,10.37a4.062,4.062,0,0,1-.379.225c-.006-.863-.018-1.725-.018-2.587q0-13.416,0-26.832a1.344,1.344,0,0,1,.088-.741c.766.994,1.5,1.947,2.236,2.9q4.3,5.612,8.6,11.226c1.171,1.53,2.341,3.06,3.5,4.6.241.321.434.427.8.154,2.465-1.845,4.942-3.673,7.414-5.508.168-.125.321-.269.482-.4q6.57-4.892,13.14-9.785,4.75-3.541,9.5-7.086c.143-.107.258-.284.477-.255" transform="translate(-34.993 -55.939)" fill="#d9dad9"/>
          <path id="Path_1660" data-name="Path 1660" d="M9.633,43.881,9.6,47.791C8.346,46.365,7.274,44.8,6.1,43.311c-.94-1.195-1.847-2.417-2.773-3.623a.684.684,0,0,1-.2-.378l.023-.023a4.033,4.033,0,0,1,1.568.994c1.645,1.19,3.277,2.4,4.914,3.6" transform="translate(-2.6 -32.653)" fill="#b4281f"/>
          <path id="Path_1661" data-name="Path 1661" d="M1.441,37.609l-.051-.056.055.051,0,0" transform="translate(-1.155 -31.213)" fill="#b4281f"/>
          <path id="Path_1662" data-name="Path 1662" d="M1.813,37.993l-.123-.13,0,0,.132.122-.013.013" transform="translate(-1.405 -31.466)" fill="#b4281f"/>
          <path id="Path_1663" data-name="Path 1663" d="M2.432,38.579l.13.119-.023.023-.12-.13.013-.013" transform="translate(-2.011 -32.066)" fill="#b4281f"/>
        </g>
      </g>
    </g>
  </g>
</svg>
