<svg data-name="Group 2510" xmlns="http://www.w3.org/2000/svg" width="88" height="87.969" viewBox="0 0 88 87.969">
    <defs>
        <clipPath id="u259c43gza">
            <path data-name="Rectangle 1537" style="fill:#173a8d" d="M0 0h88v87.969H0z"/>
        </clipPath>
    </defs>
    <g data-name="Mask Group 2509" style="clip-path:url(#u259c43gza)">
        <path data-name="Path 4904" d="M41.069 87.969h5.845c.248-.055.493-.129.743-.163 1.557-.206 3.134-.313 4.671-.618a43.455 43.455 0 0 0 26.44-16.256 42.193 42.193 0 0 0 8.553-19.3c.266-1.573.455-3.159.679-4.739v-5.848c-.133-1.074-.247-2.151-.4-3.222a42.444 42.444 0 0 0-10.266-22.547C66.81 3.433 53.561-1.515 37.865.4a40.685 40.685 0 0 0-22.49 10.167C2.823 21.739-2.078 35.76.8 52.272 2.707 63.229 8.441 72.069 17.22 78.89a42.177 42.177 0 0 0 19.111 8.4c1.573.266 3.158.454 4.738.679m2.824-79.358A35.348 35.348 0 1 1 8.645 44.15 35.4 35.4 0 0 1 43.893 8.611" style="fill:#173a8d"/>
        <path data-name="Path 4905" d="M97.956 65.059c0 .89.011 1.716 0 2.541a2.591 2.591 0 0 1-2.561 2.672 2.632 2.632 0 0 1-2.607-2.642c-.027-.855 0-1.712 0-2.568-12.95.374-26.433 11.638-27.696 26.876 1 0 2-.034 3 .008a2.644 2.644 0 0 1 2.659 2.6 2.6 2.6 0 0 1-2.759 2.561c-.716.01-1.433 0-2.149 0H65c.571 13.034 11.278 26.5 27.43 27.929v-2.974a2.6 2.6 0 1 1 5.174-.038c.006 1 0 1.994 0 3a30.108 30.108 0 0 0 27.429-27.56c-.852 0-1.7.007-2.546 0a2.583 2.583 0 0 1-2.832-2.563 2.631 2.631 0 0 1 2.747-2.6c.854-.032 1.711-.006 2.57-.006-.833-13.2-11.943-25.891-27.019-27.238M95.1 91.455a10.034 10.034 0 0 1 .669-.848q6.039-6.053 12.091-12.093a6.681 6.681 0 0 1 .762-.691 2.541 2.541 0 0 1 3.976 1.259 2.566 2.566 0 0 1-.774 2.8q-7.379 7.386-14.766 14.765a4.177 4.177 0 0 1-.522.445 2.3 2.3 0 0 1-3.017-.016c-3.144-3.049-6.285-6.109-9.273-9.308-1.3-1.4-.217-3.685 1.685-3.979a2.8 2.8 0 0 1 2.52.993c2.154 2.174 4.321 4.336 6.649 6.67" transform="translate(-51.027 -51.055)" style="fill:#173a8d"/>
    </g>
</svg>
