<svg xmlns="http://www.w3.org/2000/svg" width="40.616" height="40.583" viewBox="0 0 40.616 40.583">
    <g data-name="Group 2594">
        <g data-name="Group 2595">
            <path data-name="Path 4978" d="M0 21.548V19.01c.049-.378.1-.755.146-1.134A19.337 19.337 0 0 1 4.684 7.335 19.833 19.833 0 0 1 22.7.136a19.08 19.08 0 0 1 12.008 5.857 19.806 19.806 0 0 1 5.422 18.663 20.29 20.29 0 0 1-16.244 15.609c-.766.127-1.539.213-2.309.318h-2.538c-.26-.032-.519-.068-.779-.1a19.937 19.937 0 0 1-9.96-3.844A20.023 20.023 0 0 1 .315 23.817C.177 23.067.1 22.3 0 21.548m21.752-7.568V8.868a2.227 2.227 0 0 0-.068-.625 1.417 1.417 0 0 0-1.562-1 1.4 1.4 0 0 0-1.252 1.411q-.012 5.826 0 11.651a1.465 1.465 0 0 0 .626 1.179q3.545 2.832 7.092 5.661a1.775 1.775 0 0 0 .739.346 1.384 1.384 0 0 0 1.555-.819 1.414 1.414 0 0 0-.44-1.741q-3.179-2.559-6.374-5.1a.744.744 0 0 1-.32-.662c.014-1.73.007-3.461.007-5.192" transform="translate(.001)" style="fill:#173a8d"/>
        </g>
    </g>
</svg>
