<svg data-name="Group 2592" xmlns="http://www.w3.org/2000/svg" width="40.07" height="37.827" viewBox="0 0 40.07 37.827">
    <defs>
        <clipPath id="bzdqzyl1oa">
            <path data-name="Rectangle 1569" style="fill:#173a8d" d="M0 0h40.07v37.827H0z"/>
        </clipPath>
    </defs>
    <g data-name="Group 2591" style="clip-path:url(#bzdqzyl1oa)">
        <path data-name="Path 4977" d="M20.243 29.606c-.124.2-.224.359-.322.519-1.332 2.18-2.659 4.364-4 6.54a2.207 2.207 0 0 1-2.637 1.051 2.166 2.166 0 0 1-1.594-2.088 897.358 897.358 0 0 1 0-8.038 2.4 2.4 0 0 1 .859-1.775q5.5-5.235 10.988-10.483l6.494-6.2a3.243 3.243 0 0 1 .4-.286c-.3-.546-.548-.274-.775-.117Q26.825 10.694 24 12.664q-7.6 5.288-15.192 10.583a.65.65 0 0 1-.788.05q-3.3-1.731-6.619-3.425a2.28 2.28 0 0 1 .105-4.248Q19.131 7.945 36.75.255a2.235 2.235 0 0 1 2.5.272 2.2 2.2 0 0 1 .732 2.4c-.229.91-.437 1.824-.658 2.736l-6.548 26.992a2.283 2.283 0 0 1-3.523 1.593q-4.214-2.175-8.427-4.353c-.169-.087-.341-.169-.578-.286" style="fill:#173a8d"/>
    </g>
</svg>
