<svg data-name="Group 2507" xmlns="http://www.w3.org/2000/svg" width="59.859" height="87" viewBox="0 0 59.859 87">
    <defs>
        <clipPath id="irznl9doza">
            <path data-name="Rectangle 1483" style="fill:#173a8d" d="M0 0h59.859v87H0z"/>
        </clipPath>
    </defs>
    <g data-name="Group 2372" style="clip-path:url(#irznl9doza)">
        <path data-name="Path 4609" d="M32.488 0c1.276.222 2.562.4 3.826.672a30.308 30.308 0 0 1 19.792 44.14q-10.68 19.638-21.424 39.24a5.288 5.288 0 0 1-9.489-.01Q14.478 64.429 3.765 44.815a29.8 29.8 0 0 1-3.7-16.5A30.161 30.161 0 0 1 24.973.376C25.777.238 26.584.125 27.39 0zm-2.517 14.953A12.238 12.238 0 1 0 42.176 27.2a12.307 12.307 0 0 0-12.205-12.247" style="fill:#173a8d"/>
    </g>
</svg>
