<svg xmlns="http://www.w3.org/2000/svg" width="582.35" height="321.322" viewBox="0 0 582.35 321.322">
    <g data-name="Group 2480">
        <g data-name="Group 2479">
            <g data-name="Group 906" transform="translate(0 .005)">
                <circle data-name="Ellipse 96" cx="27.331" cy="27.331" r="27.331" transform="translate(16.575 15.048)" style="fill:#00afef"/>
                <ellipse data-name="Ellipse 97" cx="263.806" cy="10.695" rx="263.806" ry="10.695" transform="translate(0 299.928)" style="fill:#e6e6e6"/>
                <circle data-name="Ellipse 98" cx="67.139" cy="67.139" r="67.139" transform="translate(0 42.313)" style="fill:#173a8d"/>
                <path data-name="Path 643" d="M114.5 379.54h-13.753l6.269-212.34z" transform="translate(-40.888 -67.86)" style="fill:#3f3d56"/>
                <path data-name="Path 644" d="m112.1 220.982 14.763-20.425-14.965 25.48-1.618-2.831z" transform="translate(-44.756 -81.397)" style="fill:#3f3d56"/>
                <path data-name="Path 645" d="m100.533 255.7-14.762-20.426 14.965 25.48 1.618-2.831z" transform="translate(-34.81 -95.487)" style="fill:#3f3d56"/>
                <path data-name="Path 646" d="M818.112 379.916h-13.751l6.269-212.339z" transform="translate(-274.012 -65.278)" style="fill:#3f3d56"/>
                <path data-name="Path 647" d="m815.711 221.358 14.763-20.425-14.965 25.48-1.618-2.831z" transform="translate(-278.315 -94.435)" style="fill:#3f3d56"/>
                <path data-name="Path 648" d="m804.147 256.075-14.762-20.425 14.965 25.48 1.618-2.831z" transform="translate(-268.369 -108.525)" style="fill:#3f3d56"/>
                <path data-name="Path 4686" d="M125.071 0A125.071 125.071 0 1 1 0 125.071 125.071 125.071 0 0 1 125.071 0z" transform="translate(147.678 61.724)" style="fill:#d00c39"/>
                <circle data-name="Ellipse 100" cx="114.718" cy="114.718" r="114.718" transform="translate(158.032 72.078)" style="fill:#fff"/>
                <circle data-name="Ellipse 101" cx="15.323" cy="15.323" r="15.323" transform="translate(257.012 171.887)" style="fill:#3f3d56"/>
                <path data-name="Rectangle 722" transform="translate(269.022 77.876)" style="fill:#3f3d56" d="M0 0h6.626v12.424H0z"/>
                <path data-name="Rectangle 723" transform="translate(269.022 284.12)" style="fill:#3f3d56" d="M0 0h6.626v12.424H0z"/>
                <path data-name="Rectangle 724" transform="rotate(90 -4.236 179.662)" style="fill:#3f3d56" d="M0 0h6.626v12.424H0z"/>
                <path data-name="Rectangle 725" transform="rotate(90 98.886 282.783)" style="fill:#3f3d56" d="M0 0h6.626v12.424H0z"/>
                <path data-name="Path 649" d="m450.924 317.441 5.663-12.948 70.957 39.3z" transform="translate(-175.275 -117.282)" style="fill:#3f3d56"/>
                <path data-name="Rectangle 726" transform="translate(256.598 31.492)" style="fill:#d00c39" d="M0 0h32.303v37.273H0z"/>
                <ellipse data-name="Ellipse 102" cx="37.273" cy="10.354" rx="37.273" ry="10.354" transform="translate(235.477 21.138)" style="fill:#d1113d"/>
                <path data-name="Path 662" d="M972.974 204.641a26.545 26.545 0 0 0-52.081-5.6c-.322-.012-.643-.025-.968-.025a26.55 26.55 0 0 0-25.468 19.061 18.76 18.76 0 0 0-22.262 5.542H955a17.955 17.955 0 0 0 17.995-18.59l-.021-.388z" transform="translate(-445.295 -179.599)" style="fill:#e6e6e6"/>
                <circle data-name="Ellipse 107" cx="7.13" cy="7.13" r="7.13" transform="translate(503.327 53.764)" style="fill:#e6e6e6"/>
                <circle data-name="Ellipse 108" cx="5.937" cy="5.937" r="5.937" transform="translate(526.048 38.147)" style="fill:#e6e6e6"/>
                <circle data-name="Ellipse 109" cx="7.13" cy="7.13" r="7.13" transform="translate(553.83 69.212)" style="fill:#e6e6e6"/>
                <circle data-name="Ellipse 110" cx="7.13" cy="7.13" r="7.13" transform="translate(499.762 101.891)" style="fill:#e6e6e6"/>
                <circle data-name="Ellipse 111" cx="7.13" cy="7.13" r="7.13" transform="translate(553.83 142.887)" style="fill:#e6e6e6"/>
                <path data-name="Path 663" d="M970.995 678.905c0-.077.012-.153.012-.231a11.257 11.257 0 0 0-22.47-.589c-.036 0-.071-.005-.108-.005a7.13 7.13 0 1 0 4.358 12.764 7.126 7.126 0 0 0 12.253.723 7.124 7.124 0 1 0 5.956-12.662z" transform="translate(-422.82 -579.93)" style="fill:#e6e6e6"/>
                <circle data-name="Ellipse 112" cx="2.971" cy="2.971" r="2.971" transform="translate(564.525 118.527)" style="fill:#e6e6e6"/>
                <circle data-name="Ellipse 113" cx="2.971" cy="2.971" r="2.971" transform="translate(545.512 47.228)" style="fill:#e6e6e6"/>
                <circle data-name="Ellipse 114" cx="2.971" cy="2.971" r="2.971" transform="translate(535.411 120.903)" style="fill:#e6e6e6"/>
                <circle data-name="Ellipse 115" cx="2.971" cy="2.971" r="2.971" transform="translate(537.224 68.023)" style="fill:#e6e6e6"/>
                <circle data-name="Ellipse 116" cx="2.971" cy="2.971" r="2.971" transform="translate(539.571 114.962)" style="fill:#e6e6e6"/>
                <circle data-name="Ellipse 117" cx="2.971" cy="2.971" r="2.971" transform="translate(493.82 81.119)" style="fill:#e6e6e6"/>
                <circle data-name="Ellipse 118" cx="2.971" cy="2.971" r="2.971" transform="translate(576.408 173.189)" style="fill:#e6e6e6"/>
                <circle data-name="Ellipse 119" cx="2.971" cy="2.971" r="2.971" transform="translate(511.646 142.887)" style="fill:#e6e6e6"/>
                <circle data-name="Ellipse 120" cx="2.971" cy="2.971" r="2.971" transform="translate(516.399 83.472)" style="fill:#e6e6e6"/>
                <circle data-name="Ellipse 121" cx="2.971" cy="2.971" r="2.971" transform="translate(530.064 136.946)" style="fill:#e6e6e6"/>
                <circle data-name="Ellipse 122" cx="2.971" cy="2.971" r="2.971" transform="translate(527.093 132.192)" style="fill:#e6e6e6"/>
            </g>
        </g>
        <path data-name="Line 130" transform="translate(169.502 121.605)" style="fill:none;stroke:#d00c39;stroke-width:11px" d="M0 128 201 0"/>
    </g>
</svg>
