<svg xmlns="http://www.w3.org/2000/svg" width="950" height="767" viewBox="0 0 950 767">
    <defs>
        <clipPath id="m5qsz8duna">
            <path data-name="Rectangle 1541" style="fill:#173a8d" d="M0 0h30.842v57.509H0z"/>
        </clipPath>
        <clipPath id="q916kfwjcb">
            <path data-name="Path 4914" d="m67.813 36.06-27.25 57.434s-5.371-50.309-2.977-54.3 30.227-3.134 30.227-3.134" transform="translate(-36.971 -35.984)" style="fill:#173a8d"/>
        </clipPath>
        <clipPath id="t7vty8kvsc">
            <path data-name="Rectangle 1548" style="fill:#173a8d" d="M0 0h27.355v58.611H0z"/>
        </clipPath>
        <clipPath id="cnxup4l6td">
            <path data-name="Path 4947" d="M62.209 22.306 46.376 77.2l-4.536.107s-9.34-8.484-6.422-26.535S54.506 18.7 54.506 18.7z" transform="translate(-34.854 -18.698)" style="fill:#173a8d"/>
        </clipPath>
        <clipPath id="h1h247xlge">
            <path data-name="Rectangle 1550" style="fill:none" d="M0 0h89.041v55.556H0z"/>
        </clipPath>
        <clipPath id="gfqltw59rf">
            <path data-name="Rectangle 1549" style="fill:none" d="M0 0h89.041v21.933H0z"/>
        </clipPath>
        <clipPath id="hzsrsnauzg">
            <path data-name="Rectangle 1551" style="fill:#042a89" d="M0 0h78.505v26.675H0z"/>
        </clipPath>
        <clipPath id="dqwnwj0n4h">
            <path data-name="Rectangle 1552" style="fill:#021c5c" d="M0 0h49.522v34.339H0z"/>
        </clipPath>
        <clipPath id="7hsgsm06zi">
            <path data-name="Rectangle 1553" style="fill:none" d="M0 0h74.862v26.675H0z"/>
        </clipPath>
        <clipPath id="an59ha3vhj">
            <path data-name="Rectangle 1556" style="fill:#2c55b1" d="M0 0h11.927v5.555H0z"/>
        </clipPath>
        <clipPath id="cu5bypy6sk">
            <path data-name="Rectangle 1557" style="fill:none" d="M0 0h7.044v3.621H0z"/>
        </clipPath>
        <clipPath id="1r4jhud5ol">
            <path data-name="Rectangle 1557" style="fill:#4d7ff5" d="M0 0h7.044v3.621H0z"/>
        </clipPath>
        <clipPath id="nln14pgzxm">
            <path data-name="Rectangle 1558" style="fill:#4d7ff5" d="M0 0h11.663v5.45H0z"/>
        </clipPath>
    </defs>
    <g data-name="Group 2571" transform="translate(-65 -1031)">
        <rect data-name="Rectangle 1539" width="950" height="767" rx="24" transform="translate(65 1031)" style="fill:#fff"/>
        <g data-name="Group 2570">
            <g data-name="Group 2564">
                <g data-name="Group 2511">
                    <g data-name="Group 2479">
                        <g data-name="Group 906" transform="translate(308.998 1324.181)">
                            <ellipse data-name="Ellipse 97" cx="263.806" cy="10.695" rx="263.806" ry="10.695" transform="translate(0 299.928)" style="fill:#e6e6e6"/>
                            <path data-name="Path 646" d="M818.112 379.916h-13.751l6.269-212.339z" transform="translate(-274.012 -65.278)" style="fill:#3f3d56"/>
                            <path data-name="Path 647" d="m815.711 221.358 14.763-20.425-14.965 25.48-1.618-2.831z" transform="translate(-278.315 -94.435)" style="fill:#3f3d56"/>
                            <path data-name="Path 648" d="m804.147 256.075-14.762-20.425 14.965 25.48 1.618-2.831z" transform="translate(-268.369 -108.525)" style="fill:#3f3d56"/>
                            <path data-name="Path 4686" d="M125.071 0A125.071 125.071 0 1 1 0 125.071 125.071 125.071 0 0 1 125.071 0z" transform="translate(147.678 61.724)" style="fill:#d00c39"/>
                            <circle data-name="Ellipse 100" cx="114.718" cy="114.718" r="114.718" transform="translate(158.032 72.078)" style="fill:#fff"/>
                            <circle data-name="Ellipse 101" cx="15.323" cy="15.323" r="15.323" transform="translate(257.012 171.887)" style="fill:#3f3d56"/>
                            <path data-name="Rectangle 722" transform="translate(269.022 77.876)" style="fill:#3f3d56" d="M0 0h6.626v12.424H0z"/>
                            <path data-name="Rectangle 723" transform="translate(269.022 284.12)" style="fill:#3f3d56" d="M0 0h6.626v12.424H0z"/>
                            <path data-name="Rectangle 724" transform="rotate(90 -4.236 179.662)" style="fill:#3f3d56" d="M0 0h6.626v12.424H0z"/>
                            <path data-name="Rectangle 725" transform="rotate(90 98.886 282.783)" style="fill:#3f3d56" d="M0 0h6.626v12.424H0z"/>
                            <path data-name="Path 649" d="m450.924 317.441 5.663-12.948 70.957 39.3z" transform="translate(-175.275 -117.282)" style="fill:#3f3d56"/>
                            <path data-name="Rectangle 726" transform="translate(256.598 31.492)" style="fill:#d00c39" d="M0 0h32.303v37.273H0z"/>
                            <ellipse data-name="Ellipse 102" cx="37.273" cy="10.354" rx="37.273" ry="10.354" transform="translate(235.477 21.138)" style="fill:#d1113d"/>
                            <path data-name="Path 662" d="M972.974 204.641a26.545 26.545 0 0 0-52.081-5.6c-.322-.012-.643-.025-.968-.025a26.55 26.55 0 0 0-25.468 19.061 18.76 18.76 0 0 0-22.262 5.542H955a17.955 17.955 0 0 0 17.995-18.59l-.021-.388z" transform="translate(-445.295 -179.599)" style="fill:#e6e6e6"/>
                            <circle data-name="Ellipse 107" cx="7.13" cy="7.13" r="7.13" transform="translate(503.327 53.764)" style="fill:#e6e6e6"/>
                            <circle data-name="Ellipse 108" cx="5.937" cy="5.937" r="5.937" transform="translate(526.048 38.147)" style="fill:#e6e6e6"/>
                            <circle data-name="Ellipse 109" cx="7.13" cy="7.13" r="7.13" transform="translate(553.83 69.212)" style="fill:#e6e6e6"/>
                            <circle data-name="Ellipse 110" cx="7.13" cy="7.13" r="7.13" transform="translate(499.762 101.891)" style="fill:#e6e6e6"/>
                            <circle data-name="Ellipse 111" cx="7.13" cy="7.13" r="7.13" transform="translate(553.83 142.887)" style="fill:#e6e6e6"/>
                            <path data-name="Path 663" d="M970.995 678.905c0-.077.012-.153.012-.231a11.257 11.257 0 0 0-22.47-.589c-.036 0-.071-.005-.108-.005a7.13 7.13 0 1 0 4.358 12.764 7.126 7.126 0 0 0 12.253.723 7.124 7.124 0 1 0 5.956-12.662z" transform="translate(-422.82 -579.93)" style="fill:#e6e6e6"/>
                            <circle data-name="Ellipse 112" cx="2.971" cy="2.971" r="2.971" transform="translate(564.525 118.527)" style="fill:#e6e6e6"/>
                            <circle data-name="Ellipse 113" cx="2.971" cy="2.971" r="2.971" transform="translate(545.512 47.228)" style="fill:#e6e6e6"/>
                            <circle data-name="Ellipse 114" cx="2.971" cy="2.971" r="2.971" transform="translate(535.411 120.903)" style="fill:#e6e6e6"/>
                            <circle data-name="Ellipse 115" cx="2.971" cy="2.971" r="2.971" transform="translate(537.224 68.023)" style="fill:#e6e6e6"/>
                            <circle data-name="Ellipse 116" cx="2.971" cy="2.971" r="2.971" transform="translate(539.571 114.962)" style="fill:#e6e6e6"/>
                            <circle data-name="Ellipse 117" cx="2.971" cy="2.971" r="2.971" transform="translate(493.82 81.119)" style="fill:#e6e6e6"/>
                            <circle data-name="Ellipse 118" cx="2.971" cy="2.971" r="2.971" transform="translate(576.408 173.189)" style="fill:#e6e6e6"/>
                            <circle data-name="Ellipse 119" cx="2.971" cy="2.971" r="2.971" transform="translate(511.646 142.887)" style="fill:#e6e6e6"/>
                            <circle data-name="Ellipse 120" cx="2.971" cy="2.971" r="2.971" transform="translate(516.399 83.472)" style="fill:#e6e6e6"/>
                            <circle data-name="Ellipse 121" cx="2.971" cy="2.971" r="2.971" transform="translate(530.064 136.946)" style="fill:#e6e6e6"/>
                            <circle data-name="Ellipse 122" cx="2.971" cy="2.971" r="2.971" transform="translate(527.093 132.192)" style="fill:#e6e6e6"/>
                        </g>
                    </g>
                </g>
                <g data-name="Group 2563">
                    <g data-name="Group 2531">
                        <path data-name="Path 4910" d="M44.251 29.708c-1.875-.175-5.034.136-5.958-.379a20.451 20.451 0 0 0-6.263-1.28c-1.1.11-6.533 1.342-6.808 2.237s1.227.815 2.189.59l3.342-.2a6.7 6.7 0 0 1-1.609.6c-2.841.216-6.159-.394-6.639-.222a.76.76 0 0 0-.234 1.3A18.424 18.424 0 0 0 26.25 33.8c1.141.252 2.477.61 2.477.61a21.364 21.364 0 0 0-3.265-.527c-.175.142-.436 1.218.347 1.567a30.261 30.261 0 0 0 3.309.96s-2.592-.6-2.492-.175c0 0-.483 1.286 1.991 1.9l1.647.376s-2.874-.871-2.948-.471c-.065.379.027 1.1 1.363 1.461a11.917 11.917 0 0 0 3.7.361c.794-.086 5.111-2.592 6.3-3.087s6.731.545 7.925.732-2.352-7.795-2.352-7.795" transform="translate(295.013 1453.029)" style="fill:#552f24"/>
                        <path data-name="Path 4911" d="M380.498 1609.282c-1.123 3.022-.382 6.3-.012 10.411s1.28 7.205-2.85 8.094-19.459.77-19.459.77-8.186-1.952.415-5.54c6.667-2.782 13.087-4.459 12.616-12.25-.1-1.535 9.285-1.484 9.285-1.484"/>
                        <path data-name="Path 4912" d="M37.073 36.5c.16 15.166 3.44 62.7 3.674 64.858 2.2 20.336 2.24 46.742 2.24 46.742l11.854-.21s5.354-34.945 1.028-49.55c-1.307-4.435 5.774-47.675 5.774-47.675z" transform="translate(324.443 1469.64)" style="fill:#3357bc"/>
                        <path data-name="Path 4913" d="M62.738 74.86c.338 3.419 2.136 8.038.99 12.716-.4 1.615-3.383 2.266-5.813 2.818-1 .222-4.512 2.533-6.313 3.179-6.53 2.338-9.626.515-10.826-.228-1.218-.752-1.564-2.557 1.372-5.265 2.512-2.32 6.085-3.564 7.093-5.771s.584-9.119.584-9.119z" transform="translate(329.953 1541.644)" style="fill:#232121"/>
                        <path data-name="Path 4914" d="M37.469 41.386c.169 15.154 2.812 32.388 8.414 63.419 1.858 10.3 7.146 54.625 7.146 54.625l16.164.675s2.5-36.829.717-54.987c-.287-2.886-2.42-27.568-.705-47.047 1.025-11.537-3.763-23.535-3.763-23.535z" transform="translate(325.222 1465.781)" style="fill:#003cca"/>
                        <g data-name="Group 2515">
                            <g data-name="Group 2514" style="clip-path:url(#m5qsz8duna)" transform="translate(361.215 1504.609)">
                                <g data-name="Group 2513">
                                    <g data-name="Group 2512" style="clip-path:url(#q916kfwjcb)">
                                        <path data-name="Rectangle 1540" transform="rotate(-64.66 24.849 42.622)" style="fill:#173a8d" d="M0 0h66.637v54.421H0z"/>
                                    </g>
                                </g>
                            </g>
                        </g>
                        <path data-name="Path 4915" d="m39.243 14.418-2.856 2.145.2 6.3 6.056-3.294z" transform="translate(323.183 1426.297)" style="fill:#4d87db"/>
                        <path data-name="Path 4916" d="M48.152 9.126c.382 2.856.193 6.47 2.862 9.963l2.669 3.5L40.2 28.623s-.708-6.494-3.182-8.7c-2.48-2.183 11.137-10.8 11.137-10.8" transform="translate(323.738 1415.91)" style="fill:#41251d"/>
                        <path data-name="Path 4917" d="M34.731 8.29C38.115.925 56.776-2.787 58.69 9.41c3.526 22.226-10.337 25.33-10.337 25.33-4.675-.059-5.848.48-9.249-.824-1.665-.622-2.755-2.966-3.8-6.142-1.472-.305-3.158-.326-3-1.389.753-1.425.987-4.074 1.336-5.1-.735-5-.524-9.531 1.087-12.994" transform="translate(315.072 1400.908)" style="fill:#55281b"/>
                        <path data-name="Path 4918" d="M44.383 30.989c-2.874.216-3.478.21-5.268-.824-1.535-.883-2.746-2.972-3.78-6.139-1.49-.308-3.167-.338-3.019-1.384.75-1.434 1-4.083 1.339-5.114-.726-4.986-2.2-8.814-.59-12.271.169-.37 2.059-1.443 2.3-1.786l7.261 1.4c4.444 11.765 6.236 20.718 3.44 24.969l7.164 8.322-5.1 3.9s-2.453-8.147-3.751-11.077" transform="translate(315.179 1404.814)" style="fill:#533223"/>
                        <path data-name="Path 4919" d="M56.079 4.553C54.39 2.447 52.115.168 46.276.8c-5.671.607-9.338 1.784-12.642 6.041a3.941 3.941 0 0 0-.276 4.408S36.733 9 38.128 9.24s-.652 2.515 1.4 4.868c1.733 1.979 4.071 4.72 4.071 4.72s6 1.541 6.3 3.428 6.435 5.771 6.435 5.771 3.336-3.606 4.124-10.527C61.625 7.217 56.47 5.066 56.079 4.553" transform="translate(316.06 1399.363)" style="fill:#150401"/>
                        <path data-name="Path 4920" d="M37.21 8.8c.975-.812 2.729-3.155 3.851-1.988 1.1 1.188 1.206 5.617-1.141 7.2C37.6 15.571 37.21 8.8 37.21 8.8" transform="translate(324.797 1410.74)" style="fill:#7c4332"/>
                        <path data-name="Path 4921" d="M31.762 3.847c-3.247.231-3.662 2.553-1.508 4.687s3.38 1.244 5.822.7a43.02 43.02 0 0 0 6.98-2.192z" transform="translate(308.578 1405.551)" style="fill:#5683ef"/>
                        <path data-name="Path 4922" d="M67.265 22.732c-2.023-.824-13.45-8.159-13.45-8.159s-8.509 3.623-11.9 2.72-7.568-6.779-12.615-5.428c6.15-2.329 9.03-2.53 9.03-2.53S40.293 3.62 47.9.812C51.169-.4 56.76-.2 58.9 1.043s7.664 3.369 8.817 9.377a32.422 32.422 0 0 1-.45 12.313" transform="translate(309.181 1398)" style="fill:#003cca"/>
                        <path data-name="Path 4923" d="M50.933 9.934a32.372 32.372 0 0 1-.45 12.3c-1.7-.687-10.029-5.964-12.636-7.635C40.46 10.544 42.611 4.263 41.535.3a4.666 4.666 0 0 1 .575.255c2.139 1.238 7.667 3.372 8.823 9.383" transform="translate(325.965 1398.58)" style="fill:#021c5c"/>
                        <path data-name="Path 4924" d="M54.61 12.279c4.856 4.69 13.782 15.581 14.576 29.677 1.363 24.048 6.589 35.09 2.868 40.63-2.515 3.76-25.977 8.076-30.127 7.324s-7.193-16.647-7.116-22.881 3.526-37.537 7.054-42.336S54.61 12.279 54.61 12.279" transform="translate(320.004 1422.099)" style="fill:#003cca"/>
                        <path data-name="Path 4925" d="M50.4 11.494c-1.869 1.819-13.516 10.79-13.516 10.79l.933 9.054L54.5 16.16z" transform="translate(324.078 1420.558)" style="fill:#3357bc"/>
                        <g data-name="Group 2530">
                            <g data-name="Group 2529" style="clip-path:url(#t7vty8kvsc)" transform="translate(354.945 1453.396)">
                                <g data-name="Group 2528">
                                    <g data-name="Group 2527" style="clip-path:url(#cnxup4l6td)" transform="translate(-.001 -.002)">
                                        <path data-name="Rectangle 1547" transform="rotate(-76.936 27.372 37.411)" style="fill:#173a8d" d="M0 0h63.811v42.187H0z"/>
                                    </g>
                                </g>
                            </g>
                        </g>
                        <path data-name="Path 4926" d="M74.973 19.178s1.825 5.232.311 9.066c-2.074 5.256-8.358 23.437-14.218 27.12-12.5 7.863-22.377 9.534-31.86 9.969-1.067.047-1.013-11.9-1.013-11.9s20.75-8.343 22.238-10.509 9.764-21.995 12.22-24.694a7.836 7.836 0 0 1 12.322.948" transform="translate(307.013 1428.76)" style="fill:#4d7ff5"/>
                        <path data-name="Rectangle 1540" transform="translate(317 1398)" style="fill:none" d="M0 0h78.772v238.369H0z"/>
                    </g>
                </g>
            </g>
            <g data-name="Group 2569">
                <path data-name="Path 4948" d="M89.041 78.561 78.505 67.929 0 56.629z" transform="rotate(-30 2817.072 417.602)" style="fill:#407bff"/>
                <g data-name="Group 2568">
                    <path data-name="Path 4950" d="m74.862 83.3 3.643-15.374L0 56.629z" transform="rotate(-30 2817.203 416.007)" style="fill:#407bff"/>
                    <g data-name="Group 2567">
                        <g data-name="Group 2566">
                            <path data-name="Path 4952" d="m127.194 1.7 4.558 21.36a2.157 2.157 0 0 1-1.654 2.552l-40.662 8.68a2.157 2.157 0 0 1-2.552-1.654l-4.558-21.36a2.153 2.153 0 0 1 1.654-2.552L124.642.048a2.153 2.153 0 0 1 2.552 1.652" transform="rotate(-30 2915.44 497.48)" style="fill:#407bff"/>
                            <path data-name="Path 4955" d="m0 56.628 64.752 15.388L74.862 83.3z" transform="rotate(-30 2819.188 415.383)" style="fill:#407bff"/>
                        </g>
                        <g data-name="Group 2565">
                            <g data-name="Group 2536">
                                <g data-name="Group 2535" style="clip-path:url(#h1h247xlge)" transform="rotate(-30 2887.819 397.789)">
                                    <g data-name="Group 2534" style="opacity:.6">
                                        <g data-name="Group 2533">
                                            <g data-name="Group 2532" style="clip-path:url(#gfqltw59rf)" transform="translate(0 19.501)">
                                                <path data-name="Path 4949" d="m0 56.628 78.505 11.3 10.536 10.633z" transform="translate(0 -56.628)" style="fill:#fff"/>
                                            </g>
                                        </g>
                                    </g>
                                </g>
                            </g>
                            <g data-name="Group 2539" style="opacity:.953">
                                <g data-name="Group 2538">
                                    <g data-name="Group 2537" style="clip-path:url(#hzsrsnauzg)" transform="rotate(-30 2924.205 388.038)">
                                        <path data-name="Path 4951" d="m0 56.628 78.505 11.3L74.862 83.3z" transform="translate(0 -56.628)" style="fill:#042a89"/>
                                    </g>
                                </g>
                            </g>
                            <g data-name="Group 2542" style="opacity:.4">
                                <g data-name="Group 2541">
                                    <g data-name="Group 2540" style="clip-path:url(#dqwnwj0n4h)" transform="rotate(-30 2873.65 344.918)">
                                        <path data-name="Path 4953" d="m127.194 1.7 4.558 21.36a2.157 2.157 0 0 1-1.654 2.552l-40.662 8.68a2.157 2.157 0 0 1-2.552-1.654l-4.558-21.36a2.153 2.153 0 0 1 1.654-2.552L124.642.048a2.153 2.153 0 0 1 2.552 1.652" transform="translate(-82.278)" style="fill:#021c5c"/>
                                    </g>
                                </g>
                            </g>
                            <path data-name="Path 4954" d="M126.937.306 113.35 16.984a8.755 8.755 0 0 1-10.726 2.289L83.411 9.595a2.151 2.151 0 0 1 1.312-.87L125.385.047a2.152 2.152 0 0 1 1.552.259" transform="rotate(-30 2915.163 499.838)" style="fill:#003cca"/>
                            <g data-name="Group 2545" style="opacity:.6">
                                <g data-name="Group 2544">
                                    <g data-name="Group 2543" style="clip-path:url(#7hsgsm06zi)" transform="rotate(-30 2924.205 388.038)">
                                        <path data-name="Path 4956" d="m0 56.628 64.752 15.388L74.862 83.3z" transform="translate(0 -56.628)" style="fill:#fff"/>
                                    </g>
                                </g>
                            </g>
                            <path data-name="Rectangle 1554" transform="rotate(-89.66 875.105 644.233)" style="fill:#407bff" d="M0 0h.345v8.35H0z"/>
                            <path data-name="Rectangle 1555" transform="rotate(-89.637 881.42 638.188)" style="fill:#407bff" d="M0 0h.345v3.004H0z"/>
                            <path data-name="Path 4957" d="m0 56.628 64.752 15.388-12.587 15.171z" transform="rotate(-30 2818.54 416.354)" style="fill:#4d7ff5"/>
                            <g data-name="Group 2548">
                                <g data-name="Group 2547">
                                    <g data-name="Group 2546" style="clip-path:url(#an59ha3vhj)" transform="rotate(-30 2943.437 232.144)">
                                        <path data-name="Path 4959" d="M230.108 150.752a.686.686 0 0 1-.253-.049l-10.549-4.176a.689.689 0 0 1 .507-1.281l10.549 4.177a.689.689 0 0 1-.254 1.329" transform="translate(-218.87 -145.197)" style="fill:#2c55b1"/>
                                    </g>
                                </g>
                            </g>
                            <g data-name="Group 2561" style="opacity:.974">
                                <g data-name="Group 2547">
                                    <g data-name="Group 2546" style="clip-path:url(#an59ha3vhj)" transform="rotate(-30 2943.407 177.851)">
                                        <path data-name="Path 4959" d="M230.108 150.752a.686.686 0 0 1-.253-.049l-10.549-4.176a.689.689 0 0 1 .507-1.281l10.549 4.177a.689.689 0 0 1-.254 1.329" transform="translate(-218.87 -145.197)" style="fill:#2c55b1"/>
                                    </g>
                                </g>
                            </g>
                            <g data-name="Group 2551" style="opacity:.5">
                                <g data-name="Group 2550">
                                    <g data-name="Group 2549" style="clip-path:url(#cu5bypy6sk)" transform="rotate(-30 2933.626 226.25)">
                                        <path data-name="Path 4961" d="M237.6 136.868a.685.685 0 0 1-.253-.049l-5.665-2.243a.689.689 0 1 1 .507-1.28l5.665 2.243a.689.689 0 0 1-.254 1.329" transform="translate(-231.246 -133.247)" style="fill:#fff"/>
                                    </g>
                                </g>
                            </g>
                            <g data-name="Group 2562" style="opacity:.994">
                                <g data-name="Group 2550">
                                    <g data-name="Group 2549" style="clip-path:url(#1r4jhud5ol)" transform="rotate(-30 2921.835 185.091)">
                                        <path data-name="Path 4961" d="M237.6 136.868a.685.685 0 0 1-.253-.049l-5.665-2.243a.689.689 0 1 1 .507-1.28l5.665 2.243a.689.689 0 0 1-.254 1.329" transform="translate(-231.246 -133.247)" style="fill:#4d7ff5"/>
                                    </g>
                                </g>
                            </g>
                            <g data-name="Group 2554" style="opacity:.871">
                                <g data-name="Group 2553">
                                    <g data-name="Group 2552" style="clip-path:url(#nln14pgzxm)" transform="rotate(-30 2949.533 254.91)">
                                        <path data-name="Path 4963" d="M194.411 150.648a.685.685 0 0 1-.253-.049l-10.286-4.072a.689.689 0 1 1 .507-1.281l10.286 4.072a.689.689 0 0 1-.254 1.329" transform="translate(-183.437 -145.198)" style="fill:#4d7ff5"/>
                                    </g>
                                </g>
                            </g>
                        </g>
                    </g>
                </g>
            </g>
        </g>
    </g>
</svg>
