<svg xmlns="http://www.w3.org/2000/svg" xmlns:xlink="http://www.w3.org/1999/xlink" width="703.348" height="321.322" viewBox="0 0 703.348 321.322">
  <defs>
    <clipPath id="clip-path">
      <rect id="Rectangle_1541" data-name="Rectangle 1541" width="30.842" height="57.509" fill="#173a8d"/>
    </clipPath>
    <clipPath id="clip-path-2">
      <path id="Path_4914" data-name="Path 4914" d="M67.813,36.06,40.563,93.494s-5.371-50.309-2.977-54.3S67.813,36.06,67.813,36.06" transform="translate(-36.971 -35.984)" fill="#173a8d"/>
    </clipPath>
    <clipPath id="clip-path-3">
      <rect id="Rectangle_1548" data-name="Rectangle 1548" width="27.355" height="58.611" fill="#173a8d"/>
    </clipPath>
    <clipPath id="clip-path-4">
      <path id="Path_4947" data-name="Path 4947" d="M62.209,22.306,46.376,77.2l-4.536.107S32.5,68.823,35.418,50.772,54.506,18.7,54.506,18.7Z" transform="translate(-34.854 -18.698)" fill="#173a8d"/>
    </clipPath>
    <clipPath id="clip-path-5">
      <rect id="Rectangle_1550" data-name="Rectangle 1550" width="89.041" height="55.556" fill="none"/>
    </clipPath>
    <clipPath id="clip-path-6">
      <rect id="Rectangle_1549" data-name="Rectangle 1549" width="89.041" height="21.933" fill="none"/>
    </clipPath>
    <clipPath id="clip-path-7">
      <rect id="Rectangle_1551" data-name="Rectangle 1551" width="78.505" height="26.675" fill="#042a89"/>
    </clipPath>
    <clipPath id="clip-path-8">
      <rect id="Rectangle_1552" data-name="Rectangle 1552" width="49.522" height="34.339" fill="#021c5c"/>
    </clipPath>
    <clipPath id="clip-path-9">
      <rect id="Rectangle_1553" data-name="Rectangle 1553" width="74.862" height="26.675" fill="none"/>
    </clipPath>
    <clipPath id="clip-path-10">
      <rect id="Rectangle_1556" data-name="Rectangle 1556" width="11.927" height="5.555" fill="#2c55b1"/>
    </clipPath>
    <clipPath id="clip-path-12">
      <rect id="Rectangle_1557" data-name="Rectangle 1557" width="7.044" height="3.621" fill="none"/>
    </clipPath>
    <clipPath id="clip-path-13">
      <rect id="Rectangle_1557-2" data-name="Rectangle 1557" width="7.044" height="3.621" fill="#4d7ff5"/>
    </clipPath>
    <clipPath id="clip-path-14">
      <rect id="Rectangle_1558" data-name="Rectangle 1558" width="11.663" height="5.45" fill="#4d7ff5"/>
    </clipPath>
  </defs>
  <g id="Group_2570" data-name="Group 2570" transform="translate(-128 -1324.177)">
    <g id="Group_2564" data-name="Group 2564">
      <g id="Group_2511" data-name="Group 2511" transform="translate(4 -88.719)">
        <g id="Group_2479" data-name="Group 2479" transform="translate(-51.246)">
          <g id="Group_906" data-name="Group 906" transform="translate(296.244 1412.9)">
            <ellipse id="Ellipse_97" data-name="Ellipse 97" cx="263.806" cy="10.695" rx="263.806" ry="10.695" transform="translate(0 299.928)" fill="#e6e6e6"/>
            <path id="Path_646" data-name="Path 646" d="M818.112,379.916H804.361l6.269-212.339Z" transform="translate(-274.012 -65.278)" fill="#3f3d56"/>
            <path id="Path_647" data-name="Path 647" d="M815.711,221.358l14.763-20.425-14.965,25.48-1.618-2.831Z" transform="translate(-278.315 -94.435)" fill="#3f3d56"/>
            <path id="Path_648" data-name="Path 648" d="M804.147,256.075,789.385,235.65l14.965,25.48,1.618-2.831Z" transform="translate(-268.369 -108.525)" fill="#3f3d56"/>
            <path id="Path_4686" data-name="Path 4686" d="M125.071,0A125.071,125.071,0,1,1,0,125.071,125.071,125.071,0,0,1,125.071,0Z" transform="translate(147.678 61.724)" fill="#d00c39"/>
            <circle id="Ellipse_100" data-name="Ellipse 100" cx="114.718" cy="114.718" r="114.718" transform="translate(158.032 72.078)" fill="#fff"/>
            <circle id="Ellipse_101" data-name="Ellipse 101" cx="15.323" cy="15.323" r="15.323" transform="translate(257.012 171.887)" fill="#3f3d56"/>
            <rect id="Rectangle_722" data-name="Rectangle 722" width="6.626" height="12.424" transform="translate(269.022 77.876)" fill="#3f3d56"/>
            <rect id="Rectangle_723" data-name="Rectangle 723" width="6.626" height="12.424" transform="translate(269.022 284.12)" fill="#3f3d56"/>
            <rect id="Rectangle_724" data-name="Rectangle 724" width="6.626" height="12.424" transform="translate(175.426 183.897) rotate(90)" fill="#3f3d56"/>
            <rect id="Rectangle_725" data-name="Rectangle 725" width="6.626" height="12.424" transform="translate(381.669 183.897) rotate(90)" fill="#3f3d56"/>
            <path id="Path_649" data-name="Path 649" d="M450.924,317.441l5.663-12.948,70.957,39.3Z" transform="translate(-175.275 -117.282)" fill="#3f3d56"/>
            <rect id="Rectangle_726" data-name="Rectangle 726" width="32.303" height="37.273" transform="translate(256.598 31.492)" fill="#d00c39"/>
            <ellipse id="Ellipse_102" data-name="Ellipse 102" cx="37.273" cy="10.354" rx="37.273" ry="10.354" transform="translate(235.477 21.138)" fill="#d1113d"/>
            <path id="Path_662" data-name="Path 662" d="M972.974,204.641a26.545,26.545,0,0,0-52.081-5.6c-.322-.012-.643-.025-.968-.025a26.55,26.55,0,0,0-25.468,19.061,18.76,18.76,0,0,0-22.262,5.542H955a17.955,17.955,0,0,0,17.995-18.59Q972.985,204.837,972.974,204.641Z" transform="translate(-445.295 -179.599)" fill="#e6e6e6"/>
            <circle id="Ellipse_107" data-name="Ellipse 107" cx="7.13" cy="7.13" r="7.13" transform="translate(503.327 53.764)" fill="#e6e6e6"/>
            <circle id="Ellipse_108" data-name="Ellipse 108" cx="5.937" cy="5.937" r="5.937" transform="translate(526.048 38.147)" fill="#e6e6e6"/>
            <circle id="Ellipse_109" data-name="Ellipse 109" cx="7.13" cy="7.13" r="7.13" transform="translate(553.83 69.212)" fill="#e6e6e6"/>
            <circle id="Ellipse_110" data-name="Ellipse 110" cx="7.13" cy="7.13" r="7.13" transform="translate(499.762 101.891)" fill="#e6e6e6"/>
            <circle id="Ellipse_111" data-name="Ellipse 111" cx="7.13" cy="7.13" r="7.13" transform="translate(553.83 142.887)" fill="#e6e6e6"/>
            <path id="Path_663" data-name="Path 663" d="M970.995,678.905c0-.077.012-.153.012-.231a11.257,11.257,0,0,0-22.47-.589c-.036,0-.071-.005-.108-.005a7.13,7.13,0,1,0,4.358,12.764,7.126,7.126,0,0,0,12.253.723,7.124,7.124,0,1,0,5.956-12.662Z" transform="translate(-422.82 -579.93)" fill="#e6e6e6"/>
            <circle id="Ellipse_112" data-name="Ellipse 112" cx="2.971" cy="2.971" r="2.971" transform="translate(564.525 118.527)" fill="#e6e6e6"/>
            <circle id="Ellipse_113" data-name="Ellipse 113" cx="2.971" cy="2.971" r="2.971" transform="translate(545.512 47.228)" fill="#e6e6e6"/>
            <circle id="Ellipse_114" data-name="Ellipse 114" cx="2.971" cy="2.971" r="2.971" transform="translate(535.411 120.903)" fill="#e6e6e6"/>
            <circle id="Ellipse_115" data-name="Ellipse 115" cx="2.971" cy="2.971" r="2.971" transform="translate(537.224 68.023)" fill="#e6e6e6"/>
            <circle id="Ellipse_116" data-name="Ellipse 116" cx="2.971" cy="2.971" r="2.971" transform="translate(539.571 114.962)" fill="#e6e6e6"/>
            <circle id="Ellipse_117" data-name="Ellipse 117" cx="2.971" cy="2.971" r="2.971" transform="translate(493.82 81.119)" fill="#e6e6e6"/>
            <circle id="Ellipse_118" data-name="Ellipse 118" cx="2.971" cy="2.971" r="2.971" transform="translate(576.408 173.189)" fill="#e6e6e6"/>
            <circle id="Ellipse_119" data-name="Ellipse 119" cx="2.971" cy="2.971" r="2.971" transform="translate(511.646 142.887)" fill="#e6e6e6"/>
            <circle id="Ellipse_120" data-name="Ellipse 120" cx="2.971" cy="2.971" r="2.971" transform="translate(516.399 83.472)" fill="#e6e6e6"/>
            <circle id="Ellipse_121" data-name="Ellipse 121" cx="2.971" cy="2.971" r="2.971" transform="translate(530.064 136.946)" fill="#e6e6e6"/>
            <circle id="Ellipse_122" data-name="Ellipse 122" cx="2.971" cy="2.971" r="2.971" transform="translate(527.093 132.192)" fill="#e6e6e6"/>
          </g>
        </g>
        <path id="Path_4964" data-name="Path 4964" d="M201,0" transform="translate(414.5 1534.5)" fill="none" stroke="#d00c39" stroke-width="11"/>
      </g>
      <g id="Group_2563" data-name="Group 2563">
        <g id="Group_2531" data-name="Group 2531" transform="translate(-19391.469 24132.369)">
          <path id="Path_4910" data-name="Path 4910" d="M44.251,29.708c-1.875-.175-5.034.136-5.958-.379a20.451,20.451,0,0,0-6.263-1.28c-1.1.11-6.533,1.342-6.808,2.237s1.227.815,2.189.59l3.342-.2a6.7,6.7,0,0,1-1.609.6c-2.841.216-6.159-.394-6.639-.222a.76.76,0,0,0-.234,1.3A18.424,18.424,0,0,0,26.25,33.8c1.141.252,2.477.61,2.477.61a21.364,21.364,0,0,0-3.265-.527c-.175.142-.436,1.218.347,1.567a30.261,30.261,0,0,0,3.309.96s-2.592-.6-2.492-.175c0,0-.483,1.286,1.991,1.9l1.647.376s-2.874-.871-2.948-.471c-.065.379.027,1.1,1.363,1.461a11.917,11.917,0,0,0,3.7.361c.794-.086,5.111-2.592,6.3-3.087s6.731.545,7.925.732-2.352-7.795-2.352-7.795" transform="translate(19626.482 -22679.34)" fill="#552f24"/>
          <path id="Path_4911" data-name="Path 4911" d="M60.6,71.315c-1.123,3.022-.382,6.3-.012,10.411s1.28,7.205-2.85,8.094-19.459.77-19.459.77-8.186-1.952.415-5.54C45.361,82.268,51.781,80.591,51.31,72.8c-.1-1.535,9.285-1.484,9.285-1.484" transform="translate(19651.367 -22594.402)"/>
          <path id="Path_4912" data-name="Path 4912" d="M37.073,36.5c.16,15.166,3.44,62.7,3.674,64.858,2.2,20.336,2.24,46.742,2.24,46.742l11.854-.21s5.354-34.945,1.028-49.55c-1.307-4.435,5.774-47.675,5.774-47.675Z" transform="translate(19655.912 -22662.729)" fill="#3357bc"/>
          <path id="Path_4913" data-name="Path 4913" d="M62.738,74.86c.338,3.419,2.136,8.038.99,12.716-.4,1.615-3.383,2.266-5.813,2.818-1,.222-4.512,2.533-6.313,3.179-6.53,2.338-9.626.515-10.826-.228-1.218-.752-1.564-2.557,1.372-5.265,2.512-2.32,6.085-3.564,7.093-5.771s.584-9.119.584-9.119Z" transform="translate(19661.422 -22590.725)" fill="#232121"/>
          <path id="Path_4914-2" data-name="Path 4914" d="M37.469,41.386c.169,15.154,2.812,32.388,8.414,63.419,1.858,10.3,7.146,54.625,7.146,54.625l16.164.675s2.5-36.829.717-54.987c-.287-2.886-2.42-27.568-.705-47.047,1.025-11.537-3.763-23.535-3.763-23.535Z" transform="translate(19656.691 -22666.588)" fill="#003cca"/>
          <g id="Group_2515" data-name="Group 2515" transform="translate(19692.684 -22627.76)">
            <g id="Group_2514" data-name="Group 2514" clip-path="url(#clip-path)">
              <g id="Group_2513" data-name="Group 2513" transform="translate(0 0)">
                <g id="Group_2512" data-name="Group 2512" clip-path="url(#clip-path-2)">
                  <rect id="Rectangle_1540" data-name="Rectangle 1540" width="66.637" height="54.421" transform="matrix(0.428, -0.904, 0.904, 0.428, -24.317, 46.843)" fill="#173a8d"/>
                </g>
              </g>
            </g>
          </g>
          <path id="Path_4915" data-name="Path 4915" d="M39.243,14.418l-2.856,2.145.2,6.3,6.056-3.294Z" transform="translate(19654.652 -22706.072)" fill="#4d87db"/>
          <path id="Path_4916" data-name="Path 4916" d="M48.152,9.126c.382,2.856.193,6.47,2.862,9.963l2.669,3.5L40.2,28.623s-.708-6.494-3.182-8.7c-2.48-2.183,11.137-10.8,11.137-10.8" transform="translate(19655.207 -22716.459)" fill="#41251d"/>
          <path id="Path_4917" data-name="Path 4917" d="M34.731,8.29C38.115.925,56.776-2.787,58.69,9.41,62.216,31.636,48.353,34.74,48.353,34.74c-4.675-.059-5.848.48-9.249-.824-1.665-.622-2.755-2.966-3.8-6.142-1.472-.305-3.158-.326-3-1.389.753-1.425.987-4.074,1.336-5.1-.735-5-.524-9.531,1.087-12.994" transform="translate(19646.541 -22731.461)" fill="#55281b"/>
          <path id="Path_4918" data-name="Path 4918" d="M44.383,30.989c-2.874.216-3.478.21-5.268-.824-1.535-.883-2.746-2.972-3.78-6.139-1.49-.308-3.167-.338-3.019-1.384.75-1.434,1-4.083,1.339-5.114-.726-4.986-2.2-8.814-.59-12.271.169-.37,2.059-1.443,2.3-1.786l7.261,1.4c4.444,11.765,6.236,20.718,3.44,24.969l7.164,8.322-5.1,3.9s-2.453-8.147-3.751-11.077" transform="translate(19646.648 -22727.555)" fill="#533223"/>
          <path id="Path_4919" data-name="Path 4919" d="M56.079,4.553C54.39,2.447,52.115.168,46.276.8c-5.671.607-9.338,1.784-12.642,6.041a3.941,3.941,0,0,0-.276,4.408S36.733,9,38.128,9.24s-.652,2.515,1.4,4.868c1.733,1.979,4.071,4.72,4.071,4.72s6,1.541,6.3,3.428,6.435,5.771,6.435,5.771S59.67,24.421,60.458,17.5C61.625,7.217,56.47,5.066,56.079,4.553" transform="translate(19647.529 -22733.006)" fill="#150401"/>
          <path id="Path_4920" data-name="Path 4920" d="M37.21,8.8c.975-.812,2.729-3.155,3.851-1.988,1.1,1.188,1.206,5.617-1.141,7.2C37.6,15.571,37.21,8.8,37.21,8.8" transform="translate(19656.266 -22721.629)" fill="#7c4332"/>
          <path id="Path_4921" data-name="Path 4921" d="M31.762,3.847C28.515,4.078,28.1,6.4,30.254,8.534s3.38,1.244,5.822.7a43.02,43.02,0,0,0,6.98-2.192Z" transform="translate(19640.047 -22726.818)" fill="#5683ef"/>
          <path id="Path_4922" data-name="Path 4922" d="M67.265,22.732c-2.023-.824-13.45-8.159-13.45-8.159s-8.509,3.623-11.9,2.72S34.347,10.514,29.3,11.865c6.15-2.329,9.03-2.53,9.03-2.53S40.293,3.62,47.9.812C51.169-.4,56.76-.2,58.9,1.043s7.664,3.369,8.817,9.377a32.422,32.422,0,0,1-.45,12.313" transform="translate(19640.65 -22734.369)" fill="#003cca"/>
          <path id="Path_4923" data-name="Path 4923" d="M50.933,9.934a32.372,32.372,0,0,1-.45,12.3c-1.7-.687-10.029-5.964-12.636-7.635C40.46,10.544,42.611,4.263,41.535.3a4.666,4.666,0,0,1,.575.255c2.139,1.238,7.667,3.372,8.823,9.383" transform="translate(19657.434 -22733.789)" fill="#021c5c"/>
          <path id="Path_4924" data-name="Path 4924" d="M54.61,12.279c4.856,4.69,13.782,15.581,14.576,29.677,1.363,24.048,6.589,35.09,2.868,40.63-2.515,3.76-25.977,8.076-30.127,7.324s-7.193-16.647-7.116-22.881,3.526-37.537,7.054-42.336S54.61,12.279,54.61,12.279" transform="translate(19651.473 -22710.27)" fill="#003cca"/>
          <path id="Path_4925" data-name="Path 4925" d="M50.4,11.494c-1.869,1.819-13.516,10.79-13.516,10.79l.933,9.054L54.5,16.16Z" transform="translate(19655.547 -22711.811)" fill="#3357bc"/>
          <g id="Group_2530" data-name="Group 2530" transform="translate(19686.414 -22678.973)">
            <g id="Group_2529" data-name="Group 2529" clip-path="url(#clip-path-3)">
              <g id="Group_2528" data-name="Group 2528" transform="translate(-0.001 -0.002)">
                <g id="Group_2527" data-name="Group 2527" clip-path="url(#clip-path-4)">
                  <rect id="Rectangle_1547" data-name="Rectangle 1547" width="63.811" height="42.187" transform="translate(-15.258 55.619) rotate(-76.936)" fill="#173a8d"/>
                </g>
              </g>
            </g>
          </g>
          <path id="Path_4926" data-name="Path 4926" d="M74.973,19.178s1.825,5.232.311,9.066C73.21,33.5,66.926,51.681,61.066,55.364c-12.5,7.863-22.377,9.534-31.86,9.969-1.067.047-1.013-11.9-1.013-11.9s20.75-8.343,22.238-10.509S60.195,20.929,62.651,18.23a7.836,7.836,0,0,1,12.322.948" transform="translate(19638.482 -22703.609)" fill="#4d7ff5"/>
          <rect id="Rectangle_1540-2" data-name="Rectangle 1540" width="78.772" height="238.369" transform="translate(19648.469 -22734.369)" fill="none"/>
        </g>
      </g>
    </g>
    <g id="Group_2569" data-name="Group 2569" transform="translate(-50.412 -5.012)">
      <path id="Path_4948" data-name="Path 4948" d="M89.041,78.561,78.505,67.929,0,56.629Z" transform="translate(159.027 1469.496) rotate(-30)" fill="#407bff"/>
      <g id="Group_2568" data-name="Group 2568">
        <path id="Path_4950" data-name="Path 4950" d="M74.862,83.3l3.643-15.374L0,56.629Z" transform="translate(159.842 1469.348) rotate(-30)" fill="#407bff"/>
        <g id="Group_2567" data-name="Group 2567">
          <g id="Group_2566" data-name="Group 2566" transform="translate(50.984 2.523)">
            <path id="Path_4952" data-name="Path 4952" d="M127.194,1.7l4.558,21.36a2.157,2.157,0,0,1-1.654,2.552L89.436,34.292a2.157,2.157,0,0,1-2.552-1.654l-4.558-21.36A2.153,2.153,0,0,1,83.98,8.726L124.642.048A2.153,2.153,0,0,1,127.194,1.7" transform="translate(81.283 1526.859) rotate(-30)" fill="#407bff"/>
            <path id="Path_4955" data-name="Path 4955" d="M0,56.628,64.752,72.016,74.862,83.3Z" transform="translate(109.436 1467.734) rotate(-30)" fill="#407bff"/>
          </g>
          <g id="Group_2565" data-name="Group 2565">
            <g id="Group_2536" data-name="Group 2536" transform="translate(178.412 1502.215) rotate(-30)">
              <g id="Group_2535" data-name="Group 2535" clip-path="url(#clip-path-5)">
                <g id="Group_2534" data-name="Group 2534" transform="translate(0 19.501)" opacity="0.6">
                  <g id="Group_2533" data-name="Group 2533">
                    <g id="Group_2532" data-name="Group 2532" clip-path="url(#clip-path-6)">
                      <path id="Path_4949" data-name="Path 4949" d="M0,56.628l78.505,11.3L89.041,78.561Z" transform="translate(0 -56.628)" fill="#fff"/>
                    </g>
                  </g>
                </g>
              </g>
            </g>
            <g id="Group_2539" data-name="Group 2539" transform="translate(188.162 1519.102) rotate(-30)" opacity="0.953">
              <g id="Group_2538" data-name="Group 2538">
                <g id="Group_2537" data-name="Group 2537" clip-path="url(#clip-path-7)">
                  <path id="Path_4951" data-name="Path 4951" d="M0,56.628l78.505,11.3L74.862,83.3Z" transform="translate(0 -56.628)" fill="#042a89"/>
                </g>
              </g>
            </g>
            <g id="Group_2542" data-name="Group 2542" transform="translate(202.949 1488.047) rotate(-30)" opacity="0.4">
              <g id="Group_2541" data-name="Group 2541">
                <g id="Group_2540" data-name="Group 2540" clip-path="url(#clip-path-8)">
                  <path id="Path_4953" data-name="Path 4953" d="M127.194,1.7l4.558,21.36a2.157,2.157,0,0,1-1.654,2.552L89.436,34.292a2.157,2.157,0,0,1-2.552-1.654l-4.558-21.36A2.153,2.153,0,0,1,83.98,8.726L124.642.048A2.153,2.153,0,0,1,127.194,1.7" transform="translate(-82.278 0)" fill="#021c5c"/>
                </g>
              </g>
            </g>
            <path id="Path_4954" data-name="Path 4954" d="M126.937.306,113.35,16.984a8.755,8.755,0,0,1-10.726,2.289L83.411,9.595a2.151,2.151,0,0,1,1.312-.87L125.385.047a2.152,2.152,0,0,1,1.552.259" transform="translate(131.051 1529.559) rotate(-30)" fill="#003cca"/>
            <g id="Group_2545" data-name="Group 2545" transform="translate(188.162 1519.102) rotate(-30)" opacity="0.6">
              <g id="Group_2544" data-name="Group 2544">
                <g id="Group_2543" data-name="Group 2543" clip-path="url(#clip-path-9)">
                  <path id="Path_4956" data-name="Path 4956" d="M0,56.628,64.752,72.016,74.862,83.3Z" transform="translate(0 -56.628)" fill="#fff"/>
                </g>
              </g>
            </g>
            <rect id="Rectangle_1554" data-name="Rectangle 1554" width="0.345" height="8.35" transform="matrix(0.006, -1, 1, 0.006, 216.033, 1520.484)" fill="#407bff"/>
            <rect id="Rectangle_1555" data-name="Rectangle 1555" width="0.345" height="3.004" transform="translate(228.072 1520.559) rotate(-89.637)" fill="#407bff"/>
            <path id="Path_4957" data-name="Path 4957" d="M0,56.628,64.752,72.016,52.165,87.187Z" transform="translate(159.848 1470.063) rotate(-30)" fill="#4d7ff5"/>
            <g id="Group_2548" data-name="Group 2548" transform="translate(268.686 1507.832) rotate(-30)">
              <g id="Group_2547" data-name="Group 2547">
                <g id="Group_2546" data-name="Group 2546" clip-path="url(#clip-path-10)">
                  <path id="Path_4959" data-name="Path 4959" d="M230.108,150.752a.686.686,0,0,1-.253-.049l-10.549-4.176a.689.689,0,0,1,.507-1.281l10.549,4.177a.689.689,0,0,1-.254,1.329" transform="translate(-218.87 -145.197)" fill="#2c55b1"/>
                </g>
              </g>
            </g>
            <g id="Group_2561" data-name="Group 2561" transform="translate(295.828 1500.543) rotate(-30)" opacity="0.974">
              <g id="Group_2547-2" data-name="Group 2547">
                <g id="Group_2546-2" data-name="Group 2546" clip-path="url(#clip-path-10)">
                  <path id="Path_4959-2" data-name="Path 4959" d="M230.108,150.752a.686.686,0,0,1-.253-.049l-10.549-4.176a.689.689,0,0,1,.507-1.281l10.549,4.177a.689.689,0,0,1-.254,1.329" transform="translate(-218.87 -145.197)" fill="#2c55b1"/>
                </g>
              </g>
            </g>
            <g id="Group_2551" data-name="Group 2551" transform="translate(270.318 1502.137) rotate(-30)" opacity="0.5">
              <g id="Group_2550" data-name="Group 2550">
                <g id="Group_2549" data-name="Group 2549" clip-path="url(#clip-path-12)">
                  <path id="Path_4961" data-name="Path 4961" d="M237.6,136.868a.685.685,0,0,1-.253-.049l-5.665-2.243a.689.689,0,1,1,.507-1.28l5.665,2.243a.689.689,0,0,1-.254,1.329" transform="translate(-231.246 -133.247)" fill="#fff"/>
                </g>
              </g>
            </g>
            <g id="Group_2562" data-name="Group 2562" transform="translate(289.318 1490.727) rotate(-30)" opacity="0.994">
              <g id="Group_2550-2" data-name="Group 2550">
                <g id="Group_2549-2" data-name="Group 2549" clip-path="url(#clip-path-13)">
                  <path id="Path_4961-2" data-name="Path 4961" d="M237.6,136.868a.685.685,0,0,1-.253-.049l-5.665-2.243a.689.689,0,1,1,.507-1.28l5.665,2.243a.689.689,0,0,1-.254,1.329" transform="translate(-231.246 -133.247)" fill="#4d7ff5"/>
                </g>
              </g>
            </g>
            <g id="Group_2554" data-name="Group 2554" transform="translate(258.119 1513.93) rotate(-30)" opacity="0.871">
              <g id="Group_2553" data-name="Group 2553">
                <g id="Group_2552" data-name="Group 2552" clip-path="url(#clip-path-14)">
                  <path id="Path_4963" data-name="Path 4963" d="M194.411,150.648a.685.685,0,0,1-.253-.049l-10.286-4.072a.689.689,0,1,1,.507-1.281l10.286,4.072a.689.689,0,0,1-.254,1.329" transform="translate(-183.437 -145.198)" fill="#4d7ff5"/>
                </g>
              </g>
            </g>
          </g>
        </g>
      </g>
    </g>
  </g>
</svg>
