<svg id="Group_2590" data-name="Group 2590" xmlns="http://www.w3.org/2000/svg" xmlns:xlink="http://www.w3.org/1999/xlink" width="100.296" height="100.501" viewBox="0 0 100.296 100.501">
  <defs>
    <clipPath id="clip-path">
      <rect id="Rectangle_1566" data-name="Rectangle 1566" width="100.296" height="100.501" fill="#3657a5"/>
    </clipPath>
  </defs>
  <g id="Group_2589" data-name="Group 2589" clip-path="url(#clip-path)">
    <path id="Path_4974" data-name="Path 4974" d="M100.3,50.26A50.148,50.148,0,1,1,50.22,0,50.168,50.168,0,0,1,100.3,50.26" transform="translate(0 0)" fill="#3657a5"/>
    <path id="Path_4975" data-name="Path 4975" d="M140.891,95.976q0,11.6,0,23.193c0,3.872-2.1,5.958-5.993,5.96q-9.448,0-18.9,0c-3.731,0-5.869-2.126-5.87-5.843q-.007-23.311,0-46.622c0-3.718,2.138-5.836,5.873-5.838q9.566-.006,19.132,0c3.575,0,5.747,2.158,5.752,5.722q.016,11.714,0,23.429" transform="translate(-75.36 -45.725)" fill="#fefefe"/>
    <path id="Path_4976" data-name="Path 4976" d="M151.138,79.209c-.863,0-1.727.014-2.589-.006-.522-.012-.938-.229-.949-.821-.011-.633.385-.919.976-.922q2.589-.016,5.178,0a.844.844,0,0,1,.948.832c.035.653-.4.9-.976.912-.863.018-1.726,0-2.589,0" transform="translate(-101.004 -53.001)" fill="#1e2e33"/>
  </g>
</svg>
