<svg xmlns="http://www.w3.org/2000/svg" width="140" height="139.851" viewBox="0 0 140 139.851">
  <g id="Group_2601" data-name="Group 2601" transform="translate(0)">
    <g id="Group_2602" data-name="Group 2602">
      <path id="Path_4979" data-name="Path 4979" d="M4.642,162.035c-1.265-.709-2.518-1.439-3.8-2.116a1.284,1.284,0,0,1-.719-1.338c.042-2.158.04-4.317.055-6.475a8.665,8.665,0,0,1,2.091,1.127c1.139.556,1.636.276,1.751-1.006.3-3.289.082-6.343-3.564-7.834-.084-.034-.138-.141-.206-.214q0-1.954.007-3.907c.586.124,1.187.2,1.755.376,4.152,1.3,8.308,2.591,12.437,3.963a1.719,1.719,0,0,0,2.369-.788c1.765-2.734,3.612-5.417,5.5-8.068a25.423,25.423,0,0,1,2.815-3.855,2.293,2.293,0,0,0,.336.293c7.4,4.317,14.767,8.7,22.224,12.911,2.826,1.6,5.464,3.567,8.575,4.641a4.619,4.619,0,0,1-2.37,1.48c-3.481-2.295-7.145-4.262-10.94-6.4,0,5.629.045,10.959-.032,16.287a2.6,2.6,0,0,0,1.494,2.614c6.238,3.645,12.433,7.363,18.645,11.053q3.843,2.283,7.695,4.555l.224-.216L60.389,158.394a7.262,7.262,0,0,1,2.69-3.935c3.339,6.419,6.711,12.82,9.99,19.27.615,1.21,1.071,1.417,2.287.7q18.881-11.12,37.836-22.115c.9-.523,1.05-.94.566-1.865-3.41-6.494-6.766-13.018-10.152-19.525-.91-1.748-.931-1.737-2.582-.772Q91.012,136,81,141.855,73.086,146.5,65.2,151.193a4.493,4.493,0,0,1-1.751-1.159.835.835,0,0,1,.49-.694q5.507-3.2,11-6.423c7.209-4.2,14.4-8.427,21.637-12.588a52.46,52.46,0,0,1,7.062-3.917q6.782,12.894,13.231,25.959a44.217,44.217,0,0,1-6.146,3.729Q95.554,164.98,80.39,173.865c-2.408,1.41-4.807,2.834-7.2,4.246.11.229.129.348.2.4C80.21,183.582,86.761,189,93.407,194.293a1.825,1.825,0,0,1,.814,1.619c-.024,2.968-.008,5.937-.012,8.905,0,.4.075.815-.277,1.127-3.954-2.222-7.924-4.415-11.851-6.684-1.016-.587-1.811-.678-2.554.317q-.059,2.891-.118,5.783l-.818-.179-.36-.5a21.441,21.441,0,0,0-.3-4.494c-1.575-7.13-4.9-13.053-11.6-16.521-5.769-2.984-11.793.185-12.868,6.651-5.732-3.293-11.453-6.608-17.2-9.868a39.256,39.256,0,0,0-6.183-3.361c-.058-.418-.491-.492-.7-.766A24.14,24.14,0,0,0,23.982,160.9c-2.432-3.125-5.307-5.773-9.5-6.56-4.728-.888-9.748,2.935-9.843,7.7m34.31-1.6c0-6,0-11.676.006-17.35,0-.626-.416-.863-.856-1.117-3.87-2.234-7.751-4.45-11.6-6.719-.791-.467-1.187-.323-1.688.411q-3.616,5.29-7.335,10.51c-.545.767-.607,1.206.335,1.732,2.454,1.37,4.845,2.854,7.262,4.29l13.877,8.243m3.219,4.347c-.182,2.127-.219,2.191.428,2.567,2.194,1.275,4.418,2.5,6.945,3.92-.222-1.15.329-2.135-.688-2.728-2.154-1.256-4.346-2.449-6.685-3.759M16.425,149.835c.119,1.15-.406,2.085.57,2.67,1.9,1.135,3.809,2.241,5.72,3.352.249.145.649.369.726-.061.127-.709.428-1.584-.37-2.072-2.089-1.278-4.224-2.479-6.645-3.888" transform="translate(-0.073 -75.46)" fill="#4d7ff5"/>
      <path id="Path_4980" data-name="Path 4980" d="M140.677,103.6a52.388,52.388,0,0,0-7.062,3.917c-7.233,4.16-14.429,8.385-21.637,12.588q-5.5,3.209-11,6.423a.835.835,0,0,0-.49.694,8.964,8.964,0,0,1-2.656-3.152c-.328-.568-.3-1.6-1.067-1.6-.659,0-.7.983-1.008,1.526a7.775,7.775,0,0,1-2.445,2.937c-3.111-1.074-5.749-3.044-8.575-4.641-7.458-4.215-14.824-8.593-22.224-12.911a2.293,2.293,0,0,1-.336-.293,28.955,28.955,0,0,1,5.284-3.315c5.372-3.156,10.771-6.267,16.16-9.4,2.17,2.878,4.449,5.666,6.769,8.425a33.3,33.3,0,0,0,11.314,8.228l.325.244c.1.274.321.33.574.337.94.817,1.086-.126,1.318-.649,1.608-3.618,3.228-7.231,4.761-10.881,1.939-4.613,3.8-9.259,5.7-13.891q7.82,4.491,15.638,8.984,4.627,2.665,9.235,5.362a3.4,3.4,0,0,1,1.431,1.062" transform="translate(-37.113 -52.643)" fill="#173a8d"/>
      <path id="Path_4981" data-name="Path 4981" d="M151.441,42.974c-1.895,4.632-3.756,9.278-5.7,13.891-1.534,3.65-3.154,7.263-4.761,10.881-.232.522-.378,1.465-1.318.649a.609.609,0,0,0-.574-.337l-.325-.244c-.322-1.229-1.342-1.972-2.121-2.829-5.276-5.8-10.079-11.877-12.358-19.568,0-.1,0-.193-.009-.29q0-2.564-.009-5.128c.68-1.072.241-2.35.734-3.52.931-2.212,1.564-4.549,2.322-6.835.824,1.094.95,1.147,1.161.649a7.221,7.221,0,0,1,4.03-3.812c-.73-.874-2.038-.657-2.285-1.807a36.161,36.161,0,0,1,3.8-4.888,66.809,66.809,0,0,1,5.632-4.86c2.975-1.69,6.087-2.828,9.591-2.385,5.1,1.838,7.727,6.38,7.124,12.324-.553,5.451-2.427,10.549-4.17,15.683-.273.8-.514,1.619-.771,2.429m-20.2-3.63c1.075,4.617,4.285,5.953,8.126,3.383a3.218,3.218,0,0,0,.683-.279,18.659,18.659,0,0,0,6.97-9.361c.576-1.665,1.2-3.352.816-5.183-.008-.453.015-.908-.028-1.358-.332-3.525-3.321-5.4-6.379-4.016a2.457,2.457,0,0,0-1.673.53c-5.275,2.786-9.224,10.348-8.516,16.284" transform="translate(-74.18 -7.427)" fill="#d00c39"/>
      <path id="Path_4982" data-name="Path 4982" d="M202.143,244.389c.352-.311.276-.732.277-1.127,0-2.969-.012-5.937.012-8.905a1.825,1.825,0,0,0-.814-1.619c-6.646-5.3-13.2-10.711-20.019-15.783-.069-.051-.087-.17-.2-.4,2.393-1.412,4.792-2.835,7.2-4.246q15.164-8.885,30.332-17.763a44.238,44.238,0,0,0,6.146-3.729q10.452,8.046,20.9,16.1c.3.232.707.416.723.9a3.653,3.653,0,0,0-.7.237q-9.935,5.748-19.862,11.511c-7.355,4.266-14.7,8.549-22.076,12.779a2.248,2.248,0,0,0-1.366,2.236c.064,3.266.022,6.534.021,9.8-.183.281-.374.3-.572.015m30.723-31.615c-.064-.186-.108-.329-.164-.468q-3.591-9.007-7.183-18.015c-.259-.651-.547-.609-1.122-.26-3,1.815-6.03,3.574-9.06,5.334q-14.286,8.3-28.576,16.594c-.408.237-1.128.287-1.068.895.058.58.749.558,1.2.711,7.693,2.582,15.393,5.147,23.077,7.755a2.5,2.5,0,0,0,2.263-.212c3.678-2.141,7.377-4.248,11.07-6.363,2.607-1.494,5.225-2.969,7.819-4.483.661-.386,1.49-.628,1.739-1.487" transform="translate(-108.283 -113.905)" fill="#4d7ff5"/>
      <path id="Path_4983" data-name="Path 4983" d="M234.246,269.54c0-3.267.043-6.535-.021-9.8a2.249,2.249,0,0,1,1.367-2.236c7.376-4.229,14.721-8.513,22.076-12.779q9.929-5.759,19.862-11.511a3.669,3.669,0,0,1,.7-.237l.042,11.174q-15.879,9.2-31.764,18.4c-4.078,2.348-8.063,4.862-12.266,6.991m37.1-24.183c.824.948,1.7.712,2.5.022a5.718,5.718,0,0,0,1.965-3.3c.15-.832.424-1.818-.509-2.484a2.248,2.248,0,0,0-2.884-.277,5.642,5.642,0,0,0-2.268,3.907,1.742,1.742,0,0,0,1.2,2.132m-30.128,13.277a1.389,1.389,0,0,0-1.984-.345,5.728,5.728,0,0,0-2.557,4.952c.143.759.455,1.456,1.478,1.19.576,1.16,1.46.982,2.238.366a5.561,5.561,0,0,0,2.308-4.672c-.027-.957-.465-1.514-1.481-1.49" transform="translate(-139.815 -139.071)" fill="#173a8d"/>
      <path id="Path_4984" data-name="Path 4984" d="M279.383,263.733c0,1.962-.06,3.926.034,5.884a2,2,0,0,1-1.171,2.038Q271.012,275.811,263.8,280q-9.947,5.77-19.886,11.554c-3.162,1.839-6.317,3.69-9.485,5.517a3.124,3.124,0,0,1-.862.206q.008-3.649.017-7.3c.179-.089.366-.167.538-.268q8.8-5.156,17.608-10.312c6.4-3.727,12.785-7.468,19.222-11.124,2.776-1.576,5.388-3.468,8.433-4.546" transform="translate(-139.422 -157.43)" fill="#d00c39"/>
      <path id="Path_4985" data-name="Path 4985" d="M46.777,101.76c-5.389,3.128-10.788,6.239-16.16,9.4a28.949,28.949,0,0,0-5.284,3.315,25.4,25.4,0,0,0-2.816,3.855c-1.888,2.651-3.734,5.334-5.5,8.068a1.719,1.719,0,0,1-2.369.788c-4.129-1.371-8.286-2.661-12.437-3.963-.568-.178-1.168-.253-1.755-.376.077-.618.634-.737,1.049-.978Q22.755,109.53,44.012,97.21l2.765,4.55" transform="translate(-0.273 -58.027)" fill="#021c5c"/>
      <path id="Path_4986" data-name="Path 4986" d="M111.046,58.6c.006.1.01.193.009.29-1.059.04-1.7-.81-2.528-1.245-1.915-1.008-3.748-2.174-5.614-3.276a3.417,3.417,0,0,1-.81-2.639,31.153,31.153,0,0,1,4.7-16.713l5.853,3.373a2.916,2.916,0,0,1-1.177.885c-.275.165-.787.18-.678.637.05.21.427.36.676.5,1.138.644,2.249,1.31,2.611,2.7-.757,2.285-1.391,4.623-2.322,6.835-.493,1.171-.054,2.448-.734,3.52a9.435,9.435,0,0,0,.009,5.128" transform="translate(-60.948 -20.904)" fill="#ea0c3f"/>
      <path id="Path_4987" data-name="Path 4987" d="M35.971,226.752a7.084,7.084,0,0,1-8.752-.293,20.26,20.26,0,0,1-8.459-16c.111-.542.22-1.083.334-1.624a4.969,4.969,0,0,1,4.491-4.213,6.863,6.863,0,0,1,4,1.114,20.161,20.161,0,0,1,9,12.864c.228.909.021,1.918.628,2.736a24.553,24.553,0,0,1-1.247,5.419m-1.7-6.594a13.179,13.179,0,0,0-6.854-11.013c-3.261-1.564-6.035.078-5.888,3.689a13.2,13.2,0,0,0,6.517,10.918,4.115,4.115,0,0,0,4.423.411c1.616-.911,1.794-2.543,1.8-4" transform="translate(-11.198 -122.138)" fill="#474643"/>
      <path id="Path_4988" data-name="Path 4988" d="M119.628,20.595l-5.853-3.373A32.8,32.8,0,0,1,124.3,5.641a2.1,2.1,0,0,1,1.546-.416c.036.454.34.669.705.878,1.117.639,2.264,1.242,3.309,1.986,1.179.838,2.733,1.152,3.539,2.513a66.68,66.68,0,0,0-5.632,4.86,36.1,36.1,0,0,0-3.8,4.888c-.875-.341-1.191-1.16-1.56-1.9-.4-.811-.667-.7-1.038.012a3.954,3.954,0,0,1-1.74,2.135" transform="translate(-67.916 -3.106)" fill="#d00030"/>
      <path id="Path_4989" data-name="Path 4989" d="M157.626,296.307c-3.072,2.877-5.955,2.791-9.806-.278a19.5,19.5,0,0,1-7.55-14.187c-.031-.4-.106-.791-.161-1.187a2.629,2.629,0,0,0,.216-.549c.762-5.027,4.287-6.813,8.66-4.134a18.813,18.813,0,0,1,9.223,15.315,8.6,8.6,0,0,1-.8,4.416c-.153.258-.021.461.217.6m-1.936-6.624c-.544-4.115-2.449-7.995-6.775-10.289-3.507-1.86-6.4,0-6.03,3.964a13.185,13.185,0,0,0,6.715,10.648c3.355,1.952,6.141.16,6.089-4.323" transform="translate(-83.634 -163.996)" fill="#474643"/>
      <path id="Path_4990" data-name="Path 4990" d="M153.631,285.868a18.8,18.8,0,0,0-9.223-15.314c-4.373-2.679-7.9-.893-8.66,4.134a2.62,2.62,0,0,1-.216.549,16.923,16.923,0,0,1-3.091-1.8c1.075-6.466,7.1-9.635,12.868-6.651a20.567,20.567,0,0,1,8.253,7.719,28.528,28.528,0,0,1,3.352,8.8,21.412,21.412,0,0,1,.3,4.493l-3.585-1.93" transform="translate(-79.058 -158.576)" fill="#173a8d"/>
      <path id="Path_4991" data-name="Path 4991" d="M32.787,215.815c-.607-.817-.4-1.826-.628-2.735a20.161,20.161,0,0,0-9-12.864,6.866,6.866,0,0,0-4-1.114,4.97,4.97,0,0,0-4.491,4.213c-.114.541-.223,1.082-.334,1.624L11.337,203.2c.1-4.764,5.115-8.587,9.843-7.7,4.19.787,7.064,3.434,9.5,6.56a24.138,24.138,0,0,1,5.381,15.427l-3.271-1.669" transform="translate(-6.767 -116.621)" fill="#173a8d"/>
      <path id="Path_4992" data-name="Path 4992" d="M103.585,83.031c1.866,1.1,3.7,2.268,5.614,3.276.825.435,1.469,1.284,2.528,1.244,2.279,7.691,7.082,13.769,12.358,19.568.779.857,1.8,1.6,2.121,2.829a33.3,33.3,0,0,1-11.314-8.228c-2.32-2.759-4.6-5.547-6.769-8.424l-2.765-4.55c-.616-1.472-1.252-2.936-1.836-4.421-.16-.405-.605-.9.062-1.294" transform="translate(-61.62 -49.564)" fill="#f8587d"/>
      <path id="Path_4993" data-name="Path 4993" d="M211.581,316.365q-.008,3.648-.017,7.3a28.922,28.922,0,0,1-4.713-2.568c-2.865-1.628-5.681-3.345-8.535-4.994-.944-.546-1.828-1.075-1.558-2.389q.058-2.891.116-5.782l14.707,8.437" transform="translate(-117.421 -183.811)" fill="#f7a9bb"/>
      <path id="Path_4994" data-name="Path 4994" d="M211.826,288.173l-14.707-8.437c.744-.995,1.539-.9,2.555-.317,3.926,2.268,7.9,4.462,11.85,6.684.2.28.389.266.572-.015,4.2-2.128,8.188-4.643,12.266-6.991q15.9-9.159,31.764-18.4c.583.306,1.233.528,1.5,1.223-3.045,1.078-5.658,2.97-8.433,4.546-6.437,3.656-12.825,7.4-19.222,11.124q-8.815,5.136-17.608,10.312c-.173.1-.358.179-.538.268" transform="translate(-117.666 -155.619)" fill="#a00025"/>
      <path id="Path_4995" data-name="Path 4995" d="M151.282,7.5c-.806-1.361-2.36-1.675-3.539-2.513C146.7,4.24,145.55,3.636,144.433,3c-.366-.209-.67-.424-.705-.878,3.843-2.458,7.772-3,11.789-.444,1.79,1.137,3.809,1.917,5.355,3.435-3.5-.443-6.616.7-9.591,2.385" transform="translate(-85.795 0)" fill="#ea0c3f"/>
      <path id="Path_4996" data-name="Path 4996" d="M.177,170.494c.068.073.122.18.206.214,3.646,1.491,3.86,4.544,3.564,7.834-.115,1.282-.612,1.561-1.751,1.005A8.668,8.668,0,0,0,.1,178.42a56.055,56.055,0,0,1,.073-7.926" transform="translate(0 -101.773)" fill="#e76e6e"/>
      <path id="Path_4997" data-name="Path 4997" d="M62.708,246.1l3.271,1.669c.214.274.647.347.705.765l-5.223,2.984a24.547,24.547,0,0,0,1.247-5.419" transform="translate(-36.688 -146.902)" fill="#434240"/>
      <path id="Path_4998" data-name="Path 4998" d="M183.733,315.805l3.585,1.93q.18.25.36.5l-4.528,2.591c-.237-.142-.37-.345-.216-.6a8.6,8.6,0,0,0,.8-4.416" transform="translate(-109.159 -188.513)" fill="#434240"/>
      <path id="Path_4999" data-name="Path 4999" d="M158.43,155.768c5.268-3.114,10.529-6.24,15.806-9.338q10-5.87,20.021-11.7c1.651-.965,1.672-.976,2.582.772,3.386,6.507,6.741,13.031,10.152,19.525.485.924.336,1.341-.566,1.865Q187.479,167.9,168.59,179c-1.216.716-1.672.509-2.287-.7-3.279-6.449-6.651-12.852-9.99-19.27a7.46,7.46,0,0,1,2.847-1.8c.274-.134.794-.112.727-.586-.052-.372-.439-.478-.79-.568a3.824,3.824,0,0,1-.668-.31" transform="translate(-93.308 -80.034)" fill="#434240"/>
      <path id="Path_5000" data-name="Path 5000" d="M123.777,185.664l10.594,20.725-.224.216q-3.847-2.277-7.695-4.555c-6.211-3.69-12.407-7.408-18.645-11.053a2.6,2.6,0,0,1-1.494-2.614c.077-5.327.032-10.657.032-16.286,3.795,2.139,7.459,4.106,10.939,6.4-.246.412-1.137.162-1.011.879.087.493.676.509,1.078.68a8.934,8.934,0,0,1,5.184,5.48c.409,1.188.769.68,1.24.127" transform="translate(-63.462 -102.73)" fill="#434240"/>
      <path id="Path_5001" data-name="Path 5001" d="M64.072,173.113,50.2,164.87c-2.417-1.437-4.808-2.92-7.262-4.29-.942-.526-.879-.965-.335-1.732q3.709-5.226,7.336-10.511c.5-.733.9-.877,1.688-.411,3.849,2.27,7.73,4.486,11.6,6.72.441.254.857.491.856,1.117-.011,5.674-.006,11.349-.006,17.35" transform="translate(-25.193 -88.141)" fill="#434240"/>
      <path id="Path_5002" data-name="Path 5002" d="M138.512,186.341c-.472.553-.831,1.061-1.24-.127a8.936,8.936,0,0,0-5.184-5.48c-.4-.171-.991-.187-1.078-.68-.127-.717.764-.468,1.011-.879a4.622,4.622,0,0,0,2.371-1.481,7.771,7.771,0,0,0,2.445-2.937c.313-.543.349-1.524,1.008-1.526.772,0,.74,1.031,1.068,1.6a8.96,8.96,0,0,0,2.655,3.152,4.5,4.5,0,0,0,1.751,1.159,3.831,3.831,0,0,0,.667.31c.351.089.737.2.79.568.067.475-.453.453-.728.586a7.461,7.461,0,0,0-2.847,1.8,7.262,7.262,0,0,0-2.69,3.935" transform="translate(-78.196 -103.407)" fill="#d00c39"/>
      <path id="Path_5003" data-name="Path 5003" d="M104.274,221.6c2.339,1.31,4.53,2.5,6.685,3.759,1.017.593.465,1.578.688,2.728-2.526-1.421-4.75-2.646-6.945-3.92-.647-.376-.609-.44-.428-2.567" transform="translate(-62.175 -132.276)" fill="#474643"/>
      <path id="Path_5004" data-name="Path 5004" d="M40.514,184.523c2.421,1.409,4.557,2.61,6.645,3.888.8.488.5,1.363.37,2.072-.077.43-.476.206-.726.061-1.91-1.111-3.824-2.217-5.72-3.352-.975-.584-.45-1.519-.57-2.67" transform="translate(-24.162 -110.147)" fill="#474643"/>
      <path id="Path_5005" data-name="Path 5005" d="M161.043,150.417a.609.609,0,0,1,.573.337.536.536,0,0,1-.573-.337" transform="translate(-96.131 -89.788)" fill="#e76e6e"/>
      <path id="Path_5006" data-name="Path 5006" d="M160.736,45.383c.385,1.831-.24,3.518-.817,5.183a18.658,18.658,0,0,1-6.971,9.361,3.207,3.207,0,0,1-.682.279c-2.09-1.42-4.469-2.385-6.381-4.084a19.67,19.67,0,0,0,6.847-8.361,25.861,25.861,0,0,0,1.6-6.036Z" transform="translate(-87.083 -24.907)" fill="#f7a9bb"/>
      <path id="Path_5007" data-name="Path 5007" d="M125.528,39.369a3.954,3.954,0,0,0,1.74-2.135c.372-.715.636-.823,1.038-.012.368.742.685,1.562,1.56,1.9.247,1.151,1.555.934,2.285,1.807a7.219,7.219,0,0,0-4.03,3.812c-.211.5-.338.445-1.162-.649-.362-1.395-1.472-2.06-2.611-2.7-.249-.141-.626-.29-.676-.5-.109-.457.4-.472.678-.637a2.912,2.912,0,0,0,1.177-.885" transform="translate(-73.815 -21.88)" fill="#173a8d"/>
      <path id="Path_5008" data-name="Path 5008" d="M141.556,78.145l1.745-.7c1.911,1.7,4.291,2.664,6.381,4.084-3.841,2.57-7.051,1.234-8.126-3.383" transform="translate(-84.499 -46.229)" fill="#a00025"/>
      <path id="Path_5009" data-name="Path 5009" d="M166.833,38.5q0-.858,0-1.717c3.057-1.387,6.046.491,6.378,4.016.042.449.02.9.028,1.358L166.833,38.5" transform="translate(-99.587 -21.685)" fill="#a00025"/>
      <path id="Path_5010" data-name="Path 5010" d="M123.759,85.932a9.435,9.435,0,0,1-.009-5.128q0,2.564.009,5.128" transform="translate(-73.66 -48.234)" fill="#e76e6e"/>
      <path id="Path_5011" data-name="Path 5011" d="M239.216,217.162c-.249.859-1.078,1.1-1.739,1.487-2.595,1.514-5.213,2.989-7.819,4.483-3.693,2.116-7.392,4.222-11.07,6.363a2.5,2.5,0,0,1-2.263.212c-7.685-2.608-15.384-5.172-23.077-7.755-.455-.153-1.146-.131-1.2-.711-.06-.607.659-.657,1.068-.895q14.283-8.3,28.576-16.594c3.03-1.761,6.062-3.52,9.06-5.334.575-.348.863-.39,1.122.26q3.588,9.009,7.183,18.015c.055.139.1.282.164.468" transform="translate(-114.634 -118.293)" fill="#173a8d"/>
      <path id="Path_5012" data-name="Path 5012" d="M246.554,296.628c1.016-.024,1.454.534,1.481,1.49a5.561,5.561,0,0,1-2.308,4.672c-.778.616-1.662.794-2.238-.366-.823-2.283-.233-3.7,3.064-5.8" transform="translate(-145.147 -177.065)" fill="#e8e6e0"/>
      <path id="Path_5013" data-name="Path 5013" d="M244.8,295.73c-3.3,2.1-3.887,3.514-3.064,5.8-1.022.266-1.335-.431-1.478-1.19a5.728,5.728,0,0,1,2.557-4.952,1.389,1.389,0,0,1,1.984.345" transform="translate(-143.393 -176.168)" fill="#d6d4d1"/>
      <path id="Path_5014" data-name="Path 5014" d="M328.468,248.379a4.386,4.386,0,0,0-3.956,4.267c-.025.5,0,1,0,1.494a1.743,1.743,0,0,1-1.2-2.132,5.643,5.643,0,0,1,2.268-3.907,2.248,2.248,0,0,1,2.884.277" transform="translate(-192.978 -147.855)" fill="#d6d4d1"/>
      <path id="Path_5015" data-name="Path 5015" d="M38.358,225.995c-.008,1.461-.185,3.094-1.8,4a4.115,4.115,0,0,1-4.423-.411,13.2,13.2,0,0,1-6.517-10.918c-.147-3.611,2.627-5.253,5.888-3.689a13.178,13.178,0,0,1,6.854,11.013M34.9,223.779a6.974,6.974,0,0,0-2.944-4.978,1.7,1.7,0,0,0-2.832,1.473,6.083,6.083,0,0,0,3.017,5.249,1.77,1.77,0,0,0,1.988.2c.667-.409.749-1.142.771-1.943" transform="translate(-15.288 -127.976)" fill="#fafafa"/>
      <path id="Path_5016" data-name="Path 5016" d="M159.757,295.514c.052,4.483-2.734,6.275-6.089,4.323a13.184,13.184,0,0,1-6.715-10.648c-.368-3.968,2.523-5.824,6.03-3.964,4.325,2.294,6.231,6.174,6.775,10.289m-3.538-1.806a6.932,6.932,0,0,0-2.836-4.724,1.753,1.753,0,0,0-1.975-.254,1.827,1.827,0,0,0-.948,1.892,6.218,6.218,0,0,0,3.043,5.064c1.557,1,2.722.256,2.715-1.978" transform="translate(-87.701 -169.826)" fill="#fafafa"/>
      <path id="Path_5017" data-name="Path 5017" d="M40.114,229.677c-.022.8-.1,1.534-.771,1.943a1.77,1.77,0,0,1-1.988-.2,6.083,6.083,0,0,1-3.017-5.249A1.7,1.7,0,0,1,37.17,224.7a6.974,6.974,0,0,1,2.944,4.978" transform="translate(-20.498 -133.874)" fill="#474643"/>
      <path id="Path_5018" data-name="Path 5018" d="M161.451,299.678c.007,2.234-1.158,2.976-2.715,1.978a6.218,6.218,0,0,1-3.043-5.064,1.827,1.827,0,0,1,.948-1.892,1.754,1.754,0,0,1,1.975.254,6.932,6.932,0,0,1,2.836,4.724" transform="translate(-92.934 -175.795)" fill="#474643"/>
    </g>
  </g>
</svg>
