<svg xmlns="http://www.w3.org/2000/svg" width="100.296" height="100.492" viewBox="0 0 100.296 100.492">
  <g id="Group_2587" data-name="Group 2587" transform="translate(-0.001)">
    <g id="Group_2588" data-name="Group 2588" transform="translate(0.001)">
      <path id="Path_4969" data-name="Path 4969" d="M47.014,0h6.268a5.568,5.568,0,0,0,.754.16A47.662,47.662,0,0,1,75.14,6.7c13.337,7.947,21.514,19.573,24.387,34.882.342,1.823.517,3.678.769,5.518v6.281a5.584,5.584,0,0,0-.162.758A48.113,48.113,0,0,1,93.1,76.134C85.127,89.017,73.693,96.94,58.785,99.728c-1.818.34-3.668.513-5.5.764H47.014c-.283-.058-.564-.13-.85-.17-2.1-.3-4.223-.457-6.288-.9A49.179,49.179,0,0,1,10.024,80.342,48.981,48.981,0,0,1,.26,45.2a48.6,48.6,0,0,1,12.1-27.95A49.114,49.114,0,0,1,41.6.758C43.4.445,45.21.25,47.014,0M19.97,80.333l.155.15c3.559-1.911,7.124-3.81,10.671-5.744a1.166,1.166,0,0,1,1.471.058,29.754,29.754,0,0,0,21.622,5.636,30.423,30.423,0,1,0-10-59.97C22.882,24.885,12.913,49.476,25,67.2a2.767,2.767,0,0,1,.173,3.5c-1.843,3.145-3.479,6.412-5.2,9.63" transform="translate(0)" fill="#3657a5"/>
      <path id="Path_4970" data-name="Path 4970" d="M75.766,136.214c1.72-3.218,3.357-6.484,5.2-9.63a2.767,2.767,0,0,0-.173-3.5c-12.083-17.725-2.114-42.316,18.895-46.738a30.423,30.423,0,1,1,10,59.97,29.753,29.753,0,0,1-21.622-5.636,1.166,1.166,0,0,0-1.471-.058c-3.547,1.933-7.112,3.833-10.671,5.743l-.155-.15M105.938,90.8q-5.334,0-10.667,0c-1.428,0-2.3.738-2.333,1.943-.039,1.245.837,2.05,2.3,2.1.26.01.522,0,.783,0H113.73c1.044,0,2.088.014,3.131-.014a1.957,1.957,0,0,0,2-1.427,1.985,1.985,0,0,0-2.061-2.6c-3.621-.019-7.241-.006-10.862-.007m-.048,30.648q5.333,0,10.667,0c1.49,0,2.375-.745,2.395-1.983s-.864-2.056-2.336-2.059q-10.666-.022-21.333,0c-1.475,0-2.358.815-2.345,2.049s.9,1.99,2.384,1.992q5.284.009,10.569,0M106,104.115c-3.555,0-7.11-.006-10.665,0-1.5,0-2.38.743-2.4,1.978-.017,1.271.881,2.025,2.434,2.042.131,0,.261,0,.391,0q10.176,0,20.352,0a8.448,8.448,0,0,0,1.172-.04,2,2,0,0,0-.037-3.945,8.4,8.4,0,0,0-1.075-.036q-5.088,0-10.176,0" transform="translate(-55.796 -55.881)" fill="#fff"/>
      <path id="Path_4971" data-name="Path 4971" d="M154.923,133.434c3.621,0,7.242-.013,10.862.007a1.985,1.985,0,0,1,2.061,2.6,1.957,1.957,0,0,1-2,1.427c-1.043.028-2.088.014-3.131.014H145c-.261,0-.522.007-.783,0-1.459-.054-2.336-.858-2.3-2.1.038-1.2.905-1.94,2.333-1.943q5.333-.011,10.667,0" transform="translate(-104.781 -98.512)" fill="#173a8d"/>
      <path id="Path_4972" data-name="Path 4972" d="M154.875,239.12q-5.284,0-10.569,0c-1.484,0-2.371-.754-2.384-1.993s.87-2.046,2.345-2.049q10.666-.022,21.333,0c1.472,0,2.355.823,2.335,2.059s-.9,1.98-2.395,1.982q-5.333.008-10.667,0" transform="translate(-104.781 -173.549)" fill="#173a8d"/>
      <path id="Path_4973" data-name="Path 4973" d="M154.982,184.308q5.088,0,10.176,0a8.4,8.4,0,0,1,1.075.035,2,2,0,0,1,.037,3.945,8.408,8.408,0,0,1-1.172.04q-10.176,0-20.352,0c-.131,0-.261,0-.391,0-1.553-.017-2.451-.77-2.434-2.042.016-1.235.894-1.974,2.4-1.978,3.555-.008,7.11,0,10.665,0" transform="translate(-104.78 -136.074)" fill="#173a8d"/>
    </g>
  </g>
</svg>
