<svg xmlns="http://www.w3.org/2000/svg" width="221" height="251.014" viewBox="0 0 221 251.014">
  <g id="Group_2599" data-name="Group 2599" transform="translate(-239 -457.985)">
    <g id="Group_2425" data-name="Group 2425" transform="translate(-199.635 30.557)">
      <g id="Ellipse_52" data-name="Ellipse 52" transform="translate(438.634 457.443)" fill="#d5f4ff" stroke="#0096ce" stroke-width="6" opacity="0.492">
        <circle cx="110.5" cy="110.5" r="110.5" stroke="none"/>
        <circle cx="110.5" cy="110.5" r="107.5" fill="none"/>
      </g>
      <g id="Group_518" data-name="Group 518" transform="translate(501.678 559.19)">
        <g id="Ellipse_51" data-name="Ellipse 51" transform="translate(0 -34.211)" fill="#00b0ec" stroke="#00b0ec" stroke-width="1">
          <ellipse cx="47.456" cy="47.515" rx="47.456" ry="47.515" stroke="none"/>
          <ellipse cx="47.456" cy="47.515" rx="46.956" ry="47.015" fill="none"/>
        </g>
        <path id="map-marker" d="M59.668,40.229A19.49,19.49,0,0,0,53.84,26.008a19.055,19.055,0,0,0-14.062-5.894,19.055,19.055,0,0,0-14.062,5.894,19.49,19.49,0,0,0-5.828,14.221,19.49,19.49,0,0,0,5.828,14.221,19.055,19.055,0,0,0,14.062,5.894A19.055,19.055,0,0,0,53.84,54.451,19.49,19.49,0,0,0,59.668,40.229Zm19.889,0q0,8.566-2.562,14.064L48.715,115.11a9.515,9.515,0,0,1-3.689,4.087,9.963,9.963,0,0,1-10.488,0,9,9,0,0,1-3.613-4.087L2.562,54.293Q0,48.795,0,40.229A38.973,38.973,0,0,1,11.655,11.787,38.126,38.126,0,0,1,39.778,0,38.093,38.093,0,0,1,67.9,11.787,38.988,38.988,0,0,1,79.557,40.229Z" transform="translate(38.455 -131.761)" fill="#003078"/>
      </g>
    </g>
    <g id="Group_2461" data-name="Group 2461" transform="translate(312.675 557.084)">
      <g id="Group_2462" data-name="Group 2462" transform="translate(0 0)">
        <path id="Path_4657" data-name="Path 4657" d="M57.372,230.474a1.893,1.893,0,0,1,1.24-1.7,32.1,32.1,0,0,1,4.408-1.825,1.985,1.985,0,0,1,2.035.324,2.943,2.943,0,0,1,.531,1.339q.822,4.584,1.637,9.17a7.381,7.381,0,0,0,7.389,6.283q8.47.036,16.941-.005a7.288,7.288,0,0,0,7.073-5.751c.2-.9.352-1.809.512-2.716q.641-3.655,1.269-7.311l.241-.45a10.513,10.513,0,0,1,2.218.877,1.761,1.761,0,0,1,1.1,1.351,8.813,8.813,0,0,1,.206,1.576c.021,2.236.007,4.473.006,6.71-2.384,2.394-4.755,4.8-7.162,7.174a3.707,3.707,0,0,1-2.741.995c-.34,0-.682,0-1.021.027a5.4,5.4,0,0,0-4.728,4.882c-.013.322-.032.639.287.846.347.226.643.079.943-.113.92-.592,1.855-1.161,2.761-1.774a1.141,1.141,0,0,1,1.679.16c.363.393.747.766,1.134,1.136a1.118,1.118,0,0,1,.176,1.572c-.539.839-1.042,1.7-1.625,2.509a1.479,1.479,0,0,0-.219,1.595H57.424c0-2.939.007-5.879,0-8.818q-.021-9.031-.052-18.062m5.158,20.712a10.509,10.509,0,0,0-.09-1.764,1.176,1.176,0,0,0-1.174-.992,1.1,1.1,0,0,0-1.238.985,11.7,11.7,0,0,0,.028,3.761,1.1,1.1,0,0,0,1.2.95,1.173,1.173,0,0,0,1.148-.939,9.161,9.161,0,0,0,.125-2" transform="translate(-46.169 -182.523)" fill="#003078"/>
        <path id="Path_4658" data-name="Path 4658" d="M11.2,245.56q.027,9.031.052,18.063c.007,2.939,0,5.879,0,8.818H5.411a8.494,8.494,0,0,1-3.294-1.734,7.056,7.056,0,0,1-2.092-5.96,24.515,24.515,0,0,1,3.651-11.59,23.928,23.928,0,0,1,7.527-7.6" transform="translate(0 -197.609)" fill="#1060ac"/>
        <path id="Path_4659" data-name="Path 4659" d="M222.024,254.315a1.479,1.479,0,0,1,.219-1.595c.584-.806,1.087-1.67,1.625-2.509a1.118,1.118,0,0,0-.176-1.572c-.387-.37-.772-.743-1.134-1.136a1.141,1.141,0,0,0-1.679-.16c-.905.613-1.841,1.182-2.761,1.774-.3.193-.6.34-.943.113-.319-.208-.3-.524-.287-.846a5.4,5.4,0,0,1,4.728-4.882c.339-.029.681-.03,1.021-.027a3.706,3.706,0,0,0,2.741-.995c2.407-2.372,4.778-4.78,7.162-7.174,1.269-1.259,2.546-2.51,3.8-3.783a2.187,2.187,0,0,0,.611-1.055c.538-.891.26-1.9.392-2.842a5.506,5.506,0,0,1,4.647-4.571,1.02,1.02,0,0,1,1.1.391c.261.382-.033.662-.193.926-.525.872-1.09,1.719-1.646,2.572-.583.894-.563,1.105.2,1.872.378.379.758.755,1.135,1.135a.98.98,0,0,0,1.424.12c.9-.621,1.819-1.2,2.747-1.776.317-.2.656-.455,1.064-.126.363.292.318.611.244,1.034a5.244,5.244,0,0,1-4.124,4.536c-.062.016-.108.091-.162.139-1.192.017-2.421-.2-3.5.543a17.789,17.789,0,0,0-3.357,3.152l-4.554,4.548c-1.074,1.052-2.139,2.112-3.223,3.153a4.459,4.459,0,0,0-1.449,3.505,5.365,5.365,0,0,1-3.506,5.2c-.156.063-.477-.023-.417.332h-.292c-.1-.24-.195-.077-.292,0Z" transform="translate(-174.532 -179.483)" fill="#dddcdd"/>
        <path id="Path_4660" data-name="Path 4660" d="M319.522,284.5a17.788,17.788,0,0,1,3.357-3.152c.437.779.908,1.541,1.306,2.34a24.332,24.332,0,0,1,2.648,11.136,6.586,6.586,0,0,1-4.219,6c-.225.081-.569.042-.6.417h-2.484l0-16.74" transform="translate(-257.128 -226.411)" fill="#1060ac"/>
        <path id="Path_4661" data-name="Path 4661" d="M332.252,298.932c.036-.376.38-.337.6-.418a6.585,6.585,0,0,0,4.219-6,24.33,24.33,0,0,0-2.648-11.136c-.4-.8-.868-1.561-1.306-2.34,1.079-.747,2.308-.525,3.5-.543a24.561,24.561,0,0,1,3.722,8.373,17.027,17.027,0,0,1,.535,6.545,6.336,6.336,0,0,1-5.033,5.379,1.016,1.016,0,0,0-.235.137Z" transform="translate(-267.372 -224.101)" fill="#003078"/>
        <path id="Path_4662" data-name="Path 4662" d="M300.754,297.493l0,16.74h-4.383c.028-2.878-.236-5.751-.153-8.631.034-1.186-.011-2.374-.019-3.56l4.554-4.548" transform="translate(-238.36 -239.401)" fill="#003078"/>
        <path id="Path_4663" data-name="Path 4663" d="M260.751,320.784c.009,1.187.054,2.375.02,3.56-.083,2.88.181,5.753.153,8.631h-8.767c-.061-.355.26-.269.417-.332a5.365,5.365,0,0,0,3.506-5.2,4.458,4.458,0,0,1,1.448-3.505c1.084-1.041,2.15-2.1,3.223-3.153" transform="translate(-202.912 -258.144)" fill="#1060ac"/>
        <path id="Path_4664" data-name="Path 4664" d="M249.2,382.7c.1-.077.195-.24.292,0Z" transform="translate(-200.534 -307.867)" fill="#5b5b5b"/>
        <path id="Path_4665" data-name="Path 4665" d="M105.807,121.258a27.962,27.962,0,0,1-3.7-4.577,26.159,26.159,0,0,1-3.022-6.993c-.066-.25-.045-.527-.4-.617-2.033-.523-2.881-2.085-3.363-3.928a5.553,5.553,0,0,1,.162-3.44,2.988,2.988,0,0,1,2.246-2.076.1.1,0,0,0,.069.021c.7,1.36,1.391,2.724,2.1,4.078A2.491,2.491,0,0,0,102,105.1a4.446,4.446,0,0,0,1.9-.44,27.311,27.311,0,0,1,13.468-1.4,43.941,43.941,0,0,1,5.5,1.356c1.918.97,3.266.541,4.242-1.357.619-1.2,1.23-2.41,1.845-3.615a.122.122,0,0,0,.073-.02c1.874.455,2.415,1.924,2.551,3.567a6.029,6.029,0,0,1-1.8,4.97,2.706,2.706,0,0,1-1.36.808.9.9,0,0,0-.786.782,26.745,26.745,0,0,1-4.025,8.51c-.768,1.1-1.8,1.962-2.65,2.991-.689.478-1.355.993-2.07,1.429a9.808,9.808,0,0,1-10.7.23c-.845-.487-1.532-1.177-2.373-1.654" transform="translate(-76.552 -80.171)" fill="#452112"/>
        <path id="Path_4666" data-name="Path 4666" d="M105.522,19.6a20.784,20.784,0,0,1-.709-5.4,20.614,20.614,0,0,1,2.044-8.357,8.133,8.133,0,0,1,5.277-4.377,36.153,36.153,0,0,1,7.3-1.28A12.426,12.426,0,0,1,121.3.3c1.328.246,2.658.485,3.985.74a9.067,9.067,0,0,1,6.468,4.147,18.853,18.853,0,0,1,2.408,8.375,17.271,17.271,0,0,1-.721,6.026l-.139.015q-10.391-.005-20.782-.01c-2.309,0-4.618.014-6.926.021a.1.1,0,0,1-.069-.021" transform="translate(-84.341 -0.139)" fill="#1060ac"/>
        <path id="Path_4667" data-name="Path 4667" d="M132.069,228.25q-.634,3.656-1.27,7.311c-.159.907-.309,1.818-.511,2.716a7.288,7.288,0,0,1-7.074,5.751q-8.47.049-16.941.005a7.381,7.381,0,0,1-7.389-6.283q-.816-4.585-1.637-9.17a2.943,2.943,0,0,0-.531-1.339,15.95,15.95,0,0,1,3.483-.471,10.344,10.344,0,0,0,4.3,7.939,17.3,17.3,0,0,0,19.093.853c3.005-1.918,5.1-4.476,5.429-8.189a23.186,23.186,0,0,1,3.044.875" transform="translate(-77.831 -182.489)" fill="#1060ac"/>
        <path id="Path_4668" data-name="Path 4668" d="M143.377,214.187c-.326,3.713-2.424,6.271-5.43,8.189a17.3,17.3,0,0,1-19.093-.853,10.344,10.344,0,0,1-4.3-7.939,13.111,13.111,0,0,1,2.4-.118,4.219,4.219,0,0,0,4.487-3.078c.841.478,1.528,1.167,2.373,1.654a9.808,9.808,0,0,0,10.7-.23c.715-.436,1.381-.951,2.07-1.429a4.235,4.235,0,0,0,4.474,3.088,15.181,15.181,0,0,1,2.394.117q-.037.3-.074.6" transform="translate(-92.183 -169.301)" fill="#572c19"/>
        <path id="Path_4669" data-name="Path 4669" d="M201.4,19.452a17.266,17.266,0,0,0,.721-6.026,18.85,18.85,0,0,0-2.408-8.375A9.066,9.066,0,0,0,193.249.9c-1.326-.255-2.656-.494-3.984-.74.21-.259.5-.135.746-.128a30.657,30.657,0,0,1,8.107,1.287,8.729,8.729,0,0,1,5.766,5.366,19.394,19.394,0,0,1,.892,12.765.121.121,0,0,1-.073.019l-3.3-.022" transform="translate(-152.307 0)" fill="#003b89"/>
        <path id="Path_4670" data-name="Path 4670" d="M286.936,233.62a2.187,2.187,0,0,1-.611,1.055c-1.255,1.272-2.532,2.524-3.8,3.783,0-2.236.015-4.473-.006-6.709a8.809,8.809,0,0,0-.206-1.576,1.761,1.761,0,0,0-1.1-1.351,10.522,10.522,0,0,0-2.218-.877l.292-.555a2.063,2.063,0,0,1,2.05-.3,26.209,26.209,0,0,1,4.485,1.843,1.891,1.891,0,0,1,1.148,1.626q-.017,1.53-.033,3.059" transform="translate(-224.514 -182.634)" fill="#003078"/>
        <path id="Path_4671" data-name="Path 4671" d="M265.746,227.253l-.292.555-.241.45a23.253,23.253,0,0,0-3.044-.875l.074-.6a15.733,15.733,0,0,1,3.5.469" transform="translate(-210.974 -182.498)" fill="#dd474a"/>
        <path id="Path_4672" data-name="Path 4672" d="M319.663,248.5q.016-1.53.033-3.059l.359.217c-.132.947.145,1.951-.392,2.843" transform="translate(-257.242 -197.513)" fill="#c05050"/>
        <path id="Path_4673" data-name="Path 4673" d="M72.905,340.272a9.159,9.159,0,0,1-.125,2,1.173,1.173,0,0,1-1.148.939,1.1,1.1,0,0,1-1.2-.95A11.7,11.7,0,0,1,70.4,338.5a1.1,1.1,0,0,1,1.238-.985,1.176,1.176,0,0,1,1.174.992,10.508,10.508,0,0,1,.09,1.764" transform="translate(-56.544 -271.609)" fill="#959594"/>
        <path id="Path_4674" data-name="Path 4674" d="M108.823,99.659c2.309-.007,4.618-.021,6.926-.021q10.391,0,20.782.009a25.3,25.3,0,0,1-2.649,4.98,43.941,43.941,0,0,0-5.5-1.356,27.31,27.31,0,0,0-13.468,1.4,4.449,4.449,0,0,1-1.9.44,2.491,2.491,0,0,1-2.1-1.378c-.71-1.354-1.4-2.718-2.1-4.078" transform="translate(-87.573 -80.182)" fill="#0c3f93"/>
        <path id="Path_4675" data-name="Path 4675" d="M237.155,104.606a25.3,25.3,0,0,0,2.649-4.98l.139-.014,3.3.022c-.615,1.205-1.226,2.412-1.845,3.615-.976,1.9-2.324,2.327-4.242,1.357" transform="translate(-190.845 -80.161)"/>
      </g>
    </g>
  </g>
</svg>
