<svg xmlns="http://www.w3.org/2000/svg" xmlns:xlink="http://www.w3.org/1999/xlink" width="625" height="460.259" viewBox="0 0 625 460.259">
  <defs>
    <clipPath id="clip-path">
      <rect id="Rectangle_1118" data-name="Rectangle 1118" width="155.882" height="106.53" fill="none"/>
    </clipPath>
    <clipPath id="clip-path-2">
      <path id="Path_1796" data-name="Path 1796" d="M96.734,135.194l65.065-95.9L20.41,28.664s0,60.576-11.947,96.711c-.892,2.726-1.733,6.141-2.543,9.819Z" transform="translate(-5.92 -28.664)" fill="none"/>
    </clipPath>
    <linearGradient id="linear-gradient" x1="-0.385" y1="1.012" x2="-0.32" y2="1.012" gradientUnits="objectBoundingBox">
      <stop offset="0" stop-color="#fff"/>
      <stop offset="0.112" stop-color="#f3f3f3"/>
      <stop offset="0.314" stop-color="#d3d3d3"/>
      <stop offset="0.584" stop-color="#a0a0a0"/>
      <stop offset="0.863" stop-color="#646464"/>
      <stop offset="1" stop-color="#646464"/>
    </linearGradient>
    <clipPath id="clip-path-3">
      <rect id="Rectangle_1260" data-name="Rectangle 1260" width="171.629" height="171.616" fill="#173a8d"/>
    </clipPath>
  </defs>
  <g id="Group_5395" data-name="Group 5395" transform="translate(-228 -62.633)">
    <g id="Group_1985" data-name="Group 1985" transform="translate(0.5 -6)">
      <g id="Group_1976" data-name="Group 1976">
        <g id="Group_1842" data-name="Group 1842" transform="translate(123.82 -0.107)">
          <rect id="Rectangle_1120" data-name="Rectangle 1120" width="574.457" height="398.298" transform="translate(154.223 130.701)" fill="none"/>
          <path id="Path_1785" data-name="Path 1785" d="M34.993,6.392C36.068,16.768,23.178,51.221,16.5,65.681,9.873,80.121,10.785,81.8,10.785,81.8L63.691,129.52S61.2,67.333,79.113,59.47C90.23,54.626,34.993,6.392,34.993,6.392" transform="translate(201.797 189.082)" fill="#6a4331"/>
          <path id="Path_1786" data-name="Path 1786" d="M51.559,25.629c2.655-2.047-.649-8.015-5.3-14.247L42.6,9.781,13.894,73.59,27.037,84.665l8.431-10.66S33.735,39.36,51.559,25.629" transform="translate(230.576 220.033)" fill="#2d0b0e"/>
          <path id="Path_1787" data-name="Path 1787" d="M94.654,46.577c1.824,29.984-14.186,62.694-29.69,63.616C49.47,111.085,14.136,86.7,12.322,56.761,10.458,26.818,29.548-.654,58.854,2c32,2.918,33.936,14.622,35.8,44.576" transform="translate(215.074 147.355)" fill="#6a4331"/>
          <path id="Path_1788" data-name="Path 1788" d="M12.122,55.054c1.682,27.289,35.466,44.4,51.294,48.1C43.748,91.3,35.884,36.5,46.838,2.594A160.323,160.323,0,0,0,29.257,5.715C22.488,14.227,11.18,39.54,12.122,55.054" transform="translate(213.887 154.393)" fill="#533223"/>
          <path id="Path_1789" data-name="Path 1789" d="M106.8,14.205c7.326,12.869,6.3,21.827-.811,23.225s-14.278,1.246-18.848,5.746C82.861,47.422,75.048,48.993,71.8,51.87c-3.222,2.878,1.652-12.048,1.652-12.048L68.674,51.475l-.122-10.893-1.7,5.735L56.3,55.579,55.035,71.032,47.81,77.264,44.456,66.189,40.109,85.2l-13.7,24.695S16.478,89.242,13.6,79.646c-3.486-11.4-2.493-14.105-2.868-20.722-.466-8.329-.507-10.3-.385-18.128.182-8.563,6.536-21.462,12.038-23.732,5.492-2.239,8.765-3.83,11.815-2.746,3.091,1.064,2.523-5.33,10.549-8.259,7.965-3,7.661-4.185,19.527-5.654C76.163-1.075,84.523,1.721,94.5,5.359c6.607,2.4,12.292,8.846,12.292,8.846" transform="translate(197.652 130.703)" fill="#180602"/>
          <path id="Path_1790" data-name="Path 1790" d="M65.312,12.932C46.454,18.607,10.026,26.389,5.668,33.472c-4.337,7.1,18.128,72.27,21.026,92.111,2.928,19.841,137.751,21.259,137.751,21.259L184.023,86.61s-18.138-46.217-22.6-48.528c-11.4-5.948-34.5-15.1-42.833-16.1-3.253,14.876-.557,19.628-7.073,26.032-6.526,6.364-46.207-35.081-46.207-35.081" transform="translate(150.391 248.813)" fill="#000432"/>
          <path id="Path_1791" data-name="Path 1791" d="M67.135,12.827c-18.868,5.664-57.283,14.521-61.63,21.6s19.577,53.848,18.838,99.2c-.182,13.082,71.7,11.116,111.82,13.1-5.371-39.6-15.544-88.858-19.01-101.494-14.7,7.955-50.017-32.416-50.017-32.416" transform="translate(149.113 247.854)" fill="#000432"/>
          <path id="Path_1792" data-name="Path 1792" d="M17.761,14.12C29.374,29.715,34.44,86.4,34.44,86.4H46.022S38.777,23.341,32.991,20.514c-5.806-2.847-15.23-6.394-15.23-6.394" transform="translate(265.895 259.662)" fill="#4d87db"/>
          <path id="Path_1793" data-name="Path 1793" d="M20.059,220.948c-5.948,14-10.427,31.078-13.964,49.308H172.583c-.507-29.417-1.571-47.292-1.571-47.292,2.9-82.17-18.078-122.642-22.415-143.9,0,0-44.951,2.645-75.411,1.236,0-5.664-32.072-56.31-39.661-66.423L24.264,14.94S47.1,68.768,47.1,82.954c0,14.166-37.331,24.806-38.081,26.934-2.29,6.708,10.153,80.762,11.643,96.357a99.037,99.037,0,0,1-.608,14.7" transform="translate(159.348 257.434)" fill="#4d87db"/>
          <path id="Path_1794" data-name="Path 1794" d="M20.1,224.5C14.126,238.576,9.637,255.752,6.09,274.093H139.423c.659-68.906-.578-139.483-5.553-190.484-15.119.476-45.245.963-60.637.233C73.233,78.2,40.6,23.55,33,13.457L17.247,17.713s29.9,54.638,29.9,68.794c0,14.186-37.331,24.806-38.081,26.944-2.29,6.7,10.153,80.772,11.643,96.357A98.831,98.831,0,0,1,20.1,224.5" transform="translate(159.301 253.607)" fill="#003cca"/>
          <g id="Group_1840" data-name="Group 1840" transform="translate(163.668 421.162)" style="mix-blend-mode: multiply;isolation: isolate">
            <g id="Group_1839" data-name="Group 1839">
              <g id="Group_1838" data-name="Group 1838" clip-path="url(#clip-path)">
                <g id="Group_1837" data-name="Group 1837" transform="translate(0 -0.003)">
                  <g id="Group_1836" data-name="Group 1836" clip-path="url(#clip-path-2)">
                    <rect id="Rectangle_1117" data-name="Rectangle 1117" width="155.879" height="106.53" transform="translate(0 0.003)" fill="url(#linear-gradient)"/>
                  </g>
                </g>
              </g>
            </g>
          </g>
          <path id="Path_1816" data-name="Path 1816" d="M0,39.317c7.248,2.821,54.844,12.065,54.844,12.065S64.4,77.5,75.376,83.437c10.979,5.966,51.531,22.537,47.954,13.708-7.658-11.65-17.066-27.308-17.066-27.308s14.163-21.616,3.731-38.278C103.489,21.2,83.2,7.876,74.77,5.32,59.676.732,43.318-4.629,25.433,7.627,7.521,19.883,0,39.317,0,39.317" transform="translate(180.232 169.35) rotate(-45)" fill="#003cca"/>
          <path id="Path_1817" data-name="Path 1817" d="M33.461,6.254C15.532,18.51,5.313,40.068,5.313,40.068c6.079,2.373,41.124,9.385,52.009,11.526C60.669,35.122,71.366,14.709,83.993,7.4c-.717-.282-2.416-1.178-3.056-1.4-8.307-2.962-29.59-12.007-47.476.257" transform="translate(175.584 172.902) rotate(-45)" fill="#021c5c"/>
        </g>
        <g id="Group_1975" data-name="Group 1975">
          <g id="Group_1974" data-name="Group 1974" transform="matrix(0.035, 0.999, -0.999, 0.035, 676.262, 167.514)">
            <g id="Group_1973" data-name="Group 1973" clip-path="url(#clip-path-3)">
              <path id="Path_2255" data-name="Path 2255" d="M165.326,0c3.305,1.141,5.686,3.168,6.217,6.8.7,4.767-2.9,8.7-8.006,8.984-6.072.335-12.188.4-18.2,1.209C105.986,22.285,73.612,40.3,48.517,71.054A143.536,143.536,0,0,0,17.5,141.527c-1.08,7.145-1.255,14.433-1.692,21.664-.281,4.654-3.047,8.033-7.212,8.374A7.872,7.872,0,0,1,0,163.358,150.59,150.59,0,0,1,4.621,125.4q20.795-79.526,96.11-112.67A152.5,152.5,0,0,1,149.34.682C151.6.488,153.847.229,156.1,0Z" transform="translate(0)" fill="#173a8d"/>
              <path id="Path_2256" data-name="Path 2256" d="M87.772,204.2c1.868-33.624,14.569-61.763,38.905-84.389a116.556,116.556,0,0,1,64.353-30.636,168.394,168.394,0,0,1,16.894-1.307,7.85,7.85,0,0,1,1.388,15.621c-2.742.307-5.527.2-8.284.4a104.706,104.706,0,0,0-97.5,104c-.045,5.793-5.114,9.605-10.369,7.858a7.908,7.908,0,0,1-5.378-7.419c-.059-1.533-.01-3.071-.01-4.12" transform="translate(-44.497 -44.552)" fill="#173a8d"/>
              <path id="Path_2257" data-name="Path 2257" d="M175.762,250.252c2.278-30.517,16.562-53.182,44.081-67.03a72.017,72.017,0,0,1,32.942-7.467,7.819,7.819,0,0,1,2,15.415,43.869,43.869,0,0,1-5.871.454,61.388,61.388,0,0,0-56.719,51.884c-.484,3.085-.57,6.237-.752,9.362-.269,4.631-3.611,7.922-8.054,7.833-4.388-.088-7.635-3.6-7.625-8.24,0-.737,0-1.475,0-2.212" transform="translate(-89.123 -89.12)" fill="#173a8d"/>
            </g>
          </g>
        </g>
      </g>
      <path id="Path_2252" data-name="Path 2252" d="M51.648,14.959C35.364,19.215,15.665,88.992,7.61,115.663-2.179,148.17-1,164.393,2.725,170.828c9.789,17.014,94.593,36.125,94.593,36.125l5.452-52.044S46.2,143.184,48.4,140.023c7.823-11.481,23-39.742,23.175-45.7,1.824-60.6-19.922-79.363-19.922-79.363" transform="translate(227.5 267.219)" fill="#4d7ff5"/>
      <g id="Group_1972" data-name="Group 1972" transform="matrix(0.985, 0.174, -0.174, 0.985, 349.988, -31.535)">
        <path id="Path_2253" data-name="Path 2253" d="M6.192,0H34.4a6.192,6.192,0,0,1,6.192,6.192v51.5a34.4,34.4,0,0,1-34.4,34.4h0A6.192,6.192,0,0,1,0,85.9V6.192A6.192,6.192,0,0,1,6.192,0Z" transform="matrix(0.921, 0.391, -0.391, 0.921, 157.537, 392.941)" fill="#fff"/>
        <path id="Path_2251" data-name="Path 2251" d="M4.112,34.335c54.02,5.619,77.365,14.277,77.365,14.277s7.819-6.159,16.477-12.6C117.64,21.318,118.909,29,118.909,29L106.662,43.6l35.6-.36a5.449,5.449,0,0,1,4.3,1.47c5.739,5.549,10.088,16.377-8.608,23.845-13.424,5.362-31.7,5.185-31.7,5.185s-9.561-.9-19.052-.757c-2.077.031-4.413.136-6.56.342-26.365,2.51-55.579.54-68.247.5-12.7-.05-8.288-39.492-8.288-39.492" transform="translate(7.218 419.011)" fill="#552f24"/>
      </g>
    </g>
    <g id="Group_5394" data-name="Group 5394" transform="translate(56.176 62.633)">
      <rect id="Rectangle_1905" data-name="Rectangle 1905" width="114.848" height="170.389" transform="translate(571.824 106.883) rotate(-68.534)" fill="#173a8d"/>
      <path id="Path_6136" data-name="Path 6136" d="M559.405,63.322a11.849,11.849,0,0,1-2.035.842L551.433,66.3l-21.941,7.579L456.74,98.387l-.6.2-.317-.55-.766-1.329C440.012,70.4,426.395,46.58,416.437,29.169L404.887,8.613l-3.074-5.628a12.16,12.16,0,0,1-.98-2.015,12.107,12.107,0,0,1,1.251,1.861l3.323,5.483c2.914,4.94,6.985,11.843,11.977,20.31C427.444,45.977,441.2,69.711,456.4,95.939c.262.455.522.91.764,1.329l-.914-.348c28.448-9.4,54.132-17.88,72.9-24.076l22.1-7.115c2.5-.772,4.507-1.389,6.028-1.859a11.92,11.92,0,0,1,2.133-.548" transform="translate(213.019 0.516)" fill="#fff"/>
      <path id="Path_6137" data-name="Path 6137" d="M373.391,85.736c-.2-.375,17.481-10.339,39.5-22.249S452.92,42.222,453.124,42.6s-17.478,10.336-39.5,22.25-40.029,21.264-40.233,20.889" transform="translate(198.436 22.633)" fill="#fff"/>
      <path id="Path_6138" data-name="Path 6138" d="M460.223,55.254c.409-.121,6.473,19.056,13.543,42.828s12.471,43.151,12.06,43.272-6.472-19.051-13.543-42.831-12.469-43.147-12.06-43.269" transform="translate(244.57 29.363)" fill="#fff"/>
    </g>
  </g>
</svg>
