<svg id="Group_2618" data-name="Group 2618" xmlns="http://www.w3.org/2000/svg" xmlns:xlink="http://www.w3.org/1999/xlink" width="555.261" height="461.167" viewBox="0 0 555.261 461.167">
  <defs>
    <clipPath id="clip-path">
      <rect id="Rectangle_1575" data-name="Rectangle 1575" width="555.261" height="461.167" fill="none"/>
    </clipPath>
    <clipPath id="clip-path-2">
      <path id="Path_5074" data-name="Path 5074" d="M74.477,353.33c0,.463-.046,60.711-11.948,96.708-.892,2.726-1.732,6.141-2.542,9.819H150.8l65.065-95.9L74.513,353.33Z" fill="none"/>
    </clipPath>
    <linearGradient id="linear-gradient" x1="-0.385" y1="1.012" x2="-0.378" y2="1.012" gradientUnits="objectBoundingBox">
      <stop offset="0" stop-color="#fff"/>
      <stop offset="0.112" stop-color="#f2f2f2"/>
      <stop offset="0.314" stop-color="#d1d1d1"/>
      <stop offset="0.584" stop-color="#9e9e9e"/>
      <stop offset="0.863" stop-color="#646464"/>
      <stop offset="1" stop-color="#646464"/>
    </linearGradient>
    <clipPath id="clip-path-4">
      <rect id="Rectangle_1578" data-name="Rectangle 1578" width="171.55" height="171.562" transform="translate(277.316 105.796) rotate(-2.007)" fill="none"/>
    </clipPath>
  </defs>
  <g id="Group_2609" data-name="Group 2609">
    <g id="Group_2608" data-name="Group 2608" clip-path="url(#clip-path)">
      <path id="Path_5064" data-name="Path 5064" d="M133.108,127.642c1.075,10.376-11.815,44.829-18.493,59.289-6.627,14.44-5.715,16.119-5.715,16.119l52.906,47.72s-2.491-62.187,15.422-70.05c11.117-4.844-44.12-53.078-44.12-53.078" fill="#614535"/>
      <path id="Path_5065" data-name="Path 5065" d="M178.453,177.83c2.655-2.047-.649-8.015-5.3-14.247l-3.659-1.6-28.706,63.809,13.143,11.075,8.431-10.66s-1.733-34.645,16.091-48.376" fill="#2b1316"/>
      <path id="Path_5066" data-name="Path 5066" d="M206.046,126.1c1.824,29.984-14.186,62.694-29.69,63.616-15.494.892-50.828-23.493-52.642-53.432-1.864-29.943,17.226-57.415,46.532-54.761,32,2.918,33.936,14.622,35.8,44.576" fill="#614535"/>
      <path id="Path_5067" data-name="Path 5067" d="M122.327,141.615c1.682,27.289,35.466,44.4,51.294,48.1-19.668-11.854-27.532-66.654-16.578-100.56a160.368,160.368,0,0,0-17.581,3.121c-6.769,8.512-18.077,33.825-17.135,49.339" fill="#4d3528"/>
      <path id="Path_5068" data-name="Path 5068" d="M200.77,77.076c7.326,12.869,6.3,21.827-.811,23.225s-14.278,1.246-18.848,5.746c-4.28,4.246-12.093,5.817-15.341,8.694-3.222,2.878,1.652-12.048,1.652-12.048l-4.778,11.653-.122-10.893-1.7,5.735L150.27,118.45,149.005,133.9l-7.225,6.232-3.354-11.075-4.347,19.011-13.7,24.7s-9.931-20.653-12.809-30.249c-3.486-11.4-2.493-14.1-2.868-20.722-.466-8.329-.507-10.3-.385-18.128.182-8.563,6.536-21.462,12.038-23.732,5.492-2.239,8.765-3.83,11.815-2.746,3.091,1.064,2.523-5.33,10.549-8.259,7.965-3,7.661-4.185,19.527-5.654,11.887-1.48,20.247,1.316,30.224,4.954,6.607,2.4,12.292,8.846,12.292,8.846" fill="#1b0e09"/>
      <path id="Path_5069" data-name="Path 5069" d="M112.021,193.913c-18.858,5.675-55.286,13.457-59.644,20.54-4.337,7.1,18.128,72.27,21.026,92.111,2.928,19.841,137.751,21.259,137.751,21.259l19.578-60.232s-18.138-46.217-22.6-48.528c-11.4-5.948-34.5-15.1-42.833-16.1-3.253,14.876-.557,19.628-7.073,26.032-6.526,6.364-46.207-35.081-46.207-35.081" fill="#070c34"/>
      <path id="Path_5070" data-name="Path 5070" d="M112.566,192.849c-18.868,5.664-57.283,14.521-61.63,21.6s19.577,53.848,18.838,99.2c-.182,13.082,71.7,11.116,111.82,13.1-5.371-39.6-15.544-88.858-19.01-101.494-14.7,7.955-50.017-32.416-50.017-32.416" fill="#070c34"/>
      <path id="Path_5071" data-name="Path 5071" d="M179.974,205.95c11.613,15.6,16.679,72.28,16.679,72.28h11.582s-7.245-63.059-13.031-65.886c-5.806-2.847-15.23-6.394-15.23-6.394" fill="#6285d6"/>
      <path id="Path_5072" data-name="Path 5072" d="M75.725,410.55c-5.948,14-10.427,31.078-13.964,49.308H228.249c-.507-29.417-1.571-47.292-1.571-47.292,2.9-82.17-18.078-122.642-22.415-143.9,0,0-44.951,2.645-75.411,1.236,0-5.664-32.072-56.31-39.661-66.423l-9.261,1.063s22.836,53.828,22.836,68.014c0,14.166-37.331,24.806-38.081,26.934-2.29,6.708,10.153,80.762,11.643,96.357a99.029,99.029,0,0,1-.608,14.7" fill="#6285d6"/>
      <path id="Path_5073" data-name="Path 5073" d="M75.719,410.275c-5.974,14.076-10.463,31.252-14.01,49.593H195.042c.659-68.906-.578-139.483-5.553-190.484-15.119.476-45.245.963-60.637.233,0-5.642-32.633-60.292-40.233-70.385l-15.753,4.256s29.9,54.638,29.9,68.794c0,14.186-37.331,24.806-38.081,26.944-2.29,6.7,10.153,80.772,11.643,96.357a98.782,98.782,0,0,1-.609,14.692" fill="#233ec4"/>
    </g>
  </g>
  <g id="Group_2611" data-name="Group 2611">
    <g id="Group_2610" data-name="Group 2610" clip-path="url(#clip-path-2)">
      <rect id="Rectangle_1576" data-name="Rectangle 1576" width="155.878" height="106.527" transform="translate(59.987 353.33)" fill="url(#linear-gradient)"/>
    </g>
  </g>
  <g id="Group_2613" data-name="Group 2613">
    <g id="Group_2612" data-name="Group 2612" clip-path="url(#clip-path)">
      <path id="Path_5075" data-name="Path 5075" d="M104.352,129.319c7.12-3.13,47.312-30.249,47.312-30.249s25.225,11.711,37.184,8.148c11.982-3.545,52.374-20.5,43.6-24.216-13.653-2.823-31.377-7.242-31.377-7.242s-5.27-25.3-24.429-29.705c-11.925-2.724-35.693,2.2-43.461,6.354-13.917,7.429-29.275,15.2-33.255,36.518-4,21.332,4.424,40.392,4.424,40.392" fill="#233ec4"/>
      <path id="Path_5076" data-name="Path 5076" d="M99.985,85.832c-4.011,21.344,4.006,43.814,4.006,43.814,5.977-2.621,35.716-22.443,44.926-28.626-9.28-14.014-16.151-36.012-12.39-50.109-.707.307-2.541.875-3.151,1.171-7.968,3.779-29.414,12.433-33.389,33.752" fill="#14225b"/>
      <path id="Path_5077" data-name="Path 5077" d="M465.161,1.01,478.425.9Q503.84.445,529.253,0a18.858,18.858,0,0,1,19.072,18.47q.656,35.511,1.239,71.02A18.865,18.865,0,0,1,531.2,108.665c-16.943.326-33.886.584-50.829.871l-13.314.341c-4.245-.049-8.346-.363-12.26,2.394-9,6.342-18.3,12.27-27.484,18.348-5,3.308-10.022,6.576-15.511,10.181.757-7.307,1.264-13.986,2.18-20.608,1.32-9.541,1.448-9.526-8-9.361l-1.392.024c-12.55.2-20.554-7.524-20.781-20.11q-.612-33.772-1.179-67.546C382.407,10.353,390.033,2.45,402.842,2.2q31.159-.6,62.317-1.2m13.377,44.419.526.125c.159,9.141.342,18.28.456,27.421.02,1.6.192,2.585,2.235,2.514,1.9-.068,2.639-.534,2.586-2.587-.283-10.8-.423-21.588-.633-32.381-.015-.88.192-1.857-.917-2.4-2.709-1.323-6.774.357-7.656,3.234-2.777,9.04-5.542,18.084-8.34,27.223-1.233-.949-1.294-2.2-1.666-3.265Q460.839,53,456.672,40.655c-1.325-3.946-4.467-1.815-6.78-1.995-2.28-.176-1.429,1.958-1.416,3.144.124,10.563.378,21.124.479,31.688.018,1.982.652,2.567,2.613,2.526,1.893-.039,2.335-.731,2.267-2.489-.183-4.755-.2-9.517-.282-14.276l-.223-12.79c3.887,8.983,7.115,18.018,10.3,27.07.508,1.447,1.1,2.281,2.906,2.233s2.689-.641,3.173-2.363c1.076-3.788,2.3-7.536,3.488-11.29q2.649-8.347,5.338-16.684M427.806,77a21.319,21.319,0,0,0,2.78-.067c4.307-.655,8.05-2.357,10.247-6.343,3.2-5.808.488-12.11-6.3-14.332-4.28-1.4-8.769-2.165-13.051-3.562a4.415,4.415,0,0,1-2.219-7.217c2.84-3.5,14.151-4.171,16.032,1.68.938,2.914,3.126,2.933,4.806,2.041,1.829-.97.348-2.98-.323-4.265-2.627-5.044-7.377-6.456-12.564-6.582-5.076-.12-9.761,1.162-12.66,5.8a8.664,8.664,0,0,0,2.78,11.933c.082.051.164.1.247.148a20.514,20.514,0,0,0,7.462,2.72,33.871,33.871,0,0,1,9.005,2.537,5.185,5.185,0,0,1,1.669,8.381c-3.508,3.9-16.165,3.938-18.142-3.229-.734-2.665-2.459-2.168-3.99-1.874-2.288.44-1.011,2.289-.712,3.346C414.476,73.8,420.278,77.192,427.8,77m78.519-1.348c.7-.012,1.4.011,2.089-.042,6.346-.485,11.285-4.716,11.956-10.225.638-5.254-2.606-9.092-9.383-11.083-.89-.261-1.778-.534-2.683-.729-3.055-.657-6.189-1.049-9.043-2.406a4.393,4.393,0,0,1-1.042-7.641c4.553-3.927,13.207-2.331,15.71,3.092,1.034,2.237,2.709,1.638,4.081,1.329,1.9-.433.906-2.1.607-3.166a9.082,9.082,0,0,0-2.815-4.321c-5.22-4.625-15.794-4.652-21.034-.05a8.942,8.942,0,0,0,1.5,14.668,21.684,21.684,0,0,0,7.175,2.533,33.982,33.982,0,0,1,9,2.554,5.136,5.136,0,0,1,1.065,8.848c-4.014,3.334-15.769,3.294-17.813-4.085-.773-2.787-2.8-1.67-4.178-1.452-1.782.282-.731,1.831-.463,2.8,1.708,6.171,7.317,9.605,15.266,9.385" fill="#293d89"/>
    </g>
  </g>
  <g id="Group_2615" data-name="Group 2615">
    <g id="Group_2614" data-name="Group 2614" clip-path="url(#clip-path-4)">
      <path id="Path_5078" data-name="Path 5078" d="M454.547,264.95c-1.024,3.342-2.966,5.791-6.576,6.449-4.737.866-8.792-2.593-9.255-7.684-.547-6.054-.826-12.162-1.845-18.139-6.664-39.127-25.794-70.838-57.395-94.831a143.486,143.486,0,0,0-71.488-28.52c-7.176-.829-14.463-.748-21.7-.932-4.659-.118-8.132-2.763-8.618-6.911a7.869,7.869,0,0,1,6.8-8.811,7.779,7.779,0,0,1,1.1-.064,150.507,150.507,0,0,1,38.082,3.288q80.173,17.991,115.921,92.07A152.454,152.454,0,0,1,453.306,249c.273,2.251.61,4.486.918,6.729Z" fill="#293d89"/>
      <path id="Path_5079" data-name="Path 5079" d="M290.787,148.608C324.443,149.3,353,161,376.453,184.52a116.513,116.513,0,0,1,32.858,63.217,168.281,168.281,0,0,1,1.9,16.831,7.847,7.847,0,0,1-15.557,1.934c-.4-2.729-.393-5.515-.689-8.262a104.667,104.667,0,0,0-107.309-93.763c-5.789.158-9.774-4.772-8.213-10.083a7.907,7.907,0,0,1,7.223-5.633c1.53-.112,3.068-.117,4.116-.154" fill="#293d89"/>
      <path id="Path_5080" data-name="Path 5080" d="M290.822,191.981c30.566,1.208,53.708,14.684,68.506,41.691a71.993,71.993,0,0,1,8.612,32.648,7.816,7.816,0,0,1-15.329,2.537,43.7,43.7,0,0,1-.659-5.849,61.366,61.366,0,0,0-53.818-54.847c-3.1-.375-6.25-.351-9.379-.423-4.635-.107-8.04-3.33-8.107-7.772-.065-4.387,3.33-7.753,7.965-7.906l2.21-.077" fill="#293d89"/>
    </g>
  </g>
  <g id="Group_2617" data-name="Group 2617">
    <g id="Group_2616" data-name="Group 2616" clip-path="url(#clip-path)">
      <path id="Path_5081" data-name="Path 5081" d="M51.646,214.453c-16.284,4.256-35.983,74.033-44.038,100.7-9.789,32.507-8.61,48.73-4.885,55.165,9.789,17.014,94.593,36.125,94.593,36.125l5.452-52.044S46.2,342.678,48.4,339.517c7.823-11.481,23-39.742,23.175-45.7,1.824-60.6-19.922-79.363-19.922-79.363" fill="#5f7ef0"/>
      <path id="Path_5082" data-name="Path 5082" d="M214.485,318.575l23.671,15.384a6.2,6.2,0,0,1,1.819,8.573l-28.088,43.217a34.428,34.428,0,0,1-47.628,10.105,6.2,6.2,0,0,1-1.819-8.573l43.472-66.887a6.2,6.2,0,0,1,8.573-1.819" fill="#fff"/>
      <path id="Path_5083" data-name="Path 5083" d="M54.764,349.257c52.232,14.934,73.72,27.524,73.72,27.524s8.774-4.706,18.423-9.544c21.947-11.048,21.86-3.26,21.86-3.26l-14.6,12.25,35.128,5.84a5.447,5.447,0,0,1,3.98,2.2c4.687,6.464,7.087,17.886-12.628,21.989-14.156,2.946-32.127-.408-32.127-.408s-9.261-2.55-18.634-4.061c-2.051-.331-4.371-.634-6.521-.8-26.406-2.115-54.839-9.138-67.311-11.382-12.5-2.259-1.292-40.342-1.292-40.342" fill="#4e3329"/>
    </g>
  </g>
</svg>
