<svg xmlns="http://www.w3.org/2000/svg" width="625" height="461.604" viewBox="0 0 625 461.604">
    <defs>
        <clipPath id="7a5puq9b7a">
            <path data-name="Rectangle 1118" style="fill:none" d="M0 0h155.882v106.53H0z"/>
        </clipPath>
        <clipPath id="thqzm10m1b">
            <path data-name="Path 1796" d="m96.734 135.194 65.065-95.9L20.41 28.664s0 60.576-11.947 96.711c-.892 2.726-1.733 6.141-2.543 9.819z" transform="translate(-5.92 -28.664)" style="fill:none"/>
        </clipPath>
        <clipPath id="0ggzuepd9d">
            <path data-name="Rectangle 1260" style="fill:#173a8d" d="M0 0h171.629v171.616H0z"/>
        </clipPath>
        <linearGradient id="ar18icczvc" x1="-.385" y1="1.012" x2="-.32" y2="1.012" gradientUnits="objectBoundingBox">
            <stop offset="0" stop-color="#fff"/>
            <stop offset=".112" stop-color="#f3f3f3"/>
            <stop offset=".314" stop-color="#d3d3d3"/>
            <stop offset=".584" stop-color="#a0a0a0"/>
            <stop offset=".863" stop-color="#646464"/>
            <stop offset="1" stop-color="#646464"/>
        </linearGradient>
    </defs>
    <g data-name="Group 1985">
        <g data-name="Group 1976">
            <g data-name="Group 1842">
                <path data-name="Rectangle 1120" transform="translate(50.543 63.306)" style="fill:none" d="M0 0h574.457v398.298H0z"/>
                <path data-name="Path 1785" d="M34.993 6.392C36.068 16.768 23.178 51.221 16.5 65.681 9.873 80.121 10.785 81.8 10.785 81.8l52.906 47.72S61.2 67.333 79.113 59.47c11.117-4.844-44.12-53.078-44.12-53.078" transform="translate(98.117 121.687)" style="fill:#6a4331"/>
                <path data-name="Path 1786" d="M51.559 25.629c2.655-2.047-.649-8.015-5.3-14.247L42.6 9.781 13.894 73.59l13.143 11.075 8.431-10.66S33.735 39.36 51.559 25.629" transform="translate(126.896 152.638)" style="fill:#2d0b0e"/>
                <path data-name="Path 1787" d="M94.654 46.577c1.824 29.984-14.186 62.694-29.69 63.616-15.494.892-50.828-23.493-52.642-53.432C10.458 26.818 29.548-.654 58.854 2c32 2.918 33.936 14.622 35.8 44.576" transform="translate(111.394 79.96)" style="fill:#6a4331"/>
                <path data-name="Path 1788" d="M12.122 55.054c1.682 27.289 35.466 44.4 51.294 48.1C43.748 91.3 35.884 36.5 46.838 2.594a160.323 160.323 0 0 0-17.581 3.121C22.488 14.227 11.18 39.54 12.122 55.054" transform="translate(110.207 86.998)" style="fill:#533223"/>
                <path data-name="Path 1789" d="M106.8 14.205c7.326 12.869 6.3 21.827-.811 23.225s-14.278 1.246-18.848 5.746c-4.28 4.246-12.093 5.817-15.341 8.694-3.222 2.878 1.652-12.048 1.652-12.048l-4.778 11.653-.122-10.893-1.7 5.735L56.3 55.579l-1.265 15.453-7.225 6.232-3.354-11.075L40.109 85.2l-13.7 24.695S16.478 89.242 13.6 79.646c-3.486-11.4-2.493-14.105-2.868-20.722-.466-8.329-.507-10.3-.385-18.128.182-8.563 6.536-21.462 12.038-23.732 5.492-2.239 8.765-3.83 11.815-2.746 3.091 1.064 2.523-5.33 10.549-8.259 7.965-3 7.661-4.185 19.527-5.654C76.163-1.075 84.523 1.721 94.5 5.359c6.607 2.4 12.292 8.846 12.292 8.846" transform="translate(93.972 63.308)" style="fill:#180602"/>
                <path data-name="Path 1790" d="M65.312 12.932c-18.858 5.675-55.286 13.457-59.644 20.54-4.337 7.1 18.128 72.27 21.026 92.111 2.928 19.841 137.751 21.259 137.751 21.259l19.578-60.232s-18.138-46.217-22.6-48.528c-11.4-5.948-34.5-15.1-42.833-16.1-3.253 14.876-.557 19.628-7.073 26.032-6.526 6.364-46.207-35.081-46.207-35.081" transform="translate(46.711 181.418)" style="fill:#000432"/>
                <path data-name="Path 1791" d="M67.135 12.827c-18.868 5.664-57.283 14.521-61.63 21.6s19.577 53.848 18.838 99.2c-.182 13.082 71.7 11.116 111.82 13.1-5.371-39.6-15.544-88.858-19.01-101.494-14.7 7.955-50.017-32.416-50.017-32.416" transform="translate(45.433 180.459)" style="fill:#000432"/>
                <path data-name="Path 1792" d="M17.761 14.12C29.374 29.715 34.44 86.4 34.44 86.4h11.582s-7.245-63.059-13.031-65.886c-5.806-2.847-15.23-6.394-15.23-6.394" transform="translate(162.215 192.267)" style="fill:#4d87db"/>
                <path data-name="Path 1793" d="M20.059 220.948c-5.948 14-10.427 31.078-13.964 49.308h166.488c-.507-29.417-1.571-47.292-1.571-47.292 2.9-82.17-18.078-122.642-22.415-143.9 0 0-44.951 2.645-75.411 1.236 0-5.664-32.072-56.31-39.661-66.423l-9.261 1.063S47.1 68.768 47.1 82.954c0 14.166-37.331 24.806-38.081 26.934-2.29 6.708 10.153 80.762 11.643 96.357a99.037 99.037 0 0 1-.608 14.7" transform="translate(55.668 190.039)" style="fill:#4d87db"/>
                <path data-name="Path 1794" d="M20.1 224.5c-5.974 14.076-10.463 31.252-14.01 49.593h133.333c.659-68.906-.578-139.483-5.553-190.484-15.119.476-45.245.963-60.637.233C73.233 78.2 40.6 23.55 33 13.457l-15.753 4.256s29.9 54.638 29.9 68.794c0 14.186-37.331 24.806-38.081 26.944-2.29 6.7 10.153 80.772 11.643 96.357A98.831 98.831 0 0 1 20.1 224.5" transform="translate(55.621 186.212)" style="fill:#003cca"/>
                <g data-name="Group 1840" style="mix-blend-mode:multiply;isolation:isolate">
                    <g data-name="Group 1839">
                        <g data-name="Group 1838" style="clip-path:url(#7a5puq9b7a)" transform="translate(59.988 353.767)">
                            <g data-name="Group 1837">
                                <g data-name="Group 1836" style="clip-path:url(#thqzm10m1b)" transform="translate(0 -.003)">
                                    <path data-name="Rectangle 1117" transform="translate(0 .003)" style="fill:url(#ar18icczvc)" d="M0 0h155.879v106.53H0z"/>
                                </g>
                            </g>
                        </g>
                    </g>
                </g>
                <path data-name="Path 1816" d="M0 39.317c7.248 2.821 54.844 12.065 54.844 12.065S64.4 77.5 75.376 83.437c10.979 5.966 51.531 22.537 47.954 13.708-7.658-11.65-17.066-27.308-17.066-27.308s14.163-21.616 3.731-38.278C103.489 21.2 83.2 7.876 74.77 5.32 59.676.732 43.318-4.629 25.433 7.627 7.521 19.883 0 39.317 0 39.317" transform="rotate(-45 161.347 -41.429)" style="fill:#003cca"/>
                <path data-name="Path 1817" d="M33.461 6.254C15.532 18.51 5.313 40.068 5.313 40.068c6.079 2.373 41.124 9.385 52.009 11.526C60.669 35.122 71.366 14.709 83.993 7.4c-.717-.282-2.416-1.178-3.056-1.4-8.307-2.962-29.59-12.007-47.476.257" transform="rotate(-45 163.31 -34.042)" style="fill:#021c5c"/>
            </g>
            <g data-name="Group 1975">
                <path data-name="Path 2254" d="m219.245 71.726 13.264.119q25.418-.008 50.836-.009a18.857 18.857 0 0 1 18.746 18.8q.037 35.516 0 71.031a18.865 18.865 0 0 1-18.7 18.85c-16.946.03-33.891-.007-50.836-.016l-13.318.108c-4.244-.123-8.339-.508-12.3 2.18-9.112 6.184-18.508 11.949-27.8 17.866-5.057 3.22-10.136 6.4-15.687 9.908.885-7.292 1.508-13.961 2.54-20.566 1.486-9.517 1.614-9.5-7.838-9.5h-1.392c-12.552-.019-20.419-7.882-20.427-20.47q-.022-33.778 0-67.556c.007-12.848 7.77-20.616 20.582-20.638q31.164-.053 62.328-.11m12.6 44.646.523.134c0 9.142.023 18.283-.022 27.425-.008 1.6.147 2.588 2.191 2.552 1.9-.035 2.648-.488 2.63-2.541-.094-10.8-.046-21.592-.067-32.387 0-.881.224-1.854-.875-2.415-2.686-1.37-6.78.239-7.712 3.1-2.934 8.99-5.856 17.984-8.814 27.073-1.216-.97-1.255-2.225-1.608-3.293q-4.073-12.382-8.024-24.8c-1.256-3.969-4.434-1.893-6.744-2.113-2.276-.216-1.463 1.933-1.471 3.119-.06 10.563.01 21.127-.074 31.691-.016 1.982.607 2.578 2.569 2.571 1.893-.006 2.347-.69 2.31-2.449-.1-4.757-.033-9.519-.033-14.278v-12.792c3.73 9.049 6.8 18.139 9.827 27.245.483 1.456 1.063 2.3 2.867 2.284s2.7-.594 3.214-2.308c1.142-3.768 2.427-7.494 3.684-11.227q2.794-8.3 5.629-16.588m-51.274 30.678a21.135 21.135 0 0 0 2.781-.018c4.318-.58 8.09-2.216 10.356-6.163 3.3-5.751.7-12.1-6.053-14.44-4.255-1.476-8.73-2.318-12.986-3.789a4.416 4.416 0 0 1-2.093-7.255c2.9-3.447 14.221-3.923 16 1.96.887 2.93 3.074 2.987 4.77 2.124 1.845-.938.4-2.973-.249-4.27-2.538-5.089-7.263-6.584-12.447-6.8-5.073-.209-9.78.991-12.759 5.579a8.664 8.664 0 0 0 2.815 12.132 20.521 20.521 0 0 0 7.414 2.85 33.871 33.871 0 0 1 8.959 2.694 5.187 5.187 0 0 1 1.523 8.409c-3.576 3.836-16.232 3.655-18.083-3.546-.688-2.677-2.421-2.21-3.957-1.943-2.295.4-1.051 2.271-.77 3.333 1.507 5.712 7.249 9.206 14.777 9.14m78.531.023c.7 0 1.4.035 2.089-.006 6.354-.374 11.366-4.518 12.133-10.014.73-5.242-2.447-9.136-9.188-11.245-.885-.277-1.769-.565-2.67-.776-3.043-.71-6.17-1.157-9-2.564a4.393 4.393 0 0 1-.908-7.658c4.621-3.847 13.246-2.1 15.654 3.366.994 2.255 2.68 1.685 4.057 1.4 1.906-.4.942-2.085.662-3.155a9.08 9.08 0 0 0-2.739-4.369c-5.139-4.716-15.711-4.927-21.03-.417a8.941 8.941 0 0 0 1.243 14.692 21.673 21.673 0 0 0 7.129 2.657 34 34 0 0 1 8.958 2.711 5.136 5.136 0 0 1 .911 8.865c-4.072 3.264-15.824 3.019-17.739-4.395-.724-2.8-2.771-1.718-4.152-1.525-1.787.251-.763 1.818-.512 2.788 1.6 6.2 7.148 9.731 15.1 9.65" transform="rotate(-1 -3684.4 -14053.085)" style="fill:#173a8d"/>
                <g data-name="Group 1974">
                    <g data-name="Group 1973" style="clip-path:url(#0ggzuepd9d)" transform="rotate(88 172.548 282.602)">
                        <path data-name="Path 2255" d="M165.326 0c3.305 1.141 5.686 3.168 6.217 6.8.7 4.767-2.9 8.7-8.006 8.984-6.072.335-12.188.4-18.2 1.209-39.351 5.292-71.725 23.307-96.82 54.061A143.536 143.536 0 0 0 17.5 141.527c-1.08 7.145-1.255 14.433-1.692 21.664-.281 4.654-3.047 8.033-7.212 8.374A7.872 7.872 0 0 1 0 163.358 150.59 150.59 0 0 1 4.621 125.4q20.795-79.526 96.11-112.67A152.5 152.5 0 0 1 149.34.682C151.6.488 153.847.229 156.1 0z" style="fill:#173a8d"/>
                        <path data-name="Path 2256" d="M87.772 204.2c1.868-33.624 14.569-61.763 38.905-84.389a116.556 116.556 0 0 1 64.353-30.636 168.394 168.394 0 0 1 16.894-1.307 7.85 7.85 0 0 1 1.388 15.621c-2.742.307-5.527.2-8.284.4a104.706 104.706 0 0 0-97.5 104c-.045 5.793-5.114 9.605-10.369 7.858a7.908 7.908 0 0 1-5.378-7.419c-.059-1.533-.01-3.071-.01-4.12" transform="translate(-44.497 -44.552)" style="fill:#173a8d"/>
                        <path data-name="Path 2257" d="M175.762 250.252c2.278-30.517 16.562-53.182 44.081-67.03a72.017 72.017 0 0 1 32.942-7.467 7.819 7.819 0 0 1 2 15.415 43.869 43.869 0 0 1-5.871.454 61.388 61.388 0 0 0-56.719 51.884c-.484 3.085-.57 6.237-.752 9.362-.269 4.631-3.611 7.922-8.054 7.833-4.388-.088-7.635-3.6-7.625-8.24v-2.212" transform="translate(-89.123 -89.12)" style="fill:#173a8d"/>
                    </g>
                </g>
            </g>
        </g>
        <path data-name="Path 2252" d="M51.648 14.959C35.364 19.215 15.665 88.992 7.61 115.663c-9.789 32.507-8.61 48.73-4.885 55.165 9.789 17.014 94.593 36.125 94.593 36.125l5.452-52.044S46.2 143.184 48.4 140.023c7.823-11.481 23-39.742 23.175-45.7 1.824-60.6-19.922-79.363-19.922-79.363" transform="translate(0 199.931)" style="fill:#4d7ff5"/>
        <g data-name="Group 1972">
            <path data-name="Path 2253" d="M6.192 0H34.4a6.192 6.192 0 0 1 6.192 6.192v51.5a34.4 34.4 0 0 1-34.4 34.4A6.192 6.192 0 0 1 0 85.9V6.192A6.192 6.192 0 0 1 6.192 0z" transform="matrix(.84 .545 -.545 .84 209.29 315.635)" style="fill:#fff"/>
            <path data-name="Path 2251" d="M4.112 34.335c54.02 5.619 77.365 14.277 77.365 14.277s7.819-6.159 16.477-12.6C117.64 21.318 118.909 29 118.909 29l-12.247 14.6 35.6-.36a5.449 5.449 0 0 1 4.3 1.47c5.739 5.549 10.088 16.377-8.608 23.845-13.424 5.362-31.7 5.185-31.7 5.185s-9.561-.9-19.052-.757a84.081 84.081 0 0 0-6.56.342c-26.365 2.51-55.579.54-68.247.5-12.7-.05-8.288-39.492-8.288-39.492" transform="rotate(10.02 -1769.112 480.86)" style="fill:#552f24"/>
        </g>
    </g>
</svg>
