<svg id="Group_2607" data-name="Group 2607" xmlns="http://www.w3.org/2000/svg" xmlns:xlink="http://www.w3.org/1999/xlink" width="511.209" height="414.624" viewBox="0 0 511.209 414.624">
  <defs>
    <clipPath id="clip-path">
      <rect id="Rectangle_1574" data-name="Rectangle 1574" width="511.209" height="414.624" fill="none"/>
    </clipPath>
  </defs>
  <g id="Group_2606" data-name="Group 2606" clip-path="url(#clip-path)">
    <path id="Path_5021" data-name="Path 5021" d="M149.425,324.2c.35.728.7,1.386,1.049,2.045,1.981,3.6,4.145,6.309,6.492,7.8l13.067.138,17.828.173,11.919.1,8.473.07h.383l5.593.069h3l70.047-.382h.566l18.011-.1,48.157-.243,19.643-.1h.466l76.456-.382S474,306.693,473.43,260.173c-.366-29.743,20.494-124.13-30.244-138.828-18.044-5.2-53.137,10.6-61.643-6.558-1.8-3.605-3.546-7.245-5.327-10.885-12.138-24.718-25.855-48.256-63.841-43.573a35.945,35.945,0,0,0-6.525,1.421c-6.808,2.115-12.651,6-18.011,10.192-12.9,10.157-22.939,22.29-36.821,16.466-26.717-11.2-35.356-6.1-51.237,0-6.759,2.6-45.178,63.951-50.355,68.908-23.858,22.736-44.282-13.726-48.227,30.576-1.9,21.285-6.191,9.611,3.613,40.671" fill="#b9d6f6"/>
    <path id="Path_5022" data-name="Path 5022" d="M207.421,189.486c.279-.564.557-1.075.835-1.586a16.492,16.492,0,0,1,5.172-6.046l10.409-.107,14.2-.134,9.5-.081,6.749-.054h.3l4.457-.054h2.387l55.8.3h.451l14.348.081,38.362.188,15.647.08h.371l60.9.3s18.658,20.684,18.207,56.751c-.292,23.058,16.326,96.229-24.092,107.624-14.374,4.031-42.329-8.218-49.1,5.084-1.432,2.8-2.824,5.617-4.243,8.439-9.667,19.161-20.593,37.408-50.853,33.78a29.3,29.3,0,0,1-5.2-1.1c-5.423-1.64-10.078-4.65-14.348-7.9-10.277-7.874-18.273-17.28-29.332-12.765-21.282,8.68-28.165,4.73-40.815,0-5.39-2.021-35.99-49.582-40.114-53.425-19-17.628-35.274,10.638-38.417-23.706-1.511-16.5-4.931-7.451,2.879-31.531" fill="#b9d6f6"/>
    <path id="Path_5023" data-name="Path 5023" d="M426.691,161.262a73.933,73.933,0,0,0-5.221-10.8c-.435-.727-.87-1.385-1.3-2.043-2.466-3.6-5.16-6.3-8.081-7.791l-16.267-.141-22.191-.173-14.836-.1-10.546-.073h-.477l-6.962-.068h-3.73l-87.19.379h-.7l-22.419.1-59.949.247-24.45.1h-.58l-95.17.384S17.465,167.945,18.17,214.411C18.626,244.12-7.34,338.4,55.816,353.079c22.461,5.194,66.142-10.588,76.73,6.55,2.238,3.6,4.413,7.237,6.63,10.873,15.105,24.687,32.179,48.2,79.462,43.524a54.406,54.406,0,0,0,8.122-1.419c8.475-2.113,15.748-5.991,22.419-10.181,16.058-10.145,28.553-22.264,45.833-16.447,33.256,11.184,44.01,6.094,63.777,0,8.413-2.6,56.235-63.877,62.679-68.828,29.692-22.713,14.88-106.669,19.791-150.919.359-3.229-5.88,2.554-7.643,0-5.134-7.455-11.964-7.964-12.148,9.335-.125,11.824,19.063,66.549,14.779,55.659" fill="#b9d6f6"/>
    <path id="Path_5024" data-name="Path 5024" d="M389.8,288.3a93.625,93.625,0,0,1-4.732,12.2c-.394.821-.789,1.564-1.183,2.307-2.235,4.066-4.676,7.116-7.323,8.8l-14.74.156-20.111.2-13.445.117-9.557.078h-.432l-6.309.078h-3.377l-79.015-.43h-.638l-20.317-.118-54.323-.274-22.157-.117h-.526l-86.245-.43s-26.42-30.109-25.782-82.586C20,194.725-3.536,88.254,53.7,71.671c20.355-5.866,59.94,11.957,69.536-7.4,2.028-4.067,4-8.173,6.009-12.279C142.931,24.117,158.4-2.434,201.254,2.844a40.539,40.539,0,0,1,7.361,1.6c7.68,2.386,14.271,6.766,20.317,11.5,14.557,11.457,25.875,25.143,41.535,18.574,30.138-12.63,39.883-6.882,57.8,0,7.624,2.933,50.962,72.139,56.8,77.73,26.908,25.651,49.95-15.479,54.4,34.495,2.141,24.01,6.984,10.842-4.076,45.878" fill="#b9d6f6"/>
    <path id="Path_5025" data-name="Path 5025" d="M249.952,230.285v11.574l-26.537-9.676V220.61Z" fill="#e1954d"/>
    <path id="Path_5026" data-name="Path 5026" d="M428.1,205.488V217.06l-26.538-9.676V195.812Z" fill="#e1954d"/>
    <path id="Path_5027" data-name="Path 5027" d="M428.1,230.285v11.574l-26.538-9.676V220.61Z" fill="#e1954d"/>
    <path id="Path_5028" data-name="Path 5028" d="M140.066,285.7H383.692l82.279-7.412s-14.723-36.684-18.737-37.235-299.451,0-299.451,0Z" fill="#262d49"/>
    <path id="Path_5029" data-name="Path 5029" d="M501.123,282.087c-6.063,2.48-42.711,3.031-42.711,3.031s.826-44.916-36.924-39.68-31.152,42.515-31.152,42.515l-181.494,3.239s2.949-47.35-37.123-42.37c-33.292,4.137-24.74,42.191-24.74,42.191-33.19,1.716-36.619-9.553-36.619-9.553v-4.654h2.081V264.558H110.36v-9.123l6.981-15.983C129.1,219.246,221.32,213.734,221.32,213.734c14.006-8.052,25.619-14.036,34.7-18.382,14.491-6.933,31.01-13.694,47-15.274,43.286-4.279,78.88.569,87.607,1.984,10.194,1.653,61.448,23.973,65.306,25.9S491.255,212.507,495.3,213a4.411,4.411,0,0,1,3.92,4.531l.555,3.586,2.113,13.657.516,3.333c2.94,1.47,2.943,5.68,2.943,5.68s1.841,35.822-4.22,38.3" fill="#293d89"/>
    <path id="Path_5030" data-name="Path 5030" d="M149.137,281.908a27.948,27.948,0,1,1,27.948,27.948,27.948,27.948,0,0,1-27.948-27.948Z" fill="#272729"/>
    <path id="Path_5031" data-name="Path 5031" d="M177.085,302.86A21.857,21.857,0,1,1,198.941,281v0a21.881,21.881,0,0,1-21.856,21.856m0-41.692a19.836,19.836,0,1,0,19.835,19.837h0a19.858,19.858,0,0,0-19.835-19.836" fill="#b6cbf8"/>
    <path id="Path_5032" data-name="Path 5032" d="M180.816,302.778h-7.829l2.514-21.462-2.873-20.385,8.95.552-2.984,19.833Z" fill="#bbb6b6"/>
    <path id="Path_5033" data-name="Path 5033" d="M160.836,294.625l-3.915-6.782,19.845-8.552,16.219-12.679,4,8.027-18.667,7.331Z" fill="#bbb6b6"/>
    <path id="Path_5034" data-name="Path 5034" d="M157.7,271.1l4.3-6.543,16.552,13.892,18.611,8.8-5.378,7.174-14.93-13.391Z" fill="#bbb6b6"/>
    <path id="Path_5035" data-name="Path 5035" d="M169.749,280.057a7.292,7.292,0,1,1,7.292,7.292,7.292,7.292,0,0,1-7.292-7.292" fill="#bbb6b6"/>
    <path id="Path_5036" data-name="Path 5036" d="M396.95,278.287A27.948,27.948,0,1,1,424.9,306.235a27.948,27.948,0,0,1-27.948-27.948" fill="#272729"/>
    <path id="Path_5037" data-name="Path 5037" d="M424.9,300.143a21.857,21.857,0,1,1,21.856-21.858v0A21.881,21.881,0,0,1,424.9,300.143m0-41.692a19.836,19.836,0,1,0,19.835,19.837h0A19.858,19.858,0,0,0,424.9,258.451" fill="#b6cbf8"/>
    <path id="Path_5038" data-name="Path 5038" d="M428.626,299.155h-7.831l2.513-21.462-2.872-20.385,8.949.552L426.4,277.693Z" fill="#bbb6b6"/>
    <path id="Path_5039" data-name="Path 5039" d="M408.649,291.908l-3.915-6.782,19.845-8.552L440.8,263.895l4,8.027-18.667,7.331Z" fill="#bbb6b6"/>
    <path id="Path_5040" data-name="Path 5040" d="M405.51,270.2l4.3-6.543,16.552,13.892,18.611,8.8-5.379,7.174-14.929-13.391Z" fill="#bbb6b6"/>
    <path id="Path_5041" data-name="Path 5041" d="M417.564,278.246a7.292,7.292,0,1,1,7.292,7.292,7.292,7.292,0,0,1-7.292-7.292" fill="#bbb6b6"/>
    <path id="Path_5042" data-name="Path 5042" d="M148.917,239.359H130.634a16.7,16.7,0,0,0-14.578,8.553l-.627,1.122a1.7,1.7,0,0,0,1.483,2.528h22a5.437,5.437,0,0,0,4-1.751l7.175-7.777a1.594,1.594,0,0,0-1.172-2.675" fill="#fff"/>
    <path id="Path_5043" data-name="Path 5043" d="M126.715,278.289h-6.24a5.7,5.7,0,0,0-4.975,2.919l-.214.383a.58.58,0,0,0,.506.863H123.3a1.854,1.854,0,0,0,1.365-.6l2.449-2.654a.544.544,0,0,0-.4-.913" fill="#262d49"/>
    <path id="Path_5044" data-name="Path 5044" d="M428.91,211.086,335.618,213.3a3.256,3.256,0,0,1-3.333-3.177c0-.026,0-.052,0-.078V188.552a3.031,3.031,0,0,1,3.031-3.031h.044c39.783.553,53.417,1.662,61.593,4.483,7.211,2.488,24.075,12.718,32.792,17.91a1.707,1.707,0,0,1-.834,3.173" fill="#b3b0bb"/>
    <path id="Path_5045" data-name="Path 5045" d="M324.164,185.381q2.271.025,4.444.053v28.035l-90,2.136a1.175,1.175,0,0,1-.685-2.148c10.516-7.088,45.739-28.536,86.244-28.077" fill="#fff"/>
    <path id="Path_5046" data-name="Path 5046" d="M428.59,211.091h-.049v-3.9q.477.287.928.553a1.8,1.8,0,0,1-.878,3.342" fill="#b6cbf8"/>
    <path id="Path_5047" data-name="Path 5047" d="M332.282,214.6l-11.023-.874.735-29.982h10.288Z" fill="#575758"/>
    <path id="Path_5048" data-name="Path 5048" d="M402.093,214.6h-5.144V187.677l5.144,3.087Z" fill="#575758"/>
    <path id="Path_5049" data-name="Path 5049" d="M249.837,206.181l2.744,9.09-15.013.356a.891.891,0,0,1-.542-1.613c3.389-2.439,9.671-6.782,12.811-7.834" fill="#343d63"/>
    <path id="Path_5050" data-name="Path 5050" d="M236.915,216.377a1.412,1.412,0,0,1-.808-2.571l.313-.216c.324-.225.688-.473,1.088-.744q.5-.333,1.059-.706l.569-.373q.646-.425,1.371-.885l1.072-.68.06-.038.159-.1c.311-.194.64-.4.978-.606l.074-.046c.112-.069.224-.139.339-.207.167-.1.343-.211.522-.319l.755-.454c.72-.434,1.5-.891,2.3-1.357.25-.145.5-.292.761-.439q.764-.439,1.57-.889l.378-.212c1.084-.6,2.183-1.2,3.266-1.776l.356-.188.5-.262c2.064-1.081,4.185-2.142,6.306-3.154l.659-.312q.993-.47,2.016-.937c.225-.1.456-.208.688-.313.454-.207.918-.414,1.387-.621l.7-.31c.7-.309,1.448-.63,2.282-.981q.648-.271,1.3-.542c2.941-1.213,5.94-2.353,8.912-3.388l.651-.226c.245-.085.491-.168.737-.251l.927-.311c.251-.083.5-.166.752-.247l.029-.01c.261-.086.525-.172.789-.255.478-.153.958-.306,1.442-.455.328-.1.661-.2,1-.306.51-.154,1.02-.307,1.535-.458l.854-.246q.807-.229,1.62-.453c1.074-.3,2.169-.582,3.252-.853l.065-.017c.1-.024.191-.049.288-.072.461-.115.933-.229,1.406-.34.279-.067.564-.134.85-.2l.214-.049c.212-.049.425-.1.637-.145q.425-.1.853-.19t.859-.185c.289-.061.577-.12.865-.179s.575-.118.866-.176l.047-.009.823-.161c.275-.053.546-.1.822-.157.31-.058.618-.113.929-.168l.6-.106.281-.049q.881-.151,1.76-.291c.292-.047.589-.093.886-.139l.046-.007q.78-.117,1.562-.226c.971-.134,1.949-.259,2.9-.369l.063-.007c.269-.031.536-.062.8-.089.187-.022.384-.042.58-.061s.4-.044.608-.063.449-.046.679-.066c.3-.029.607-.057.914-.083.291-.026.586-.05.881-.072.234-.019.458-.037.684-.053l1.306-.089q.385-.025.774-.046l.114-.006c.282-.016.572-.031.859-.044l.691-.032h.022c.207-.009.413-.018.62-.025l.512-.018.61-.018a2.929,2.929,0,0,1,3.008,2.848c0,.026,0,.052,0,.078v23.233a3.608,3.608,0,0,1-3.5,3.585l-82.277,1.953h-.036m13.588-9.726-.509.284q-.889.5-1.732.979c-.258.147-.508.292-.757.436-.8.463-1.569.916-2.285,1.346l-.75.451c-.175.1-.347.211-.518.316l-.33.2-.078.048c-.337.206-.662.409-.978.606l-.209.13c-.364.23-.72.455-1.062.674q-.717.458-1.353.873l-.566.371q-.558.369-1.047.7-.59.4-1.075.734l-.149.1,15.457-.366,66.63-1.582a2.129,2.129,0,0,0,2.066-2.116V187.606a1.46,1.46,0,0,0-1.46-1.458h-.04l-.6.018-.512.018-.606.024h-.024c-.23.009-.457.02-.683.031-.284.013-.567.027-.849.044l-.114.006-.757.045-1.3.088c-.22.016-.44.034-.662.052-.3.023-.594.047-.881.072s-.6.053-.9.082c-.228.02-.45.042-.672.066-.206.019-.4.038-.594.061s-.391.039-.578.061c-.272.028-.534.058-.8.088l-.062.007c-.944.109-1.91.233-2.871.365q-.773.107-1.542.223l-.043.007-.879.137q-.876.138-1.74.287l-.28.049c-.2.034-.392.068-.588.1-.31.055-.615.11-.92.167-.271.051-.541.1-.813.155s-.545.106-.816.159l-.047.009c-.286.056-.569.113-.852.172s-.575.118-.86.178-.565.12-.849.182-.564.124-.847.188q-.318.071-.628.143l-.217.05c-.281.064-.559.129-.836.2-.472.111-.937.224-1.4.338l-.273.068-.069.018c-1.075.268-2.158.552-3.223.845-.539.147-1.073.3-1.6.448l-.849.244q-.758.222-1.518.453l-.984.3c-.482.149-.957.3-1.433.453-.26.082-.517.166-.775.251l-.032.01-.743.244-.922.309c-.242.082-.485.164-.726.247l-.647.225c-2.948,1.026-5.92,2.157-8.836,3.359l-1.3.539c-.825.347-1.565.665-2.26.972l-.7.309q-.7.308-1.375.615c-.231.1-.456.205-.68.308q-1.02.466-2,.931l-.657.311c-2.1,1-4.206,2.055-6.249,3.126l-.5.263-.352.186c-.97.516-1.955,1.05-2.93,1.59" fill="#262d49"/>
    <path id="Path_5051" data-name="Path 5051" d="M403.633,212.45a2.1,2.1,0,0,1-1.478-.611,2.414,2.414,0,0,1-.711-1.722V194.43c0-.892.132-2.032.854-2.482a2.854,2.854,0,0,1,2.445.227c.768.377,1.3.647,1.592.8l.115.062.313.17c3.909,2.136,9.475,5.5,16.543,9.991l.9.571q1.07.681,2.073,1.328l2.479,1.6q.646.418,1.238.8l.176.113.054.035a2.275,2.275,0,0,1,.912,2.551,2.086,2.086,0,0,1-1.955,1.583l-.27.007-25.225.655h-.054m.137-19.2a.922.922,0,0,0-.484.144,1.2,1.2,0,0,0-.54,1.039v15.687a1.1,1.1,0,0,0,.318.79.824.824,0,0,0,.589.241l25.495-.662a.812.812,0,0,0,.737-.636.977.977,0,0,0-.368-1.106l-.054-.035-.171-.11c-.4-.261-.812-.53-1.242-.808l-2.474-1.6q-1-.644-2.071-1.326l-.894-.568c-7.046-4.479-12.587-7.826-16.471-9.948l-.316-.172a1.043,1.043,0,0,0-.1-.051c-.281-.152-.816-.422-1.558-.786a.9.9,0,0,0-.4-.1" fill="#262d49"/>
    <path id="Path_5052" data-name="Path 5052" d="M249.837,206.181l2.744,9.09-15.013.356a.891.891,0,0,1-.542-1.613c3.389-2.439,9.671-6.782,12.811-7.834" fill="#343d63"/>
    <path id="Path_5053" data-name="Path 5053" d="M335.532,214.032a3.99,3.99,0,0,1-3.986-3.99v-21.5a3.767,3.767,0,0,1,3.768-3.765h.053c41.062.571,53.778,1.5,61.842,4.53l.477.179v23.076l-62.053,1.472h-.1m-.219-27.781a2.3,2.3,0,0,0-2.3,2.3v21.5a2.52,2.52,0,0,0,2.52,2.52h.061l60.618-1.438v-20.61c-7.847-2.785-21.3-3.712-60.87-4.262h-.033" fill="#262d49"/>
    <path id="Path_5054" data-name="Path 5054" d="M221.32,213.733l-.716,1.2a16.541,16.541,0,0,1-13.034,8.012c-14.534,1.025-43.87,3.091-59.367,4.169-20.961,1.459-30.711,12.171-30.862,12.338C129.1,219.245,221.32,213.734,221.32,213.734" fill="#293d89"/>
    <path id="Path_5055" data-name="Path 5055" d="M221.32,213.733l-.716,1.2a16.541,16.541,0,0,1-13.034,8.012c-14.534,1.025-43.87,3.091-59.367,4.169-20.961,1.459-30.711,12.171-30.862,12.338C129.1,219.245,221.32,213.734,221.32,213.734" fill="none" stroke="#272729" stroke-width="1"/>
    <rect id="Rectangle_1571" data-name="Rectangle 1571" width="94.132" height="0.735" transform="matrix(0.012, -1, 1, 0.012, 326.765, 279.278)" fill="#262d49"/>
    <rect id="Rectangle_1572" data-name="Rectangle 1572" width="181.618" height="0.735" transform="translate(208.477 281.485) rotate(-1.121)" fill="#262d49"/>
    <path id="Path_5056" data-name="Path 5056" d="M317.051,232.974c0,1-4.441,1.8-9.92,1.8s-9.92-.807-9.92-1.8,4.441-1.8,9.92-1.8,9.92.807,9.92,1.8" fill="#343d63"/>
    <path id="Path_5057" data-name="Path 5057" d="M409.442,232.974c0,1-4.442,1.8-9.921,1.8s-9.919-.807-9.919-1.8,4.441-1.8,9.919-1.8,9.921.807,9.921,1.8" fill="#343d63"/>
    <path id="Path_5058" data-name="Path 5058" d="M382.986,278.307l-.734-.04c.507-9.358,3.281-17.244,8.243-23.441a38.928,38.928,0,0,1,15.956-11.553,60.437,60.437,0,0,1,22.091-4.2V211.085h.734v28.748l-.383-.016a59.374,59.374,0,0,0-22.186,4.144,38.186,38.186,0,0,0-15.648,11.334c-4.859,6.073-7.576,13.815-8.074,23.011" fill="#262d49"/>
    <path id="Path_5059" data-name="Path 5059" d="M230.617,281.431c-.285-24.278,1.067-41.076,2.251-50.892a119.225,119.225,0,0,1,2.673-15.679l.708.2c-.055.2-5.441,20.016-4.9,66.364Z" fill="#262d49"/>
    <rect id="Rectangle_1573" data-name="Rectangle 1573" width="14.374" height="0.735" transform="translate(355.874 233.487)" fill="#262d49"/>
    <path id="Path_5060" data-name="Path 5060" d="M197.507,221.881c0-.386.589-.7,1.315-.7s1.315.313,1.315.7-.589.7-1.315.7-1.315-.313-1.315-.7" fill="#384987"/>
    <path id="Path_5061" data-name="Path 5061" d="M425.247,309.856,37.488,306.908c-.226,0,5.869.143,5.869,0h382.3c0-.143-392.856,0-392.63,0l392.218,2.4c.226,0,.411.117.411.259l-388.17-.259,60.7-.315,327.467-2.086" fill="#343852"/>
    <path id="Path_5062" data-name="Path 5062" d="M223.414,138.287S214.151,122.228,192,124.012c0,0-32.16-26.766-66.456-3.569,0,0-36.457-5.748-63.455,4.976-18,7.151-23.945,14.652-23.945,14.652Z" fill="#f8fbff"/>
    <path id="Path_5063" data-name="Path 5063" d="M500.813,234.176H480.881a9.672,9.672,0,0,1-7.6-3.69l-7.538-9.579a1.376,1.376,0,0,1,1.082-2.227h31.591Z" fill="#f3f3f6"/>
  </g>
</svg>
