<svg id="Group_4973" data-name="Group 4973" xmlns="http://www.w3.org/2000/svg" xmlns:xlink="http://www.w3.org/1999/xlink" width="148.208" height="104.911" viewBox="0 0 148.208 104.911">
  <defs>
    <clipPath id="clip-path">
      <rect id="Rectangle_2663" data-name="Rectangle 2663" width="148.208" height="104.911" fill="#c9d6f2"/>
    </clipPath>
  </defs>
  <g id="Group_4972" data-name="Group 4972" clip-path="url(#clip-path)">
    <path id="Path_7830" data-name="Path 7830" d="M148.208,221.1c-.777,2.889-2.086,5.477-4.949,6.732a13.792,13.792,0,0,1-4.851,1.107c-3.755.159-7.522.081-11.283.043-5.866-.06-9.644-3.8-9.8-9.67-.031-1.154,0-2.31,0-3.727-28.784,1.34-57.483,1.361-86.288,0-.091,1.854-.1,3.574-.275,5.278a8.894,8.894,0,0,1-8.449,8.043c-4.431.151-8.875.162-13.307.028a8.979,8.979,0,0,1-8.915-8.852c-.153-4.142-.053-8.294-.032-12.441a2.354,2.354,0,0,1,.353-1.514c1.056-1.038.688-2.181.546-3.376-.307-2.574-.531-5.158-.818-8.034a826.708,826.708,0,0,0,147.951-.02c-.264,2.72-.384,5.308-.81,7.845a4.411,4.411,0,0,0,.935,4.094Z" transform="translate(0 -124.121)" fill="#c9d6f2"/>
    <path id="Path_7831" data-name="Path 7831" d="M343.321,159.008c-5.321.464-10.636,1-15.963,1.374-6.629.46-13.267.78-19.9,1.157-.328.018-.659,0-1.415,0,.393-2.551.721-5,1.2-7.42.07-.359.813-.8,1.275-.836a281.058,281.058,0,0,0,33.582-4.621,6.98,6.98,0,0,1,.853-.07l.374,2.6Z" transform="translate(-195.114 -94.735)" fill="#c9d6f2"/>
    <path id="Path_7832" data-name="Path 7832" d="M44.506,67.1c-.321-2.386-.444-4.662-.958-6.844-1.1-4.669-3.971-7.683-9.672-7.98-7.347-.383-14.665-1.443-21.976-2.363-3.325-.418-6.6-1.2-10.31-1.887.787-2.136,1.368-4,2.172-5.755a3.383,3.383,0,0,1,1.729-1.651A7.585,7.585,0,0,0,9.7,36.852c1.788-3.331,4.74-4.279,8.2-4.4a44.634,44.634,0,0,0,4.467-.289c.489-.066.911-.62,1.364-.951l-.234-.444c-2.252,0-4.5.039-6.755-.012-1.99-.045-3.221-1.191-3.284-2.925a3.059,3.059,0,0,1,3.328-3.2c2.892-.048,5.788-.066,8.678.015a1.79,1.79,0,0,0,1.846-1.17c3.2-5.759,6.461-11.49,9.722-17.217a8.018,8.018,0,0,1,6.22-3.945A200.289,200.289,0,0,1,84.045.267C90.538.6,97.019,1.209,103.5,1.749c1.434.119,2.846.482,4.272.717a7.2,7.2,0,0,1,5.319,3.605c3.287,5.712,6.566,11.43,9.751,17.2a2.19,2.19,0,0,0,2.3,1.381c2.649-.087,5.3-.038,7.955-.024,2.341.013,3.736,1.192,3.721,3.11-.014,1.882-1.336,3.008-3.625,3.034-2.119.024-4.238.005-6.428.005-.045.927.275,1.382,1.181,1.442,2.257.149,4.515.3,6.766.522a6.625,6.625,0,0,1,5.137,3.083c1.32,2,2.625,3.962,5.087,4.918.917.356,1.634,1.6,2.12,2.6a32.131,32.131,0,0,1,1.405,4.239c-3.473.669-6.7,1.428-9.972,1.894C132,50.395,125.5,51.171,119,51.977c-1.577.2-3.168.291-4.754.393-3.775.243-5.9,1.7-6.954,5.373a56.616,56.616,0,0,0-1.222,7.374,14.4,14.4,0,0,0-.013,1.965c-20.623.954-41.084.946-61.546.018m74.229-38.459c-.988-1.937-1.81-3.672-2.739-5.348-2.334-4.211-4.722-8.393-7.076-12.593a4.736,4.736,0,0,0-4-2.619C101.6,7.8,98.312,7.3,95,7.014a241.526,241.526,0,0,0-47.787.8c-3.165.354-5.455,1.427-6.951,4.424-2.534,5.082-5.351,10.022-8.036,15.029a10.389,10.389,0,0,0-.493,1.335,238.794,238.794,0,0,1,87,.037m-43.6,33.027q10.267,0,20.535-.009a7.439,7.439,0,0,0,2-.22,2.879,2.879,0,0,0,2.1-3.077,2.928,2.928,0,0,0-2.509-2.756,11.414,11.414,0,0,0-1.73-.087q-20.39-.007-40.779,0a11.368,11.368,0,0,0-1.73.087,2.942,2.942,0,0,0-2.517,2.9c-.041,1.929,1.348,3.151,3.67,3.155q10.484.02,20.968.005" transform="translate(-1.014 0.001)" fill="#c9d6f2"/>
    <path id="Path_7833" data-name="Path 7833" d="M.567,159.905V149.488c.483.08.793.108,1.09.184,7.723,1.986,15.659,2.568,23.536,3.519,2.864.346,5.756.472,8.639.639a2.633,2.633,0,0,1,2.592,1.708,14.946,14.946,0,0,1,.948,6.665l-36.8-2.3" transform="translate(-0.361 -95.304)" fill="#c9d6f2"/>
  </g>
</svg>
