<svg id="Group_4523" data-name="Group 4523" xmlns="http://www.w3.org/2000/svg" xmlns:xlink="http://www.w3.org/1999/xlink" width="62.638" height="78" viewBox="0 0 62.638 78">
  <defs>
    <clipPath id="clip-path">
      <rect id="Rectangle_2492" data-name="Rectangle 2492" width="62.638" height="78" fill="#173a8d"/>
    </clipPath>
  </defs>
  <g id="Group_4519" data-name="Group 4519" clip-path="url(#clip-path)">
    <path id="Path_7474" data-name="Path 7474" d="M21.649,21.31c-2.382-3.721-4.77-7.216-6.856-10.824a12.529,12.529,0,0,1-1.461-4.777C13.1,3.747,14.6,2.652,17.045,2.847a31.261,31.261,0,0,1,4.609.852c3.441.807,6.836,1.752,10.3,2.485a8.421,8.421,0,0,0,7.162-1.552A25.906,25.906,0,0,1,47.44.3c2.157-.665,3.182-.25,2.895,1.6a36.06,36.06,0,0,1-2.027,7.679A36.641,36.641,0,0,1,41.6,20.638c-.732.823-.123,1.237.347,1.754A110.512,110.512,0,0,1,57.062,42.975c3.09,5.576,5.535,11.307,5.575,17.51.048,7.313-4.322,12.465-12.761,15.175A52.763,52.763,0,0,1,35.634,77.9c-7.422.273-14.81.076-21.92-1.959C3.99,73.161-.777,67.028.1,58.742.875,51.481,4.23,44.917,8.256,38.527A119.405,119.405,0,0,1,21.649,21.31M18.63,49.762v3.969l-2.4.188v2.829l2.514.131c0,2.27.039,4.472-.02,6.672-.023.833.306,1.161,1.354,1.094.87-.056,1.751-.012,2.763-.012v-7.81c3.347,0,6.556-.021,9.764.031a1.747,1.747,0,0,1,1.014.673c1.764,2.066,3.481,4.158,5.242,6.226.281.33.683.793,1.076.825,1.282.1,2.586.039,4.026.039V56.891l2.45-.161V53.882l-2.349-.145V49.763l2.336-.117V46.83l-2.5-.159V39.052h-4.07v7.7c-3.09,0-6.042.048-8.988-.037a3,3,0,0,1-1.885-.8c-1.787-2-3.421-4.087-5.158-6.116a2.219,2.219,0,0,0-1.254-.8c-1.188-.112-2.4-.038-3.81-.038V46.7l-2.5.1v2.832l2.4.125" transform="translate(0 0)" fill="#173a8d"/>
    <path id="Path_7475" data-name="Path 7475" d="M53.449,163.246l-2.4-.125v-2.832l2.5-.1v-7.734c1.406,0,2.622-.074,3.81.038a2.219,2.219,0,0,1,1.254.8c1.737,2.029,3.371,4.116,5.158,6.116a3,3,0,0,0,1.885.8c2.946.084,5.9.037,8.988.037v-7.7h4.07v7.619l2.5.159v2.816l-2.336.117v3.973l2.348.146v2.848l-2.45.161V178.1c-1.44,0-2.744.066-4.026-.04-.393-.032-.795-.5-1.076-.825-1.761-2.068-3.477-4.16-5.242-6.226a1.748,1.748,0,0,0-1.014-.673c-3.207-.052-6.417-.03-9.764-.03v7.81c-1.013,0-1.893-.044-2.763.012-1.048.067-1.376-.261-1.354-1.094.059-2.2.02-4.4.02-6.671l-2.514-.132V167.4l2.4-.188Zm13.66,0c2.586,3.975,3.572,4.481,7.464,3.885v-3.885Zm-9.388.071v3.891h7.412c-2.338-3.875-3.247-4.354-7.412-3.891m1.794-3.077-1.821-2.166v2.079l1.821.087M74.622,172.46v-2.083H72.9l1.721,2.083" transform="translate(-34.819 -113.485)" fill="#fff"/>
    <path id="Path_7476" data-name="Path 7476" d="M101.557,194.788h7.464v3.885c-3.892.6-4.878.09-7.464-3.885" transform="translate(-69.267 -145.023)" fill="#173a8d"/>
    <path id="Path_7477" data-name="Path 7477" d="M72.03,194.642c4.165-.463,5.074.016,7.411,3.891H72.03Z" transform="translate(-49.128 -144.806)" fill="#173a8d"/>
    <path id="Path_7478" data-name="Path 7478" d="M73.764,176.709l-1.821-.087v-2.079l1.821,2.166" transform="translate(-49.069 -129.951)" fill="#173a8d"/>
    <path id="Path_7479" data-name="Path 7479" d="M121.493,224.768l-1.721-2.083h1.721Z" transform="translate(-81.69 -165.793)" fill="#173a8d"/>
  </g>
</svg>
