<svg xmlns="http://www.w3.org/2000/svg" xmlns:xlink="http://www.w3.org/1999/xlink" width="78" height="78" viewBox="0 0 78 78">
  <defs>
    <clipPath id="clip-path">
      <rect id="Rectangle_1683" data-name="Rectangle 1683" width="78" height="78" fill="#173a8d"/>
    </clipPath>
  </defs>
  <g id="Group_4522" data-name="Group 4522" transform="translate(-0.252 -0.309)">
    <g id="Group_2870" data-name="Group 2870" transform="translate(0.252 0.309)" clip-path="url(#clip-path)">
      <path id="Path_5358" data-name="Path 5358" d="M35.648,0h1.066V7.187h4.57V0h1.066a3.169,3.169,0,0,0,.505.131A38.019,38.019,0,0,1,53.948,2.91c.922.383,1.82.825,2.765,1.257l-3.648,6.257,3.944,2.3L60.661,6.5A39.421,39.421,0,0,1,71.779,17.777L65.5,21.347l2.257,3.969,6.283-3.548a37.024,37.024,0,0,1,3.186,9.242c.307,1.535.515,3.091.768,4.637v1.066H70.812v4.57H78V42.35a3.106,3.106,0,0,0-.133.5,37.755,37.755,0,0,1-2.5,10.391c-.458,1.163-1,2.292-1.524,3.472L67.573,53.06,65.267,57l6.226,3.655a39.44,39.44,0,0,1-11.27,11.12L56.654,65.5l-3.972,2.261,3.554,6.279a38.711,38.711,0,0,1-14.978,3.953V68.9H36.7V78a38.869,38.869,0,0,1-15.4-4.188l3.639-6.244-3.948-2.3L17.341,71.49A39.341,39.341,0,0,1,6.224,60.224L12.5,56.656l-2.257-3.972L3.955,56.236A38.807,38.807,0,0,1,0,41.271H7.195V36.7H0A38.852,38.852,0,0,1,4.187,21.3l6.245,3.635,2.3-3.944-6.225-3.65A39.322,39.322,0,0,1,17.775,6.22L21.347,12.5l3.971-2.257L21.766,3.955A36.932,36.932,0,0,1,31.01.767C32.546.46,34.1.253,35.648,0M49.977,16.376c-.177.29-.313.5-.437.716q-5.365,9.414-10.715,18.837a1.313,1.313,0,0,1-1.341.8c-3.12-.047-6.242-.02-9.363-.02h-.793v4.615h8.387l-2.1,3.739,3.966,2.254c1.055-1.846,2.086-3.591,3.05-5.372a1.12,1.12,0,0,1,1.179-.681c1.742.04,3.486.014,5.246.014V36.7H43.639l10.292-18.07-3.955-2.253" transform="translate(-0.425 -0.52)" fill="#173a8d"/>
    </g>
  </g>
</svg>
