<svg id="Group_2629" data-name="Group 2629" xmlns="http://www.w3.org/2000/svg" xmlns:xlink="http://www.w3.org/1999/xlink" width="501.346" height="418.251" viewBox="0 0 501.346 418.251">
  <defs>
    <clipPath id="clip-path">
      <rect id="Rectangle_1580" data-name="Rectangle 1580" width="501.346" height="418.251" fill="none"/>
    </clipPath>
    <clipPath id="clip-path-2">
      <rect id="Rectangle_1583" data-name="Rectangle 1583" width="248.607" height="252.332" transform="translate(249.781 89.321)" fill="none"/>
    </clipPath>
    <clipPath id="clip-path-3">
      <path id="Path_5119" data-name="Path 5119" d="M402.345,155.417l-42.07,99.236v0L377.718,299.6h0l62.376-74.07-37.75-70.116Z" fill="none"/>
    </clipPath>
    <linearGradient id="linear-gradient" x1="-4.513" y1="1.823" x2="-4.501" y2="1.823" gradientUnits="objectBoundingBox">
      <stop offset="0" stop-color="#fff"/>
      <stop offset="0.121" stop-color="#fff"/>
      <stop offset="0.197" stop-color="#f9f9f9"/>
      <stop offset="0.277" stop-color="#ececec"/>
      <stop offset="0.359" stop-color="#d7d7d7"/>
      <stop offset="0.441" stop-color="#bababa"/>
      <stop offset="0.524" stop-color="#949494"/>
      <stop offset="0.607" stop-color="#696969"/>
      <stop offset="0.615" stop-color="#646464"/>
      <stop offset="1" stop-color="#646464"/>
    </linearGradient>
  </defs>
  <g id="Group_2620" data-name="Group 2620">
    <g id="Group_2619" data-name="Group 2619" clip-path="url(#clip-path)">
      <path id="Path_5084" data-name="Path 5084" d="M153.254,327.824c.35.728.7,1.386,1.049,2.045,1.981,3.6,4.145,6.309,6.492,7.8l13.067.138,17.828.173,11.919.1,8.473.07h.383l5.593.069h3l70.047-.382h.566l18.011-.1,48.157-.243,19.643-.1h.466l76.456-.382s23.421-26.692,22.855-73.212c-.366-29.743,20.494-124.13-30.244-138.828-18.044-5.2-53.137,10.6-61.643-6.558-1.8-3.605-3.546-7.245-5.327-10.885C367.907,82.811,354.19,59.273,316.2,63.956a35.945,35.945,0,0,0-6.525,1.421c-6.808,2.115-12.651,6-18.011,10.192-12.9,10.157-22.939,22.29-36.821,16.466-26.717-11.2-35.356-6.1-51.237,0-6.759,2.6-45.178,63.951-50.355,68.908-23.858,22.736-44.282-13.726-48.227,30.576-1.9,21.285-6.191,9.611,3.613,40.671" fill="#b9d6f6"/>
      <path id="Path_5085" data-name="Path 5085" d="M211.25,193.113c.279-.564.557-1.075.835-1.586a16.492,16.492,0,0,1,5.172-6.046l10.409-.107,14.2-.134,9.5-.081,6.749-.054h.3l4.457-.054h2.387l55.8.3h.451l14.348.081,38.362.188,15.647.08h.371l60.9.3s18.658,20.684,18.207,56.751c-.292,23.058,16.326,96.229-24.092,107.624-14.374,4.031-42.329-8.218-49.1,5.084-1.432,2.795-2.824,5.617-4.243,8.439-9.667,19.161-20.593,37.408-50.853,33.78a29.3,29.3,0,0,1-5.2-1.1c-5.423-1.64-10.078-4.65-14.348-7.9-10.277-7.874-18.273-17.28-29.332-12.765-21.282,8.68-28.165,4.73-40.815,0-5.39-2.021-35.99-49.582-40.114-53.425-19-17.628-35.274,10.638-38.417-23.706-1.511-16.5-4.931-7.451,2.879-31.531" fill="#b9d6f6"/>
      <path id="Path_5086" data-name="Path 5086" d="M430.52,164.889a73.93,73.93,0,0,0-5.221-10.8c-.435-.727-.87-1.385-1.305-2.043-2.466-3.6-5.16-6.3-8.081-7.791l-16.267-.141-22.191-.173-14.836-.1-10.546-.073H351.6l-6.962-.068H340.9l-87.19.379h-.7l-22.419.1-59.949.247-24.45.1h-.58l-95.17.384S21.294,171.572,22,218.038c.456,29.709-25.51,123.987,37.646,138.668,22.461,5.194,66.142-10.588,76.73,6.55,2.238,3.6,4.413,7.237,6.63,10.873,15.1,24.687,32.179,48.2,79.462,43.524a54.414,54.414,0,0,0,8.122-1.419c8.475-2.113,15.748-5.991,22.419-10.181,16.058-10.145,28.553-22.264,45.833-16.447,33.256,11.184,44.01,6.094,63.777,0,8.413-2.6,56.235-63.877,62.679-68.828,29.692-22.713,14.88-106.669,19.791-150.919.359-3.229-5.88,2.554-7.643,0-5.134-7.455-11.964-7.964-12.148,9.335-.125,11.824,19.063,66.549,14.779,55.659" fill="#b9d6f6"/>
      <path id="Path_5087" data-name="Path 5087" d="M393.627,291.927a93.622,93.622,0,0,1-4.732,12.2c-.394.821-.789,1.564-1.183,2.307-2.235,4.066-4.676,7.116-7.323,8.8l-14.74.156-20.111.2-13.445.117-9.557.078H322.1l-6.309.078h-3.377l-79.015-.43h-.638l-20.317-.118-54.323-.274-22.157-.117h-.526l-86.245-.43s-26.42-30.109-25.782-82.586C23.824,198.352.293,91.881,57.526,75.3c20.355-5.866,59.94,11.957,69.536-7.4,2.028-4.067,4-8.173,6.009-12.279C146.76,27.744,162.232,1.193,205.083,6.471a40.538,40.538,0,0,1,7.361,1.6c7.68,2.386,14.271,6.766,20.317,11.5,14.557,11.457,25.875,25.143,41.535,18.574,30.138-12.63,39.883-6.882,57.8,0,7.624,2.933,50.962,72.139,56.8,77.73,26.908,25.651,49.95-15.479,54.4,34.495,2.141,24.01,6.984,10.842-4.076,45.878" fill="#b9d6f6"/>
      <path id="Path_5088" data-name="Path 5088" d="M432.419,214.718h-.049v-3.9q.477.287.928.553a1.8,1.8,0,0,1-.878,3.342" fill="#b6cbf8"/>
      <path id="Path_5089" data-name="Path 5089" d="M227.243,141.914s-9.263-16.059-31.415-14.275c0,0-32.16-26.766-66.456-3.569,0,0-36.457-5.748-63.455,4.976-18,7.151-23.945,14.652-23.945,14.652Z" fill="#f8fbff"/>
    </g>
  </g>
  <g id="Group_2622" data-name="Group 2622">
    <g id="Group_2621" data-name="Group 2621" clip-path="url(#clip-path-2)">
      <path id="Path_5090" data-name="Path 5090" d="M308.59,159.484c6.341,2.724,11.248,35.546,11.127,75.818-.134,38.847-4.89,71.032-10.941,76.1a10.235,10.235,0,0,1-8.238,4.5l-27.269.871c-4.634.143-7.831-1.75-9.953-6.6-4.772-9.219-9.872-38.3-9.772-72.194s6.58-63.166,10.786-73.518c1.425-3.7,4.816-7.077,9.459-7.224l27.278-.875a9.651,9.651,0,0,1,7.523,3.123"/>
      <path id="Path_5091" data-name="Path 5091" d="M264.329,164.462c1.425-3.7,4.812-7.077,9.459-7.229l27.274-.871a9.642,9.642,0,0,1,7.528,3.123c6.341,2.72,11.244,35.546,11.127,75.818-.009.576-.013,1.152-.022,1.724l-66.152,2.118V237.98c.1-33.892,6.576-63.166,10.786-73.518" fill="#272626"/>
      <path id="Path_5092" data-name="Path 5092" d="M306.558,168.049c-4.678.147-8.567,30.457-8.684,67.705s3.573,67.3,8.251,67.16c4.673-.156,8.567-30.466,8.688-67.705s-3.578-67.316-8.255-67.16"/>
      <path id="Path_5093" data-name="Path 5093" d="M304.023,184.2c-3.222.1-5.908,24.294-6.007,54.04-.082,29.738,2.443,53.755,5.652,53.655s5.9-24.294,5.994-54.04-2.43-53.755-5.639-53.655" fill="#bbb6b6"/>
      <path id="Path_5094" data-name="Path 5094" d="M336,242.793c-4.487,4.756-6.432,4.123-10.131,5.18s-5.375,1.23-8.268,3.344-13.249,10.529-11.4,11.586,3.7.793,6.081-.533a34.369,34.369,0,0,0,5.02-3.7s-8.459,6.865-7.93,8.2c.273.681,4.443,2.22,9.08,3.543,3.877,1.107,8.191,2.033,9.718,1.78,3.17-.528,5.557-7.658,8.186-10.04,2.646-2.378,8.043-4.011,9.637-5.068,1.569-1.056-9.993-14.292-9.993-14.292" fill="#293d89"/>
      <path id="Path_5095" data-name="Path 5095" d="M328.166,272.193c-2.382.524-6.341,2.906-7.133,1.581s-.537-5.28,1.321-8.45,3.17-5.154,5.016-3.837-1.048,6.475-1.048,7.268,1.845,3.439,1.845,3.439" fill="#4258b7"/>
      <path id="Path_5096" data-name="Path 5096" d="M322.354,274.04c-2.114,2.114-5.548,1.715-6.211,1.057s-1.975-4.621-.658-7.134,3.478-5.418,4.66-5.812,2.473,0,2.209,1.715-.658,6.869-.658,6.869Z" fill="#4258b7"/>
      <path id="Path_5097" data-name="Path 5097" d="M316.632,273.951c2.447,0-2.642,1.59-4.054.178a8.755,8.755,0,0,1-1.936-5.638c.173-1.057,2.794-5,3.7-5.99,1.087-1.187,3.3-.749,2.95.663s-1.538,6.562-1.538,6.562.52,4.223.875,4.223" fill="#4258b7"/>
      <path id="Path_5098" data-name="Path 5098" d="M312.223,271.838c-2.291,1.234-3.868,2.464-5.28,1.932s-3.166-3.513-1.936-5.276,5.284-4.933,6.514-5.288,1.767,1.052,1.59,2.469-.888,6.163-.888,6.163" fill="#293d89"/>
      <path id="Path_5099" data-name="Path 5099" d="M396.6,290.791c.693,8.654,5.89,24.813,0,24.276s-8.264-.264-16.519.55-32.246,3.287-31.687-2.9c.572-6.207,4.431-8.359,8.727-8.567,10.382-.508,20.2-16.508,23.908-15.013,5.016,2.018,15.571,1.655,15.571,1.655"/>
      <path id="Path_5100" data-name="Path 5100" d="M425.894,226.248c-9.91.143-52.126-28.764-70.473-17.974-9.892,5.821-6.475,26.607,5.76,50.342,8.069,15.662,12.218,39.916,16.541,40.99,7.346,1.836,30.652.359,33.792-1.438S394.772,252.14,392.1,250.342s20.855,23.376,33.8,17.62Z" fill="#4258b7"/>
      <path id="Path_5101" data-name="Path 5101" d="M399.649,151.1c-5.882,7.056-14.025,39.189-30.21,58.606C361.317,219.46,332.5,243.6,332.5,243.6l11.859,16.181s33.193-22.842,38.568-26.966c23.181-17.8,38.712-58.839,38.712-58.839Z" fill="#14225b"/>
      <path id="Path_5102" data-name="Path 5102" d="M396.771,158.226c-9.285-5.444-20.884-11.764-20.884-11.764l6.025-18.771s27.282,7.9,30.448,9.338-15.589,21.2-15.589,21.2" fill="#180c07"/>
      <path id="Path_5103" data-name="Path 5103" d="M381.518,98.213a15.929,15.929,0,0,0-8.858-7.086c-14.319-5.639-33.744,11.4-33.563,24.584.117,7.532,4.249,17.524,9.607,25.953a57.612,57.612,0,0,1,.221,7.893c.576,2.014,3.7,1.694,6.475,1.052,4.383,4.907,8.818,8.1,12.171,7.9a21.068,21.068,0,0,0,7.532-1.659c0,.017-.026.039-.026.061.767-.368,8.532-4.093,9.459-4.526,0,0,21.193-16.8-3.019-54.166" fill="#614535"/>
      <path id="Path_5104" data-name="Path 5104" d="M366.341,91.353c-4.621-2.473-7.822.871-17.325,6.735-9.191,5.713-10.343,1.914-12.565,12.27-1.121,5.305,3.219,12.495,3.219,12.495s3.1-2.893,5.682-3.6.017.424,5.457,3a23.241,23.241,0,0,1,6.8,4.6s17.26-4.933,19.317-1.754c1.33,2.044,12.11,4.955,17.706,5.951a47.7,47.7,0,0,0-4.582-21.721c-7.211-15.114-22.63-17.392-23.709-17.976" fill="#2d1107"/>
      <path id="Path_5105" data-name="Path 5105" d="M368.025,125.426c.641-2.412,1.074-6.246,4.11-5.735,4.461.745,9.589,6.315,7.658,11.469s-11.768-5.734-11.768-5.734" fill="#6f4536"/>
      <path id="Path_5106" data-name="Path 5106" d="M390.739,110.249a90.813,90.813,0,0,1-9.054,2.335c-8.023,1.816-18.765,3.963-18.765,3.963s-4.851,13.634-10.421,16.729c-5.57,3.114-26.143,11.764-24.328,7.155,3.885-6.079,8.658-14.255,8.658-14.255s-7.19-11.283-1.893-19.98c3.3-5.4,13.6-12.361,17.871-13.7,7.658-2.4,15.956-5.193,25.03,1.2s12.9,16.541,12.9,16.541" fill="#233ec4"/>
      <path id="Path_5107" data-name="Path 5107" d="M376.706,92.586c9.1,6.4,14.28,17.65,14.28,17.65-3.084,1.239-20.863,4.9-26.386,6.016-1.694-8.6-7.125-19.252-13.531-23.068.364-.147,1.226-.615,1.551-.732,4.214-1.546,15.012-6.267,24.086.134" fill="#14225b"/>
      <path id="Path_5108" data-name="Path 5108" d="M402.884,133.486c8.818,1.858,42.216,4.1,66.267,83.008,0,0-34.515,36.144-41.58,36.144-6.085-10.387-34.051-60.213-34.935-88.052-.416-12.978,10.248-31.1,10.248-31.1" fill="#233ec4"/>
      <path id="Path_5109" data-name="Path 5109" d="M469.359,279.158c6.661-6.22,10.365-10.893,17.767-10.122s9.182,5.236,9.182,11.465,2.387,16.2,2.053,23.536c-.247,5.267-5.029,16.671-22.05,14.336-11.1-1.555,1.494-10.642,2.967-16.861,1.49-6.233-9.919-22.354-9.919-22.354" fill="#272626"/>
      <path id="Path_5110" data-name="Path 5110" d="M435.6,164.762c0-1,8.073-6.289,8.437-5.786,29.755,42.065,40.029,86.408,31.111,106.47-7.4,16.658-52.13,27.5-56.085,29.664-.91.5,55.877-22.83,59.325-16.723,4.188,7.415,10.585,27.079,3.5,31.284-17.437,10.369-61.23,4.045-69.672,3.954-13.964-.147-24.077-1.793-24.077-8.992-.022-29.062,50.337-58.6,50.337-58.6l-34.442-53.165s31.527,12.8,31.57-28.1" fill="#4258b7"/>
      <path id="Path_5111" data-name="Path 5111" d="M478.394,313.717c-28.984,4.6-64.968,8.069-86.836,7.818-13.969-.152-22.651-11.328-16.728-22.111,13.418-24.363,44.594-47.288,44.594-47.288l-22.466-57.709s22.83.632,34.684-15.28c3.041,6.176,14.115,47.851,16.012,55.821.914,3.885,5.384,13.215-11.326,31.557-12.179,13.357-42.8,34.845-29.127,37.214,20.755,3.582,63.452-2.807,76.719-9.979,4.318,11.6-2.672,19.508-5.527,19.958" fill="#233ec4"/>
      <path id="Path_5112" data-name="Path 5112" d="M449.582,176.187c-1.719-8.433-19.845-28.192-28.364-31.557-12.942-5.128-22.548-.693-24.259,16.177-1.728,16.857,5.925,33.8,5.925,33.8l6.3-1.438s-13.258-26.42-8.732-37.209c3.514-8.367,23.464-18.346,40.73,19.681,4.881,10.763,8.4.546,8.4.546" fill="#091040"/>
      <rect id="Rectangle_1581" data-name="Rectangle 1581" width="39.037" height="4.738" transform="translate(370.209 273.722)" fill="#272626"/>
      <path id="Path_5113" data-name="Path 5113" d="M345.27,272.05v8.359h.03c.351,3.1,6.363,5.574,13.76,5.574s13.414-2.473,13.756-5.574h.035V272.05Z"/>
      <rect id="Rectangle_1582" data-name="Rectangle 1582" width="2.612" height="1.464" transform="translate(343.62 274.073)"/>
      <path id="Path_5114" data-name="Path 5114" d="M344.607,273.874h-1.113a4.47,4.47,0,0,0-2.75,0h-1.118v1.5c0,.723,1.113,1.308,2.486,1.308s2.495-.585,2.495-1.308Z"/>
      <path id="Path_5115" data-name="Path 5115" d="M344.607,274.047c0,.68-1.113,1.23-2.495,1.23s-2.486-.55-2.486-1.23,1.113-1.226,2.486-1.226,2.495.546,2.495,1.226" fill="#272626"/>
      <path id="Path_5116" data-name="Path 5116" d="M372.855,272.054c0,3.075-6.176,5.57-13.8,5.57s-13.782-2.495-13.782-5.57,6.173-5.577,13.783-5.577,13.8,2.5,13.8,5.574" fill="#272626"/>
      <path id="Path_5117" data-name="Path 5117" d="M368.395,272.4c0,1.672-4.18,3.023-9.334,3.023s-9.325-1.351-9.325-3.023,4.171-3.023,9.325-3.023,9.334,1.356,9.334,3.023" fill="#fff"/>
      <path id="Path_5118" data-name="Path 5118" d="M351.212,331.755c-13.2-15.8-17.424-21.951-22.609-21.682-1.9-.009-4.3.68-7.593,2.153a8.516,8.516,0,0,1-3.452.827c-3.105.026-5.046-2.486-5.812-5.28a38.149,38.149,0,0,1-1.1-10.59c0-6.592.645-14.25.645-20.478a35.428,35.428,0,0,0-.767-8.5c-.606-2.109-1.278-2.711-1.962-2.776a1.616,1.616,0,1,1,.385-3.209c5.34,1.226,5.392,7.519,5.57,14.484,0,6.436-.641,14.081-.641,20.478a35.775,35.775,0,0,0,.962,9.65c.793,2.335,1.5,2.95,2.716,2.98a5.49,5.49,0,0,0,2.148-.541c3.443-1.533,6.224-2.43,8.9-2.438,8.043.269,11.919,7.428,25.086,22.83,4.812,5.817,16.147,8.792,29.006,8.749,18.165.043,39.232-5.752,48.756-14.566a15.6,15.6,0,0,0,5.068-11.963c.03-7.476-4.206-16.168-9.9-22.847-5.635-6.722-12.816-11.3-17.641-11.218-.191,0-.381.009-.567.026a1.617,1.617,0,0,1-.34-3.216c.023,0,.047-.005.071-.006.269-.026.55-.035.836-.035,12.968.368,30.492,20.092,30.786,37.3a18.888,18.888,0,0,1-6.12,14.349c-10.711,9.732-32.107,15.376-50.944,15.419-13.292-.043-25.372-2.781-31.484-9.9" fill="#272626"/>
    </g>
  </g>
  <g id="Group_2624" data-name="Group 2624">
    <g id="Group_2623" data-name="Group 2623" clip-path="url(#clip-path-3)">
      <rect id="Rectangle_1584" data-name="Rectangle 1584" width="79.822" height="144.186" transform="translate(360.275 155.417)" fill="url(#linear-gradient)"/>
    </g>
  </g>
  <g id="Group_2626" data-name="Group 2626">
    <g id="Group_2625" data-name="Group 2625" clip-path="url(#clip-path-2)">
      <path id="Path_5120" data-name="Path 5120" d="M394.385,260.494c-3.04,1.178-18.373,4.11-19.057,5.973s1.832,2.235,4.717,2.56,1.7.849,1.7.849a55.238,55.238,0,0,0-7.121,11.525c-1.81,3.794-.381,8.138,3.24,2.551-1.018,3.3.1,7.19,3.6,3.413-.68,2.963,1.057,5.158,4.045,2.023-.611,1.659.537,3.209,2.915,2.183,1.49-.632,6.583-2.911,10.737-10.512,4.136-7.593,7.376-12.695,7.376-12.695Z" fill="#293d89"/>
      <path id="Path_5121" data-name="Path 5121" d="M399.168,281.059c-4.149,7.6-9.247,9.879-10.737,10.512-2.374,1.026-3.521-.524-2.911-2.183-2.33,2.438-3.876,1.633-4.132-.225,7.549-5.911,14.657-16.511,18.382-25.186l6.774,4.388s-3.235,5.1-7.376,12.7" fill="#4258b7"/>
      <path id="Path_5122" data-name="Path 5122" d="M423.383,151.816c5.351,5.1,10.421,17.979,10.421,17.979,3.391,17.429,13.288,53.508,6.466,66.523S405.04,273,405.04,273l-15.029-11.7s25.6-35.966,26.8-41.567c1.377-6.341-13.561-46.725-15.363-54.253-3.957-16.539,14.568-20.67,21.935-13.663" fill="#5f7ef0"/>
    </g>
  </g>
  <g id="Group_2628" data-name="Group 2628">
    <g id="Group_2627" data-name="Group 2627" clip-path="url(#clip-path)">
      <path id="Path_5123" data-name="Path 5123" d="M18.777,243.112c3.983-5.635,37.1-3.607,76.464,4.888,37.965,8.211,68.453,19.557,72.15,26.529a10.232,10.232,0,0,1,2.688,8.993l-4.82,26.85c-.824,4.562-3.34,7.295-8.525,8.361-10.009,2.75-39.514,1.688-72.638-5.459S23.688,293.7,14.438,287.433c-3.322-2.163-5.919-6.182-5.1-10.753l4.818-26.86a9.649,9.649,0,0,1,4.619-6.708"/>
      <path id="Path_5124" data-name="Path 5124" d="M14.437,287.434c-3.322-2.163-5.92-6.178-5.1-10.755l4.821-26.855a9.637,9.637,0,0,1,4.62-6.712c3.979-5.636,37.1-3.6,76.464,4.887.562.129,1.124.253,1.682.381L85.233,313.517l-1.139-.243c-33.125-7.147-60.408-19.569-69.657-25.84" fill="#272626"/>
      <path id="Path_5125" data-name="Path 5125" d="M26.729,246.875c-.829,4.606,28.005,14.714,64.409,22.576s66.563,10.5,67.4,5.9c.819-4.6-28.014-14.715-64.408-22.579s-66.58-10.5-67.4-5.9"/>
      <path id="Path_5126" data-name="Path 5126" d="M42,252.714c-.572,3.172,22.531,10.831,51.6,17.115,29.066,6.266,53.08,8.792,53.65,5.633s-22.532-10.824-51.6-17.1-53.078-8.8-53.648-5.645" fill="#bbb6b6"/>
    </g>
  </g>
</svg>
