<svg xmlns="http://www.w3.org/2000/svg" xmlns:xlink="http://www.w3.org/1999/xlink" width="950" height="466.647" viewBox="0 0 950 466.647">
    <defs>
        <clipPath id="xqnls1ymjd">
            <path data-name="Rectangle 1883" style="fill:none" d="M0 0h950v466.647H0z"/>
        </clipPath>
        <clipPath id="c4k27jq1he">
            <path data-name="Rectangle 1877" style="fill:#4a75cb" d="M0 0h364.889v383.05H0z"/>
        </clipPath>
        <clipPath id="s31iyups5f">
            <path data-name="Path 7397" d="M56.171 63.273c-71.767 59.571-69.957 186.351-21.7 236.683 6.364 6.644 10.239 12.966 15.629 15.216a270.582 270.582 0 0 0 103.826 21.2h.1a196.163 196.163 0 0 0 37.133-3.19c20.78-4.181 60.946-12.264 89.985-46.1 21.425-24.963 30.775-56.934 30.78-89.313v-.044c-.005-34-10.314-68.453-27.765-95.714-6.234-9.738-39.159-63.784-106.085-72.452a159.025 159.025 0 0 0-20.388-1.3c-35.256 0-72.933 11.283-101.515 35.009" transform="translate(0 -28.264)" style="fill:none"/>
        </clipPath>
        <clipPath id="wtmnbckqxg">
            <path data-name="Rectangle 2422" style="fill:none" d="M0 0h311.765v311.019H0z"/>
        </clipPath>
        <clipPath id="mfy7jivduh">
            <path data-name="Path 7400" d="M183.189 647.37c-.328.162-8.087 4.084-13.224 14.407-4.721 9.487-7.938 26.387 3.552 53.02a.452.452 0 1 0 .83-.358c-6.266-14.525-11.972-35.381-3.573-52.259 5-10.052 12.738-13.96 12.815-14a.452.452 0 1 0-.4-.811" transform="translate(-165.662 -647.323)" style="fill:none"/>
        </clipPath>
        <clipPath id="ykx18as7cj">
            <path data-name="Path 7403" d="M618.539 160.78c-.082.045-8.309 4.637-13.255 15.7a46.778 46.778 0 0 0-3.653 22.027c.594 10.137 3.856 21.429 9.7 33.564a.377.377 0 0 0 .34.213.377.377 0 0 0 .339-.54c-13.1-27.221-10.523-44.886-6.055-54.912 4.836-10.85 12.868-15.344 12.949-15.389a.376.376 0 1 0-.361-.661" transform="translate(-601.531 -160.734)" style="fill:none"/>
        </clipPath>
        <clipPath id="damd9j4b6l">
            <path data-name="Path 7405" d="M1244.746 0h-.028l-159.1.761a11.873 11.873 0 0 0-11.793 12.039l2.819 278.016a11.124 11.124 0 0 0 11.334 10.707l149.885.327c6.245.014 11.429-4.771 11.578-10.7l6.984-279.172A11.6 11.6 0 0 0 1244.806 0z" transform="translate(-1073.824 -.003)" style="fill:#173a8d"/>
        </clipPath>
        <clipPath id="cie2xnt31m">
            <path data-name="Rectangle 2429" style="fill:none" d="M0 0h37.347v4.637H0z"/>
        </clipPath>
        <clipPath id="e2mfmel8vn">
            <path data-name="Path 7407" d="M1721.318 54.985a2.216 2.216 0 0 0 2.223 2.23l32.864-.149a2.284 2.284 0 0 0 2.261-2.253 2.2 2.2 0 0 0-2.209-2.235l-32.9.154a2.258 2.258 0 0 0-2.238 2.253" transform="translate(-1721.318 -52.578)" style="fill:none"/>
        </clipPath>
        <clipPath id="9ao8wfq2vo">
            <path data-name="Rectangle 2430" style="fill:none" d="M0 0h136.208v242.051H0z"/>
        </clipPath>
        <clipPath id="9j12p2123p">
            <path data-name="Path 7421" d="M2515.436 2402.067v11.433a2.2 2.2 0 0 0 2.109 2.275h.6a2.208 2.208 0 0 0 2.106-2.4l-.6-11.433a2.111 2.111 0 1 0-4.215.128" transform="translate(-2515.436 -2399.792)" style="fill:none"/>
        </clipPath>
        <clipPath id="chf2a8a15r">
            <path data-name="Rectangle 2449" style="fill:none" d="M0 0h37.625v24.994H0z"/>
        </clipPath>
        <clipPath id="bkdreok9ls">
            <path data-name="Path 7435" d="M14.669 1711.4a53.165 53.165 0 0 0 11.9 10.182l1.508 3.22 4.532-5.645s-8.4-3.983-11.623-12.558a20.175 20.175 0 0 1-.881-10.826 31.453 31.453 0 0 1-12.65-5.049c-.447 6.462 1.268 13.6 7.218 20.675" transform="translate(-7.383 -1690.728)" style="fill:#6a4331"/>
        </clipPath>
        <clipPath id="jxf6dq27xt">
            <path data-name="Path 7436" d="M560.583 1573.114a46.716 46.716 0 0 1-3.383 10.109 29.8 29.8 0 0 0 17.935-3.4 17.015 17.015 0 0 0-1.831-7.989 23.15 23.15 0 0 1-12.304-1.128 22.422 22.422 0 0 1-.416 2.408" transform="translate(-557.2 -1570.706)" style="fill:#6a4331"/>
        </clipPath>
        <clipPath id="6l1thpp91u">
            <path data-name="Path 7437" d="m331.912 1450.3 8.858 16.752c5.533 5.213 11.072 7.657 16.239 8.421a46.716 46.716 0 0 0 3.382-10.109 22.428 22.428 0 0 0 .416-2.408c-6.036-2.239-10.735-6.525-14.595-9.562-4-3.147-7.525-3.947-10.075-3.947a9.642 9.642 0 0 0-4.226.853" transform="translate(-331.912 -1449.446)" style="fill:#000c4c"/>
        </clipPath>
        <clipPath id="it3pkk6llv">
            <path data-name="Path 7439" d="M439.927 1443.249c-3.666-.708-5.672-6.282-4.481-12.452s5.127-10.6 8.793-9.889 5.672 6.282 4.482 12.451c-1.107 5.734-4.586 9.964-8.015 9.964a4.111 4.111 0 0 1-.779-.074m-11-14.3q-.112.47-.2.944l-.922 4.775c-1.581 8.194 1.615 15.7 7.14 16.767l6.568 1.268c5.525 1.066 11.286-4.712 12.867-12.906l.922-4.775q.091-.474.163-.952l21.209-142.748-14.31-2.762z" transform="translate(-427.397 -1288.557)" style="fill:none"/>
        </clipPath>
        <clipPath id="zd2rw2gzhx">
            <path data-name="Path 7440" d="M548.71 788.947a37.247 37.247 0 0 0-17.564 25.139c-3.846 19.926 9.046 36.632 28.212 40.331s37.349-7.01 41.194-26.936a37.248 37.248 0 0 0-6.947-29.869 4.977 4.977 0 0 0-8.795 2.156l-5.347 27.708a6.476 6.476 0 0 1-3.451 4.559l-9.2 4.625a6.476 6.476 0 0 1-7.76-1.5l-6.821-7.717a6.476 6.476 0 0 1-1.506-5.516l5.347-27.708a5.019 5.019 0 0 0-4.891-5.961 4.837 4.837 0 0 0-2.469.687" transform="translate(-530.467 -788.26)" style="fill:none"/>
        </clipPath>
        <clipPath id="n3i0nzmu8z">
            <path data-name="Path 7441" d="M572.151 793.471a37.247 37.247 0 0 0-17.564 25.139c-3.846 19.926 9.046 36.632 28.212 40.331s37.349-7.01 41.195-26.936a37.248 37.248 0 0 0-6.947-29.87 4.977 4.977 0 0 0-8.794 2.156L602.905 832a6.476 6.476 0 0 1-3.451 4.559l-9.2 4.625a6.475 6.475 0 0 1-7.76-1.5l-6.821-7.717a6.476 6.476 0 0 1-1.506-5.516l5.348-27.708a5.02 5.02 0 0 0-4.891-5.961 4.834 4.834 0 0 0-2.47.687" transform="translate(-553.908 -792.784)" style="fill:#173a8d"/>
        </clipPath>
        <clipPath id="fvf57h2ucA">
            <path data-name="Path 7442" d="M458.626 1446.858c-3.666-.708-5.672-6.282-4.481-12.452s5.127-10.6 8.793-9.89 5.672 6.282 4.482 12.452c-1.107 5.734-4.586 9.963-8.015 9.964a4.09 4.09 0 0 1-.779-.074m-11-14.3q-.112.47-.2.944l-.922 4.775c-1.581 8.194 1.615 15.7 7.141 16.767l6.568 1.268c5.525 1.066 11.286-4.712 12.867-12.906l.922-4.775q.091-.474.163-.952l21.209-142.748-14.31-2.762z" transform="translate(-446.095 -1292.166)" style="fill:#173a8d"/>
        </clipPath>
        <clipPath id="79grdeizfB">
            <path data-name="Path 7443" d="M808.137 1521.028c-2.148 1.831.206 8.092.206 8.092l2.381 3.636.034 2.321c1.288-1.508 2.058-5.219 2.664-9.633a3.028 3.028 0 0 0-.7-2.491c-.883-1.021-2.259-2.332-3.5-2.332a1.617 1.617 0 0 0-1.078.407" transform="translate(-807.233 -1520.621)" style="fill:#6a4331"/>
        </clipPath>
        <clipPath id="yfjjth4jbC">
            <path data-name="Path 7444" d="M251.239 2687.527c-1.6 5.28-1.32 8.494-1.02 9.923.008.04.021.078.033.116a70.111 70.111 0 0 0 13.112-.532 1.138 1.138 0 0 0-.036-.3c-1.614-5.926-9.138-9.494-9.138-9.494z" transform="translate(-249.988 -2687.239)" style="fill:#000c4c"/>
        </clipPath>
        <clipPath id="410tcspidD">
            <path data-name="Path 7448" d="M432.5 2701.012a17.627 17.627 0 0 0 5.837.722c5.045.046 11.019-.5 13.363-.74a.825.825 0 0 0-.074-.134c-1.623-2.18-5.735-6.506-13.732-8.264l-3.822-.048s-1.645 2.988-1.573 8.463" transform="translate(-432.501 -2692.548)" style="fill:#000c4c"/>
        </clipPath>
        <clipPath id="0872yphv1E">
            <path data-name="Path 7450" d="M184.832 1910.946s-2.8 9.593-2.781 11.143c.322 30.1 8.174 78.067 8.174 78.067 1.164 1.25 6.736-.354 6.7-.844-1.26-19.7-1.359-63.04-1.359-63.04 4.354 6.848 13.811 56.023 15.246 63.573.141.74 6.284.031 6.272-.772-.665-44.056-11.282-88.127-11.282-88.127z" transform="translate(-182.05 -1910.946)" style="fill:url(#tguz5j5ugc)"/>
        </clipPath>
        <clipPath id="d6gayzb7xF">
            <path data-name="Path 7451" d="M463.532 1488.921c.1.369.31.738.215-.214-.1-.125-.163-.176-.2-.176-.079 0-.062.2-.012.39" transform="translate(-463.489 -1488.531)" style="fill:none"/>
        </clipPath>
        <clipPath id="w505ovccnH">
            <path data-name="Path 7452" d="M23.466 1444.67a8.915 8.915 0 0 0-5.575 3.13c-3.392 4.078-9.215 12.433-9.9 22.387a31.451 31.451 0 0 0 12.65 5.049 29.354 29.354 0 0 1 2.2-6.918 16.9 16.9 0 0 0 .47 1.688c5 14.865 7.612 23.354 7.656 26.222.006.389 22.916-.56 18.858-.678-1.7-.05 7.9-33.893 12.912-39.9.3-.357-4.4-8.654-3.747-7.812-.016-.159-.04-.354-.075-.593-5.234-3.628-11.6-4.706-17.619-4.706-7.34 0-14.17 1.6-17.828 2.132" transform="translate(-7.987 -1442.538)" style="fill:#000c4c"/>
        </clipPath>
        <clipPath id="tqeqtio8sI">
            <path data-name="Path 7453" d="m233.573 1348.14-.966 12.255s6.921 1.943 11.859-1.683l-3.728-11.051z" transform="translate(-232.607 -1347.661)" style="fill:#6a4331"/>
        </clipPath>
        <clipPath id="t37p4xc7yJ">
            <path data-name="Path 7454" d="m229.85 1227.266 8.577 11.583 7.664-3.88s-7.077-13.272-7.246-13.425a1.857 1.857 0 0 0-1.29-.49c-3.074 0-7.705 6.213-7.705 6.213" transform="translate(-229.85 -1221.053)" style="fill:#6a4331"/>
        </clipPath>
        <clipPath id="tsp5r798dK">
            <path data-name="Path 7455" d="M199.695 1193.067a9.519 9.519 0 0 0-3.221 2.379c-1.991 1.869-5.54 1.63-6.792 4.168a2.73 2.73 0 0 0 1.119 3.853 1.235 1.235 0 0 1 .414 1.67 2.718 2.718 0 0 0 1.1 4.117 1.24 1.24 0 0 0 .988.111c.874-.269 2.815-.7 3.891.33 1.158 1.111 4.574 5.572 5.787 7.169a1.234 1.234 0 0 0 1.176.474 34.211 34.211 0 0 0 7.368-2.3 1.228 1.228 0 0 0 .686-1.519 46.064 46.064 0 0 0-2.758-6.213 1.233 1.233 0 0 0-1.675-.517 10.882 10.882 0 0 0-2.985 3.353c-1.183 1.716-2.777.5-3.245.083a1.2 1.2 0 0 1-.217-.259l-3.979-6.358a1.236 1.236 0 0 1-.113-1.082c.362-.99 1.271-2.889 2.99-3.141 1.5-.219 3.67-1.348 3.548-3.129-.085-1.247-1.982-3.312-3.235-3.337h-.037a2.548 2.548 0 0 0-.812.151" transform="translate(-189.294 -1192.916)"/>
        </clipPath>
        <clipPath id="v59cq6vibL">
            <path data-name="Path 7459" d="M160.068 1595.887a.33.33 0 0 0-.275.148l-8.548 12.878a.748.748 0 0 0-.111.559c2.985 9.106 5.733 17.9 6.063 23.484 6.406 1.917 15.791 2.787 21.125-1.38-.2-4.281 2.643-13.079 5.588-22.02a1.053 1.053 0 0 0-.129-.726l-7.438-12.587a.726.726 0 0 0-.625-.357z" transform="translate(-151.12 -1595.887)" style="fill:#003cca"/>
        </clipPath>
        <clipPath id="1c02dduxfM">
            <path data-name="Path 7460" d="m181.92 1449.292-3.6.742a.135.135 0 0 0-.1.176l5.745 16.509h3.457l-5.109-17.191a.34.34 0 0 0-.326-.243.332.332 0 0 0-.069.007" transform="translate(-178.213 -1449.285)" style="fill:#003cca"/>
        </clipPath>
        <clipPath id="1dahf8zyfN">
            <path data-name="Path 7461" d="m343.666 1445.72-1.41 17.214 3.191.392 2.716-17.162a.218.218 0 0 0-.2-.25l-4.086-.373h-.018a.2.2 0 0 0-.2.181" transform="translate(-342.256 -1445.539)" style="fill:#003cca"/>
        </clipPath>
        <clipPath id="85ezjfdfpO">
            <path data-name="Path 7462" d="M186.747 1197.679c6.118-4.068 13.031-10.115 16.273-9.675-2.132-4.026-5.324-5.652-8.455-5.652-6.887 0-13.476 7.864-7.819 15.327" transform="translate(-184.607 -1182.352)" style="fill:none"/>
        </clipPath>
        <clipPath id="czp8jb5kiP">
            <path data-name="Path 7463" d="M265.164 1220.1c-3.869 1.348-6.994 3.822-10.121 7.14 11.767-2.557 22.476-7.206 12.439-7.206q-1.014 0-2.318.066" transform="translate(-255.043 -1220.031)"/>
        </clipPath>
        <clipPath id="swoilyd8dQ">
            <path data-name="Path 7464" d="M1328.667 63.233c0 17.573 14.507 31.818 32.4 31.818s32.4-14.245 32.4-31.818-14.507-31.818-32.4-31.818-32.4 14.246-32.4 31.818" transform="translate(-1328.667 -31.415)" style="fill:none"/>
        </clipPath>
        <clipPath id="qzum854iaR">
            <path data-name="Path 7465" d="M1360.421 199.086h-31.711s-2.58 18.038 25.77 66.339a7.219 7.219 0 0 0 5.945 3.73 7.108 7.108 0 0 0 5.941-3.625c28.353-48.3 25.824-66.444 25.824-66.444z" transform="translate(-1328.649 -199.086)" style="fill:#173a8d"/>
        </clipPath>
        <clipPath id="u0awftzdpS">
            <path data-name="Rectangle 2483" style="fill:#4d7ff5" d="M0 0h41.032v41.032H0z"/>
        </clipPath>
        <clipPath id="1jfjp9dhhT">
            <path data-name="Path 7468" d="M1401.882 123.268a18.637 18.637 0 1 1 18.638 18.637 18.659 18.659 0 0 1-18.638-18.637m-2.205 0a20.843 20.843 0 1 0 20.843-20.843 20.867 20.867 0 0 0-20.843 20.843" transform="translate(-1399.677 -102.425)" style="fill:#e9effd"/>
        </clipPath>
        <linearGradient id="tguz5j5ugc" x1="-.198" y1="3.148" x2="-.196" y2="3.148" gradientUnits="objectBoundingBox">
            <stop offset="0"/>
            <stop offset="1" stop-color="#003cca"/>
        </linearGradient>
        <linearGradient id="ud6cqwhk2a" x1=".048" y1="1" x2=".048" y2="1" gradientUnits="objectBoundingBox">
            <stop offset="0" stop-color="#dae3fe"/>
            <stop offset="1" stop-color="#e9effd"/>
        </linearGradient>
        <linearGradient id="2woeac7o0i" x1="-.677" y1="3.529" x2="-.672" y2="3.529" xlink:href="#ud6cqwhk2a"/>
        <linearGradient id="x1yh03mblk" x1="-3.18" y1="4.1" x2="-3.175" y2="4.1" xlink:href="#ud6cqwhk2a"/>
        <linearGradient id="cclbrkcheb" x1="-5.121" y1="58.114" x2="-5.118" y2="58.114" gradientUnits="objectBoundingBox">
            <stop offset="0" stop-color="#4f52ff"/>
            <stop offset="1" stop-color="#4042e2"/>
        </linearGradient>
        <linearGradient id="tpmzhh5mhq" x1="-18.216" y1="3" x2="-18.209" y2="3" xlink:href="#cclbrkcheb"/>
        <linearGradient id="ihzlbr55fw" x1="-.92" y1="1.015" x2="-.918" y2="1.015" xlink:href="#ud6cqwhk2a"/>
        <linearGradient id="fj9nwzdzvy" x1="-.742" y1="3.199" x2="-.74" y2="3.199" xlink:href="#ud6cqwhk2a"/>
        <linearGradient id="x6m4quspeG" x1="-44.152" y1="296.071" x2="-44.056" y2="296.071" gradientUnits="objectBoundingBox">
            <stop offset="0" stop-color="#fdf53f"/>
            <stop offset=".665" stop-color="#e57a58"/>
            <stop offset="1" stop-color="#d93c65"/>
        </linearGradient>
    </defs>
    <g data-name="Group 3075">
        <g data-name="Group 3074">
            <g data-name="Group 3064">
                <g data-name="Group 3065">
                    <g data-name="Group 3050">
                        <g data-name="Group 3049" style="clip-path:url(#xqnls1ymjd)">
                            <path data-name="Path 6047" d="M719.475 326.45c0-8.859-132.2-16.042-295.273-16.042s-295.271 7.183-295.271 16.042 132.2 16.041 295.271 16.041 295.273-7.182 295.273-16.041" transform="translate(49.634 124.156)" style="fill:#e6f8ff"/>
                            <path data-name="Path 6048" d="M94.993 451.56c-53.22-.179-96.379-31.593-94.959-69.792.771-20.764 11.587-40.9 44.449-51.876C131.061 300.98 10.256 113.054 163.275 94.26S310.254-67.647 489.448 39.328 700.855 1.743 817.634 76.913s-76.51 170.58 68.455 219.731c95.592 32.409 64.24 90.59 31.8 126.463-17.606 19.467-47.923 31.058-80.251 30.951z" style="fill:#c9d6f2"/>
                            <g data-name="Group 3045" style="isolation:isolate;opacity:.44;mix-blend-mode:multiply">
                                <g data-name="Group 3044">
                                    <g data-name="Group 3043" style="clip-path:url(#c4k27jq1he)" transform="translate(448.967 43.056)">
                                        <path data-name="Path 6049" d="M616.4 413.8c20.9.092 40.506-9.692 51.892-26.122 20.978-30.277 41.25-79.383-20.56-106.738C554 239.461 678.98 158.934 603.47 95.489s-96.341 58.565-212.212-31.723c-28.51-22.215-49.765-31.645-67.088-33.01a62.94 62.94 0 0 1 16.365 15.226c42.1 55.231 67.354 95.558 155.287 88.544s-39.289 136.764 29.935 153.421c45.729 11 39.606 77.09 6.458 125.488z" transform="translate(-324.171 -30.755)" style="fill:#4a75cb"/>
                                    </g>
                                </g>
                            </g>
                            <path data-name="Path 6050" d="M291.421 139.184c.062-.084-10.465-.767-20.016-5.543-9.517-4.458-18.059-13.006-13.228-21.445 7.138-11.564-13.16-21.359-6.259-27.794 7.026-5.7 8.5-.98 5.795-13.734-2.228-13.018 6.634-16.145 11.62-27.791 5.7-11.715 18.788-2.95 15.549 12.339-2.547 15.775 3.476-.524 7.905 6.591 3.777 5.876-11.094 31.193-4.514 28.9 6.079-2.765 11.318 1.089 10.506 8.16-2.368 16.289-7.659 39.992-7.36 40.315" transform="translate(96.421 14.986)" style="fill:#7bc7ff"/>
                            <path data-name="Path 6051" d="M294.01 141.64a.209.209 0 0 1-.179-.084A111.2 111.2 0 0 1 271.772 99.8l-.037-.134-.112-.07a60 60 0 0 1-11.706-9.944 278.032 278.032 0 0 1-3.533-3.77.168.168 0 0 1-.039-.214.254.254 0 0 1 .306-.146.256.256 0 0 1 .083.062 284.489 284.489 0 0 0 3.45 3.689 62.739 62.739 0 0 0 10.731 9.327q.322.21.647.419l-.2-.791a106.329 106.329 0 0 1-3.181-23.293c0-.074 0-.148-.007-.221l-.184-.085a.174.174 0 0 1-.079-.067 59.508 59.508 0 0 1-7.17-15.656.215.215 0 0 1 .047-.235.238.238 0 0 1 .28-.05.228.228 0 0 1 .083.13 59.249 59.249 0 0 0 6.436 14.473q.283.458.568.909l-.015-1.1a119.514 119.514 0 0 1 2.389-24.913c.021-.1.065-.125.08-.132a.253.253 0 0 1 .32.3A116.784 116.784 0 0 0 269 81.716l.06.652c.147-.143.3-.286.443-.427A84.832 84.832 0 0 0 282.3 66.3c.042-.066.082-.1.165-.05a.324.324 0 0 1 .154.193.237.237 0 0 1-.033.2 84.707 84.707 0 0 1-13.32 16.167l-.147.122.019.19a103.782 103.782 0 0 0 2.928 16.14l.025.09.062.064a.214.214 0 0 1 .051.21l-.022.09.025.09a103.568 103.568 0 0 0 4.879 13.879q.172.4.346.794.11-.416.222-.829a81.94 81.94 0 0 1 9.146-21.385.2.2 0 0 1 .242-.092.262.262 0 0 1 .165.133.159.159 0 0 1-.025.144 82.062 82.062 0 0 0-9.437 22.537 2.068 2.068 0 0 0-.03.119l.05.112a113.513 113.513 0 0 0 16.44 26.107c.069.083.05.132.04.155a.278.278 0 0 1-.231.16" transform="translate(98.676 19.188)" style="fill:#379cf7"/>
                            <path data-name="Path 6052" d="M289.136 153.653c-.093.055 1.03-11.529-2.012-22.685-2.737-11.068-9.639-21.711-18.707-17.76-12.515 5.981-18.635-17.673-26.1-11.152-6.767 6.77-2.4 9.112-14.406 4.179-12.343-4.458-16.9 4.718-29.133 8.338-12.418 4.386-6.079 20.024 9.414 18.875 15.848-.319-1.1 3.707 5.1 9.644 5.1 5.031 32.368-7.235 29.008-.42-3.737 6.2-.861 12.509 6.188 12.724 16.319-.043 40.383-2.12 40.647-1.743" transform="translate(73.996 40.36)" style="fill:#7bc7ff"/>
                            <path data-name="Path 6053" d="M290.638 157.322a.24.24 0 0 0-.053-.209c-8.038-10.406-20.97-22.863-37.052-30.552l-.126-.06-.047-.133a65.288 65.288 0 0 0-7.727-14.311 305.132 305.132 0 0 0-3.084-4.439.154.154 0 0 0-.2-.076.29.29 0 0 0-.2.311.283.283 0 0 0 .047.1 313.324 313.324 0 0 1 3.018 4.336 67.977 67.977 0 0 1 7.295 13.153l.3.77q-.368-.174-.738-.344a95.265 95.265 0 0 0-22.222-7.1l-.215-.042-.051-.214a.185.185 0 0 0-.053-.1 56.429 56.429 0 0 0-14.081-10.255.2.2 0 0 0-.237.014.286.286 0 0 0-.1.3.215.215 0 0 0 .114.111 56.082 56.082 0 0 1 13.049 9.272c.265.252.528.507.791.76q-.538-.1-1.077-.189a106.389 106.389 0 0 0-24.749-1.275c-.107.006-.134.05-.144.067a.286.286 0 0 0 0 .253.226.226 0 0 0 .238.141 103.886 103.886 0 0 1 32.994 3.105l.626.167q-.247.208-.492.417A86.087 86.087 0 0 1 219 132.818a.124.124 0 0 0-.078.174.325.325 0 0 0 .163.2.213.213 0 0 0 .2 0 86.106 86.106 0 0 0 18.071-12c.048-.046.1-.094.144-.141l.183.052a93.28 93.28 0 0 1 15.275 5.706l.083.041.053.077a.191.191 0 0 0 .2.088l.093-.01.083.041a96.032 96.032 0 0 1 12.733 7.483l.716.5a82 82 0 0 0-.848.112 76.6 76.6 0 0 0-22.452 6.636.224.224 0 0 0-.13.249.279.279 0 0 0 .1.2.138.138 0 0 0 .144 0 76.667 76.667 0 0 1 23.629-6.779l.12-.014.1.073a111.836 111.836 0 0 1 22.718 21.975c.069.088.119.074.144.069a.31.31 0 0 0 .2-.228" transform="translate(78.176 43.009)" style="fill:#379cf7"/>
                            <path data-name="Path 6054" d="M280.427 150.319c-.127-.008 7.615-10.5 10.793-23.331 3.447-12.541 2.331-27.416-9.318-29.562-16.376-2.45-9.293-29.426-20.734-28.026-10.864 2.106-7.667 7.255-17.316-5.446-10.271-12.454-20.213-6.568-34.952-11.119-15.37-3.934-17.675 15.414-.954 24.514 16.621 10.141-3.248 2.87-.19 12.717 2.432 8.242 37.682 14.323 30.328 18.72-7.394 3.546-8 11.564-.807 16.422 16.952 10.718 43.091 24.572 43.152 25.111" transform="translate(75.591 20.924)" style="fill:#379cf7"/>
                            <path data-name="Path 6055" d="M277.673 157.2a.257.257 0 0 0 .064-.237c-2.428-15.4-8.768-36-21.083-54.066l-.1-.141.025-.161a75.116 75.116 0 0 0 .121-18.975c-.2-2.106-.438-4.22-.679-6.34a.2.2 0 0 0-.166-.206.311.311 0 0 0-.379.172.317.317 0 0 0-.008.127c.237 2.072.469 4.138.668 6.2a78.331 78.331 0 0 1 .1 17.567q-.062.473-.126.944l-.569-.82a128.847 128.847 0 0 0-19.02-21.536c-.066-.062-.134-.122-.2-.182l.069-.242a.22.22 0 0 0 0-.127 73.02 73.02 0 0 0-8.79-19.236.256.256 0 0 0-.255-.143.294.294 0 0 0-.269.224.27.27 0 0 0 .054.182A72.749 72.749 0 0 1 235.4 77.8c.13.421.26.84.388 1.26q-.5-.447-1.01-.893a143.718 143.718 0 0 0-24.947-17.559c-.114-.063-.168-.038-.187-.028a.315.315 0 0 0 .026.542 140.459 140.459 0 0 1 32.458 24.768q.278.286.555.574c-.249.027-.5.052-.746.08a102.2 102.2 0 0 1-24.655-.347c-.094-.014-.154 0-.179.116a.4.4 0 0 0 .058.3.28.28 0 0 0 .206.126 102.057 102.057 0 0 0 25.558.276l.23-.042.159.169a125.825 125.825 0 0 1 12.6 15.608l.064.094c0 .036.007.073.01.109a.259.259 0 0 0 .154.216l.1.05c.022.032.043.063.064.1a126.43 126.43 0 0 1 8.958 15.653c.155.319.308.638.46.958l-.943-.449a98.215 98.215 0 0 0-27.055-8.368.241.241 0 0 0-.278.155.316.316 0 0 0-.007.262.182.182 0 0 0 .152.091 98.348 98.348 0 0 1 28.357 9.006l.133.064.065.139a140.242 140.242 0 0 1 11.082 36.3c.022.132.083.153.111.161a.342.342 0 0 0 .332-.091" transform="translate(80.653 23.917)" style="fill:#2481c6"/>
                        </g>
                    </g>
                    <g data-name="Group 3062">
                        <g data-name="Group 3061" style="clip-path:url(#xqnls1ymjd)">
                            <path data-name="Path 6106" d="m509.615 324.028 2.051-.692c.3-3.584-1.226-9.616-9.268-18.926-14.884-17.228-27.648-41.777-24.424-51.35 0 0-14.559 22.155-4.737 36.776 9.22 13.724 33.723 16.67 36.378 34.192" transform="translate(180.871 101.218)" style="fill:#379cf7"/>
                            <path data-name="Path 6107" d="m508.977 323.746 1.217-.412c.3-3.581-1.226-9.615-9.27-18.925-14.884-17.227-27.648-41.777-24.424-51.35 0 0-7.71 20.357 2.289 33.989 9.873 13.457 27.483 16.255 30.187 36.7" transform="translate(182.346 101.218)" style="fill:#006cbc"/>
                            <path data-name="Path 6108" d="M503.634 314.1a43.259 43.259 0 0 1-2.777 8.585l.949.167c4.364-5.944 11.523-17.713 13.109-32.641 2.318-21.817 5.452-49.127 5.452-49.127s-21.97 18.323-17.05 43.788c2.453 12.7 1.812 22.366.317 29.227" transform="translate(192.814 96.427)" style="fill:#379cf7"/>
                            <path data-name="Path 6109" d="M510.944 274.454c-1.2 18.207-4.6 38.231-9 46.184.641-.5 1.324-1.019 2.022-1.548a67.642 67.642 0 0 0 10.534-28.883c2.32-21.816 5.454-49.127 5.454-49.127s-7.441 9.679-9.005 33.374" transform="translate(193.232 96.427)" style="fill:#006cbc"/>
                            <path data-name="Path 6110" d="M507.1 311.546a32.966 32.966 0 0 1-5.012 4.746l.578.465c5.116-2.377 14.247-7.631 20.78-17.091 9.548-13.825 21.657-31.043 21.657-31.043s-21.514 4.152-27.519 23.128c-2.993 9.462-6.964 15.734-10.483 19.8" transform="translate(193.287 107.443)" style="fill:#379cf7"/>
                            <path data-name="Path 6111" d="M526.327 287.737c-7.473 11.81-17.092 24.025-22.97 27.739.613-.1 1.264-.193 1.929-.29a51.328 51.328 0 0 0 17.668-15.52c9.548-13.825 21.655-31.043 21.655-31.043s-8.558 3.744-18.283 19.114" transform="translate(193.777 107.443)" style="fill:#006cbc"/>
                            <path data-name="Path 6112" d="M505.748 327.621c1.349 3.885 2.336 6.553 2.917 8.4l.778-.179c-1.265-6.822-3.451-18.607-5.512-26.342-3.036-11.39-.672-16.92-3.113-36.747s-14.073-46-14.073-46-7.511 27.629 3.226 53.977 9.832 29.771 15.778 46.892" transform="translate(186.398 90.695)" style="fill:#379cf7"/>
                            <path data-name="Path 6113" d="m508 336.012.147-.034.089-2.787c-1.295-6.941-3.206-16.882-5.019-23.689-3.036-11.392-.672-16.92-3.113-36.747s-14.071-46-14.071-46 3.652 39.374 8.981 56.586c4.932 15.923 11.963 47.973 12.987 52.675" transform="translate(187.109 90.695)" style="fill:#006cbc"/>
                            <path data-name="Path 6114" d="m485.867 303.341 4.707 28.161a5.415 5.415 0 0 0 5.322 4.547h27.215a5.416 5.416 0 0 0 5.323-4.547l4.707-28.161a4.159 4.159 0 0 0-4.07-4.868h-39.133a4.159 4.159 0 0 0-4.07 4.868" transform="translate(187.021 119.382)" style="fill:#fff"/>
                            <path data-name="Path 6115" d="M533.106 301.917v-.008a4.113 4.113 0 0 0-.213-.769l-.021-.052a4.322 4.322 0 0 0-.33-.655c-.025-.039-.053-.077-.078-.116a4.2 4.2 0 0 0-.4-.512c-.055-.062-.118-.115-.177-.174a4.288 4.288 0 0 0-.417-.363c-.1-.074-.211-.132-.317-.2a2.693 2.693 0 0 0-.881-.395c-.107-.034-.208-.078-.319-.1a4.024 4.024 0 0 0-.889-.1h-39.133a4.135 4.135 0 0 0-4.1 4.285h34.947a4.129 4.129 0 0 1-.032.582l-4.71 28.16a5.416 5.416 0 0 1-5.323 4.547H523.1a5.413 5.413 0 0 0 5.321-4.547l4.709-28.161a4.187 4.187 0 0 0-.029-1.424" transform="translate(187.028 119.382)" style="fill:#caedff"/>
                        </g>
                    </g>
                    <g data-name="Group 4374">
                        <g data-name="Group 4373" style="clip-path:url(#s31iyups5f)" transform="translate(332.15 141.541)">
                            <path data-name="Rectangle 2421" transform="translate(-15.597 -.001)" style="fill:url(#ud6cqwhk2a)" d="M0 0h327.52v308.109H0z"/>
                        </g>
                    </g>
                    <g data-name="Group 4376">
                        <g data-name="Group 4375" style="clip-path:url(#wtmnbckqxg)" transform="translate(332.149 138.621)">
                            <path data-name="Path 7398" d="M112.4 785.743c25.531-5.865 43.694-44.089 34.316-60.489-6.337-11.081-21.138-5.011-30.7-17.277-12.211-15.661 4.739-34.76.178-66.439-3.882-26.958-22.378-56.325-37.911-55.329-16.26 1.043-33.682 35.638-26.633 61.021 4.584 16.507 17.131 20.524 16.422 34.582-.823 16.313-18.142 19.343-22.131 34.328-7.166 26.917 32.686 77.36 66.462 69.6" transform="translate(-40.072 -521.113)" style="fill:#91b3fa"/>
                            <path data-name="Path 7399" d="M451.6 1280.176a.947.947 0 0 0 1.165-1.1c-13.825-69.176-4.025-142.7-3.925-143.437a.946.946 0 0 0-1.875-.257c-.1.738-9.943 74.58 3.944 144.064a.946.946 0 0 0 .69.731" transform="translate(-394.083 -1008.401)" style="fill:#7d97f4"/>
                        </g>
                    </g>
                    <g data-name="Group 4378">
                        <g data-name="Group 4377" style="clip-path:url(#mfy7jivduh)" transform="translate(350.604 210.504)">
                            <path data-name="Rectangle 2423" transform="translate(-3.634)" style="fill:url(#2woeac7o0i)" d="M0 0h21.878v67.757H0z"/>
                        </g>
                    </g>
                    <g data-name="Group 4380">
                        <g data-name="Group 4379" style="clip-path:url(#wtmnbckqxg)" transform="translate(332.149 138.621)">
                            <path data-name="Path 7401" d="M585.224 302.962c26.629-7.285 44.093-48.325 33.505-65.186-7.154-11.393-22.476-4.358-33.08-16.858-13.539-15.96 3.479-36.808-2.7-69.967-5.26-28.218-26.012-58.337-42.325-56.612-17.076 1.8-33.918 38.991-25.392 65.413 5.545 17.182 18.931 20.867 18.8 35.7-.158 17.213-18.263 21.157-21.812 37.109-6.375 28.655 37.781 80.039 73.009 70.4" transform="translate(-454.603 -83.996)" style="fill:#bdd0fb"/>
                            <path data-name="Path 7402" d="M934.233 819.178a1 1 0 0 0 1.179-1.211c-17.565-72.24-10.442-150.089-10.368-150.867a1 1 0 0 0-1.985-.189c-.074.781-7.228 78.964 10.415 151.527a1 1 0 0 0 .758.739" transform="translate(-818.9 -592.044)" style="fill:#91b3fa"/>
                        </g>
                    </g>
                    <g data-name="Group 4382">
                        <g data-name="Group 4381" style="clip-path:url(#ykx18as7cj)" transform="translate(399.161 156.299)">
                            <path data-name="Rectangle 2425" transform="translate(-2.626)" style="fill:url(#x1yh03mblk)" d="M0 0h20.244v71.548H0z"/>
                        </g>
                    </g>
                    <g data-name="Group 4384">
                        <g data-name="Group 4383" style="clip-path:url(#wtmnbckqxg)" transform="translate(332.149 138.621)">
                            <path data-name="Path 7404" d="M1200.9 1409a.377.377 0 0 1-.258-.65c10.956-10.347 18.671-19.952 22.93-28.551 3.454-6.974 4.661-13.321 3.586-18.866-2.127-10.976-12.584-15.2-12.689-15.24a.376.376 0 1 1 .275-.7c.109.043 10.949 4.42 13.153 15.8 2.484 12.821-6.513 29.007-26.739 48.107a.375.375 0 0 1-.259.1" transform="translate(-1066.781 -1195.367)" style="fill:#f0f0f0"/>
                        </g>
                    </g>
                    <g data-name="Group 4386">
                        <g data-name="Group 4385" style="clip-path:url(#damd9j4b6l)" transform="translate(451.775 138.393)">
                            <path data-name="Rectangle 2427" transform="rotate(-34.455 85.355 275.488)" style="fill:#173a8d" d="M0 0h321.537v352.343H0z"/>
                        </g>
                    </g>
                    <g data-name="Group 4396">
                        <g data-name="Group 4395" style="clip-path:url(#wtmnbckqxg)" transform="translate(332.149 138.621)">
                            <path data-name="Path 7406" d="M1220.4 162.447a11.635 11.635 0 0 1 11.691-11.613l126.278-.555a11.367 11.367 0 0 1 11.593 11.55l-5.191 237.363c-.127 5.814-5.269 10.509-11.483 10.5l-119.969-.19c-6.178-.01-11.218-4.706-11.259-10.5z" transform="translate(-1084.445 -133.767)" style="fill:#7d97f4"/>
                            <g data-name="Group 4391" style="opacity:.46">
                                <g data-name="Group 4390">
                                    <g data-name="Group 4389" style="clip-path:url(#cie2xnt31m)" transform="translate(191.757 5.628)">
                                        <g data-name="Group 4388">
                                            <g data-name="Group 4387" style="clip-path:url(#e2mfmel8vn)">
                                                <path data-name="Rectangle 2428" transform="translate(-.079 -.005)" style="fill:url(#cclbrkcheb)" d="M0 0h37.437v5.261H0z"/>
                                            </g>
                                        </g>
                                    </g>
                                </g>
                            </g>
                            <g data-name="Group 4394" style="opacity:.27">
                                <g data-name="Group 4393">
                                    <g data-name="Group 4392" style="clip-path:url(#9ao8wfq2vo)" transform="translate(140.509 28.179)">
                                        <path data-name="Path 7408" d="m1311.612 1620.905-18.931-18.8.7 39.652 18.188-20.813z" transform="translate(-1289.184 -1452.042)" style="fill:#fff"/>
                                        <path data-name="Path 7409" d="m1329.1 1852.333-26.756 30.636-.271.314.771 24.276a8.6 8.6 0 0 0 3.281 6.226 11.382 11.382 0 0 0 6.361 2.541l37.807-42.945z" transform="translate(-1297.532 -1674.389)" style="fill:#fff"/>
                                        <path data-name="Path 7410" d="m1277.7 822.309 21.61 21.542 9.116 9.089 21.2 21.128 34.846-39.576-.005-.005-21.113-21.4h.061l.115-.06v-.005l-9.2-9.216-.086.01-.022.008-.016-.008-.014-.01-21.62-21.9-43.087-43.574 1.626 71.479z" transform="translate(-1268.567 -684.493)" style="fill:#fff"/>
                                        <path data-name="Path 7411" d="m1545.219 2155.374 64.484.048-34.37-34.129z" transform="translate(-1513.589 -1913.386)" style="fill:#fff"/>
                                        <path data-name="Path 7412" d="m1889.916 1722.5 43.66 43.524h3.989a11.248 11.248 0 0 0 7.168-2.5 8.358 8.358 0 0 0 3.162-6.086l1.816-49.075-24.955-25.3z" transform="translate(-1819.886 -1523.979)" style="fill:#fff"/>
                                        <path data-name="Path 7413" d="m2278.257 1430.143 17.145 17.469 1.393-38.432-18.522 20.963z" transform="translate(-2164.966 -1280.604)" style="fill:#fff"/>
                                        <path data-name="Path 7414" d="m1304.55 333.266 34.65-40.294-36.507-37.77-30.133-.194a11.052 11.052 0 0 0-11.271 11.385l.573 23.431z" transform="translate(-1261.286 -255.008)" style="fill:#fff"/>
                                        <path data-name="Path 7415" d="m1849.016 258.138-50.129-.322 26.619 27.654z" transform="translate(-1738.998 -257.504)" style="fill:#fff"/>
                                        <path data-name="Path 7416" d="m1767 681.327-34.644 40.139 21.594 21.98 9.088 9.251 20.84 21.52L1811.8 742.1v-.005l.921-13.16.076-.072z" transform="translate(-1679.876 -633.835)" style="fill:#fff"/>
                                        <path data-name="Path 7417" d="m2152.059 263.8-31.542 36.553 38.084 39.556 2.4-64.632a11.254 11.254 0 0 0-8.939-11.478" transform="translate(-2024.798 -262.824)" style="fill:#fff"/>
                                    </g>
                                </g>
                            </g>
                            <path data-name="Rectangle 2431" d="M1.764 0h54.944a1.764 1.764 0 0 1 1.764 1.764 1.764 1.764 0 0 1-1.764 1.764H1.764A1.764 1.764 0 0 1 0 1.764 1.764 1.764 0 0 1 1.764 0z" transform="translate(210.278 40.644)" style="fill:#fff"/>
                            <path data-name="Rectangle 2432" d="M1.764 0h54.944a1.764 1.764 0 0 1 1.764 1.764 1.764 1.764 0 0 1-1.764 1.764H1.764A1.764 1.764 0 0 1 0 1.764 1.764 1.764 0 0 1 1.764 0z" transform="translate(210.278 50.221)" style="fill:#fff"/>
                            <path data-name="Rectangle 2433" d="M1.764 0h54.944a1.764 1.764 0 0 1 1.764 1.764 1.764 1.764 0 0 1-1.764 1.764H1.764A1.764 1.764 0 0 1 0 1.764 1.764 1.764 0 0 1 1.764 0z" transform="translate(210.278 59.799)" style="fill:#fff"/>
                            <path data-name="Path 7418" d="M1423.977 907.891a1.318 1.318 0 0 1-.976-2.2l2.528-2.79a1.318 1.318 0 1 1 1.953 1.769l-2.528 2.79a1.315 1.315 0 0 1-.977.433m6.32-6.974a1.318 1.318 0 0 1-.976-2.2l2.528-2.79a1.318 1.318 0 0 1 1.953 1.769l-2.528 2.79a1.315 1.315 0 0 1-.977.433m6.32-6.974a1.318 1.318 0 0 1-.976-2.2l2.528-2.79a1.318 1.318 0 1 1 1.953 1.769l-2.528 2.79a1.316 1.316 0 0 1-.977.433m6.32-6.975a1.318 1.318 0 0 1-.976-2.2l2.527-2.79a1.318 1.318 0 0 1 1.953 1.77l-2.528 2.79a1.314 1.314 0 0 1-.977.433m6.319-6.975a1.318 1.318 0 0 1-.976-2.2l2.528-2.79a1.318 1.318 0 1 1 1.953 1.77l-2.528 2.79a1.314 1.314 0 0 1-.977.433m6.32-6.974a1.318 1.318 0 0 1-.976-2.2l2.528-2.79a1.318 1.318 0 0 1 1.953 1.769l-2.528 2.79a1.315 1.315 0 0 1-.977.433m6.32-6.975a1.318 1.318 0 0 1-.976-2.2l2.528-2.79a1.318 1.318 0 1 1 1.953 1.769l-2.528 2.79a1.316 1.316 0 0 1-.977.433m6.32-6.975a1.318 1.318 0 0 1-.976-2.2l2.527-2.79a1.318 1.318 0 0 1 1.953 1.769l-2.528 2.79a1.314 1.314 0 0 1-.977.433m6.32-6.974a1.317 1.317 0 0 1-.976-2.2l2.528-2.79a1.318 1.318 0 1 1 1.953 1.77l-2.528 2.79a1.314 1.314 0 0 1-.977.433m6.32-6.974a1.318 1.318 0 0 1-.976-2.2l2.528-2.79a1.318 1.318 0 0 1 1.953 1.77l-2.528 2.79a1.314 1.314 0 0 1-.977.433m6.319-6.974a1.318 1.318 0 0 1-.976-2.2l2.528-2.79a1.318 1.318 0 1 1 1.953 1.769l-2.528 2.79a1.315 1.315 0 0 1-.977.433m6.32-6.974a1.318 1.318 0 0 1-.976-2.2l2.528-2.79a1.318 1.318 0 0 1 1.953 1.77l-2.528 2.79a1.314 1.314 0 0 1-.977.433m6.32-6.974a1.317 1.317 0 0 1-.976-2.2l2.528-2.79a1.318 1.318 0 1 1 1.953 1.769l-2.528 2.79a1.315 1.315 0 0 1-.977.433m5.376-7.558a1.346 1.346 0 0 1-.246-.023 1.318 1.318 0 0 1-1.05-1.539 6.225 6.225 0 0 0 .107-1.143 6.122 6.122 0 0 0-.307-1.918 1.318 1.318 0 0 1 2.5-.824 8.76 8.76 0 0 1 .439 2.743 8.856 8.856 0 0 1-.153 1.63 1.318 1.318 0 0 1-1.293 1.073m-3.555-8.216a1.315 1.315 0 0 1-.95-.4l-2.608-2.715a1.318 1.318 0 0 1 1.9-1.826l2.608 2.715a1.318 1.318 0 0 1-.95 2.23m-6.52-6.787a1.314 1.314 0 0 1-.95-.4l-2.608-2.715a1.318 1.318 0 0 1 1.9-1.826l2.608 2.715a1.318 1.318 0 0 1-.95 2.23m-6.52-6.787a1.314 1.314 0 0 1-.95-.4l-2.608-2.715a1.318 1.318 0 0 1 1.9-1.826l2.608 2.715a1.318 1.318 0 0 1-.95 2.231m-6.521-6.787a1.314 1.314 0 0 1-.95-.4l-2.608-2.715a1.318 1.318 0 0 1 1.9-1.826l2.608 2.715a1.318 1.318 0 0 1-.951 2.231m-6.52-6.787a1.315 1.315 0 0 1-.951-.4l-2.598-2.771a1.318 1.318 0 0 1 1.9-1.826l2.608 2.715a1.318 1.318 0 0 1-.95 2.23m-6.521-6.787a1.315 1.315 0 0 1-.95-.4l-2.608-2.715a1.318 1.318 0 0 1 1.9-1.826l2.608 2.715a1.318 1.318 0 0 1-.95 2.23m-6.52-6.787a1.314 1.314 0 0 1-.95-.4l-2.608-2.715a1.318 1.318 0 0 1 1.9-1.826l2.608 2.715a1.318 1.318 0 0 1-.95 2.231m-6.52-6.787a1.314 1.314 0 0 1-.951-.4l-2.608-2.715a1.318 1.318 0 0 1 1.9-1.826l2.608 2.715a1.318 1.318 0 0 1-.95 2.231m-6.521-6.787a1.314 1.314 0 0 1-.95-.4l-2.611-2.739a1.318 1.318 0 0 1 1.9-1.826l2.608 2.715a1.318 1.318 0 0 1-.95 2.231m-6.52-6.787a1.315 1.315 0 0 1-.95-.4l-2.608-2.715a1.318 1.318 0 0 1 1.9-1.826l2.608 2.715a1.318 1.318 0 0 1-.95 2.23m-6.521-6.787a1.314 1.314 0 0 1-.95-.4l-2.608-2.715a1.318 1.318 0 0 1 1.9-1.826l2.608 2.715a1.318 1.318 0 0 1-.95 2.23m-6.52-6.787a1.314 1.314 0 0 1-.95-.4l-2.608-2.715a1.318 1.318 0 0 1 1.9-1.826l2.608 2.715a1.318 1.318 0 0 1-.95 2.231m-6.5-6.806a1.316 1.316 0 0 1-1.026-.489 8.8 8.8 0 0 1-1.815-3.989 1.317 1.317 0 1 1 2.595-.458 6.157 6.157 0 0 0 1.271 2.791 1.318 1.318 0 0 1-1.024 2.146m-.437-8.791a1.318 1.318 0 0 1-1.1-2.04 8.794 8.794 0 0 1 .726-.957l1.8-2.067a1.318 1.318 0 1 1 1.988 1.731l-1.8 2.068a6.2 6.2 0 0 0-.509.671 1.317 1.317 0 0 1-1.1.6" transform="translate(-1262.3 -633.487)" style="fill:#fff"/>
                        </g>
                    </g>
                    <g data-name="Group 4402">
                        <g data-name="Group 4401" style="clip-path:url(#9j12p2123p)" transform="translate(612.372 405.732)">
                            <path data-name="Rectangle 2437" transform="rotate(-47.668 5.908 13.373)" style="fill:url(#tpmzhh5mhq)" d="M0 0h15.102v14.372H0z"/>
                        </g>
                    </g>
                    <g data-name="Group 4434">
                        <g data-name="Group 4433" style="clip-path:url(#wtmnbckqxg)" transform="translate(332.149 138.621)">
                            <path data-name="Path 7431" d="M774.394 2408.1a.357.357 0 0 1-.328-.5 18.061 18.061 0 0 0-25.449-22.788.356.356 0 0 1-.348-.622 18.775 18.775 0 0 1 26.454 23.688.356.356 0 0 1-.328.218" transform="translate(-664.749 -2116.703)" style="fill:#91b3fa"/>
                            <g data-name="Group 4429" style="opacity:.7">
                                <g data-name="Group 4428">
                                    <g data-name="Group 4427" style="clip-path:url(#chf2a8a15r)" transform="translate(85.894 250.985)">
                                        <path data-name="Path 7432" d="M808.3 2280.033a.356.356 0 0 1-.35-.29c-2.275-11.962-9.092-19.576-20.261-22.628a42.458 42.458 0 0 0-16.242-1 .356.356 0 1 1-.119-.7 43.225 43.225 0 0 1 16.526 1.008c7.884 2.149 17.892 7.917 20.8 23.189a.356.356 0 0 1-.283.417.35.35 0 0 1-.067.006" transform="translate(-771.03 -2255.039)" style="fill:#fff"/>
                                    </g>
                                </g>
                            </g>
                            <path data-name="Path 7434" d="M804.654 1934.447a.356.356 0 0 1-.177-.666l17.15-9.759a33.748 33.748 0 0 1 16.037-4.4l19.673-.353a.363.363 0 0 1 .363.35.356.356 0 0 1-.35.363l-19.673.353a33.033 33.033 0 0 0-15.7 4.3l-17.15 9.758a.354.354 0 0 1-.176.047" transform="translate(-714.698 -1705.692)" style="fill:#91b3fa"/>
                        </g>
                    </g>
                    <g data-name="Group 4436">
                        <g data-name="Group 4435" style="clip-path:url(#bkdreok9ls)" transform="translate(212.972 326.742)">
                            <path data-name="Rectangle 2452" transform="rotate(-84.15 16.768 18.976)" style="fill:#6a4331" d="M0 0h36.502v28.931H0z"/>
                        </g>
                    </g>
                    <g data-name="Group 4438">
                        <g data-name="Group 4437" style="clip-path:url(#jxf6dq27xt)" transform="translate(274.223 313.371)">
                            <path data-name="Rectangle 2453" transform="rotate(-84.169 6.738 7.461)" style="fill:#6a4331" d="M0 0h15.305v19.283H0z"/>
                        </g>
                    </g>
                    <g data-name="Group 4440">
                        <g data-name="Group 4439" style="clip-path:url(#6l1thpp91u)" transform="translate(249.125 299.861)">
                            <path data-name="Rectangle 2454" transform="rotate(-23.334 5.154 24.96)" style="fill:#000c4c" d="M0 0h36.841v35.342H0z"/>
                        </g>
                    </g>
                    <g data-name="Group 4444">
                        <g data-name="Group 4443" style="clip-path:url(#it3pkk6llv)" transform="translate(259.762 281.939)">
                            <path data-name="Rectangle 2456" transform="translate(-1.177)" style="fill:url(#ihzlbr55fw)" d="M0 0h50.451v165.209H0z"/>
                        </g>
                    </g>
                    <g data-name="Group 4446">
                        <g data-name="Group 4445" style="clip-path:url(#zd2rw2gzhx)" transform="translate(271.244 226.205)">
                            <path data-name="Rectangle 2457" transform="translate(-3.166)" style="fill:url(#fj9nwzdzvy)" d="M0 0h75.38v69.857H0z"/>
                        </g>
                    </g>
                    <g data-name="Group 4448">
                        <g data-name="Group 4447" style="clip-path:url(#n3i0nzmu8z)" transform="translate(273.855 226.709)">
                            <path data-name="Rectangle 2458" transform="rotate(-67.303 30.64 50.783)" style="fill:#173a8d" d="M0 0h93.532v96.497H0z"/>
                        </g>
                    </g>
                    <g data-name="Group 4450">
                        <g data-name="Group 4449" style="clip-path:url(#fvf57h2ucA)" transform="translate(261.845 282.342)">
                            <path data-name="Rectangle 2459" transform="rotate(-67.303 75.62 115.362)" style="fill:#173a8d" d="M0 0h171.882v110.291H0z"/>
                        </g>
                    </g>
                    <g data-name="Group 4452">
                        <g data-name="Group 4451" style="clip-path:url(#79grdeizfB)" transform="translate(302.077 307.791)">
                            <path data-name="Rectangle 2460" transform="rotate(-44.2 4.425 13.947)" style="fill:#6a4331" d="M0 0h15.517v15.649H0z"/>
                        </g>
                    </g>
                    <g data-name="Group 4454">
                        <g data-name="Group 4453" style="clip-path:url(#yfjjth4jbC)" transform="translate(239.999 437.754)">
                            <path data-name="Rectangle 2461" transform="rotate(-1.604 -.036 22.97)" style="fill:#000c4c" d="M0 0h14.013v10.926H0z"/>
                        </g>
                    </g>
                    <g data-name="Group 4462">
                        <g data-name="Group 4461" style="clip-path:url(#410tcspidD)" transform="translate(260.331 438.346)">
                            <path data-name="Rectangle 2465" transform="rotate(-1.604 .087 11.683)" style="fill:#000c4c" d="M0 0h19.523v9.768H0z"/>
                        </g>
                    </g>
                    <g data-name="Group 4466" style="isolation:isolate">
                        <g data-name="Group 4465" style="clip-path:url(#0872yphv1E)" transform="translate(232.43 351.273)">
                            <path data-name="Rectangle 2467" transform="rotate(-74.45 43.604 57.383)" style="fill:url(#tguz5j5ugc)" d="M0 0h96.548v58.013H0z"/>
                        </g>
                    </g>
                    <g data-name="Group 4468">
                        <g data-name="Group 4467" style="clip-path:url(#d6gayzb7xF)" transform="translate(383.783 304.217)">
                            <path data-name="Rectangle 2468" transform="rotate(-84.15 .549 .635)" style="fill:url(#x6m4quspeG)" d="M0 0h1.16v.49H0z"/>
                        </g>
                    </g>
                    <g data-name="Group 4470">
                        <g data-name="Group 4469" style="clip-path:url(#w505ovccnH)" transform="translate(213.04 299.092)">
                            <path data-name="Rectangle 2469" transform="rotate(-23.334 10.71 51.867)" style="fill:#000c4c" d="M0 0h71.964v71.459H0z"/>
                        </g>
                    </g>
                    <g data-name="Group 4472">
                        <g data-name="Group 4471" style="clip-path:url(#tqeqtio8sI)" transform="translate(238.063 288.523)">
                            <path data-name="Rectangle 2470" transform="rotate(-78.054 7.18 8.858)" style="fill:#6a4331" d="M0 0h16.814v14.64H0z"/>
                        </g>
                    </g>
                    <g data-name="Group 4474">
                        <g data-name="Group 4473" style="clip-path:url(#t37p4xc7yJ)" transform="translate(237.755 274.42)">
                            <path data-name="Rectangle 2471" transform="rotate(-58.173 7.56 13.59)" style="fill:#6a4331" d="M0 0h23.685v23.184H0z"/>
                        </g>
                    </g>
                    <g data-name="Group 4476">
                        <g data-name="Group 4475" style="clip-path:url(#tsp5r798dK)" transform="translate(233.204 273.215)">
                            <path data-name="Rectangle 2472" d="M-11.907 16.956 6.698-10.951l27.73 18.486-18.605 27.907z"/>
                        </g>
                    </g>
                    <g data-name="Group 4484" style="isolation:isolate">
                        <g data-name="Group 4483" style="clip-path:url(#v59cq6vibL)" transform="translate(228.985 316.176)">
                            <path data-name="Rectangle 2476" transform="rotate(-73.382 19.084 25.644)" style="fill:#003cca" d="M0 0h47.589v42.885H0z"/>
                        </g>
                    </g>
                    <g data-name="Group 4486">
                        <g data-name="Group 4485" style="clip-path:url(#1c02dduxfM)" transform="translate(232.003 299.844)">
                            <path data-name="Rectangle 2477" transform="rotate(-73.382 8.343 11.223)" style="fill:#003cca" d="M0 0h19.346v13.83H0z"/>
                        </g>
                    </g>
                    <g data-name="Group 4488">
                        <g data-name="Group 4487" style="clip-path:url(#1dahf8zyfN)" transform="translate(250.277 299.428)">
                            <path data-name="Rectangle 2478" transform="rotate(-73.382 8.522 11.437)" style="fill:#003cca" d="M0 0h18.739v10.765H0z"/>
                        </g>
                    </g>
                    <g data-name="Group 4490">
                        <g data-name="Group 4489" style="clip-path:url(#85ezjfdfpO)" transform="translate(232.715 270.107)">
                            <path data-name="Rectangle 2479" transform="rotate(-42.109 3.38 17.917)" style="fill:#400b00" d="M0 0h26.547v26.076H0z"/>
                        </g>
                    </g>
                    <g data-name="Group 4492">
                        <g data-name="Group 4491" style="clip-path:url(#czp8jb5kiP)" transform="translate(240.562 274.305)">
                            <path data-name="Rectangle 2480" d="m-1.209.208 23.023-3.974 1.858 10.764L.649 10.97z"/>
                        </g>
                    </g>
                    <g data-name="Group 4494">
                        <g data-name="Group 4493" transform="translate(478.997 101.127)" style="clip-path:url(#swoilyd8dQ)">
                            <path data-name="Rectangle 2481" style="fill:#173a8d" d="M0 0h64.805v63.637H0z"/>
                        </g>
                    </g>
                    <g data-name="Group 4496">
                        <g data-name="Group 4495" transform="translate(480.163 135.574)" style="clip-path:url(#qzum854iaR)">
                            <path data-name="Rectangle 2482" transform="translate(-2.519)" style="fill:#173a8d" d="M0 0h68.589v70.07H0z"/>
                        </g>
                    </g>
                    <g data-name="Group 4501">
                        <g data-name="Group 4534">
                            <path data-name="Path 7466" d="M1350.24 129.108c-16.82-28.845-23.235-47.213-25.559-57.585a34.23 34.23 0 0 1-1.353-9.547v-.122a15.027 15.027 0 0 1 .054-1.821 33.737 33.737 0 0 1 67.35-.34l.086.524a16.573 16.573 0 0 1-.028 3.59 33.332 33.332 0 0 1-1.125 7.111c-2.246 10.381-8.516 28.9-25.627 58.237a8.059 8.059 0 0 1-6.955 3.971h.224v-.047a7.374 7.374 0 0 1-7.069-3.972m38.685-67.753-.048-.914a31.831 31.831 0 0 0-63.58-.274l.008.056c-.015.136-.021.652-.021 1.608v.011l-.341.135a44.781 44.781 0 0 0 .945 9.037v.059c2.417 10.233 8.976 28.447 25.687 57.107a6.584 6.584 0 0 0 5.734 3.067v.959l-.111-.958a5.985 5.985 0 0 0 5.2-3.043c17-29.143 23.2-47.466 25.414-57.706l.011-.046a31.471 31.471 0 0 0 1.068-6.744v-.027c.087-1.064.1-2.327.094-2.327z" transform="translate(-845.57 72.698)" style="fill:#fff"/>
                            <g data-name="Group 4499" style="opacity:.8">
                                <g data-name="Group 4498">
                                    <g data-name="Group 4497" style="clip-path:url(#u0awftzdpS)" transform="translate(490.733 112.029)">
                                        <path data-name="Path 7467" d="M1405.594 128.857a20.516 20.516 0 1 0 20.515-20.515 20.515 20.515 0 0 0-20.515 20.515" transform="translate(-1405.593 -108.342)" style="fill:#4d7ff5"/>
                                    </g>
                                </g>
                            </g>
                        </g>
                    </g>
                    <g data-name="Group 4503">
                        <g data-name="Group 4502" transform="translate(491.141 112.102)" style="clip-path:url(#1jfjp9dhhT)">
                            <path data-name="Rectangle 2485" transform="rotate(-8.867 3.21 41.432)" style="fill:#e9effd" d="M0 0h47.613v47.613H0z"/>
                        </g>
                    </g>
                    <g data-name="Group 4505">
                        <g data-name="Group 4535">
                            <path data-name="Path 7469" d="M1530.768 71.73a.436.436 0 0 0 .284-.767 40.368 40.368 0 0 0-26.289-9.732.436.436 0 0 0 0 .872 39.494 39.494 0 0 1 25.72 9.521.436.436 0 0 0 .284.105" transform="translate(-994.19 34.245)" style="fill:#fff"/>
                            <path data-name="Path 7470" d="M1652.26 171.2a.656.656 0 0 0 .656-.656 60.614 60.614 0 0 0-9.088-31.982.656.656 0 0 0-1.116.691 59.3 59.3 0 0 1 8.892 31.29.656.656 0 0 0 .656.656" transform="rotate(16 1174.354 -3767.593)" style="fill:#fff"/>
                            <path data-name="Path 7471" d="M1467.952 637.02a3.921 3.921 0 1 0 3.921-3.921 3.921 3.921 0 0 0-3.921 3.921" transform="translate(-972.271 -424.179)" style="fill:#fff"/>
                        </g>
                    </g>
                </g>
            </g>
        </g>
        <g data-name="Group 3073">
            <path data-name="Path 6125" d="M755.258 385.123q1.005.128 1.991.248a1.372 1.372 0 0 0 .34-2.723h-.01q-1.776-.216-3.614-.46h-.008a1.372 1.372 0 0 0-.355 2.721q.835.111 1.656.217m-5.276-.721a1.372 1.372 0 0 0 .37-2.719q-1.78-.257-3.609-.541a1.372 1.372 0 0 0-.419 2.712q1.842.285 3.635.544h.023m10.893 1.382h.03c1.244.132 2.477.254 3.664.361a1.372 1.372 0 0 0 .246-2.733 229.527 229.527 0 0 1-3.619-.356 1.372 1.372 0 0 0-.32 2.725m-18.132-2.5a1.372 1.372 0 0 0 .395-2.715q-1.78-.291-3.6-.6a1.372 1.372 0 0 0-.464 2.7q1.831.314 3.622.607l.048.007m25.421 3.15c.026 0 .053.007.08.008 1.264.088 2.5.161 3.685.215a1.372 1.372 0 0 0 .127-2.742c-1.16-.053-2.378-.125-3.621-.212a1.372 1.372 0 0 0-.271 2.729m-32.64-4.387a1.372 1.372 0 0 0 .415-2.712q-1.78-.318-3.594-.655a1.372 1.372 0 1 0-.5 2.7q1.823.339 3.612.659l.068.01m39.95 4.717a1.473 1.473 0 0 0 .153.011c1.286.021 2.535.018 3.712-.007a1.372 1.372 0 0 0-.06-2.744 93.76 93.76 0 0 1-3.606.007 1.372 1.372 0 0 0-.2 2.733m-47.151-6.053a1.372 1.372 0 0 0 .431-2.708q-1.779-.341-3.587-.7a1.372 1.372 0 1 0-.532 2.692q1.815.358 3.6.7c.029.006.058.01.086.013m-7.185-1.418a1.372 1.372 0 0 0 .445-2.706q-1.777-.361-3.58-.735a1.372 1.372 0 0 0-.558 2.687q1.809.376 3.593.738c.033.006.067.012.1.016m-7.171-1.489a1.372 1.372 0 0 0 .458-2.7q-1.777-.377-3.575-.767a1.372 1.372 0 0 0-.581 2.682q1.8.39 3.586.769c.037.008.075.014.112.019m68.821 8.783a1.367 1.367 0 0 0 .277.007 51.59 51.59 0 0 0 3.739-.408 1.372 1.372 0 0 0-.406-2.714 47.682 47.682 0 0 1-3.535.385 1.372 1.372 0 0 0-.075 2.729m-75.978-10.333a1.372 1.372 0 0 0 .468-2.7q-1.775-.393-3.569-.8a1.372 1.372 0 0 0-.6 2.677q1.8.4 3.579.8c.041.009.083.016.123.021m-7.145-1.6a1.372 1.372 0 0 0 .478-2.7q-1.774-.405-3.564-.82a1.372 1.372 0 0 0-.62 2.673q1.794.415 3.573.822c.044.01.089.018.133.023M692.53 373a1.372 1.372 0 0 0 .486-2.7q-1.773-.416-3.559-.842a1.372 1.372 0 0 0-.636 2.669q1.79.426 3.567.844a1.315 1.315 0 0 0 .141.026m97.477 12.458a1.375 1.375 0 0 0 .537-.038 18.226 18.226 0 0 0 3.688-1.417 1.372 1.372 0 0 0-1.286-2.425 15.423 15.423 0 0 1-3.128 1.192 1.372 1.372 0 0 0 .19 2.685M685.406 371.3a1.372 1.372 0 0 0 .495-2.7q-1.772-.427-3.555-.862a1.372 1.372 0 0 0-.65 2.666q1.787.436 3.562.864a1.312 1.312 0 0 0 .149.028m-7.114-1.736a1.372 1.372 0 0 0 .5-2.693q-1.771-.437-3.551-.881a1.372 1.372 0 0 0-.663 2.663q1.782.445 3.557.883a1.375 1.375 0 0 0 .156.029m-7.1-1.772a1.372 1.372 0 0 0 .507-2.692q-1.77-.446-3.546-.9a1.372 1.372 0 0 0-.676 2.66q1.779.453 3.552.9a1.371 1.371 0 0 0 .163.031m-7.1-1.8a1.372 1.372 0 0 0 .514-2.69q-1.769-.454-3.543-.913a1.372 1.372 0 1 0-.687 2.657q1.776.459 3.548.914a1.305 1.305 0 0 0 .168.032m-7.078-1.832a1.372 1.372 0 0 0 .519-2.689q-1.765-.461-3.533-.926a1.372 1.372 0 0 0-.7 2.654q1.77.466 3.538.927a1.33 1.33 0 0 0 .174.034M796.2 381.849a1.372 1.372 0 0 0 1.286-.555q.121-.168.232-.34a18.761 18.761 0 0 0 1.647-3.186 1.372 1.372 0 0 0-2.552-1.008 16.009 16.009 0 0 1-1.407 2.716c-.045.07-.091.138-.14.206a1.372 1.372 0 0 0 .935 2.167m-146.263-19.556a1.372 1.372 0 0 0 .524-2.688q-1.769-.469-3.538-.942a1.372 1.372 0 0 0-.708 2.652q1.772.473 3.544.943a1.477 1.477 0 0 0 .179.035m-7.085-1.893a1.372 1.372 0 0 0 .529-2.686q-1.773-.477-3.545-.957a1.372 1.372 0 0 0-.717 2.649q1.774.481 3.549.958a1.337 1.337 0 0 0 .183.037m-7.079-1.917a1.372 1.372 0 0 0 .533-2.685l-3.53-.965a1.372 1.372 0 1 0-.726 2.647q1.766.484 3.533.966a1.381 1.381 0 0 0 .188.038m-7.062-1.937a1.372 1.372 0 0 0 .537-2.684q-1.765-.487-3.527-.976a1.372 1.372 0 1 0-.734 2.644q1.763.49 3.53.978a1.33 1.33 0 0 0 .192.038m-7.056-1.959a1.372 1.372 0 0 0 .542-2.683l-3.524-.986a1.372 1.372 0 1 0-.741 2.642q1.76.494 3.527.987a1.382 1.382 0 0 0 .2.04m-7.05-1.979a1.372 1.372 0 0 0 .545-2.682l-3.521-1a1.372 1.372 0 0 0-.749 2.64l3.525 1a1.5 1.5 0 0 0 .2.041m-7.044-2a1.372 1.372 0 0 0 .549-2.681q-1.764-.5-3.519-1.006a1.372 1.372 0 0 0-.756 2.638l3.523 1.007a1.454 1.454 0 0 0 .2.042m191.221 24.473.051.006a1.371 1.371 0 0 0 1.491-1.242 12.717 12.717 0 0 0-.275-4.027 1.372 1.372 0 1 0-2.674.616 10.013 10.013 0 0 1 .217 3.162 1.371 1.371 0 0 0 1.191 1.485m-198.26-26.491a1.372 1.372 0 0 0 .552-2.679l-3.516-1.015a1.372 1.372 0 1 0-.762 2.636l3.519 1.016a1.411 1.411 0 0 0 .207.042m-7.035-2.035a1.372 1.372 0 0 0 .555-2.679l-3.514-1.024a1.372 1.372 0 1 0-.769 2.634l3.517 1.024a1.359 1.359 0 0 0 .21.044m-7.03-2.052a1.372 1.372 0 0 0 .559-2.677q-1.764-.517-3.512-1.032a1.372 1.372 0 0 0-.775 2.632l3.515 1.033a1.391 1.391 0 0 0 .213.044m-7.025-2.069a1.372 1.372 0 0 0 .562-2.677q-1.764-.521-3.51-1.04a1.372 1.372 0 0 0-.781 2.63q1.746.519 3.512 1.041a1.359 1.359 0 0 0 .217.046m-7.021-2.085a1.372 1.372 0 0 0 .564-2.676l-3.508-1.048a1.372 1.372 0 0 0-.786 2.629l3.51 1.048a1.3 1.3 0 0 0 .22.046m224.822 27.768a1.372 1.372 0 0 0 1.377-2.019 19.789 19.789 0 0 0-2.223-3.215 1.372 1.372 0 0 0-2.1 1.765 17.12 17.12 0 0 1 1.916 2.766 1.368 1.368 0 0 0 1.03.7M565.4 338.25a1.372 1.372 0 0 0 .568-2.676l-3.505-1.055a1.372 1.372 0 1 0-.792 2.627l3.508 1.056a1.4 1.4 0 0 0 .222.048m-7.012-2.115a1.372 1.372 0 0 0 .57-2.674q-1.768-.535-3.5-1.063a1.372 1.372 0 0 0-.8 2.626q1.737.528 3.506 1.063a1.337 1.337 0 0 0 .225.048m-7.008-2.13a1.372 1.372 0 0 0 .573-2.674l-3.5-1.07a1.372 1.372 0 0 0-.8 2.624l3.5 1.072a1.475 1.475 0 0 0 .227.049m-7-2.145a1.372 1.372 0 0 0 .575-2.673l-3.5-1.077a1.372 1.372 0 0 0-.808 2.622l3.5 1.078a1.4 1.4 0 0 0 .23.05m248.244 30.653a1.372 1.372 0 0 0 1.094-2.38c-.888-.8-1.88-1.6-2.946-2.391a1.372 1.372 0 1 0-1.627 2.21 35.689 35.689 0 0 1 2.737 2.219 1.364 1.364 0 0 0 .743.342M537.371 329.7a1.372 1.372 0 0 0 .578-2.672l-3.5-1.084a1.372 1.372 0 1 0-.814 2.621l3.5 1.085a1.4 1.4 0 0 0 .233.051m-7-2.174a1.372 1.372 0 0 0 .581-2.672l-3.5-1.091a1.372 1.372 0 0 0-.819 2.619l3.5 1.092a1.4 1.4 0 0 0 .236.051m-6.993-2.188a1.372 1.372 0 0 0 .584-2.67l-3.495-1.1a1.372 1.372 0 0 0-.824 2.617l3.5 1.1a1.4 1.4 0 0 0 .238.052m263.363 32.811a1.372 1.372 0 0 0 .905-2.523 72.055 72.055 0 0 0-3.224-1.9 1.372 1.372 0 1 0-1.327 2.4c1.085.6 2.125 1.211 3.092 1.819a1.375 1.375 0 0 0 .555.2m-270.35-35.007a1.372 1.372 0 0 0 .586-2.67l-3.493-1.107a1.372 1.372 0 0 0-.831 2.616q1.69.537 3.5 1.108a1.339 1.339 0 0 0 .241.053m-6.989-2.219a1.372 1.372 0 0 0 .589-2.669l-3.492-1.115a1.372 1.372 0 0 0-.837 2.613l3.5 1.117a1.368 1.368 0 0 0 .244.054M780.337 354.6a1.372 1.372 0 0 0 .783-2.6 100.87 100.87 0 0 0-3.361-1.585 1.372 1.372 0 1 0-1.126 2.5 99.309 99.309 0 0 1 3.27 1.542 1.362 1.362 0 0 0 .435.132M502.411 318.68a1.372 1.372 0 0 0 .593-2.667l-3.495-1.126a1.372 1.372 0 1 0-.844 2.611q1.582.512 3.5 1.128a1.37 1.37 0 0 0 .247.055m-7-2.262a1.372 1.372 0 0 0 .6-2.666 619.05 619.05 0 0 1-3.311-1.081 1.372 1.372 0 1 0-.858 2.607s1.154.38 3.32 1.084a1.355 1.355 0 0 0 .251.056m278.242 35.163a1.372 1.372 0 0 0 .7-2.63 141.244 141.244 0 0 0-3.441-1.367 1.372 1.372 0 1 0-.981 2.563c1.154.441 2.289.892 3.374 1.341a1.383 1.383 0 0 0 .35.093m-6.847-2.624a1.372 1.372 0 0 0 .634-2.654c-1.133-.4-2.308-.809-3.495-1.2a1.372 1.372 0 1 0-.868 2.6c1.169.39 2.327.789 3.441 1.186a1.376 1.376 0 0 0 .288.069m-6.957-2.324a1.372 1.372 0 0 0 .583-2.671c-1.147-.36-2.335-.722-3.53-1.074a1.372 1.372 0 1 0-.778 2.631c1.181.349 2.354.706 3.487 1.062a1.394 1.394 0 0 0 .238.052m-7.034-2.082a1.372 1.372 0 0 0 .541-2.683 269.485 269.485 0 0 0-3.559-.967 1.372 1.372 0 0 0-.7 2.653c1.179.312 2.364.634 3.522.957a1.406 1.406 0 0 0 .2.04m-7.095-1.876a1.372 1.372 0 0 0 .506-2.692 308.662 308.662 0 0 0-3.583-.873 1.372 1.372 0 0 0-.633 2.67c1.188.281 2.382.572 3.55.864a1.317 1.317 0 0 0 .16.03m-7.145-1.693a1.372 1.372 0 0 0 .472-2.7 285.82 285.82 0 0 0-3.607-.784 1.372 1.372 0 0 0-.566 2.685c1.18.248 2.382.51 3.573.776.042.009.085.017.127.022m-7.193-1.515a1.372 1.372 0 0 0 .437-2.707c-2.291-.45-3.612-.676-3.667-.686a1.372 1.372 0 1 0-.462 2.7c.013 0 1.346.231 3.6.673.031.006.061.011.092.015" transform="translate(84.573 -277.991)" style="fill:#556795"/>
            <path data-name="Path 6126" d="m1452.221 309.972-47.813-35.819 46.675 8.8-4.647 7.479 8.338 12.006z" transform="translate(-891.531 -253.081)" style="fill:#173a8d"/>
            <path data-name="Path 6127" d="m1295.82 274.153 52.757 16.819 35.849 32.367z" transform="translate(-782.943 -253.081)" style="fill:#4d7ff5"/>
            <path data-name="Path 6128" d="m1449.164 268.021-46.675-8.8 51.042-8.117z" transform="translate(-889.612 -238.149)" style="fill:#4d7ff5"/>
        </g>
    </g>
</svg>
