<svg xmlns="http://www.w3.org/2000/svg" xmlns:xlink="http://www.w3.org/1999/xlink" width="48.529" height="48.529" viewBox="0 0 48.529 48.529">
  <defs>
    <clipPath id="clip-path">
      <rect id="Rectangle_2489" data-name="Rectangle 2489" width="18" height="24" transform="translate(0.337 -0.001)" fill="#173a8d"/>
    </clipPath>
  </defs>
  <g id="Group_4514" data-name="Group 4514" transform="translate(-359 -382)">
    <path id="Path_7355" data-name="Path 7355" d="M24.265,0A24.265,24.265,0,1,1,0,24.265,24.265,24.265,0,0,1,24.265,0Z" transform="translate(359 382)" fill="#fff"/>
    <g id="Group_4512" data-name="Group 4512" transform="translate(373.663 393.914)">
      <g id="Group_4511" data-name="Group 4511" transform="translate(0 0.088)" clip-path="url(#clip-path)">
        <path id="Path_7472" data-name="Path 7472" d="M10.49,0a8.149,8.149,0,0,1,.82.225A3.615,3.615,0,0,1,13.6,2.749c.064.23.157.281.375.272a5.118,5.118,0,0,1,2.054.261A4.376,4.376,0,0,1,18.54,5.614c.3.653-.006,1.114-.734,1.114H2.315c-.518,0-1.036,0-1.554,0A.69.69,0,0,1,.085,5.7,4.345,4.345,0,0,1,4.061,3.02c.247-.013.495-.011.742,0,.143.006.189-.042.228-.183A3.678,3.678,0,0,1,7.68.119C7.841.072,8.007.04,8.17,0ZM6.42,3h5.82a2.136,2.136,0,0,0-1.745-1.544,9.81,9.81,0,0,0-2.33,0A2.139,2.139,0,0,0,6.42,3" transform="translate(0 -0.068)" fill="#173a8d"/>
        <path id="Path_7473" data-name="Path 7473" d="M26.318,131.2h15.4c-.036.52-.069,1.027-.1,1.533q-.177,2.5-.356,4.994-.2,2.775-.4,5.549c-.037.516-.077,1.033-.107,1.549a2.088,2.088,0,0,1-2.079,1.992q-4.649.011-9.3,0a2.1,2.1,0,0,1-2.081-1.991c-.157-2.3-.33-4.609-.494-6.914q-.2-2.763-.388-5.527c-.028-.391-.057-.782-.087-1.187m5.982,7.462h0c-.063-1.249-.123-2.5-.19-3.748a.694.694,0,0,0-1.388.034c0,.123.007.247.013.37q.11,2.2.221,4.4c.045.887.089,1.774.137,2.66a.695.695,0,1,0,1.389-.034c0-.123-.008-.247-.015-.37q-.085-1.654-.17-3.308m3.433-.012h0c-.006.123-.012.247-.018.37-.055,1.072-.118,2.143-.158,3.216a1.066,1.066,0,0,0,.14.542.625.625,0,0,0,.732.255.7.7,0,0,0,.51-.692q.11-2.151.22-4.3c.051-1.018.106-2.036.147-3.054a.69.69,0,0,0-.675-.734.7.7,0,0,0-.712.676q-.1,1.862-.188,3.725" transform="translate(-24.687 -123.14)" fill="#173a8d"/>
      </g>
    </g>
  </g>
</svg>
