<svg xmlns="http://www.w3.org/2000/svg" width="334.793" height="335.274" viewBox="0 0 334.793 335.274">
  <g id="Group_5367" data-name="Group 5367" transform="translate(-383 -310)">
    <ellipse id="f27bc950f392b09fd23aab0b554c374b" cx="167.397" cy="167.637" rx="167.397" ry="167.637" transform="translate(383 310)" fill="#d6d9e2"/>
    <g id="Group_5366" data-name="Group 5366" transform="translate(480 369)">
      <path id="Path_8250" data-name="Path 8250" d="M139.737,110.027c-.527.288-.541.863-.675,1.331-3.332,11.64-11.042,19.44-21.687,24.676-.585.288-1.258.438-1.649,1.034-3.132.587-6,2.1-9.169,2.568-.051-.5-.331-.711-.828-.855-4.229-1.228-8.279-2.931-12.386-4.5C83.7,130.6,78.811,123.153,76.028,113.823c-2.217-7.436-2.252-15.156-2.524-22.778a190.625,190.625,0,0,1,.7-29.173c2.6-1.54,5.513-1.885,8.438-2.046a50.161,50.161,0,0,1,16.732,2.233,5.125,5.125,0,0,0,3-.033,54.414,54.414,0,0,1,16.738-2.231c9.3.281,15.579,5.3,18.042,14.269,1.212,4.413.874,9.025,2.127,13.421a27.261,27.261,0,0,1,.958,7.834c-.043,3.486-.043,6.973-.061,10.46.575,1.491-1.727,2.686-.439,4.25m-39.347-21a8.012,8.012,0,0,0-3.777,3.446,24.572,24.572,0,0,0-3.341,13.876,7.661,7.661,0,0,0,2.868,5.905c3.125,2.551,8.938,1.642,10.413-1.7-.619,0-1.2,0-1.789,0-3.721-.028-5.887-1.57-7.046-5.112a15.522,15.522,0,0,1-.226-7.168,42.362,42.362,0,0,1,2.9-9.247m1.266,39.636a12.039,12.039,0,0,0,7.165-2.58c.992-.807,1.825-1.938.9-3.239-.816-1.142-1.978-2.327-3.5-1.253-3.536,2.49-6.987,2.158-10.517.092a2.452,2.452,0,0,0-3.753.918c-.949,1.615-.265,2.857,1.167,3.7a16.083,16.083,0,0,0,8.545,2.359M82.218,94.388c0-.584.031-1.171-.006-1.753-.1-1.6-.932-2.713-2.556-2.731-1.744-.019-2.606,1.132-2.668,2.838-.037,1.021-.045,2.047,0,3.068a2.533,2.533,0,0,0,2.553,2.734c1.63.039,2.5-1.025,2.663-2.622.051-.507.008-1.022.01-1.533m42.448-.308c0-.292.006-.584,0-.877-.054-2.12-1.053-3.459-2.654-3.318-2.01.177-2.659,1.543-2.592,3.384.011.292,0,.584,0,.877,0,3.124.8,4.464,2.656,4.437,1.83-.027,2.593-1.354,2.59-4.5" transform="translate(-30.064 -24.523)" fill="#ae7d78"/>
      <path id="Path_8251" data-name="Path 8251" d="M141.464,310.883q-20.172.036-40.343.067c-10.581,0-21.163-.044-31.744-.068-.918-5.088-1.849-10.16-2.271-15.337a161.35,161.35,0,0,1,.073-23.68c.038-.589.235-.982.847-1.093.719,2,2.631,2.872,4.025,4.235Q83.907,286.6,95.756,298.2c.559.546,1,1.311,1.961,1.251h0c.1.238.17.654.312.681.5.094.479-.341.509-.681h0c.961.059,1.408-.707,1.965-1.258,3.345-3.311,6.492-6.845,10.045-9.913,5.621-4.854,10.37-10.6,16.113-15.311a3.19,3.19,0,0,0,1.125-3.878c-.97-2.833-1.7-5.746-2.556-8.619-.733-2.466-.711-2.74,1.914-2.407,4.551.577,7.269-.782,9.367-5.231,3.841-8.147,8.357-15.973,10.657-24.77a1.8,1.8,0,0,1,.919-1.391c9.3.824,18.377,9.422,20.3,19.188a28.027,28.027,0,0,1,.482,5.472q-.02,28.673.034,57.345c.007,1.8-.39,2.363-2.274,2.322-6.626-.144-13.256-.095-19.885-.119q.005-24.124.008-48.247c0-2.387-.876-3.637-2.539-3.719-1.745-.086-2.759,1.25-2.76,3.719q0,24.123.008,48.247" transform="translate(-27.369 -93.007)" fill="#332f2f" stroke="#332f2f" stroke-width="1"/>
      <path id="Path_8252" data-name="Path 8252" d="M125.9,81.254c.018-3.487.018-6.974.061-10.46A27.261,27.261,0,0,0,125,62.96c-1.253-4.4-.915-9.008-2.127-13.421-2.463-8.966-8.746-13.987-18.042-14.269A54.4,54.4,0,0,0,88.092,37.5a5.123,5.123,0,0,1-3,.032A50.18,50.18,0,0,0,68.364,35.3c-2.925.162-5.834.507-8.437,2.047A10.906,10.906,0,0,0,54.216,41.6c-3.54,4.738-4.268,10.161-3.747,15.849a4.16,4.16,0,0,1-.129,2.115,36.657,36.657,0,0,0-2.3,11.773c-.288,4.608.218,9.2.008,13.8a215.417,215.417,0,0,1-5.358-21.657c-1.89-9.805-3.62-19.631-4.111-29.632A51.754,51.754,0,0,1,39.7,18.526a11.481,11.481,0,0,1,6.069-7.92q41.423-21.474,82.493.55c2.987,1.6,4.317,4.317,5.106,7.371,1.8,6.949,1.358,14,.729,21.034a235.734,235.734,0,0,1-3.7,23.915c-.479,2.288-.836,4.611-1.462,6.858-1.015,3.639-1.339,7.471-3.036,10.92" transform="translate(-15.784 0)" fill="#4e3839"/>
      <path id="Path_8253" data-name="Path 8253" d="M40.657,270.766c-.612.111-.808.5-.847,1.093a161.35,161.35,0,0,0-.073,23.68c.422,5.177,1.353,10.249,2.271,15.337-13.542.024-27.084.027-40.626.1-1.548.009-1.369-.859-1.368-1.823q.011-12.01,0-24.02c0-11.974-.057-23.947.022-35.92.071-10.728,10.251-21.72,20.733-22.556,1.387,2.2,1.53,4.826,2.5,7.177,2.866,6.963,6.187,13.7,9.7,20.357,1.5,2.837,3.272,4.464,6.633,3.837A15.837,15.837,0,0,1,42.464,258a44.655,44.655,0,0,0-1.232,5.456c-.225,2.148-1.436,4.227-.564,6.468q-.005.421-.01.841" transform="translate(0 -93.001)" fill="#332f2f"/>
      <path id="Path_8254" data-name="Path 8254" d="M124.962,218.2a2.288,2.288,0,0,1,1.536.3q-9.969,29.63-19.926,59.263c-2.11,6.3-4.454,12.534-6.2,18.96h-.82c-.136-.565-.231-1.144-.413-1.694-2.378-7.16-4.742-14.325-7.16-21.471Q85.9,255.569,79.753,237.6c-1.805-6.528-4.11-12.891-6.373-19.267l2.546-.64,14.713,8.547c2.679,2.067,5.733,3.525,8.607,5.275a1.9,1.9,0,0,0,2.079-.069L124.962,218.2" transform="translate(-30.109 -89.322)" fill="#989ba2" stroke="#989ba2" stroke-width="1"/>
      <path id="Path_8255" data-name="Path 8255" d="M120.687,295.664c1.741-6.426,4.085-12.655,6.2-18.961q9.92-29.645,19.926-59.263c7.7,2.277,15.607,3.68,23.428,5.445a1.8,1.8,0,0,0-.919,1.391c-2.3,8.8-6.816,16.624-10.657,24.77-2.1,4.449-4.815,5.808-9.367,5.231-2.625-.333-2.647-.059-1.914,2.407.854,2.873,1.586,5.786,2.557,8.619a3.19,3.19,0,0,1-1.125,3.877c-5.744,4.712-10.492,10.458-16.113,15.311-3.553,3.068-6.7,6.6-10.045,9.913-.557.551-1,1.317-1.966,1.258" transform="translate(-49.519 -89.219)" fill="#5e6065"/>
      <path id="Path_8256" data-name="Path 8256" d="M54.644,111.122c.211-4.6-.3-9.194-.008-13.8a36.651,36.651,0,0,1,2.3-11.773,4.155,4.155,0,0,0,.129-2.115c-.521-5.688.207-11.111,3.747-15.849a10.91,10.91,0,0,1,5.711-4.246,190.531,190.531,0,0,0-.7,29.172c.272,7.622.307,15.343,2.524,22.778,2.783,9.331,7.67,16.775,17.314,20.457,4.108,1.569,8.158,3.272,12.386,4.5.5.144.777.352.829.856-1.235.126-2.432.433-3.691.514C89.252,142,83.7,140.5,78.225,138.5c-3.657-2.015-7.411-3.861-10.653-6.56-6.382-5.313-11.051-11.7-12.856-19.945l.158-.139-.245-.259,0,.02.014-.5" transform="translate(-22.381 -25.989)" fill="#ae7d78" stroke="#ae7d78" stroke-width="1"/>
      <path id="Path_8257" data-name="Path 8257" d="M58.626,217.159c2.263,6.377,4.568,12.74,6.372,19.267a20.015,20.015,0,0,0-1.458,1.863A55.118,55.118,0,0,0,56.92,254.1a15.891,15.891,0,0,0-2.855.027c-3.361.627-5.135-1-6.633-3.837-3.516-6.658-6.837-13.394-9.7-20.357-.968-2.352-1.111-4.979-2.5-7.178,4.729-1.021,9.474-1.98,14.183-3.086,3.1-.728,6.143-1.669,9.212-2.515" transform="translate(-14.456 -89.103)" fill="#5e6065"/>
      <path id="Path_8258" data-name="Path 8258" d="M88.35,190.8c5.475,2,11.027,3.492,16.957,3.111,1.259-.081,2.455-.387,3.691-.513,3.167-.464,6.037-1.981,9.168-2.568a22.67,22.67,0,0,0,3.291,11.4c-7.308,1.425-14.414,3.49-20.93,7.162-2.368,1.334-5,2.421-6.592,4.857l-14.713-8.546c7.238-2.407,8.76-8.3,9.128-14.9" transform="translate(-32.506 -78.29)" fill="#ae7d78" stroke="#ae7d78" stroke-width="1"/>
      <path id="Path_8259" data-name="Path 8259" d="M104.172,222.2c1.589-2.436,4.224-3.522,6.593-4.857,6.515-3.672,13.622-5.737,20.93-7.162,1.87,2,4.524,2.665,6.8,3.974L114.857,227.41a1.9,1.9,0,0,1-2.078.068c-2.874-1.751-5.928-3.208-8.607-5.275" transform="translate(-42.743 -86.242)" fill="#ae7d78" stroke="#ae7d78" stroke-width="1"/>
      <path id="Path_8260" data-name="Path 8260" d="M193.479,333.315q-.005-24.124-.008-48.247c0-2.469,1.015-3.805,2.76-3.719,1.663.082,2.539,1.332,2.539,3.719q0,24.124-.008,48.247h-5.284" transform="translate(-79.383 -115.439)" fill="#5e6065"/>
      <path id="Path_8261" data-name="Path 8261" d="M186.147,125.366c1.7-3.449,2.021-7.281,3.036-10.92.627-2.247.984-4.57,1.462-6.858,5.25-.568,8.127,1.948,8.3,7.3a24.18,24.18,0,0,1-2.868,11.822c-2.322,4.59-5.86,5.547-10.374,2.909-1.288-1.564,1.015-2.759.439-4.25" transform="translate(-76.035 -44.113)" fill="#ae7d78"/>
      <path id="Path_8262" data-name="Path 8262" d="M45.2,129.25l-.014.5a33.809,33.809,0,0,1-3.275,1.119A6.115,6.115,0,0,1,35.132,128a24.023,24.023,0,0,1-3.586-13.139c.163-5.348,3.01-7.807,8.3-7.272A215.388,215.388,0,0,0,45.2,129.25" transform="translate(-12.939 -44.117)" fill="#ae7d78" stroke="#ae7d78" stroke-width="1"/>
      <path id="Path_8263" data-name="Path 8263" d="M54.685,145.183l.245.258-.157.139a.707.707,0,0,1-.087-.4" transform="translate(-22.437 -59.57)" fill="#9c713f"/>
      <path id="Path_8264" data-name="Path 8264" d="M114.281,109.383a42.353,42.353,0,0,0-2.9,9.247,15.511,15.511,0,0,0,.227,7.168c1.158,3.542,3.325,5.084,7.045,5.113.585,0,1.169,0,1.789,0-1.476,3.341-7.289,4.25-10.414,1.7a7.661,7.661,0,0,1-2.868-5.9,24.571,24.571,0,0,1,3.341-13.876,8.015,8.015,0,0,1,3.777-3.446" transform="translate(-43.955 -44.881)" fill="#ae7d78" stroke="#ae7d78" stroke-width="1"/>
      <path id="Path_8265" data-name="Path 8265" d="M114.343,171.385a16.083,16.083,0,0,1-8.545-2.359c-1.432-.845-2.116-2.087-1.167-3.7a2.452,2.452,0,0,1,3.753-.919c3.53,2.066,6.981,2.4,10.517-.091,1.525-1.074,2.686.11,3.5,1.253.929,1.3.1,2.431-.9,3.238a12.035,12.035,0,0,1-7.165,2.58" transform="translate(-42.752 -67.247)" fill="#ae7d78" stroke="#ae7d78" stroke-width="1"/>
      <path id="Path_8266" data-name="Path 8266" d="M84.781,115.358c0,.511.042,1.027-.009,1.533-.161,1.6-1.033,2.661-2.662,2.622a2.534,2.534,0,0,1-2.553-2.734c-.05-1.02-.041-2.046,0-3.068.062-1.705.925-2.857,2.668-2.838,1.624.018,2.455,1.128,2.556,2.731.037.583.006,1.169,0,1.753" transform="translate(-32.629 -45.493)" fill="#ae7d78" stroke="#ae7d78" stroke-width="1"/>
      <path id="Path_8267" data-name="Path 8267" d="M156.773,115.029c0,3.15-.76,4.478-2.59,4.5-1.856.027-2.658-1.313-2.656-4.437,0-.292.009-.585,0-.877-.067-1.842.583-3.207,2.592-3.384,1.6-.141,2.6,1.2,2.654,3.318.008.292,0,.584,0,.877" transform="translate(-62.171 -45.473)" fill="#ae7d78" stroke="#ae7d78" stroke-width="1"/>
      <path id="Path_8268" data-name="Path 8268" d="M70.754,267.51a55.134,55.134,0,0,1,6.62-15.814,20.092,20.092,0,0,1,1.458-1.863q6.12,17.977,12.232,35.957c2.418,7.146,4.782,14.311,7.16,21.471.182.55.277,1.129.413,1.694-.957.06-1.4-.705-1.961-1.251q-11.86-11.589-23.7-23.192c-1.394-1.363-3.306-2.233-4.025-4.236q0-.42.01-.841c1.379-3.26,2.013-6.757,3.2-10.072C72.72,267.779,72.241,267.359,70.754,267.51Z" transform="translate(-28.29 -102.509)" fill="#5e6065" stroke="#5e6065" stroke-width="1"/>
      <path id="Path_8269" data-name="Path 8269" d="M119.295,350.09h.821c-.031.338-.009.774-.509.68-.142-.027-.21-.443-.312-.68" transform="translate(-48.948 -143.646)" fill="#ae7d78"/>
      <path id="Path_8270" data-name="Path 8270" d="M70.544,279.79c1.487-.15,1.965.269,1.4,1.852-1.184,3.316-1.818,6.812-3.2,10.072-.872-2.24.338-4.319.564-6.468a44.668,44.668,0,0,1,1.232-5.456" transform="translate(-28.08 -114.79)" fill="#5e6065"/>
    </g>
  </g>
</svg>
